<svg width="13" height="15" viewBox="0 0 13 15" fill="none" xmlns="http://www.w3.org/2000/svg">
<path d="M8.55859 9.0625C10.582 9.0625 12.25 10.7305 12.25 12.7539V13.4375C12.25 14.1758 11.6484 14.75 10.9375 14.75H1.3125C0.574219 14.75 0 14.1758 0 13.4375V12.7539C0 10.7305 1.64062 9.0625 3.66406 9.0625C4.45703 9.0625 4.8125 9.5 6.125 9.5C7.41016 9.5 7.76562 9.0625 8.55859 9.0625ZM10.9375 13.4375V12.7539C10.9375 11.4414 9.87109 10.375 8.55859 10.375C8.14844 10.375 7.51953 10.8125 6.125 10.8125C4.70312 10.8125 4.07422 10.375 3.66406 10.375C2.35156 10.375 1.3125 11.4414 1.3125 12.7539V13.4375H10.9375ZM6.125 8.625C3.9375 8.625 2.1875 6.875 2.1875 4.6875C2.1875 2.52734 3.9375 0.75 6.125 0.75C8.28516 0.75 10.0625 2.52734 10.0625 4.6875C10.0625 6.875 8.28516 8.625 6.125 8.625ZM6.125 2.0625C4.67578 2.0625 3.5 3.26562 3.5 4.6875C3.5 6.13672 4.67578 7.3125 6.125 7.3125C7.54688 7.3125 8.75 6.13672 8.75 4.6875C8.75 3.26562 7.54688 2.0625 6.125 2.0625Z" fill="#292929"/>
</svg>
