<svg width="64" height="64" viewBox="0 0 64 64" fill="none" xmlns="http://www.w3.org/2000/svg">
<path d="M59 56.9414H55.31V24.68C55.3105 24.2859 55.2333 23.8955 55.0827 23.5313C54.9321 23.1671 54.7112 22.8362 54.4325 22.5575C54.1538 22.2788 53.8229 22.0579 53.4587 21.9073C53.0945 21.7567 52.7041 21.6795 52.31 21.68H49.5C48.7045 21.6806 47.9418 21.9969 47.3794 22.5594C46.8169 23.1218 46.5006 23.8845 46.5 24.68V56.9414H42.57V39.33C42.5694 38.5346 42.2531 37.7719 41.6906 37.2094C41.1281 36.6469 40.3655 36.3306 39.57 36.33H36.77C35.9745 36.3306 35.2118 36.6469 34.6494 37.2094C34.0869 37.7719 33.7706 38.5345 33.77 39.33V56.9414H29.84V32.99C29.8377 32.1951 29.5209 31.4334 28.9587 30.8713C28.3966 30.3092 27.6349 29.9923 26.84 29.99H24.03C23.2345 29.9906 22.4718 30.3069 21.9094 30.8694C21.3469 31.4318 21.0306 32.1945 21.03 32.99V56.9414H17.1V45.12C17.0977 44.3251 16.7809 43.5634 16.2188 43.0012C15.6567 42.4391 14.8949 42.1223 14.1 42.12H11.29C10.4951 42.1223 9.73336 42.4391 9.17125 43.0013C8.60914 43.5634 8.29233 44.3251 8.29 45.12V56.9414H7.45459C7.08179 56.9533 6.71944 56.8171 6.44684 56.5625C6.17424 56.3079 6.01357 55.9557 6 55.583V6.05859C6 5.79338 5.89464 5.53902 5.70711 5.35149C5.51957 5.16395 5.26522 5.05859 5 5.05859C4.73478 5.05859 4.48043 5.16395 4.29289 5.35149C4.10536 5.53902 4 5.79338 4 6.05859V55.583C4.01401 56.4861 4.38554 57.3467 5.03312 57.9763C5.6807 58.6058 6.5515 58.9529 7.45459 58.9414H59C59.2616 58.936 59.5107 58.8282 59.6938 58.6413C59.8769 58.4543 59.9795 58.2031 59.9795 57.9414C59.9795 57.6797 59.8769 57.4285 59.6938 57.2415C59.5107 57.0546 59.2616 56.9468 59 56.9414Z" fill="#292929"/>
<path d="M12.6902 32.7298C13.251 32.7252 13.8015 32.5792 14.2909 32.3053C14.7802 32.0313 15.1926 31.6384 15.4897 31.1628C15.7868 30.6872 15.9591 30.1443 15.9907 29.5844C16.0222 29.0245 15.912 28.4657 15.6702 27.9597L23.8302 20.1498C24.5348 20.5311 25.353 20.646 26.1353 20.4734C26.9176 20.3007 27.6116 19.8522 28.0902 19.2098L34.8502 21.5298C34.8382 22.0157 34.9331 22.4983 35.1282 22.9434C35.3232 23.3886 35.6137 23.7855 35.9791 24.106C36.3445 24.4266 36.7758 24.6629 37.2426 24.7983C37.7094 24.9338 38.2003 24.965 38.6805 24.8898C39.1606 24.8146 39.6185 24.6348 40.0215 24.3632C40.4246 24.0916 40.763 23.7347 41.0129 23.3178C41.2628 22.9009 41.4181 22.4342 41.4677 21.9507C41.5174 21.4672 41.4602 20.9787 41.3002 20.5198L49.2803 14.5198C49.777 14.866 50.3586 15.0703 50.9627 15.111C51.5668 15.1516 52.1706 15.027 52.7092 14.7505C53.2478 14.474 53.701 14.056 54.0201 13.5414C54.3391 13.0268 54.512 12.4351 54.5202 11.8297C54.2097 6.68806 46.6568 7.97697 48.0703 12.9199L40.1002 18.9198C39.3913 18.4154 38.5132 18.2084 37.6536 18.3429C36.794 18.4775 36.0211 18.943 35.5002 19.6399L28.7502 17.3198C28.7612 16.8178 28.658 16.3199 28.4486 15.8636C28.2392 15.4073 27.9289 15.0045 27.5412 14.6855C27.1535 14.3665 26.6984 14.1396 26.2103 14.022C25.7222 13.9044 25.2138 13.8992 24.7233 14.0066C24.2329 14.114 23.7732 14.3314 23.379 14.6423C22.9847 14.9531 22.6662 15.3495 22.4473 15.8013C22.2285 16.2532 22.115 16.7488 22.1155 17.2509C22.1161 17.753 22.2305 18.2484 22.4503 18.6998L14.2902 26.4998C13.8468 26.2574 13.3539 26.1195 12.849 26.0966C12.3442 26.0737 11.8408 26.1664 11.3772 26.3676C10.9137 26.5689 10.5022 26.8734 10.1742 27.2578C9.84622 27.6423 9.61038 28.0966 9.48467 28.5861C9.35897 29.0755 9.34672 29.5872 9.44886 30.0822C9.551 30.5771 9.76484 31.0422 10.0741 31.4419C10.3833 31.8416 10.7797 32.1654 11.2331 32.3886C11.6865 32.6118 12.1849 32.7285 12.6902 32.7298Z" fill="#292929"/>
</svg>
