<svg width="64" height="64" viewBox="0 0 64 64" fill="none" xmlns="http://www.w3.org/2000/svg">
<path fill-rule="evenodd" clip-rule="evenodd" d="M7.58861 19.0263C8.21005 24.0446 12.782 27.609 17.8003 26.9876C19.164 26.8186 20.4202 26.3575 21.5144 25.6754C21.5526 25.6516 21.5981 25.6515 21.6364 25.6752L25.5867 28.115C25.6751 28.1696 25.7852 28.0889 25.7597 27.9881L24.4494 22.8039C24.4415 22.7724 24.4461 22.7423 24.4632 22.7145C25.5232 21.0021 26.0283 18.9301 25.7615 16.7757C25.1401 11.7573 20.5682 8.19306 15.5498 8.8145C10.5315 9.43607 6.96717 14.008 7.58861 19.0263ZM53.0619 23.9176L56.9217 27.7774C56.9668 27.8225 57.0404 27.8225 57.0854 27.7774L58.6651 26.1978C59.001 25.8619 59.0008 25.3104 58.6651 24.9745L55.8648 22.1742C55.529 21.8384 54.9774 21.8384 54.6417 22.1741L53.062 23.7538C53.0167 23.7989 53.0167 23.8724 53.0619 23.9176ZM35.5572 41.4221C35.5122 41.3771 35.5122 41.3035 35.5572 41.2584L51.6703 25.1454C51.7153 25.1003 51.7889 25.1003 51.834 25.1454L55.6938 29.0052C55.7389 29.0503 55.7389 29.1239 55.6938 29.1689L39.5808 45.282C39.5357 45.327 39.4621 45.327 39.4171 45.282L35.5572 41.4221ZM34.2116 46.7638L37.526 46.1009C37.6169 46.0827 37.6507 45.9711 37.5852 45.9056L34.9336 43.254C34.8681 43.1885 34.7565 43.2223 34.7383 43.3132L34.0754 46.6276C34.0591 46.709 34.1303 46.7801 34.2116 46.7638ZM55.6484 53.588H5.19872C5.13498 53.588 5.08301 53.64 5.08301 53.7037V55.1394C5.08301 55.2031 5.13498 55.2551 5.19872 55.2551H55.6484C55.7121 55.2551 55.7641 55.2031 55.7641 55.1394V53.7037C55.7641 53.64 55.7121 53.588 55.6484 53.588ZM28.2072 41.4294C27.2658 46.5705 22.7598 50.3748 17.4577 50.3748C14.7258 50.3748 12.1254 49.3619 10.1257 47.551C10.078 47.5077 10.0044 47.5117 9.96147 47.5598L6.31808 51.6587C6.25165 51.7334 6.30464 51.8513 6.40461 51.8513H54.4425C54.5425 51.8513 54.5955 51.7334 54.529 51.6587L45.7309 41.7608C45.6865 41.7108 45.6099 41.7086 45.5626 41.7558L40.113 47.2054C39.9793 47.3392 39.8258 47.4123 39.6536 47.4458L33.1045 48.7556C32.4989 48.8764 31.9558 48.3423 32.0869 47.7182L33.3361 41.4727C33.3505 41.4007 33.296 41.3342 33.2225 41.3342H28.3212C28.2646 41.3344 28.2173 41.3739 28.2072 41.4294ZM26.6505 39.4454C26.6505 44.4795 22.5775 48.6382 17.4577 48.6382C12.3685 48.6382 8.26483 44.5105 8.26483 39.4454C8.26483 34.3684 12.3805 30.2527 17.4577 30.2527C22.5347 30.2526 26.6505 34.3684 26.6505 39.4454ZM19.3134 35.7846C20.6764 35.7846 21.7811 36.8895 21.7811 38.2523C21.7811 40.474 19.4676 43.0025 17.5054 43.8928C17.4739 43.9071 17.4413 43.9071 17.4098 43.8928C15.4476 43.0025 13.1341 40.4741 13.1341 38.2523C13.1341 36.0154 15.8646 34.9655 17.3743 36.5353C17.4202 36.5829 17.4949 36.5832 17.5409 36.5357C17.9894 36.0726 18.6177 35.7846 19.3134 35.7846ZM36.3604 14.1596L43.5459 18.3088C43.7388 18.4199 43.7386 18.6987 43.5437 18.8098L36.3593 22.9576C36.1665 23.0686 35.9274 22.9273 35.9276 22.7077L35.9274 14.4094C35.9274 14.1877 36.1674 14.0497 36.3604 14.1596ZM33.748 10.5975C29.3512 13.136 27.8446 18.7583 30.3831 23.1551C32.9216 27.5519 38.5439 29.0583 42.9407 26.5198C47.3375 23.9813 48.844 18.3591 46.3054 13.9623C43.767 9.56547 38.1449 8.05891 33.748 10.5975ZM21.1816 19.2049C20.7021 19.2049 20.3132 18.8162 20.3132 18.3365C20.3132 17.8571 20.702 17.4682 21.1816 17.4682H21.2833C21.7628 17.4682 22.1517 17.8569 22.1517 18.3365C22.1517 18.816 21.7629 19.2049 21.2833 19.2049H21.1816ZM17.5941 18.3365C17.5941 18.816 17.2054 19.2049 16.7258 19.2049H16.6241C16.1446 19.2049 15.7558 18.8162 15.7558 18.3365C15.7558 17.8571 16.1445 17.4682 16.6241 17.4682H16.7258C17.2054 17.4683 17.5941 17.8571 17.5941 18.3365ZM12.0667 19.2049C11.5872 19.2049 11.1983 18.8162 11.1983 18.3365C11.1983 17.8571 11.5871 17.4682 12.0667 17.4682H12.1683C12.6478 17.4682 13.0367 17.8569 13.0367 18.3365C13.0367 18.816 12.6479 19.2049 12.1683 19.2049H12.0667Z" fill="#292929"/>
</svg>
