<svg width="64" height="64" viewBox="0 0 64 64" fill="none" xmlns="http://www.w3.org/2000/svg">
<path d="M22.4402 41.52C19.3335 43.96 17.3335 47.7467 17.3335 52V56H9.3335C7.12016 56 5.3335 54.2133 5.3335 52V49.3333C5.3335 44.1733 9.50683 40 14.6668 40H17.3335C19.2268 40 20.9735 40.56 22.4402 41.52Z" fill="#292929"/>
<path d="M48 40C51.3137 40 54 37.3137 54 34C54 30.6863 51.3137 28 48 28C44.6863 28 42 30.6863 42 34C42 37.3137 44.6863 40 48 40Z" fill="#292929"/>
<path d="M16 40C19.3137 40 22 37.3137 22 34C22 30.6863 19.3137 28 16 28C12.6863 28 10 30.6863 10 34C10 37.3137 12.6863 40 16 40Z" fill="#292929"/>
<path d="M58.6667 49.3333V52C58.6667 54.2133 56.8801 56 54.6667 56H46.6667V52C46.6667 47.7467 44.6667 43.96 41.5601 41.52C43.0267 40.56 44.7734 40 46.6667 40H49.3334C54.4934 40 58.6667 44.1733 58.6667 49.3333Z" fill="#292929"/>
<path d="M31.9998 41.3327C36.0499 41.3327 39.3332 38.0494 39.3332 33.9993C39.3332 29.9493 36.0499 26.666 31.9998 26.666C27.9497 26.666 24.6665 29.9493 24.6665 33.9993C24.6665 38.0494 27.9497 41.3327 31.9998 41.3327Z" fill="#292929"/>
<path d="M33.3333 41.334H30.6667C24.7853 41.334 20 46.1193 20 52.0007V56.0007C20 58.206 21.7947 60.0007 24 60.0007H40C42.2053 60.0007 44 58.206 44 56.0007V52.0007C44 46.1193 39.2147 41.334 33.3333 41.334Z" fill="#292929"/>
<path d="M51.3335 22.2457L48.1162 23.3897C47.2029 23.7137 46.2495 23.0217 46.2762 22.0524L46.3695 18.6391L44.2869 15.9324C43.6962 15.1644 44.0602 14.0431 44.9895 13.7684L48.2655 12.8031L50.1962 9.98572C50.7442 9.18705 51.9229 9.18705 52.4709 9.98572L54.4015 12.8031L57.6775 13.7684C58.6069 14.0417 58.9709 15.1644 58.3802 15.9324L56.2975 18.6391L56.3909 22.0524C56.4175 23.0204 55.4629 23.7137 54.5509 23.3897L51.3335 22.2457Z" fill="#292929"/>
<path d="M12.6665 22.2457L9.44921 23.3897C8.53588 23.7137 7.58254 23.0217 7.60921 22.0524L7.70254 18.6391L5.61988 15.9324C5.02921 15.1644 5.39321 14.0431 6.32254 13.7684L9.59854 12.8031L11.5292 9.98572C12.0772 9.18705 13.2559 9.18705 13.8039 9.98572L15.7345 12.8031L19.0105 13.7684C19.9399 14.0417 20.3039 15.1644 19.7132 15.9324L17.6305 18.6391L17.7239 22.0524C17.7505 23.0204 16.7959 23.7137 15.8839 23.3897L12.6665 22.2457Z" fill="#292929"/>
<path d="M32.0001 19.245L28.1855 20.601C27.1028 20.9864 25.9721 20.1637 26.0041 19.0157L26.1148 14.969L23.6455 11.7597C22.9455 10.849 23.3775 9.51971 24.4788 9.19438L28.3628 8.04905L30.6521 4.70905C31.3015 3.76105 32.7001 3.76105 33.3495 4.70905L35.6388 8.04905L39.5228 9.19438C40.6241 9.51971 41.0561 10.849 40.3561 11.7597L37.8868 14.969L37.9975 19.0157C38.0295 20.1637 36.8975 20.9864 35.8161 20.601L32.0001 19.245Z" fill="#292929"/>
</svg>
