<svg width="64" height="64" viewBox="0 0 64 64" fill="none" xmlns="http://www.w3.org/2000/svg">
<path fill-rule="evenodd" clip-rule="evenodd" d="M13.5152 49.6113L18.1739 58.0962C18.8627 59.3512 18.4614 60.935 17.2214 61.6512C15.9814 62.3662 14.3552 61.9538 13.6664 60.6987L8.35766 51.0288C8.53141 50.9975 8.70516 50.9587 8.87891 50.9125C10.4427 50.4937 11.9689 50.03 13.5152 49.6125V49.6113ZM49.6377 2C56.4652 2 62.0002 5.9375 62.0002 10.7937C62.0002 15.65 56.4652 19.5875 49.6377 19.5875C47.2564 19.5875 45.0327 19.1087 43.1464 18.2787C42.9402 18.1887 42.7202 18.21 42.5352 18.3388L38.6302 21.0812C38.3627 21.2687 38.0164 20.985 38.1477 20.6863L39.8739 16.76C39.9814 16.5138 39.9264 16.24 39.7327 16.0562C38.1902 14.5887 37.2764 12.7675 37.2764 10.795C37.2764 5.93875 42.8114 2.00125 49.6389 2.00125L49.6377 2ZM42.5014 42.0925C42.2039 41.9212 42.1002 41.5413 42.2714 41.2425C42.4427 40.945 42.8227 40.8413 43.1214 41.0125L47.9264 43.7863C48.2239 43.9575 48.3277 44.3375 48.1564 44.6362C47.9852 44.9338 47.6052 45.0375 47.3064 44.8662L42.5014 42.0925ZM40.0714 29.625C39.8989 29.9225 39.5177 30.025 39.2189 29.8525C38.9214 29.68 38.8189 29.2987 38.9914 29L41.7652 24.195C41.9377 23.8975 42.3189 23.795 42.6177 23.9675C42.9152 24.14 43.0177 24.5212 42.8452 24.82L40.0714 29.625ZM43.8677 35.3563C43.5352 35.445 43.1927 35.2475 43.1039 34.9137C43.0152 34.58 43.2127 34.2388 43.5464 34.15L48.9052 32.7137C49.2377 32.625 49.5802 32.8225 49.6689 33.1562C49.7577 33.4888 49.5602 33.8312 49.2264 33.92L43.8677 35.3563ZM56.9202 8.35625H43.4314C43.0864 8.35625 42.8064 8.63625 42.8064 8.98125C42.8064 9.32625 43.0864 9.60625 43.4314 9.60625H56.9202C57.2652 9.60625 57.5452 9.32625 57.5452 8.98125C57.5452 8.63625 57.2652 8.35625 56.9202 8.35625ZM43.4314 11.9838C43.0877 11.9838 42.8089 12.2625 42.8089 12.6062C42.8089 12.95 43.0877 13.2288 43.4314 13.2288L52.3327 13.1987C52.6764 13.1987 52.9552 12.92 52.9552 12.5763C52.9552 12.2325 52.6764 11.9537 52.3327 11.9537L43.4314 11.9838ZM4.32141 9.49625H19.4402C20.7189 9.49625 21.7614 10.5387 21.7614 11.8175V21.3288C21.7614 22.6075 20.7189 23.65 19.4402 23.65H4.32141C3.04266 23.65 2.00016 22.6075 2.00016 21.3288V11.8175C2.00016 10.5387 3.04266 9.49625 4.32141 9.49625ZM14.9077 17.2775C15.4514 16.9637 15.4514 16.1838 14.9077 15.87L11.1752 13.715C10.6314 13.4012 9.95641 13.7913 9.95641 14.4187V18.7288C9.95641 19.3563 10.6314 19.7463 11.1752 19.4325L14.9077 17.2775ZM58.1614 52.8325C58.1614 50.5375 56.4514 48.6775 54.3414 48.6775C52.8164 48.6775 51.5002 49.6488 50.8877 51.0537C50.2752 49.6488 48.9589 48.6775 47.4339 48.6775C45.3239 48.6775 43.6139 50.5375 43.6139 52.8325C43.6139 55.455 48.5589 59.8425 50.3102 61.7388C50.6289 62.0838 51.1464 62.0838 51.4652 61.7388C53.2164 59.8438 58.1614 55.455 58.1614 52.8325ZM28.8589 21.7213C27.7927 22.0075 27.1527 23.1138 27.4389 24.18L34.9052 52.0425C35.1914 53.1087 36.2977 53.7488 37.3639 53.4625C38.4302 53.1763 39.0702 52.07 38.7839 51.0037L31.3177 23.1413C31.0314 22.075 29.9252 21.435 28.8589 21.7213ZM15.8352 47.7525C15.4739 47.83 15.1377 47.9062 14.8202 47.9813L12.0764 37.7412C12.3889 37.6462 12.7189 37.5438 13.0702 37.4313C20.5139 35.0363 24.8289 31.1912 27.0414 27.5238L32.8889 49.3488C29.1389 47.2788 23.4789 46.1063 15.8352 47.7537V47.7525ZM13.6077 48.2812L10.8764 38.0875C9.22766 38.5413 7.90891 38.8138 5.78891 39.3825C3.05141 40.1162 1.41266 42.955 2.19516 45.8775C2.97766 48.7987 5.81766 50.4388 8.55516 49.705C10.6752 49.1375 11.9539 48.7138 13.6077 48.2825V48.2812ZM35.4252 33.6375L37.1777 33.6525C37.8477 33.6588 38.4114 34.095 38.5852 34.7425L39.2764 37.3213C39.4502 37.9688 39.1802 38.6287 38.6027 38.9688L37.0927 39.8587L35.4252 33.6362V33.6375Z" fill="#292929"/>
</svg>
