<svg width="64" height="64" viewBox="0 0 64 64" fill="none" xmlns="http://www.w3.org/2000/svg">
<path d="M43.5599 57.55C42.9999 58.46 42.0299 59 40.9499 59H23.0498C21.9698 59 20.9999 58.46 20.4399 57.55C19.8999 56.66 19.8499 55.58 20.3299 54.65L22.1899 51H41.8099L43.6698 54.65C44.1498 55.58 44.0999 56.66 43.5599 57.55Z" fill="#292929"/>
<path d="M31 10H9C7.89543 10 7 10.8954 7 12V22C7 23.1046 7.89543 24 9 24H31C32.1046 24 33 23.1046 33 22V12C33 10.8954 32.1046 10 31 10Z" fill="#292929"/>
<path d="M17 26H9C7.89543 26 7 26.8954 7 28V36C7 37.1046 7.89543 38 9 38H17C18.1046 38 19 37.1046 19 36V28C19 26.8954 18.1046 26 17 26Z" fill="#292929"/>
<path d="M31 26H23C21.8954 26 21 26.8954 21 28V36C21 37.1046 21.8954 38 23 38H31C32.1046 38 33 37.1046 33 36V28C33 26.8954 32.1046 26 31 26Z" fill="#292929"/>
<path d="M56 38H41C40.45 38 40 37.55 40 37C40 36.45 40.45 36 41 36H56C56.55 36 57 36.45 57 37C57 37.55 56.55 38 56 38Z" fill="#292929"/>
<path d="M56 33H41C40.45 33 40 32.55 40 32C40 31.45 40.45 31 41 31H56C56.55 31 57 31.45 57 32C57 32.55 56.55 33 56 33Z" fill="#292929"/>
<path d="M56 28H41C40.45 28 40 27.55 40 27C40 26.45 40.45 26 41 26H56C56.55 26 57 26.45 57 27C57 27.55 56.55 28 56 28Z" fill="#292929"/>
<path d="M57 5H7C4.24 5 2 7.24 2 10V44C2 46.76 4.24 49 7 49H57C59.76 49 62 46.76 62 44V10C62 7.24 59.76 5 57 5ZM4 41V10C4 8.35 5.35 7 7 7H35V41H4ZM60 41H37V7H57C58.65 7 60 8.35 60 10V41Z" fill="#292929"/>
<path d="M52.9999 21.0009C52.7899 21.0009 52.5799 20.9309 52.3999 20.8009C51.9599 20.4709 51.8699 19.8409 52.1999 19.4009L54.7499 16.0009L52.1999 12.6009C51.8699 12.1609 51.9599 11.5309 52.3999 11.2009C52.8399 10.8709 53.4699 10.9609 53.7999 11.4009L56.7999 15.4009C57.0699 15.7609 57.0699 16.2409 56.7999 16.6009L53.7999 20.6009C53.5999 20.8609 53.2999 21.0009 52.9999 21.0009Z" fill="#292929"/>
<path d="M43.0001 21.0009C42.7001 21.0009 42.4001 20.8609 42.2001 20.6009L39.2001 16.6009C38.9301 16.2409 38.9301 15.7609 39.2001 15.4009L42.2001 11.4009C42.5301 10.9609 43.1601 10.8709 43.6001 11.2009C44.0401 11.5309 44.1301 12.1609 43.8001 12.6009L41.2501 16.0009L43.8001 19.4009C44.1301 19.8409 44.0401 20.4709 43.6001 20.8009C43.4201 20.9309 43.2101 21.0009 43.0001 21.0009Z" fill="#292929"/>
<path d="M46.9999 21.0009C46.9199 21.0009 46.8399 21.0009 46.7599 20.9709C46.2199 20.8409 45.8999 20.2909 46.0299 19.7609L48.0299 11.7609C48.1599 11.2209 48.6999 10.9009 49.2399 11.0309C49.7799 11.1609 50.0999 11.7109 49.9699 12.2409L47.9699 20.2409C47.8599 20.7009 47.4499 21.0009 46.9999 21.0009Z" fill="#292929"/>
</svg>
