<svg width="64" height="64" viewBox="0 0 64 64" fill="none" xmlns="http://www.w3.org/2000/svg">
<g clip-path="url(#clip0_1643_4679)">
<path d="M61.5 9.7915H49.25V7.375C49.25 5.99414 48.1309 4.875 46.75 4.875H17.25C15.8691 4.875 14.75 5.99414 14.75 7.375V9.7915H2.5C1.11914 9.7915 0 10.9106 0 12.2915V51.6245C0 53.0049 1.11914 54.1245 2.5 54.1245H14.75V56.541C14.75 57.9219 15.8691 59.041 17.25 59.041H46.75C48.1309 59.041 49.25 57.9219 49.25 56.541V54.1245H61.5C62.8809 54.1245 64 53.0054 64 51.6245V12.2915C64 10.9106 62.8809 9.7915 61.5 9.7915ZM14.4297 49.1245H5V14.7915H14.4297V49.1245ZM44.25 54.041H19.75V9.875H44.25V54.041ZM59 49.1245H49.25V14.7915H59V49.1245ZM39.375 22.083H24.625C23.2441 22.083 22.125 23.2022 22.125 24.583V39.333C22.125 40.7139 23.2441 41.833 24.625 41.833H39.375C40.7559 41.833 41.875 40.7139 41.875 39.333V24.583C41.875 23.2022 40.7559 22.083 39.375 22.083ZM36.875 36.833H27.125V27.083H36.875V36.833ZM41.875 17.208C41.875 18.5889 40.7559 19.708 39.375 19.708H24.625C23.2441 19.708 22.125 18.5889 22.125 17.208C22.125 15.8271 23.2441 14.708 24.625 14.708H39.375C40.7559 14.708 41.875 15.8271 41.875 17.208ZM41.875 46.708C41.875 48.0889 40.7559 49.208 39.375 49.208H24.625C23.2441 49.208 22.125 48.0889 22.125 46.708C22.125 45.3272 23.2441 44.208 24.625 44.208H39.375C40.7559 44.208 41.875 45.3272 41.875 46.708Z" fill="#292929"/>
</g>
<defs>
<clipPath id="clip0_1643_4679">
<rect width="64" height="64" fill="white"/>
</clipPath>
</defs>
</svg>
