<svg width="25" height="35" viewBox="0 0 25 35" fill="none" xmlns="http://www.w3.org/2000/svg">
<path d="M21.76 12C22.4 12.48 22.9333 13.08 23.36 13.8C23.7867 14.52 24.0667 15.3067 24.2 16.16C24.3333 16.9867 24.2933 17.7867 24.08 18.56C23.8667 19.3067 23.5067 20.04 23 20.76C22.52 21.4 21.92 21.9333 21.2 22.36C20.48 22.7867 19.7067 23.0667 18.88 23.2C18.1333 23.3067 17.32 23.2533 16.44 23.04C15.6933 22.8533 14.96 22.5067 14.24 22V27.64C14.24 28.84 13.9467 29.96 13.36 31C12.8 32.0133 12 32.84 10.96 33.48C9.94667 34.12 8.86667 34.4533 7.72 34.48C6.52 34.56 5.38667 34.3333 4.32 33.8C3.25333 33.2667 2.38667 32.5067 1.72 31.52C1.05333 30.56 0.666667 29.48 0.56 28.28C0.453334 27.0533 0.626667 25.9067 1.08 24.84C1.56 23.7733 2.26667 22.88 3.2 22.16C2.37333 21.5733 1.72 20.84 1.24 19.96C0.76 19.08 0.506667 18.1333 0.48 17.12C0.453334 16.1067 0.653334 15.16 1.08 14.28C1.53333 13.3733 2.17333 12.6133 3 12C1.88 11.1467 1.14667 10.1067 0.8 8.88C0.4 7.54667 0.4 6.25333 0.8 5C1.22667 3.74667 1.98667 2.73333 3.08 1.96C4.17333 1.16 5.4 0.759998 6.76 0.759998H18C19.36 0.759998 20.5867 1.14666 21.68 1.92C22.7733 2.69333 23.52 3.73333 23.92 5.04C24.3467 6.26666 24.36 7.53333 23.96 8.84C23.56 10.12 22.8267 11.1733 21.76 12ZM21.76 7C21.76 6.49333 21.6533 6.01333 21.44 5.56C21.2533 5.10666 20.9867 4.70667 20.64 4.36C20.2933 4.01333 19.8933 3.74667 19.44 3.56C18.9867 3.34667 18.5067 3.24 18 3.24H14.24V10.76H18C18.5067 10.76 18.9867 10.6667 19.44 10.48C19.8933 10.2667 20.2933 9.98667 20.64 9.64C20.9867 9.29333 21.2533 8.89333 21.44 8.44C21.6533 7.98667 21.76 7.50667 21.76 7ZM3 7C3 7.50667 3.09333 7.98667 3.28 8.44C3.49333 8.89333 3.77333 9.29333 4.12 9.64C4.46667 9.98667 4.86667 10.2667 5.32 10.48C5.77333 10.6667 6.25333 10.76 6.76 10.76H11.76V3.24H6.76C6.25333 3.24 5.77333 3.34667 5.32 3.56C4.86667 3.74667 4.46667 4.01333 4.12 4.36C3.77333 4.70667 3.49333 5.10666 3.28 5.56C3.09333 6.01333 3 6.49333 3 7ZM6.76 20.76H11.76V13.24H6.76C6.25333 13.24 5.77333 13.3467 5.32 13.56C4.86667 13.7467 4.46667 14.0133 4.12 14.36C3.77333 14.7067 3.49333 15.1067 3.28 15.56C3.09333 16.0133 3 16.4933 3 17C3 17.5067 3.09333 17.9867 3.28 18.44C3.49333 18.8933 3.77333 19.2933 4.12 19.64C4.46667 19.9867 4.86667 20.2667 5.32 20.48C5.77333 20.6667 6.25333 20.76 6.76 20.76ZM11.76 27.64V23.24H7.36C6.53333 23.24 5.74667 23.4933 5 24C4.25333 24.48 3.70667 25.1333 3.36 25.96C3.01333 26.76 2.92 27.6 3.08 28.48C3.24 29.3333 3.64 30.08 4.28 30.72C4.92 31.36 5.66667 31.76 6.52 31.92C7.4 32.08 8.24 31.9867 9.04 31.64C9.86667 31.2933 10.52 30.7467 11 30C11.5067 29.2533 11.76 28.4667 11.76 27.64ZM18 20.76C18.5067 20.76 18.9867 20.6667 19.44 20.48C19.8933 20.2667 20.2933 19.9867 20.64 19.64C20.9867 19.2933 21.2533 18.8933 21.44 18.44C21.6533 17.9867 21.76 17.5067 21.76 17C21.76 16.2533 21.5467 15.56 21.12 14.92C20.72 14.28 20.16 13.8133 19.44 13.52C18.72 13.2267 17.9867 13.16 17.24 13.32C16.52 13.48 15.8933 13.8267 15.36 14.36C14.8267 14.8933 14.48 15.5333 14.32 16.28C14.16 17 14.24 17.72 14.56 18.44C14.88 19.16 15.3467 19.7333 15.96 20.16C16.5733 20.56 17.2533 20.76 18 20.76Z" fill="white"/>
</svg>
