<svg width="42" height="42" viewBox="0 0 42 42" fill="none" xmlns="http://www.w3.org/2000/svg">
<path d="M22.08 25.2C23.0933 25.7067 23.92 26.24 24.56 26.8C25.2267 27.36 25.6667 28 25.88 28.72C26.12 29.44 26.1333 30.2133 25.92 31.04C25.7067 31.7867 25.3067 32.36 24.72 32.76C24.2133 33.08 23.5467 33.3067 22.72 33.44C19.7867 33.9467 16.8 33.36 13.76 31.68C13.6 31.6 13.3467 31.4667 13 31.28C12.68 31.0667 12.4 30.8933 12.16 30.76L9.12 38C11.1467 38.88 12.8533 39.64 14.24 40.28V40.32L11.6 40.92C10.5867 41.1333 9.64 40.96 8.76 40.4C7.90667 39.8667 7.36 39.0933 7.12 38.08L1.08 11.6C0.866667 10.5867 1.02667 9.65333 1.56 8.8C2.12 7.92 2.90667 7.36 3.92 7.12L10.24 5.68C8.85333 8.08 8.24 10.44 8.4 12.76C8.53333 14.84 9.28 16.7333 10.64 18.44C11.92 20.0667 13.5867 21.36 15.64 22.32C16.36 22.64 17.44 23.12 18.88 23.76C20.32 24.3733 21.3867 24.8533 22.08 25.2ZM40.92 30.4C41.1333 31.4133 40.96 32.36 40.4 33.24C39.8667 34.0933 39.0933 34.64 38.08 34.88L34.32 35.72L34.28 35.68C34.8667 33.3067 35.2 31.56 35.28 30.44C35.4933 27.7733 35 25.4667 33.8 23.52C32.6267 21.6533 30.8133 20.1467 28.36 19C27.6133 18.6533 26.48 18.1733 24.96 17.56C23.7867 17.1067 22.9067 16.7467 22.32 16.48C21.2533 16.0267 20.2667 15.5067 19.36 14.92C18.72 14.52 18.28 14.0267 18.04 13.44C17.8 12.8267 17.7733 12.16 17.96 11.44C18.1733 10.6933 18.5733 10.0933 19.16 9.64C19.7733 9.16 20.44 8.86667 21.16 8.76C22.84 8.52 24.4 8.58667 25.84 8.96C27.3333 9.36 28.8 10.1467 30.24 11.32C30.5867 10.36 31.1333 8.88 31.88 6.88L32.92 4.16L31.56 3.64C30.7333 3.32 29.4133 2.86666 27.6 2.28L26.64 1.96L30.4 1.08C31.4133 0.866664 32.3467 1.04 33.2 1.6C34.08 2.13333 34.64 2.90667 34.88 3.92L40.92 30.4Z" fill="white"/>
</svg>
