<svg width="36" height="36" viewBox="0 0 36 36" fill="none" xmlns="http://www.w3.org/2000/svg">
<path d="M17.92 0.479998C21.0667 0.479998 24 1.26666 26.72 2.84C29.3867 4.38667 31.5067 6.46667 33.08 9.08C34.7067 11.8 35.52 14.7333 35.52 17.88C35.52 21.0267 34.72 23.9733 33.12 26.72C31.5733 29.3867 29.4933 31.5067 26.88 33.08C24.16 34.7067 21.24 35.52 18.12 35.52C15 35.52 12.0667 34.7067 9.32 33.08C6.65333 31.5333 4.53333 29.4267 2.96 26.76C1.33333 24.0133 0.52 21.0667 0.52 17.92C0.52 14.7733 1.32 11.84 2.92 9.12C4.46667 6.50667 6.54667 4.42667 9.16 2.88C11.88 1.28 14.8 0.479998 17.92 0.479998ZM3.44 23.44C3.94667 24.64 4.56 25.76 5.28 26.8C5.89333 27.68 6.58667 28.4933 7.36 29.24C7.94667 29.8267 8.57333 30.36 9.24 30.84C9.72 31.16 10.1867 31.44 10.64 31.68L11.2 31.96L3.76 11.48C3.17333 12.8933 2.78667 14.3867 2.6 15.96C2.46667 17.2133 2.48 18.48 2.64 19.76C2.72 20.6933 2.88 21.5867 3.12 22.44C3.22667 22.76 3.33333 23.0933 3.44 23.44ZM13.64 32.88C14.76 33.2533 15.9467 33.48 17.2 33.56C18.1867 33.6133 19.1867 33.56 20.2 33.4C20.9467 33.2933 21.6533 33.1333 22.32 32.92L23.12 32.64L18.28 19.24L13.64 32.88ZM20.16 10.48L25.8 27.28L27.48 21.56C27.8 20.7333 28.04 19.92 28.2 19.12C28.3333 18.5067 28.4267 17.9067 28.48 17.32C28.48 16.92 28.4667 16.56 28.44 16.24L28.4 15.84C28.4267 15.5467 28.3333 15.1067 28.12 14.52C27.96 14.12 27.7467 13.6667 27.48 13.16L27.12 12.52C26.7733 12.0133 26.4933 11.5333 26.28 11.08C26.12 10.76 26 10.4667 25.92 10.2L25.84 9.88C25.7067 9.02667 25.7733 8.32 26.04 7.76C26.2267 7.30667 26.5467 6.96 27 6.72C27.2933 6.53333 27.64 6.41333 28.04 6.36L28.56 6.32C27.4933 5.33333 26.2933 4.50667 24.96 3.84C23.8933 3.30666 22.76 2.89333 21.56 2.6C20.7067 2.38667 19.8667 2.25333 19.04 2.2L18.04 2.16C16.36 2.18666 14.76 2.45333 13.24 2.96C11.9333 3.36 10.7067 3.94667 9.56 4.72C8.65333 5.30667 7.8 6 7 6.8C6.44 7.36 5.93333 7.93333 5.48 8.52L5 9.24L9.36 9.16C9.76 9.13333 10.08 9.13333 10.32 9.16C10.5067 9.21333 10.6267 9.28 10.68 9.36L10.76 9.44C10.84 9.65333 10.8533 9.82667 10.8 9.96C10.7467 10.0933 10.6667 10.1867 10.56 10.24L10.44 10.32C10.36 10.3733 10.0133 10.4267 9.4 10.48L8.48 10.56L14.12 27.48L17.52 17.2L15.16 10.48C14.5733 10.5067 14.1067 10.48 13.76 10.4C13.44 10.3467 13.2133 10.28 13.08 10.2C12.9733 10.0933 12.9067 9.98667 12.88 9.88V9.76C12.8533 9.49333 12.9467 9.30666 13.16 9.2C13.32 9.14667 13.5333 9.12 13.8 9.12L14.16 9.16C15.92 9.26667 17.6533 9.29333 19.36 9.24L21.36 9.16C21.68 9.10667 21.92 9.10667 22.08 9.16C22.24 9.21333 22.36 9.28 22.44 9.36L22.48 9.48C22.5333 9.77333 22.4933 10 22.36 10.16C22.2533 10.2667 22.1067 10.3467 21.92 10.4H21.68C21.3867 10.4267 21.0533 10.4533 20.68 10.48C20.4933 10.48 20.32 10.48 20.16 10.48ZM25.84 31.44L26.6 30.96C27.2133 30.56 27.8133 30.08 28.4 29.52C29.2267 28.7733 29.9733 27.9467 30.64 27.04C31.44 25.92 32.0933 24.72 32.6 23.44L32.84 22.72C33.0267 22.1333 33.1867 21.4933 33.32 20.8C33.48 19.84 33.56 18.88 33.56 17.92C33.56 16.72 33.4267 15.5333 33.16 14.36C32.84 13 32.3467 11.68 31.68 10.4L31.76 11.32C31.8133 12.0933 31.7867 12.8533 31.68 13.6C31.5467 14.6933 31.28 15.7067 30.88 16.64L25.84 31.44Z" fill="white"/>
</svg>
