<svg width="34" height="41" viewBox="0 0 34 41" fill="none" xmlns="http://www.w3.org/2000/svg">
<path d="M19.04 3.04C19.76 2.18666 20.6667 1.48 21.76 0.919999C22.8533 0.359998 23.9067 0.0533317 24.92 -9.53674e-07C25.0267 1.14667 24.88 2.29333 24.48 3.44C24.1333 4.50666 23.5867 5.49333 22.84 6.4C22.0933 7.28 21.2133 7.98667 20.2 8.52C19.08 9.08 17.9867 9.30667 16.92 9.2C16.7867 8.13333 16.9467 7 17.4 5.8C17.8 4.76 18.3467 3.84 19.04 3.04ZM30.44 35.04C29.7467 36.08 29.1733 36.8667 28.72 37.4C28.08 38.1733 27.44 38.7733 26.8 39.2C26.0267 39.68 25.2133 39.9333 24.36 39.96C23.7733 39.96 23.2133 39.88 22.68 39.72C22.3333 39.64 21.8533 39.4667 21.24 39.2C20.6267 38.9333 20.1333 38.7467 19.76 38.64C19.12 38.4533 18.44 38.36 17.72 38.36C17.0267 38.36 16.3467 38.4533 15.68 38.64C15.28 38.7467 14.7467 38.9467 14.08 39.24C13.52 39.48 13.0933 39.64 12.8 39.72C12.2667 39.88 11.7467 39.9733 11.24 40C10.0933 40.0267 8.93333 39.4933 7.76 38.4C7.01333 37.7067 6.08 36.5467 4.96 34.92C3.73333 33.16 2.74667 31.1333 2 28.84C1.17333 26.36 0.76 23.96 0.76 21.64C0.76 19 1.32 16.72 2.44 14.8C3.29333 13.28 4.45333 12.0667 5.92 11.16C7.41333 10.2533 9 9.78667 10.68 9.76C11.32 9.76 12.0267 9.86667 12.8 10.08C13.2533 10.2133 13.9067 10.4533 14.76 10.8C15.3733 11.04 15.8267 11.2133 16.12 11.32C16.5733 11.4533 16.9333 11.52 17.2 11.52C17.4933 11.52 17.8667 11.4533 18.32 11.32C18.5867 11.2133 19.0267 11.04 19.64 10.8C20.7067 10.4 21.5333 10.12 22.12 9.96C23.1333 9.69333 24.0533 9.6 24.88 9.68C25.9733 9.70666 27.0533 9.94666 28.12 10.4C29.8 11.0667 31.1467 12.1467 32.16 13.64C31.3333 14.12 30.5733 14.7867 29.88 15.64C28.52 17.2667 27.8533 19.1333 27.88 21.24C27.88 22.9467 28.2933 24.48 29.12 25.84C29.7333 26.8267 30.5333 27.68 31.52 28.4C32.0533 28.7733 32.6 29.08 33.16 29.32L33.2 29.36V29.4C33.0133 29.9867 32.7733 30.6267 32.48 31.32C31.8933 32.6533 31.2133 33.8933 30.44 35.04Z" fill="white"/>
</svg>
