<svg width="124" height="124" viewBox="0 0 124 124" fill="none" xmlns="http://www.w3.org/2000/svg">
<g clip-path="url(#clip0_349_2084)">
<g clip-path="url(#clip1_349_2084)">
<path d="M75.9637 30.37L70.3958 57.0327L109.408 53.3023L115.047 21.7173L75.9637 30.37Z" fill="url(#paint0_linear_349_2084)"/>
<path d="M98.9431 54.818L72.1364 63.9173L94.9636 94.1968L126.242 82.6275L98.9431 54.818Z" fill="url(#paint1_linear_349_2084)"/>
<path d="M88.1035 86.3644L66.5278 68.9154L50.6294 103.306L76.662 123.176L88.1035 86.3644Z" fill="url(#paint2_linear_349_2084)"/>
<path d="M54.5332 92.9924L59.4931 66.2247L20.5677 70.7677L15.6495 102.457L54.5332 92.9924Z" fill="url(#paint3_linear_349_2084)"/>
<path d="M31.9046 68.7495L58.5025 59.0946L34.9864 29.3043L3.97377 41.5214L31.9046 68.7495Z" fill="url(#paint4_linear_349_2084)"/>
<path d="M42.5455 37.8938L64.5177 54.8852L79.6315 20.1776L53.1475 0.858958L42.5455 37.8938Z" fill="url(#paint5_linear_349_2084)"/>
</g>
</g>
<defs>
<linearGradient id="paint0_linear_349_2084" x1="116.269" y1="0.590273" x2="-7.83985" y2="29.8235" gradientUnits="userSpaceOnUse">
<stop stop-color="#23EFEF"/>
<stop offset="0.349611" stop-color="#37B8BE"/>
<stop offset="0.701514" stop-color="#2DA0FF"/>
<stop offset="1" stop-color="#B172FE"/>
</linearGradient>
<linearGradient id="paint1_linear_349_2084" x1="116.269" y1="0.590273" x2="-7.83985" y2="29.8235" gradientUnits="userSpaceOnUse">
<stop stop-color="#23EFEF"/>
<stop offset="0.349611" stop-color="#37B8BE"/>
<stop offset="0.701514" stop-color="#2DA0FF"/>
<stop offset="1" stop-color="#B172FE"/>
</linearGradient>
<linearGradient id="paint2_linear_349_2084" x1="116.269" y1="0.590273" x2="-7.83985" y2="29.8235" gradientUnits="userSpaceOnUse">
<stop stop-color="#23EFEF"/>
<stop offset="0.349611" stop-color="#37B8BE"/>
<stop offset="0.701514" stop-color="#2DA0FF"/>
<stop offset="1" stop-color="#B172FE"/>
</linearGradient>
<linearGradient id="paint3_linear_349_2084" x1="116.269" y1="0.590273" x2="-7.83985" y2="29.8235" gradientUnits="userSpaceOnUse">
<stop stop-color="#23EFEF"/>
<stop offset="0.349611" stop-color="#37B8BE"/>
<stop offset="0.701514" stop-color="#2DA0FF"/>
<stop offset="1" stop-color="#B172FE"/>
</linearGradient>
<linearGradient id="paint4_linear_349_2084" x1="116.269" y1="0.590273" x2="-7.83985" y2="29.8235" gradientUnits="userSpaceOnUse">
<stop stop-color="#23EFEF"/>
<stop offset="0.349611" stop-color="#37B8BE"/>
<stop offset="0.701514" stop-color="#2DA0FF"/>
<stop offset="1" stop-color="#B172FE"/>
</linearGradient>
<linearGradient id="paint5_linear_349_2084" x1="116.269" y1="0.590273" x2="-7.83985" y2="29.8235" gradientUnits="userSpaceOnUse">
<stop stop-color="#23EFEF"/>
<stop offset="0.349611" stop-color="#37B8BE"/>
<stop offset="0.701514" stop-color="#2DA0FF"/>
<stop offset="1" stop-color="#B172FE"/>
</linearGradient>
<clipPath id="clip0_349_2084">
<rect width="124" height="124" fill="white"/>
</clipPath>
<clipPath id="clip1_349_2084">
<rect width="124" height="124" fill="white"/>
</clipPath>
</defs>
</svg>
