<svg width="20" height="20" viewBox="0 0 20 20" fill="none" xmlns="http://www.w3.org/2000/svg">
<g id="fi_126509" clip-path="url(#clip0_2131_27660)">
<g id="Group">
<g id="Group_2">
<path id="Vector" d="M15.8074 12.3887C15.3979 11.9624 14.9041 11.7344 14.3806 11.7344C13.8614 11.7344 13.3633 11.9581 12.937 12.3845L11.6031 13.7141C11.4934 13.655 11.3836 13.6002 11.2781 13.5453C11.1261 13.4693 10.9826 13.3975 10.8602 13.3216C9.61075 12.528 8.47527 11.4938 7.38621 10.1557C6.85857 9.48877 6.504 8.92736 6.24651 8.35751C6.59264 8.04092 6.91345 7.71168 7.22581 7.39509C7.344 7.2769 7.4622 7.15448 7.58039 7.03629C8.46683 6.14985 8.46683 5.00171 7.58039 4.11527L6.42802 2.9629C6.29716 2.83204 6.16209 2.69697 6.03545 2.56189C5.78218 2.30018 5.51625 2.03003 5.24188 1.77676C4.83243 1.37153 4.34277 1.15625 3.8278 1.15625C3.31282 1.15625 2.81472 1.37153 2.39261 1.77676C2.38839 1.78098 2.38839 1.78098 2.38417 1.7852L0.948981 3.23305C0.408675 3.77336 0.100533 4.43185 0.0329944 5.19588C-0.0683129 6.42845 0.294705 7.5766 0.5733 8.32796C1.25712 10.1726 2.27864 11.8822 3.80247 13.7141C5.65133 15.9218 7.87587 17.6651 10.417 18.8935C11.3879 19.3536 12.6837 19.8981 14.1316 19.991C14.2202 19.9952 14.3131 19.9994 14.3975 19.9994C15.3726 19.9994 16.1915 19.6491 16.8331 18.9526C16.8373 18.9441 16.8458 18.9399 16.85 18.9315C17.0695 18.6655 17.3228 18.4249 17.5887 18.1674C17.7702 17.9944 17.9559 17.8129 18.1375 17.6229C18.5553 17.1881 18.7748 16.6816 18.7748 16.1624C18.7748 15.639 18.5511 15.1367 18.1248 14.7145L15.8074 12.3887ZM17.3186 16.8336C17.3143 16.8336 17.3143 16.8378 17.3186 16.8336C17.1539 17.0108 16.9851 17.1712 16.8036 17.3485C16.5292 17.6102 16.2506 17.8846 15.9889 18.1928C15.5626 18.6486 15.0602 18.8639 14.4017 18.8639C14.3384 18.8639 14.2709 18.8639 14.2076 18.8597C12.9539 18.7795 11.7889 18.2898 10.9151 17.872C8.52592 16.7154 6.42802 15.0733 4.68469 12.9923C3.24528 11.2574 2.28286 9.6534 1.64547 7.93117C1.2529 6.88011 1.10938 6.06121 1.1727 5.28874C1.21491 4.79487 1.40486 4.38542 1.75522 4.03507L3.19463 2.59566C3.40146 2.40149 3.62096 2.29596 3.83624 2.29596C4.10217 2.29596 4.31745 2.45636 4.45252 2.59144C4.45675 2.59566 4.46097 2.59988 4.46519 2.6041C4.72268 2.8447 4.9675 3.09375 5.22499 3.35968C5.35585 3.49476 5.49092 3.62984 5.626 3.76913L6.77837 4.9215C7.22581 5.36894 7.22581 5.78262 6.77837 6.23006C6.65596 6.35247 6.53777 6.47488 6.41535 6.59307C6.06078 6.95609 5.72309 7.29378 5.35585 7.62303C5.34741 7.63147 5.33896 7.63569 5.33474 7.64414C4.97172 8.00715 5.03926 8.36173 5.11524 8.60233C5.11946 8.615 5.12369 8.62766 5.12791 8.64033C5.42761 9.36636 5.84972 10.0502 6.49133 10.8649L6.49555 10.8691C7.66059 12.3043 8.88894 13.4229 10.2439 14.2798C10.417 14.3895 10.5943 14.4782 10.7631 14.5626C10.9151 14.6386 11.0586 14.7103 11.181 14.7863C11.1979 14.7947 11.2148 14.8074 11.2317 14.8158C11.3752 14.8876 11.5103 14.9214 11.6496 14.9214C11.9999 14.9214 12.2194 14.7019 12.2912 14.6301L13.7348 13.1865C13.8783 13.043 14.1063 12.8699 14.3722 12.8699C14.6339 12.8699 14.8492 13.0345 14.98 13.178C14.9843 13.1823 14.9843 13.1823 14.9885 13.1865L17.3143 15.5123C17.7491 15.9429 17.7491 16.3861 17.3186 16.8336Z" fill="#666666"/>
<path id="Vector_2" d="M10.8089 4.7574C11.9148 4.94313 12.9195 5.46656 13.7215 6.26857C14.5235 7.07059 15.0427 8.07522 15.2327 9.18116C15.2791 9.45975 15.5197 9.65392 15.7941 9.65392C15.8278 9.65392 15.8574 9.6497 15.8912 9.64548C16.2035 9.59483 16.4104 9.29935 16.3597 8.98698C16.1318 7.64888 15.4986 6.42898 14.5319 5.46233C13.5653 4.49569 12.3454 3.86252 11.0073 3.63458C10.6949 3.58393 10.4037 3.79076 10.3488 4.09891C10.2939 4.40705 10.4965 4.70675 10.8089 4.7574Z" fill="#666666"/>
<path id="Vector_3" d="M19.9795 8.82242C19.6039 6.61899 18.5655 4.61395 16.9699 3.01836C15.3743 1.42277 13.3692 0.384369 11.1658 0.00868772C10.8577 -0.0461871 10.5664 0.16487 10.5115 0.473013C10.4609 0.785377 10.6677 1.07664 10.9801 1.13151C12.9471 1.46498 14.7411 2.39785 16.1679 3.82037C17.5946 5.24712 18.5232 7.0411 18.8567 9.00815C18.9032 9.28675 19.1438 9.48092 19.4181 9.48092C19.4519 9.48092 19.4814 9.4767 19.5152 9.47248C19.8234 9.42604 20.0344 9.13056 19.9795 8.82242Z" fill="#666666"/>
</g>
</g>
</g>
<defs>
<clipPath id="clip0_2131_27660">
<rect width="20" height="20" fill="white"/>
</clipPath>
</defs>
</svg>
