<svg width="20" height="20" viewBox="0 0 20 20" fill="none" xmlns="http://www.w3.org/2000/svg">
<g id="fi_15627835" clip-path="url(#clip0_2131_27673)">
<g id="Clip path group">
<mask id="mask0_2131_27673" style="mask-type:luminance" maskUnits="userSpaceOnUse" x="0" y="0" width="20" height="20">
<g id="clip0_14_14746">
<path id="Vector" d="M0 0H20V20H0V0Z" fill="white"/>
</g>
</mask>
<g mask="url(#mask0_2131_27673)">
<g id="Group">
<path id="Vector_2" d="M6.13686 3.37551L5.97077 3.54159C4.16419 5.34818 3.95827 8.20724 5.4873 10.2541L9.43038 15.3916C9.68146 15.7187 10.175 15.7173 10.4242 15.3887L14.3287 10.2399C15.8656 8.18534 15.6596 5.3137 13.8453 3.49939L13.7215 3.37551C11.627 1.28108 8.2313 1.28108 6.13686 3.37551Z" stroke="#666666" stroke-width="1.04167"/>
<path id="Vector_3" d="M9.89583 9.27018C11.0464 9.27018 11.9792 8.33744 11.9792 7.18685C11.9792 6.03626 11.0464 5.10352 9.89583 5.10352C8.74524 5.10352 7.8125 6.03626 7.8125 7.18685C7.8125 8.33744 8.74524 9.27018 9.89583 9.27018Z" stroke="#666666" stroke-width="1.04167"/>
<path id="Vector_4" d="M5.10417 14.1133C3.51071 14.5093 2.5 15.0992 2.5 15.758C2.5 16.9504 5.81123 17.9171 9.89583 17.9171C13.9804 17.9171 17.2917 16.9504 17.2917 15.758C17.2917 15.0992 16.281 14.5093 14.6875 14.1133" stroke="#666666" stroke-width="1.04167" stroke-linecap="round"/>
</g>
</g>
</g>
</g>
<defs>
<clipPath id="clip0_2131_27673">
<rect width="20" height="20" fill="white"/>
</clipPath>
</defs>
</svg>
