<svg width="11" height="16" viewBox="0 0 11 16" fill="none" xmlns="http://www.w3.org/2000/svg">
<path d="M7.53125 7.3125C9.34375 7.84375 10.4688 9.8125 9.78125 11.75C9.3125 13.125 7.9375 13.9688 6.5 14V15.5C6.5 15.7812 6.25 16 6 16H5C4.71875 16 4.5 15.7812 4.5 15.5V14C3.5 14 2.5625 13.6875 1.78125 13.0625C1.53125 12.875 1.5 12.5312 1.71875 12.3125L2.8125 11.25C2.96875 11.0938 3.21875 11.0625 3.4375 11.1875C3.75 11.4062 4.125 11.5 4.5 11.5H6.5625C7.0625 11.5 7.5 11.0938 7.5 10.5938C7.5 10.1875 7.21875 9.8125 6.8125 9.71875L3.625 8.78125C2.21875 8.375 1.125 7.1875 1 5.75C0.8125 3.71875 2.40625 2 4.40625 2H4.5V0.5C4.5 0.25 4.71875 0 5 0H6C6.25 0 6.5 0.25 6.5 0.5V2C7.46875 2.03125 8.4375 2.34375 9.1875 2.9375C9.4375 3.15625 9.46875 3.5 9.25 3.71875L8.15625 4.78125C8 4.9375 7.75 4.96875 7.5625 4.84375C7.25 4.625 6.875 4.5 6.46875 4.5H4.40625C3.90625 4.5 3.5 4.9375 3.5 5.4375C3.5 5.84375 3.75 6.21875 4.15625 6.3125L7.53125 7.3125Z" fill="#2C2E3C"/>
</svg>
