<svg width="12" height="12" viewBox="0 0 12 12" fill="none" xmlns="http://www.w3.org/2000/svg">
<g clip-path="url(#clip0_2394_28051)">
<path d="M7.3512 2.93966L6.81237 5.51992L10.5878 5.15892L11.1334 2.1023L7.3512 2.93966Z" fill="white"/>
<path d="M9.57502 5.30559L6.98082 6.18617L9.1899 9.11645L12.2168 7.99684L9.57502 5.30559Z" fill="white"/>
<path d="M8.52602 8.35848L6.43805 6.66986L4.89949 9.99796L7.41878 11.9209L8.52602 8.35848Z" fill="white"/>
<path d="M5.27728 8.99989L5.75727 6.40948L1.9903 6.84912L1.51434 9.91583L5.27728 8.99989Z" fill="white"/>
<path d="M3.08741 6.65381L5.66141 5.71946L3.38566 2.83653L0.384433 4.01883L3.08741 6.65381Z" fill="white"/>
<path d="M4.11718 3.66777L6.24352 5.3121L7.70615 1.9533L5.14318 0.0837549L4.11718 3.66777Z" fill="white"/>
</g>
<defs>
<clipPath id="clip0_2394_28051">
<rect width="12" height="12" fill="white"/>
</clipPath>
</defs>
</svg>
