<svg width="40" height="40" viewBox="0 0 40 40" fill="none" xmlns="http://www.w3.org/2000/svg">
<g clip-path="url(#clip0_2503_29188)">
<path d="M24.5043 9.79724L22.7082 18.3981L35.2929 17.1948L37.1117 7.00605L24.5043 9.79724Z" fill="url(#paint0_linear_2503_29188)"/>
<path d="M31.9171 17.6837L23.2697 20.6189L30.6333 30.3865L40.723 26.6545L31.9171 17.6837Z" fill="url(#paint1_linear_2503_29188)"/>
<path d="M28.4204 27.86L21.4605 22.2312L16.332 33.3249L24.7296 39.7347L28.4204 27.86Z" fill="url(#paint2_linear_2503_29188)"/>
<path d="M17.5913 29.998L19.1912 21.3633L6.63465 22.8288L5.04812 33.0511L17.5913 29.998Z" fill="url(#paint3_linear_2503_29188)"/>
<path d="M10.2917 22.1777L18.8717 19.0632L11.2859 9.45346L1.28177 13.3945L10.2917 22.1777Z" fill="url(#paint4_linear_2503_29188)"/>
<path d="M13.7243 12.2243L20.8121 17.7054L25.6875 6.50938L17.1442 0.277556L13.7243 12.2243Z" fill="url(#paint5_linear_2503_29188)"/>
</g>
<defs>
<linearGradient id="paint0_linear_2503_29188" x1="2.08632" y1="21.8086" x2="39.9138" y2="18.1916" gradientUnits="userSpaceOnUse">
<stop stop-color="#C6FFDD"/>
<stop offset="0.520833" stop-color="#FBD786"/>
<stop offset="1" stop-color="#F7797D"/>
</linearGradient>
<linearGradient id="paint1_linear_2503_29188" x1="2.08632" y1="21.8086" x2="39.9138" y2="18.1916" gradientUnits="userSpaceOnUse">
<stop stop-color="#C6FFDD"/>
<stop offset="0.520833" stop-color="#FBD786"/>
<stop offset="1" stop-color="#F7797D"/>
</linearGradient>
<linearGradient id="paint2_linear_2503_29188" x1="2.08632" y1="21.8086" x2="39.9138" y2="18.1916" gradientUnits="userSpaceOnUse">
<stop stop-color="#C6FFDD"/>
<stop offset="0.520833" stop-color="#FBD786"/>
<stop offset="1" stop-color="#F7797D"/>
</linearGradient>
<linearGradient id="paint3_linear_2503_29188" x1="2.08632" y1="21.8086" x2="39.9138" y2="18.1916" gradientUnits="userSpaceOnUse">
<stop stop-color="#C6FFDD"/>
<stop offset="0.520833" stop-color="#FBD786"/>
<stop offset="1" stop-color="#F7797D"/>
</linearGradient>
<linearGradient id="paint4_linear_2503_29188" x1="2.08632" y1="21.8086" x2="39.9138" y2="18.1916" gradientUnits="userSpaceOnUse">
<stop stop-color="#C6FFDD"/>
<stop offset="0.520833" stop-color="#FBD786"/>
<stop offset="1" stop-color="#F7797D"/>
</linearGradient>
<linearGradient id="paint5_linear_2503_29188" x1="2.08632" y1="21.8086" x2="39.9138" y2="18.1916" gradientUnits="userSpaceOnUse">
<stop stop-color="#C6FFDD"/>
<stop offset="0.520833" stop-color="#FBD786"/>
<stop offset="1" stop-color="#F7797D"/>
</linearGradient>
<clipPath id="clip0_2503_29188">
<rect width="40" height="40" fill="white"/>
</clipPath>
</defs>
</svg>
