<svg width="26" height="27" viewBox="0 0 26 27" fill="none" xmlns="http://www.w3.org/2000/svg">
<g id="fi_3406474">
<path id="Vector" d="M17.875 25.6875H13C12.7845 25.6875 12.5778 25.6019 12.4255 25.4495C12.2731 25.2971 12.1875 25.0905 12.1875 24.875V22.4375C12.1875 22.0065 12.0163 21.5932 11.7115 21.2885C11.4068 20.9837 10.9935 20.8125 10.5625 20.8125C10.1315 20.8125 9.7182 20.9837 9.41345 21.2885C9.1087 21.5932 8.9375 22.0065 8.9375 22.4375V24.875C8.9375 25.0905 8.8519 25.2971 8.69952 25.4495C8.54715 25.6019 8.34049 25.6875 8.125 25.6875H3.25C2.60353 25.6875 1.98355 25.4307 1.52643 24.9736C1.06931 24.5165 0.8125 23.8965 0.8125 23.25V18.375C0.8125 18.1595 0.898102 17.9528 1.05048 17.8005C1.20285 17.6481 1.40951 17.5625 1.625 17.5625H4.0625C4.49348 17.5625 4.9068 17.3913 5.21155 17.0865C5.51629 16.7818 5.6875 16.3685 5.6875 15.9375C5.6875 15.5065 5.51629 15.0932 5.21155 14.7885C4.9068 14.4837 4.49348 14.3125 4.0625 14.3125H1.625C1.40951 14.3125 1.20285 14.2269 1.05048 14.0745C0.898102 13.9222 0.8125 13.7155 0.8125 13.5V8.625C0.8125 7.97853 1.06931 7.35855 1.52643 6.90143C1.98355 6.44431 2.60353 6.1875 3.25 6.1875H7.3125V4.5625C7.3125 3.70055 7.65491 2.8739 8.2644 2.2644C8.8739 1.65491 9.70055 1.3125 10.5625 1.3125C11.4245 1.3125 12.2511 1.65491 12.8606 2.2644C13.4701 2.8739 13.8125 3.70055 13.8125 4.5625V6.1875H17.875C18.5215 6.1875 19.1415 6.44431 19.5986 6.90143C20.0557 7.35855 20.3125 7.97853 20.3125 8.625V12.6875H21.9375C22.7995 12.6875 23.6261 13.0299 24.2356 13.6394C24.8451 14.2489 25.1875 15.0755 25.1875 15.9375C25.1875 16.7995 24.8451 17.6261 24.2356 18.2356C23.6261 18.8451 22.7995 19.1875 21.9375 19.1875H20.3125V23.25C20.3125 23.8965 20.0557 24.5165 19.5986 24.9736C19.1415 25.4307 18.5215 25.6875 17.875 25.6875ZM13.8125 24.0625H17.875C18.0905 24.0625 18.2971 23.9769 18.4495 23.8245C18.6019 23.6721 18.6875 23.4655 18.6875 23.25V18.375C18.6875 18.1595 18.7731 17.9528 18.9255 17.8005C19.0778 17.6481 19.2845 17.5625 19.5 17.5625H21.9375C22.3685 17.5625 22.7818 17.3913 23.0865 17.0865C23.3913 16.7818 23.5625 16.3685 23.5625 15.9375C23.5625 15.5065 23.3913 15.0932 23.0865 14.7885C22.7818 14.4837 22.3685 14.3125 21.9375 14.3125H19.5C19.2845 14.3125 19.0778 14.2269 18.9255 14.0745C18.7731 13.9222 18.6875 13.7155 18.6875 13.5V8.625C18.6875 8.40951 18.6019 8.20285 18.4495 8.05048C18.2971 7.8981 18.0905 7.8125 17.875 7.8125H13C12.7845 7.8125 12.5778 7.7269 12.4255 7.57452C12.2731 7.42215 12.1875 7.21549 12.1875 7V4.5625C12.1875 4.13152 12.0163 3.7182 11.7115 3.41345C11.4068 3.1087 10.9935 2.9375 10.5625 2.9375C10.1315 2.9375 9.7182 3.1087 9.41345 3.41345C9.1087 3.7182 8.9375 4.13152 8.9375 4.5625V7C8.9375 7.21549 8.8519 7.42215 8.69952 7.57452C8.54715 7.7269 8.34049 7.8125 8.125 7.8125H3.25C3.03451 7.8125 2.82785 7.8981 2.67548 8.05048C2.5231 8.20285 2.4375 8.40951 2.4375 8.625V12.6875H4.0625C4.92445 12.6875 5.7511 13.0299 6.3606 13.6394C6.97009 14.2489 7.3125 15.0755 7.3125 15.9375C7.3125 16.7995 6.97009 17.6261 6.3606 18.2356C5.7511 18.8451 4.92445 19.1875 4.0625 19.1875H2.4375V23.25C2.4375 23.4655 2.5231 23.6721 2.67548 23.8245C2.82785 23.9769 3.03451 24.0625 3.25 24.0625H7.3125V22.4375C7.3125 21.5755 7.65491 20.7489 8.2644 20.1394C8.8739 19.5299 9.70055 19.1875 10.5625 19.1875C11.4245 19.1875 12.2511 19.5299 12.8606 20.1394C13.4701 20.7489 13.8125 21.5755 13.8125 22.4375V24.0625Z" fill="#BDAD9F"/>
</g>
</svg>
