<svg width="24" height="24" viewBox="0 0 24 24" fill="none" xmlns="http://www.w3.org/2000/svg">
<path d="M20.7453 9.87037C20.7453 10.989 19.5704 11.8661 19.1669 12.8389C18.7488 13.8472 18.9438 15.2944 18.1836 16.0541C17.4235 16.8139 15.9768 16.6189 14.9684 17.037C13.9956 17.4405 13.1185 18.6154 11.9999 18.6154C10.8813 18.6154 10.0041 17.4405 9.03138 17.037C8.02301 16.6189 6.57588 16.8139 5.81613 16.0537C5.05638 15.2936 5.25138 13.8469 4.83326 12.8385C4.42976 11.8657 3.25488 10.9886 3.25488 9.87C3.25488 8.75137 4.42976 7.87425 4.83326 6.9015C5.25138 5.89312 5.05638 4.446 5.81651 3.68625C6.57663 2.9265 8.02338 3.1215 9.03176 2.70337C10.0045 2.29987 10.8816 1.125 12.0003 1.125C13.1189 1.125 13.996 2.29987 14.9688 2.70337C15.9771 3.1215 17.4243 2.9265 18.184 3.68662C18.9438 4.44675 18.7488 5.8935 19.1669 6.90187C19.5704 7.87462 20.7453 8.75175 20.7453 9.87037Z" fill="#FFCB29"/>
<path d="M12 15.4941C15.1066 15.4941 17.625 12.9757 17.625 9.86914C17.625 6.76254 15.1066 4.24414 12 4.24414C8.8934 4.24414 6.375 6.76254 6.375 9.86914C6.375 12.9757 8.8934 15.4941 12 15.4941Z" fill="#FAA629"/>
<path d="M9.0315 17.0372C8.02313 16.619 6.576 16.814 5.81625 16.0539C5.32425 15.5619 5.23238 14.7819 5.11538 14.0195L1.125 18.7753L5.0145 19.1019L6.01125 22.8755L10.2503 17.8235C9.84413 17.5217 9.44625 17.2093 9.0315 17.0372Z" fill="#3D82C4"/>
<path d="M18.8849 14.0199C18.7679 14.7823 18.676 15.5623 18.184 16.0543C17.4243 16.814 15.9771 16.619 14.9688 17.0372C14.5536 17.2093 14.1561 17.5217 13.75 17.8235L17.989 22.8755L18.9857 19.1019L22.8753 18.7753L18.8849 14.0199Z" fill="#3D82C4"/>
<path d="M12 6.66016L13.0429 8.77366L15.375 9.11228L13.6875 10.7574L14.0858 13.0802L12 11.9833L9.91425 13.0802L10.3125 10.7574L8.625 9.11228L10.9571 8.77366L12 6.66016Z" fill="#FFCB29"/>
</svg>
