<svg width="26" height="27" viewBox="0 0 26 27" fill="none" xmlns="http://www.w3.org/2000/svg">
<g id="fi_484633" clip-path="url(#clip0_2279_32198)">
<g id="Group">
<g id="Group_2">
<path id="Vector" d="M9.93841 14.1124C9.89672 13.9037 8.46052 6.72268 8.41497 6.49513C8.34383 6.13911 8.03117 5.88281 7.66808 5.88281H6.14465C5.78156 5.88281 5.4689 6.13911 5.39776 6.49513C5.35149 6.72654 3.91383 13.9148 3.87432 14.1123C3.7918 14.5249 4.05936 14.9261 4.47186 15.0086C4.88436 15.0911 5.28568 14.8236 5.36815 14.4111L5.85504 11.9766H7.95769L8.44458 14.4111C8.5271 14.8238 8.92858 15.0912 9.34087 15.0087C9.75336 14.9261 10.0209 14.5249 9.93841 14.1124ZM6.15973 10.4531L6.7691 7.40625H7.04363L7.653 10.4531H6.15973Z" fill="#BDAD9F"/>
</g>
</g>
<g id="Group_3">
<g id="Group_4">
<path id="Vector_2" d="M22.1406 11.9766H19.8555V11.2148C19.8555 10.7942 19.5144 10.4531 19.0937 10.4531C18.6731 10.4531 18.332 10.7942 18.332 11.2148V11.9766H16.0469C15.6262 11.9766 15.2852 12.3176 15.2852 12.7383C15.2852 13.159 15.6262 13.5 16.0469 13.5H16.2312C16.6652 14.9022 17.3187 15.9784 18.0378 16.8409C17.4525 17.3762 16.8603 17.8152 16.3328 18.2372C16.0043 18.5 15.951 18.9793 16.2138 19.3078C16.4768 19.6365 16.9562 19.6895 17.2845 19.4268C17.8149 19.0024 18.4508 18.5308 19.0937 17.9407C19.7372 18.5312 20.3742 19.0037 20.903 19.4268C21.2315 19.6896 21.7109 19.6363 21.9737 19.3078C22.2364 18.9793 22.1832 18.5 21.8547 18.2372C21.3286 17.8162 20.7356 17.3767 20.1497 16.8409C20.8688 15.9784 21.5223 14.9022 21.9563 13.5H22.1406C22.5613 13.5 22.9023 13.159 22.9023 12.7383C22.9023 12.3176 22.5613 11.9766 22.1406 11.9766ZM19.0937 15.7214C18.6075 15.111 18.1701 14.3825 17.8403 13.4949H20.3471C20.0174 14.3825 19.58 15.111 19.0937 15.7214Z" fill="#BDAD9F"/>
</g>
</g>
<g id="Group_5">
<g id="Group_6">
<path id="Vector_3" d="M23.7148 5.12109H12.7257L12.3992 2.5017C12.2566 1.36054 11.2818 0.5 10.1317 0.5H2.28516C1.02512 0.5 0 1.52512 0 2.78516V19.5938C0 20.8538 1.02512 21.8789 2.28516 21.8789H8.70812L9.03048 24.4983C9.17287 25.6372 10.1477 26.5 11.298 26.5H23.7148C24.9749 26.5 26 25.4749 26 24.2148V7.40625C26 6.14621 24.9749 5.12109 23.7148 5.12109ZM2.28516 20.3555C1.86514 20.3555 1.52344 20.0138 1.52344 19.5938V2.78516C1.52344 2.36514 1.86514 2.02344 2.28516 2.02344H10.1317C10.5151 2.02344 10.84 2.31025 10.8875 2.6904C10.9979 3.57582 12.9801 19.4772 13.0896 20.3555H2.28516ZM10.4977 23.9482L10.243 21.8789H12.2867L10.4977 23.9482ZM24.4766 24.2148C24.4766 24.6349 24.1349 24.9766 23.7148 24.9766H11.6225L14.5223 21.6223C14.6708 21.4549 14.7373 21.2326 14.7066 21.0117L12.9157 6.64453H23.7148C24.1349 6.64453 24.4766 6.98624 24.4766 7.40625V24.2148Z" fill="#BDAD9F"/>
</g>
</g>
</g>
<defs>
<clipPath id="clip0_2279_32198">
<rect width="26" height="26" fill="white" transform="translate(0 0.5)"/>
</clipPath>
</defs>
</svg>
