<svg width="32" height="33" viewBox="0 0 32 33" fill="none" xmlns="http://www.w3.org/2000/svg">
<g id="fi_18384306">
<path id="Vector" d="M18.1655 14.7786C18.0803 15.0796 17.67 15.0796 17.5848 14.7786C16.8643 12.237 14.8609 10.2396 12.3253 9.51605C12.0244 9.43092 12.0244 9.02359 12.3253 8.93845C14.8669 8.21486 16.8643 6.21441 17.5848 3.67592C17.67 3.37495 18.0803 3.37495 18.1655 3.67592C18.886 6.21753 20.8895 8.21486 23.4249 8.93845C23.7259 9.02359 23.7259 9.43092 23.4249 9.51605C20.8895 10.2396 18.886 12.24 18.1655 14.7786Z" fill="url(#paint0_linear_2503_29217)"/>
<path id="Vector_2" d="M29.6951 19.6992C27.792 20.2404 26.2902 21.7422 25.749 23.6484C25.6852 23.8733 25.3781 23.8733 25.3173 23.6484C24.7762 21.7422 23.2743 20.2404 21.3712 19.6992C21.1432 19.6384 21.1432 19.3313 21.3712 19.2675C23.2743 18.7294 24.7762 17.2275 25.3173 15.3214C25.3781 15.0934 25.6852 15.0934 25.749 15.3214C26.2902 17.2275 27.792 18.7294 29.6951 19.2675C29.9231 19.3313 29.9231 19.6323 29.6951 19.6992Z" fill="url(#paint1_linear_2503_29217)"/>
<path id="Vector_3" d="M19.4664 22.6621C15.6631 23.7444 12.6595 26.7421 11.5802 30.5513C11.4495 31.0044 10.8384 31.0044 10.7077 30.5513C9.62842 26.745 6.6308 23.7444 2.82151 22.6621C2.36549 22.5314 2.36549 21.9234 2.82151 21.7927C6.62475 20.7134 9.62842 17.7158 10.7077 13.9065C10.8384 13.4504 11.4495 13.4504 11.5802 13.9065C12.6595 17.7098 15.657 20.7134 19.4664 21.7927C19.9224 21.9234 19.9224 22.5314 19.4664 22.6621Z" fill="url(#paint2_linear_2503_29217)"/>
</g>
<defs>
<linearGradient id="paint0_linear_2503_29217" x1="12.0996" y1="9.22725" x2="23.6507" y2="9.22725" gradientUnits="userSpaceOnUse">
<stop stop-color="#C6FFDD"/>
<stop offset="0.520833" stop-color="#FBD786"/>
<stop offset="1" stop-color="#F7797D"/>
</linearGradient>
<linearGradient id="paint1_linear_2503_29217" x1="21.2002" y1="19.4837" x2="29.8661" y2="19.4837" gradientUnits="userSpaceOnUse">
<stop stop-color="#C6FFDD"/>
<stop offset="0.520833" stop-color="#FBD786"/>
<stop offset="1" stop-color="#F7797D"/>
</linearGradient>
<linearGradient id="paint2_linear_2503_29217" x1="2.47949" y1="22.2278" x2="19.8084" y2="22.2278" gradientUnits="userSpaceOnUse">
<stop stop-color="#C6FFDD"/>
<stop offset="0.520833" stop-color="#FBD786"/>
<stop offset="1" stop-color="#F7797D"/>
</linearGradient>
</defs>
</svg>
