<svg width="28" height="28" viewBox="0 0 28 28" fill="none" xmlns="http://www.w3.org/2000/svg">
<g id="fi_9590921">
<path id="Vector" d="M20.3351 21.8793C20.335 21.952 20.3169 22.0235 20.2826 22.0876C20.2483 22.1517 20.1987 22.2064 20.1382 22.2468L14.2407 26.1755C14.1748 26.2184 14.0986 26.2428 14.0201 26.2462C13.9415 26.2496 13.8635 26.2318 13.7942 26.1946C13.7249 26.1575 13.6668 26.1025 13.6261 26.0352C13.5854 25.968 13.5634 25.891 13.5626 25.8124V24.2768C11.5754 24.1918 9.65562 23.5312 8.03679 22.3754C6.41797 21.2197 5.16979 19.6185 4.44404 17.7665C3.71828 15.9146 3.5462 13.8917 3.94872 11.9438C4.35124 9.99588 5.31102 8.20687 6.71136 6.79427C6.75181 6.75322 6.79996 6.72056 6.85306 6.69816C6.90616 6.67576 6.96316 6.66407 7.02079 6.66375C7.07842 6.66344 7.13554 6.6745 7.18889 6.69632C7.24223 6.71813 7.29074 6.75026 7.33163 6.79087C7.37253 6.83148 7.405 6.87976 7.42719 6.93294C7.44938 6.98613 7.46085 7.04318 7.46094 7.10081C7.46103 7.15844 7.44974 7.21552 7.42772 7.26877C7.4057 7.32203 7.37338 7.37041 7.33261 7.41115C6.06429 8.6837 5.19071 10.2956 4.81699 12.053C5.25432 14.0798 6.3487 15.9055 7.93015 17.2464C9.5116 18.5873 11.4916 19.3685 13.5626 19.4686V17.9505C13.5633 17.8718 13.5851 17.7948 13.6258 17.7274C13.6665 17.6601 13.7246 17.605 13.794 17.5678C13.8633 17.5307 13.9414 17.5129 14.02 17.5163C14.0986 17.5198 14.1749 17.5443 14.2407 17.5874L20.1382 21.5161C20.1982 21.556 20.2475 21.6099 20.2818 21.6732C20.3161 21.7365 20.3344 21.8073 20.3351 21.8793ZM14.4376 3.72302V2.1874C14.4369 2.10874 14.415 2.03171 14.3743 1.96441C14.3336 1.8971 14.2755 1.84199 14.2062 1.80485C14.1368 1.76772 14.0588 1.74993 13.9802 1.75334C13.9016 1.75676 13.8254 1.78126 13.7595 1.82427L7.86199 5.75302C7.8022 5.79338 7.75323 5.84779 7.71938 5.91148C7.68552 5.97518 7.66782 6.04621 7.66782 6.11834C7.66782 6.19047 7.68552 6.2615 7.71938 6.32519C7.75323 6.38888 7.8022 6.4433 7.86199 6.48365L13.7595 10.4124C13.8253 10.4554 13.9016 10.48 13.9802 10.4834C14.0588 10.4869 14.1369 10.4691 14.2062 10.432C14.2756 10.3948 14.3337 10.3397 14.3744 10.2723C14.4151 10.205 14.437 10.128 14.4376 10.0493V8.53115C16.5086 8.63126 18.4886 9.41245 20.0701 10.7534C21.6515 12.0943 22.7459 13.92 23.1832 15.9468C22.8095 17.7041 21.9359 19.3161 20.6676 20.5886C20.5876 20.6714 20.5434 20.7823 20.5445 20.8974C20.5457 21.0125 20.5921 21.1225 20.6738 21.2036C20.7555 21.2847 20.8658 21.3304 20.981 21.3308C21.0961 21.3311 21.2067 21.2861 21.2889 21.2055C22.6892 19.7929 23.649 18.0039 24.0515 16.056C24.454 14.1081 24.2819 12.0852 23.5562 10.2333C22.8304 8.38132 21.5823 6.78013 19.9634 5.62436C18.3446 4.4686 16.4249 3.80805 14.4376 3.72302Z" fill="url(#paint0_linear_2549_34326)"/>
</g>
<defs>
<linearGradient id="paint0_linear_2549_34326" x1="3.73633" y1="13.9998" x2="24.2639" y2="13.9998" gradientUnits="userSpaceOnUse">
<stop stop-color="#C6FFDD"/>
<stop offset="0.520833" stop-color="#FBD786"/>
<stop offset="1" stop-color="#F7797D"/>
</linearGradient>
</defs>
</svg>
