<svg width="26" height="27" viewBox="0 0 26 27" fill="none" xmlns="http://www.w3.org/2000/svg">
<g id="fi_2990003">
<g id="layer1">
<path id="path9551" d="M4.08605 6.624L3.67345 4.89539C3.55952 4.37956 3.09022 4.02103 2.56261 4.04682C1.87633 4.07958 1.39283 4.73356 1.56392 5.39895L2.64302 9.86768C2.7831 10.4477 3.36582 10.8053 3.9464 10.6675L8.41727 9.59678C9.82504 9.2553 9.31299 7.14382 7.90522 7.48518L5.75549 8.00349C7.24376 6.12408 9.43693 4.81083 12.0143 4.53564C17.1109 3.99141 21.6601 7.66758 22.2044 12.7642C22.3214 14.2497 24.5649 14.0078 24.3626 12.5317C23.7358 6.662 18.7391 2.29097 12.375 2.3512C8.63891 2.72052 5.92302 4.32339 4.08605 6.624ZM17.5642 17.3705C16.0985 17.6707 16.6275 19.8773 18.0699 19.4801L20.2176 18.9617C18.7293 20.8405 16.5364 22.1481 13.9588 22.4233C8.8621 22.9675 4.31503 19.2998 3.77078 14.2031C3.71859 13.6357 3.23589 13.2057 2.66629 13.2192C2.02628 13.2356 1.54002 13.8005 1.61893 14.4359C2.28751 20.6969 7.9284 25.2522 14.1894 24.5836C17.3394 24.2475 20.0522 22.6391 21.8891 20.3413L22.3081 22.072C22.5719 23.5872 24.8623 23.0389 24.4112 21.5685L23.3385 17.0976C23.2165 16.5819 22.7394 16.2301 22.1187 16.2819L17.5642 17.3705Z" fill="#BDAD9F"/>
</g>
</g>
</svg>
