<svg width="28" height="28" viewBox="0 0 28 28" fill="none" xmlns="http://www.w3.org/2000/svg">
<g id="fi_18859045">
<g id="Group">
<path id="Vector" d="M13.9997 2.33496H10.1112C7.96216 2.33496 6.22266 4.07446 6.22266 6.22346C6.22266 8.37246 7.96216 10.112 10.1112 10.112H13.9997V2.33496Z" fill="url(#paint0_linear_2503_29239)"/>
<path id="Vector_2" d="M13.9997 10.1123H10.1112C7.96216 10.1123 6.22266 11.8518 6.22266 14.0008C6.22266 16.1498 7.96216 17.8893 10.1112 17.8893H13.9997V10.1123Z" fill="url(#paint1_linear_2503_29239)"/>
<path id="Vector_3" d="M21.777 14.0008C21.777 16.1498 20.0375 17.8893 17.8885 17.8893C15.7395 17.8893 14 16.1498 14 14.0008C14 11.8518 15.7395 10.1123 17.8885 10.1123C20.0375 10.1123 21.777 11.8518 21.777 14.0008Z" fill="url(#paint2_linear_2503_29239)"/>
<path id="Vector_4" d="M10.1112 17.8887H13.9997V21.7772C13.9997 23.9262 12.2602 25.6657 10.1112 25.6657C7.96216 25.6657 6.22266 23.9262 6.22266 21.7772C6.22266 19.6317 7.96216 17.8887 10.1112 17.8887Z" fill="url(#paint3_linear_2503_29239)"/>
<path id="Vector_5" d="M14 2.33496H17.8885C20.0375 2.33496 21.777 4.07446 21.777 6.22346C21.777 8.37246 20.0375 10.112 17.8885 10.112H14V2.33496Z" fill="url(#paint4_linear_2503_29239)"/>
</g>
</g>
<defs>
<linearGradient id="paint0_linear_2503_29239" x1="6.22266" y1="6.22346" x2="13.9997" y2="6.22346" gradientUnits="userSpaceOnUse">
<stop stop-color="#C6FFDD"/>
<stop offset="0.520833" stop-color="#FBD786"/>
<stop offset="1" stop-color="#F7797D"/>
</linearGradient>
<linearGradient id="paint1_linear_2503_29239" x1="6.22266" y1="14.0008" x2="13.9997" y2="14.0008" gradientUnits="userSpaceOnUse">
<stop stop-color="#C6FFDD"/>
<stop offset="0.520833" stop-color="#FBD786"/>
<stop offset="1" stop-color="#F7797D"/>
</linearGradient>
<linearGradient id="paint2_linear_2503_29239" x1="14" y1="14.0008" x2="21.777" y2="14.0008" gradientUnits="userSpaceOnUse">
<stop stop-color="#C6FFDD"/>
<stop offset="0.520833" stop-color="#FBD786"/>
<stop offset="1" stop-color="#F7797D"/>
</linearGradient>
<linearGradient id="paint3_linear_2503_29239" x1="6.22266" y1="21.7772" x2="13.9997" y2="21.7772" gradientUnits="userSpaceOnUse">
<stop stop-color="#C6FFDD"/>
<stop offset="0.520833" stop-color="#FBD786"/>
<stop offset="1" stop-color="#F7797D"/>
</linearGradient>
<linearGradient id="paint4_linear_2503_29239" x1="14" y1="6.22346" x2="21.777" y2="6.22346" gradientUnits="userSpaceOnUse">
<stop stop-color="#C6FFDD"/>
<stop offset="0.520833" stop-color="#FBD786"/>
<stop offset="1" stop-color="#F7797D"/>
</linearGradient>
</defs>
</svg>
