<svg width="81" height="80" viewBox="0 0 81 80" fill="none" xmlns="http://www.w3.org/2000/svg">
<g id="fi_4907289" clip-path="url(#clip0_2279_31442)">
<g id="Group">
<g id="Group_2">
<path id="Vector" d="M2.88969 39.1152L0.5 40.1284C0.499844 40.734 0.732813 41.3351 1.18734 41.7879L38.8509 79.3198C39.2905 79.7579 40.0455 79.998 40.4888 80.0001C40.9391 80.0021 41.7092 79.7651 42.1564 79.3193L79.8136 41.7638C80.2669 41.3116 80.4997 40.7121 80.5003 40.1076L78.4225 39.1154C77.2639 39.1154 66.503 39.1154 53.4281 39.1154L39.4078 43.6412L27.5502 39.1154C15.2509 39.1152 5.00688 39.1152 2.88969 39.1152Z" fill="#FFB739"/>
<path id="Vector_2" d="M80.4994 40.1077C80.4994 40.7116 80.2669 41.311 79.8127 41.7635L42.1558 79.319C41.7127 79.7621 40.9494 79.9995 40.5 79.9995V43.2882L53.428 39.1152H78.4223L80.4994 40.1077Z" fill="#FF9441"/>
<path id="Vector_3" d="M27.5498 39.1152L40.5 79.9995L53.4278 39.1152H27.5498Z" fill="#FF9441"/>
<path id="Vector_4" d="M53.4278 39.1152L40.5 79.9995V39.1152H53.4278Z" fill="#FF7149"/>
<path id="Vector_5" d="M80.1073 38.8075L67.5719 20.0258C67.3984 19.7661 67.175 19.5455 66.9177 19.3752L65.7814 19.9208L42.6686 20.0648L40.5 18.9844L38.7475 20.0892L15.6867 20.233L14.0775 19.3775C13.822 19.5473 13.5994 19.7672 13.4262 20.027L0.891719 38.8323C0.627812 39.2283 0.5 39.68 0.5 40.1292C5.04078 40.128 74.6353 40.1097 80.5 40.1081C80.5003 39.6577 80.3722 39.2044 80.1073 38.8075Z" fill="#FFD17E"/>
<path id="Vector_6" d="M80.4994 40.1086C77.5936 40.1086 59.035 40.1148 40.5 40.1195V18.9844L42.6692 20.0642L65.7816 19.9206L66.9177 19.3744C67.1752 19.5461 67.3983 19.7661 67.5716 20.0252L80.1078 38.8069C80.373 39.205 80.5009 39.6575 80.4994 40.1086Z" fill="#FFB739"/>
<path id="Vector_7" d="M15.3741 18.9844C14.9059 18.9844 14.4569 19.1252 14.0781 19.3772L27.9619 40.122H27.9634L40.4994 18.9844H15.3741Z" fill="#FFB739"/>
<path id="Vector_8" d="M53.0411 40.1153L66.917 19.3747C66.539 19.1242 66.0914 18.9844 65.6247 18.9844H40.499L53.0311 40.1155H53.0411V40.1153Z" fill="#FF9441"/>
</g>
<path id="Vector_9" d="M26.5041 56.457C22.5861 56.457 19.3984 53.2695 19.3984 49.3516C19.3984 48.0572 18.3491 47.0078 17.0547 47.0078C15.7603 47.0078 14.7109 48.0572 14.7109 49.3516C14.7109 53.2498 11.5427 56.457 7.60547 56.457C6.31109 56.457 5.26172 57.5064 5.26172 58.8008C5.26172 60.0952 6.31109 61.1445 7.60547 61.1445C11.5234 61.1445 14.7109 64.332 14.7109 68.25C14.7109 69.5444 15.7603 70.5938 17.0547 70.5938C18.3491 70.5938 19.3984 69.5444 19.3984 68.25C19.3984 64.352 22.5664 61.1445 26.5041 61.1445C27.7984 61.1445 28.8478 60.0952 28.8478 58.8008C28.8478 57.5064 27.7984 56.457 26.5041 56.457Z" fill="#FFD17E"/>
<path id="Vector_10" d="M62.4268 9.44922C58.5088 9.44922 55.3213 6.26172 55.3213 2.34375C55.3213 1.04938 54.2719 0 52.9775 0C51.6832 0 50.6338 1.04938 50.6338 2.34375C50.6338 6.26172 47.4464 9.44922 43.5283 9.44922C42.2339 9.44922 41.1846 10.4986 41.1846 11.793C41.1846 13.0873 42.2339 14.1367 43.5283 14.1367C47.4463 14.1367 50.6338 17.3242 50.6338 21.2422C50.6338 22.5366 51.6832 23.5859 52.9775 23.5859C54.2719 23.5859 55.3213 22.5366 55.3213 21.2422C55.3213 17.3242 58.5086 14.1367 62.4268 14.1367C63.7211 14.1367 64.7705 13.0873 64.7705 11.793C64.7705 10.4986 63.7211 9.44922 62.4268 9.44922Z" fill="#FFB739"/>
</g>
</g>
<defs>
<clipPath id="clip0_2279_31442">
<rect width="80" height="80" fill="white" transform="translate(0.5)"/>
</clipPath>
</defs>
</svg>
