<svg width="26" height="27" viewBox="0 0 26 27" fill="none" xmlns="http://www.w3.org/2000/svg">
<g id="fi_1014398" clip-path="url(#clip0_2279_32159)">
<g id="Group">
<g id="Group_2">
<path id="Vector" d="M18.7348 2.54423C16.5884 0.799994 13.7828 0.128666 11.037 0.702392C7.60569 1.41937 4.80622 4.23098 4.07091 7.69878C3.45092 10.6229 4.21492 13.5585 6.16706 15.753C7.13525 16.8415 7.66846 18.2031 7.66846 19.5909V21.1144C7.66846 22.1074 8.3053 22.9541 9.19189 23.2685V24.212C9.19189 25.4721 10.217 26.4972 11.477 26.4972H14.5239C15.784 26.4972 16.8091 25.4721 16.8091 24.212V23.2685C17.6957 22.9541 18.3325 22.1074 18.3325 21.1144V19.5909C18.3325 18.2209 18.8816 16.84 19.8784 15.7027C21.3375 14.038 22.1411 11.9021 22.1411 9.68859C22.1411 6.90745 20.8996 4.30339 18.7348 2.54423ZM15.2856 24.212C15.2856 24.632 14.9439 24.9737 14.5239 24.9737H11.477C11.057 24.9737 10.7153 24.632 10.7153 24.212V23.3995H15.2856V24.212ZM16.8091 21.1144C16.8091 21.5344 16.4674 21.8761 16.0474 21.8761H9.95361C9.5336 21.8761 9.19189 21.5344 9.19189 21.1144V20.3527H16.8091V21.1144ZM13.0005 13.43C13.5148 13.43 14.0291 13.3477 14.5239 13.1845V18.8293H11.477V13.1845C11.9719 13.3477 12.4861 13.43 13.0005 13.43ZM11.7271 11.6534L13.0005 9.10669L14.2738 11.6533C13.4576 11.9892 12.5434 11.9892 11.7271 11.6534ZM18.7328 14.6985C17.6736 15.9069 17.0207 17.3502 16.8525 18.8292H16.0474V11.9791C16.0474 11.9781 16.0474 11.9771 16.0474 11.9761C16.0474 11.8721 16.0249 11.7576 15.9742 11.6501C15.9715 11.6445 15.9697 11.6386 15.9669 11.6332L13.6818 7.06285C13.5527 6.80477 13.289 6.64177 13.0004 6.64177C12.7119 6.64177 12.4482 6.80477 12.3191 7.06285L10.0339 11.6332C9.98352 11.7342 9.95356 11.8571 9.95356 11.9755C9.95356 11.9769 9.95356 11.9782 9.95356 11.9796V18.8293H9.15035C8.98704 17.34 8.34628 15.9108 7.30532 14.7406C5.67844 12.9116 5.04271 10.4602 5.56124 8.01479C6.17325 5.12838 8.49903 2.78904 11.3486 2.19363C13.6433 1.71416 15.9853 2.2729 17.774 3.72652C19.5812 5.19511 20.6177 7.36819 20.6177 9.68859C20.6177 11.5326 19.9483 13.3118 18.7328 14.6985Z" fill="#BDAD9F"/>
</g>
</g>
<g id="Group_3">
<g id="Group_4">
<path id="Vector_2" d="M2.28516 9.68945H0.761719C0.341047 9.68945 0 10.0305 0 10.4512C0 10.8718 0.341047 11.2129 0.761719 11.2129H2.28516C2.70583 11.2129 3.04687 10.8718 3.04687 10.4512C3.04687 10.0305 2.70583 9.68945 2.28516 9.68945Z" fill="#BDAD9F"/>
</g>
</g>
<g id="Group_5">
<g id="Group_6">
<path id="Vector_3" d="M2.60021 5.88041L1.52299 4.80319C1.22551 4.50571 0.74324 4.50571 0.445764 4.80319C0.148287 5.10066 0.148287 5.58293 0.445764 5.88041L1.52299 6.95763C1.82051 7.25516 2.30278 7.25506 2.60021 6.95763C2.89769 6.66015 2.89769 6.17789 2.60021 5.88041Z" fill="#BDAD9F"/>
</g>
</g>
<g id="Group_7">
<g id="Group_8">
<path id="Vector_4" d="M2.60017 13.9438C2.30269 13.6463 1.82042 13.6463 1.52295 13.9438L0.445726 15.021C0.1483 15.3185 0.1483 15.8008 0.445726 16.0983C0.743151 16.3957 1.22542 16.3957 1.52295 16.0983L2.60017 15.021C2.8976 14.7236 2.8976 14.2413 2.60017 13.9438Z" fill="#BDAD9F"/>
</g>
</g>
<g id="Group_9">
<g id="Group_10">
<path id="Vector_5" d="M25.2383 9.68945H23.7148C23.2942 9.68945 22.9531 10.0305 22.9531 10.4512C22.9531 10.8718 23.2942 11.2129 23.7148 11.2129H25.2383C25.659 11.2129 26 10.8718 26 10.4512C26 10.0305 25.659 9.68945 25.2383 9.68945Z" fill="#BDAD9F"/>
</g>
</g>
<g id="Group_11">
<g id="Group_12">
<path id="Vector_6" d="M25.5533 4.80319C25.2559 4.50571 24.7736 4.50571 24.4761 4.80319L23.3989 5.88041C23.1014 6.17789 23.1014 6.66015 23.3989 6.95763C23.6963 7.25511 24.1786 7.25511 24.4761 6.95763L25.5533 5.88041C25.8508 5.58293 25.8508 5.10066 25.5533 4.80319Z" fill="#BDAD9F"/>
</g>
</g>
<g id="Group_13">
<g id="Group_14">
<path id="Vector_7" d="M25.5534 15.021L24.4761 13.9438C24.1788 13.6463 23.6964 13.6463 23.3989 13.9438C23.1014 14.2413 23.1014 14.7236 23.3989 15.021L24.4761 16.0983C24.7735 16.3957 25.2559 16.3957 25.5534 16.0983C25.8508 15.8008 25.8508 15.3185 25.5534 15.021Z" fill="#BDAD9F"/>
</g>
</g>
</g>
<defs>
<clipPath id="clip0_2279_32159">
<rect width="26" height="26" fill="white" transform="translate(0 0.5)"/>
</clipPath>
</defs>
</svg>
