<svg width="34" height="32" viewBox="0 0 34 32" fill="none" xmlns="http://www.w3.org/2000/svg">
<g id="fi_17242904">
<g id="Group">
<path id="Vector" fill-rule="evenodd" clip-rule="evenodd" d="M24.5672 9.60012C24.1494 11.0776 22.791 12.1601 21.1797 12.1601C19.5685 12.1601 18.2101 11.0776 17.7922 9.60012H5.17973C4.64953 9.60012 4.21973 9.17031 4.21973 8.64012C4.21973 8.10994 4.64953 7.68012 5.17973 7.68012H17.7922C18.2101 6.20267 19.5685 5.12012 21.1797 5.12012C22.791 5.12012 24.1494 6.20267 24.5672 7.68012H28.8597C29.3899 7.68012 29.8197 8.10994 29.8197 8.64012C29.8197 9.17031 29.3899 9.60012 28.8597 9.60012H24.5672ZM22.7797 8.64012C22.7797 9.52375 22.0634 10.2401 21.1797 10.2401C20.2961 10.2401 19.5797 9.52375 19.5797 8.64012C19.5797 7.75644 20.2961 7.04012 21.1797 7.04012C22.0634 7.04012 22.7797 7.75644 22.7797 8.64012Z" fill="#BDAD9F"/>
<path id="Vector_2" fill-rule="evenodd" clip-rule="evenodd" d="M24.5672 24.3198C24.1494 25.7973 22.791 26.8798 21.1797 26.8798C19.5685 26.8798 18.2101 25.7973 17.7922 24.3198H5.17973C4.64953 24.3198 4.21973 23.89 4.21973 23.3598C4.21973 22.8297 4.64953 22.3998 5.17973 22.3998H17.7922C18.2101 20.9224 19.5685 19.8398 21.1797 19.8398C22.791 19.8398 24.1494 20.9224 24.5672 22.3998H28.8597C29.3899 22.3998 29.8197 22.8297 29.8197 23.3598C29.8197 23.89 29.3899 24.3198 28.8597 24.3198H24.5672ZM22.7797 23.3598C22.7797 24.2435 22.0634 24.9598 21.1797 24.9598C20.2961 24.9598 19.5797 24.2435 19.5797 23.3598C19.5797 22.4762 20.2961 21.7598 21.1797 21.7598C22.0634 21.7598 22.7797 22.4762 22.7797 23.3598Z" fill="#BDAD9F"/>
<path id="Vector_3" fill-rule="evenodd" clip-rule="evenodd" d="M12.8597 19.5205C11.2485 19.5205 9.8901 18.4379 9.47223 16.9605H5.17973C4.64953 16.9605 4.21973 16.5307 4.21973 16.0005C4.21973 15.4703 4.64953 15.0405 5.17973 15.0405H9.47223C9.8901 13.563 11.2485 12.4805 12.8597 12.4805C14.471 12.4805 15.8294 13.563 16.2472 15.0405H28.8597C29.3899 15.0405 29.8197 15.4703 29.8197 16.0005C29.8197 16.5307 29.3899 16.9605 28.8597 16.9605H16.2472C15.8294 18.4379 14.471 19.5205 12.8597 19.5205ZM12.8597 17.6005C11.9761 17.6005 11.2597 16.8841 11.2597 16.0005C11.2597 15.1168 11.9761 14.4005 12.8597 14.4005C13.7434 14.4005 14.4597 15.1168 14.4597 16.0005C14.4597 16.8841 13.7434 17.6005 12.8597 17.6005Z" fill="#BDAD9F"/>
</g>
</g>
</svg>
