<svg xmlns="http://www.w3.org/2000/svg" width="170" height="43" viewBox="0 0 170 43" fill="none"><g clip-path="url(#clip0_4058_8347)"><path d="M13.65 1.57824C13.65 1.2303 13.3678 0.946724 13.0202 0.962777C11.4428 1.03563 9.88825 1.38176 8.42638 1.98728C6.77028 2.67326 5.26552 3.67871 3.998 4.94623C2.73048 6.21375 1.72503 7.71851 1.03905 9.37461C0.353075 11.0307 7.79144e-06 12.8057 7.62939e-06 14.5982C7.46735e-06 16.3908 0.353075 18.1658 1.03905 19.8219C1.72503 21.478 2.73048 22.9827 3.998 24.2502C5.26552 25.5178 6.77028 26.5232 8.42637 27.2092C9.88824 27.8147 11.4428 28.1608 13.0202 28.2337C13.3678 28.2497 13.65 27.9662 13.65 27.6182L13.65 1.57824Z" fill="#FFDA00"></path><path d="M41.37 14.5982C41.7179 14.5982 42.0015 14.316 41.9854 13.9684C41.9126 12.391 41.5665 10.8365 40.9609 9.37461C40.275 7.71852 39.2695 6.21375 38.002 4.94623C36.7345 3.67871 35.2297 2.67326 33.5736 1.98729C31.9175 1.30131 30.1425 0.948242 28.35 0.948242C26.5574 0.948242 24.7825 1.30131 23.1264 1.98729C21.4703 2.67326 19.9655 3.67871 18.698 4.94623C17.4305 6.21375 16.425 7.71851 15.739 9.37461C15.1335 10.8365 14.7874 12.391 14.7145 13.9684C14.6985 14.316 14.9821 14.5982 15.33 14.5982L41.37 14.5982Z" fill="#FFDA00"></path><path d="M28.35 42.3182C28.35 42.6661 28.6322 42.9497 28.9798 42.9337C30.5572 42.8608 32.1117 42.5147 33.5736 41.9092C35.2297 41.2232 36.7345 40.2177 38.002 38.9502C39.2695 37.6827 40.275 36.1779 40.9609 34.5218C41.6469 32.8658 42 31.0908 42 29.2982C42 27.5057 41.6469 25.7307 40.9609 24.0746C40.275 22.4185 39.2695 20.9137 38.002 19.6462C36.7345 18.3787 35.2297 17.3732 33.5736 16.6873C32.1117 16.0817 30.5572 15.7356 28.9798 15.6628C28.6322 15.6467 28.35 15.9303 28.35 16.2782L28.35 42.3182Z" fill="#FFDA00"></path><path d="M0.63001 29.2982C0.28207 29.2982 -0.00150727 29.5804 0.0145456 29.928C0.0874019 31.5055 0.433526 33.06 1.03905 34.5218C1.72503 36.1779 2.73048 37.6827 3.998 38.9502C5.26552 40.2177 6.77028 41.2232 8.42637 41.9092C10.0825 42.5951 11.8575 42.9482 13.65 42.9482C15.4425 42.9482 17.2175 42.5951 18.8736 41.9092C20.5297 41.2232 22.0345 40.2177 23.302 38.9502C24.5695 37.6827 25.575 36.1779 26.261 34.5218C26.8665 33.06 27.2126 31.5055 27.2855 29.928C27.3015 29.5804 27.0179 29.2982 26.67 29.2982L0.63001 29.2982Z" fill="#FFDA00"></path></g><path d="M52.23 14.3182C51.33 14.3182 50.6 14.0582 50.04 13.5382C49.5 13.0182 49.23 12.3382 49.23 11.4982C49.23 10.6382 49.5 9.94824 50.04 9.42824C50.6 8.90824 51.33 8.64824 52.23 8.64824C53.15 8.64824 53.89 8.90824 54.45 9.42824C55.01 9.94824 55.29 10.6382 55.29 11.4982C55.29 12.3382 55.01 13.0182 54.45 13.5382C53.89 14.0582 53.15 14.3182 52.23 14.3182ZM55.02 16.7482V25.8682C55.02 26.3682 55.11 26.7582 55.29 27.0382C55.49 27.3182 55.7 27.5582 55.92 27.7582C56.14 27.9382 56.34 28.1182 56.52 28.2982C56.72 28.4582 56.82 28.6682 56.82 28.9282C56.82 29.2682 56.61 29.5282 56.19 29.7082C55.77 29.8682 55.1 29.9482 54.18 29.9482H50.94C50.02 29.9482 49.35 29.8682 48.93 29.7082C48.51 29.5282 48.3 29.2682 48.3 28.9282C48.3 28.6682 48.39 28.4582 48.57 28.2982C48.77 28.1182 48.98 27.9382 49.2 27.7582C49.42 27.5582 49.62 27.3182 49.8 27.0382C50 26.7582 50.1 26.3682 50.1 25.8682V20.9482C50.1 20.4482 50 20.0582 49.8 19.7782C49.62 19.4982 49.42 19.2682 49.2 19.0882C48.98 18.8882 48.77 18.7082 48.57 18.5482C48.39 18.3882 48.3 18.1782 48.3 17.9182C48.3 17.2582 49.07 16.7982 50.61 16.5382L53.85 15.9682C54.63 15.8482 55.02 16.1082 55.02 16.7482ZM73.2513 20.5882V26.5582C73.2513 26.9382 73.3413 27.1982 73.5213 27.3382C73.7013 27.4782 73.8913 27.5882 74.0913 27.6682C74.3113 27.7282 74.5013 27.7982 74.6613 27.8782C74.8413 27.9582 74.9313 28.1282 74.9313 28.3882C74.9313 28.8682 74.6413 29.2882 74.0613 29.6482C73.4813 29.9882 72.7913 30.1582 71.9913 30.1582C70.8313 30.1582 69.9313 29.8482 69.2913 29.2282C68.6513 28.6082 68.3313 27.7282 68.3313 26.5882V21.4282C68.3313 20.6682 68.1213 20.0482 67.7013 19.5682C67.2813 19.0882 66.7413 18.8482 66.0813 18.8482C65.4413 18.8482 64.9013 19.0882 64.4613 19.5682C64.0413 20.0482 63.8313 20.6682 63.8313 21.4282V25.8682C63.8313 26.3682 63.9213 26.7582 64.1013 27.0382C64.3013 27.3182 64.5113 27.5582 64.7313 27.7582C64.9513 27.9382 65.1513 28.1182 65.3313 28.2982C65.5313 28.4582 65.6313 28.6682 65.6313 28.9282C65.6313 29.2682 65.4213 29.5282 65.0013 29.7082C64.5813 29.8682 63.9113 29.9482 62.9913 29.9482H59.7513C58.8313 29.9482 58.1613 29.8682 57.7413 29.7082C57.3213 29.5282 57.1113 29.2682 57.1113 28.9282C57.1113 28.6682 57.2013 28.4582 57.3813 28.2982C57.5813 28.1182 57.7913 27.9382 58.0113 27.7582C58.2313 27.5582 58.4313 27.3182 58.6113 27.0382C58.8113 26.7582 58.9113 26.3682 58.9113 25.8682V20.9482C58.9113 20.4482 58.8113 20.0582 58.6113 19.7782C58.4313 19.4982 58.2313 19.2682 58.0113 19.0882C57.7913 18.8882 57.5813 18.7082 57.3813 18.5482C57.2013 18.3882 57.1113 18.1782 57.1113 17.9182C57.1113 17.2582 57.8813 16.7982 59.4213 16.5382L62.6613 15.9682C63.4413 15.8482 63.8313 16.1082 63.8313 16.7482V18.4882H63.8913C64.4113 17.6682 65.0713 17.0382 65.8713 16.5982C66.6913 16.1582 67.5813 15.9382 68.5413 15.9382C70.0213 15.9382 71.1713 16.3482 71.9913 17.1682C72.8313 17.9882 73.2513 19.1282 73.2513 20.5882ZM92.2491 23.2282V28.0282C92.2491 29.3082 91.6091 29.9482 90.3291 29.9482H78.3291C77.4091 29.9482 76.7391 29.8682 76.3191 29.7082C75.8991 29.5282 75.6891 29.2682 75.6891 28.9282C75.6891 28.6682 75.7791 28.4582 75.9591 28.2982C76.1591 28.1182 76.3691 27.9382 76.5891 27.7582C76.8091 27.5582 77.0091 27.3182 77.1891 27.0382C77.3891 26.7582 77.4891 26.3682 77.4891 25.8682V13.3282C77.4891 12.8282 77.3891 12.4382 77.1891 12.1582C77.0091 11.8782 76.8091 11.6482 76.5891 11.4682C76.3691 11.2682 76.1591 11.0882 75.9591 10.9282C75.7791 10.7482 75.6891 10.5282 75.6891 10.2682C75.6891 9.92824 75.8991 9.67824 76.3191 9.51824C76.7391 9.33824 77.4091 9.24824 78.3291 9.24824H82.0491C82.9691 9.24824 83.6391 9.33824 84.0591 9.51824C84.4791 9.67824 84.6891 9.92824 84.6891 10.2682C84.6891 10.5282 84.5891 10.7482 84.3891 10.9282C84.2091 11.0882 84.0091 11.2682 83.7891 11.4682C83.5691 11.6482 83.3591 11.8782 83.1591 12.1582C82.9791 12.4382 82.8891 12.8282 82.8891 13.3282V27.6682C82.8891 27.9882 83.0591 28.1482 83.3991 28.1482H83.6391C84.5791 28.1482 85.3991 28.0582 86.0991 27.8782C86.8191 27.6982 87.4491 27.4082 87.9891 27.0082C88.5491 26.6082 89.0491 26.0882 89.4891 25.4482C89.9291 24.7882 90.3291 23.9882 90.6891 23.0482C90.7891 22.7682 90.8991 22.5782 91.0191 22.4782C91.1591 22.3782 91.3291 22.3282 91.5291 22.3282C92.0091 22.3282 92.2491 22.6282 92.2491 23.2282ZM96.7695 14.3182C95.8695 14.3182 95.1395 14.0582 94.5795 13.5382C94.0395 13.0182 93.7695 12.3382 93.7695 11.4982C93.7695 10.6382 94.0395 9.94824 94.5795 9.42824C95.1395 8.90824 95.8695 8.64824 96.7695 8.64824C97.6895 8.64824 98.4295 8.90824 98.9895 9.42824C99.5495 9.94824 99.8295 10.6382 99.8295 11.4982C99.8295 12.3382 99.5495 13.0182 98.9895 13.5382C98.4295 14.0582 97.6895 14.3182 96.7695 14.3182ZM99.5595 16.7482V25.8682C99.5595 26.3682 99.6495 26.7582 99.8295 27.0382C100.029 27.3182 100.239 27.5582 100.459 27.7582C100.679 27.9382 100.879 28.1182 101.059 28.2982C101.259 28.4582 101.359 28.6682 101.359 28.9282C101.359 29.2682 101.149 29.5282 100.729 29.7082C100.309 29.8682 99.6395 29.9482 98.7195 29.9482H95.4795C94.5595 29.9482 93.8895 29.8682 93.4695 29.7082C93.0495 29.5282 92.8395 29.2682 92.8395 28.9282C92.8395 28.6682 92.9295 28.4582 93.1095 28.2982C93.3095 28.1182 93.5195 27.9382 93.7395 27.7582C93.9595 27.5582 94.1595 27.3182 94.3395 27.0382C94.5395 26.7582 94.6395 26.3682 94.6395 25.8682V20.9482C94.6395 20.4482 94.5395 20.0582 94.3395 19.7782C94.1595 19.4982 93.9595 19.2682 93.7395 19.0882C93.5195 18.8882 93.3095 18.7082 93.1095 18.5482C92.9295 18.3882 92.8395 18.1782 92.8395 17.9182C92.8395 17.2582 93.6095 16.7982 95.1495 16.5382L98.3895 15.9682C99.1695 15.8482 99.5595 16.1082 99.5595 16.7482ZM117.791 20.5882V26.5582C117.791 26.9382 117.881 27.1982 118.061 27.3382C118.241 27.4782 118.431 27.5882 118.631 27.6682C118.851 27.7282 119.041 27.7982 119.201 27.8782C119.381 27.9582 119.471 28.1282 119.471 28.3882C119.471 28.8682 119.181 29.2882 118.601 29.6482C118.021 29.9882 117.331 30.1582 116.531 30.1582C115.371 30.1582 114.471 29.8482 113.831 29.2282C113.191 28.6082 112.871 27.7282 112.871 26.5882V21.4282C112.871 20.6682 112.661 20.0482 112.241 19.5682C111.821 19.0882 111.281 18.8482 110.621 18.8482C109.981 18.8482 109.441 19.0882 109.001 19.5682C108.581 20.0482 108.371 20.6682 108.371 21.4282V25.8682C108.371 26.3682 108.461 26.7582 108.641 27.0382C108.841 27.3182 109.051 27.5582 109.271 27.7582C109.491 27.9382 109.691 28.1182 109.871 28.2982C110.071 28.4582 110.171 28.6682 110.171 28.9282C110.171 29.2682 109.961 29.5282 109.541 29.7082C109.121 29.8682 108.451 29.9482 107.531 29.9482H104.291C103.371 29.9482 102.701 29.8682 102.281 29.7082C101.861 29.5282 101.651 29.2682 101.651 28.9282C101.651 28.6682 101.741 28.4582 101.921 28.2982C102.121 28.1182 102.331 27.9382 102.551 27.7582C102.771 27.5582 102.971 27.3182 103.151 27.0382C103.351 26.7582 103.451 26.3682 103.451 25.8682V20.9482C103.451 20.4482 103.351 20.0582 103.151 19.7782C102.971 19.4982 102.771 19.2682 102.551 19.0882C102.331 18.8882 102.121 18.7082 101.921 18.5482C101.741 18.3882 101.651 18.1782 101.651 17.9182C101.651 17.2582 102.421 16.7982 103.961 16.5382L107.201 15.9682C107.981 15.8482 108.371 16.1082 108.371 16.7482V18.4882H108.431C108.951 17.6682 109.611 17.0382 110.411 16.5982C111.231 16.1582 112.121 15.9382 113.081 15.9382C114.561 15.9382 115.711 16.3482 116.531 17.1682C117.371 17.9882 117.791 19.1282 117.791 20.5882ZM136.309 14.8882C136.309 15.4682 136.129 15.9482 135.769 16.3282C135.409 16.7082 134.949 16.8982 134.389 16.8982C134.149 16.8982 133.949 16.8682 133.789 16.8082C133.629 16.7482 133.479 16.6882 133.339 16.6282C133.199 16.5682 133.059 16.5082 132.919 16.4482C132.799 16.3882 132.659 16.3582 132.499 16.3582C132.139 16.3582 131.929 16.5282 131.869 16.8682C131.809 17.1882 131.909 17.5182 132.169 17.8582C132.729 18.4382 133.159 19.1082 133.459 19.8682C133.759 20.6282 133.909 21.4682 133.909 22.3882C133.909 23.3682 133.739 24.2582 133.399 25.0582C133.079 25.8582 132.619 26.5482 132.019 27.1282C131.439 27.6882 130.729 28.1282 129.889 28.4482C129.049 28.7482 128.119 28.8982 127.099 28.8982C125.719 28.8982 124.499 28.6182 123.439 28.0582C122.899 28.4182 122.629 28.8682 122.629 29.4082C122.629 29.8482 122.789 30.1982 123.109 30.4582C123.449 30.7182 123.889 30.8482 124.429 30.8482H128.329C129.389 30.8482 130.349 30.9982 131.209 31.2982C132.089 31.5982 132.839 32.0182 133.459 32.5582C134.079 33.1182 134.559 33.7782 134.899 34.5382C135.239 35.3182 135.409 36.1882 135.409 37.1482C135.409 37.8682 135.319 38.5382 135.139 39.1582C134.959 39.7782 134.709 40.3082 134.389 40.7482C134.069 41.1882 133.689 41.5282 133.249 41.7682C132.809 42.0282 132.319 42.1582 131.779 42.1582C131.139 42.1582 130.619 41.9782 130.219 41.6182C129.819 41.2582 129.619 40.7982 129.619 40.2382C129.619 39.7182 129.729 39.2882 129.949 38.9482C130.169 38.6282 130.449 38.3682 130.789 38.1682C131.129 37.9682 131.489 37.8082 131.869 37.6882C132.269 37.5882 132.639 37.4782 132.979 37.3582C133.319 37.2582 133.599 37.1282 133.819 36.9682C134.039 36.8282 134.149 36.6382 134.149 36.3982C134.149 36.1982 134.059 36.0382 133.879 35.9182C133.699 35.8182 133.469 35.7682 133.189 35.7682H125.719C124.919 35.7682 124.179 35.6582 123.499 35.4382C122.819 35.2382 122.239 34.9482 121.759 34.5682C121.279 34.1882 120.899 33.7282 120.619 33.1882C120.359 32.6482 120.229 32.0582 120.229 31.4182C120.229 30.6182 120.429 29.8782 120.829 29.1982C121.249 28.5182 121.839 27.9582 122.599 27.5182C121.839 26.9382 121.249 26.2182 120.829 25.3582C120.429 24.4782 120.229 23.4882 120.229 22.3882C120.229 21.4282 120.389 20.5582 120.709 19.7782C121.049 18.9782 121.519 18.2982 122.119 17.7382C122.719 17.1582 123.439 16.7182 124.279 16.4182C125.119 16.0982 126.059 15.9382 127.099 15.9382C128.559 15.9382 129.839 16.2582 130.939 16.8982C130.899 16.7582 130.869 16.6182 130.849 16.4782C130.829 16.3182 130.819 16.1582 130.819 15.9982C130.819 15.5382 130.899 15.1082 131.059 14.7082C131.219 14.3082 131.429 13.9682 131.689 13.6882C131.969 13.3882 132.299 13.1582 132.679 12.9982C133.059 12.8182 133.459 12.7282 133.879 12.7282C134.619 12.7282 135.209 12.9282 135.649 13.3282C136.089 13.7282 136.309 14.2482 136.309 14.8882ZM123.739 19.2082C123.739 19.9682 123.929 20.8182 124.309 21.7582C124.689 22.6982 125.159 23.5782 125.719 24.3982C126.279 25.2182 126.879 25.9082 127.519 26.4682C128.159 27.0282 128.729 27.3082 129.229 27.3082C130.029 27.3082 130.429 26.7582 130.429 25.6582C130.429 25.1382 130.339 24.5882 130.159 24.0082C129.979 23.4082 129.739 22.8082 129.439 22.2082C129.159 21.5882 128.829 20.9982 128.449 20.4382C128.069 19.8782 127.679 19.3882 127.279 18.9682C126.879 18.5282 126.469 18.1782 126.049 17.9182C125.649 17.6582 125.279 17.5282 124.939 17.5282C124.559 17.5282 124.259 17.6782 124.039 17.9782C123.839 18.2782 123.739 18.6882 123.739 19.2082ZM142.429 16.7482V24.6682C142.429 25.4282 142.639 26.0482 143.059 26.5282C143.479 27.0082 144.019 27.2482 144.679 27.2482C145.319 27.2482 145.849 27.0082 146.269 26.5282C146.709 26.0482 146.929 25.4282 146.929 24.6682V20.9482C146.929 20.4482 146.829 20.0582 146.629 19.7782C146.449 19.4982 146.249 19.2682 146.029 19.0882C145.809 18.8882 145.599 18.7082 145.399 18.5482C145.219 18.3882 145.129 18.1782 145.129 17.9182C145.129 17.2582 145.899 16.7982 147.439 16.5382L150.679 15.9682C151.459 15.8482 151.849 16.1082 151.849 16.7482V26.5582C151.849 26.9382 151.939 27.1982 152.119 27.3382C152.299 27.4782 152.489 27.5882 152.689 27.6682C152.909 27.7282 153.099 27.7982 153.259 27.8782C153.439 27.9582 153.529 28.1282 153.529 28.3882C153.529 28.9082 153.249 29.3382 152.689 29.6782C152.149 29.9982 151.449 30.1582 150.589 30.1582C149.589 30.1582 148.779 29.9282 148.159 29.4682C147.559 29.0082 147.179 28.3482 147.019 27.4882C146.479 28.3082 145.779 28.9582 144.919 29.4382C144.059 29.9182 143.149 30.1582 142.189 30.1582C140.709 30.1582 139.559 29.7482 138.739 28.9282C137.919 28.1082 137.509 26.9682 137.509 25.5082V20.9482C137.509 20.4482 137.409 20.0582 137.209 19.7782C137.029 19.4982 136.829 19.2682 136.609 19.0882C136.389 18.8882 136.179 18.7082 135.979 18.5482C135.799 18.3882 135.709 18.1782 135.709 17.9182C135.709 17.2582 136.479 16.7982 138.019 16.5382L141.259 15.9682C142.039 15.8482 142.429 16.1082 142.429 16.7482ZM167.067 22.2082V26.5582C167.067 26.9382 167.157 27.1982 167.337 27.3382C167.517 27.4782 167.707 27.5882 167.907 27.6682C168.127 27.7282 168.317 27.7982 168.477 27.8782C168.657 27.9582 168.747 28.1282 168.747 28.3882C168.747 28.8682 168.457 29.2882 167.877 29.6482C167.297 29.9882 166.607 30.1582 165.807 30.1582C164.807 30.1582 164.007 29.9282 163.407 29.4682C162.827 28.9882 162.467 28.2982 162.327 27.3982C161.827 28.2382 161.157 28.9082 160.317 29.4082C159.477 29.9082 158.527 30.1582 157.467 30.1582C156.447 30.1582 155.637 29.8982 155.037 29.3782C154.437 28.8382 154.137 28.1182 154.137 27.2182C154.137 25.6982 154.837 24.4382 156.237 23.4382C157.657 22.4382 159.667 21.7982 162.267 21.5182V19.5982C162.267 17.9582 161.797 17.1382 160.857 17.1382C160.537 17.1382 160.277 17.2382 160.077 17.4382C159.877 17.6182 159.697 17.8582 159.537 18.1582C159.397 18.4582 159.257 18.7882 159.117 19.1482C158.977 19.4882 158.817 19.8082 158.637 20.1082C158.137 20.9282 157.467 21.3382 156.627 21.3382C156.107 21.3382 155.677 21.1682 155.337 20.8282C155.017 20.4682 154.857 20.0182 154.857 19.4782C154.857 18.9582 155.007 18.4882 155.307 18.0682C155.607 17.6282 156.027 17.2582 156.567 16.9582C157.107 16.6382 157.737 16.3882 158.457 16.2082C159.197 16.0282 159.997 15.9382 160.857 15.9382C162.897 15.9382 164.437 16.4682 165.477 17.5282C166.537 18.5882 167.067 20.1482 167.067 22.2082ZM162.267 22.6882C161.227 22.9882 160.397 23.4382 159.777 24.0382C159.157 24.6182 158.847 25.2582 158.847 25.9582C158.847 26.3382 158.957 26.6382 159.177 26.8582C159.417 27.0782 159.727 27.1882 160.107 27.1882C160.727 27.1882 161.237 26.9382 161.637 26.4382C162.057 25.9182 162.267 25.2782 162.267 24.5182V22.6882Z" fill="white"></path><defs><clipPath id="clip0_4058_8347"><rect width="42" height="42" fill="white" transform="translate(0 0.948242)"></rect></clipPath></defs></svg>