<svg xmlns="http://www.w3.org/2000/svg" width="169" height="42" viewBox="0 0 169 42" fill="none"><path d="M13.65 0.629998C13.65 0.282059 13.3678 -0.00151834 13.0202 0.0145346C11.4428 0.0873912 9.88825 0.433515 8.42638 1.03904C6.77028 1.72502 5.26552 2.73047 3.998 3.99799C2.73048 5.26551 1.72503 6.77027 1.03905 8.42636C0.353075 10.0825 7.79144e-06 11.8574 7.62939e-06 13.65C7.46735e-06 15.4425 0.353075 17.2175 1.03905 18.8736C1.72503 20.5297 2.73048 22.0345 3.998 23.302C5.26552 24.5695 6.77028 25.575 8.42637 26.2609C9.88824 26.8665 11.4428 27.2126 13.0202 27.2854C13.3678 27.3015 13.65 27.0179 13.65 26.67L13.65 0.629998Z" fill="#FFDA00"></path><path d="M41.37 13.65C41.7179 13.65 42.0015 13.3678 41.9854 13.0202C41.9126 11.4428 41.5665 9.88824 40.9609 8.42637C40.275 6.77027 39.2695 5.26551 38.002 3.99799C36.7345 2.73047 35.2297 1.72502 33.5736 1.03904C31.9175 0.353068 30.1425 2.91254e-07 28.35 0C26.5574 -2.91254e-07 24.7825 0.353067 23.1264 1.03904C21.4703 1.72502 19.9655 2.73047 18.698 3.99799C17.4305 5.26551 16.425 6.77027 15.739 8.42636C15.1335 9.88824 14.7874 11.4427 14.7145 13.0202C14.6985 13.3678 14.9821 13.65 15.33 13.65L41.37 13.65Z" fill="#FFDA00"></path><path d="M28.35 41.37C28.35 41.7179 28.6322 42.0015 28.9798 41.9854C30.5572 41.9126 32.1117 41.5665 33.5736 40.9609C35.2297 40.275 36.7345 39.2695 38.002 38.002C39.2695 36.7345 40.275 35.2297 40.9609 33.5736C41.6469 31.9175 42 30.1425 42 28.35C42 26.5574 41.6469 24.7824 40.9609 23.1264C40.275 21.4703 39.2695 19.9655 38.002 18.698C36.7345 17.4305 35.2297 16.425 33.5736 15.739C32.1117 15.1335 30.5572 14.7874 28.9798 14.7145C28.6322 14.6985 28.35 14.982 28.35 15.33L28.35 41.37Z" fill="#FFDA00"></path><path d="M0.63001 28.35C0.28207 28.35 -0.00150727 28.6322 0.0145456 28.9798C0.0874019 30.5572 0.433526 32.1117 1.03905 33.5736C1.72503 35.2297 2.73048 36.7345 3.998 38.002C5.26552 39.2695 6.77028 40.2749 8.42637 40.9609C10.0825 41.6469 11.8575 42 13.65 42C15.4425 42 17.2175 41.6469 18.8736 40.9609C20.5297 40.2749 22.0345 39.2695 23.302 38.002C24.5695 36.7345 25.575 35.2297 26.261 33.5736C26.8665 32.1117 27.2126 30.5572 27.2855 28.9798C27.3015 28.6322 27.0179 28.35 26.67 28.35L0.63001 28.35Z" fill="#FFDA00"></path><path d="M52.23 13.37C51.33 13.37 50.6 13.11 50.04 12.59C49.5 12.07 49.23 11.39 49.23 10.55C49.23 9.68999 49.5 8.99999 50.04 8.47999C50.6 7.95999 51.33 7.69999 52.23 7.69999C53.15 7.69999 53.89 7.95999 54.45 8.47999C55.01 8.99999 55.29 9.68999 55.29 10.55C55.29 11.39 55.01 12.07 54.45 12.59C53.89 13.11 53.15 13.37 52.23 13.37ZM55.02 15.8V24.92C55.02 25.42 55.11 25.81 55.29 26.09C55.49 26.37 55.7 26.61 55.92 26.81C56.14 26.99 56.34 27.17 56.52 27.35C56.72 27.51 56.82 27.72 56.82 27.98C56.82 28.32 56.61 28.58 56.19 28.76C55.77 28.92 55.1 29 54.18 29H50.94C50.02 29 49.35 28.92 48.93 28.76C48.51 28.58 48.3 28.32 48.3 27.98C48.3 27.72 48.39 27.51 48.57 27.35C48.77 27.17 48.98 26.99 49.2 26.81C49.42 26.61 49.62 26.37 49.8 26.09C50 25.81 50.1 25.42 50.1 24.92V20C50.1 19.5 50 19.11 49.8 18.83C49.62 18.55 49.42 18.32 49.2 18.14C48.98 17.94 48.77 17.76 48.57 17.6C48.39 17.44 48.3 17.23 48.3 16.97C48.3 16.31 49.07 15.85 50.61 15.59L53.85 15.02C54.63 14.9 55.02 15.16 55.02 15.8Z" fill="#1B3942"></path><path d="M73.2513 19.64V25.61C73.2513 25.99 73.3413 26.25 73.5213 26.39C73.7013 26.53 73.8913 26.64 74.0913 26.72C74.3113 26.78 74.5013 26.85 74.6613 26.93C74.8413 27.01 74.9313 27.18 74.9313 27.44C74.9313 27.92 74.6413 28.34 74.0613 28.7C73.4813 29.04 72.7913 29.21 71.9913 29.21C70.8313 29.21 69.9313 28.9 69.2913 28.28C68.6513 27.66 68.3313 26.78 68.3313 25.64V20.48C68.3313 19.72 68.1213 19.1 67.7013 18.62C67.2813 18.14 66.7413 17.9 66.0813 17.9C65.4413 17.9 64.9013 18.14 64.4613 18.62C64.0413 19.1 63.8313 19.72 63.8313 20.48V24.92C63.8313 25.42 63.9213 25.81 64.1013 26.09C64.3013 26.37 64.5113 26.61 64.7313 26.81C64.9513 26.99 65.1513 27.17 65.3313 27.35C65.5313 27.51 65.6313 27.72 65.6313 27.98C65.6313 28.32 65.4213 28.58 65.0013 28.76C64.5813 28.92 63.9113 29 62.9913 29H59.7513C58.8313 29 58.1613 28.92 57.7413 28.76C57.3213 28.58 57.1113 28.32 57.1113 27.98C57.1113 27.72 57.2013 27.51 57.3813 27.35C57.5813 27.17 57.7913 26.99 58.0113 26.81C58.2313 26.61 58.4313 26.37 58.6113 26.09C58.8113 25.81 58.9113 25.42 58.9113 24.92V20C58.9113 19.5 58.8113 19.11 58.6113 18.83C58.4313 18.55 58.2313 18.32 58.0113 18.14C57.7913 17.94 57.5813 17.76 57.3813 17.6C57.2013 17.44 57.1113 17.23 57.1113 16.97C57.1113 16.31 57.8813 15.85 59.4213 15.59L62.6613 15.02C63.4413 14.9 63.8313 15.16 63.8313 15.8V17.54H63.8913C64.4113 16.72 65.0713 16.09 65.8713 15.65C66.6913 15.21 67.5813 14.99 68.5413 14.99C70.0213 14.99 71.1713 15.4 71.9913 16.22C72.8313 17.04 73.2513 18.18 73.2513 19.64Z" fill="#1B3942"></path><path d="M92.2491 22.28V27.08C92.2491 28.36 91.6091 29 90.3291 29H78.3291C77.4091 29 76.7391 28.92 76.3191 28.76C75.8991 28.58 75.6891 28.32 75.6891 27.98C75.6891 27.72 75.7791 27.51 75.9591 27.35C76.1591 27.17 76.3691 26.99 76.5891 26.81C76.8091 26.61 77.0091 26.37 77.1891 26.09C77.3891 25.81 77.4891 25.42 77.4891 24.92V12.38C77.4891 11.88 77.3891 11.49 77.1891 11.21C77.0091 10.93 76.8091 10.7 76.5891 10.52C76.3691 10.32 76.1591 10.14 75.9591 9.97999C75.7791 9.79999 75.6891 9.57999 75.6891 9.31999C75.6891 8.97999 75.8991 8.72999 76.3191 8.56999C76.7391 8.38999 77.4091 8.29998 78.3291 8.29998H82.0491C82.9691 8.29998 83.6391 8.38999 84.0591 8.56999C84.4791 8.72999 84.6891 8.97999 84.6891 9.31999C84.6891 9.57999 84.5891 9.79999 84.3891 9.97999C84.2091 10.14 84.0091 10.32 83.7891 10.52C83.5691 10.7 83.3591 10.93 83.1591 11.21C82.9791 11.49 82.8891 11.88 82.8891 12.38V26.72C82.8891 27.04 83.0591 27.2 83.3991 27.2H83.6391C84.5791 27.2 85.3991 27.11 86.0991 26.93C86.8191 26.75 87.4491 26.46 87.9891 26.06C88.5491 25.66 89.0491 25.14 89.4891 24.5C89.9291 23.84 90.3291 23.04 90.6891 22.1C90.7891 21.82 90.8991 21.63 91.0191 21.53C91.1591 21.43 91.3291 21.38 91.5291 21.38C92.0091 21.38 92.2491 21.68 92.2491 22.28Z" fill="#1B3942"></path><path d="M96.7694 13.37C95.8694 13.37 95.1395 13.11 94.5795 12.59C94.0395 12.07 93.7694 11.39 93.7694 10.55C93.7694 9.68999 94.0395 8.99999 94.5795 8.47999C95.1395 7.95999 95.8694 7.69999 96.7694 7.69999C97.6894 7.69999 98.4294 7.95999 98.9894 8.47999C99.5494 8.99999 99.8295 9.68999 99.8295 10.55C99.8295 11.39 99.5494 12.07 98.9894 12.59C98.4294 13.11 97.6894 13.37 96.7694 13.37ZM99.5594 15.8V24.92C99.5594 25.42 99.6495 25.81 99.8295 26.09C100.029 26.37 100.239 26.61 100.459 26.81C100.679 26.99 100.879 27.17 101.059 27.35C101.259 27.51 101.359 27.72 101.359 27.98C101.359 28.32 101.149 28.58 100.729 28.76C100.309 28.92 99.6395 29 98.7195 29H95.4795C94.5595 29 93.8895 28.92 93.4695 28.76C93.0495 28.58 92.8394 28.32 92.8394 27.98C92.8394 27.72 92.9295 27.51 93.1095 27.35C93.3095 27.17 93.5194 26.99 93.7394 26.81C93.9594 26.61 94.1594 26.37 94.3394 26.09C94.5394 25.81 94.6395 25.42 94.6395 24.92V20C94.6395 19.5 94.5394 19.11 94.3394 18.83C94.1594 18.55 93.9594 18.32 93.7394 18.14C93.5194 17.94 93.3095 17.76 93.1095 17.6C92.9295 17.44 92.8394 17.23 92.8394 16.97C92.8394 16.31 93.6095 15.85 95.1495 15.59L98.3895 15.02C99.1695 14.9 99.5594 15.16 99.5594 15.8Z" fill="#1B3942"></path><path d="M117.791 19.64V25.61C117.791 25.99 117.881 26.25 118.061 26.39C118.241 26.53 118.431 26.64 118.631 26.72C118.851 26.78 119.041 26.85 119.201 26.93C119.381 27.01 119.471 27.18 119.471 27.44C119.471 27.92 119.181 28.34 118.601 28.7C118.021 29.04 117.331 29.21 116.531 29.21C115.371 29.21 114.471 28.9 113.831 28.28C113.191 27.66 112.871 26.78 112.871 25.64V20.48C112.871 19.72 112.661 19.1 112.241 18.62C111.821 18.14 111.281 17.9 110.621 17.9C109.981 17.9 109.441 18.14 109.001 18.62C108.581 19.1 108.371 19.72 108.371 20.48V24.92C108.371 25.42 108.461 25.81 108.641 26.09C108.841 26.37 109.051 26.61 109.271 26.81C109.491 26.99 109.691 27.17 109.871 27.35C110.071 27.51 110.171 27.72 110.171 27.98C110.171 28.32 109.961 28.58 109.541 28.76C109.121 28.92 108.451 29 107.531 29H104.291C103.371 29 102.701 28.92 102.281 28.76C101.861 28.58 101.651 28.32 101.651 27.98C101.651 27.72 101.741 27.51 101.921 27.35C102.121 27.17 102.331 26.99 102.551 26.81C102.771 26.61 102.971 26.37 103.151 26.09C103.351 25.81 103.451 25.42 103.451 24.92V20C103.451 19.5 103.351 19.11 103.151 18.83C102.971 18.55 102.771 18.32 102.551 18.14C102.331 17.94 102.121 17.76 101.921 17.6C101.741 17.44 101.651 17.23 101.651 16.97C101.651 16.31 102.421 15.85 103.961 15.59L107.201 15.02C107.981 14.9 108.371 15.16 108.371 15.8V17.54H108.431C108.951 16.72 109.611 16.09 110.411 15.65C111.231 15.21 112.121 14.99 113.081 14.99C114.561 14.99 115.711 15.4 116.531 16.22C117.371 17.04 117.791 18.18 117.791 19.64Z" fill="#1B3942"></path><path d="M136.309 13.94C136.309 14.52 136.129 15 135.769 15.38C135.409 15.76 134.949 15.95 134.389 15.95C134.149 15.95 133.949 15.92 133.789 15.86C133.629 15.8 133.479 15.74 133.339 15.68C133.199 15.62 133.059 15.56 132.919 15.5C132.799 15.44 132.659 15.41 132.499 15.41C132.139 15.41 131.929 15.58 131.869 15.92C131.809 16.24 131.909 16.57 132.169 16.91C132.729 17.49 133.159 18.16 133.459 18.92C133.759 19.68 133.909 20.52 133.909 21.44C133.909 22.42 133.739 23.31 133.399 24.11C133.079 24.91 132.619 25.6 132.019 26.18C131.439 26.74 130.729 27.18 129.889 27.5C129.049 27.8 128.119 27.95 127.099 27.95C125.719 27.95 124.499 27.67 123.439 27.11C122.899 27.47 122.629 27.92 122.629 28.46C122.629 28.9 122.789 29.25 123.109 29.51C123.449 29.77 123.889 29.9 124.429 29.9H128.329C129.389 29.9 130.349 30.05 131.209 30.35C132.089 30.65 132.839 31.07 133.459 31.61C134.079 32.17 134.559 32.83 134.899 33.59C135.239 34.37 135.409 35.24 135.409 36.2C135.409 36.92 135.319 37.59 135.139 38.21C134.959 38.83 134.709 39.36 134.389 39.8C134.069 40.24 133.689 40.58 133.249 40.82C132.809 41.08 132.319 41.21 131.779 41.21C131.139 41.21 130.619 41.03 130.219 40.67C129.819 40.31 129.619 39.85 129.619 39.29C129.619 38.77 129.729 38.34 129.949 38C130.169 37.68 130.449 37.42 130.789 37.22C131.129 37.02 131.489 36.86 131.869 36.74C132.269 36.64 132.639 36.53 132.979 36.41C133.319 36.31 133.599 36.18 133.819 36.02C134.039 35.88 134.149 35.69 134.149 35.45C134.149 35.25 134.059 35.09 133.879 34.97C133.699 34.87 133.469 34.82 133.189 34.82H125.719C124.919 34.82 124.179 34.71 123.499 34.49C122.819 34.29 122.239 34 121.759 33.62C121.279 33.24 120.899 32.78 120.619 32.24C120.359 31.7 120.229 31.11 120.229 30.47C120.229 29.67 120.429 28.93 120.829 28.25C121.249 27.57 121.839 27.01 122.599 26.57C121.839 25.99 121.249 25.27 120.829 24.41C120.429 23.53 120.229 22.54 120.229 21.44C120.229 20.48 120.389 19.61 120.709 18.83C121.049 18.03 121.519 17.35 122.119 16.79C122.719 16.21 123.439 15.77 124.279 15.47C125.119 15.15 126.059 14.99 127.099 14.99C128.559 14.99 129.839 15.31 130.939 15.95C130.899 15.81 130.869 15.67 130.849 15.53C130.829 15.37 130.819 15.21 130.819 15.05C130.819 14.59 130.899 14.16 131.059 13.76C131.219 13.36 131.429 13.02 131.689 12.74C131.969 12.44 132.299 12.21 132.679 12.05C133.059 11.87 133.459 11.78 133.879 11.78C134.619 11.78 135.209 11.98 135.649 12.38C136.089 12.78 136.309 13.3 136.309 13.94ZM123.739 18.26C123.739 19.02 123.929 19.87 124.309 20.81C124.689 21.75 125.159 22.63 125.719 23.45C126.279 24.27 126.879 24.96 127.519 25.52C128.159 26.08 128.729 26.36 129.229 26.36C130.029 26.36 130.429 25.81 130.429 24.71C130.429 24.19 130.339 23.64 130.159 23.06C129.979 22.46 129.739 21.86 129.439 21.26C129.159 20.64 128.829 20.05 128.449 19.49C128.069 18.93 127.679 18.44 127.279 18.02C126.879 17.58 126.469 17.23 126.049 16.97C125.649 16.71 125.279 16.58 124.939 16.58C124.559 16.58 124.259 16.73 124.039 17.03C123.839 17.33 123.739 17.74 123.739 18.26Z" fill="#1B3942"></path><path d="M142.429 15.8V23.72C142.429 24.48 142.639 25.1 143.059 25.58C143.479 26.06 144.019 26.3 144.679 26.3C145.319 26.3 145.849 26.06 146.269 25.58C146.709 25.1 146.929 24.48 146.929 23.72V20C146.929 19.5 146.829 19.11 146.629 18.83C146.449 18.55 146.249 18.32 146.029 18.14C145.809 17.94 145.599 17.76 145.399 17.6C145.219 17.44 145.129 17.23 145.129 16.97C145.129 16.31 145.899 15.85 147.439 15.59L150.679 15.02C151.459 14.9 151.849 15.16 151.849 15.8V25.61C151.849 25.99 151.939 26.25 152.119 26.39C152.299 26.53 152.489 26.64 152.689 26.72C152.909 26.78 153.099 26.85 153.259 26.93C153.439 27.01 153.529 27.18 153.529 27.44C153.529 27.96 153.249 28.39 152.689 28.73C152.149 29.05 151.449 29.21 150.589 29.21C149.589 29.21 148.779 28.98 148.159 28.52C147.559 28.06 147.179 27.4 147.019 26.54C146.479 27.36 145.779 28.01 144.919 28.49C144.059 28.97 143.149 29.21 142.189 29.21C140.709 29.21 139.559 28.8 138.739 27.98C137.919 27.16 137.509 26.02 137.509 24.56V20C137.509 19.5 137.409 19.11 137.209 18.83C137.029 18.55 136.829 18.32 136.609 18.14C136.389 17.94 136.179 17.76 135.979 17.6C135.799 17.44 135.709 17.23 135.709 16.97C135.709 16.31 136.479 15.85 138.019 15.59L141.259 15.02C142.039 14.9 142.429 15.16 142.429 15.8Z" fill="#1B3942"></path><path d="M167.067 21.26V25.61C167.067 25.99 167.157 26.25 167.337 26.39C167.517 26.53 167.707 26.64 167.907 26.72C168.127 26.78 168.317 26.85 168.477 26.93C168.657 27.01 168.747 27.18 168.747 27.44C168.747 27.92 168.457 28.34 167.877 28.7C167.297 29.04 166.607 29.21 165.807 29.21C164.807 29.21 164.007 28.98 163.407 28.52C162.827 28.04 162.467 27.35 162.327 26.45C161.827 27.29 161.157 27.96 160.317 28.46C159.477 28.96 158.527 29.21 157.467 29.21C156.447 29.21 155.637 28.95 155.037 28.43C154.437 27.89 154.137 27.17 154.137 26.27C154.137 24.75 154.837 23.49 156.237 22.49C157.657 21.49 159.667 20.85 162.267 20.57V18.65C162.267 17.01 161.797 16.19 160.857 16.19C160.537 16.19 160.277 16.29 160.077 16.49C159.877 16.67 159.697 16.91 159.537 17.21C159.397 17.51 159.257 17.84 159.117 18.2C158.977 18.54 158.817 18.86 158.637 19.16C158.137 19.98 157.467 20.39 156.627 20.39C156.107 20.39 155.677 20.22 155.337 19.88C155.017 19.52 154.857 19.07 154.857 18.53C154.857 18.01 155.007 17.54 155.307 17.12C155.607 16.68 156.027 16.31 156.567 16.01C157.107 15.69 157.737 15.44 158.457 15.26C159.197 15.08 159.997 14.99 160.857 14.99C162.897 14.99 164.437 15.52 165.477 16.58C166.537 17.64 167.067 19.2 167.067 21.26ZM162.267 21.74C161.227 22.04 160.397 22.49 159.777 23.09C159.157 23.67 158.847 24.31 158.847 25.01C158.847 25.39 158.957 25.69 159.177 25.91C159.417 26.13 159.727 26.24 160.107 26.24C160.727 26.24 161.237 25.99 161.637 25.49C162.057 24.97 162.267 24.33 162.267 23.57V21.74Z" fill="#1B3942"></path></svg>