<svg width="172" height="172" viewBox="0 0 172 172" fill="none" xmlns="http://www.w3.org/2000/svg">
<rect x="87.0288" y="0.4375" width="1.13004" height="1.13004" transform="rotate(47.9565 87.0288 0.4375)" fill="#0D6EFD"/>
<rect x="79.8955" y="6.86914" width="1.13004" height="1.13004" transform="rotate(47.9565 79.8955 6.86914)" fill="#0D6EFD"/>
<rect x="72.7622" y="13.3027" width="1.13004" height="1.13004" transform="rotate(47.9565 72.7622 13.3027)" fill="#0D6EFD"/>
<rect x="65.6289" y="19.7363" width="1.13004" height="1.13004" transform="rotate(47.9565 65.6289 19.7363)" fill="#0D6EFD"/>
<rect x="58.4956" y="26.168" width="1.13004" height="1.13004" transform="rotate(47.9565 58.4956 26.168)" fill="#0D6EFD"/>
<rect x="51.3623" y="32.6016" width="1.13004" height="1.13004" transform="rotate(47.9565 51.3623 32.6016)" fill="#0D6EFD"/>
<rect x="44.229" y="39.0332" width="1.13004" height="1.13004" transform="rotate(47.9565 44.229 39.0332)" fill="#0D6EFD"/>
<rect x="37.0957" y="45.4668" width="1.13004" height="1.13004" transform="rotate(47.9565 37.0957 45.4668)" fill="#0D6EFD"/>
<rect x="29.9624" y="51.8984" width="1.13004" height="1.13004" transform="rotate(47.9565 29.9624 51.8984)" fill="#0D6EFD"/>
<rect x="22.8291" y="58.332" width="1.13004" height="1.13004" transform="rotate(47.9565 22.8291 58.332)" fill="#0D6EFD"/>
<rect x="15.6958" y="64.7637" width="1.13004" height="1.13004" transform="rotate(47.9565 15.6958 64.7637)" fill="#0D6EFD"/>
<rect x="8.5625" y="71.1973" width="1.13004" height="1.13004" transform="rotate(47.9565 8.5625 71.1973)" fill="#0D6EFD"/>
<rect x="1.4292" y="77.6289" width="1.13004" height="1.13004" transform="rotate(47.9565 1.4292 77.6289)" fill="#0D6EFD"/>
<rect x="93.4614" y="7.57031" width="1.13004" height="1.13004" transform="rotate(47.9565 93.4614 7.57031)" fill="#0D6EFD"/>
<rect x="86.3281" y="14.0039" width="1.13004" height="1.13004" transform="rotate(47.9565 86.3281 14.0039)" fill="#0D6EFD"/>
<rect x="79.1948" y="20.4355" width="1.13004" height="1.13004" transform="rotate(47.9565 79.1948 20.4355)" fill="#0D6EFD"/>
<rect x="72.0615" y="26.8691" width="1.13004" height="1.13004" transform="rotate(47.9565 72.0615 26.8691)" fill="#0D6EFD"/>
<rect x="64.9282" y="33.3008" width="1.13004" height="1.13004" transform="rotate(47.9565 64.9282 33.3008)" fill="#0D6EFD"/>
<rect x="57.7949" y="39.7344" width="1.13004" height="1.13004" transform="rotate(47.9565 57.7949 39.7344)" fill="#0D6EFD"/>
<rect x="50.6616" y="46.166" width="1.13004" height="1.13004" transform="rotate(47.9565 50.6616 46.166)" fill="#0D6EFD"/>
<rect x="43.5283" y="52.5996" width="1.13004" height="1.13004" transform="rotate(47.9565 43.5283 52.5996)" fill="#0D6EFD"/>
<rect x="36.395" y="59.0312" width="1.13004" height="1.13004" transform="rotate(47.9565 36.395 59.0312)" fill="#0D6EFD"/>
<rect x="29.2617" y="65.4648" width="1.13004" height="1.13004" transform="rotate(47.9565 29.2617 65.4648)" fill="#0D6EFD"/>
<rect x="22.1284" y="71.8984" width="1.13004" height="1.13004" transform="rotate(47.9565 22.1284 71.8984)" fill="#0D6EFD"/>
<rect x="14.9951" y="78.3301" width="1.13004" height="1.13004" transform="rotate(47.9565 14.9951 78.3301)" fill="#0D6EFD"/>
<rect x="7.86182" y="84.7637" width="1.13004" height="1.13004" transform="rotate(47.9565 7.86182 84.7637)" fill="#0D6EFD"/>
<rect x="99.894" y="14.7031" width="1.13004" height="1.13004" transform="rotate(47.9565 99.894 14.7031)" fill="#0D6EFD"/>
<rect x="92.7607" y="21.1367" width="1.13004" height="1.13004" transform="rotate(47.9565 92.7607 21.1367)" fill="#0D6EFD"/>
<rect x="85.6274" y="27.5703" width="1.13004" height="1.13004" transform="rotate(47.9565 85.6274 27.5703)" fill="#0D6EFD"/>
<rect x="78.4941" y="34.002" width="1.13004" height="1.13004" transform="rotate(47.9565 78.4941 34.002)" fill="#0D6EFD"/>
<rect x="71.3608" y="40.4355" width="1.13004" height="1.13004" transform="rotate(47.9565 71.3608 40.4355)" fill="#0D6EFD"/>
<rect x="64.2275" y="46.8672" width="1.13004" height="1.13004" transform="rotate(47.9565 64.2275 46.8672)" fill="#0D6EFD"/>
<rect x="57.0942" y="53.3008" width="1.13004" height="1.13004" transform="rotate(47.9565 57.0942 53.3008)" fill="#0D6EFD"/>
<rect x="49.9609" y="59.7324" width="1.13004" height="1.13004" transform="rotate(47.9565 49.9609 59.7324)" fill="#0D6EFD"/>
<rect x="42.8276" y="66.166" width="1.13004" height="1.13004" transform="rotate(47.9565 42.8276 66.166)" fill="#0D6EFD"/>
<rect x="35.6943" y="72.5977" width="1.13004" height="1.13004" transform="rotate(47.9565 35.6943 72.5977)" fill="#0D6EFD"/>
<rect x="28.561" y="79.0312" width="1.13004" height="1.13004" transform="rotate(47.9565 28.561 79.0312)" fill="#0D6EFD"/>
<rect x="21.4277" y="85.4629" width="1.13004" height="1.13004" transform="rotate(47.9565 21.4277 85.4629)" fill="#0D6EFD"/>
<rect x="14.2944" y="91.8965" width="1.13004" height="1.13004" transform="rotate(47.9565 14.2944 91.8965)" fill="#0D6EFD"/>
<rect x="106.327" y="21.8379" width="1.13004" height="1.13004" transform="rotate(47.9565 106.327 21.8379)" fill="#0D6EFD"/>
<rect x="99.1934" y="28.2695" width="1.13004" height="1.13004" transform="rotate(47.9565 99.1934 28.2695)" fill="#0D6EFD"/>
<rect x="92.0601" y="34.7031" width="1.13004" height="1.13004" transform="rotate(47.9565 92.0601 34.7031)" fill="#0D6EFD"/>
<rect x="84.9268" y="41.1348" width="1.13004" height="1.13004" transform="rotate(47.9565 84.9268 41.1348)" fill="#0D6EFD"/>
<rect x="77.7935" y="47.5684" width="1.13004" height="1.13004" transform="rotate(47.9565 77.7935 47.5684)" fill="#0D6EFD"/>
<rect x="70.6602" y="54" width="1.13004" height="1.13004" transform="rotate(47.9565 70.6602 54)" fill="#0D6EFD"/>
<rect x="63.5269" y="60.4336" width="1.13004" height="1.13004" transform="rotate(47.9565 63.5269 60.4336)" fill="#0D6EFD"/>
<rect x="56.3936" y="66.8652" width="1.13004" height="1.13004" transform="rotate(47.9565 56.3936 66.8652)" fill="#0D6EFD"/>
<rect x="49.2603" y="73.2988" width="1.13004" height="1.13004" transform="rotate(47.9565 49.2603 73.2988)" fill="#0D6EFD"/>
<rect x="42.127" y="79.7305" width="1.13004" height="1.13004" transform="rotate(47.9565 42.127 79.7305)" fill="#0D6EFD"/>
<rect x="34.9937" y="86.1641" width="1.13004" height="1.13004" transform="rotate(47.9565 34.9937 86.1641)" fill="#0D6EFD"/>
<rect x="27.8604" y="92.5977" width="1.13004" height="1.13004" transform="rotate(47.9565 27.8604 92.5977)" fill="#0D6EFD"/>
<rect x="20.7271" y="99.0293" width="1.13004" height="1.13004" transform="rotate(47.9565 20.7271 99.0293)" fill="#0D6EFD"/>
<rect x="112.76" y="28.9707" width="1.13004" height="1.13004" transform="rotate(47.9565 112.76 28.9707)" fill="#0D6EFD"/>
<rect x="105.626" y="35.4043" width="1.13004" height="1.13004" transform="rotate(47.9565 105.626 35.4043)" fill="#0D6EFD"/>
<rect x="98.4932" y="41.8359" width="1.13004" height="1.13004" transform="rotate(47.9565 98.4932 41.8359)" fill="#0D6EFD"/>
<rect x="91.3599" y="48.2695" width="1.13004" height="1.13004" transform="rotate(47.9565 91.3599 48.2695)" fill="#0D6EFD"/>
<rect x="84.2266" y="54.7012" width="1.13004" height="1.13004" transform="rotate(47.9565 84.2266 54.7012)" fill="#0D6EFD"/>
<rect x="77.0928" y="61.1348" width="1.13004" height="1.13004" transform="rotate(47.9565 77.0928 61.1348)" fill="#0D6EFD"/>
<rect x="69.9595" y="67.5664" width="1.13004" height="1.13004" transform="rotate(47.9565 69.9595 67.5664)" fill="#0D6EFD"/>
<rect x="62.8262" y="74" width="1.13004" height="1.13004" transform="rotate(47.9565 62.8262 74)" fill="#0D6EFD"/>
<rect x="55.6929" y="80.4316" width="1.13004" height="1.13004" transform="rotate(47.9565 55.6929 80.4316)" fill="#0D6EFD"/>
<rect x="48.5596" y="86.8652" width="1.13004" height="1.13004" transform="rotate(47.9565 48.5596 86.8652)" fill="#0D6EFD"/>
<rect x="41.4263" y="93.2969" width="1.13004" height="1.13004" transform="rotate(47.9565 41.4263 93.2969)" fill="#0D6EFD"/>
<rect x="34.293" y="99.7305" width="1.13004" height="1.13004" transform="rotate(47.9565 34.293 99.7305)" fill="#0D6EFD"/>
<rect x="27.1597" y="106.162" width="1.13004" height="1.13004" transform="rotate(47.9565 27.1597 106.162)" fill="#0D6EFD"/>
<rect x="119.192" y="36.1035" width="1.13004" height="1.13004" transform="rotate(47.9565 119.192 36.1035)" fill="#0D6EFD"/>
<rect x="112.059" y="42.5371" width="1.13004" height="1.13004" transform="rotate(47.9565 112.059 42.5371)" fill="#0D6EFD"/>
<rect x="104.926" y="48.9688" width="1.13004" height="1.13004" transform="rotate(47.9565 104.926 48.9688)" fill="#0D6EFD"/>
<rect x="97.7925" y="55.4023" width="1.13004" height="1.13004" transform="rotate(47.9565 97.7925 55.4023)" fill="#0D6EFD"/>
<rect x="90.6592" y="61.834" width="1.13004" height="1.13004" transform="rotate(47.9565 90.6592 61.834)" fill="#0D6EFD"/>
<rect x="83.5259" y="68.2676" width="1.13004" height="1.13004" transform="rotate(47.9565 83.5259 68.2676)" fill="#0D6EFD"/>
<rect x="76.3926" y="74.6992" width="1.13004" height="1.13004" transform="rotate(47.9565 76.3926 74.6992)" fill="#0D6EFD"/>
<rect x="69.2593" y="81.1328" width="1.13004" height="1.13004" transform="rotate(47.9565 69.2593 81.1328)" fill="#0D6EFD"/>
<rect x="62.126" y="87.5645" width="1.13004" height="1.13004" transform="rotate(47.9565 62.126 87.5645)" fill="#0D6EFD"/>
<rect x="54.9927" y="93.998" width="1.13004" height="1.13004" transform="rotate(47.9565 54.9927 93.998)" fill="#0D6EFD"/>
<rect x="47.8594" y="100.432" width="1.13004" height="1.13004" transform="rotate(47.9565 47.8594 100.432)" fill="#0D6EFD"/>
<rect x="40.7261" y="106.863" width="1.13004" height="1.13004" transform="rotate(47.9565 40.7261 106.863)" fill="#0D6EFD"/>
<rect x="33.5923" y="113.297" width="1.13004" height="1.13004" transform="rotate(47.9565 33.5923 113.297)" fill="#0D6EFD"/>
<rect x="125.625" y="43.2363" width="1.13004" height="1.13004" transform="rotate(47.9565 125.625 43.2363)" fill="#0D6EFD"/>
<rect x="118.492" y="49.6699" width="1.13004" height="1.13004" transform="rotate(47.9565 118.492 49.6699)" fill="#0D6EFD"/>
<rect x="111.358" y="56.1035" width="1.13004" height="1.13004" transform="rotate(47.9565 111.358 56.1035)" fill="#0D6EFD"/>
<rect x="104.225" y="62.5352" width="1.13004" height="1.13004" transform="rotate(47.9565 104.225 62.5352)" fill="#0D6EFD"/>
<rect x="97.0918" y="68.9688" width="1.13004" height="1.13004" transform="rotate(47.9565 97.0918 68.9688)" fill="#0D6EFD"/>
<rect x="89.9585" y="75.4004" width="1.13004" height="1.13004" transform="rotate(47.9565 89.9585 75.4004)" fill="#0D6EFD"/>
<rect x="82.8252" y="81.834" width="1.13004" height="1.13004" transform="rotate(47.9565 82.8252 81.834)" fill="#0D6EFD"/>
<rect x="75.6919" y="88.2656" width="1.13004" height="1.13004" transform="rotate(47.9565 75.6919 88.2656)" fill="#0D6EFD"/>
<rect x="68.5586" y="94.6992" width="1.13004" height="1.13004" transform="rotate(47.9565 68.5586 94.6992)" fill="#0D6EFD"/>
<rect x="61.4253" y="101.131" width="1.13004" height="1.13004" transform="rotate(47.9565 61.4253 101.131)" fill="#0D6EFD"/>
<rect x="54.292" y="107.564" width="1.13004" height="1.13004" transform="rotate(47.9565 54.292 107.564)" fill="#0D6EFD"/>
<rect x="47.1587" y="113.996" width="1.13004" height="1.13004" transform="rotate(47.9565 47.1587 113.996)" fill="#0D6EFD"/>
<rect x="40.0254" y="120.43" width="1.13004" height="1.13004" transform="rotate(47.9565 40.0254 120.43)" fill="#0D6EFD"/>
<rect x="132.058" y="50.3711" width="1.13004" height="1.13004" transform="rotate(47.9565 132.058 50.3711)" fill="#0D6EFD"/>
<rect x="124.924" y="56.8027" width="1.13004" height="1.13004" transform="rotate(47.9565 124.924 56.8027)" fill="#0D6EFD"/>
<rect x="117.791" y="63.2363" width="1.13004" height="1.13004" transform="rotate(47.9565 117.791 63.2363)" fill="#0D6EFD"/>
<rect x="110.658" y="69.668" width="1.13004" height="1.13004" transform="rotate(47.9565 110.658 69.668)" fill="#0D6EFD"/>
<rect x="103.524" y="76.1016" width="1.13004" height="1.13004" transform="rotate(47.9565 103.524 76.1016)" fill="#0D6EFD"/>
<rect x="96.3911" y="82.5332" width="1.13004" height="1.13004" transform="rotate(47.9565 96.3911 82.5332)" fill="#0D6EFD"/>
<rect x="89.2578" y="88.9668" width="1.13004" height="1.13004" transform="rotate(47.9565 89.2578 88.9668)" fill="#0D6EFD"/>
<rect x="82.1245" y="95.3984" width="1.13004" height="1.13004" transform="rotate(47.9565 82.1245 95.3984)" fill="#0D6EFD"/>
<rect x="74.9912" y="101.832" width="1.13004" height="1.13004" transform="rotate(47.9565 74.9912 101.832)" fill="#0D6EFD"/>
<rect x="67.8579" y="108.264" width="1.13004" height="1.13004" transform="rotate(47.9565 67.8579 108.264)" fill="#0D6EFD"/>
<rect x="60.7246" y="114.697" width="1.13004" height="1.13004" transform="rotate(47.9565 60.7246 114.697)" fill="#0D6EFD"/>
<rect x="53.5913" y="121.131" width="1.13004" height="1.13004" transform="rotate(47.9565 53.5913 121.131)" fill="#0D6EFD"/>
<rect x="46.458" y="127.562" width="1.13004" height="1.13004" transform="rotate(47.9565 46.458 127.562)" fill="#0D6EFD"/>
<rect x="138.49" y="57.5039" width="1.13004" height="1.13004" transform="rotate(47.9565 138.49 57.5039)" fill="#0D6EFD"/>
<rect x="131.357" y="63.9375" width="1.13004" height="1.13004" transform="rotate(47.9565 131.357 63.9375)" fill="#0D6EFD"/>
<rect x="124.224" y="70.3691" width="1.13004" height="1.13004" transform="rotate(47.9565 124.224 70.3691)" fill="#0D6EFD"/>
<rect x="117.09" y="76.8027" width="1.13004" height="1.13004" transform="rotate(47.9565 117.09 76.8027)" fill="#0D6EFD"/>
<rect x="109.957" y="83.2344" width="1.13004" height="1.13004" transform="rotate(47.9565 109.957 83.2344)" fill="#0D6EFD"/>
<rect x="102.824" y="89.668" width="1.13004" height="1.13004" transform="rotate(47.9565 102.824 89.668)" fill="#0D6EFD"/>
<rect x="95.6904" y="96.0996" width="1.13004" height="1.13004" transform="rotate(47.9565 95.6904 96.0996)" fill="#0D6EFD"/>
<rect x="88.5571" y="102.533" width="1.13004" height="1.13004" transform="rotate(47.9565 88.5571 102.533)" fill="#0D6EFD"/>
<rect x="81.4238" y="108.965" width="1.13004" height="1.13004" transform="rotate(47.9565 81.4238 108.965)" fill="#0D6EFD"/>
<rect x="74.2905" y="115.398" width="1.13004" height="1.13004" transform="rotate(47.9565 74.2905 115.398)" fill="#0D6EFD"/>
<rect x="67.1572" y="121.83" width="1.13004" height="1.13004" transform="rotate(47.9565 67.1572 121.83)" fill="#0D6EFD"/>
<rect x="60.0239" y="128.264" width="1.13004" height="1.13004" transform="rotate(47.9565 60.0239 128.264)" fill="#0D6EFD"/>
<rect x="52.8906" y="134.695" width="1.13004" height="1.13004" transform="rotate(47.9565 52.8906 134.695)" fill="#0D6EFD"/>
<rect x="144.923" y="64.6367" width="1.13004" height="1.13004" transform="rotate(47.9565 144.923 64.6367)" fill="#0D6EFD"/>
<rect x="137.79" y="71.0703" width="1.13004" height="1.13004" transform="rotate(47.9565 137.79 71.0703)" fill="#0D6EFD"/>
<rect x="130.656" y="77.502" width="1.13004" height="1.13004" transform="rotate(47.9565 130.656 77.502)" fill="#0D6EFD"/>
<rect x="123.523" y="83.9355" width="1.13004" height="1.13004" transform="rotate(47.9565 123.523 83.9355)" fill="#0D6EFD"/>
<rect x="109.256" y="96.8008" width="1.13004" height="1.13004" transform="rotate(47.9565 109.256 96.8008)" fill="#0D6EFD"/>
<rect x="102.123" y="103.232" width="1.13004" height="1.13004" transform="rotate(47.9565 102.123 103.232)" fill="#0D6EFD"/>
<rect x="94.9897" y="109.666" width="1.13004" height="1.13004" transform="rotate(47.9565 94.9897 109.666)" fill="#0D6EFD"/>
<rect x="87.8564" y="116.098" width="1.13004" height="1.13004" transform="rotate(47.9565 87.8564 116.098)" fill="#0D6EFD"/>
<rect x="80.7231" y="122.531" width="1.13004" height="1.13004" transform="rotate(47.9565 80.7231 122.531)" fill="#0D6EFD"/>
<rect x="73.5898" y="128.965" width="1.13004" height="1.13004" transform="rotate(47.9565 73.5898 128.965)" fill="#0D6EFD"/>
<rect x="66.4565" y="135.396" width="1.13004" height="1.13004" transform="rotate(47.9565 66.4565 135.396)" fill="#0D6EFD"/>
<rect x="59.3232" y="141.83" width="1.13004" height="1.13004" transform="rotate(47.9565 59.3232 141.83)" fill="#0D6EFD"/>
<rect x="151.355" y="71.7715" width="1.13004" height="1.13004" transform="rotate(47.9565 151.355 71.7715)" fill="#0D6EFD"/>
<rect x="144.222" y="78.2031" width="1.13004" height="1.13004" transform="rotate(47.9565 144.222 78.2031)" fill="#0D6EFD"/>
<rect x="137.089" y="84.6367" width="1.13004" height="1.13004" transform="rotate(47.9565 137.089 84.6367)" fill="#0D6EFD"/>
<rect x="129.956" y="91.0684" width="1.13004" height="1.13004" transform="rotate(47.9565 129.956 91.0684)" fill="#0D6EFD"/>
<rect x="122.822" y="97.502" width="1.13004" height="1.13004" transform="rotate(47.9565 122.822 97.502)" fill="#0D6EFD"/>
<rect x="115.689" y="103.934" width="1.13004" height="1.13004" transform="rotate(47.9565 115.689 103.934)" fill="#0D6EFD"/>
<rect x="108.556" y="110.367" width="1.13004" height="1.13004" transform="rotate(47.9565 108.556 110.367)" fill="#0D6EFD"/>
<rect x="101.422" y="116.799" width="1.13004" height="1.13004" transform="rotate(47.9565 101.422 116.799)" fill="#0D6EFD"/>
<rect x="94.2891" y="123.232" width="1.13004" height="1.13004" transform="rotate(47.9565 94.2891 123.232)" fill="#0D6EFD"/>
<rect x="87.1558" y="129.664" width="1.13004" height="1.13004" transform="rotate(47.9565 87.1558 129.664)" fill="#0D6EFD"/>
<rect x="80.0225" y="136.098" width="1.13004" height="1.13004" transform="rotate(47.9565 80.0225 136.098)" fill="#0D6EFD"/>
<rect x="72.8892" y="142.529" width="1.13004" height="1.13004" transform="rotate(47.9565 72.8892 142.529)" fill="#0D6EFD"/>
<rect x="65.7559" y="148.963" width="1.13004" height="1.13004" transform="rotate(47.9565 65.7559 148.963)" fill="#0D6EFD"/>
<rect x="157.788" y="78.9043" width="1.13004" height="1.13004" transform="rotate(47.9565 157.788 78.9043)" fill="#0D6EFD"/>
<rect x="150.655" y="85.3359" width="1.13004" height="1.13004" transform="rotate(47.9565 150.655 85.3359)" fill="#0D6EFD"/>
<rect x="143.521" y="91.7695" width="1.13004" height="1.13004" transform="rotate(47.9565 143.521 91.7695)" fill="#0D6EFD"/>
<rect x="136.388" y="98.2012" width="1.13004" height="1.13004" transform="rotate(47.9565 136.388 98.2012)" fill="#0D6EFD"/>
<rect x="129.255" y="104.635" width="1.13004" height="1.13004" transform="rotate(47.9565 129.255 104.635)" fill="#0D6EFD"/>
<rect x="122.122" y="111.066" width="1.13004" height="1.13004" transform="rotate(47.9565 122.122 111.066)" fill="#0D6EFD"/>
<rect x="114.988" y="117.5" width="1.13004" height="1.13004" transform="rotate(47.9565 114.988 117.5)" fill="#0D6EFD"/>
<rect x="107.855" y="123.932" width="1.13004" height="1.13004" transform="rotate(47.9565 107.855 123.932)" fill="#0D6EFD"/>
<rect x="100.722" y="130.365" width="1.13004" height="1.13004" transform="rotate(47.9565 100.722 130.365)" fill="#0D6EFD"/>
<rect x="93.5884" y="136.799" width="1.13004" height="1.13004" transform="rotate(47.9565 93.5884 136.799)" fill="#0D6EFD"/>
<rect x="86.4551" y="143.23" width="1.13004" height="1.13004" transform="rotate(47.9565 86.4551 143.23)" fill="#0D6EFD"/>
<rect x="79.3218" y="149.664" width="1.13004" height="1.13004" transform="rotate(47.9565 79.3218 149.664)" fill="#0D6EFD"/>
<rect x="72.1885" y="156.096" width="1.13004" height="1.13004" transform="rotate(47.9565 72.1885 156.096)" fill="#0D6EFD"/>
<rect x="164.221" y="86.0371" width="1.13004" height="1.13004" transform="rotate(47.9565 164.221 86.0371)" fill="#0D6EFD"/>
<rect x="157.087" y="92.4707" width="1.13004" height="1.13004" transform="rotate(47.9565 157.087 92.4707)" fill="#0D6EFD"/>
<rect x="149.954" y="98.9023" width="1.13004" height="1.13004" transform="rotate(47.9565 149.954 98.9023)" fill="#0D6EFD"/>
<rect x="142.821" y="105.336" width="1.13004" height="1.13004" transform="rotate(47.9565 142.821 105.336)" fill="#0D6EFD"/>
<rect x="135.688" y="111.768" width="1.13004" height="1.13004" transform="rotate(47.9565 135.688 111.768)" fill="#0D6EFD"/>
<rect x="128.554" y="118.201" width="1.13004" height="1.13004" transform="rotate(47.9565 128.554 118.201)" fill="#0D6EFD"/>
<rect x="121.421" y="124.633" width="1.13004" height="1.13004" transform="rotate(47.9565 121.421 124.633)" fill="#0D6EFD"/>
<rect x="114.288" y="131.066" width="1.13004" height="1.13004" transform="rotate(47.9565 114.288 131.066)" fill="#0D6EFD"/>
<rect x="107.154" y="137.498" width="1.13004" height="1.13004" transform="rotate(47.9565 107.154 137.498)" fill="#0D6EFD"/>
<rect x="100.021" y="143.932" width="1.13004" height="1.13004" transform="rotate(47.9565 100.021 143.932)" fill="#0D6EFD"/>
<rect x="92.8877" y="150.363" width="1.13004" height="1.13004" transform="rotate(47.9565 92.8877 150.363)" fill="#0D6EFD"/>
<rect x="85.7544" y="156.797" width="1.13004" height="1.13004" transform="rotate(47.9565 85.7544 156.797)" fill="#0D6EFD"/>
<rect x="78.6211" y="163.229" width="1.13004" height="1.13004" transform="rotate(47.9565 78.6211 163.229)" fill="#0D6EFD"/>
<rect x="170.654" y="93.1699" width="1.13004" height="1.13004" transform="rotate(47.9565 170.654 93.1699)" fill="#0D6EFD"/>
<rect x="163.521" y="99.6035" width="1.13004" height="1.13004" transform="rotate(47.9565 163.521 99.6035)" fill="#0D6EFD"/>
<rect x="156.387" y="106.035" width="1.13004" height="1.13004" transform="rotate(47.9565 156.387 106.035)" fill="#0D6EFD"/>
<rect x="149.254" y="112.469" width="1.13004" height="1.13004" transform="rotate(47.9565 149.254 112.469)" fill="#0D6EFD"/>
<rect x="142.121" y="118.9" width="1.13004" height="1.13004" transform="rotate(47.9565 142.121 118.9)" fill="#0D6EFD"/>
<rect x="134.987" y="125.334" width="1.13004" height="1.13004" transform="rotate(47.9565 134.987 125.334)" fill="#0D6EFD"/>
<rect x="127.854" y="131.766" width="1.13004" height="1.13004" transform="rotate(47.9565 127.854 131.766)" fill="#0D6EFD"/>
<rect x="120.72" y="138.199" width="1.13004" height="1.13004" transform="rotate(47.9565 120.72 138.199)" fill="#0D6EFD"/>
<rect x="113.587" y="144.631" width="1.13004" height="1.13004" transform="rotate(47.9565 113.587 144.631)" fill="#0D6EFD"/>
<rect x="106.454" y="151.064" width="1.13004" height="1.13004" transform="rotate(47.9565 106.454 151.064)" fill="#0D6EFD"/>
<rect x="99.3203" y="157.498" width="1.13004" height="1.13004" transform="rotate(47.9565 99.3203 157.498)" fill="#0D6EFD"/>
<rect x="92.187" y="163.93" width="1.13004" height="1.13004" transform="rotate(47.9565 92.187 163.93)" fill="#0D6EFD"/>
<rect x="85.0537" y="170.363" width="1.13004" height="1.13004" transform="rotate(47.9565 85.0537 170.363)" fill="#0D6EFD"/>
</svg>
