<svg width="46" height="46" viewBox="0 0 46 46" fill="none" xmlns="http://www.w3.org/2000/svg">
<path d="M23 4.3125C23.1906 4.3125 23.3734 4.23677 23.5082 4.10198C23.643 3.96719 23.7188 3.78437 23.7188 3.59375V2.15625C23.7188 1.96563 23.643 1.78281 23.5082 1.64802C23.3734 1.51323 23.1906 1.4375 23 1.4375C22.8094 1.4375 22.6266 1.51323 22.4918 1.64802C22.357 1.78281 22.2812 1.96563 22.2812 2.15625V3.59375C22.2812 3.78437 22.357 3.96719 22.4918 4.10198C22.6266 4.23677 22.8094 4.3125 23 4.3125Z" fill="#ECAB23"/>
<path d="M29.1096 5.94973C29.2359 5.94986 29.3599 5.9167 29.4693 5.85361C29.5787 5.79052 29.6696 5.69972 29.7327 5.59036L30.4515 4.34548C30.5453 4.18049 30.57 3.98509 30.5203 3.80192C30.4706 3.61875 30.3504 3.46269 30.186 3.36778C30.0217 3.27288 29.8264 3.24685 29.6429 3.29536C29.4594 3.34387 29.3026 3.463 29.2066 3.62673L28.4879 4.87161C28.4248 4.98082 28.3916 5.10469 28.3916 5.2308C28.3915 5.3569 28.4247 5.4808 28.4877 5.59004C28.5507 5.69928 28.6413 5.79003 28.7505 5.85316C28.8596 5.9163 28.9835 5.9496 29.1096 5.94973Z" fill="#ECAB23"/>
<path d="M16.8909 5.94973C17.017 5.9496 17.1408 5.9163 17.25 5.85316C17.3592 5.79003 17.4498 5.69928 17.5128 5.59004C17.5758 5.4808 17.6089 5.3569 17.6089 5.2308C17.6089 5.10469 17.5756 4.98082 17.5126 4.87161L16.7938 3.62673C16.6979 3.463 16.541 3.34387 16.3575 3.29536C16.174 3.24685 15.9788 3.27288 15.8144 3.36778C15.65 3.46269 15.5299 3.61875 15.4801 3.80192C15.4304 3.98509 15.4552 4.18049 15.549 4.34548L16.2677 5.59036C16.3309 5.69972 16.4217 5.79052 16.5311 5.85361C16.6405 5.9167 16.7646 5.94986 16.8909 5.94973Z" fill="#ECAB23"/>
<path d="M3.07266 16.7941C3.05591 16.6661 3.04751 16.5372 3.0475 16.4081C3.05012 15.7495 3.27809 15.1116 3.6935 14.6004C4.10892 14.0893 4.68676 13.7357 5.33097 13.5985C6.06755 13.4615 6.82866 13.6102 7.45952 14.0144C8.09038 14.4185 8.54362 15.0478 8.72706 15.7742L11.2254 24.5976C11.5007 24.6573 11.7657 24.7573 12.0118 24.8944L18.3655 28.619C19.3371 29.1914 20.1429 30.007 20.7035 30.9855C21.2641 31.964 21.5601 33.0716 21.5625 34.1993V43.1241C21.5625 43.3147 21.4868 43.4975 21.352 43.6323C21.2172 43.7671 21.0344 43.8428 20.8437 43.8428C20.6531 43.8428 20.4703 43.7671 20.3355 43.6323C20.2007 43.4975 20.125 43.3147 20.125 43.1241V34.1993C20.1232 33.3223 19.8929 32.4608 19.4568 31.6998C19.0207 30.9388 18.3939 30.3046 17.6381 29.8595L11.2887 26.1371C11.1251 26.0413 10.9442 25.9787 10.7564 25.953C10.5686 25.9273 10.3775 25.939 10.1943 25.9875C10.011 26.0359 9.83909 26.1202 9.68849 26.2353C9.5379 26.3505 9.41157 26.4943 9.31678 26.6585C9.22198 26.8226 9.1606 27.004 9.13617 27.1919C9.11173 27.3799 9.12473 27.5709 9.1744 27.7539C9.22407 27.9368 9.30944 28.1082 9.42559 28.258C9.54174 28.4078 9.68638 28.5332 9.85119 28.6269L13.9703 31.0052C14.0527 31.0521 14.1251 31.1148 14.1831 31.1897C14.2412 31.2646 14.2839 31.3502 14.3087 31.4417C14.3336 31.5332 14.3401 31.6287 14.3279 31.7227C14.3156 31.8167 14.2849 31.9073 14.2375 31.9894C14.1902 32.0715 14.127 32.1434 14.0517 32.201C13.9764 32.2586 13.8905 32.3007 13.7988 32.3249C13.7072 32.3491 13.6116 32.355 13.5177 32.3422C13.4238 32.3293 13.3334 32.298 13.2516 32.2501L9.13244 29.8718C8.54395 29.5337 8.09484 28.9973 7.86534 28.3586C7.63585 27.7199 7.64092 27.0204 7.87966 26.3851L5.90668 19.0337C5.81721 18.6617 5.59112 18.3369 5.27329 18.1239C4.95546 17.9109 4.56914 17.8251 4.19103 17.8837C3.86953 17.9518 3.58091 18.1277 3.37296 18.3822C3.16501 18.6366 3.05019 18.9545 3.0475 19.2831C3.04655 19.4095 3.0625 19.5354 3.09494 19.6576L6.22078 31.3243C6.33019 31.7315 6.5563 32.0978 6.87125 32.378L11.7307 36.6977C12.1105 37.0351 12.4144 37.4493 12.6224 37.9127C12.8304 38.3762 12.9378 38.8785 12.9375 39.3866V43.1241C12.9375 43.3147 12.8618 43.4975 12.727 43.6323C12.5922 43.7671 12.4094 43.8428 12.2187 43.8428C12.0281 43.8428 11.8453 43.7671 11.7105 43.6323C11.5757 43.4975 11.5 43.3147 11.5 43.1241V39.3866C11.5 39.0821 11.4355 38.7811 11.3107 38.5033C11.186 38.2256 11.0038 37.9774 10.7762 37.7751L5.91531 33.4547C5.39019 32.987 5.01384 32.3755 4.83287 31.6959L1.70703 20.0306C1.64155 19.7866 1.60892 19.535 1.61 19.2824C1.61324 18.7756 1.75019 18.2787 2.00701 17.8417C2.26384 17.4048 2.63143 17.0434 3.07266 16.7941ZM7.29459 18.6628L8.99444 24.9936C9.22572 24.84 9.47797 24.7207 9.74337 24.6393L7.34131 16.158C7.25033 15.7866 7.02369 15.4626 6.70594 15.2498C6.38819 15.037 6.00233 14.9507 5.62422 15.008C5.30296 15.0761 5.01472 15.2522 4.80745 15.507C4.60019 15.7617 4.48639 16.0797 4.485 16.4081V16.4182C5.13382 16.4347 5.75945 16.6628 6.26665 17.0678C6.77385 17.4727 7.13482 18.0324 7.29459 18.6614V18.6628Z" fill="#ECAB23"/>
<path d="M27.6346 28.6194L33.9927 24.8926C34.2373 24.756 34.5009 24.6565 34.7747 24.5972L37.2702 15.7832C37.4518 15.0543 37.905 14.4223 38.537 14.0163C39.169 13.6103 39.9322 13.461 40.6706 13.5989C41.3145 13.7365 41.8919 14.0902 42.307 14.6013C42.7222 15.1124 42.95 15.7501 42.9526 16.4085C42.9527 16.5376 42.9443 16.6665 42.9275 16.7945C43.4815 17.1059 43.9162 17.5926 44.1634 18.1781C44.4106 18.7636 44.4562 19.4146 44.2931 20.0289L41.1673 31.6963C40.9855 32.3746 40.6089 32.9848 40.0841 33.4515L35.2239 37.7712C34.9958 37.974 34.8133 38.2228 34.6886 38.5014C34.5638 38.7799 34.4996 39.0817 34.5001 39.3869V43.1244C34.5001 43.3151 34.4244 43.4979 34.2896 43.6327C34.1548 43.7675 33.972 43.8432 33.7814 43.8432C33.5908 43.8432 33.408 43.7675 33.2732 43.6327C33.1384 43.4979 33.0626 43.3151 33.0626 43.1244V39.3869C33.0627 38.8794 33.1703 38.3776 33.3783 37.9147C33.5863 37.4517 33.89 37.0381 34.2694 36.701L39.1282 32.3813C39.4436 32.1013 39.67 31.735 39.7794 31.3276L42.9059 19.6565C42.9552 19.4678 42.9656 19.271 42.9366 19.0781C42.9076 18.8852 42.8398 18.7002 42.7373 18.5342C42.6348 18.3683 42.4997 18.2249 42.3401 18.1126C42.1806 18.0004 41.9999 17.9217 41.8091 17.8812C41.431 17.8225 41.0446 17.9081 40.7267 18.1212C40.4088 18.3343 40.1828 18.6591 40.0935 19.0312L38.1205 26.3826C38.3592 27.0179 38.3643 27.7174 38.1348 28.3561C37.9053 28.9949 37.4562 29.5312 36.8677 29.8693L32.7485 32.2476C32.6668 32.2955 32.5763 32.3268 32.4824 32.3397C32.3885 32.3525 32.293 32.3467 32.2013 32.3224C32.1097 32.2982 32.0237 32.2561 31.9485 32.1985C31.8732 32.1409 31.81 32.069 31.7626 31.9869C31.7152 31.9048 31.6845 31.8142 31.6723 31.7202C31.6601 31.6262 31.6666 31.5307 31.6914 31.4392C31.7162 31.3478 31.7589 31.2621 31.817 31.1872C31.8751 31.1123 31.9474 31.0496 32.0298 31.0027L36.149 28.6273C36.4299 28.4663 36.648 28.215 36.7678 27.9142C36.8876 27.6134 36.9021 27.281 36.8088 26.9709C36.7156 26.6609 36.5201 26.3916 36.2542 26.2068C35.9884 26.0221 35.6678 25.9328 35.3447 25.9535H35.3389C35.1199 25.9647 34.9065 26.027 34.7158 26.1354L28.362 29.8599C27.6062 30.3049 26.9794 30.9392 26.5433 31.7002C26.1073 32.4612 25.877 33.3227 25.8751 34.1997V43.1244C25.8751 43.3151 25.7994 43.4979 25.6646 43.6327C25.5298 43.7675 25.347 43.8432 25.1564 43.8432C24.9658 43.8432 24.783 43.7675 24.6482 43.6327C24.5134 43.4979 24.4376 43.3151 24.4376 43.1244V34.1997C24.44 33.072 24.736 31.9644 25.2966 30.9859C25.8572 30.0074 26.663 29.1918 27.6346 28.6194ZM37.0057 24.9933L38.7055 18.6618C38.8647 18.0326 39.2253 17.4727 39.7323 17.0676C40.2393 16.6625 40.8649 16.4343 41.5137 16.4179V16.4085C41.5129 16.0799 41.3995 15.7616 41.1925 15.5064C40.9855 15.2513 40.6973 15.0747 40.3759 15.0062C39.9957 14.9478 39.6074 15.0348 39.2884 15.2497C38.9694 15.4647 38.7431 15.792 38.6545 16.1663L36.2568 24.6382C36.5223 24.7196 36.7746 24.8392 37.0057 24.9933Z" fill="#ECAB23"/>
<path d="M17.5318 25.5005C17.3052 25.4985 17.0822 25.4433 16.8809 25.3394C16.6795 25.2355 16.5054 25.0857 16.3725 24.9021C16.2396 24.7185 16.1517 24.5063 16.1159 24.2825C16.08 24.0588 16.0973 23.8297 16.1662 23.6138L17.9322 18.1786L13.3091 14.8192C13.0637 14.6409 12.881 14.3895 12.7872 14.1011C12.6933 13.8126 12.6931 13.5018 12.7866 13.2133C12.8801 12.9247 13.0624 12.6731 13.3076 12.4944C13.5528 12.3158 13.8482 12.2193 14.1515 12.2188H19.867L21.6344 6.78356C21.729 6.49596 21.9119 6.24555 22.1571 6.06802C22.4023 5.8905 22.6973 5.79492 23.0001 5.79492C23.3028 5.79492 23.5978 5.8905 23.843 6.06802C24.0882 6.24555 24.2712 6.49596 24.3657 6.78356L26.1331 12.2188H31.8486C32.1521 12.2188 32.4478 12.315 32.6933 12.4935C32.9389 12.6719 33.1216 12.9235 33.2154 13.2122C33.3091 13.5009 33.3091 13.8119 33.2153 14.1005C33.1215 14.3892 32.9387 14.6408 32.6931 14.8192L28.0701 18.1786L29.8361 23.6138C29.9299 23.9026 29.93 24.2136 29.8361 24.5024C29.7423 24.7911 29.5595 25.0428 29.3139 25.2212C29.0682 25.3996 28.7724 25.4957 28.4688 25.4957C28.1652 25.4956 27.8694 25.3995 27.6238 25.2209L23.0001 21.8622L18.3763 25.2209C18.1317 25.4016 17.8359 25.4995 17.5318 25.5005ZM23.0001 20.4233C23.3038 20.4234 23.5997 20.5198 23.8453 20.6986L28.4683 24.058L26.7023 18.6228C26.6086 18.3341 26.6086 18.0231 26.7025 17.7344C26.7964 17.4457 26.9792 17.1941 27.2249 17.0157L31.8486 13.6563H26.1331C25.8298 13.6559 25.5343 13.5597 25.289 13.3813C25.0438 13.2028 24.8612 12.9514 24.7675 12.6629L23.0001 7.21841V7.22775L21.2341 12.6629C21.1403 12.9516 20.9575 13.2032 20.7119 13.3817C20.4663 13.5601 20.1706 13.6562 19.867 13.6563H14.1515L18.7745 17.015C19.0204 17.1933 19.2035 17.445 19.2975 17.7338C19.3916 18.0227 19.3916 18.3339 19.2978 18.6228L17.5318 24.058L22.1548 20.7C22.4002 20.5207 22.6961 20.4239 23.0001 20.4233Z" fill="#ECAB23"/>
<path d="M35.1858 9.60638L33.9416 10.3251C33.8598 10.3731 33.7694 10.4044 33.6755 10.4172C33.5816 10.43 33.486 10.4242 33.3944 10.4C33.3028 10.3757 33.2168 10.3336 33.1415 10.276C33.0662 10.2185 33.0031 10.1466 32.9557 10.0645C32.9083 9.98237 32.8776 9.89172 32.8654 9.79772C32.8531 9.70372 32.8596 9.60824 32.8845 9.51676C32.9093 9.42528 32.952 9.33962 33.0101 9.26471C33.0681 9.18979 33.1405 9.12711 33.2229 9.08026L34.467 8.36151C34.632 8.2677 34.8274 8.24296 35.0106 8.29269C35.1938 8.34242 35.3498 8.46258 35.4447 8.62695C35.5396 8.79132 35.5657 8.98655 35.5171 9.17004C35.4686 9.35354 35.3495 9.51039 35.1858 9.60638Z" fill="#ECAB23"/>
<path d="M12.417 10.4214C12.2909 10.4214 12.1669 10.3882 12.0576 10.3251L10.8135 9.60638C10.6498 9.51039 10.5306 9.35354 10.4821 9.17004C10.4336 8.98655 10.4596 8.79132 10.5545 8.62695C10.6494 8.46258 10.8055 8.34242 10.9887 8.29269C11.1718 8.24296 11.3672 8.2677 11.5322 8.36151L12.7764 9.08026C12.9134 9.15937 13.0205 9.28149 13.081 9.42766C13.1416 9.57383 13.1522 9.7359 13.1113 9.88872C13.0703 10.0415 12.9801 10.1766 12.8546 10.2729C12.729 10.3692 12.5752 10.4214 12.417 10.4214Z" fill="#ECAB23"/>
</svg>
