<svg width="45" height="45" viewBox="0 0 45 45" fill="none" xmlns="http://www.w3.org/2000/svg">
<g clip-path="url(#clip0_1432_3603)">
<path d="M44.9603 23.3573C44.9319 23.3339 44.8906 23.3264 44.8584 23.3373C44.8192 23.3493 44.7832 23.3598 44.7492 23.3698L44.7327 23.3746C44.649 23.3991 44.5767 23.4201 44.5051 23.4488C43.3735 23.8984 42.4827 24.6687 41.7816 25.8035C41.6084 26.0839 41.4743 26.3753 41.3675 26.666C41.5427 25.6883 41.5833 25.3074 41.6143 24.2134C41.6158 24.1675 41.6158 24.1208 41.6158 24.0745C41.6158 23.9479 41.6158 23.8284 41.6434 23.7193C41.6766 23.59 41.7432 23.4611 41.8077 23.3364C41.8259 23.3011 41.8441 23.2658 41.8591 23.2347C41.8642 23.2287 41.881 23.2184 41.8876 23.2174C42.2112 23.168 42.4973 23.0306 42.7626 22.7974C43.03 22.5614 43.2498 22.2724 43.4162 21.9383C44.0133 20.7409 44.3121 19.4174 44.3045 18.005C44.3038 17.8688 44.2878 17.7361 44.2702 17.5919C44.2622 17.5272 44.2541 17.4611 44.2473 17.3927C44.2435 17.3551 44.2204 17.3217 44.1869 17.3055C44.1538 17.2895 44.1139 17.2906 44.0805 17.3108C44.0603 17.3234 44.0431 17.3337 44.0274 17.3428C43.997 17.3609 43.9739 17.375 43.952 17.3907C43.4427 17.7559 42.9934 18.2104 42.6166 18.7414C42.0016 19.6094 41.644 20.5908 41.5476 21.6704C41.538 21.5501 41.5283 21.4297 41.5186 21.3094L41.5153 21.2657C41.4775 20.7939 41.4385 20.306 41.4066 19.8262C41.3986 19.7047 41.3753 19.5865 41.3527 19.4721C41.3092 19.2523 41.268 19.0446 41.3339 18.827C41.3489 18.7779 41.3615 18.7283 41.3742 18.6789C41.4053 18.5566 41.5556 18.3681 41.7865 18.162L41.7952 18.1542C41.8804 18.082 42.3178 17.6819 42.5659 16.8903C42.8178 16.0861 42.7987 15.2458 42.7849 14.6322L42.7845 14.6158C42.766 13.7724 42.6749 13.1368 42.489 12.5547C42.465 12.4802 42.4364 12.4068 42.4062 12.3296C42.3905 12.2895 42.3745 12.248 42.3581 12.2045C42.3445 12.1678 42.312 12.141 42.274 12.1347L42.2554 12.133C42.2225 12.133 42.1917 12.1478 42.1708 12.1733L41.9902 12.3934C41.1244 13.4493 40.6991 14.6878 40.7257 16.0745C40.7303 16.3186 40.7486 16.5692 40.781 16.8278C40.5609 16.0684 40.3029 15.3291 40.0094 14.618C40.0033 14.6024 39.9993 14.5831 39.9989 14.5668L39.9969 14.4695C39.9938 14.3292 39.9907 14.1841 39.9966 14.0413C39.9975 14.0176 40.0129 13.975 40.0448 13.9332C40.0901 13.8733 40.1404 13.8148 40.1925 13.7539C40.2813 13.6505 40.373 13.5438 40.4457 13.422C40.6796 13.0302 40.7894 12.5673 40.7912 11.9651C40.7944 11.2562 40.6851 10.5102 40.4469 9.6172C40.3167 9.13005 40.1202 8.49717 39.7543 7.9234C39.7295 7.88482 39.7018 7.8485 39.6722 7.81004C39.6589 7.79301 39.6449 7.77485 39.6307 7.75534C39.61 7.72748 39.5813 7.71123 39.5351 7.71123C39.4982 7.71394 39.4653 7.73492 39.4469 7.76752C38.9876 8.59643 38.7588 9.48196 38.748 10.4748C38.7388 11.3025 38.868 12.0148 39.0301 12.5778C38.6176 11.8242 38.1592 11.0961 37.6624 10.4055L37.651 10.3898C37.6397 10.3748 37.635 10.3675 37.6358 10.3727C37.6045 10.1492 37.5829 9.97047 37.5679 9.81481C37.5682 9.81244 37.5711 9.79936 37.5944 9.76056C37.6272 9.70462 37.6632 9.6498 37.7014 9.59182C37.7781 9.47519 37.8573 9.35451 37.9081 9.21938C38.0612 8.81152 38.0956 8.34896 38.0129 7.80575C37.8315 6.6035 37.3015 5.52092 36.393 4.49597C36.2995 4.39074 36.1962 4.29768 36.0869 4.19933L36.0567 4.17192C36.0139 4.13323 35.97 4.09364 35.9257 4.0518C35.8975 4.02495 35.8571 4.01491 35.818 4.02642C35.781 4.03815 35.7525 4.06883 35.7437 4.10695L35.7238 4.19403C35.7103 4.25178 35.6998 4.29735 35.692 4.34314C35.5698 5.07291 35.5787 5.85456 35.7194 6.73299C35.8591 7.60419 36.1373 8.35562 36.5642 9.00835C35.924 8.25399 35.3013 7.62055 34.6505 7.05918C34.6476 7.05535 34.6433 7.04373 34.6429 7.0408C34.6938 6.6026 34.5858 6.18978 34.3123 5.77876C33.9533 5.2386 33.4544 4.82691 32.8296 4.5553C32.4557 4.39311 32.0682 4.24952 31.6889 4.10887C31.5072 4.04142 31.3255 3.9742 31.1384 3.90212C30.9503 3.82734 30.8699 3.81403 30.8263 3.85441C30.7701 3.90675 30.7836 3.95141 30.8081 4.03262L30.816 4.05913C31.0453 4.83153 31.3496 5.44242 31.7465 5.92663C32.4752 6.81645 33.3273 7.26852 34.3504 7.30845C34.3862 7.3106 34.4146 7.32052 34.4263 7.32954C34.5703 7.43737 34.6763 7.52366 34.7701 7.60916C35.0665 7.88008 35.3584 8.16872 35.644 8.4727C35.2192 8.20876 34.7 8.08965 34.1153 8.1192C33.7953 8.13533 33.4777 8.18226 33.1705 8.2276L33.1588 8.2294C33.068 8.24271 32.9777 8.25591 32.8875 8.26865C32.6902 8.29539 32.4912 8.33035 32.3155 8.36103C32.2443 8.37378 32.0743 8.41247 32.0352 8.49492C32.0216 8.52311 32.0228 8.55402 32.0381 8.58211C32.0516 8.60658 32.0665 8.62959 32.0828 8.65057C32.59 9.30871 33.1686 9.74217 33.8517 9.97554C34.6846 10.2616 35.4495 10.238 36.1369 9.90155C36.242 9.84369 36.3688 9.81436 36.5136 9.81436C36.6229 9.81436 36.7049 9.83162 36.7321 9.83782C36.7728 9.84459 36.8281 9.86737 36.8393 9.88204C37.2668 10.4441 37.6725 11.0444 38.0514 11.675C37.7313 11.3637 37.3139 11.1538 36.7452 11.0171C36.2467 10.8983 35.7371 10.8728 35.2445 10.848L35.0794 10.8396C34.9249 10.8317 34.7704 10.8219 34.6112 10.8119L34.3444 10.7954C34.3099 10.7954 34.277 10.8121 34.257 10.8399C34.2347 10.8698 34.2294 10.9086 34.2425 10.9434C34.2532 10.9725 34.2728 11.0238 34.2828 11.041C34.8024 11.9102 35.4126 12.5113 36.148 12.879C36.867 13.2382 37.5165 13.3331 38.1718 13.1765C38.2476 13.1582 38.3354 13.1485 38.4262 13.1485C38.7049 13.1485 38.8993 13.2336 38.9401 13.3123C39.3006 14.0559 39.6223 14.8287 39.8997 15.6169C39.6087 15.2157 39.2018 14.8898 38.6865 14.6461C38.1747 14.4044 37.6417 14.1836 37.1174 13.9663C36.892 13.8731 36.6658 13.7796 36.4405 13.6839C36.407 13.6693 36.3674 13.6723 36.3362 13.693C36.3055 13.7134 36.2872 13.7474 36.2872 13.7841C36.2872 13.8545 37.035 15.93 38.1211 16.7478C38.5642 17.0815 39.1099 17.4247 39.798 17.4408C40.004 17.445 40.2169 17.4741 40.3778 17.6569C40.4023 17.686 40.4349 17.7087 40.4705 17.7208C40.5254 17.7388 40.5405 17.7724 40.5676 17.887C40.7905 18.8228 40.9528 19.7872 41.0527 20.7666C41.0225 20.6672 40.9874 20.5669 40.9471 20.4652C40.7041 19.8488 40.295 19.3095 39.6597 18.7677C39.3323 18.4873 38.9894 18.2158 38.6578 17.9531L38.642 17.9407C38.491 17.821 38.3403 17.7018 38.19 17.5811C38.159 17.5562 38.1288 17.5305 38.0937 17.5005L38 17.4202C37.9672 17.3924 37.9183 17.3867 37.88 17.4059C37.8406 17.4258 37.817 17.4671 37.8201 17.5112C37.8247 17.5774 37.8284 17.64 37.8319 17.7001L37.8337 17.7282C37.8412 17.8519 37.8482 17.9687 37.8607 18.084C37.9782 19.2064 38.312 20.1434 38.881 20.9487C39.2332 21.4464 39.7386 22.0548 40.5265 22.3426C40.7183 22.4129 40.8573 22.5195 41.0063 22.7108C41.1469 22.8899 41.1731 23.0536 41.1699 23.2596C41.1565 24.1223 41.095 24.9782 40.9866 25.8163C40.9612 25.5831 40.9075 25.3429 40.8251 25.0934C40.6544 24.5769 40.3885 24.0746 40.0119 23.558C39.6868 23.1107 39.3485 22.6618 39.0214 22.2274L38.9997 22.1984C38.8699 22.0264 38.7403 21.8542 38.6141 21.6857C38.5904 21.651 38.5563 21.6386 38.5365 21.6317C38.5086 21.6181 38.4752 21.6167 38.4455 21.6294C38.4164 21.6418 38.3941 21.6663 38.3843 21.6963L38.3804 21.708C38.375 21.7238 38.3707 21.7378 38.3685 21.7517C38.1429 23.0969 38.2813 24.3021 38.7914 25.4366C39.0406 25.9913 39.3748 26.6193 39.964 27.0711C40.233 27.2774 40.4454 27.5669 40.5621 27.886C40.5868 27.9547 40.5859 27.9844 40.583 27.9959C40.3337 29.0289 40.0079 30.0252 39.6119 30.9681C39.7139 30.4712 39.7069 29.9492 39.5905 29.4083C39.4252 28.6418 39.1412 27.8989 38.8879 27.2628L38.812 27.0723C38.6932 26.7742 38.5736 26.4737 38.4501 26.1623C38.4345 26.1225 38.3967 26.0953 38.3462 26.0928C38.3065 26.0928 38.27 26.1155 38.2511 26.1522L38.2112 26.2271C38.1938 26.2599 38.1774 26.2905 38.1634 26.3221C37.6538 27.4719 37.4817 28.6506 37.6521 29.8254C37.7739 30.6655 37.9804 31.267 38.3214 31.7759C38.498 32.039 38.6657 32.332 38.6961 32.6924C38.7034 32.7777 38.7 32.8364 38.662 32.9033C38.2318 33.6567 37.7495 34.3676 37.2213 35.0281C37.2233 35.0245 37.2252 35.0209 37.2272 35.0173C37.6072 34.3228 37.6187 33.5719 37.5799 32.9289C37.5464 32.3777 37.4833 31.8273 37.4225 31.2951L37.419 31.2643C37.3945 31.0511 37.3701 30.8381 37.3479 30.6246C37.3351 30.5035 37.3207 30.3825 37.306 30.2597L37.2864 30.0934C37.2822 30.0567 37.2597 30.0248 37.2275 30.0088C37.1675 29.9775 37.0703 30.0259 36.9654 30.1499C36.2446 31.0025 35.7973 31.966 35.6357 33.0137C35.4682 34.1 35.559 35.0297 35.9137 35.8558C35.9231 35.8778 35.9229 35.9226 35.9228 35.9377L35.9037 36.413C35.9009 36.4471 35.8829 36.4857 35.868 36.5C35.1481 37.1933 34.3557 37.7959 33.5052 38.2975C33.9078 37.9336 34.1972 37.4589 34.3848 36.8572C34.5926 36.1904 34.6993 35.4964 34.8028 34.8235L34.8118 34.7636C34.8484 34.5272 34.8867 34.2912 34.9257 34.0501L34.9698 33.7775C34.9761 33.7377 34.9604 33.698 34.9297 33.6742C34.8991 33.6499 34.8549 33.644 34.8197 33.6591L34.7812 33.675C34.7402 33.6918 34.7044 33.7068 34.6707 33.7241C33.0629 34.5271 32.0046 36.3999 32.1542 38.177C32.1776 38.4554 32.1521 38.7169 32.0761 38.9758C32.069 38.9994 32.0462 39.025 32.037 39.0293C31.2734 39.3513 30.5473 39.5863 29.8168 39.7476C29.7792 39.7562 29.7494 39.7831 29.7373 39.8193C29.725 39.8557 29.7324 39.8953 29.7574 39.9251C29.8369 40.0192 29.906 40.1203 29.9628 40.2262C29.9862 40.2696 30.0418 40.2918 30.0834 40.2809C30.6786 40.1451 31.2583 39.9693 31.8068 39.7579C31.8511 39.7401 31.8849 39.7316 31.9166 39.7368C32.0387 39.7531 32.1676 39.7781 32.3107 39.8136C32.3403 39.8209 32.3648 39.8345 32.3652 39.8333C32.6779 40.4566 33.2152 40.8536 34.0085 41.0468C34.1811 41.0882 34.359 41.1188 34.5375 41.1375C34.7243 41.1572 34.9326 41.1673 35.1565 41.1673C35.4667 41.1673 35.6878 41.1481 35.6906 41.1479C36.3781 41.0709 36.9653 40.9162 37.4854 40.6747C37.6988 40.5758 37.942 40.4426 38.1289 40.2047C38.1647 40.1591 38.1587 40.0934 38.1153 40.0551C37.5869 39.589 37.049 39.2503 36.4705 39.0197C35.6134 38.6791 34.8327 38.5868 34.0674 38.734C33.953 38.7562 33.8413 38.7842 33.7328 38.8163C34.4487 38.3884 35.1341 37.8855 35.7815 37.3125C35.7939 37.3012 35.8143 37.2913 35.8302 37.2885C35.9361 37.2709 36.0768 37.2492 36.2207 37.2388C36.234 37.2388 36.2509 37.2453 36.2528 37.2459C36.6429 37.6824 37.1453 37.8946 37.7891 37.8946C37.8219 37.8946 37.8548 37.8939 37.8876 37.8928C38.5875 37.8702 39.2911 37.6779 39.9793 37.3209C40.4794 37.0601 41.0007 36.7563 41.4235 36.3033C41.5172 36.2026 41.6009 36.0887 41.6748 35.9882L41.682 35.9784C41.7147 35.934 41.7477 35.8894 41.7817 35.8453C41.8002 35.8215 41.808 35.7908 41.8031 35.7599C41.7979 35.7301 41.7807 35.7036 41.7512 35.6844C41.7438 35.6804 41.5648 35.5844 41.4013 35.5211C40.307 35.0983 39.2022 35.0549 38.1483 35.3946C37.8033 35.5054 37.4785 35.6719 37.1624 35.902C37.7471 35.2223 38.2885 34.4772 38.78 33.6755C38.7853 33.667 38.7993 33.6441 38.8038 33.64C38.8468 33.6125 38.8908 33.5866 38.9347 33.561C39.0133 33.5149 39.0947 33.4672 39.1712 33.4103C39.2357 33.3621 39.2539 33.3609 39.3191 33.4029C39.4113 33.4628 39.5186 33.4939 39.6121 33.5184C40.1592 33.6585 40.7106 33.5886 41.3206 33.3023C41.8778 33.041 42.3062 32.6281 42.6863 32.2209C43.2392 31.627 43.6005 31.0911 43.8233 30.5343C43.8701 30.4175 43.9035 30.2967 43.9383 30.1703C43.9526 30.1173 43.9673 30.0643 43.9828 30.0122C43.9999 29.9563 43.9701 29.8971 43.9148 29.8775L43.869 29.874C43.6435 29.874 41.6322 29.9071 40.4558 31.0485C40.1999 31.2969 39.9705 31.5609 39.761 31.8498C40.2264 30.8642 40.621 29.8255 40.9391 28.7474L40.9437 28.7316C40.9476 28.7184 40.9533 28.6984 40.9572 28.693L41.2649 28.2705C41.2764 28.2536 41.2777 28.2536 41.2958 28.2536C41.3038 28.2536 41.3126 28.2541 41.3226 28.2547L41.3884 28.2586C41.6173 28.2728 41.7521 28.2708 41.863 28.2534C42.3011 28.1843 42.6965 27.9637 43.0718 27.5788C43.9494 26.6787 44.5536 25.5558 44.9185 24.1461C44.9577 23.9951 44.9686 23.8426 44.9804 23.6808C44.9855 23.6075 44.9913 23.5319 44.9996 23.4539C45.0031 23.4165 44.9885 23.3807 44.9603 23.3573Z" fill="white"/>
<path d="M15.1827 39.7473C14.4528 39.5861 13.7269 39.3512 12.9631 39.0292C12.9539 39.0249 12.9313 38.9993 12.9242 38.9763C12.848 38.7167 12.8225 38.4553 12.846 38.1769C12.9956 36.3996 11.9372 34.5269 10.3298 33.7241C10.2957 33.7067 10.26 33.6917 10.219 33.6749L10.1808 33.6591C10.1446 33.6437 10.1005 33.6501 10.0713 33.6736C10.0397 33.6979 10.0241 33.7376 10.0305 33.7774L10.0745 34.0499C10.1135 34.2911 10.1517 34.5271 10.1884 34.7632L10.1976 34.8251C10.3008 35.4963 10.4075 36.1904 10.6154 36.8572C10.803 37.4589 11.0924 37.9336 11.495 38.2974C10.6445 37.7959 9.85205 37.1932 9.13232 36.5001C9.1172 36.4856 9.09927 36.447 9.09667 36.4152L9.07739 35.9396C9.07727 35.9226 9.07705 35.8777 9.08663 35.8555C9.44114 35.0297 9.53194 34.1 9.36444 33.0137C9.20292 31.966 8.75559 31.0025 8.03473 30.1499C7.95036 30.0501 7.87592 29.9996 7.81344 29.9996C7.79821 29.9996 7.78445 30.0026 7.77362 30.0083C7.74046 30.0247 7.71801 30.0566 7.71361 30.0935L7.69433 30.2594C7.67944 30.3826 7.66511 30.5035 7.65225 30.6247C7.63003 30.8381 7.60567 31.0511 7.58119 31.2643L7.5777 31.2951C7.51679 31.8274 7.45363 32.3778 7.42024 32.9289C7.38144 33.5718 7.39294 34.3227 7.77294 35.0173C7.77497 35.0208 7.77678 35.0245 7.77881 35.028C7.2506 34.3675 6.76841 33.6566 6.33822 32.9034C6.30021 32.8364 6.29694 32.7776 6.30405 32.6924C6.33461 32.3318 6.50222 32.0387 6.67874 31.7759C7.01971 31.267 7.22612 30.6655 7.34805 29.8254C7.51848 28.6506 7.34636 27.472 6.83676 26.3222C6.82278 26.2905 6.80642 26.2599 6.78894 26.2271L6.74913 26.152C6.73006 26.1153 6.68935 26.0912 6.64637 26.0931C6.60351 26.0954 6.56573 26.1226 6.55016 26.162C6.42654 26.4738 6.30698 26.7742 6.18821 27.0723L6.1123 27.2628C5.85897 27.899 5.57484 28.6419 5.40972 29.4083C5.29331 29.9492 5.28621 30.4712 5.38829 30.9681C4.99216 30.0253 4.66653 29.029 4.41714 27.9959C4.41432 27.9844 4.41342 27.9546 4.43812 27.886C4.55475 27.5668 4.76714 27.2773 5.03626 27.071C5.62537 26.6192 5.95958 25.9912 6.20874 25.4364C6.7189 24.302 6.85729 23.0968 6.63171 21.7517C6.62934 21.7376 6.62505 21.7237 6.61998 21.7084L6.61592 21.6962C6.6061 21.6661 6.58377 21.6418 6.55422 21.629C6.52535 21.617 6.48903 21.6192 6.46658 21.6303C6.44402 21.6385 6.40985 21.651 6.38763 21.6836C6.25994 21.8542 6.13035 22.0263 6.00064 22.1983L5.97887 22.2273C5.65177 22.6616 5.3135 23.1105 4.98844 23.5578C4.61182 24.0745 4.34586 24.5767 4.1752 25.0933C4.09286 25.3428 4.03906 25.583 4.01368 25.8162C3.90529 24.9781 3.84382 24.1223 3.8304 23.2594C3.82724 23.0535 3.85341 22.8898 3.99406 22.7106C4.14294 22.5195 4.28202 22.4128 4.47376 22.3424C5.26162 22.0546 5.76704 21.4463 6.11929 20.9485C6.68833 20.1433 7.02208 19.2064 7.13961 18.0841C7.15213 17.9686 7.15924 17.8517 7.16657 17.7281L7.16838 17.7C7.17187 17.6399 7.17559 17.5773 7.18033 17.511C7.18326 17.467 7.15969 17.4257 7.12033 17.4057C7.0822 17.3866 7.03336 17.3922 7.0002 17.4203L6.9067 17.5004C6.87151 17.5304 6.84139 17.5561 6.81015 17.5811C6.66002 17.7017 6.50933 17.821 6.3583 17.9407L6.34251 17.9531C6.01101 18.2157 5.66812 18.4872 5.34069 18.7676C4.70533 19.3094 4.29623 19.8488 4.05316 20.4652C4.01301 20.5669 3.97782 20.6674 3.94759 20.7668C4.04752 19.7873 4.20983 18.8227 4.43271 17.8869C4.45978 17.7724 4.47489 17.7388 4.5305 17.7205C4.56546 17.7087 4.59806 17.6859 4.62186 17.6577C4.78349 17.474 4.99633 17.4449 5.20252 17.4407C5.89055 17.4246 6.43624 17.0813 6.87918 16.7477C7.96525 15.9297 8.71307 13.8544 8.71307 13.784C8.71307 13.7473 8.69479 13.7131 8.66378 13.6925C8.63321 13.6723 8.59193 13.6695 8.5608 13.6834C8.33454 13.7793 8.10827 13.8729 7.874 13.9697C7.35854 14.1835 6.8256 14.4043 6.31375 14.6458C5.79862 14.8896 5.39156 15.2155 5.10055 15.6166C5.37791 14.8285 5.69948 14.0559 6.05951 13.3134C6.10091 13.2333 6.29536 13.1483 6.57418 13.1483C6.66487 13.1483 6.75273 13.158 6.82864 13.1762C7.48374 13.3333 8.13331 13.2381 8.85225 12.8788C9.58777 12.5111 10.198 11.9099 10.7177 11.0404C10.7277 11.0236 10.7472 10.9723 10.7577 10.9435C10.7709 10.9083 10.7656 10.8695 10.7437 10.8401C10.7234 10.8121 10.6909 10.7954 10.6495 10.7954C10.6491 10.7954 10.6489 10.7954 10.6486 10.7954L10.3889 10.8118C10.2298 10.8218 10.0753 10.8316 9.92074 10.8395L9.75572 10.8479C9.26304 10.8727 8.75345 10.8982 8.2549 11.0169C7.68632 11.1537 7.26887 11.3636 6.94877 11.6749C7.32764 11.0442 7.73335 10.4442 8.16072 9.88214C8.17223 9.86725 8.22738 9.84447 8.27261 9.83691C8.29517 9.83161 8.37728 9.81435 8.48647 9.81435C8.63129 9.81435 8.75807 9.84379 8.86556 9.9029C9.54852 10.2369 10.3155 10.2617 11.1483 9.97565C11.8313 9.74228 12.4098 9.30882 12.917 8.6509C12.9334 8.62969 12.9483 8.60657 12.9618 8.58221C12.9773 8.55412 12.9783 8.52322 12.9648 8.49502C12.9255 8.41268 12.7557 8.37399 12.6841 8.36114C12.5086 8.33046 12.3098 8.29549 12.1126 8.26876C12.0223 8.25613 11.9318 8.24293 11.8411 8.22951L11.8295 8.2277C11.5223 8.18236 11.2047 8.13544 10.8847 8.11931C10.2999 8.08942 9.78076 8.20875 9.35587 8.47291C9.64157 8.16883 9.93348 7.8803 10.2299 7.60926C10.3236 7.52377 10.4297 7.43759 10.5741 7.32942C10.5853 7.32085 10.6137 7.31081 10.6486 7.30878C11.6726 7.26874 12.5248 6.81667 13.2534 5.92696C13.6503 5.44263 13.9546 4.83175 14.1839 4.05935L14.1918 4.03284C14.2163 3.95163 14.2299 3.90696 14.1736 3.85463C14.1301 3.81425 14.0537 3.82621 13.8549 3.90493C13.6745 3.9743 13.4929 4.04164 13.3064 4.11078C12.9318 4.24963 12.5444 4.39321 12.1705 4.55541C11.5456 4.82701 11.0466 5.2387 10.6876 5.77887C10.4142 6.18988 10.3061 6.60282 10.357 7.0391C10.3567 7.04395 10.3524 7.05556 10.3517 7.05692C9.69944 7.62009 9.07592 8.2541 8.43571 9.00868C8.86263 8.35595 9.14089 7.60441 9.28053 6.7332C9.42129 5.85489 9.4302 5.07312 9.30793 4.34336C9.30015 4.29768 9.28966 4.252 9.27624 4.19481L9.25628 4.10672C9.24725 4.06893 9.21883 4.03837 9.18149 4.02664C9.14416 4.01558 9.10231 4.0254 9.07445 4.0519C9.02979 4.09397 8.98602 4.13368 8.94328 4.17225L8.91316 4.19944C8.80375 4.29802 8.70043 4.39107 8.60693 4.4963C7.69839 5.52125 7.16849 6.60383 6.987 7.80597C6.90433 8.34929 6.93862 8.81185 7.0919 9.21971C7.14266 9.35484 7.22184 9.47553 7.30068 9.59531C7.33677 9.65002 7.37287 9.70495 7.40592 9.76134C7.43028 9.80183 7.43231 9.81232 7.4322 9.81041C7.41719 9.97114 7.39565 10.1502 7.36655 10.3652C7.36531 10.3679 7.36125 10.3743 7.34828 10.3914L7.33779 10.406C6.84094 11.0966 6.38255 11.8247 5.97007 12.5782C6.13226 12.0154 6.26141 11.303 6.25227 10.4752C6.24122 9.48229 6.01259 8.59676 5.55307 7.76762C5.53492 7.73536 5.50198 7.71439 5.45585 7.71123C5.42235 7.71123 5.39009 7.72781 5.369 7.75612C5.35524 7.77529 5.34125 7.79334 5.32794 7.81048C5.29828 7.84883 5.27053 7.88515 5.24572 7.92395C4.87982 8.49773 4.68356 9.13038 4.55328 9.61753C4.31518 10.511 4.20577 11.257 4.20893 11.9654C4.21073 12.5676 4.32048 13.0305 4.55441 13.4222C4.62716 13.5442 4.71875 13.6509 4.81079 13.7583C4.85963 13.8152 4.90982 13.8738 4.95528 13.9338C4.98708 13.9755 5.00242 14.018 5.00332 14.0417C5.0093 14.1845 5.00614 14.3297 5.0031 14.47L5.00096 14.567C5.00062 14.5837 4.99678 14.6028 4.99103 14.6175C4.69732 15.3291 4.43914 16.0687 4.21897 16.8282C4.25134 16.5696 4.26961 16.3192 4.27423 16.0749C4.30085 14.6882 3.87551 13.4499 3.00972 12.3938L2.82925 12.174C2.80838 12.1481 2.77748 12.1335 2.74454 12.1335L2.7265 12.1351C2.68792 12.1415 2.65544 12.1682 2.64202 12.2047C2.62555 12.2485 2.60942 12.2899 2.59374 12.33C2.56351 12.4073 2.53498 12.4807 2.51084 12.5552C2.32507 13.1371 2.23393 13.7728 2.21543 14.616L2.2151 14.6325C2.20122 15.246 2.18216 16.0864 2.43414 16.8906C2.68217 17.6823 3.11958 18.0824 3.2044 18.1542L3.21342 18.1623C3.44431 18.3684 3.59466 18.5569 3.62579 18.6793C3.63831 18.7287 3.65106 18.7782 3.66594 18.8271C3.73182 19.0449 3.69065 19.2525 3.64621 19.4766C3.6241 19.5897 3.60109 19.7066 3.59308 19.8265C3.56127 20.3063 3.52225 20.7942 3.48446 21.2661L3.48108 21.3097C3.47138 21.4301 3.46168 21.5504 3.45209 21.6708C3.35577 20.5911 2.99821 19.6097 2.38304 18.7418C2.00632 18.2107 1.55718 17.7564 1.04781 17.3911C1.02581 17.3753 1.00269 17.3612 0.971785 17.3428C0.956784 17.3341 0.939414 17.3237 0.918322 17.3105C0.886514 17.2915 0.845683 17.2898 0.812861 17.3058C0.779249 17.3222 0.756126 17.3554 0.752291 17.3931C0.745411 17.4613 0.737403 17.5274 0.728943 17.596C0.711912 17.7364 0.695782 17.8691 0.695106 18.0053C0.687548 19.4177 0.986336 20.7412 1.58346 21.9386C1.74983 22.2727 1.96966 22.5617 2.23709 22.7979C2.50227 23.0308 2.78842 23.1682 3.11134 23.2176C3.11845 23.2188 3.13537 23.2291 3.13796 23.2311C3.15545 23.2662 3.17361 23.3014 3.19177 23.3367C3.25628 23.4613 3.32294 23.5903 3.3561 23.7195C3.38374 23.8288 3.38374 23.9483 3.38374 24.0748C3.38374 24.1212 3.38374 24.1679 3.3852 24.2137C3.41622 25.3077 3.45694 25.6888 3.63199 26.6663C3.52518 26.3757 3.39107 26.0842 3.21793 25.8038C2.51682 24.669 1.62609 23.8987 0.494899 23.4493C0.422937 23.4203 0.35075 23.3994 0.267058 23.375L0.250365 23.3701C0.216415 23.3602 0.180434 23.3496 0.141972 23.3378C0.107232 23.3264 0.0676414 23.3342 0.0393305 23.3577C0.0111324 23.381 -0.00364342 23.4168 7.87247e-05 23.454C0.00842536 23.5316 0.0141778 23.6071 0.019479 23.6807C0.0310966 23.8422 0.0420375 23.9947 0.0811765 24.1456C0.446173 25.5554 1.05029 26.6783 1.92793 27.5785C2.30319 27.9633 2.69864 28.184 3.13684 28.2531C3.24737 28.2704 3.3825 28.2725 3.61124 28.2583L3.67711 28.2543C3.68715 28.2538 3.69595 28.2532 3.70396 28.2532C3.722 28.2532 3.72347 28.2532 3.73599 28.2717L4.04245 28.6925C4.04639 28.6981 4.05215 28.718 4.05609 28.7318L4.06061 28.7469C4.37868 29.8252 4.77334 30.8638 5.23872 31.8495C5.02927 31.5604 4.79973 31.2965 4.54392 31.0482C3.3675 29.9067 1.35618 29.8737 1.13071 29.8737L1.10262 29.8739L1.08492 29.8772C1.02965 29.8968 0.999758 29.9559 1.01679 30.0115C1.03247 30.064 1.04713 30.117 1.06394 30.1792C1.09608 30.2962 1.12947 30.417 1.17628 30.5339C1.39916 31.0908 1.76043 31.6266 2.31345 32.2206C2.69345 32.6277 3.12183 33.0407 3.67892 33.3018C4.28901 33.5883 4.83989 33.6582 5.38772 33.5179C5.48089 33.4934 5.58804 33.4624 5.68019 33.4026C5.74584 33.3606 5.76377 33.3619 5.82829 33.41C5.90476 33.4668 5.98608 33.5145 6.06504 33.5608C6.10869 33.5864 6.15268 33.6122 6.19374 33.6381C6.20028 33.6437 6.21426 33.6666 6.21945 33.675C6.711 34.4768 7.25252 35.2219 7.83723 35.9015C7.52096 35.6714 7.19623 35.505 6.85132 35.3941C5.79727 35.0545 4.69247 35.0977 3.59827 35.5208C3.43495 35.584 3.25594 35.6799 3.24399 35.6867C3.21895 35.7031 3.20169 35.7298 3.19628 35.7603C3.19154 35.7903 3.19932 35.821 3.2176 35.8445C3.25177 35.8889 3.28482 35.9336 3.31753 35.9779L3.32475 35.9876C3.39863 36.0882 3.48232 36.202 3.57616 36.3029C3.9988 36.756 4.52001 37.0597 5.02036 37.3205C5.70839 37.6775 6.41199 37.8698 7.11175 37.8923C7.14469 37.8935 7.17762 37.8941 7.21045 37.8941C7.85415 37.8941 8.35664 37.682 8.74397 37.2481C8.74871 37.2447 8.76552 37.2382 8.77476 37.2381C8.92275 37.2487 9.0634 37.2703 9.16852 37.2878C9.1851 37.2907 9.20552 37.3006 9.21826 37.3121C9.86535 37.885 10.5507 38.3878 11.2666 38.8158C11.1581 38.7836 11.0463 38.7556 10.9319 38.7332C10.1668 38.5861 9.3861 38.6784 8.52876 39.019C7.95036 39.2496 7.41246 39.5883 6.88425 40.0544C6.84071 40.0927 6.83462 40.1584 6.87049 40.204C7.05739 40.4419 7.30057 40.5751 7.51386 40.6739C8.03406 40.9156 8.62125 41.0704 9.30963 41.1473C9.31166 41.1474 9.53284 41.1666 9.84302 41.1666C10.0669 41.1666 10.2752 41.1565 10.4619 41.1368C10.6404 41.1181 10.8183 41.0875 10.991 41.046C11.7842 40.8529 12.3216 40.4559 12.6296 39.8395C12.6351 39.8342 12.6588 39.8204 12.6888 39.8131C12.8319 39.7775 12.9607 39.7525 13.0832 39.7361C13.1121 39.7315 13.1481 39.7393 13.1934 39.7576C13.7411 39.9686 14.3208 40.1445 14.9151 40.28C14.9234 40.2821 14.9321 40.2831 14.9408 40.2831C14.9807 40.2831 15.0175 40.2611 15.0369 40.2252C15.0936 40.1196 15.1628 40.0184 15.2423 39.9242C15.2672 39.8945 15.2747 39.855 15.2624 39.8185C15.2506 39.7831 15.2209 39.7562 15.1827 39.7473Z" fill="white"/>
<path d="M27.85 25.1905L32.382 20.7728C32.5357 20.623 32.5912 20.3988 32.5247 20.1948C32.4584 19.9905 32.282 19.8416 32.0695 19.8108L25.8069 18.9014L23.0057 13.2265C22.9108 13.0339 22.7147 12.9121 22.5001 12.9121C22.2854 12.9121 22.0893 13.0342 21.9944 13.2265L19.1942 18.9014L12.9307 19.8108C12.7183 19.8416 12.5417 19.9906 12.4754 20.1948C12.409 20.3988 12.4644 20.623 12.6181 20.7728L17.1501 25.1905L16.0808 31.4278C16.0445 31.6393 16.1315 31.8531 16.3052 31.9792C16.4787 32.1054 16.7087 32.1221 16.899 32.0222L22.5003 29.0777L28.1016 32.0222C28.184 32.0656 28.2741 32.0869 28.3638 32.0869C28.4808 32.0869 28.5971 32.0506 28.6953 31.9792C28.869 31.8532 28.9561 31.6393 28.9197 31.4278L27.85 25.1905Z" fill="white"/>
</g>
<defs>
<clipPath id="clip0_1432_3603">
<rect width="45" height="45" fill="white"/>
</clipPath>
</defs>
</svg>
