<svg width="170" height="170" viewBox="0 0 170 170" fill="none" xmlns="http://www.w3.org/2000/svg">
<path d="M84.752 84.7871L94.2575 148.351H75.2464L84.752 84.7871Z" fill="#0D6EFD"/>
<path d="M84.7519 84.7871L75.2464 21.2231L94.2575 21.2231L84.7519 84.7871Z" fill="#0D6EFD"/>
<path d="M84.752 84.7866L21.1879 94.2922L21.1879 75.2811L84.752 84.7866Z" fill="#0D6EFD"/>
<path d="M84.752 84.7876L148.316 75.282L148.316 94.2932L84.752 84.7876Z" fill="#0D6EFD"/>
<path d="M84.752 84.7867L46.5269 136.455L33.084 123.012L84.752 84.7867Z" fill="#0D6EFD"/>
<path d="M84.7519 84.7876L122.977 33.1196L136.42 46.5625L84.7519 84.7876Z" fill="#0D6EFD"/>
<path d="M84.7519 84.7867L33.0839 46.5616L46.5268 33.1187L84.7519 84.7867Z" fill="#0D6EFD"/>
<path d="M84.752 84.7876L136.42 123.013L122.977 136.456L84.752 84.7876Z" fill="#0D6EFD"/>
<path d="M76.6523 25.163C78.0437 15.8583 91.4602 15.8583 92.8517 25.163V25.163C93.592 30.1134 89.7574 34.564 84.752 34.564V34.564C79.7465 34.564 75.9119 30.1134 76.6523 25.163V25.163Z" fill="#0D6EFD"/>
</svg>
