<svg width="50" height="50" viewBox="0 0 50 50" fill="none" xmlns="http://www.w3.org/2000/svg">
<path d="M45.3972 0H4.60283C2.11377 0 0 2.00732 0 4.60293V11.0872C0 13.6827 2.11367 15.6901 4.60283 15.6901H45.3971C47.8861 15.6901 49.9999 13.6827 49.9999 11.0872V4.60293C50 2.00752 47.8864 0 45.3972 0ZM10.8789 9.30986H9.30986C7.36836 9.23779 7.36982 6.45156 9.30986 6.38018H10.8789C12.8204 6.45225 12.8189 9.23857 10.8789 9.30986ZM18.7239 9.30986H17.1549C15.2134 9.23779 15.2148 6.45156 17.1549 6.38018H18.7239C20.6654 6.45225 20.664 9.23857 18.7239 9.30986ZM40.6901 9.30986H31.2761C29.3346 9.23779 29.336 6.45156 31.2761 6.38018H40.6901C42.6315 6.45225 42.6301 9.23857 40.6901 9.30986Z" fill="#794AFF"/>
<path d="M45.3972 18.6211H4.60283C2.11377 18.6211 0 20.6284 0 23.224V29.7083C0 32.3038 2.11367 34.3112 4.60283 34.3112H23.5352V37.6575H20.293C19.484 37.6575 18.8281 38.3134 18.8281 39.1224V42.3645H1.46484C-0.47666 42.4366 -0.475195 45.2229 1.46484 45.2942H18.8281V48.5364C18.8281 49.3454 19.484 50.0013 20.293 50.0013H29.707C30.516 50.0013 31.1719 49.3454 31.1719 48.5364V45.2942H48.5352C50.4767 45.2222 50.4752 42.4359 48.5352 42.3645H31.1719V39.1224C31.1719 38.3134 30.516 37.6575 29.707 37.6575H26.4648V34.3112H45.3972C47.8862 34.3112 50 32.3038 50 29.7083V23.224C50 20.6286 47.8864 18.6211 45.3972 18.6211ZM10.8789 27.931H9.30986C7.36836 27.8589 7.36982 25.0727 9.30986 25.0013H10.8789C12.8204 25.0733 12.8189 27.8597 10.8789 27.931ZM18.7239 27.931H17.1549C15.2134 27.8589 15.2148 25.0727 17.1549 25.0013H18.7239C20.6654 25.0733 20.664 27.8597 18.7239 27.931ZM40.6901 27.931H31.2761C29.3346 27.8589 29.336 25.0727 31.2761 25.0013H40.6901C42.6315 25.0733 42.6301 27.8597 40.6901 27.931Z" fill="url(#paint0_linear_2092_9482)"/>
<defs>
<linearGradient id="paint0_linear_2092_9482" x1="49.1007" y1="20.0739" x2="-2.78949" y2="31.9836" gradientUnits="userSpaceOnUse">
<stop stop-color="#23EFEF"/>
<stop offset="0.349611" stop-color="#37B8BE"/>
<stop offset="0.701514" stop-color="#2DA0FF"/>
<stop offset="1" stop-color="#B172FE"/>
</linearGradient>
</defs>
</svg>
