<svg width="50" height="50" viewBox="0 0 50 50" fill="none" xmlns="http://www.w3.org/2000/svg">
<path d="M10.7759 4.70254V1.45976C10.7039 -0.482109 7.9171 -0.480644 7.8457 1.45976V4.88656C8.24412 4.7674 8.66578 4.70254 9.10248 4.70254H10.7759Z" fill="url(#paint0_linear_2092_3610)"/>
<path d="M7.8457 45.1133V48.5401C7.91779 50.482 10.7045 50.4805 10.7759 48.5401V45.2973H9.10248C8.66578 45.2973 8.24412 45.2324 7.8457 45.1133Z" fill="url(#paint1_linear_2092_3610)"/>
<path d="M23.3306 1.45976C23.2585 -0.482109 20.4718 -0.480644 20.4004 1.45976V4.70254H23.3306V1.45976Z" fill="url(#paint2_linear_2092_3610)"/>
<path d="M20.4004 48.5397C20.4725 50.4815 23.2592 50.4801 23.3306 48.5397V45.2969H20.4004V48.5397Z" fill="url(#paint3_linear_2092_3610)"/>
<path d="M42.1627 4.88666V1.45975C42.0906 -0.482109 39.3038 -0.480644 39.2324 1.45975V4.70254H40.9059C41.3426 4.70264 41.7641 4.7675 42.1627 4.88666Z" fill="url(#paint4_linear_2092_3610)"/>
<path d="M39.2324 45.2973V48.5401C39.3045 50.482 42.0913 50.4805 42.1627 48.5401V45.1133C41.7641 45.2324 41.3426 45.2973 40.9059 45.2973H39.2324Z" fill="url(#paint5_linear_2092_3610)"/>
<path d="M17.0533 1.45976C16.9812 -0.482109 14.1944 -0.480644 14.123 1.45976V4.70254H17.0533V1.45976Z" fill="url(#paint6_linear_2092_3610)"/>
<path d="M14.123 48.5397C14.1951 50.4815 16.9819 50.4801 17.0533 48.5397V45.2969H14.123V48.5397Z" fill="url(#paint7_linear_2092_3610)"/>
<path d="M35.8853 1.45976C35.8132 -0.482109 33.0265 -0.480644 32.9551 1.45976V4.70254H35.8853V1.45976Z" fill="url(#paint8_linear_2092_3610)"/>
<path d="M32.9551 48.5397C33.0272 50.4815 35.8139 50.4801 35.8853 48.5397V45.2969H32.9551V48.5397Z" fill="url(#paint9_linear_2092_3610)"/>
<path d="M29.608 1.45976C29.5359 -0.482109 26.7491 -0.480644 26.6777 1.45976V4.70254H29.608V1.45976Z" fill="url(#paint10_linear_2092_3610)"/>
<path d="M26.6777 48.5397C26.7498 50.4815 29.5366 50.4801 29.608 48.5397V45.2969H26.6777V48.5397Z" fill="url(#paint11_linear_2092_3610)"/>
<path d="M45.3012 10.7701H48.544C50.4859 10.698 50.4844 7.91124 48.544 7.83984H45.1172C45.2364 8.23836 45.3012 8.65992 45.3012 9.09662V10.7701Z" fill="url(#paint12_linear_2092_3610)"/>
<path d="M0 9.30486C0 10.114 0.655981 10.77 1.46512 10.77H4.70791V9.09662C4.70791 8.65992 4.77286 8.23826 4.89192 7.83984H1.46512C0.655981 7.83975 0 8.49573 0 9.30486Z" fill="url(#paint13_linear_2092_3610)"/>
<path d="M48.5436 20.3945H45.3008V23.3248H48.5436C50.4854 23.2527 50.484 20.4658 48.5436 20.3945Z" fill="url(#paint14_linear_2092_3610)"/>
<path d="M1.46561 23.3248H4.7084V20.3945H1.46561C-0.47625 20.4666 -0.474785 23.2534 1.46561 23.3248Z" fill="url(#paint15_linear_2092_3610)"/>
<path d="M48.544 39.2266H45.3012V40.9C45.3012 41.3367 45.2363 41.7584 45.1172 42.1568H48.544C50.4859 42.0848 50.4844 39.298 48.544 39.2266Z" fill="url(#paint16_linear_2092_3610)"/>
<path d="M4.7084 39.2266H1.46561C-0.47625 39.2986 -0.474785 42.0854 1.46561 42.1568H4.89242C4.77326 41.7583 4.7084 41.3367 4.7084 40.9V39.2266Z" fill="url(#paint17_linear_2092_3610)"/>
<path d="M48.5436 14.1172H45.3008V17.0474H48.5436C50.4854 16.9753 50.484 14.1886 48.5436 14.1172Z" fill="url(#paint18_linear_2092_3610)"/>
<path d="M1.46561 17.0474H4.7084V14.1172H1.46561C-0.47625 14.1893 -0.474785 16.976 1.46561 17.0474Z" fill="url(#paint19_linear_2092_3610)"/>
<path d="M48.5436 32.9492H45.3008V35.8794H48.5436C50.4854 35.8074 50.484 33.0206 48.5436 32.9492Z" fill="url(#paint20_linear_2092_3610)"/>
<path d="M1.46561 35.8794H4.7084V32.9492H1.46561C-0.47625 33.0213 -0.474785 35.808 1.46561 35.8794Z" fill="url(#paint21_linear_2092_3610)"/>
<path d="M48.5436 26.6719H45.3008V29.6021H48.5436C50.4854 29.53 50.484 26.7433 48.5436 26.6719Z" fill="url(#paint22_linear_2092_3610)"/>
<path d="M1.46561 29.6021H4.7084V26.6719H1.46561C-0.47625 26.744 -0.474785 29.5307 1.46561 29.6021Z" fill="url(#paint23_linear_2092_3610)"/>
<path d="M33.397 23.4146C32.926 23.2522 32.5698 22.8616 32.4513 22.3776C32.3329 21.8937 32.4686 21.3827 32.8114 21.0212C33.8767 19.9097 32.9521 18.0349 31.4147 18.2073C30.6212 18.2925 29.9052 17.7277 29.8043 16.9361C29.4819 14.8809 26.5281 15.0686 26.4707 17.151V32.844C26.5288 34.9274 29.4822 35.1133 29.8043 33.0589C29.9053 32.2674 30.6213 31.7016 31.4147 31.7877C32.9533 31.9598 33.8761 30.0846 32.8114 28.9738C32.4686 28.6123 32.3329 28.1014 32.4513 27.6174C32.5697 27.1334 32.9259 26.7428 33.397 26.5804C34.892 26.0646 34.8913 23.9299 33.397 23.4146Z" fill="url(#paint24_linear_2092_3610)"/>
<path d="M21.866 15.4805C21.0256 15.4805 20.3119 16.1075 20.2058 16.939C20.1048 17.7306 19.3889 18.2954 18.5955 18.2103C17.0573 18.0381 16.1339 19.913 17.1987 21.0242C17.5416 21.3857 17.6772 21.8966 17.5589 22.3806C17.4405 22.8646 17.0843 23.2552 16.6132 23.4176C15.1182 23.9333 15.1189 26.0681 16.6132 26.5834C17.0842 26.7458 17.4404 27.1364 17.5589 27.6204C17.6772 28.1044 17.5416 28.6153 17.1987 28.9768C16.1337 30.0881 17.0577 31.963 18.5955 31.7907C19.3889 31.7047 20.1049 32.2704 20.2058 33.062C20.5283 35.1171 23.482 34.9295 23.5395 32.8471V17.1539C23.5395 16.2312 22.7887 15.4805 21.866 15.4805Z" fill="url(#paint25_linear_2092_3610)"/>
<path d="M40.9066 7.63281H9.10379C8.29465 7.63281 7.63867 8.28879 7.63867 9.09793V40.9007C7.63867 41.7098 8.29465 42.3658 9.10379 42.3658H40.9066C41.7157 42.3658 42.3717 41.7098 42.3717 40.9007V9.09793C42.3717 8.2887 41.7157 7.63281 40.9066 7.63281ZM36.1999 30.1257C36.1999 32.399 34.5434 34.2929 32.374 34.6636C31.1811 37.5491 27.2616 38.3889 25.0052 36.2094C22.7479 38.3897 18.8284 37.548 17.6363 34.6636C14.8523 34.2401 13.037 31.1192 14.1213 28.4591C12.0502 26.7115 12.0506 23.2867 14.1213 21.5394C13.037 18.8789 14.8526 15.7583 17.6363 15.3349C18.8291 12.4494 22.7488 11.6095 25.0052 13.7891C27.2623 11.6088 31.1819 12.4505 32.374 15.3349C35.158 15.7584 36.9733 18.8793 35.889 21.5394C37.9602 23.2871 37.9597 26.7118 35.889 28.4591C36.0932 28.9845 36.1999 29.5481 36.1999 30.1257Z" fill="#794AFF"/>
<defs>
<linearGradient id="paint0_linear_2092_3610" x1="10.7232" y1="0.229956" x2="7.54578" y2="0.504637" gradientUnits="userSpaceOnUse">
<stop stop-color="#23EFEF"/>
<stop offset="0.349611" stop-color="#37B8BE"/>
<stop offset="0.701514" stop-color="#2DA0FF"/>
<stop offset="1" stop-color="#B172FE"/>
</linearGradient>
<linearGradient id="paint1_linear_2092_3610" x1="10.7232" y1="45.3393" x2="7.54578" y2="45.614" gradientUnits="userSpaceOnUse">
<stop stop-color="#23EFEF"/>
<stop offset="0.349611" stop-color="#37B8BE"/>
<stop offset="0.701514" stop-color="#2DA0FF"/>
<stop offset="1" stop-color="#B172FE"/>
</linearGradient>
<linearGradient id="paint2_linear_2092_3610" x1="23.2779" y1="0.221436" x2="20.1023" y2="0.506706" gradientUnits="userSpaceOnUse">
<stop stop-color="#23EFEF"/>
<stop offset="0.349611" stop-color="#37B8BE"/>
<stop offset="0.701514" stop-color="#2DA0FF"/>
<stop offset="1" stop-color="#B172FE"/>
</linearGradient>
<linearGradient id="paint3_linear_2092_3610" x1="23.2779" y1="45.5144" x2="20.1023" y2="45.7997" gradientUnits="userSpaceOnUse">
<stop stop-color="#23EFEF"/>
<stop offset="0.349611" stop-color="#37B8BE"/>
<stop offset="0.701514" stop-color="#2DA0FF"/>
<stop offset="1" stop-color="#B172FE"/>
</linearGradient>
<linearGradient id="paint4_linear_2092_3610" x1="42.11" y1="0.22996" x2="38.9325" y2="0.504636" gradientUnits="userSpaceOnUse">
<stop stop-color="#23EFEF"/>
<stop offset="0.349611" stop-color="#37B8BE"/>
<stop offset="0.701514" stop-color="#2DA0FF"/>
<stop offset="1" stop-color="#B172FE"/>
</linearGradient>
<linearGradient id="paint5_linear_2092_3610" x1="42.11" y1="45.3393" x2="38.9325" y2="45.614" gradientUnits="userSpaceOnUse">
<stop stop-color="#23EFEF"/>
<stop offset="0.349611" stop-color="#37B8BE"/>
<stop offset="0.701514" stop-color="#2DA0FF"/>
<stop offset="1" stop-color="#B172FE"/>
</linearGradient>
<linearGradient id="paint6_linear_2092_3610" x1="17.0006" y1="0.221436" x2="13.825" y2="0.506706" gradientUnits="userSpaceOnUse">
<stop stop-color="#23EFEF"/>
<stop offset="0.349611" stop-color="#37B8BE"/>
<stop offset="0.701514" stop-color="#2DA0FF"/>
<stop offset="1" stop-color="#B172FE"/>
</linearGradient>
<linearGradient id="paint7_linear_2092_3610" x1="17.0006" y1="45.5144" x2="13.825" y2="45.7997" gradientUnits="userSpaceOnUse">
<stop stop-color="#23EFEF"/>
<stop offset="0.349611" stop-color="#37B8BE"/>
<stop offset="0.701514" stop-color="#2DA0FF"/>
<stop offset="1" stop-color="#B172FE"/>
</linearGradient>
<linearGradient id="paint8_linear_2092_3610" x1="35.8326" y1="0.221436" x2="32.657" y2="0.506706" gradientUnits="userSpaceOnUse">
<stop stop-color="#23EFEF"/>
<stop offset="0.349611" stop-color="#37B8BE"/>
<stop offset="0.701514" stop-color="#2DA0FF"/>
<stop offset="1" stop-color="#B172FE"/>
</linearGradient>
<linearGradient id="paint9_linear_2092_3610" x1="35.8326" y1="45.5144" x2="32.657" y2="45.7997" gradientUnits="userSpaceOnUse">
<stop stop-color="#23EFEF"/>
<stop offset="0.349611" stop-color="#37B8BE"/>
<stop offset="0.701514" stop-color="#2DA0FF"/>
<stop offset="1" stop-color="#B172FE"/>
</linearGradient>
<linearGradient id="paint10_linear_2092_3610" x1="29.5553" y1="0.221436" x2="26.3797" y2="0.506706" gradientUnits="userSpaceOnUse">
<stop stop-color="#23EFEF"/>
<stop offset="0.349611" stop-color="#37B8BE"/>
<stop offset="0.701514" stop-color="#2DA0FF"/>
<stop offset="1" stop-color="#B172FE"/>
</linearGradient>
<linearGradient id="paint11_linear_2092_3610" x1="29.5553" y1="45.5144" x2="26.3797" y2="45.7997" gradientUnits="userSpaceOnUse">
<stop stop-color="#23EFEF"/>
<stop offset="0.349611" stop-color="#37B8BE"/>
<stop offset="0.701514" stop-color="#2DA0FF"/>
<stop offset="1" stop-color="#B172FE"/>
</linearGradient>
<linearGradient id="paint12_linear_2092_3610" x1="49.912" y1="7.9755" x2="44.8684" y2="9.1861" gradientUnits="userSpaceOnUse">
<stop stop-color="#23EFEF"/>
<stop offset="0.349611" stop-color="#37B8BE"/>
<stop offset="0.701514" stop-color="#2DA0FF"/>
<stop offset="1" stop-color="#B172FE"/>
</linearGradient>
<linearGradient id="paint13_linear_2092_3610" x1="4.80394" y1="7.9755" x2="-0.248173" y2="9.19048" gradientUnits="userSpaceOnUse">
<stop stop-color="#23EFEF"/>
<stop offset="0.349611" stop-color="#37B8BE"/>
<stop offset="0.701514" stop-color="#2DA0FF"/>
<stop offset="1" stop-color="#B172FE"/>
</linearGradient>
<linearGradient id="paint14_linear_2092_3610" x1="49.9149" y1="20.5302" x2="45.0418" y2="21.6558" gradientUnits="userSpaceOnUse">
<stop stop-color="#23EFEF"/>
<stop offset="0.349611" stop-color="#37B8BE"/>
<stop offset="0.701514" stop-color="#2DA0FF"/>
<stop offset="1" stop-color="#B172FE"/>
</linearGradient>
<linearGradient id="paint15_linear_2092_3610" x1="4.6239" y1="20.5302" x2="-0.249256" y2="21.6558" gradientUnits="userSpaceOnUse">
<stop stop-color="#23EFEF"/>
<stop offset="0.349611" stop-color="#37B8BE"/>
<stop offset="0.701514" stop-color="#2DA0FF"/>
<stop offset="1" stop-color="#B172FE"/>
</linearGradient>
<linearGradient id="paint16_linear_2092_3610" x1="49.912" y1="39.3622" x2="44.8684" y2="40.5728" gradientUnits="userSpaceOnUse">
<stop stop-color="#23EFEF"/>
<stop offset="0.349611" stop-color="#37B8BE"/>
<stop offset="0.701514" stop-color="#2DA0FF"/>
<stop offset="1" stop-color="#B172FE"/>
</linearGradient>
<linearGradient id="paint17_linear_2092_3610" x1="4.8046" y1="39.3622" x2="-0.238999" y2="40.5728" gradientUnits="userSpaceOnUse">
<stop stop-color="#23EFEF"/>
<stop offset="0.349611" stop-color="#37B8BE"/>
<stop offset="0.701514" stop-color="#2DA0FF"/>
<stop offset="1" stop-color="#B172FE"/>
</linearGradient>
<linearGradient id="paint18_linear_2092_3610" x1="49.9149" y1="14.2528" x2="45.0418" y2="15.3784" gradientUnits="userSpaceOnUse">
<stop stop-color="#23EFEF"/>
<stop offset="0.349611" stop-color="#37B8BE"/>
<stop offset="0.701514" stop-color="#2DA0FF"/>
<stop offset="1" stop-color="#B172FE"/>
</linearGradient>
<linearGradient id="paint19_linear_2092_3610" x1="4.6239" y1="14.2528" x2="-0.249256" y2="15.3784" gradientUnits="userSpaceOnUse">
<stop stop-color="#23EFEF"/>
<stop offset="0.349611" stop-color="#37B8BE"/>
<stop offset="0.701514" stop-color="#2DA0FF"/>
<stop offset="1" stop-color="#B172FE"/>
</linearGradient>
<linearGradient id="paint20_linear_2092_3610" x1="49.9149" y1="33.0849" x2="45.0418" y2="34.2105" gradientUnits="userSpaceOnUse">
<stop stop-color="#23EFEF"/>
<stop offset="0.349611" stop-color="#37B8BE"/>
<stop offset="0.701514" stop-color="#2DA0FF"/>
<stop offset="1" stop-color="#B172FE"/>
</linearGradient>
<linearGradient id="paint21_linear_2092_3610" x1="4.6239" y1="33.0849" x2="-0.249256" y2="34.2105" gradientUnits="userSpaceOnUse">
<stop stop-color="#23EFEF"/>
<stop offset="0.349611" stop-color="#37B8BE"/>
<stop offset="0.701514" stop-color="#2DA0FF"/>
<stop offset="1" stop-color="#B172FE"/>
</linearGradient>
<linearGradient id="paint22_linear_2092_3610" x1="49.9149" y1="26.8075" x2="45.0418" y2="27.9331" gradientUnits="userSpaceOnUse">
<stop stop-color="#23EFEF"/>
<stop offset="0.349611" stop-color="#37B8BE"/>
<stop offset="0.701514" stop-color="#2DA0FF"/>
<stop offset="1" stop-color="#B172FE"/>
</linearGradient>
<linearGradient id="paint23_linear_2092_3610" x1="4.6239" y1="26.8075" x2="-0.249256" y2="27.9331" gradientUnits="userSpaceOnUse">
<stop stop-color="#23EFEF"/>
<stop offset="0.349611" stop-color="#37B8BE"/>
<stop offset="0.701514" stop-color="#2DA0FF"/>
<stop offset="1" stop-color="#B172FE"/>
</linearGradient>
<linearGradient id="paint24_linear_2092_3610" x1="34.3732" y1="16.3688" x2="25.6143" y2="16.9026" gradientUnits="userSpaceOnUse">
<stop stop-color="#23EFEF"/>
<stop offset="0.349611" stop-color="#37B8BE"/>
<stop offset="0.701514" stop-color="#2DA0FF"/>
<stop offset="1" stop-color="#B172FE"/>
</linearGradient>
<linearGradient id="paint25_linear_2092_3610" x1="23.3947" y1="16.3615" x2="14.6358" y2="16.895" gradientUnits="userSpaceOnUse">
<stop stop-color="#23EFEF"/>
<stop offset="0.349611" stop-color="#37B8BE"/>
<stop offset="0.701514" stop-color="#2DA0FF"/>
<stop offset="1" stop-color="#B172FE"/>
</linearGradient>
</defs>
</svg>
