<svg width="50" height="50" viewBox="0 0 50 50" fill="none" xmlns="http://www.w3.org/2000/svg">
<path d="M16.25 15.4805H29.0104V28.2409H16.25V15.4805Z" fill="#794AFF"/>
<path d="M48.9051 27.2593L44.4855 21.3666C44.2212 9.53972 34.5184 0.000323488 22.6292 0.000323488C2.7702 -0.103875 -6.82125 24.9901 8.03042 38.1305L5.51814 48.1799C5.40876 48.6175 5.5071 49.0812 5.78464 49.4367C6.06227 49.7922 6.48815 50 6.93922 50H27.3363C28.0084 50 28.5944 49.5425 28.7574 48.8905L30.0059 43.8961L39.6811 45.2782C40.4238 45.3843 41.1273 44.9116 41.3093 44.1834L44.31 32.1808L48.5458 29.3569C48.8809 29.1336 49.1091 28.7822 49.1771 28.3854C49.245 27.9887 49.1467 27.5814 48.9051 27.2593ZM33.6122 23.5353C35.5537 23.6074 35.5522 26.3936 33.6122 26.465H31.9391V29.7072C31.9391 30.5162 31.2832 31.172 30.4742 31.172H27.2321V32.8451C27.16 34.7866 24.3738 34.7852 24.3024 32.8451V31.172H20.956V32.8451C20.884 34.7866 18.0977 34.7852 18.0264 32.8451V31.172H14.7842C13.9752 31.172 13.3194 30.5162 13.3194 29.7072V26.465H11.6461C9.70463 26.3929 9.7061 23.6067 11.6461 23.5353H13.3194V20.189H11.6461C9.70463 20.1169 9.7061 17.3307 11.6461 17.2593H13.3194V14.0171C13.3194 13.2082 13.9752 12.5523 14.7842 12.5523H18.0264V10.8792C18.0984 8.93767 20.8846 8.93914 20.956 10.8792V12.5523H24.3024V10.8792C24.3745 8.93767 27.1607 8.93914 27.2321 10.8792V12.5523H30.4742C31.2832 12.5523 31.9391 13.2082 31.9391 14.0171V17.2593H33.6122C35.5537 17.3314 35.5522 20.1176 33.6122 20.189H31.9391V23.5353H33.6122Z" fill="url(#paint0_linear_2092_5927)"/>
<defs>
<linearGradient id="paint0_linear_2092_5927" x1="48.3276" y1="2.31482" x2="-3.53691" y2="9.54626" gradientUnits="userSpaceOnUse">
<stop stop-color="#23EFEF"/>
<stop offset="0.349611" stop-color="#37B8BE"/>
<stop offset="0.701514" stop-color="#2DA0FF"/>
<stop offset="1" stop-color="#B172FE"/>
</linearGradient>
</defs>
</svg>
