<svg width="46" height="50" viewBox="0 0 46 50" fill="none" xmlns="http://www.w3.org/2000/svg">
<path d="M5.73279 17.0573C6.46882 17.0573 7.1645 16.8829 7.78213 16.5744L10.2515 19.0439H13.4766V18.7312C13.4766 18.3425 13.3223 17.9698 13.0474 17.6951L9.85443 14.5021C11.3951 11.5218 9.10276 7.80322 5.73259 7.84806C-0.367164 8.0793 -0.366089 16.8267 5.73279 17.0573Z" fill="url(#paint0_linear_2092_9493)"/>
<path d="M32.9508 17.6952C32.6759 17.97 32.5215 18.3427 32.5215 18.7313V19.044H35.7467L38.216 16.5745C41.1961 18.1152 44.9151 15.823 44.87 12.4527C44.87 9.91371 42.8044 7.84806 40.2654 7.84806C36.8956 7.80331 34.6025 11.522 36.1436 14.5021L32.9508 17.6952Z" fill="#794AFF"/>
<path d="M27.6047 16.1989L30.3146 13.489C30.5894 13.2143 30.7439 12.8415 30.7439 12.4528V8.96885C35.6172 7.24904 34.5093 0.102677 29.2784 0C24.0467 0.103165 22.9405 7.25001 27.813 8.96885V11.8459L25.1031 14.5558C24.8283 14.8305 24.6738 15.2033 24.6738 15.592V19.0439H27.6047V16.1989Z" fill="url(#paint1_linear_2092_9493)"/>
<path d="M15.2559 8.96885V12.4528C15.2559 12.8416 15.4104 13.2143 15.6852 13.489L18.3953 16.1989V19.0439H21.3261V15.5921C21.3261 15.2033 21.1716 14.8306 20.8968 14.5559L18.1868 11.846V8.96885C23.0602 7.24904 21.9522 0.102677 16.7214 0C11.4896 0.103165 10.3834 7.25001 15.2559 8.96885Z" fill="#794AFF"/>
<path d="M45.8021 43.3655L43.8903 28.0726C43.4568 24.5975 40.4884 21.9766 36.9857 21.9766H9.01336C5.51061 21.9766 2.54226 24.5975 2.10869 28.0726L0.196908 43.3655C-0.537267 50.0109 8.4184 52.6166 11.4352 46.7073L12.9177 43.7428H33.0814L34.5639 46.7073C37.5834 52.6197 46.5374 50.0066 45.8021 43.3655ZM15.1513 34.3251H14.2623V35.2142C14.1902 37.1564 11.4029 37.155 11.3315 35.2142V34.3251H10.4424C8.50017 34.253 8.50163 31.4656 10.4424 31.3942H11.3315V30.5052C11.4036 28.5629 14.1909 28.5644 14.2623 30.5052V31.3942H15.1513C17.0936 31.4663 17.0921 34.2536 15.1513 34.3251ZM24.5691 34.3251H21.4299C19.4876 34.253 19.4891 31.4656 21.4299 31.3942H24.5691C26.5113 31.4663 26.5099 34.2536 24.5691 34.3251ZM35.5565 34.3251H34.6675V35.2142C34.5954 37.1564 31.808 37.155 31.7366 35.2142V34.3251H30.8475C28.9052 34.253 28.9067 31.4656 30.8475 31.3942H31.7366V30.5052C31.8087 28.5629 34.5961 28.5644 34.6675 30.5052V31.3942H35.5565C37.4988 31.4663 37.4973 34.2536 35.5565 34.3251Z" fill="url(#paint2_linear_2092_9493)"/>
<defs>
<linearGradient id="paint0_linear_2092_9493" x1="13.2551" y1="8.366" x2="0.127247" y2="10.4466" gradientUnits="userSpaceOnUse">
<stop stop-color="#23EFEF"/>
<stop offset="0.349611" stop-color="#37B8BE"/>
<stop offset="0.701514" stop-color="#2DA0FF"/>
<stop offset="1" stop-color="#B172FE"/>
</linearGradient>
<linearGradient id="paint1_linear_2092_9493" x1="33.696" y1="0.881665" x2="23.7072" y2="1.57581" gradientUnits="userSpaceOnUse">
<stop stop-color="#23EFEF"/>
<stop offset="0.349611" stop-color="#37B8BE"/>
<stop offset="0.701514" stop-color="#2DA0FF"/>
<stop offset="1" stop-color="#B172FE"/>
</linearGradient>
<linearGradient id="paint2_linear_2092_9493" x1="45.0231" y1="23.274" x2="-2.28361" y2="34.3838" gradientUnits="userSpaceOnUse">
<stop stop-color="#23EFEF"/>
<stop offset="0.349611" stop-color="#37B8BE"/>
<stop offset="0.701514" stop-color="#2DA0FF"/>
<stop offset="1" stop-color="#B172FE"/>
</linearGradient>
</defs>
</svg>
