<svg width="50" height="50" viewBox="0 0 50 50" fill="none" xmlns="http://www.w3.org/2000/svg">
<path d="M20.3904 21.7539C19.4618 21.7539 18.7148 22.5065 18.7148 23.4295V25.1052H22.0661V23.4295C22.066 22.5028 21.3155 21.7539 20.3904 21.7539Z" fill="url(#paint0_linear_2092_5919)"/>
<path d="M42.669 30.6006H44.4358C51.8574 30.3181 51.8518 19.6792 44.4358 19.3994H42.669C40.7248 19.3269 40.7258 16.5373 42.669 16.4654C44.7829 16.4654 46.5027 14.7456 46.5027 12.6317C46.5027 9.54353 43.9902 7.03108 40.902 7.03108H40.3822C39.7539 9.07488 37.8486 10.5649 35.6013 10.5649C34.7912 10.5649 34.1344 9.90812 34.1344 9.09796C34.1344 8.2878 34.7912 7.63098 35.6013 7.63098C36.741 7.63098 37.6682 6.70385 37.6682 5.5641C37.3875 -1.85452 26.7474 -1.85442 26.4669 5.5641V14.0009C26.3948 15.9452 23.6045 15.9438 23.533 14.0009V5.5641C23.2509 -1.85579 12.6125 -1.85364 12.3318 5.5642C12.3318 6.70385 13.259 7.63098 14.3986 7.63098C15.2087 7.63098 15.8655 8.2878 15.8655 9.09796C15.8655 9.90812 15.2087 10.5649 14.3986 10.5649C12.1514 10.5649 10.2461 9.07488 9.61777 7.03108H9.09787C6.00968 7.03108 3.49723 9.54353 3.49723 12.6317C3.49723 14.7456 5.21702 16.4654 7.33094 16.4654C9.27381 16.5364 9.27499 19.3278 7.33094 19.3994H5.56411C-1.85754 19.6818 -1.85187 30.3209 5.56411 30.6006H7.33104C9.27518 30.673 9.27421 33.4627 7.33104 33.5345C5.21712 33.5345 3.49733 35.2543 3.49733 37.3683C3.49733 40.4564 6.00978 42.9689 9.09797 42.9689H9.61787C10.2463 40.9251 12.1515 39.4351 14.3987 39.4351C15.2088 39.4351 15.8656 40.0919 15.8656 40.9021C15.8656 41.7123 15.2088 42.3691 14.3987 42.3691C13.259 42.3691 12.3319 43.2962 12.3319 44.4359C12.6126 51.8546 23.2526 51.8544 23.5331 44.4359V35.9991C23.6052 34.0547 26.3955 34.0562 26.467 35.9991V44.4359C26.7491 51.8559 37.3875 51.8536 37.6683 44.4358C37.6683 43.2962 36.7411 42.369 35.6014 42.369C34.7913 42.369 34.1344 41.7122 34.1344 40.902C34.1344 40.0919 34.7913 39.435 35.6014 39.435C37.8486 39.435 39.7539 40.9251 40.3823 42.9688H40.9021C43.9903 42.9688 46.5028 40.4564 46.5028 37.3682C46.5028 35.2542 44.783 33.5344 42.6691 33.5344C40.7261 33.4634 40.7249 30.6722 42.669 30.6006ZM24.9999 29.7138C24.9278 31.6582 22.1375 31.6567 22.066 29.7138V28.0383H18.7147V29.7138C18.6425 31.6582 15.8522 31.6567 15.7808 29.7138V23.4286C16.0195 17.2908 24.7904 17.3514 24.9999 23.4286V29.7138ZM32.8565 28.2469C34.8008 28.319 34.7994 31.1093 32.8565 31.1808H28.1426C26.1983 31.1086 26.1997 28.3183 28.1426 28.2469H29.0326V21.753H28.1426C26.1983 21.6808 26.1997 18.8905 28.1426 18.8191H32.8565C34.8008 18.8912 34.7994 21.6815 32.8565 21.753H31.9665V28.2469H32.8565Z" fill="url(#paint1_linear_2092_5919)"/>
<defs>
<linearGradient id="paint0_linear_2092_5919" x1="22.0058" y1="21.9091" x2="18.4191" y2="22.4257" gradientUnits="userSpaceOnUse">
<stop stop-color="#23EFEF"/>
<stop offset="0.349611" stop-color="#37B8BE"/>
<stop offset="0.701514" stop-color="#2DA0FF"/>
<stop offset="1" stop-color="#B172FE"/>
</linearGradient>
<linearGradient id="paint1_linear_2092_5919" x1="49.1006" y1="2.31482" x2="-4.41262" y2="10.0232" gradientUnits="userSpaceOnUse">
<stop stop-color="#23EFEF"/>
<stop offset="0.349611" stop-color="#37B8BE"/>
<stop offset="0.701514" stop-color="#2DA0FF"/>
<stop offset="1" stop-color="#B172FE"/>
</linearGradient>
</defs>
</svg>
