<svg width="50" height="50" viewBox="0 0 50 50" fill="none" xmlns="http://www.w3.org/2000/svg">
<path d="M29.6021 23.4257V21.7526H32.8442C33.6531 21.7526 34.309 21.0967 34.309 20.2877V17.0455H35.9822C37.9237 16.9734 37.9223 14.1872 35.9822 14.1158H34.309V10.7694H35.9822C37.9237 10.6974 37.9223 7.91115 35.9822 7.83976H34.309V4.59757C34.309 3.78859 33.6531 3.13273 32.8442 3.13273H29.6021V1.45948C29.53 -0.482019 26.7438 -0.480554 26.6724 1.45948V3.13263H23.326V1.45948C23.2539 -0.482019 20.4677 -0.480554 20.3963 1.45948V3.13263H17.1541C16.3451 3.13263 15.6893 3.78849 15.6893 4.59747V7.83966H14.0161C12.0746 7.91173 12.0761 10.698 14.0161 10.7693H15.6893V14.1157H14.0161C12.0746 14.1878 12.0761 16.974 14.0161 17.0454H15.6893V20.2876C15.6893 21.0966 16.3451 21.7525 17.1541 21.7525H20.3963V23.4256C20.4684 25.3671 23.2546 25.3656 23.326 23.4256V21.7525H26.6724V23.4256C26.7444 25.3671 29.5307 25.3656 29.6021 23.4257Z" fill="#794AFF"/>
<path d="M15.623 24.5291C13.1419 22.0479 9.20576 23.9546 9.20576 27.1806C9.20576 27.5733 9.36172 27.95 9.63945 28.2277L15.0529 33.6423C15.6249 34.2144 15.6248 35.1419 15.0527 35.7139C14.4805 36.2859 13.553 36.2856 12.9812 35.7137L6.74316 29.4743C6.45586 29.2069 6.27617 28.8254 6.27617 28.402V12.6733C6.27617 10.0039 4.11211 7.83984 1.44268 7.83984C0.642285 7.84209 0 8.50439 0 9.30469V29.7019C0 30.9311 0.478906 32.0869 1.34844 32.9565L8.54336 40.1521C9.10488 40.7135 9.41406 41.4599 9.41406 42.2538V48.5301C9.41406 49.3391 10.0699 49.9949 10.8789 49.9949H18.7239C19.5329 49.9949 20.1888 49.3391 20.1888 48.5301V42.8347C23.7917 38.9322 23.6014 32.3535 19.7605 28.6671L15.623 24.5291Z" fill="url(#paint0_linear_2092_9508)"/>
<path d="M48.5567 7.83984C45.8873 7.83984 43.7232 10.0039 43.7232 12.6733V28.402C43.7232 28.8254 43.5435 29.2069 43.2562 29.4743L37.0182 35.7137C36.4463 36.2857 35.5188 36.2859 34.9467 35.7139C34.3746 35.1419 34.3745 34.2144 34.9465 33.6423L40.3599 28.2277C40.6377 27.95 40.7936 27.5733 40.7936 27.1806C40.7936 23.9546 36.8575 22.0479 34.3763 24.5291L30.2388 28.667C26.3978 32.3534 26.2079 38.9323 29.8106 42.8346V48.53C29.8106 49.339 30.4665 49.9948 31.2755 49.9948H39.1203C39.9293 49.9948 40.5851 49.339 40.5851 48.53V42.2537C40.5851 41.4599 40.8944 40.7135 41.4558 40.1521L48.6508 32.9564C49.5203 32.0869 49.9992 30.9311 49.9992 29.7018V9.30469C49.9992 8.50439 49.3569 7.84209 48.5567 7.83984Z" fill="url(#paint1_linear_2092_9508)"/>
<defs>
<linearGradient id="paint0_linear_2092_9508" x1="22.3613" y1="9.79147" x2="-2.36557" y2="11.7155" gradientUnits="userSpaceOnUse">
<stop stop-color="#23EFEF"/>
<stop offset="0.349611" stop-color="#37B8BE"/>
<stop offset="0.701514" stop-color="#2DA0FF"/>
<stop offset="1" stop-color="#B172FE"/>
</linearGradient>
<linearGradient id="paint1_linear_2092_9508" x1="49.5897" y1="9.79147" x2="24.863" y2="11.7154" gradientUnits="userSpaceOnUse">
<stop stop-color="#23EFEF"/>
<stop offset="0.349611" stop-color="#37B8BE"/>
<stop offset="0.701514" stop-color="#2DA0FF"/>
<stop offset="1" stop-color="#B172FE"/>
</linearGradient>
</defs>
</svg>
