<svg width="50" height="50" viewBox="0 0 50 50" fill="none" xmlns="http://www.w3.org/2000/svg">
<path d="M48.7287 20.4101L44.6363 19.8644C44.1678 18.0676 43.457 16.3542 42.5143 14.7493L45.0243 11.4668C45.4703 10.8836 45.4157 10.0604 44.8965 9.54121L40.4588 5.10332C39.9397 4.58408 39.1163 4.52959 38.5331 4.97559L35.2508 7.48603C33.6461 6.54297 31.9326 5.83213 30.1356 5.36406L29.59 1.27148C29.4931 0.543457 28.8723 0 28.1381 0H21.8619C21.1276 0 20.5069 0.543457 20.41 1.27129L19.8643 5.36387C18.0681 5.83193 16.3547 6.54287 14.7494 7.48594L11.4669 4.97539C10.8838 4.5293 10.0604 4.58389 9.54121 5.10313L5.10352 9.54111C4.58437 10.0603 4.52969 10.8835 4.97568 11.4667L7.48574 14.7491C6.54297 16.3537 5.83203 18.0674 5.36367 19.8643L1.27129 20.41C0.543457 20.507 0 21.1278 0 21.862V28.1381C0 28.8723 0.543457 29.4931 1.27129 29.59L5.36367 30.1357C5.83223 31.9325 6.54297 33.6459 7.48574 35.2508L4.97568 38.5333C4.52969 39.1165 4.58428 39.9397 5.10352 40.4589L9.54121 44.8968C10.0603 45.416 10.8838 45.4705 11.4669 45.0245L14.7492 42.5141C16.3539 43.4571 18.0674 44.168 19.8644 44.636L20.41 48.7286C20.5069 49.4563 21.1277 49.9999 21.8619 49.9999H28.1381C28.8724 49.9999 29.4931 49.4564 29.59 48.7286L30.1357 44.636C31.9319 44.168 33.6453 43.457 35.2506 42.514L38.5331 45.0245C39.1161 45.4705 39.9396 45.416 40.4588 44.8968L44.8965 40.4589C45.4156 39.9397 45.4703 39.1165 45.0243 38.5333L42.5143 35.2509C43.457 33.6463 44.1681 31.9326 44.6363 30.1357L48.7287 29.59C49.4564 29.493 50 28.8723 50 28.1381V21.862C50 21.1278 49.4565 20.507 48.7287 20.4101ZM36.1927 30.1254C36.1927 32.3983 34.5364 34.2919 32.3675 34.6625C31.1749 37.5475 27.256 38.3871 25 36.208C22.7432 38.3879 18.8244 37.5464 17.6325 34.6625C14.849 34.2391 13.0341 31.1187 14.1182 28.4592C12.0475 26.7118 12.0479 23.2877 14.1182 21.5407C13.0341 18.8808 14.8493 15.7607 17.6325 15.3374C18.8251 12.4524 22.744 11.6127 25 13.7919C27.2567 11.6119 31.1756 12.4535 32.3675 15.3374C35.151 15.7608 36.9659 18.8812 35.8818 21.5407C37.9526 23.2881 37.9521 26.7122 35.8818 28.4592C36.0859 28.9846 36.1927 29.548 36.1927 30.1254Z" fill="url(#paint0_linear_2092_453)"/>
<path d="M33.3898 23.4171C32.9189 23.2547 32.5628 22.8642 32.4443 22.3803C32.326 21.8964 32.4616 21.3855 32.8044 21.0241C33.8694 19.9128 32.945 18.0384 31.4079 18.2107C30.6146 18.2959 29.8987 17.7311 29.7979 16.9397C29.4755 14.885 26.5223 15.0725 26.4648 17.1546V32.8447C26.5229 34.9277 29.4758 35.1136 29.7979 33.0596C29.8988 32.2682 30.6146 31.7025 31.4079 31.7886C32.9462 31.9606 33.8688 30.0858 32.8044 28.9752C32.4616 28.6138 32.326 28.1029 32.4443 27.619C32.5627 27.1351 32.9188 26.7446 33.3898 26.5822C34.8846 26.0666 34.8839 23.9323 33.3898 23.4171Z" fill="#794AFF"/>
<path d="M21.8629 15.4805C21.0226 15.4805 20.3091 16.1074 20.203 16.9388C20.102 17.7302 19.3862 18.2949 18.593 18.2098C17.0551 18.0376 16.1318 19.9122 17.1965 21.0231C17.5392 21.3846 17.6749 21.8954 17.5565 22.3793C17.4382 22.8632 17.082 23.2537 16.611 23.4161C15.1163 23.9317 15.117 26.0661 16.611 26.5813C17.0819 26.7437 17.4381 27.1343 17.5565 27.6182C17.6749 28.102 17.5392 28.6129 17.1965 28.9743C16.1316 30.0854 17.0555 31.96 18.593 31.7877C19.3862 31.7017 20.1021 32.2673 20.203 33.0587C20.5254 35.1135 23.4786 34.9259 23.536 32.8438V17.1537C23.536 16.2311 22.7854 15.4805 21.8629 15.4805Z" fill="#794AFF"/>
<defs>
<linearGradient id="paint0_linear_2092_453" x1="49.1007" y1="2.31482" x2="-4.41262" y2="10.0232" gradientUnits="userSpaceOnUse">
<stop stop-color="#23EFEF"/>
<stop offset="0.349611" stop-color="#37B8BE"/>
<stop offset="0.701514" stop-color="#2DA0FF"/>
<stop offset="1" stop-color="#B172FE"/>
</linearGradient>
</defs>
</svg>
