<svg width="13" height="15" viewBox="0 0 13 15" fill="none" xmlns="http://www.w3.org/2000/svg">
<path d="M12.4297 10.5938C12.4297 10.8125 12.3203 11.0039 12.1836 11.1133C12.0469 11.5234 12.0469 12.7266 12.1836 13.1641C12.3203 13.2734 12.4297 13.4648 12.4297 13.6562V14.0938C12.4297 14.4766 12.1289 14.75 11.7734 14.75H2.80469C1.35547 14.75 0.179688 13.5742 0.179688 12.125V3.375C0.179688 1.92578 1.35547 0.75 2.80469 0.75H11.7734C12.1289 0.75 12.4297 1.05078 12.4297 1.40625V10.5938ZM3.67969 4.41406V4.96094C3.67969 5.07031 3.73438 5.125 3.84375 5.125H9.64062C9.72266 5.125 9.80469 5.07031 9.80469 4.96094V4.41406C9.80469 4.33203 9.72266 4.25 9.64062 4.25H3.84375C3.73438 4.25 3.67969 4.33203 3.67969 4.41406ZM3.67969 6.16406V6.71094C3.67969 6.82031 3.73438 6.875 3.84375 6.875H9.64062C9.72266 6.875 9.80469 6.82031 9.80469 6.71094V6.16406C9.80469 6.08203 9.72266 6 9.64062 6H3.84375C3.73438 6 3.67969 6.08203 3.67969 6.16406ZM10.5977 13C10.543 12.5352 10.543 11.7422 10.5977 11.25H2.80469C2.3125 11.25 1.92969 11.6602 1.92969 12.125C1.92969 12.6172 2.3125 13 2.80469 13H10.5977Z" fill="white"/>
</svg>
