<svg width="16" height="16" viewBox="0 0 16 16" fill="none" xmlns="http://www.w3.org/2000/svg">
<path d="M16 14.5C16 15.3438 15.3125 16 14.5 16H1.5C0.65625 16 0 15.3438 0 14.5V6.28125C0 5.8125 0.21875 5.375 0.5625 5.09375C1.34375 4.5 1.96875 4 5.6875 1.3125C6.21875 0.9375 7.25 0 8 0.03125C8.71875 0 9.75 0.9375 10.2812 1.3125C14 4 14.625 4.5 15.4062 5.09375C15.75 5.375 16 5.8125 16 6.28125V14.5ZM13.9375 8.375C13.8438 8.25 13.6875 8.21875 13.5625 8.3125C12.875 8.84375 11.8438 9.59375 10.2812 10.7188C9.75 11.0938 8.71875 12.0312 8 12C7.25 12.0312 6.21875 11.0938 5.6875 10.7188C4.125 9.59375 3.09375 8.84375 2.40625 8.3125C2.28125 8.21875 2.125 8.25 2.03125 8.375L1.75 8.78125C1.71875 8.8125 1.71875 8.875 1.71875 8.9375C1.71875 9 1.75 9.09375 1.8125 9.125C2.53125 9.65625 3.53125 10.4062 5.09375 11.5312C5.75 12 6.875 13.0312 8 13C9.09375 13.0312 10.2188 12 10.875 11.5312C12.4375 10.4062 13.4375 9.65625 14.1562 9.125C14.2188 9.09375 14.25 9 14.25 8.9375C14.25 8.875 14.25 8.8125 14.2188 8.78125L13.9375 8.375Z" fill="#292929"/>
</svg>
