<svg width="18" height="24" viewBox="0 0 18 24" fill="none" xmlns="http://www.w3.org/2000/svg">
<path d="M8.48438 12.0469C8.25 11.2969 8.29688 9.84375 8.39062 9.84375C8.8125 9.84375 8.76562 11.5781 8.48438 12.0469ZM8.4375 14.25C8.85938 15.0469 9.46875 15.7031 10.0312 16.1719C8.90625 16.3594 7.96875 16.8281 7.07812 17.1562C7.59375 16.2656 8.0625 15.1875 8.4375 14.25ZM4.03125 20.1094C4.26562 19.3594 5.34375 18.5156 5.67188 18.1875C4.64062 19.8281 4.03125 20.1094 4.03125 20.1094ZM11.625 7.5H18V22.875C18 23.5312 17.4844 24 16.875 24H1.125C0.46875 24 0 23.5312 0 22.875V1.125C0 0.515625 0.46875 0 1.125 0H10.5V6.375C10.5 7.03125 10.9688 7.5 11.625 7.5ZM11.25 15.5625C10.3125 15 9.65625 14.2031 9.23438 13.0312C9.42188 12.1875 9.75 10.875 9.51562 10.0312C9.28125 8.67188 7.54688 8.8125 7.26562 9.70312C7.03125 10.5938 7.26562 11.8125 7.64062 13.3125C7.125 14.625 6.32812 16.3594 5.76562 17.3438C5.71875 17.3438 5.71875 17.3438 5.71875 17.3438C4.45312 18 2.29688 19.4531 3.1875 20.5312C3.42188 20.8594 3.9375 21 4.17188 21C5.01562 21 5.85938 20.1562 7.03125 18.1406C8.25 17.7188 9.60938 17.2031 10.7344 17.0156C11.7656 17.5781 12.9844 17.9531 13.7344 17.9531C15.1406 17.9531 15.2344 16.4531 14.6719 15.8906C14.0156 15.2812 12.1406 15.4688 11.25 15.5625ZM17.6719 4.92188C17.8594 5.15625 18 5.4375 18 5.71875V6H12V0H12.2812C12.5625 0 12.8438 0.140625 13.0781 0.328125L17.6719 4.92188ZM14.1562 16.9219C14.1562 16.9219 13.9219 17.25 12.1875 16.5C14.0625 16.3594 14.3906 16.7812 14.1562 16.9219Z" fill="#01473C"/>
</svg>
