<svg width="16" height="16" viewBox="0 0 16 16" fill="none" xmlns="http://www.w3.org/2000/svg">
<path d="M10.5 5H4.96875C5.4375 2.21875 6.5 0.25 7.75 0.25C8.96875 0.25 10.0625 2.21875 10.5 5ZM4.75 8C4.75 7.3125 4.78125 6.65625 4.84375 6H10.625C10.6875 6.65625 10.7188 7.3125 10.7188 8C10.7188 8.71875 10.6875 9.375 10.625 10H4.84375C4.78125 9.375 4.75 8.71875 4.75 8ZM14.875 5H11.5C11.2188 3.25 10.7188 1.65625 9.9375 0.59375C12.1875 1.25 14 2.90625 14.875 5ZM5.53125 0.59375C4.75 1.65625 4.25 3.25 3.96875 5H0.59375C1.46875 2.90625 3.28125 1.25 5.53125 0.59375ZM15.2188 6C15.375 6.65625 15.4688 7.3125 15.4688 8C15.4688 8.71875 15.375 9.375 15.2188 10H11.625C11.6875 9.34375 11.75 8.6875 11.75 8C11.75 7.34375 11.6875 6.65625 11.625 6H15.2188ZM3.75 8C3.75 8.6875 3.78125 9.34375 3.84375 10H0.25C0.09375 9.375 0 8.71875 0 8C0 7.3125 0.09375 6.65625 0.25 6H3.84375C3.78125 6.65625 3.75 7.34375 3.75 8ZM4.96875 11H10.5C10.0625 13.8125 8.96875 15.75 7.75 15.75C6.5 15.75 5.4375 13.8125 4.96875 11ZM9.9375 15.4375C10.7188 14.375 11.25 12.7812 11.5 11H14.875C14 13.125 12.1875 14.7812 9.9375 15.4375ZM0.59375 11H3.96875C4.25 12.7812 4.75 14.375 5.53125 15.4375C3.28125 14.7812 1.46875 13.125 0.59375 11Z" fill="#292929"/>
</svg>
