<svg width="15" height="14" viewBox="0 0 15 14" fill="none" xmlns="http://www.w3.org/2000/svg">
<path d="M13.4923 0.681201C13.793 0.763232 14.0118 1.00933 14.0118 1.31011C14.0118 8.33745 8.3243 13.9976 1.3243 13.9976C0.996175 13.9976 0.750081 13.8062 0.66805 13.5054L0.0117997 10.6617C-0.0428878 10.3609 0.093831 10.0328 0.394612 9.89604L3.45711 8.58354C3.73055 8.47417 4.03133 8.5562 4.22274 8.77495L5.58992 10.4429C7.72274 9.4312 9.44539 7.6812 10.4298 5.60308L8.7618 4.23589C8.54305 4.04448 8.46102 3.7437 8.57039 3.47026L9.88289 0.407763C10.0196 0.106982 10.3477 -0.0570804 10.6485 0.0249508L13.4923 0.681201Z" fill="#061020"/>
</svg>
