<svg width="15" height="15" viewBox="0 0 15 15" fill="none" xmlns="http://www.w3.org/2000/svg">
<path d="M13.6602 1.43359C13.9609 1.51562 14.1797 1.76172 14.1797 2.0625C14.1797 9.08984 8.49219 14.75 1.49219 14.75C1.16406 14.75 0.917969 14.5586 0.835938 14.2578L0.179688 11.4141C0.125 11.1133 0.261719 10.7852 0.5625 10.6484L3.625 9.33594C3.89844 9.22656 4.19922 9.30859 4.39062 9.52734L5.75781 11.1953C7.89062 10.1836 9.61328 8.43359 10.5977 6.35547L8.92969 4.98828C8.71094 4.79688 8.62891 4.49609 8.73828 4.22266L10.0508 1.16016C10.1875 0.859375 10.5156 0.695312 10.8164 0.777344L13.6602 1.43359Z" fill="white"/>
</svg>
