<svg width="13" height="15" viewBox="0 0 13 15" fill="none" xmlns="http://www.w3.org/2000/svg">
<path d="M6.125 7.75C4.18359 7.75 2.625 6.19141 2.625 4.25C2.625 2.33594 4.18359 0.75 6.125 0.75C8.03906 0.75 9.625 2.33594 9.625 4.25C9.625 6.19141 8.03906 7.75 6.125 7.75ZM8.55859 8.625C10.582 8.625 12.25 10.293 12.25 12.3164V13.4375C12.25 14.1758 11.6484 14.75 10.9375 14.75H1.3125C0.574219 14.75 0 14.1758 0 13.4375V12.3164C0 10.293 1.64062 8.625 3.66406 8.625H4.12891C4.73047 8.92578 5.41406 9.0625 6.125 9.0625C6.83594 9.0625 7.49219 8.92578 8.09375 8.625H8.55859Z" fill="white"/>
</svg>
