<svg width="41" height="40" viewBox="0 0 41 40" fill="none" xmlns="http://www.w3.org/2000/svg">
<path d="M20.7919 26.7016C20.6523 26.4921 20.5127 26.3874 20.373 26.3874C20.2334 26.3874 20.0938 26.4921 19.9542 26.7016L12.2055 39.5812C11.9961 39.7906 11.6819 39.9302 11.2631 40C10.914 40 10.5301 39.8953 10.1113 39.6859L5.08508 36.1257C4.387 35.637 4.31719 35.0436 4.87565 34.3456L14.0903 23.0367C14.2997 22.8272 14.3695 22.6178 14.2997 22.4084C14.2299 22.199 14.0205 22.0593 13.6715 21.9895L0.791885 18.4293C0.0239966 18.2199 -0.185428 17.5916 0.163612 16.5445L2.15314 11.2042C2.50218 10.3665 3.02574 10.1571 3.72382 10.5759L15.8704 15.7068C16.2195 15.8464 16.4638 15.8813 16.6034 15.8115C16.8128 15.6719 16.9175 15.4276 16.9175 15.0785L15.8704 1.15184C15.8006 0.872604 15.8704 0.628275 16.0798 0.418849C16.2893 0.139616 16.6034 0 17.0223 0H23.7238C24.1427 0 24.4219 0.139616 24.5615 0.418849C24.7709 0.628275 24.8757 0.872604 24.8757 1.15184L23.8285 15.1832C23.7587 15.8115 24.0031 16.0209 24.5615 15.8115L37.127 10.3665C37.9647 9.94764 38.5231 10.2269 38.8024 11.2042L40.4777 16.4398C40.757 17.4171 40.4777 18.0105 39.6401 18.2199L27.0746 21.9895C26.7954 22.0593 26.6209 22.2339 26.551 22.5131C26.551 22.7225 26.6558 22.9319 26.8652 23.1414L35.661 33.822C35.9402 34.171 36.0449 34.555 35.9751 34.9738C35.9053 35.3229 35.5912 35.7068 35.0327 36.1257L30.6348 39.1623C30.1462 39.5113 29.6924 39.651 29.2736 39.5812C28.8547 39.5113 28.5406 39.3717 28.3312 39.1623L20.7919 26.7016Z" fill="white"/>
</svg>
