<svg width="62" height="60" viewBox="0 0 62 60" fill="none" xmlns="http://www.w3.org/2000/svg">
<path fill-rule="evenodd" clip-rule="evenodd" d="M58.719 2.01015C58.5386 2.13075 58.3264 2.19512 58.1093 2.19512C57.8183 2.19479 57.5393 2.07905 57.3336 1.87329C57.1278 1.66753 57.0121 1.38855 57.0117 1.09756C57.0117 0.880484 57.0761 0.668282 57.1967 0.487789C57.3173 0.307296 57.4887 0.166619 57.6893 0.0835474C57.8898 0.000475557 58.1105 -0.0212598 58.3234 0.0210898C58.5363 0.0634395 58.7319 0.167972 58.8854 0.321469C59.0389 0.474965 59.1434 0.670532 59.1857 0.883438C59.2281 1.09634 59.2064 1.31703 59.1233 1.51758C59.0402 1.71813 58.8995 1.88955 58.719 2.01015ZM58.4142 0.641267C58.3239 0.580966 58.2178 0.548781 58.1093 0.548781C57.9638 0.548924 57.8243 0.606788 57.7214 0.709673C57.6185 0.812559 57.5606 0.95206 57.5605 1.09756C57.5605 1.2061 57.5927 1.3122 57.653 1.40245C57.7133 1.49269 57.799 1.56303 57.8993 1.60457C57.9995 1.6461 58.1099 1.65697 58.2163 1.6358C58.3228 1.61462 58.4206 1.56236 58.4973 1.48561C58.5741 1.40886 58.6263 1.31108 58.6475 1.20462C58.6687 1.09817 58.6578 0.987829 58.6163 0.887552C58.5747 0.787276 58.5044 0.701568 58.4142 0.641267ZM31.4599 8.70848C31.4635 8.74099 31.8629 12.2431 35.4464 16.9504C37.8545 20.114 37.1951 22.6508 36.5854 23.8839V23.4137C36.585 22.1591 36.1788 20.9382 35.4274 19.9335C35.1631 19.1766 34.776 18.4683 34.2817 17.8372C32.7988 15.9378 31.6027 13.8311 30.7318 11.5843C29.8608 13.8311 28.6647 15.9378 27.1818 17.8372C26.6875 18.4683 26.3004 19.1766 26.0361 19.9335C25.2847 20.9382 24.8785 22.1591 24.8781 23.4137V23.8839C24.2684 22.6508 23.609 20.114 26.0171 16.9504C29.6006 12.2431 30 8.74099 30.0036 8.70598C30.0224 8.52584 30.1072 8.35902 30.2416 8.23765C30.3761 8.11628 30.5506 8.04893 30.7318 8.04858H30.7343C30.9155 8.04899 31.0901 8.11674 31.2242 8.23869C31.3583 8.36064 31.4423 8.52808 31.4599 8.70848ZM33.8345 20.3096C34.6578 21.1329 35.1203 22.2496 35.1203 23.4139V26.3408C35.1203 27.5052 34.6578 28.6219 33.8345 29.4452C33.0111 30.2685 31.8945 30.7311 30.7301 30.7311C29.5657 30.7311 28.449 30.2685 27.6257 29.4452C26.8024 28.6219 26.3398 27.5052 26.3398 26.3408V23.4139C26.3398 22.2496 26.8024 21.1329 27.6257 20.3096C28.449 19.4862 29.5657 19.0237 30.7301 19.0237C31.8945 19.0237 33.0111 19.4862 33.8345 20.3096ZM32.7997 28.4104C33.3486 27.8615 33.6569 27.1171 33.6569 26.3408V23.4139C33.6569 22.6377 33.3486 21.8932 32.7997 21.3443C32.2508 20.7955 31.5063 20.4871 30.7301 20.4871C29.9538 20.4871 29.2094 20.7955 28.6605 21.3443C28.1116 21.8932 27.8033 22.6377 27.8033 23.4139V26.3408C27.8033 27.1171 28.1116 27.8615 28.6605 28.4104C29.2094 28.9593 29.9538 29.2676 30.7301 29.2676C31.5063 29.2676 32.2508 28.9593 32.7997 28.4104ZM49.0232 25.975C49.4574 25.9751 49.8818 25.8463 50.2428 25.6051C50.6038 25.3639 50.8852 25.0211 51.0513 24.62C51.2175 24.2189 51.261 23.7775 51.1763 23.3517C51.0916 22.9258 50.8825 22.5347 50.5755 22.2277C50.2685 21.9207 49.8774 21.7116 49.4516 21.6269C49.0257 21.5422 48.5844 21.5857 48.1832 21.7518C47.7821 21.918 47.4393 22.1993 47.1981 22.5603C46.9569 22.9213 46.8281 23.3457 46.8281 23.7799C46.8288 24.3619 47.0602 24.9199 47.4718 25.3314C47.8833 25.7429 48.4413 25.9744 49.0232 25.975ZM49.0232 23.0482C49.168 23.0482 49.3094 23.0911 49.4298 23.1715C49.5501 23.2519 49.6439 23.3661 49.6993 23.4998C49.7547 23.6336 49.7692 23.7807 49.7409 23.9226C49.7127 24.0646 49.643 24.195 49.5407 24.2973C49.4384 24.3996 49.308 24.4693 49.166 24.4976C49.0241 24.5258 48.877 24.5113 48.7433 24.4559C48.6095 24.4005 48.4953 24.3067 48.4149 24.1864C48.3345 24.0661 48.2915 23.9246 48.2915 23.7799C48.2918 23.5859 48.369 23.3999 48.5061 23.2628C48.6433 23.1256 48.8293 23.0484 49.0232 23.0482ZM13.6608 25.6051C13.2998 25.8463 12.8754 25.9751 12.4412 25.975C11.8592 25.9744 11.3012 25.7429 10.8897 25.3314C10.4782 24.9198 10.2467 24.3619 10.2461 23.7799C10.2461 23.3457 10.3748 22.9213 10.6161 22.5603C10.8573 22.1993 11.2001 21.9179 11.6012 21.7518C12.0023 21.5857 12.4437 21.5422 12.8695 21.6269C13.2954 21.7116 13.6865 21.9207 13.9935 22.2277C14.3005 22.5347 14.5096 22.9258 14.5943 23.3517C14.6789 23.7775 14.6355 24.2189 14.4693 24.62C14.3032 25.0211 14.0218 25.3639 13.6608 25.6051ZM12.8478 23.1715C12.7274 23.0911 12.5859 23.0482 12.4412 23.0482C12.2472 23.0484 12.0613 23.1256 11.9241 23.2627C11.7869 23.3999 11.7098 23.5859 11.7095 23.7799C11.7095 23.9246 11.7524 24.0661 11.8328 24.1864C11.9132 24.3067 12.0275 24.4005 12.1612 24.4559C12.2949 24.5113 12.442 24.5258 12.584 24.4976C12.7259 24.4693 12.8563 24.3996 12.9586 24.2973C13.061 24.195 13.1307 24.0646 13.1589 23.9226C13.1871 23.7807 13.1726 23.6336 13.1173 23.4999C13.0619 23.3661 12.9681 23.2519 12.8478 23.1715ZM12.4413 36.9509C12.0072 36.9509 11.5827 37.0797 11.2217 37.3209C10.8607 37.5621 10.5794 37.9049 10.4132 38.306C10.2471 38.7071 10.2036 39.1485 10.2883 39.5743C10.373 40.0001 10.582 40.3913 10.889 40.6983C11.196 41.0053 11.5872 41.2144 12.013 41.2991C12.4388 41.3838 12.8802 41.3403 13.2813 41.1742C13.6824 41.008 14.0253 40.7267 14.2665 40.3657C14.5077 40.0047 14.6364 39.5803 14.6364 39.1461C14.6358 38.5641 14.4044 38.0061 13.9928 37.5946C13.5813 37.1831 13.0233 36.9516 12.4413 36.9509ZM12.4413 39.8778C12.2966 39.8778 12.1551 39.8349 12.0348 39.7545C11.9145 39.6741 11.8207 39.5598 11.7653 39.4261C11.7099 39.2924 11.6954 39.1453 11.7237 39.0034C11.7519 38.8614 11.8216 38.7311 11.9239 38.6287C12.0263 38.5264 12.1566 38.4567 12.2986 38.4285C12.4405 38.4002 12.5876 38.4147 12.7213 38.4701C12.855 38.5255 12.9693 38.6193 13.0497 38.7396C13.1301 38.8599 13.173 39.0014 13.173 39.1461C13.1728 39.3401 13.0956 39.5261 12.9584 39.6632C12.8213 39.8004 12.6353 39.8776 12.4413 39.8778ZM47.8038 37.3209C48.1648 37.0797 48.5892 36.9509 49.0234 36.9509C49.6054 36.9516 50.1633 37.1831 50.5749 37.5946C50.9864 38.0061 51.2179 38.5641 51.2185 39.1461C51.2185 39.5803 51.0897 40.0047 50.8485 40.3657C50.6073 40.7267 50.2645 41.008 49.8633 41.1742C49.4622 41.3403 49.0208 41.3838 48.595 41.2991C48.1692 41.2144 47.778 41.0053 47.4711 40.6983C47.1641 40.3913 46.955 40.0001 46.8703 39.5743C46.7856 39.1485 46.8291 38.7071 46.9952 38.306C47.1614 37.9049 47.4428 37.5621 47.8038 37.3209ZM48.6168 39.7545C48.7372 39.8349 48.8786 39.8778 49.0234 39.8778C49.2173 39.8776 49.4033 39.8004 49.5405 39.6632C49.6776 39.5261 49.7548 39.3401 49.7551 39.1461C49.7551 39.0014 49.7121 38.8599 49.6317 38.7396C49.5513 38.6193 49.4371 38.5255 49.3034 38.4701C49.1697 38.4147 49.0225 38.4002 48.8806 38.4285C48.7387 38.4567 48.6083 38.5264 48.506 38.6287C48.4036 38.7311 48.3339 38.8614 48.3057 39.0034C48.2775 39.1453 48.292 39.2924 48.3473 39.4261C48.4027 39.5598 48.4965 39.6741 48.6168 39.7545ZM24.5113 12.804C24.5113 12.3698 24.3826 11.9454 24.1414 11.5844C23.9002 11.2235 23.5573 10.9421 23.1562 10.776C22.7551 10.6098 22.3138 10.5664 21.8879 10.6511C21.4621 10.7358 21.071 10.9448 20.764 11.2518C20.457 11.5588 20.248 11.95 20.1633 12.3758C20.0786 12.8016 20.122 13.243 20.2882 13.6441C20.4543 14.0452 20.7357 14.388 21.0967 14.6292C21.4577 14.8704 21.8821 14.9991 22.3162 14.9991C22.8982 14.9985 23.4562 14.767 23.8677 14.3555C24.2792 13.9439 24.5107 13.386 24.5113 12.804ZM22.3162 13.5357C22.1715 13.5357 22.03 13.4928 21.9097 13.4124C21.7894 13.332 21.6956 13.2177 21.6402 13.084C21.5848 12.9503 21.5703 12.8032 21.5986 12.6612C21.6268 12.5193 21.6965 12.3889 21.7988 12.2866C21.9012 12.1842 22.0315 12.1146 22.1735 12.0863C22.3154 12.0581 22.4625 12.0726 22.5962 12.128C22.7299 12.1833 22.8442 12.2771 22.9246 12.3975C23.005 12.5178 23.0479 12.6592 23.0479 12.804C23.0477 12.9979 22.9705 13.1839 22.8333 13.3211C22.6962 13.4582 22.5102 13.5354 22.3162 13.5357ZM40.3639 14.6293C40.0029 14.8705 39.5785 14.9993 39.1443 14.9992C38.5623 14.9986 38.0044 14.7671 37.5928 14.3556C37.1813 13.944 36.9498 13.3861 36.9492 12.8041C36.9492 12.3699 37.078 11.9455 37.3192 11.5845C37.5604 11.2235 37.9032 10.9421 38.3043 10.776C38.7055 10.6098 39.1468 10.5664 39.5727 10.6511C39.9985 10.7358 40.3896 10.9448 40.6966 11.2519C41.0036 11.5589 41.2127 11.95 41.2974 12.3758C41.3821 12.8017 41.3386 13.243 41.1725 13.6442C41.0063 14.0453 40.7249 14.3881 40.3639 14.6293ZM39.5509 12.1957C39.4305 12.1153 39.2891 12.0723 39.1443 12.0723C38.9504 12.0726 38.7644 12.1498 38.6272 12.2869C38.49 12.4241 38.4129 12.6101 38.4126 12.8041C38.4126 12.9488 38.4556 13.0903 38.536 13.2106C38.6164 13.3309 38.7306 13.4247 38.8643 13.4801C38.998 13.5354 39.1452 13.5499 39.2871 13.5217C39.429 13.4935 39.5594 13.4238 39.6617 13.3214C39.7641 13.2191 39.8338 13.0887 39.862 12.9468C39.8902 12.8049 39.8757 12.6577 39.8203 12.524C39.765 12.3903 39.6712 12.2761 39.5509 12.1957ZM30.7319 38.414C30.926 38.414 31.1121 38.3369 31.2493 38.1997C31.3865 38.0625 31.4636 37.8764 31.4636 37.6823V34.6176L34.0703 39.1304C34.1621 39.2894 34.3103 39.4081 34.4855 39.463L37.9797 40.5545C38.1648 40.6121 38.3652 40.5938 38.5369 40.5037C38.7086 40.4136 38.8375 40.259 38.8953 40.074C38.9532 39.8889 38.9352 39.6885 38.8454 39.5166C38.7556 39.3448 38.6012 39.2157 38.4163 39.1575L35.1947 38.1511L31.9992 32.6192C31.8708 32.3967 31.6861 32.212 31.4637 32.0835C31.2413 31.9551 30.9889 31.8875 30.7321 31.8875C30.4752 31.8875 30.2229 31.9551 30.0005 32.0835C29.7781 32.212 29.5934 32.3967 29.465 32.6192L26.2691 38.1511L23.0476 39.1575C22.8626 39.2157 22.7083 39.3448 22.6184 39.5166C22.5286 39.6885 22.5106 39.8889 22.5685 40.074C22.6263 40.259 22.7552 40.4136 22.9269 40.5037C23.0986 40.5938 23.299 40.6121 23.4841 40.5545L26.9783 39.463C27.1535 39.4081 27.3017 39.2894 27.3935 39.1304L30.0002 34.6176V37.6823C30.0002 37.8764 30.0773 38.0625 30.2145 38.1997C30.3517 38.3369 30.5378 38.414 30.7319 38.414ZM47.0814 15.8988C47.0615 15.924 44.953 18.6453 44.2027 24.4518C43.7555 24.2187 43.2886 24.0253 42.8075 23.8738C43.0969 21.6483 43.6907 19.4732 44.5722 17.4094C42.5621 18.2988 40.4369 18.9007 38.2589 19.1973C38.1097 18.7175 37.9211 18.2508 37.6953 17.8019C43.3614 17.0348 46.018 14.8986 46.0442 14.877C46.1838 14.7616 46.3613 14.702 46.5423 14.7099C46.7233 14.7178 46.895 14.7926 47.024 14.9197C47.1531 15.0469 47.2304 15.2174 47.241 15.3983C47.2516 15.5791 47.1947 15.7575 47.0814 15.8988ZM23.7657 17.802C18.0997 17.0349 15.4431 14.8986 15.4187 14.8785C15.2794 14.7626 15.1021 14.7025 14.9211 14.7098C14.7401 14.7171 14.5683 14.7913 14.4388 14.918C14.3093 15.0446 14.2314 15.2149 14.2202 15.3956C14.2089 15.5764 14.2651 15.755 14.3779 15.8967C14.3995 15.924 16.508 18.6453 17.2583 24.4519C17.7056 24.2187 18.1724 24.0253 18.6535 23.8738C18.3642 21.6484 17.7704 19.4733 16.8889 17.4095C18.8989 18.2989 21.0242 18.9008 23.2021 19.1974C23.3514 18.7176 23.5399 18.2509 23.7657 17.802ZM17.6335 35.3939L17.1331 36.8264C16.8964 36.6704 16.6561 36.4987 16.4116 36.3054C11.7627 32.6304 8.37172 32.2517 8.33814 32.2484C8.15766 32.2303 7.99037 32.1457 7.86871 32.0111C7.74705 31.8766 7.67969 31.7017 7.67969 31.5203C7.67969 31.3389 7.74705 31.164 7.86871 31.0294C7.99037 30.8949 8.15766 30.8103 8.33814 30.7921C8.36958 30.7889 11.7995 30.3813 16.4116 26.7351C19.4674 24.3209 21.938 24.9351 23.1388 25.5171C23.8095 25.8487 24.4085 26.3089 24.9017 26.8716C24.931 27.1821 24.9853 27.4897 25.0641 27.7915L24.0158 28.0771C23.6113 27.5537 23.0934 27.1287 22.501 26.8341C20.9587 26.087 19.119 26.4604 17.3191 27.8835C15.4523 29.4 13.3673 30.6261 11.1346 31.5203C13.3673 32.4144 15.4523 33.6405 17.3191 35.1571C17.4238 35.2399 17.5286 35.3183 17.6335 35.3939ZM53.1205 30.7921C53.0869 30.7889 49.696 30.4101 45.047 26.7351C41.9916 24.3202 39.5203 24.9358 38.3198 25.5171C37.6491 25.8487 37.0501 26.3089 36.5569 26.8716C36.5276 27.1821 36.4733 27.4897 36.3945 27.7914L37.4428 28.0771C37.8474 27.5536 38.3653 27.1286 38.9576 26.834C39.4708 26.5849 40.0342 26.4563 40.6047 26.4582C41.7347 26.4582 42.9459 26.9398 44.1396 27.8834C46.0063 29.4 48.0913 30.6261 50.3241 31.5202C48.0913 32.4144 46.0063 33.6405 44.1396 35.1571C44.0349 35.2398 43.93 35.3182 43.8251 35.3939L44.3255 36.8263C44.5622 36.6703 44.8025 36.4986 45.0471 36.3054C49.6592 32.6593 53.0891 32.2516 53.1205 32.2484C53.301 32.2302 53.4683 32.1456 53.5899 32.0111C53.7116 31.8765 53.7789 31.7016 53.7789 31.5202C53.7789 31.3388 53.7116 31.1639 53.5899 31.0294C53.4683 30.8948 53.301 30.8103 53.1205 30.7921ZM31.3801 3.94336C31.2354 3.94336 31.094 3.98627 30.9736 4.06667C30.8533 4.14708 30.7595 4.26135 30.7041 4.39505C30.6488 4.52876 30.6343 4.67588 30.6625 4.81782C30.6907 4.95975 30.7604 5.09013 30.8627 5.19246C30.9651 5.29479 31.0955 5.36448 31.2374 5.39271C31.3793 5.42095 31.5265 5.40646 31.6602 5.35108C31.7939 5.29569 31.9081 5.20191 31.9885 5.08158C32.0689 4.96125 32.1119 4.81978 32.1119 4.67507C32.1116 4.48107 32.0345 4.29509 31.8973 4.15792C31.7601 4.02074 31.5741 3.94358 31.3801 3.94336ZM31.3801 5.04092C31.3078 5.04092 31.2371 5.01946 31.1769 4.97926C31.1167 4.93906 31.0698 4.88192 31.0421 4.81507C31.0144 4.74822 31.0072 4.67466 31.0213 4.60369C31.0354 4.53272 31.0703 4.46753 31.1214 4.41637C31.1726 4.3652 31.2378 4.33036 31.3088 4.31624C31.3797 4.30213 31.4533 4.30937 31.5202 4.33706C31.587 4.36475 31.6441 4.41164 31.6843 4.47181C31.7245 4.53197 31.746 4.60271 31.746 4.67507C31.7459 4.77207 31.7073 4.86507 31.6387 4.93366C31.5701 5.00225 31.4771 5.04082 31.3801 5.04092ZM56.9502 18.2134C57.0705 18.133 57.212 18.0901 57.3567 18.0901C57.5507 18.0903 57.7367 18.1675 57.8739 18.3046C58.011 18.4418 58.0882 18.6278 58.0884 18.8218C58.0884 18.9665 58.0455 19.108 57.9651 19.2283C57.8847 19.3486 57.7704 19.4424 57.6367 19.4978C57.503 19.5532 57.3559 19.5677 57.214 19.5394C57.072 19.5112 56.9416 19.4415 56.8393 19.3392C56.737 19.2369 56.6673 19.1065 56.6391 18.9645C56.6108 18.8226 56.6253 18.6755 56.6807 18.5418C56.7361 18.4081 56.8299 18.2938 56.9502 18.2134ZM57.1534 19.126C57.2136 19.1662 57.2843 19.1876 57.3567 19.1876C57.4537 19.1876 57.5467 19.149 57.6153 19.0804C57.6839 19.0118 57.7225 18.9188 57.7226 18.8218C57.7226 18.7494 57.7011 18.6787 57.6609 18.6185C57.6207 18.5584 57.5636 18.5115 57.4967 18.4838C57.4299 18.4561 57.3563 18.4489 57.2853 18.463C57.2144 18.4771 57.1492 18.5119 57.098 18.5631C57.0468 18.6143 57.012 18.6795 56.9979 18.7504C56.9838 18.8214 56.991 18.895 57.0187 18.9618C57.0464 19.0287 57.0933 19.0858 57.1534 19.126ZM6.86843 17.7241C6.72371 17.7241 6.58224 17.767 6.46191 17.8474C6.34158 17.9278 6.2478 18.0421 6.19242 18.1758C6.13704 18.3095 6.12255 18.4566 6.15078 18.5986C6.17901 18.7405 6.2487 18.8709 6.35103 18.9732C6.45336 19.0756 6.58374 19.1452 6.72568 19.1735C6.86761 19.2017 7.01474 19.1872 7.14844 19.1318C7.28214 19.0765 7.39642 18.9827 7.47682 18.8623C7.55722 18.742 7.60013 18.6005 7.60013 18.4558C7.59991 18.2618 7.52275 18.0759 7.38558 17.9387C7.2484 17.8015 7.06242 17.7243 6.86843 17.7241ZM6.86843 18.8217C6.79607 18.8217 6.72533 18.8002 6.66517 18.76C6.605 18.7198 6.55811 18.6627 6.53042 18.5958C6.50273 18.529 6.49549 18.4554 6.5096 18.3845C6.52372 18.3135 6.55856 18.2483 6.60973 18.1971C6.66089 18.146 6.72608 18.1111 6.79705 18.097C6.86802 18.0829 6.94158 18.0901 7.00843 18.1178C7.07528 18.1455 7.13242 18.1924 7.17262 18.2526C7.21282 18.3127 7.23428 18.3835 7.23428 18.4558C7.23418 18.5528 7.19561 18.6458 7.12702 18.7144C7.05843 18.783 6.96543 18.8216 6.86843 18.8217ZM17.4028 2.18278C17.433 2.04124 17.5045 1.91183 17.6082 1.81092C17.7474 1.6758 17.9345 1.60141 18.1285 1.60407C18.3224 1.60674 18.5074 1.68623 18.6429 1.82512C18.7438 1.92885 18.8117 2.06017 18.838 2.20248C18.8642 2.34479 18.8477 2.4917 18.7905 2.62463C18.7333 2.75756 18.638 2.87054 18.5166 2.94928C18.3951 3.02802 18.2531 3.06899 18.1084 3.067C17.9637 3.06502 17.8228 3.02017 17.7036 2.93812C17.5844 2.85608 17.4922 2.74052 17.4386 2.60607C17.3851 2.47162 17.3726 2.32432 17.4028 2.18278ZM18.1849 2.69514C18.256 2.68199 18.3217 2.64805 18.3735 2.59759C18.443 2.52988 18.4828 2.43738 18.4841 2.34039C18.4854 2.24339 18.4482 2.14984 18.3806 2.08024C18.3302 2.02838 18.2655 1.99265 18.1947 1.97756C18.1239 1.96247 18.0503 1.9687 17.9831 1.99547C17.9158 2.02224 17.8581 2.06835 17.817 2.12795C17.776 2.18756 17.7536 2.25799 17.7526 2.33035C17.7516 2.4027 17.7721 2.47372 17.8115 2.53443C17.8508 2.59514 17.9073 2.64281 17.9738 2.67142C18.0403 2.70002 18.1137 2.70828 18.1849 2.69514ZM3.42562 2.3619L3.96964 1.64629L3.62611 1.45166L3.27708 2.25288H3.26537L2.9105 1.45751L2.56111 1.658L3.09928 2.35642V2.36776L2.25781 2.25873V2.648L3.10513 2.53934V2.55105L2.56111 3.2491L2.88745 3.45544L3.25989 2.648H3.27086L3.6144 3.44959L3.97513 3.24361L3.42562 2.55654V2.5452L4.28976 2.648V2.25873L3.42562 2.37325V2.3619ZM52.7843 10.7118L53.0974 10.3097V10.3031L52.6094 10.3657V10.1418L53.0941 10.2043V10.1977L52.7843 9.79566L52.9855 9.68005L53.1896 10.1385H53.1966L53.3974 9.67676L53.5954 9.78907L53.2822 10.201V10.2076L53.7797 10.1418V10.3657L53.2822 10.3064V10.313L53.5986 10.7088L53.3908 10.8274L53.1929 10.3657H53.1867L52.9719 10.8307L52.7843 10.7118ZM46.3021 4.21528V3.8337L45.4544 3.94602V3.93467L45.9879 3.23297L45.6509 3.04199L45.3085 3.82785H45.2971L44.9492 3.04748L44.6064 3.24431L45.1343 3.92919V3.94053L44.3086 3.8337V4.21528L45.1398 4.10882V4.12016L44.6064 4.80504L44.9262 5.00736L45.2916 4.21528H45.3026L45.6396 5.0015L45.9933 4.79955L45.4544 4.12565V4.11431L46.3021 4.21528ZM11.0969 8.75667L10.6366 9.3618V9.37167L11.3676 9.27472V9.60399L10.6366 9.51692V9.52643L11.1016 10.1078L10.7961 10.2823L10.5056 9.60399H10.4961L10.1811 10.287L9.9049 10.1125L10.3651 9.52167V9.51216L9.64844 9.60399V9.27472L10.3604 9.36692V9.35704L9.9049 8.76619L10.2009 8.5968L10.5009 9.26997H10.5108L10.806 8.59204L11.0969 8.75667ZM0.731707 54.8782C1.13582 54.8782 1.46341 54.5506 1.46341 54.1465C1.46341 53.7424 1.13582 53.4148 0.731707 53.4148C0.327596 53.4148 0 53.7424 0 54.1465C0 54.5506 0.327596 54.8782 0.731707 54.8782ZM2.92702 53.4148H4.02458C4.21864 53.4148 4.40475 53.4919 4.54198 53.6291C4.6792 53.7663 4.75629 53.9524 4.75629 54.1465C4.75629 54.3406 4.6792 54.5267 4.54198 54.6639C4.40475 54.8011 4.21864 54.8782 4.02458 54.8782H2.92702C2.73296 54.8782 2.54685 54.8011 2.40962 54.6639C2.2724 54.5267 2.19531 54.3406 2.19531 54.1465C2.19531 53.9524 2.2724 53.7663 2.40962 53.6291C2.54685 53.4919 2.73296 53.4148 2.92702 53.4148ZM58.5363 53.4148H57.4387C57.2447 53.4148 57.0586 53.4919 56.9213 53.6291C56.7841 53.7663 56.707 53.9524 56.707 54.1465C56.707 54.3406 56.7841 54.5267 56.9213 54.6639C57.0586 54.8011 57.2447 54.8782 57.4387 54.8782H58.5363C58.7304 54.8782 58.9165 54.8011 59.0537 54.6639C59.1909 54.5267 59.268 54.3406 59.268 54.1465C59.268 53.9524 59.1909 53.7663 59.0537 53.6291C58.9165 53.4919 58.7304 53.4148 58.5363 53.4148ZM61.4634 54.1465C61.4634 54.5506 61.1358 54.8782 60.7317 54.8782C60.3276 54.8782 60 54.5506 60 54.1465C60 53.7424 60.3276 53.4148 60.7317 53.4148C61.1358 53.4148 61.4634 53.7424 61.4634 54.1465ZM43.2266 56.3416H40.1871C40.0032 56.3563 39.8316 56.4398 39.7064 56.5754C39.5812 56.711 39.5117 56.8887 39.5117 57.0733C39.5117 57.2578 39.5812 57.4356 39.7064 57.5712C39.8316 57.7068 40.0032 57.7902 40.1871 57.805H43.2266C43.4105 57.7902 43.5821 57.7068 43.7073 57.5712C43.8325 57.4356 43.902 57.2578 43.902 57.0733C43.902 56.8887 43.8325 56.711 43.7073 56.5754C43.5821 56.4398 43.4105 56.3563 43.2266 56.3416ZM18.2379 56.3416H21.2773C21.4613 56.3563 21.6329 56.4398 21.7581 56.5754C21.8833 56.711 21.9528 56.8887 21.9528 57.0733C21.9528 57.2578 21.8833 57.4356 21.7581 57.5712C21.6329 57.7068 21.4613 57.7902 21.2773 57.805H18.2379C18.054 57.7902 17.8823 57.7068 17.7572 57.5712C17.632 57.4356 17.5625 57.2578 17.5625 57.0733C17.5625 56.8887 17.632 56.711 17.7572 56.5754C17.8823 56.4398 18.054 56.3563 18.2379 56.3416ZM38.0494 56.3416H23.4153C23.2212 56.3416 23.0351 56.4186 22.8979 56.5559C22.7607 56.6931 22.6836 56.8792 22.6836 57.0733C22.6836 57.2673 22.7607 57.4534 22.8979 57.5907C23.0351 57.7279 23.2212 57.805 23.4153 57.805H29.247V58.5367H26.3421C26.1481 58.5367 25.962 58.6138 25.8247 58.751C25.6875 58.8882 25.6104 59.0743 25.6104 59.2684C25.6104 59.4624 25.6875 59.6486 25.8247 59.7858C25.962 59.923 26.1481 60.0001 26.3421 60.0001H35.4885C35.6825 60.0001 35.8686 59.923 36.0059 59.7858C36.1431 59.6486 36.2202 59.4624 36.2202 59.2684C36.2202 59.0743 36.1431 58.8882 36.0059 58.751C35.8686 58.6138 35.6825 58.5367 35.4885 58.5367H32.2177V57.805H38.0494C38.2435 57.805 38.4296 57.7279 38.5668 57.5907C38.7041 57.4534 38.7812 57.2673 38.7812 57.0733C38.7812 56.8792 38.7041 56.6931 38.5668 56.5559C38.4296 56.4186 38.2435 56.3416 38.0494 56.3416ZM46.3276 53.4147H55.1423C55.2464 53.4011 55.3522 53.4098 55.4526 53.4404C55.5531 53.4709 55.6458 53.5225 55.7247 53.5918C55.8036 53.6611 55.8668 53.7463 55.9101 53.842C55.9534 53.9376 55.9758 54.0414 55.9758 54.1464C55.9758 54.2513 55.9534 54.3551 55.9101 54.4508C55.8668 54.5464 55.8036 54.6317 55.7247 54.7009C55.6458 54.7702 55.5531 54.8218 55.4526 54.8524C55.3522 54.8829 55.2464 54.8917 55.1423 54.8781H6.32181C6.21772 54.8917 6.11192 54.8829 6.01148 54.8524C5.91105 54.8218 5.81828 54.7702 5.73939 54.7009C5.66049 54.6317 5.59729 54.5464 5.55398 54.4508C5.51068 54.3551 5.48828 54.2513 5.48828 54.1464C5.48828 54.0414 5.51068 53.9376 5.55398 53.842C5.59729 53.7463 5.66049 53.6611 5.73939 53.5918C5.81828 53.5225 5.91105 53.4709 6.01148 53.4404C6.11192 53.4098 6.21772 53.4011 6.32181 53.4147H15.136C14.8067 52.8814 14.633 52.2667 14.6345 51.64C14.6247 50.9585 14.8301 50.2913 15.2214 49.7334C15.6128 49.1754 16.1702 48.7551 16.8142 48.5323L24.1467 46.2198V44.1001L20.292 45.2742C20.2784 45.2785 20.2649 45.2821 20.2513 45.2853C19.7685 45.403 19.2628 45.3884 18.7876 45.2429C18.3124 45.0974 17.8853 44.8265 17.5511 44.4586C17.217 44.0908 16.9883 43.6396 16.889 43.1526C16.7897 42.6657 16.8237 42.161 16.9872 41.6917L20.4388 31.8113C20.5868 31.3879 20.8355 31.0068 21.1636 30.7011C21.4917 30.3953 21.8893 30.174 22.3221 30.0563L25.6058 29.1614C25.8608 29.6218 26.1764 30.046 26.5443 30.4225L22.7065 31.4683C22.5029 31.5237 22.3158 31.6279 22.1614 31.7717C22.007 31.9156 21.8898 32.0948 21.8201 32.2939L18.3684 42.174C18.2923 42.3934 18.2763 42.6292 18.3221 42.8569C18.368 43.0845 18.4739 43.2958 18.629 43.4686C18.7841 43.6415 18.9827 43.7696 19.2041 43.8398C19.4254 43.9099 19.6616 43.9195 19.8879 43.8675L30.5188 40.6295C30.6578 40.5873 30.8063 40.5873 30.9453 40.6295L41.5762 43.8676C41.8025 43.9195 42.0387 43.91 42.26 43.8398C42.4814 43.7696 42.68 43.6415 42.8351 43.4686C42.9902 43.2958 43.0961 43.0845 43.142 42.8569C43.1878 42.6292 43.1718 42.3934 43.0957 42.174L39.644 32.2936C39.5742 32.0945 39.457 31.9154 39.3026 31.7716C39.1482 31.6278 38.9612 31.5237 38.7576 31.4683L34.9199 30.4225C35.2877 30.046 35.6033 29.6218 35.8583 29.1614L39.142 30.0563C39.5747 30.174 39.9723 30.3953 40.3004 30.701C40.6285 31.0067 40.8773 31.3876 41.0253 31.8109L44.4769 41.6917C44.6213 42.107 44.6646 42.5507 44.6033 42.986C44.5419 43.4214 44.3777 43.8358 44.1242 44.1951C43.8707 44.5543 43.5353 44.8479 43.1456 45.0516C42.756 45.2553 42.3234 45.3632 41.8838 45.3664C41.6577 45.3662 41.4324 45.339 41.2128 45.2853C41.1992 45.2821 41.1857 45.2785 41.1721 45.2742L37.3174 44.1001V46.2198L44.6499 48.5323C45.2934 48.7547 45.8505 49.1745 46.2419 49.7317C46.6332 50.289 46.8389 50.9555 46.8296 51.6364C46.8312 52.2643 46.6574 52.8803 46.3276 53.4147ZM30.732 42.0943L25.6101 43.6544V46.0974H35.854V43.6544L30.732 42.0943ZM24.7598 47.5608L17.2544 49.9279C16.9067 50.0552 16.6079 50.2888 16.4004 50.5954C16.1928 50.9021 16.087 51.2663 16.0979 51.6364C16.0739 52.0819 16.227 52.5187 16.5237 52.8518C16.8204 53.1849 17.2368 53.3872 17.6821 53.4146H24.529C24.3266 53.0122 24.2217 52.5678 24.2228 52.1173C24.2038 51.406 24.4674 50.7162 24.9559 50.1989C25.4444 49.6815 26.1179 49.3788 26.8291 49.3569H33.9897C34.1838 49.3569 34.3699 49.434 34.5071 49.5712C34.6444 49.7085 34.7214 49.8946 34.7214 50.0886C34.7214 50.2827 34.6444 50.4688 34.5071 50.6061C34.3699 50.7433 34.1838 50.8204 33.9897 50.8204H26.8291C26.5134 50.8604 26.2231 51.0143 26.0127 51.2531C25.8023 51.4919 25.6862 51.7992 25.6862 52.1175C25.6862 52.4358 25.8023 52.7431 26.0127 52.9819C26.2231 53.2207 26.5134 53.3745 26.8291 53.4146H43.782C44.2267 53.3875 44.6427 53.1858 44.9394 52.8534C45.2361 52.521 45.3895 52.0849 45.3662 51.64C45.3777 51.2693 45.2721 50.9044 45.0645 50.5971C44.857 50.2897 44.5578 50.0556 44.2097 49.9279L36.7043 47.5608H24.7598Z" fill="url(#paint0_linear_736_1537)"/>
<defs>
<linearGradient id="paint0_linear_736_1537" x1="30.732" y1="29.1614" x2="30.732" y2="54.8843" gradientUnits="userSpaceOnUse">
<stop stop-color="white"/>
<stop offset="1" stop-color="#DF226A" stop-opacity="0"/>
</linearGradient>
</defs>
</svg>
