<svg width="384" height="250" viewBox="0 0 384 250" fill="none" xmlns="http://www.w3.org/2000/svg">
<rect width="384" height="250" rx="10" fill="white"/>
<path d="M24.432 37L29.616 24.4H31.056L36.204 37H33.972L29.94 26.794H30.696L26.628 37H24.432ZM26.988 34.57V32.77H33.666V34.57H26.988ZM42.3627 37.18C41.7027 37.18 41.1147 37.042 40.5987 36.766C40.0827 36.478 39.6747 36.088 39.3747 35.596C39.0867 35.104 38.9427 34.546 38.9427 33.922V31.438C38.9427 30.814 39.0927 30.256 39.3927 29.764C39.6927 29.272 40.1007 28.888 40.6167 28.612C41.1327 28.324 41.7147 28.18 42.3627 28.18C43.1427 28.18 43.8447 28.384 44.4687 28.792C45.1047 29.188 45.6027 29.728 45.9627 30.412C46.3347 31.084 46.5207 31.846 46.5207 32.698C46.5207 33.538 46.3347 34.3 45.9627 34.984C45.6027 35.656 45.1047 36.19 44.4687 36.586C43.8447 36.982 43.1427 37.18 42.3627 37.18ZM37.7367 40.6V28.36H39.7167V30.682L39.3747 32.788L39.7167 34.876V40.6H37.7367ZM42.0387 35.308C42.5187 35.308 42.9387 35.2 43.2987 34.984C43.6707 34.756 43.9587 34.444 44.1627 34.048C44.3787 33.652 44.4867 33.196 44.4867 32.68C44.4867 32.164 44.3787 31.708 44.1627 31.312C43.9587 30.916 43.6707 30.61 43.2987 30.394C42.9387 30.166 42.5187 30.052 42.0387 30.052C41.5587 30.052 41.1327 30.166 40.7607 30.394C40.3887 30.61 40.1007 30.916 39.8967 31.312C39.6927 31.708 39.5907 32.164 39.5907 32.68C39.5907 33.196 39.6927 33.652 39.8967 34.048C40.1007 34.444 40.3887 34.756 40.7607 34.984C41.1327 35.2 41.5587 35.308 42.0387 35.308ZM52.8041 37.18C52.1441 37.18 51.5561 37.042 51.0401 36.766C50.5241 36.478 50.1161 36.088 49.8161 35.596C49.5281 35.104 49.3841 34.546 49.3841 33.922V31.438C49.3841 30.814 49.5341 30.256 49.8341 29.764C50.1341 29.272 50.5421 28.888 51.0581 28.612C51.5741 28.324 52.1561 28.18 52.8041 28.18C53.5841 28.18 54.2861 28.384 54.9101 28.792C55.5461 29.188 56.0441 29.728 56.4041 30.412C56.7761 31.084 56.9621 31.846 56.9621 32.698C56.9621 33.538 56.7761 34.3 56.4041 34.984C56.0441 35.656 55.5461 36.19 54.9101 36.586C54.2861 36.982 53.5841 37.18 52.8041 37.18ZM48.1781 40.6V28.36H50.1581V30.682L49.8161 32.788L50.1581 34.876V40.6H48.1781ZM52.4801 35.308C52.9601 35.308 53.3801 35.2 53.7401 34.984C54.1121 34.756 54.4001 34.444 54.6041 34.048C54.8201 33.652 54.9281 33.196 54.9281 32.68C54.9281 32.164 54.8201 31.708 54.6041 31.312C54.4001 30.916 54.1121 30.61 53.7401 30.394C53.3801 30.166 52.9601 30.052 52.4801 30.052C52.0001 30.052 51.5741 30.166 51.2021 30.394C50.8301 30.61 50.5421 30.916 50.3381 31.312C50.1341 31.708 50.0321 32.164 50.0321 32.68C50.0321 33.196 50.1341 33.652 50.3381 34.048C50.5421 34.444 50.8301 34.756 51.2021 34.984C51.5741 35.2 52.0001 35.308 52.4801 35.308ZM58.6195 37V24.04H60.5995V37H58.6195ZM62.8211 37V28.36H64.8011V37H62.8211ZM63.8111 26.776C63.4751 26.776 63.1931 26.662 62.9651 26.434C62.7491 26.206 62.6411 25.924 62.6411 25.588C62.6411 25.252 62.7491 24.97 62.9651 24.742C63.1931 24.514 63.4751 24.4 63.8111 24.4C64.1591 24.4 64.4411 24.514 64.6571 24.742C64.8731 24.97 64.9811 25.252 64.9811 25.588C64.9811 25.924 64.8731 26.206 64.6571 26.434C64.4411 26.662 64.1591 26.776 63.8111 26.776ZM70.9998 37.18C70.1478 37.18 69.3738 36.982 68.6778 36.586C67.9938 36.19 67.4538 35.65 67.0578 34.966C66.6618 34.282 66.4638 33.52 66.4638 32.68C66.4638 31.828 66.6618 31.066 67.0578 30.394C67.4538 29.71 67.9938 29.17 68.6778 28.774C69.3738 28.378 70.1478 28.18 70.9998 28.18C71.6718 28.18 72.2958 28.312 72.8718 28.576C73.4598 28.828 73.9578 29.194 74.3658 29.674L73.0698 30.988C72.8178 30.688 72.5118 30.466 72.1518 30.322C71.8038 30.166 71.4198 30.088 70.9998 30.088C70.5078 30.088 70.0698 30.202 69.6858 30.43C69.3138 30.646 69.0198 30.946 68.8038 31.33C68.5998 31.714 68.4978 32.164 68.4978 32.68C68.4978 33.184 68.5998 33.634 68.8038 34.03C69.0198 34.414 69.3138 34.72 69.6858 34.948C70.0698 35.164 70.5078 35.272 70.9998 35.272C71.4198 35.272 71.8038 35.2 72.1518 35.056C72.5118 34.9 72.8178 34.672 73.0698 34.372L74.3658 35.686C73.9578 36.166 73.4598 36.538 72.8718 36.802C72.2958 37.054 71.6718 37.18 70.9998 37.18ZM79.2355 37.18C78.4555 37.18 77.7475 36.982 77.1115 36.586C76.4875 36.19 75.9895 35.656 75.6175 34.984C75.2575 34.3 75.0775 33.538 75.0775 32.698C75.0775 31.846 75.2575 31.084 75.6175 30.412C75.9895 29.728 76.4875 29.188 77.1115 28.792C77.7475 28.384 78.4555 28.18 79.2355 28.18C79.8955 28.18 80.4775 28.324 80.9815 28.612C81.4975 28.888 81.9055 29.272 82.2055 29.764C82.5055 30.256 82.6555 30.814 82.6555 31.438V33.922C82.6555 34.546 82.5055 35.104 82.2055 35.596C81.9175 36.088 81.5155 36.478 80.9995 36.766C80.4835 37.042 79.8955 37.18 79.2355 37.18ZM79.5595 35.308C80.2915 35.308 80.8795 35.062 81.3235 34.57C81.7795 34.078 82.0075 33.448 82.0075 32.68C82.0075 32.164 81.9055 31.708 81.7015 31.312C81.4975 30.916 81.2095 30.61 80.8375 30.394C80.4775 30.166 80.0515 30.052 79.5595 30.052C79.0795 30.052 78.6535 30.166 78.2815 30.394C77.9215 30.61 77.6335 30.916 77.4175 31.312C77.2135 31.708 77.1115 32.164 77.1115 32.68C77.1115 33.196 77.2135 33.652 77.4175 34.048C77.6335 34.444 77.9215 34.756 78.2815 34.984C78.6535 35.2 79.0795 35.308 79.5595 35.308ZM81.8815 37V34.678L82.2235 32.572L81.8815 30.484V28.36H83.8615V37H81.8815ZM87.3729 37V24.76H89.3529V37H87.3729ZM85.3029 30.16V28.36H91.4229V30.16H85.3029ZM92.8797 37V28.36H94.8597V37H92.8797ZM93.8697 26.776C93.5337 26.776 93.2517 26.662 93.0237 26.434C92.8077 26.206 92.6997 25.924 92.6997 25.588C92.6997 25.252 92.8077 24.97 93.0237 24.742C93.2517 24.514 93.5337 24.4 93.8697 24.4C94.2177 24.4 94.4997 24.514 94.7157 24.742C94.9317 24.97 95.0397 25.252 95.0397 25.588C95.0397 25.924 94.9317 26.206 94.7157 26.434C94.4997 26.662 94.2177 26.776 93.8697 26.776ZM101.04 37.18C100.2 37.18 99.4384 36.982 98.7544 36.586C98.0704 36.178 97.5244 35.632 97.1164 34.948C96.7204 34.264 96.5224 33.502 96.5224 32.662C96.5224 31.822 96.7204 31.066 97.1164 30.394C97.5244 29.722 98.0704 29.188 98.7544 28.792C99.4384 28.384 100.2 28.18 101.04 28.18C101.892 28.18 102.66 28.378 103.344 28.774C104.028 29.17 104.568 29.71 104.964 30.394C105.372 31.066 105.576 31.822 105.576 32.662C105.576 33.502 105.372 34.264 104.964 34.948C104.568 35.632 104.028 36.178 103.344 36.586C102.66 36.982 101.892 37.18 101.04 37.18ZM101.04 35.272C101.532 35.272 101.964 35.164 102.336 34.948C102.72 34.72 103.014 34.408 103.218 34.012C103.434 33.616 103.542 33.166 103.542 32.662C103.542 32.158 103.434 31.714 103.218 31.33C103.002 30.946 102.708 30.646 102.336 30.43C101.964 30.202 101.532 30.088 101.04 30.088C100.56 30.088 100.128 30.202 99.7444 30.43C99.3724 30.646 99.0784 30.946 98.8624 31.33C98.6584 31.714 98.5564 32.158 98.5564 32.662C98.5564 33.166 98.6584 33.616 98.8624 34.012C99.0784 34.408 99.3724 34.72 99.7444 34.948C100.128 35.164 100.56 35.272 101.04 35.272ZM113.145 37V32.014C113.145 31.438 112.959 30.964 112.587 30.592C112.227 30.22 111.759 30.034 111.183 30.034C110.799 30.034 110.457 30.118 110.157 30.286C109.857 30.454 109.623 30.688 109.455 30.988C109.287 31.288 109.203 31.63 109.203 32.014L108.429 31.582C108.429 30.922 108.573 30.34 108.861 29.836C109.149 29.32 109.545 28.918 110.049 28.63C110.565 28.33 111.141 28.18 111.777 28.18C112.425 28.18 113.001 28.348 113.505 28.684C114.009 29.008 114.405 29.434 114.693 29.962C114.981 30.478 115.125 31.018 115.125 31.582V37H113.145ZM107.223 37V28.36H109.203V37H107.223ZM119.963 37.18C119.483 37.18 119.021 37.12 118.577 37C118.133 36.868 117.725 36.688 117.353 36.46C116.981 36.22 116.657 35.932 116.381 35.596L117.641 34.336C117.941 34.684 118.283 34.948 118.667 35.128C119.063 35.296 119.507 35.38 119.999 35.38C120.443 35.38 120.779 35.314 121.007 35.182C121.235 35.05 121.349 34.858 121.349 34.606C121.349 34.342 121.241 34.138 121.025 33.994C120.809 33.85 120.527 33.73 120.179 33.634C119.843 33.526 119.483 33.418 119.099 33.31C118.727 33.202 118.367 33.058 118.019 32.878C117.683 32.686 117.407 32.428 117.191 32.104C116.975 31.78 116.867 31.36 116.867 30.844C116.867 30.292 116.993 29.818 117.245 29.422C117.509 29.026 117.875 28.72 118.343 28.504C118.823 28.288 119.393 28.18 120.053 28.18C120.749 28.18 121.361 28.306 121.889 28.558C122.429 28.798 122.879 29.164 123.239 29.656L121.979 30.916C121.727 30.604 121.439 30.37 121.115 30.214C120.791 30.058 120.419 29.98 119.999 29.98C119.603 29.98 119.297 30.04 119.081 30.16C118.865 30.28 118.757 30.454 118.757 30.682C118.757 30.922 118.865 31.108 119.081 31.24C119.297 31.372 119.573 31.486 119.909 31.582C120.257 31.678 120.617 31.786 120.989 31.906C121.373 32.014 121.733 32.17 122.069 32.374C122.417 32.566 122.699 32.83 122.915 33.166C123.131 33.49 123.239 33.916 123.239 34.444C123.239 35.284 122.945 35.95 122.357 36.442C121.769 36.934 120.971 37.18 119.963 37.18ZM130.167 31.654V29.944H133.353C133.989 29.944 134.481 29.782 134.829 29.458C135.189 29.122 135.369 28.66 135.369 28.072C135.369 27.544 135.195 27.1 134.847 26.74C134.499 26.38 134.007 26.2 133.371 26.2H130.167V24.4H133.461C134.253 24.4 134.949 24.562 135.549 24.886C136.149 25.198 136.611 25.63 136.935 26.182C137.271 26.722 137.439 27.34 137.439 28.036C137.439 28.768 137.271 29.404 136.935 29.944C136.611 30.484 136.149 30.904 135.549 31.204C134.949 31.504 134.253 31.654 133.461 31.654H130.167ZM128.745 37V24.4H130.815V37H128.745ZM135.657 37L131.247 31.528L133.173 30.826L138.267 37H135.657ZM143.282 37.18C142.418 37.18 141.638 36.988 140.942 36.604C140.258 36.208 139.712 35.668 139.304 34.984C138.908 34.3 138.71 33.532 138.71 32.68C138.71 31.828 138.908 31.066 139.304 30.394C139.7 29.71 140.234 29.17 140.906 28.774C141.59 28.378 142.346 28.18 143.174 28.18C143.978 28.18 144.686 28.366 145.298 28.738C145.922 29.11 146.408 29.62 146.756 30.268C147.116 30.916 147.296 31.654 147.296 32.482C147.296 32.626 147.284 32.776 147.26 32.932C147.248 33.076 147.224 33.238 147.188 33.418H140.096V31.798H146.162L145.424 32.446C145.4 31.918 145.298 31.474 145.118 31.114C144.938 30.754 144.68 30.478 144.344 30.286C144.02 30.094 143.618 29.998 143.138 29.998C142.634 29.998 142.196 30.106 141.824 30.322C141.452 30.538 141.164 30.844 140.96 31.24C140.756 31.624 140.654 32.086 140.654 32.626C140.654 33.166 140.762 33.64 140.978 34.048C141.194 34.456 141.5 34.774 141.896 35.002C142.292 35.218 142.748 35.326 143.264 35.326C143.708 35.326 144.116 35.248 144.488 35.092C144.872 34.936 145.196 34.708 145.46 34.408L146.72 35.686C146.3 36.178 145.79 36.55 145.19 36.802C144.59 37.054 143.954 37.18 143.282 37.18ZM152.861 37.18C152.009 37.18 151.235 36.982 150.539 36.586C149.855 36.19 149.315 35.65 148.919 34.966C148.523 34.282 148.325 33.52 148.325 32.68C148.325 31.828 148.523 31.066 148.919 30.394C149.315 29.71 149.855 29.17 150.539 28.774C151.235 28.378 152.009 28.18 152.861 28.18C153.533 28.18 154.157 28.312 154.733 28.576C155.321 28.828 155.819 29.194 156.227 29.674L154.931 30.988C154.679 30.688 154.373 30.466 154.013 30.322C153.665 30.166 153.281 30.088 152.861 30.088C152.369 30.088 151.931 30.202 151.547 30.43C151.175 30.646 150.881 30.946 150.665 31.33C150.461 31.714 150.359 32.164 150.359 32.68C150.359 33.184 150.461 33.634 150.665 34.03C150.881 34.414 151.175 34.72 151.547 34.948C151.931 35.164 152.369 35.272 152.861 35.272C153.281 35.272 153.665 35.2 154.013 35.056C154.373 34.9 154.679 34.672 154.931 34.372L156.227 35.686C155.819 36.166 155.321 36.538 154.733 36.802C154.157 37.054 153.533 37.18 152.861 37.18ZM161.493 37.18C160.629 37.18 159.849 36.988 159.153 36.604C158.469 36.208 157.923 35.668 157.515 34.984C157.119 34.3 156.921 33.532 156.921 32.68C156.921 31.828 157.119 31.066 157.515 30.394C157.911 29.71 158.445 29.17 159.117 28.774C159.801 28.378 160.557 28.18 161.385 28.18C162.189 28.18 162.897 28.366 163.509 28.738C164.133 29.11 164.619 29.62 164.967 30.268C165.327 30.916 165.507 31.654 165.507 32.482C165.507 32.626 165.495 32.776 165.471 32.932C165.459 33.076 165.435 33.238 165.399 33.418H158.307V31.798H164.373L163.635 32.446C163.611 31.918 163.509 31.474 163.329 31.114C163.149 30.754 162.891 30.478 162.555 30.286C162.231 30.094 161.829 29.998 161.349 29.998C160.845 29.998 160.407 30.106 160.035 30.322C159.663 30.538 159.375 30.844 159.171 31.24C158.967 31.624 158.865 32.086 158.865 32.626C158.865 33.166 158.973 33.64 159.189 34.048C159.405 34.456 159.711 34.774 160.107 35.002C160.503 35.218 160.959 35.326 161.475 35.326C161.919 35.326 162.327 35.248 162.699 35.092C163.083 34.936 163.407 34.708 163.671 34.408L164.931 35.686C164.511 36.178 164.001 36.55 163.401 36.802C162.801 37.054 162.165 37.18 161.493 37.18ZM167.112 37V28.36H169.092V37H167.112ZM168.102 26.776C167.766 26.776 167.484 26.662 167.256 26.434C167.04 26.206 166.932 25.924 166.932 25.588C166.932 25.252 167.04 24.97 167.256 24.742C167.484 24.514 167.766 24.4 168.102 24.4C168.45 24.4 168.732 24.514 168.948 24.742C169.164 24.97 169.272 25.252 169.272 25.588C169.272 25.924 169.164 26.206 168.948 26.434C168.732 26.662 168.45 26.776 168.102 26.776ZM174.229 37L170.287 28.36H172.483L175.489 35.398H174.193L177.217 28.36H179.323L175.381 37H174.229ZM184.221 37.18C183.357 37.18 182.577 36.988 181.881 36.604C181.197 36.208 180.651 35.668 180.243 34.984C179.847 34.3 179.649 33.532 179.649 32.68C179.649 31.828 179.847 31.066 180.243 30.394C180.639 29.71 181.173 29.17 181.845 28.774C182.529 28.378 183.285 28.18 184.113 28.18C184.917 28.18 185.625 28.366 186.237 28.738C186.861 29.11 187.347 29.62 187.695 30.268C188.055 30.916 188.235 31.654 188.235 32.482C188.235 32.626 188.223 32.776 188.199 32.932C188.187 33.076 188.163 33.238 188.127 33.418H181.035V31.798H187.101L186.363 32.446C186.339 31.918 186.237 31.474 186.057 31.114C185.877 30.754 185.619 30.478 185.283 30.286C184.959 30.094 184.557 29.998 184.077 29.998C183.573 29.998 183.135 30.106 182.763 30.322C182.391 30.538 182.103 30.844 181.899 31.24C181.695 31.624 181.593 32.086 181.593 32.626C181.593 33.166 181.701 33.64 181.917 34.048C182.133 34.456 182.439 34.774 182.835 35.002C183.231 35.218 183.687 35.326 184.203 35.326C184.647 35.326 185.055 35.248 185.427 35.092C185.811 34.936 186.135 34.708 186.399 34.408L187.659 35.686C187.239 36.178 186.729 36.55 186.129 36.802C185.529 37.054 184.893 37.18 184.221 37.18ZM193.441 37.18C192.661 37.18 191.953 36.982 191.317 36.586C190.693 36.19 190.195 35.656 189.823 34.984C189.463 34.3 189.283 33.538 189.283 32.698C189.283 31.846 189.463 31.084 189.823 30.412C190.195 29.728 190.693 29.188 191.317 28.792C191.953 28.384 192.661 28.18 193.441 28.18C194.101 28.18 194.683 28.324 195.187 28.612C195.703 28.888 196.111 29.272 196.411 29.764C196.711 30.256 196.861 30.814 196.861 31.438V33.922C196.861 34.546 196.711 35.104 196.411 35.596C196.123 36.088 195.721 36.478 195.205 36.766C194.689 37.042 194.101 37.18 193.441 37.18ZM193.765 35.308C194.257 35.308 194.683 35.2 195.043 34.984C195.415 34.756 195.703 34.444 195.907 34.048C196.111 33.652 196.213 33.196 196.213 32.68C196.213 32.164 196.111 31.708 195.907 31.312C195.703 30.916 195.415 30.61 195.043 30.394C194.683 30.166 194.263 30.052 193.783 30.052C193.291 30.052 192.859 30.166 192.487 30.394C192.127 30.61 191.839 30.916 191.623 31.312C191.419 31.708 191.317 32.164 191.317 32.68C191.317 33.196 191.419 33.652 191.623 34.048C191.839 34.444 192.127 34.756 192.487 34.984C192.859 35.2 193.285 35.308 193.765 35.308ZM198.067 37H196.087V34.678L196.429 32.572L196.087 30.484V24.04H198.067V37Z" fill="#475569"/>
<path d="M28.056 71.3252V52.9692H32.112V71.3252H28.056ZM24.52 56.4272V52.9692H31.852V56.4272H24.52ZM37.8822 71.3252V52.9692H41.9382V71.3252H37.8822ZM34.3462 56.4272V52.9692H41.6782V56.4272H34.3462ZM50.2563 71.6112C48.991 71.6112 47.8037 71.3945 46.6943 70.9612C45.6023 70.5105 44.6923 69.8692 43.9643 69.0372L46.6163 66.4112C46.9457 66.8965 47.4223 67.2952 48.0463 67.6072C48.6877 67.9019 49.381 68.0492 50.1263 68.0492C50.785 68.0492 51.357 67.9365 51.8423 67.7112C52.3277 67.4685 52.709 67.1305 52.9863 66.6972C53.2637 66.2465 53.4023 65.7265 53.4023 65.1372C53.4023 64.5305 53.2637 64.0105 52.9863 63.5772C52.709 63.1439 52.319 62.8145 51.8163 62.5892C51.331 62.3465 50.7763 62.2252 50.1523 62.2252C49.5283 62.2252 48.9563 62.3119 48.4363 62.4852C47.9163 62.6412 47.4397 62.8839 47.0063 63.2132L47.3443 60.6132C47.743 60.3012 48.1243 60.0499 48.4883 59.8592C48.8523 59.6512 49.251 59.4952 49.6843 59.3912C50.1177 59.2872 50.629 59.2352 51.2183 59.2352C52.5703 59.2352 53.7057 59.5125 54.6243 60.0672C55.5603 60.6219 56.2623 61.3585 56.7303 62.2772C57.2157 63.1959 57.4583 64.2099 57.4583 65.3192C57.4583 66.5325 57.155 67.6159 56.5483 68.5692C55.959 69.5225 55.127 70.2679 54.0523 70.8052C52.9777 71.3425 51.7123 71.6112 50.2563 71.6112ZM47.0063 63.2132L45.2383 61.5752L46.1223 52.9692H49.8143L48.8523 61.4972L47.0063 63.2132ZM46.6683 56.4272L46.1223 52.9692H56.4443V56.4272H46.6683Z" fill="#475569"/>
<path d="M273.201 34V24.564H274.517V34H273.201ZM269.897 25.488V24.284H277.807V25.488H269.897ZM283.855 34V30.122C283.855 29.618 283.696 29.2027 283.379 28.876C283.061 28.5493 282.651 28.386 282.147 28.386C281.811 28.386 281.512 28.4607 281.251 28.61C280.989 28.7593 280.784 28.9647 280.635 29.226C280.485 29.4873 280.411 29.786 280.411 30.122L279.893 29.828C279.893 29.324 280.005 28.876 280.229 28.484C280.453 28.092 280.765 27.784 281.167 27.56C281.568 27.3267 282.021 27.21 282.525 27.21C283.029 27.21 283.472 27.322 283.855 27.546C284.247 27.77 284.555 28.0827 284.779 28.484C285.003 28.8853 285.115 29.3473 285.115 29.87V34H283.855ZM279.151 34V24.004H280.411V34H279.151ZM286.834 34V27.35H288.094V34H286.834ZM287.464 26.02C287.231 26.02 287.04 25.9453 286.89 25.796C286.741 25.6373 286.666 25.4413 286.666 25.208C286.666 24.984 286.741 24.7973 286.89 24.648C287.04 24.4893 287.231 24.41 287.464 24.41C287.698 24.41 287.889 24.4893 288.038 24.648C288.188 24.7973 288.262 24.984 288.262 25.208C288.262 25.4413 288.188 25.6373 288.038 25.796C287.889 25.9453 287.698 26.02 287.464 26.02ZM292.065 34.14C291.692 34.14 291.337 34.0933 291.001 34C290.675 33.8973 290.371 33.7573 290.091 33.58C289.811 33.3933 289.569 33.174 289.363 32.922L290.175 32.11C290.418 32.4087 290.698 32.6327 291.015 32.782C291.333 32.922 291.687 32.992 292.079 32.992C292.471 32.992 292.775 32.9267 292.989 32.796C293.204 32.656 293.311 32.4647 293.311 32.222C293.311 31.9793 293.223 31.7927 293.045 31.662C292.877 31.522 292.658 31.41 292.387 31.326C292.117 31.2327 291.827 31.144 291.519 31.06C291.221 30.9667 290.936 30.85 290.665 30.71C290.395 30.57 290.171 30.3787 289.993 30.136C289.825 29.8933 289.741 29.5713 289.741 29.17C289.741 28.7687 289.839 28.4233 290.035 28.134C290.231 27.8353 290.502 27.6067 290.847 27.448C291.202 27.2893 291.627 27.21 292.121 27.21C292.644 27.21 293.106 27.3033 293.507 27.49C293.918 27.6673 294.254 27.938 294.515 28.302L293.703 29.114C293.517 28.8713 293.283 28.6847 293.003 28.554C292.733 28.4233 292.425 28.358 292.079 28.358C291.715 28.358 291.435 28.4233 291.239 28.554C291.053 28.6753 290.959 28.848 290.959 29.072C290.959 29.296 291.043 29.4687 291.211 29.59C291.379 29.7113 291.599 29.814 291.869 29.898C292.149 29.982 292.439 30.0707 292.737 30.164C293.036 30.248 293.321 30.3647 293.591 30.514C293.862 30.6633 294.081 30.864 294.249 31.116C294.427 31.368 294.515 31.6993 294.515 32.11C294.515 32.7353 294.291 33.23 293.843 33.594C293.405 33.958 292.812 34.14 292.065 34.14ZM299.062 34V24.284H299.986L304.102 31.046H303.472L307.588 24.284H308.512V34H307.196V26.594L307.504 26.678L304.256 32.012H303.332L300.084 26.678L300.378 26.594V34H299.062ZM313.62 34.14C312.967 34.14 312.379 33.986 311.856 33.678C311.334 33.37 310.918 32.9547 310.61 32.432C310.302 31.9 310.148 31.3073 310.148 30.654C310.148 30.01 310.302 29.4313 310.61 28.918C310.918 28.3953 311.334 27.98 311.856 27.672C312.379 27.364 312.967 27.21 313.62 27.21C314.264 27.21 314.848 27.364 315.37 27.672C315.902 27.9707 316.322 28.3813 316.63 28.904C316.938 29.4267 317.092 30.01 317.092 30.654C317.092 31.3073 316.938 31.9 316.63 32.432C316.322 32.9547 315.902 33.37 315.37 33.678C314.848 33.986 314.264 34.14 313.62 34.14ZM313.62 32.922C314.04 32.922 314.414 32.824 314.74 32.628C315.067 32.432 315.324 32.166 315.51 31.83C315.697 31.4847 315.79 31.0927 315.79 30.654C315.79 30.2247 315.692 29.842 315.496 29.506C315.31 29.17 315.053 28.9087 314.726 28.722C314.409 28.526 314.04 28.428 313.62 28.428C313.2 28.428 312.827 28.526 312.5 28.722C312.174 28.9087 311.917 29.17 311.73 29.506C311.544 29.842 311.45 30.2247 311.45 30.654C311.45 31.0927 311.544 31.4847 311.73 31.83C311.917 32.166 312.174 32.432 312.5 32.628C312.827 32.824 313.2 32.922 313.62 32.922ZM323.216 34V30.122C323.216 29.618 323.057 29.2027 322.74 28.876C322.423 28.5493 322.012 28.386 321.508 28.386C321.172 28.386 320.873 28.4607 320.612 28.61C320.351 28.7593 320.145 28.9647 319.996 29.226C319.847 29.4873 319.772 29.786 319.772 30.122L319.254 29.828C319.254 29.324 319.366 28.876 319.59 28.484C319.814 28.092 320.127 27.784 320.528 27.56C320.929 27.3267 321.382 27.21 321.886 27.21C322.39 27.21 322.833 27.336 323.216 27.588C323.608 27.84 323.916 28.1713 324.14 28.582C324.364 28.9833 324.476 29.4127 324.476 29.87V34H323.216ZM318.512 34V27.35H319.772V34H318.512ZM327.122 34V24.564H328.382V34H327.122ZM325.484 28.498V27.35H330.02V28.498H325.484ZM335.958 34V30.122C335.958 29.618 335.799 29.2027 335.482 28.876C335.165 28.5493 334.754 28.386 334.25 28.386C333.914 28.386 333.615 28.4607 333.354 28.61C333.093 28.7593 332.887 28.9647 332.738 29.226C332.589 29.4873 332.514 29.786 332.514 30.122L331.996 29.828C331.996 29.324 332.108 28.876 332.332 28.484C332.556 28.092 332.869 27.784 333.27 27.56C333.671 27.3267 334.124 27.21 334.628 27.21C335.132 27.21 335.575 27.322 335.958 27.546C336.35 27.77 336.658 28.0827 336.882 28.484C337.106 28.8853 337.218 29.3473 337.218 29.87V34H335.958ZM331.254 34V24.004H332.514V34H331.254Z" fill="#475569"/>
<g clip-path="url(#clip0_23_546)">
<path d="M359.06 26.7267L356 29.78L352.94 26.7267L352 27.6667L356 31.6667L360 27.6667L359.06 26.7267Z" fill="#475569"/>
</g>
<path d="M69.249 71V61.978H70.458V71H69.249ZM67.403 63.07V61.978H70.328V63.07H67.403ZM74.7308 71.13C74.1155 71.13 73.5652 71.0217 73.0798 70.805C72.6032 70.5797 72.2002 70.2547 71.8708 69.83L72.7028 68.998C72.9022 69.3013 73.1752 69.544 73.5218 69.726C73.8772 69.8993 74.2715 69.986 74.7048 69.986C75.1122 69.986 75.4675 69.908 75.7708 69.752C76.0828 69.596 76.3255 69.3793 76.4988 69.102C76.6808 68.816 76.7718 68.478 76.7718 68.088C76.7718 67.6893 76.6852 67.3513 76.5118 67.074C76.3385 66.7967 76.1045 66.5887 75.8098 66.45C75.5238 66.3027 75.2075 66.229 74.8608 66.229C74.5055 66.229 74.1805 66.2723 73.8858 66.359C73.5998 66.4457 73.3268 66.593 73.0668 66.801L73.0798 66.021C73.2272 65.839 73.3962 65.6917 73.5868 65.579C73.7775 65.4663 73.9942 65.3797 74.2368 65.319C74.4795 65.2583 74.7612 65.228 75.0818 65.228C75.7058 65.228 76.2345 65.358 76.6678 65.618C77.1012 65.878 77.4305 66.229 77.6558 66.671C77.8898 67.113 78.0068 67.607 78.0068 68.153C78.0068 68.725 77.8638 69.2363 77.5778 69.687C77.3005 70.1377 76.9148 70.493 76.4208 70.753C75.9268 71.0043 75.3635 71.13 74.7308 71.13ZM73.0668 66.801L72.4038 66.138L72.8068 61.978H73.9248L73.4698 66.255L73.0668 66.801ZM73.0538 63.07L72.8068 61.978H77.5518V63.07H73.0538ZM79.346 71L85.131 61.978H86.314L80.529 71H79.346ZM84.637 71.13C84.299 71.13 83.9914 71.0477 83.714 70.883C83.4367 70.7183 83.2157 70.5017 83.051 70.233C82.8864 69.9557 82.804 69.6437 82.804 69.297C82.804 68.959 82.8864 68.6557 83.051 68.387C83.2157 68.1097 83.4367 67.8887 83.714 67.724C83.9914 67.5593 84.299 67.477 84.637 67.477C84.975 67.477 85.2827 67.5593 85.56 67.724C85.846 67.8887 86.0714 68.1097 86.236 68.387C86.4007 68.6557 86.483 68.959 86.483 69.297C86.483 69.6437 86.4007 69.9557 86.236 70.233C86.0714 70.5017 85.8504 70.7183 85.573 70.883C85.2957 71.0477 84.9837 71.13 84.637 71.13ZM84.637 70.207C84.897 70.207 85.1094 70.1247 85.274 69.96C85.4387 69.7867 85.521 69.5657 85.521 69.297C85.521 69.037 85.4344 68.8247 85.261 68.66C85.0964 68.4867 84.8884 68.4 84.637 68.4C84.3857 68.4 84.1777 68.4867 84.013 68.66C83.8484 68.8247 83.766 69.037 83.766 69.297C83.766 69.5657 83.8484 69.7867 84.013 69.96C84.1777 70.1247 84.3857 70.207 84.637 70.207ZM81.01 65.501C80.6807 65.501 80.3774 65.4187 80.1 65.254C79.8227 65.0893 79.6017 64.8683 79.437 64.591C79.2724 64.3137 79.19 64.006 79.19 63.668C79.19 63.3213 79.268 63.0137 79.424 62.745C79.5887 62.4763 79.8097 62.2597 80.087 62.095C80.3644 61.9303 80.672 61.848 81.01 61.848C81.3567 61.848 81.6687 61.9303 81.946 62.095C82.2234 62.2597 82.4444 62.4763 82.609 62.745C82.7737 63.0137 82.856 63.3213 82.856 63.668C82.856 64.006 82.7737 64.3137 82.609 64.591C82.4444 64.8683 82.2234 65.0893 81.946 65.254C81.6774 65.4187 81.3654 65.501 81.01 65.501ZM81.01 64.578C81.27 64.578 81.4824 64.4957 81.647 64.331C81.8117 64.1577 81.894 63.9367 81.894 63.668C81.894 63.3993 81.8074 63.1827 81.634 63.018C81.4694 62.8533 81.2614 62.771 81.01 62.771C80.7587 62.771 80.5507 62.8533 80.386 63.018C80.23 63.1827 80.152 63.3993 80.152 63.668C80.152 63.9367 80.23 64.1577 80.386 64.331C80.5507 64.4957 80.7587 64.578 81.01 64.578ZM90.6972 71V64.825H91.8672V71H90.6972ZM91.2822 63.59C91.0655 63.59 90.8878 63.5207 90.7492 63.382C90.6105 63.2347 90.5412 63.0527 90.5412 62.836C90.5412 62.628 90.6105 62.4547 90.7492 62.316C90.8878 62.1687 91.0655 62.095 91.2822 62.095C91.4988 62.095 91.6765 62.1687 91.8152 62.316C91.9538 62.4547 92.0232 62.628 92.0232 62.836C92.0232 63.0527 91.9538 63.2347 91.8152 63.382C91.6765 63.5207 91.4988 63.59 91.2822 63.59ZM97.9594 71V67.399C97.9594 66.931 97.8121 66.5453 97.5174 66.242C97.2227 65.9387 96.8414 65.787 96.3734 65.787C96.0614 65.787 95.7841 65.8563 95.5414 65.995C95.2987 66.1337 95.1081 66.3243 94.9694 66.567C94.8307 66.8097 94.7614 67.087 94.7614 67.399L94.2804 67.126C94.2804 66.658 94.3844 66.242 94.5924 65.878C94.8004 65.514 95.0907 65.228 95.4634 65.02C95.8361 64.8033 96.2564 64.695 96.7244 64.695C97.1924 64.695 97.6041 64.812 97.9594 65.046C98.3234 65.28 98.6094 65.5877 98.8174 65.969C99.0254 66.3417 99.1294 66.7403 99.1294 67.165V71H97.9594ZM93.5914 71V64.825H94.7614V71H93.5914ZM103.534 71.13C102.928 71.13 102.377 70.987 101.883 70.701C101.398 70.415 101.012 70.0293 100.726 69.544C100.449 69.05 100.31 68.504 100.31 67.906C100.31 67.2993 100.449 66.7533 100.726 66.268C101.012 65.7827 101.398 65.4013 101.883 65.124C102.377 64.838 102.928 64.695 103.534 64.695C104.011 64.695 104.453 64.786 104.86 64.968C105.268 65.1413 105.619 65.397 105.913 65.735L105.133 66.515C104.943 66.2897 104.709 66.1207 104.431 66.008C104.163 65.8867 103.864 65.826 103.534 65.826C103.144 65.826 102.798 65.917 102.494 66.099C102.191 66.2723 101.953 66.515 101.779 66.827C101.606 67.139 101.519 67.4987 101.519 67.906C101.519 68.3133 101.606 68.673 101.779 68.985C101.953 69.297 102.191 69.544 102.494 69.726C102.798 69.908 103.144 69.999 103.534 69.999C103.864 69.999 104.163 69.9427 104.431 69.83C104.709 69.7087 104.947 69.5353 105.146 69.31L105.913 70.09C105.627 70.4193 105.276 70.675 104.86 70.857C104.453 71.039 104.011 71.13 103.534 71.13ZM107.074 71V64.825H108.244V71H107.074ZM108.244 67.477L107.802 67.282C107.802 66.4933 107.984 65.865 108.348 65.397C108.712 64.929 109.236 64.695 109.921 64.695C110.233 64.695 110.514 64.7513 110.766 64.864C111.017 64.968 111.251 65.1457 111.468 65.397L110.701 66.19C110.571 66.0513 110.428 65.9517 110.272 65.891C110.116 65.8303 109.934 65.8 109.726 65.8C109.292 65.8 108.937 65.9387 108.66 66.216C108.382 66.4933 108.244 66.9137 108.244 67.477ZM114.948 71.13C114.333 71.13 113.778 70.9913 113.284 70.714C112.79 70.428 112.4 70.0423 112.114 69.557C111.828 69.0717 111.685 68.5213 111.685 67.906C111.685 67.2993 111.824 66.7533 112.101 66.268C112.387 65.7827 112.769 65.4013 113.245 65.124C113.731 64.838 114.272 64.695 114.87 64.695C115.442 64.695 115.945 64.825 116.378 65.085C116.82 65.345 117.163 65.7047 117.405 66.164C117.657 66.6233 117.782 67.1433 117.782 67.724C117.782 67.8107 117.778 67.906 117.769 68.01C117.761 68.1053 117.743 68.218 117.717 68.348H112.504V67.373H117.093L116.664 67.75C116.664 67.334 116.591 66.983 116.443 66.697C116.296 66.4023 116.088 66.177 115.819 66.021C115.551 65.8563 115.226 65.774 114.844 65.774C114.446 65.774 114.095 65.8607 113.791 66.034C113.488 66.2073 113.254 66.45 113.089 66.762C112.925 67.074 112.842 67.4423 112.842 67.867C112.842 68.3003 112.929 68.6817 113.102 69.011C113.276 69.3317 113.523 69.583 113.843 69.765C114.164 69.9383 114.532 70.025 114.948 70.025C115.295 70.025 115.611 69.9643 115.897 69.843C116.192 69.7217 116.443 69.5397 116.651 69.297L117.405 70.064C117.111 70.4107 116.747 70.675 116.313 70.857C115.889 71.039 115.434 71.13 114.948 71.13ZM121.684 71.13C121.121 71.13 120.61 70.9913 120.15 70.714C119.691 70.428 119.327 70.0423 119.058 69.557C118.798 69.0717 118.668 68.5257 118.668 67.919C118.668 67.3123 118.798 66.7663 119.058 66.281C119.327 65.7957 119.687 65.41 120.137 65.124C120.597 64.838 121.112 64.695 121.684 64.695C122.152 64.695 122.568 64.7947 122.932 64.994C123.305 65.1847 123.604 65.4533 123.829 65.8C124.055 66.138 124.18 66.5323 124.206 66.983V68.842C124.18 69.284 124.055 69.6783 123.829 70.025C123.613 70.3717 123.318 70.6447 122.945 70.844C122.581 71.0347 122.161 71.13 121.684 71.13ZM121.879 70.025C122.46 70.025 122.928 69.83 123.283 69.44C123.639 69.0413 123.816 68.5343 123.816 67.919C123.816 67.4943 123.734 67.126 123.569 66.814C123.413 66.4933 123.188 66.2463 122.893 66.073C122.599 65.891 122.256 65.8 121.866 65.8C121.476 65.8 121.13 65.891 120.826 66.073C120.532 66.255 120.298 66.5063 120.124 66.827C119.96 67.139 119.877 67.4987 119.877 67.906C119.877 68.322 119.96 68.6903 120.124 69.011C120.298 69.323 120.536 69.57 120.839 69.752C121.143 69.934 121.489 70.025 121.879 70.025ZM123.738 71V69.336L123.959 67.828L123.738 66.333V64.825H124.921V71H123.738ZM128.588 71.13C128.241 71.13 127.912 71.0867 127.6 71C127.296 70.9047 127.015 70.7747 126.755 70.61C126.495 70.4367 126.269 70.233 126.079 69.999L126.833 69.245C127.058 69.5223 127.318 69.7303 127.613 69.869C127.907 69.999 128.237 70.064 128.601 70.064C128.965 70.064 129.246 70.0033 129.446 69.882C129.645 69.752 129.745 69.5743 129.745 69.349C129.745 69.1237 129.662 68.9503 129.498 68.829C129.342 68.699 129.138 68.595 128.887 68.517C128.635 68.4303 128.367 68.348 128.081 68.27C127.803 68.1833 127.539 68.075 127.288 67.945C127.036 67.815 126.828 67.6373 126.664 67.412C126.508 67.1867 126.43 66.8877 126.43 66.515C126.43 66.1423 126.521 65.8217 126.703 65.553C126.885 65.2757 127.136 65.0633 127.457 64.916C127.786 64.7687 128.18 64.695 128.64 64.695C129.125 64.695 129.554 64.7817 129.927 64.955C130.308 65.1197 130.62 65.371 130.863 65.709L130.109 66.463C129.935 66.2377 129.719 66.0643 129.459 65.943C129.207 65.8217 128.921 65.761 128.601 65.761C128.263 65.761 128.003 65.8217 127.821 65.943C127.647 66.0557 127.561 66.216 127.561 66.424C127.561 66.632 127.639 66.7923 127.795 66.905C127.951 67.0177 128.154 67.113 128.406 67.191C128.666 67.269 128.934 67.3513 129.212 67.438C129.489 67.516 129.753 67.6243 130.005 67.763C130.256 67.9017 130.46 68.088 130.616 68.322C130.78 68.556 130.863 68.8637 130.863 69.245C130.863 69.8257 130.655 70.285 130.239 70.623C129.831 70.961 129.281 71.13 128.588 71.13ZM135.032 71.13C134.417 71.13 133.862 70.9913 133.368 70.714C132.874 70.428 132.484 70.0423 132.198 69.557C131.912 69.0717 131.769 68.5213 131.769 67.906C131.769 67.2993 131.908 66.7533 132.185 66.268C132.471 65.7827 132.853 65.4013 133.329 65.124C133.815 64.838 134.356 64.695 134.954 64.695C135.526 64.695 136.029 64.825 136.462 65.085C136.904 65.345 137.247 65.7047 137.489 66.164C137.741 66.6233 137.866 67.1433 137.866 67.724C137.866 67.8107 137.862 67.906 137.853 68.01C137.845 68.1053 137.827 68.218 137.801 68.348H132.588V67.373H137.177L136.748 67.75C136.748 67.334 136.675 66.983 136.527 66.697C136.38 66.4023 136.172 66.177 135.903 66.021C135.635 65.8563 135.31 65.774 134.928 65.774C134.53 65.774 134.179 65.8607 133.875 66.034C133.572 66.2073 133.338 66.45 133.173 66.762C133.009 67.074 132.926 67.4423 132.926 67.867C132.926 68.3003 133.013 68.6817 133.186 69.011C133.36 69.3317 133.607 69.583 133.927 69.765C134.248 69.9383 134.616 70.025 135.032 70.025C135.379 70.025 135.695 69.9643 135.981 69.843C136.276 69.7217 136.527 69.5397 136.735 69.297L137.489 70.064C137.195 70.4107 136.831 70.675 136.397 70.857C135.973 71.039 135.518 71.13 135.032 71.13ZM142.73 71V63.902C142.73 63.4427 142.83 63.044 143.029 62.706C143.229 62.3593 143.502 62.0863 143.848 61.887C144.204 61.6877 144.615 61.588 145.083 61.588C145.439 61.588 145.746 61.6487 146.006 61.77C146.266 61.8913 146.505 62.069 146.721 62.303L145.954 63.057C145.842 62.9357 145.716 62.8447 145.577 62.784C145.439 62.7147 145.27 62.68 145.07 62.68C144.698 62.68 144.407 62.7883 144.199 63.005C144 63.2217 143.9 63.5207 143.9 63.902V71H142.73ZM141.209 65.891V64.825H145.863V65.891H141.209ZM146.81 71V64.825H147.98V71H146.81ZM147.98 67.477L147.538 67.282C147.538 66.4933 147.72 65.865 148.084 65.397C148.448 64.929 148.972 64.695 149.657 64.695C149.969 64.695 150.251 64.7513 150.502 64.864C150.753 64.968 150.987 65.1457 151.204 65.397L150.437 66.19C150.307 66.0513 150.164 65.9517 150.008 65.891C149.852 65.8303 149.67 65.8 149.462 65.8C149.029 65.8 148.673 65.9387 148.396 66.216C148.119 66.4933 147.98 66.9137 147.98 67.477ZM154.646 71.13C154.039 71.13 153.493 70.987 153.008 70.701C152.522 70.415 152.137 70.0293 151.851 69.544C151.565 69.05 151.422 68.4997 151.422 67.893C151.422 67.295 151.565 66.7577 151.851 66.281C152.137 65.7957 152.522 65.41 153.008 65.124C153.493 64.838 154.039 64.695 154.646 64.695C155.244 64.695 155.785 64.838 156.271 65.124C156.765 65.4013 157.155 65.7827 157.441 66.268C157.727 66.7533 157.87 67.295 157.87 67.893C157.87 68.4997 157.727 69.05 157.441 69.544C157.155 70.0293 156.765 70.415 156.271 70.701C155.785 70.987 155.244 71.13 154.646 71.13ZM154.646 69.999C155.036 69.999 155.382 69.908 155.686 69.726C155.989 69.544 156.227 69.297 156.401 68.985C156.574 68.6643 156.661 68.3003 156.661 67.893C156.661 67.4943 156.57 67.139 156.388 66.827C156.214 66.515 155.976 66.2723 155.673 66.099C155.378 65.917 155.036 65.826 154.646 65.826C154.256 65.826 153.909 65.917 153.606 66.099C153.302 66.2723 153.064 66.515 152.891 66.827C152.717 67.139 152.631 67.4943 152.631 67.893C152.631 68.3003 152.717 68.6643 152.891 68.985C153.064 69.297 153.302 69.544 153.606 69.726C153.909 69.908 154.256 69.999 154.646 69.999ZM159.188 71V64.825H160.358V71H159.188ZM163.361 71V67.269C163.361 66.8097 163.218 66.45 162.932 66.19C162.655 65.9213 162.304 65.787 161.879 65.787C161.593 65.787 161.337 65.8477 161.112 65.969C160.887 66.0903 160.705 66.2593 160.566 66.476C160.427 66.6927 160.358 66.9527 160.358 67.256L159.877 67.022C159.877 66.554 159.977 66.1467 160.176 65.8C160.384 65.4533 160.666 65.1847 161.021 64.994C161.376 64.7947 161.775 64.695 162.217 64.695C162.65 64.695 163.04 64.7903 163.387 64.981C163.742 65.1717 164.02 65.4403 164.219 65.787C164.427 66.1337 164.531 66.5453 164.531 67.022V71H163.361ZM167.534 71V67.269C167.534 66.8097 167.391 66.45 167.105 66.19C166.828 65.9213 166.481 65.787 166.065 65.787C165.779 65.787 165.519 65.8477 165.285 65.969C165.06 66.0903 164.878 66.2593 164.739 66.476C164.6 66.6927 164.531 66.9527 164.531 67.256L163.868 67.022C163.894 66.5453 164.02 66.138 164.245 65.8C164.479 65.4533 164.778 65.1847 165.142 64.994C165.506 64.7947 165.905 64.695 166.338 64.695C166.789 64.695 167.192 64.7903 167.547 64.981C167.902 65.1717 168.184 65.4403 168.392 65.787C168.609 66.1337 168.717 66.5497 168.717 67.035V71H167.534ZM173.013 71V61.718H174.183V71H173.013ZM178.521 71.13C177.958 71.13 177.446 70.9913 176.987 70.714C176.528 70.428 176.164 70.0423 175.895 69.557C175.635 69.0717 175.505 68.5257 175.505 67.919C175.505 67.3123 175.635 66.7663 175.895 66.281C176.164 65.7957 176.523 65.41 176.974 65.124C177.433 64.838 177.949 64.695 178.521 64.695C178.989 64.695 179.405 64.7947 179.769 64.994C180.142 65.1847 180.441 65.4533 180.666 65.8C180.891 66.138 181.017 66.5323 181.043 66.983V68.842C181.017 69.284 180.891 69.6783 180.666 70.025C180.449 70.3717 180.155 70.6447 179.782 70.844C179.418 71.0347 178.998 71.13 178.521 71.13ZM178.716 70.025C179.297 70.025 179.765 69.83 180.12 69.44C180.475 69.0413 180.653 68.5343 180.653 67.919C180.653 67.4943 180.571 67.126 180.406 66.814C180.25 66.4933 180.025 66.2463 179.73 66.073C179.435 65.891 179.093 65.8 178.703 65.8C178.313 65.8 177.966 65.891 177.663 66.073C177.368 66.255 177.134 66.5063 176.961 66.827C176.796 67.139 176.714 67.4987 176.714 67.906C176.714 68.322 176.796 68.6903 176.961 69.011C177.134 69.323 177.373 69.57 177.676 69.752C177.979 69.934 178.326 70.025 178.716 70.025ZM180.575 71V69.336L180.796 67.828L180.575 66.333V64.825H181.758V71H180.575ZM185.425 71.13C185.078 71.13 184.749 71.0867 184.437 71C184.133 70.9047 183.852 70.7747 183.592 70.61C183.332 70.4367 183.106 70.233 182.916 69.999L183.67 69.245C183.895 69.5223 184.155 69.7303 184.45 69.869C184.744 69.999 185.074 70.064 185.438 70.064C185.802 70.064 186.083 70.0033 186.283 69.882C186.482 69.752 186.582 69.5743 186.582 69.349C186.582 69.1237 186.499 68.9503 186.335 68.829C186.179 68.699 185.975 68.595 185.724 68.517C185.472 68.4303 185.204 68.348 184.918 68.27C184.64 68.1833 184.376 68.075 184.125 67.945C183.873 67.815 183.665 67.6373 183.501 67.412C183.345 67.1867 183.267 66.8877 183.267 66.515C183.267 66.1423 183.358 65.8217 183.54 65.553C183.722 65.2757 183.973 65.0633 184.294 64.916C184.623 64.7687 185.017 64.695 185.477 64.695C185.962 64.695 186.391 64.7817 186.764 64.955C187.145 65.1197 187.457 65.371 187.7 65.709L186.946 66.463C186.772 66.2377 186.556 66.0643 186.296 65.943C186.044 65.8217 185.758 65.761 185.438 65.761C185.1 65.761 184.84 65.8217 184.658 65.943C184.484 66.0557 184.398 66.216 184.398 66.424C184.398 66.632 184.476 66.7923 184.632 66.905C184.788 67.0177 184.991 67.113 185.243 67.191C185.503 67.269 185.771 67.3513 186.049 67.438C186.326 67.516 186.59 67.6243 186.842 67.763C187.093 67.9017 187.297 68.088 187.453 68.322C187.617 68.556 187.7 68.8637 187.7 69.245C187.7 69.8257 187.492 70.285 187.076 70.623C186.668 70.961 186.118 71.13 185.425 71.13ZM189.958 71V62.238H191.128V71H189.958ZM188.437 65.891V64.825H192.649V65.891H188.437ZM196.5 71V64.825H197.67V71H196.5ZM200.673 71V67.269C200.673 66.8097 200.53 66.45 200.244 66.19C199.966 65.9213 199.615 65.787 199.191 65.787C198.905 65.787 198.649 65.8477 198.424 65.969C198.198 66.0903 198.016 66.2593 197.878 66.476C197.739 66.6927 197.67 66.9527 197.67 67.256L197.189 67.022C197.189 66.554 197.288 66.1467 197.488 65.8C197.696 65.4533 197.977 65.1847 198.333 64.994C198.688 64.7947 199.087 64.695 199.529 64.695C199.962 64.695 200.352 64.7903 200.699 64.981C201.054 65.1717 201.331 65.4403 201.531 65.787C201.739 66.1337 201.843 66.5453 201.843 67.022V71H200.673ZM204.846 71V67.269C204.846 66.8097 204.703 66.45 204.417 66.19C204.139 65.9213 203.793 65.787 203.377 65.787C203.091 65.787 202.831 65.8477 202.597 65.969C202.371 66.0903 202.189 66.2593 202.051 66.476C201.912 66.6927 201.843 66.9527 201.843 67.256L201.18 67.022C201.206 66.5453 201.331 66.138 201.557 65.8C201.791 65.4533 202.09 65.1847 202.454 64.994C202.818 64.7947 203.216 64.695 203.65 64.695C204.1 64.695 204.503 64.7903 204.859 64.981C205.214 65.1717 205.496 65.4403 205.704 65.787C205.92 66.1337 206.029 66.5497 206.029 67.035V71H204.846ZM210.442 71.13C209.835 71.13 209.289 70.987 208.804 70.701C208.318 70.415 207.933 70.0293 207.647 69.544C207.361 69.05 207.218 68.4997 207.218 67.893C207.218 67.295 207.361 66.7577 207.647 66.281C207.933 65.7957 208.318 65.41 208.804 65.124C209.289 64.838 209.835 64.695 210.442 64.695C211.04 64.695 211.581 64.838 212.067 65.124C212.561 65.4013 212.951 65.7827 213.237 66.268C213.523 66.7533 213.666 67.295 213.666 67.893C213.666 68.4997 213.523 69.05 213.237 69.544C212.951 70.0293 212.561 70.415 212.067 70.701C211.581 70.987 211.04 71.13 210.442 71.13ZM210.442 69.999C210.832 69.999 211.178 69.908 211.482 69.726C211.785 69.544 212.023 69.297 212.197 68.985C212.37 68.6643 212.457 68.3003 212.457 67.893C212.457 67.4943 212.366 67.139 212.184 66.827C212.01 66.515 211.772 66.2723 211.469 66.099C211.174 65.917 210.832 65.826 210.442 65.826C210.052 65.826 209.705 65.917 209.402 66.099C209.098 66.2723 208.86 66.515 208.687 66.827C208.513 67.139 208.427 67.4943 208.427 67.893C208.427 68.3003 208.513 68.6643 208.687 68.985C208.86 69.297 209.098 69.544 209.402 69.726C209.705 69.908 210.052 69.999 210.442 69.999ZM219.352 71V67.399C219.352 66.931 219.205 66.5453 218.91 66.242C218.615 65.9387 218.234 65.787 217.766 65.787C217.454 65.787 217.177 65.8563 216.934 65.995C216.691 66.1337 216.501 66.3243 216.362 66.567C216.223 66.8097 216.154 67.087 216.154 67.399L215.673 67.126C215.673 66.658 215.777 66.242 215.985 65.878C216.193 65.514 216.483 65.228 216.856 65.02C217.229 64.8033 217.649 64.695 218.117 64.695C218.585 64.695 218.997 64.812 219.352 65.046C219.716 65.28 220.002 65.5877 220.21 65.969C220.418 66.3417 220.522 66.7403 220.522 67.165V71H219.352ZM214.984 71V64.825H216.154V71H214.984ZM222.979 71V62.238H224.149V71H222.979ZM221.458 65.891V64.825H225.67V65.891H221.458ZM231.184 71V67.399C231.184 66.931 231.037 66.5453 230.742 66.242C230.447 65.9387 230.066 65.787 229.598 65.787C229.286 65.787 229.009 65.8563 228.766 65.995C228.523 66.1337 228.333 66.3243 228.194 66.567C228.055 66.8097 227.986 67.087 227.986 67.399L227.505 67.126C227.505 66.658 227.609 66.242 227.817 65.878C228.025 65.514 228.315 65.228 228.688 65.02C229.061 64.8033 229.481 64.695 229.949 64.695C230.417 64.695 230.829 64.799 231.184 65.007C231.548 65.215 231.834 65.5053 232.042 65.878C232.25 66.2507 232.354 66.6797 232.354 67.165V71H231.184ZM226.816 71V61.718H227.986V71H226.816Z" fill="#919AA3"/>
<path d="M295.238 93.44C295.253 93.0969 295.337 92.7603 295.485 92.4505C295.633 92.1406 295.843 91.8639 296.1 91.6368C296.358 91.4098 296.659 91.2372 296.985 91.1292C297.311 91.0213 297.656 90.9803 297.998 91.0088C308.866 91.9115 319.355 95.4304 328.569 101.265C337.782 107.1 345.448 115.078 350.91 124.517C356.372 133.956 359.47 144.577 359.938 155.473C360.406 166.369 358.231 177.216 353.598 187.089C353.452 187.4 353.245 187.678 352.989 187.907C352.733 188.136 352.433 188.311 352.108 188.421C351.783 188.532 351.438 188.575 351.096 188.549C350.753 188.523 350.42 188.429 350.115 188.271L328.896 177.279C328.319 176.98 327.879 176.473 327.663 175.86C327.447 175.248 327.473 174.576 327.736 173.982C330.194 168.418 331.303 162.352 330.973 156.277C330.643 150.203 328.882 144.292 325.835 139.027C322.788 133.762 318.541 129.291 313.439 125.978C308.337 122.665 302.525 120.604 296.475 119.962C295.83 119.894 295.234 119.582 294.811 119.09C294.387 118.598 294.167 117.963 294.195 117.314L295.238 93.44Z" fill="#00CAE3"/>
<path d="M347.289 193.187C347.579 193.371 347.829 193.612 348.024 193.894C348.219 194.177 348.354 194.497 348.423 194.833C348.491 195.17 348.491 195.517 348.422 195.853C348.353 196.19 348.217 196.509 348.022 196.791C339.613 208.966 327.441 218.045 313.375 222.636C299.308 227.226 284.124 227.075 270.152 222.205C269.828 222.091 269.53 221.914 269.276 221.683C269.022 221.452 268.817 221.172 268.673 220.86C268.53 220.548 268.451 220.21 268.442 219.866C268.432 219.523 268.492 219.181 268.618 218.862L277.363 196.623C277.6 196.018 278.059 195.527 278.646 195.25C279.233 194.972 279.904 194.929 280.522 195.129C288.281 197.637 296.635 197.625 304.387 195.095C312.139 192.565 318.891 187.647 323.677 181.045C324.058 180.519 324.625 180.158 325.263 180.036C325.901 179.914 326.561 180.04 327.109 180.387L347.289 193.187Z" fill="#796DF6"/>
<path d="M263.437 216.559C263.283 216.866 263.07 217.139 262.809 217.362C262.547 217.585 262.244 217.753 261.916 217.856C261.588 217.959 261.243 217.994 260.901 217.96C260.56 217.927 260.228 217.824 259.927 217.659C250.072 212.261 241.718 204.49 235.621 195.051C229.524 185.613 225.876 174.803 225.008 163.599C224.981 163.257 225.024 162.913 225.134 162.587C225.243 162.262 225.418 161.962 225.646 161.705C225.875 161.449 226.152 161.241 226.463 161.094C226.774 160.948 227.111 160.866 227.454 160.853L251.333 159.941C251.982 159.917 252.616 160.14 253.106 160.566C253.595 160.993 253.904 161.59 253.969 162.236C254.581 168.329 256.633 174.189 259.956 179.333C263.279 184.476 267.777 188.757 273.079 191.82C273.641 192.145 274.058 192.672 274.245 193.294C274.433 193.915 274.376 194.585 274.086 195.166L263.437 216.559Z" fill="#2ECC71"/>
<path d="M227.485 155.183C227.142 155.166 226.806 155.08 226.497 154.93C226.188 154.78 225.912 154.569 225.687 154.31C225.461 154.051 225.29 153.749 225.184 153.423C225.078 153.096 225.039 152.751 225.069 152.409C225.868 143.394 228.468 134.632 232.717 126.641C236.965 118.65 242.775 111.594 249.802 105.89C250.068 105.674 250.376 105.514 250.706 105.419C251.036 105.324 251.382 105.297 251.723 105.339C252.064 105.381 252.393 105.492 252.69 105.664C252.987 105.837 253.246 106.067 253.452 106.342L267.773 125.473C268.162 125.992 268.338 126.641 268.266 127.286C268.193 127.931 267.877 128.525 267.383 128.945C259.887 135.318 255.105 144.312 254.014 154.091C253.942 154.736 253.627 155.329 253.132 155.75C252.638 156.171 252.001 156.388 251.353 156.356L227.485 155.183Z" fill="#2AA9FF"/>
<path d="M258.135 103.146C257.954 102.854 257.834 102.528 257.781 102.189C257.729 101.849 257.746 101.503 257.831 101.17C257.916 100.837 258.067 100.525 258.275 100.252C258.484 99.979 258.745 99.7509 259.044 99.5814C267.568 94.745 277.041 91.8199 286.808 91.0088C287.15 90.9803 287.494 91.0213 287.82 91.1292C288.146 91.2372 288.447 91.4098 288.705 91.6368C288.963 91.8639 289.172 92.1406 289.32 92.4505C289.469 92.7603 289.553 93.0969 289.568 93.44L290.61 117.314C290.638 117.963 290.418 118.598 289.995 119.09C289.571 119.582 288.976 119.894 288.33 119.962C283.35 120.49 278.521 121.982 274.11 124.353C273.538 124.661 272.871 124.738 272.243 124.571C271.616 124.403 271.076 124.003 270.734 123.451L258.135 103.146Z" fill="#FFB264"/>
<rect x="24" y="130" width="10" height="10" fill="#796DF6"/>
<path d="M45.148 140V130.284H46.464V140H45.148ZM51.42 140V130.284H52.736V140H51.42ZM46.044 135.576V134.372H51.742V135.576H46.044ZM55.9148 135.772V134.666H58.5468C59.1161 134.666 59.5548 134.521 59.8628 134.232C60.1708 133.943 60.3248 133.551 60.3248 133.056C60.3248 132.589 60.1708 132.202 59.8628 131.894C59.5641 131.586 59.1301 131.432 58.5608 131.432H55.9148V130.284H58.6028C59.2188 130.284 59.7554 130.405 60.2128 130.648C60.6701 130.881 61.0201 131.203 61.2628 131.614C61.5148 132.025 61.6408 132.496 61.6408 133.028C61.6408 133.579 61.5148 134.059 61.2628 134.47C61.0201 134.881 60.6701 135.203 60.2128 135.436C59.7554 135.66 59.2188 135.772 58.6028 135.772H55.9148ZM55.0328 140V130.284H56.3488V140H55.0328ZM60.6328 140L57.1048 135.646L58.3508 135.212L62.2988 140H60.6328ZM69.0732 140.14C68.4386 140.14 67.8599 140.023 67.3372 139.79C66.8239 139.547 66.3899 139.197 66.0352 138.74L66.9312 137.844C67.1459 138.171 67.4399 138.432 67.8132 138.628C68.1866 138.815 68.6019 138.908 69.0592 138.908C69.4886 138.908 69.8572 138.829 70.1652 138.67C70.4826 138.502 70.7299 138.269 70.9072 137.97C71.0939 137.671 71.1872 137.326 71.1872 136.934C71.1872 136.533 71.0939 136.187 70.9072 135.898C70.7299 135.599 70.4779 135.371 70.1512 135.212C69.8246 135.053 69.4372 134.974 68.9892 134.974C68.8212 134.974 68.6532 134.988 68.4852 135.016C68.3172 135.035 68.1539 135.067 67.9952 135.114L68.5552 134.358C68.7326 134.274 68.9239 134.209 69.1292 134.162C69.3346 134.115 69.5399 134.092 69.7452 134.092C70.2679 134.092 70.7346 134.213 71.1452 134.456C71.5652 134.699 71.8966 135.039 72.1392 135.478C72.3912 135.917 72.5172 136.425 72.5172 137.004C72.5172 137.62 72.3679 138.166 72.0692 138.642C71.7799 139.109 71.3786 139.477 70.8652 139.748C70.3519 140.009 69.7546 140.14 69.0732 140.14ZM67.9952 135.114V134.316L70.8372 131.082L72.4052 131.068L69.4792 134.386L67.9952 135.114ZM66.4972 131.46V130.284H72.4052V131.068L71.2572 131.46H66.4972ZM77.7684 140.14C77.0404 140.14 76.3731 139.935 75.7664 139.524C75.1691 139.113 74.6931 138.535 74.3384 137.788C73.9838 137.032 73.8064 136.145 73.8064 135.128C73.8064 134.111 73.9791 133.229 74.3244 132.482C74.6791 131.735 75.1551 131.161 75.7524 130.76C76.3498 130.349 77.0078 130.144 77.7264 130.144C78.4638 130.144 79.1311 130.349 79.7284 130.76C80.3258 131.161 80.7971 131.735 81.1424 132.482C81.4971 133.229 81.6744 134.115 81.6744 135.142C81.6744 136.159 81.4971 137.046 81.1424 137.802C80.7971 138.549 80.3258 139.127 79.7284 139.538C79.1404 139.939 78.4871 140.14 77.7684 140.14ZM77.7404 138.894C78.2538 138.894 78.7018 138.754 79.0844 138.474C79.4764 138.185 79.7844 137.76 80.0084 137.2C80.2324 136.64 80.3444 135.949 80.3444 135.128C80.3444 134.307 80.2324 133.621 80.0084 133.07C79.7844 132.51 79.4764 132.09 79.0844 131.81C78.6924 131.521 78.2398 131.376 77.7264 131.376C77.2224 131.376 76.7744 131.521 76.3824 131.81C75.9904 132.09 75.6824 132.51 75.4584 133.07C75.2438 133.621 75.1364 134.307 75.1364 135.128C75.1364 135.949 75.2438 136.64 75.4584 137.2C75.6824 137.76 75.9904 138.185 76.3824 138.474C76.7744 138.754 77.2271 138.894 77.7404 138.894Z" fill="#919AA3"/>
<rect x="24" y="176" width="10" height="10" fill="#2AA9FF"/>
<path d="M45.148 186V176.284H46.464V186H45.148ZM51.3334 186V176.564H52.6494V186H51.3334ZM48.0294 177.488V176.284H55.9394V177.488H48.0294ZM61.4747 186V176.284H62.7767V186H61.4747ZM59.4867 177.46V176.284H62.6367V177.46H59.4867ZM68.5263 186.14C67.7983 186.14 67.1309 185.935 66.5243 185.524C65.9269 185.113 65.4509 184.535 65.0963 183.788C64.7416 183.032 64.5643 182.145 64.5643 181.128C64.5643 180.111 64.7369 179.229 65.0823 178.482C65.4369 177.735 65.9129 177.161 66.5103 176.76C67.1076 176.349 67.7656 176.144 68.4843 176.144C69.2216 176.144 69.8889 176.349 70.4863 176.76C71.0836 177.161 71.5549 177.735 71.9003 178.482C72.2549 179.229 72.4323 180.115 72.4323 181.142C72.4323 182.159 72.2549 183.046 71.9003 183.802C71.5549 184.549 71.0836 185.127 70.4863 185.538C69.8983 185.939 69.2449 186.14 68.5263 186.14ZM68.4983 184.894C69.0116 184.894 69.4596 184.754 69.8423 184.474C70.2343 184.185 70.5423 183.76 70.7663 183.2C70.9903 182.64 71.1022 181.949 71.1022 181.128C71.1022 180.307 70.9903 179.621 70.7663 179.07C70.5423 178.51 70.2343 178.09 69.8423 177.81C69.4503 177.521 68.9976 177.376 68.4843 177.376C67.9803 177.376 67.5323 177.521 67.1403 177.81C66.7483 178.09 66.4403 178.51 66.2163 179.07C66.0016 179.621 65.8943 180.307 65.8943 181.128C65.8943 181.949 66.0016 182.64 66.2163 183.2C66.4403 183.76 66.7483 184.185 67.1403 184.474C67.5323 184.754 67.9849 184.894 68.4983 184.894Z" fill="#919AA3"/>
<rect x="24" y="153" width="10" height="10" fill="#2ECC71"/>
<path d="M45.148 163V153.284H46.072L50.188 160.046H49.558L53.674 153.284H54.598V163H53.282V155.594L53.59 155.678L50.342 161.012H49.418L46.17 155.678L46.464 155.594V163H45.148ZM59.4961 163.14C58.8895 163.14 58.3388 162.991 57.8441 162.692C57.3495 162.384 56.9575 161.969 56.6681 161.446C56.3881 160.923 56.2481 160.335 56.2481 159.682C56.2481 159.029 56.3881 158.441 56.6681 157.918C56.9575 157.395 57.3448 156.98 57.8301 156.672C58.3248 156.364 58.8801 156.21 59.4961 156.21C60.0001 156.21 60.4481 156.317 60.8401 156.532C61.2415 156.737 61.5635 157.027 61.8061 157.4C62.0488 157.764 62.1841 158.189 62.2121 158.674V160.676C62.1841 161.152 62.0488 161.577 61.8061 161.95C61.5728 162.323 61.2555 162.617 60.8541 162.832C60.4621 163.037 60.0095 163.14 59.4961 163.14ZM59.7061 161.95C60.3315 161.95 60.8355 161.74 61.2181 161.32C61.6008 160.891 61.7921 160.345 61.7921 159.682C61.7921 159.225 61.7035 158.828 61.5261 158.492C61.3581 158.147 61.1155 157.881 60.7981 157.694C60.4808 157.498 60.1121 157.4 59.6921 157.4C59.2721 157.4 58.8988 157.498 58.5721 157.694C58.2548 157.89 58.0028 158.161 57.8161 158.506C57.6388 158.842 57.5501 159.229 57.5501 159.668C57.5501 160.116 57.6388 160.513 57.8161 160.858C58.0028 161.194 58.2595 161.46 58.5861 161.656C58.9128 161.852 59.2861 161.95 59.7061 161.95ZM61.7081 163V161.208L61.9461 159.584L61.7081 157.974V156.35H62.9821V163H61.7081ZM64.8166 163V156.35H66.0766V163H64.8166ZM66.0766 159.206L65.6006 158.996C65.6006 158.147 65.7966 157.47 66.1886 156.966C66.5806 156.462 67.1452 156.21 67.8826 156.21C68.2186 156.21 68.5219 156.271 68.7926 156.392C69.0632 156.504 69.3152 156.695 69.5486 156.966L68.7226 157.82C68.5826 157.671 68.4286 157.563 68.2606 157.498C68.0926 157.433 67.8966 157.4 67.6726 157.4C67.2059 157.4 66.8232 157.549 66.5246 157.848C66.2259 158.147 66.0766 158.599 66.0766 159.206ZM74.6917 163L71.5837 159.598L74.6637 156.35H76.1897L72.7597 159.934L72.8157 159.206L76.3157 163H74.6917ZM70.4357 163V153.004H71.6957V163H70.4357ZM80.1056 163.14C79.4429 163.14 78.8456 162.991 78.3136 162.692C77.7816 162.384 77.3616 161.969 77.0536 161.446C76.7456 160.923 76.5916 160.331 76.5916 159.668C76.5916 159.015 76.7409 158.427 77.0396 157.904C77.3476 157.381 77.7582 156.971 78.2716 156.672C78.7942 156.364 79.3776 156.21 80.0216 156.21C80.6376 156.21 81.1789 156.35 81.6456 156.63C82.1216 156.91 82.4902 157.297 82.7516 157.792C83.0222 158.287 83.1576 158.847 83.1576 159.472C83.1576 159.565 83.1529 159.668 83.1436 159.78C83.1342 159.883 83.1156 160.004 83.0876 160.144H77.4736V159.094H82.4156L81.9536 159.5C81.9536 159.052 81.8742 158.674 81.7156 158.366C81.5569 158.049 81.3329 157.806 81.0436 157.638C80.7542 157.461 80.4042 157.372 79.9936 157.372C79.5642 157.372 79.1862 157.465 78.8596 157.652C78.5329 157.839 78.2809 158.1 78.1036 158.436C77.9262 158.772 77.8376 159.169 77.8376 159.626C77.8376 160.093 77.9309 160.503 78.1176 160.858C78.3042 161.203 78.5702 161.474 78.9156 161.67C79.2609 161.857 79.6576 161.95 80.1056 161.95C80.4789 161.95 80.8196 161.885 81.1276 161.754C81.4449 161.623 81.7156 161.427 81.9396 161.166L82.7516 161.992C82.4342 162.365 82.0422 162.65 81.5756 162.846C81.1182 163.042 80.6282 163.14 80.1056 163.14ZM85.362 163V153.564H86.622V163H85.362ZM83.724 157.498V156.35H88.26V157.498H83.724ZM89.5083 163V156.35H90.7683V163H89.5083ZM90.1383 155.02C89.905 155.02 89.7136 154.945 89.5643 154.796C89.415 154.637 89.3403 154.441 89.3403 154.208C89.3403 153.984 89.415 153.797 89.5643 153.648C89.7136 153.489 89.905 153.41 90.1383 153.41C90.3716 153.41 90.563 153.489 90.7123 153.648C90.8616 153.797 90.9363 153.984 90.9363 154.208C90.9363 154.441 90.8616 154.637 90.7123 154.796C90.563 154.945 90.3716 155.02 90.1383 155.02ZM97.3292 163V159.122C97.3292 158.618 97.1705 158.203 96.8532 157.876C96.5358 157.549 96.1252 157.386 95.6212 157.386C95.2852 157.386 94.9865 157.461 94.7252 157.61C94.4638 157.759 94.2585 157.965 94.1092 158.226C93.9598 158.487 93.8852 158.786 93.8852 159.122L93.3672 158.828C93.3672 158.324 93.4792 157.876 93.7032 157.484C93.9272 157.092 94.2398 156.784 94.6412 156.56C95.0425 156.327 95.4952 156.21 95.9992 156.21C96.5032 156.21 96.9465 156.336 97.3292 156.588C97.7212 156.84 98.0292 157.171 98.2532 157.582C98.4772 157.983 98.5892 158.413 98.5892 158.87V163H97.3292ZM92.6252 163V156.35H93.8852V163H92.6252ZM103.053 165.926C102.372 165.926 101.765 165.8 101.233 165.548C100.71 165.296 100.29 164.941 99.9731 164.484L100.785 163.658C101.056 164.003 101.378 164.265 101.751 164.442C102.124 164.629 102.568 164.722 103.081 164.722C103.762 164.722 104.299 164.54 104.691 164.176C105.092 163.821 105.293 163.341 105.293 162.734V161.082L105.517 159.584L105.293 158.1V156.35H106.553V162.734C106.553 163.369 106.404 163.924 106.105 164.4C105.816 164.876 105.405 165.249 104.873 165.52C104.35 165.791 103.744 165.926 103.053 165.926ZM103.053 162.888C102.446 162.888 101.9 162.743 101.415 162.454C100.939 162.165 100.561 161.768 100.281 161.264C100.001 160.751 99.8611 160.177 99.8611 159.542C99.8611 158.907 100.001 158.343 100.281 157.848C100.561 157.344 100.939 156.947 101.415 156.658C101.9 156.359 102.446 156.21 103.053 156.21C103.576 156.21 104.038 156.313 104.439 156.518C104.84 156.723 105.158 157.013 105.391 157.386C105.634 157.75 105.764 158.179 105.783 158.674V160.438C105.755 160.923 105.62 161.353 105.377 161.726C105.144 162.09 104.826 162.375 104.425 162.58C104.024 162.785 103.566 162.888 103.053 162.888ZM103.305 161.698C103.716 161.698 104.075 161.609 104.383 161.432C104.7 161.255 104.943 161.007 105.111 160.69C105.279 160.363 105.363 159.985 105.363 159.556C105.363 159.127 105.274 158.753 105.097 158.436C104.929 158.109 104.691 157.857 104.383 157.68C104.075 157.493 103.711 157.4 103.291 157.4C102.871 157.4 102.502 157.493 102.185 157.68C101.868 157.857 101.616 158.109 101.429 158.436C101.252 158.753 101.163 159.122 101.163 159.542C101.163 159.962 101.252 160.335 101.429 160.662C101.616 160.989 101.868 161.245 102.185 161.432C102.512 161.609 102.885 161.698 103.305 161.698ZM110.853 162.202L114.437 158.422C114.801 158.049 115.085 157.727 115.291 157.456C115.496 157.176 115.641 156.919 115.725 156.686C115.818 156.453 115.865 156.21 115.865 155.958C115.865 155.463 115.706 155.076 115.389 154.796C115.071 154.516 114.661 154.376 114.157 154.376C113.662 154.376 113.228 154.497 112.855 154.74C112.481 154.973 112.15 155.337 111.861 155.832L110.937 155.062C111.319 154.427 111.781 153.951 112.323 153.634C112.864 153.307 113.489 153.144 114.199 153.144C114.796 153.144 115.314 153.261 115.753 153.494C116.201 153.727 116.546 154.054 116.789 154.474C117.031 154.894 117.153 155.384 117.153 155.944C117.153 156.345 117.101 156.705 116.999 157.022C116.905 157.339 116.733 157.666 116.481 158.002C116.238 158.329 115.897 158.721 115.459 159.178L112.561 162.16L110.853 162.202ZM110.853 163V162.202L111.973 161.824H117.377V163H110.853ZM121.437 163.14C120.774 163.14 120.182 163.023 119.659 162.79C119.146 162.547 118.712 162.197 118.357 161.74L119.253 160.844C119.468 161.171 119.762 161.432 120.135 161.628C120.518 161.815 120.942 161.908 121.409 161.908C121.848 161.908 122.23 161.824 122.557 161.656C122.893 161.488 123.154 161.255 123.341 160.956C123.537 160.648 123.635 160.284 123.635 159.864C123.635 159.435 123.542 159.071 123.355 158.772C123.168 158.473 122.916 158.249 122.599 158.1C122.291 157.941 121.95 157.862 121.577 157.862C121.194 157.862 120.844 157.909 120.527 158.002C120.219 158.095 119.925 158.254 119.645 158.478L119.659 157.638C119.818 157.442 120 157.283 120.205 157.162C120.41 157.041 120.644 156.947 120.905 156.882C121.166 156.817 121.47 156.784 121.815 156.784C122.487 156.784 123.056 156.924 123.523 157.204C123.99 157.484 124.344 157.862 124.587 158.338C124.839 158.814 124.965 159.346 124.965 159.934C124.965 160.55 124.811 161.101 124.503 161.586C124.204 162.071 123.789 162.454 123.257 162.734C122.725 163.005 122.118 163.14 121.437 163.14ZM119.645 158.478L118.931 157.764L119.365 153.284H120.569L120.079 157.89L119.645 158.478ZM119.631 154.46L119.365 153.284H124.475V154.46H119.631Z" fill="#919AA3"/>
<rect x="24" y="107" width="10" height="10" fill="#00CAE3"/>
<path d="M47.85 117.14C47.0847 117.14 46.4313 117 45.89 116.72C45.3487 116.44 44.868 116.034 44.448 115.502L45.344 114.606C45.652 115.035 46.0067 115.362 46.408 115.586C46.8093 115.801 47.304 115.908 47.892 115.908C48.4707 115.908 48.9327 115.782 49.278 115.53C49.6327 115.278 49.81 114.933 49.81 114.494C49.81 114.13 49.726 113.836 49.558 113.612C49.39 113.388 49.1613 113.206 48.872 113.066C48.592 112.917 48.284 112.786 47.948 112.674C47.612 112.553 47.276 112.427 46.94 112.296C46.604 112.156 46.296 111.988 46.016 111.792C45.736 111.587 45.5073 111.321 45.33 110.994C45.162 110.667 45.078 110.257 45.078 109.762C45.078 109.211 45.2087 108.745 45.47 108.362C45.7407 107.97 46.1047 107.671 46.562 107.466C47.0287 107.251 47.5513 107.144 48.13 107.144C48.7647 107.144 49.334 107.27 49.838 107.522C50.342 107.765 50.7527 108.087 51.07 108.488L50.174 109.384C49.8847 109.048 49.572 108.796 49.236 108.628C48.9093 108.46 48.5313 108.376 48.102 108.376C47.5793 108.376 47.164 108.493 46.856 108.726C46.548 108.95 46.394 109.267 46.394 109.678C46.394 110.005 46.478 110.271 46.646 110.476C46.8233 110.672 47.052 110.84 47.332 110.98C47.612 111.12 47.92 111.251 48.256 111.372C48.6013 111.484 48.942 111.61 49.278 111.75C49.614 111.89 49.922 112.067 50.202 112.282C50.482 112.497 50.706 112.777 50.874 113.122C51.0513 113.458 51.14 113.883 51.14 114.396C51.14 115.255 50.8413 115.927 50.244 116.412C49.656 116.897 48.858 117.14 47.85 117.14ZM55.4219 117.14C54.8153 117.14 54.2646 116.991 53.7699 116.692C53.2753 116.384 52.8833 115.969 52.5939 115.446C52.3139 114.923 52.1739 114.335 52.1739 113.682C52.1739 113.029 52.3139 112.441 52.5939 111.918C52.8833 111.395 53.2706 110.98 53.7559 110.672C54.2506 110.364 54.8059 110.21 55.4219 110.21C55.9259 110.21 56.3739 110.317 56.7659 110.532C57.1673 110.737 57.4893 111.027 57.7319 111.4C57.9746 111.764 58.1099 112.189 58.1379 112.674V114.676C58.1099 115.152 57.9746 115.577 57.7319 115.95C57.4986 116.323 57.1813 116.617 56.7799 116.832C56.3879 117.037 55.9353 117.14 55.4219 117.14ZM55.6319 115.95C56.2573 115.95 56.7613 115.74 57.1439 115.32C57.5266 114.891 57.7179 114.345 57.7179 113.682C57.7179 113.225 57.6293 112.828 57.4519 112.492C57.2839 112.147 57.0413 111.881 56.7239 111.694C56.4066 111.498 56.0379 111.4 55.6179 111.4C55.1979 111.4 54.8246 111.498 54.4979 111.694C54.1806 111.89 53.9286 112.161 53.7419 112.506C53.5646 112.842 53.4759 113.229 53.4759 113.668C53.4759 114.116 53.5646 114.513 53.7419 114.858C53.9286 115.194 54.1853 115.46 54.5119 115.656C54.8386 115.852 55.2119 115.95 55.6319 115.95ZM57.6339 117V115.208L57.8719 113.584L57.6339 111.974V110.35H58.9079V117H57.6339ZM60.7424 117V107.004H62.0024V117H60.7424ZM66.9259 117.14C66.2632 117.14 65.6659 116.991 65.1339 116.692C64.6019 116.384 64.1819 115.969 63.8739 115.446C63.5659 114.923 63.4119 114.331 63.4119 113.668C63.4119 113.015 63.5612 112.427 63.8599 111.904C64.1679 111.381 64.5785 110.971 65.0919 110.672C65.6145 110.364 66.1979 110.21 66.8419 110.21C67.4579 110.21 67.9992 110.35 68.4659 110.63C68.9419 110.91 69.3105 111.297 69.5719 111.792C69.8425 112.287 69.9779 112.847 69.9779 113.472C69.9779 113.565 69.9732 113.668 69.9639 113.78C69.9545 113.883 69.9359 114.004 69.9079 114.144H64.2939V113.094H69.2359L68.7739 113.5C68.7739 113.052 68.6945 112.674 68.5359 112.366C68.3772 112.049 68.1532 111.806 67.8639 111.638C67.5745 111.461 67.2245 111.372 66.8139 111.372C66.3845 111.372 66.0065 111.465 65.6799 111.652C65.3532 111.839 65.1012 112.1 64.9239 112.436C64.7465 112.772 64.6579 113.169 64.6579 113.626C64.6579 114.093 64.7512 114.503 64.9379 114.858C65.1245 115.203 65.3905 115.474 65.7359 115.67C66.0812 115.857 66.4779 115.95 66.9259 115.95C67.2992 115.95 67.6399 115.885 67.9479 115.754C68.2652 115.623 68.5359 115.427 68.7599 115.166L69.5719 115.992C69.2545 116.365 68.8625 116.65 68.3959 116.846C67.9385 117.042 67.4485 117.14 66.9259 117.14ZM73.4657 117.14C73.0924 117.14 72.7377 117.093 72.4017 117C72.0751 116.897 71.7717 116.757 71.4917 116.58C71.2117 116.393 70.9691 116.174 70.7637 115.922L71.5757 115.11C71.8184 115.409 72.0984 115.633 72.4157 115.782C72.7331 115.922 73.0877 115.992 73.4797 115.992C73.8717 115.992 74.1751 115.927 74.3897 115.796C74.6044 115.656 74.7117 115.465 74.7117 115.222C74.7117 114.979 74.6231 114.793 74.4457 114.662C74.2777 114.522 74.0584 114.41 73.7877 114.326C73.5171 114.233 73.2277 114.144 72.9197 114.06C72.6211 113.967 72.3364 113.85 72.0657 113.71C71.7951 113.57 71.5711 113.379 71.3937 113.136C71.2257 112.893 71.1417 112.571 71.1417 112.17C71.1417 111.769 71.2397 111.423 71.4357 111.134C71.6317 110.835 71.9024 110.607 72.2477 110.448C72.6024 110.289 73.0271 110.21 73.5217 110.21C74.0444 110.21 74.5064 110.303 74.9077 110.49C75.3184 110.667 75.6544 110.938 75.9157 111.302L75.1037 112.114C74.9171 111.871 74.6837 111.685 74.4037 111.554C74.1331 111.423 73.8251 111.358 73.4797 111.358C73.1157 111.358 72.8357 111.423 72.6397 111.554C72.4531 111.675 72.3597 111.848 72.3597 112.072C72.3597 112.296 72.4437 112.469 72.6117 112.59C72.7797 112.711 72.9991 112.814 73.2697 112.898C73.5497 112.982 73.8391 113.071 74.1377 113.164C74.4364 113.248 74.7211 113.365 74.9917 113.514C75.2624 113.663 75.4817 113.864 75.6497 114.116C75.8271 114.368 75.9157 114.699 75.9157 115.11C75.9157 115.735 75.6917 116.23 75.2437 116.594C74.8051 116.958 74.2124 117.14 73.4657 117.14ZM79.7765 113.654L83.3185 107.284H84.8025L81.1905 113.654H79.7765ZM79.7765 114.466V113.654L80.3365 113.29H87.2245V114.466H79.7765ZM84.5225 117V110.574H85.8245V117H84.5225ZM90.9622 117.14C90.2996 117.14 89.7069 117.023 89.1842 116.79C88.6709 116.547 88.2369 116.197 87.8822 115.74L88.7782 114.844C88.9929 115.171 89.2869 115.432 89.6602 115.628C90.0429 115.815 90.4676 115.908 90.9342 115.908C91.3729 115.908 91.7556 115.824 92.0822 115.656C92.4182 115.488 92.6796 115.255 92.8662 114.956C93.0622 114.648 93.1602 114.284 93.1602 113.864C93.1602 113.435 93.0669 113.071 92.8802 112.772C92.6936 112.473 92.4416 112.249 92.1242 112.1C91.8162 111.941 91.4756 111.862 91.1022 111.862C90.7196 111.862 90.3696 111.909 90.0522 112.002C89.7442 112.095 89.4502 112.254 89.1702 112.478L89.1842 111.638C89.3429 111.442 89.5249 111.283 89.7302 111.162C89.9356 111.041 90.1689 110.947 90.4302 110.882C90.6916 110.817 90.9949 110.784 91.3402 110.784C92.0122 110.784 92.5816 110.924 93.0482 111.204C93.5149 111.484 93.8696 111.862 94.1122 112.338C94.3642 112.814 94.4902 113.346 94.4902 113.934C94.4902 114.55 94.3362 115.101 94.0282 115.586C93.7296 116.071 93.3142 116.454 92.7822 116.734C92.2502 117.005 91.6436 117.14 90.9622 117.14ZM89.1702 112.478L88.4562 111.764L88.8902 107.284H90.0942L89.6042 111.89L89.1702 112.478ZM89.1562 108.46L88.8902 107.284H94.0002V108.46H89.1562Z" fill="#919AA3"/>
<rect x="24" y="199" width="10" height="10" fill="#FFB264"/>
<path d="M45.148 209V199.284H46.464V209H45.148ZM46.044 204.73V203.526H51.112V204.73H46.044ZM46.044 200.488V199.284H51.35V200.488H46.044ZM52.8677 209V202.35H54.1277V209H52.8677ZM53.4977 201.02C53.2644 201.02 53.073 200.945 52.9237 200.796C52.7744 200.637 52.6997 200.441 52.6997 200.208C52.6997 199.984 52.7744 199.797 52.9237 199.648C53.073 199.489 53.2644 199.41 53.4977 199.41C53.731 199.41 53.9224 199.489 54.0717 199.648C54.221 199.797 54.2957 199.984 54.2957 200.208C54.2957 200.441 54.221 200.637 54.0717 200.796C53.9224 200.945 53.731 201.02 53.4977 201.02ZM60.6885 209V205.122C60.6885 204.618 60.5299 204.203 60.2125 203.876C59.8952 203.549 59.4845 203.386 58.9805 203.386C58.6445 203.386 58.3459 203.461 58.0845 203.61C57.8232 203.759 57.6179 203.965 57.4685 204.226C57.3192 204.487 57.2445 204.786 57.2445 205.122L56.7265 204.828C56.7265 204.324 56.8385 203.876 57.0625 203.484C57.2865 203.092 57.5992 202.784 58.0005 202.56C58.4019 202.327 58.8545 202.21 59.3585 202.21C59.8625 202.21 60.3059 202.336 60.6885 202.588C61.0805 202.84 61.3885 203.171 61.6125 203.582C61.8365 203.983 61.9485 204.413 61.9485 204.87V209H60.6885ZM55.9845 209V202.35H57.2445V209H55.9845ZM66.4825 209.14C65.8758 209.14 65.3251 208.991 64.8305 208.692C64.3358 208.384 63.9438 207.969 63.6545 207.446C63.3745 206.923 63.2345 206.335 63.2345 205.682C63.2345 205.029 63.3745 204.441 63.6545 203.918C63.9438 203.395 64.3311 202.98 64.8165 202.672C65.3111 202.364 65.8665 202.21 66.4825 202.21C66.9865 202.21 67.4345 202.317 67.8265 202.532C68.2278 202.737 68.5498 203.027 68.7925 203.4C69.0351 203.764 69.1705 204.189 69.1985 204.674V206.676C69.1705 207.152 69.0351 207.577 68.7925 207.95C68.5591 208.323 68.2418 208.617 67.8405 208.832C67.4485 209.037 66.9958 209.14 66.4825 209.14ZM66.6925 207.95C67.3178 207.95 67.8218 207.74 68.2045 207.32C68.5871 206.891 68.7785 206.345 68.7785 205.682C68.7785 205.225 68.6898 204.828 68.5125 204.492C68.3445 204.147 68.1018 203.881 67.7845 203.694C67.4671 203.498 67.0985 203.4 66.6785 203.4C66.2585 203.4 65.8851 203.498 65.5585 203.694C65.2411 203.89 64.9891 204.161 64.8025 204.506C64.6251 204.842 64.5365 205.229 64.5365 205.668C64.5365 206.116 64.6251 206.513 64.8025 206.858C64.9891 207.194 65.2458 207.46 65.5725 207.656C65.8991 207.852 66.2725 207.95 66.6925 207.95ZM68.6945 209V207.208L68.9325 205.584L68.6945 203.974V202.35H69.9685V209H68.6945ZM76.5069 209V205.122C76.5069 204.618 76.3482 204.203 76.0309 203.876C75.7136 203.549 75.3029 203.386 74.7989 203.386C74.4629 203.386 74.1642 203.461 73.9029 203.61C73.6416 203.759 73.4362 203.965 73.2869 204.226C73.1376 204.487 73.0629 204.786 73.0629 205.122L72.5449 204.828C72.5449 204.324 72.6569 203.876 72.8809 203.484C73.1049 203.092 73.4176 202.784 73.8189 202.56C74.2202 202.327 74.6729 202.21 75.1769 202.21C75.6809 202.21 76.1242 202.336 76.5069 202.588C76.8989 202.84 77.2069 203.171 77.4309 203.582C77.6549 203.983 77.7669 204.413 77.7669 204.87V209H76.5069ZM71.8029 209V202.35H73.0629V209H71.8029ZM82.5108 209.14C81.8575 209.14 81.2648 208.986 80.7328 208.678C80.2102 208.37 79.7948 207.955 79.4868 207.432C79.1882 206.9 79.0388 206.312 79.0388 205.668C79.0388 205.015 79.1882 204.427 79.4868 203.904C79.7948 203.381 80.2102 202.971 80.7328 202.672C81.2648 202.364 81.8575 202.21 82.5108 202.21C83.0242 202.21 83.5002 202.308 83.9388 202.504C84.3775 202.691 84.7555 202.966 85.0728 203.33L84.2328 204.17C84.0275 203.927 83.7755 203.745 83.4768 203.624C83.1875 203.493 82.8655 203.428 82.5108 203.428C82.0908 203.428 81.7175 203.526 81.3908 203.722C81.0642 203.909 80.8075 204.17 80.6208 204.506C80.4342 204.842 80.3408 205.229 80.3408 205.668C80.3408 206.107 80.4342 206.494 80.6208 206.83C80.8075 207.166 81.0642 207.432 81.3908 207.628C81.7175 207.824 82.0908 207.922 82.5108 207.922C82.8655 207.922 83.1875 207.861 83.4768 207.74C83.7755 207.609 84.0322 207.423 84.2468 207.18L85.0728 208.02C84.7648 208.375 84.3868 208.65 83.9388 208.846C83.5002 209.042 83.0242 209.14 82.5108 209.14ZM89.2794 209.14C88.6167 209.14 88.0194 208.991 87.4874 208.692C86.9554 208.384 86.5354 207.969 86.2274 207.446C85.9194 206.923 85.7654 206.331 85.7654 205.668C85.7654 205.015 85.9147 204.427 86.2134 203.904C86.5214 203.381 86.9321 202.971 87.4454 202.672C87.9681 202.364 88.5514 202.21 89.1954 202.21C89.8114 202.21 90.3527 202.35 90.8194 202.63C91.2954 202.91 91.6641 203.297 91.9254 203.792C92.1961 204.287 92.3314 204.847 92.3314 205.472C92.3314 205.565 92.3267 205.668 92.3174 205.78C92.3081 205.883 92.2894 206.004 92.2614 206.144H86.6474V205.094H91.5894L91.1274 205.5C91.1274 205.052 91.0481 204.674 90.8894 204.366C90.7307 204.049 90.5067 203.806 90.2174 203.638C89.9281 203.461 89.5781 203.372 89.1674 203.372C88.7381 203.372 88.3601 203.465 88.0334 203.652C87.7067 203.839 87.4547 204.1 87.2774 204.436C87.1001 204.772 87.0114 205.169 87.0114 205.626C87.0114 206.093 87.1047 206.503 87.2914 206.858C87.4781 207.203 87.7441 207.474 88.0894 207.67C88.4347 207.857 88.8314 207.95 89.2794 207.95C89.6527 207.95 89.9934 207.885 90.3014 207.754C90.6187 207.623 90.8894 207.427 91.1134 207.166L91.9254 207.992C91.6081 208.365 91.2161 208.65 90.7494 208.846C90.2921 209.042 89.8021 209.14 89.2794 209.14ZM99.1654 209.14C98.5027 209.14 97.91 209.023 97.3874 208.79C96.874 208.547 96.44 208.197 96.0854 207.74L96.9814 206.844C97.196 207.171 97.49 207.432 97.8634 207.628C98.246 207.815 98.6707 207.908 99.1374 207.908C99.576 207.908 99.9587 207.824 100.285 207.656C100.621 207.488 100.883 207.255 101.069 206.956C101.265 206.648 101.363 206.284 101.363 205.864C101.363 205.435 101.27 205.071 101.083 204.772C100.897 204.473 100.645 204.249 100.327 204.1C100.019 203.941 99.6787 203.862 99.3054 203.862C98.9227 203.862 98.5727 203.909 98.2554 204.002C97.9474 204.095 97.6534 204.254 97.3734 204.478L97.3874 203.638C97.546 203.442 97.728 203.283 97.9334 203.162C98.1387 203.041 98.372 202.947 98.6334 202.882C98.8947 202.817 99.198 202.784 99.5434 202.784C100.215 202.784 100.785 202.924 101.251 203.204C101.718 203.484 102.073 203.862 102.315 204.338C102.567 204.814 102.693 205.346 102.693 205.934C102.693 206.55 102.539 207.101 102.231 207.586C101.933 208.071 101.517 208.454 100.985 208.734C100.453 209.005 99.8467 209.14 99.1654 209.14ZM97.3734 204.478L96.6594 203.764L97.0934 199.284H98.2974L97.8074 203.89L97.3734 204.478ZM97.3594 200.46L97.0934 199.284H102.203V200.46H97.3594Z" fill="#919AA3"/>
<path d="M262.148 163V153.284H263.072L267.188 160.046H266.558L270.674 153.284H271.598V163H270.282V155.594L270.59 155.678L267.342 161.012H266.418L263.17 155.678L263.464 155.594V163H262.148ZM276.496 163.14C275.889 163.14 275.339 162.991 274.844 162.692C274.349 162.384 273.957 161.969 273.668 161.446C273.388 160.923 273.248 160.335 273.248 159.682C273.248 159.029 273.388 158.441 273.668 157.918C273.957 157.395 274.345 156.98 274.83 156.672C275.325 156.364 275.88 156.21 276.496 156.21C277 156.21 277.448 156.317 277.84 156.532C278.241 156.737 278.563 157.027 278.806 157.4C279.049 157.764 279.184 158.189 279.212 158.674V160.676C279.184 161.152 279.049 161.577 278.806 161.95C278.573 162.323 278.255 162.617 277.854 162.832C277.462 163.037 277.009 163.14 276.496 163.14ZM276.706 161.95C277.331 161.95 277.835 161.74 278.218 161.32C278.601 160.891 278.792 160.345 278.792 159.682C278.792 159.225 278.703 158.828 278.526 158.492C278.358 158.147 278.115 157.881 277.798 157.694C277.481 157.498 277.112 157.4 276.692 157.4C276.272 157.4 275.899 157.498 275.572 157.694C275.255 157.89 275.003 158.161 274.816 158.506C274.639 158.842 274.55 159.229 274.55 159.668C274.55 160.116 274.639 160.513 274.816 160.858C275.003 161.194 275.259 161.46 275.586 161.656C275.913 161.852 276.286 161.95 276.706 161.95ZM278.708 163V161.208L278.946 159.584L278.708 157.974V156.35H279.982V163H278.708ZM281.817 163V156.35H283.077V163H281.817ZM283.077 159.206L282.601 158.996C282.601 158.147 282.797 157.47 283.189 156.966C283.581 156.462 284.145 156.21 284.883 156.21C285.219 156.21 285.522 156.271 285.793 156.392C286.063 156.504 286.315 156.695 286.549 156.966L285.723 157.82C285.583 157.671 285.429 157.563 285.261 157.498C285.093 157.433 284.897 157.4 284.673 157.4C284.206 157.4 283.823 157.549 283.525 157.848C283.226 158.147 283.077 158.599 283.077 159.206ZM291.692 163L288.584 159.598L291.664 156.35H293.19L289.76 159.934L289.816 159.206L293.316 163H291.692ZM287.436 163V153.004H288.696V163H287.436ZM297.106 163.14C296.443 163.14 295.846 162.991 295.314 162.692C294.782 162.384 294.362 161.969 294.054 161.446C293.746 160.923 293.592 160.331 293.592 159.668C293.592 159.015 293.741 158.427 294.04 157.904C294.348 157.381 294.758 156.971 295.272 156.672C295.794 156.364 296.378 156.21 297.022 156.21C297.638 156.21 298.179 156.35 298.646 156.63C299.122 156.91 299.49 157.297 299.752 157.792C300.022 158.287 300.158 158.847 300.158 159.472C300.158 159.565 300.153 159.668 300.144 159.78C300.134 159.883 300.116 160.004 300.088 160.144H294.474V159.094H299.416L298.954 159.5C298.954 159.052 298.874 158.674 298.716 158.366C298.557 158.049 298.333 157.806 298.044 157.638C297.754 157.461 297.404 157.372 296.994 157.372C296.564 157.372 296.186 157.465 295.86 157.652C295.533 157.839 295.281 158.1 295.104 158.436C294.926 158.772 294.838 159.169 294.838 159.626C294.838 160.093 294.931 160.503 295.118 160.858C295.304 161.203 295.57 161.474 295.916 161.67C296.261 161.857 296.658 161.95 297.106 161.95C297.479 161.95 297.82 161.885 298.128 161.754C298.445 161.623 298.716 161.427 298.94 161.166L299.752 161.992C299.434 162.365 299.042 162.65 298.576 162.846C298.118 163.042 297.628 163.14 297.106 163.14ZM302.348 163V153.564H303.608V163H302.348ZM300.71 157.498V156.35H305.246V157.498H300.71ZM306.495 163V156.35H307.755V163H306.495ZM307.125 155.02C306.891 155.02 306.7 154.945 306.551 154.796C306.401 154.637 306.327 154.441 306.327 154.208C306.327 153.984 306.401 153.797 306.551 153.648C306.7 153.489 306.891 153.41 307.125 153.41C307.358 153.41 307.549 153.489 307.699 153.648C307.848 153.797 307.923 153.984 307.923 154.208C307.923 154.441 307.848 154.637 307.699 154.796C307.549 154.945 307.358 155.02 307.125 155.02ZM314.316 163V159.122C314.316 158.618 314.157 158.203 313.84 157.876C313.522 157.549 313.112 157.386 312.608 157.386C312.272 157.386 311.973 157.461 311.712 157.61C311.45 157.759 311.245 157.965 311.096 158.226C310.946 158.487 310.872 158.786 310.872 159.122L310.354 158.828C310.354 158.324 310.466 157.876 310.69 157.484C310.914 157.092 311.226 156.784 311.628 156.56C312.029 156.327 312.482 156.21 312.986 156.21C313.49 156.21 313.933 156.336 314.316 156.588C314.708 156.84 315.016 157.171 315.24 157.582C315.464 157.983 315.576 158.413 315.576 158.87V163H314.316ZM309.611 163V156.35H310.872V163H309.611ZM320.039 165.926C319.358 165.926 318.751 165.8 318.219 165.548C317.697 165.296 317.277 164.941 316.959 164.484L317.771 163.658C318.042 164.003 318.364 164.265 318.737 164.442C319.111 164.629 319.554 164.722 320.067 164.722C320.749 164.722 321.285 164.54 321.677 164.176C322.079 163.821 322.279 163.341 322.279 162.734V161.082L322.503 159.584L322.279 158.1V156.35H323.539V162.734C323.539 163.369 323.39 163.924 323.091 164.4C322.802 164.876 322.391 165.249 321.859 165.52C321.337 165.791 320.73 165.926 320.039 165.926ZM320.039 162.888C319.433 162.888 318.887 162.743 318.401 162.454C317.925 162.165 317.547 161.768 317.267 161.264C316.987 160.751 316.847 160.177 316.847 159.542C316.847 158.907 316.987 158.343 317.267 157.848C317.547 157.344 317.925 156.947 318.401 156.658C318.887 156.359 319.433 156.21 320.039 156.21C320.562 156.21 321.024 156.313 321.425 156.518C321.827 156.723 322.144 157.013 322.377 157.386C322.62 157.75 322.751 158.179 322.769 158.674V160.438C322.741 160.923 322.606 161.353 322.363 161.726C322.13 162.09 321.813 162.375 321.411 162.58C321.01 162.785 320.553 162.888 320.039 162.888ZM320.291 161.698C320.702 161.698 321.061 161.609 321.369 161.432C321.687 161.255 321.929 161.007 322.097 160.69C322.265 160.363 322.349 159.985 322.349 159.556C322.349 159.127 322.261 158.753 322.083 158.436C321.915 158.109 321.677 157.857 321.369 157.68C321.061 157.493 320.697 157.4 320.277 157.4C319.857 157.4 319.489 157.493 319.171 157.68C318.854 157.857 318.602 158.109 318.415 158.436C318.238 158.753 318.149 159.122 318.149 159.542C318.149 159.962 318.238 160.335 318.415 160.662C318.602 160.989 318.854 161.245 319.171 161.432C319.498 161.609 319.871 161.698 320.291 161.698Z" fill="#475569"/>
<g filter="url(#filter0_d_23_546)">
<rect x="213" y="175" width="90" height="19" rx="5" fill="white"/>
<rect x="213.25" y="175.25" width="89.5" height="18.5" rx="4.75" stroke="#F2F4F5" stroke-width="0.5"/>
</g>
<path d="M223.984 189V180.672H224.776L228.304 186.468H227.764L231.292 180.672H232.084V189H230.956V182.652L231.22 182.724L228.436 187.296H227.644L224.86 182.724L225.112 182.652V189H223.984ZM236.282 189.12C235.762 189.12 235.29 188.992 234.866 188.736C234.442 188.472 234.106 188.116 233.858 187.668C233.618 187.22 233.498 186.716 233.498 186.156C233.498 185.596 233.618 185.092 233.858 184.644C234.106 184.196 234.438 183.84 234.854 183.576C235.278 183.312 235.754 183.18 236.282 183.18C236.714 183.18 237.098 183.272 237.434 183.456C237.778 183.632 238.054 183.88 238.262 184.2C238.47 184.512 238.586 184.876 238.61 185.292V187.008C238.586 187.416 238.47 187.78 238.262 188.1C238.062 188.42 237.79 188.672 237.446 188.856C237.11 189.032 236.722 189.12 236.282 189.12ZM236.462 188.1C236.998 188.1 237.43 187.92 237.758 187.56C238.086 187.192 238.25 186.724 238.25 186.156C238.25 185.764 238.174 185.424 238.022 185.136C237.878 184.84 237.67 184.612 237.398 184.452C237.126 184.284 236.81 184.2 236.45 184.2C236.09 184.2 235.77 184.284 235.49 184.452C235.218 184.62 235.002 184.852 234.842 185.148C234.69 185.436 234.614 185.768 234.614 186.144C234.614 186.528 234.69 186.868 234.842 187.164C235.002 187.452 235.222 187.68 235.502 187.848C235.782 188.016 236.102 188.1 236.462 188.1ZM238.178 189V187.464L238.382 186.072L238.178 184.692V183.3H239.27V189H238.178ZM240.843 189V183.3H241.923V189H240.843ZM241.923 185.748L241.515 185.568C241.515 184.84 241.683 184.26 242.019 183.828C242.355 183.396 242.839 183.18 243.471 183.18C243.759 183.18 244.019 183.232 244.251 183.336C244.483 183.432 244.699 183.596 244.899 183.828L244.191 184.56C244.071 184.432 243.939 184.34 243.795 184.284C243.651 184.228 243.483 184.2 243.291 184.2C242.891 184.2 242.563 184.328 242.307 184.584C242.051 184.84 241.923 185.228 241.923 185.748ZM249.307 189L246.643 186.084L249.283 183.3H250.591L247.651 186.372L247.699 185.748L250.699 189H249.307ZM245.659 189V180.432H246.739V189H245.659ZM253.948 189.12C253.38 189.12 252.868 188.992 252.412 188.736C251.956 188.472 251.596 188.116 251.332 187.668C251.068 187.22 250.936 186.712 250.936 186.144C250.936 185.584 251.064 185.08 251.32 184.632C251.584 184.184 251.936 183.832 252.376 183.576C252.824 183.312 253.324 183.18 253.876 183.18C254.404 183.18 254.868 183.3 255.268 183.54C255.676 183.78 255.992 184.112 256.216 184.536C256.448 184.96 256.564 185.44 256.564 185.976C256.564 186.056 256.56 186.144 256.552 186.24C256.544 186.328 256.528 186.432 256.504 186.552H251.692V185.652H255.928L255.532 186C255.532 185.616 255.464 185.292 255.328 185.028C255.192 184.756 255 184.548 254.752 184.404C254.504 184.252 254.204 184.176 253.852 184.176C253.484 184.176 253.16 184.256 252.88 184.416C252.6 184.576 252.384 184.8 252.232 185.088C252.08 185.376 252.004 185.716 252.004 186.108C252.004 186.508 252.084 186.86 252.244 187.164C252.404 187.46 252.632 187.692 252.928 187.86C253.224 188.02 253.564 188.1 253.948 188.1C254.268 188.1 254.56 188.044 254.824 187.932C255.096 187.82 255.328 187.652 255.52 187.428L256.216 188.136C255.944 188.456 255.608 188.7 255.208 188.868C254.816 189.036 254.396 189.12 253.948 189.12ZM258.453 189V180.912H259.533V189H258.453ZM257.049 184.284V183.3H260.937V184.284H257.049ZM262.007 189V183.3H263.087V189H262.007ZM262.547 182.16C262.347 182.16 262.183 182.096 262.055 181.968C261.927 181.832 261.863 181.664 261.863 181.464C261.863 181.272 261.927 181.112 262.055 180.984C262.183 180.848 262.347 180.78 262.547 180.78C262.747 180.78 262.911 180.848 263.039 180.984C263.167 181.112 263.231 181.272 263.231 181.464C263.231 181.664 263.167 181.832 263.039 181.968C262.911 182.096 262.747 182.16 262.547 182.16ZM268.711 189V185.676C268.711 185.244 268.575 184.888 268.303 184.608C268.031 184.328 267.679 184.188 267.247 184.188C266.959 184.188 266.703 184.252 266.479 184.38C266.255 184.508 266.079 184.684 265.951 184.908C265.823 185.132 265.759 185.388 265.759 185.676L265.315 185.424C265.315 184.992 265.411 184.608 265.603 184.272C265.795 183.936 266.063 183.672 266.407 183.48C266.751 183.28 267.139 183.18 267.571 183.18C268.003 183.18 268.383 183.288 268.711 183.504C269.047 183.72 269.311 184.004 269.503 184.356C269.695 184.7 269.791 185.068 269.791 185.46V189H268.711ZM264.679 189V183.3H265.759V189H264.679ZM273.617 191.508C273.033 191.508 272.513 191.4 272.057 191.184C271.609 190.968 271.249 190.664 270.977 190.272L271.673 189.564C271.905 189.86 272.181 190.084 272.501 190.236C272.821 190.396 273.201 190.476 273.641 190.476C274.225 190.476 274.685 190.32 275.021 190.008C275.365 189.704 275.537 189.292 275.537 188.772V187.356L275.729 186.072L275.537 184.8V183.3H276.617V188.772C276.617 189.316 276.489 189.792 276.233 190.2C275.985 190.608 275.633 190.928 275.177 191.16C274.729 191.392 274.209 191.508 273.617 191.508ZM273.617 188.904C273.097 188.904 272.629 188.78 272.213 188.532C271.805 188.284 271.481 187.944 271.241 187.512C271.001 187.072 270.881 186.58 270.881 186.036C270.881 185.492 271.001 185.008 271.241 184.584C271.481 184.152 271.805 183.812 272.213 183.564C272.629 183.308 273.097 183.18 273.617 183.18C274.065 183.18 274.461 183.268 274.805 183.444C275.149 183.62 275.421 183.868 275.621 184.188C275.829 184.5 275.941 184.868 275.957 185.292V186.804C275.933 187.22 275.817 187.588 275.609 187.908C275.409 188.22 275.137 188.464 274.793 188.64C274.449 188.816 274.057 188.904 273.617 188.904ZM273.833 187.884C274.185 187.884 274.493 187.808 274.757 187.656C275.029 187.504 275.237 187.292 275.381 187.02C275.525 186.74 275.597 186.416 275.597 186.048C275.597 185.68 275.521 185.36 275.369 185.088C275.225 184.808 275.021 184.592 274.757 184.44C274.493 184.28 274.181 184.2 273.821 184.2C273.461 184.2 273.145 184.28 272.873 184.44C272.601 184.592 272.385 184.808 272.225 185.088C272.073 185.36 271.997 185.676 271.997 186.036C271.997 186.396 272.073 186.716 272.225 186.996C272.385 187.276 272.601 187.496 272.873 187.656C273.153 187.808 273.473 187.884 273.833 187.884ZM280.302 188.316L283.374 185.076C283.686 184.756 283.93 184.48 284.106 184.248C284.282 184.008 284.406 183.788 284.478 183.588C284.558 183.388 284.598 183.18 284.598 182.964C284.598 182.54 284.462 182.208 284.19 181.968C283.918 181.728 283.566 181.608 283.134 181.608C282.71 181.608 282.338 181.712 282.018 181.92C281.698 182.12 281.414 182.432 281.166 182.856L280.374 182.196C280.702 181.652 281.098 181.244 281.562 180.972C282.026 180.692 282.562 180.552 283.17 180.552C283.682 180.552 284.126 180.652 284.502 180.852C284.886 181.052 285.182 181.332 285.39 181.692C285.598 182.052 285.702 182.472 285.702 182.952C285.702 183.296 285.658 183.604 285.57 183.876C285.49 184.148 285.342 184.428 285.126 184.716C284.918 184.996 284.626 185.332 284.25 185.724L281.766 188.28L280.302 188.316ZM280.302 189V188.316L281.262 187.992H285.894V189H280.302ZM289.374 189.12C288.806 189.12 288.298 189.02 287.85 188.82C287.41 188.612 287.038 188.312 286.734 187.92L287.502 187.152C287.686 187.432 287.938 187.656 288.258 187.824C288.586 187.984 288.95 188.064 289.35 188.064C289.726 188.064 290.054 187.992 290.334 187.848C290.622 187.704 290.846 187.504 291.006 187.248C291.174 186.984 291.258 186.672 291.258 186.312C291.258 185.944 291.178 185.632 291.018 185.376C290.858 185.12 290.642 184.928 290.37 184.8C290.106 184.664 289.814 184.596 289.494 184.596C289.166 184.596 288.866 184.636 288.594 184.716C288.33 184.796 288.078 184.932 287.838 185.124L287.85 184.404C287.986 184.236 288.142 184.1 288.318 183.996C288.494 183.892 288.694 183.812 288.918 183.756C289.142 183.7 289.402 183.672 289.698 183.672C290.274 183.672 290.762 183.792 291.162 184.032C291.562 184.272 291.866 184.596 292.074 185.004C292.29 185.412 292.398 185.868 292.398 186.372C292.398 186.9 292.266 187.372 292.002 187.788C291.746 188.204 291.39 188.532 290.934 188.772C290.478 189.004 289.958 189.12 289.374 189.12ZM287.838 185.124L287.226 184.512L287.598 180.672H288.63L288.21 184.62L287.838 185.124ZM287.826 181.68L287.598 180.672H291.978V181.68H287.826Z" fill="#919AA3"/>
<defs>
<filter id="filter0_d_23_546" x="189" y="151" width="138" height="67" filterUnits="userSpaceOnUse" color-interpolation-filters="sRGB">
<feFlood flood-opacity="0" result="BackgroundImageFix"/>
<feColorMatrix in="SourceAlpha" type="matrix" values="0 0 0 0 0 0 0 0 0 0 0 0 0 0 0 0 0 0 127 0" result="hardAlpha"/>
<feOffset/>
<feGaussianBlur stdDeviation="12"/>
<feComposite in2="hardAlpha" operator="out"/>
<feColorMatrix type="matrix" values="0 0 0 0 0.278431 0 0 0 0 0.333333 0 0 0 0 0.411765 0 0 0 0.1 0"/>
<feBlend mode="normal" in2="BackgroundImageFix" result="effect1_dropShadow_23_546"/>
<feBlend mode="normal" in="SourceGraphic" in2="effect1_dropShadow_23_546" result="shape"/>
</filter>
<clipPath id="clip0_23_546">
<rect width="16" height="16" fill="white" transform="translate(348 21)"/>
</clipPath>
</defs>
</svg>
