<svg width="520" height="400" viewBox="0 0 520 400" fill="none" xmlns="http://www.w3.org/2000/svg">
<rect width="520" height="400" rx="10" fill="white"/>
<path d="M28.878 37.18C27.882 37.18 27.036 37 26.34 36.64C25.644 36.28 25.02 35.752 24.468 35.056L25.872 33.652C26.22 34.156 26.634 34.552 27.114 34.84C27.594 35.116 28.206 35.254 28.95 35.254C29.646 35.254 30.198 35.11 30.606 34.822C31.026 34.534 31.236 34.138 31.236 33.634C31.236 33.214 31.128 32.872 30.912 32.608C30.696 32.344 30.408 32.128 30.048 31.96C29.7 31.78 29.31 31.624 28.878 31.492C28.458 31.348 28.032 31.192 27.6 31.024C27.18 30.844 26.79 30.622 26.43 30.358C26.082 30.094 25.8 29.752 25.584 29.332C25.368 28.912 25.26 28.378 25.26 27.73C25.26 26.986 25.44 26.356 25.8 25.84C26.172 25.312 26.67 24.91 27.294 24.634C27.918 24.358 28.614 24.22 29.382 24.22C30.21 24.22 30.948 24.382 31.596 24.706C32.256 25.03 32.79 25.444 33.198 25.948L31.794 27.352C31.434 26.944 31.056 26.644 30.66 26.452C30.276 26.248 29.832 26.146 29.328 26.146C28.704 26.146 28.212 26.272 27.852 26.524C27.504 26.776 27.33 27.13 27.33 27.586C27.33 27.97 27.438 28.282 27.654 28.522C27.87 28.75 28.152 28.948 28.5 29.116C28.86 29.272 29.25 29.422 29.67 29.566C30.102 29.71 30.528 29.872 30.948 30.052C31.38 30.232 31.77 30.466 32.118 30.754C32.478 31.03 32.766 31.39 32.982 31.834C33.198 32.278 33.306 32.836 33.306 33.508C33.306 34.636 32.904 35.53 32.1 36.19C31.308 36.85 30.234 37.18 28.878 37.18ZM36.414 37V24.76H38.394V37H36.414ZM34.344 30.16V28.36H40.464V30.16H34.344ZM45.4487 37.18C44.7167 37.18 44.0627 37.018 43.4867 36.694C42.9227 36.37 42.4787 35.926 42.1547 35.362C41.8427 34.786 41.6867 34.126 41.6867 33.382V28.36H43.6667V33.292C43.6667 33.712 43.7327 34.072 43.8647 34.372C44.0087 34.66 44.2127 34.882 44.4767 35.038C44.7527 35.194 45.0767 35.272 45.4487 35.272C46.0247 35.272 46.4627 35.104 46.7627 34.768C47.0747 34.42 47.2307 33.928 47.2307 33.292V28.36H49.2107V33.382C49.2107 34.138 49.0487 34.804 48.7247 35.38C48.4127 35.944 47.9747 36.388 47.4107 36.712C46.8467 37.024 46.1927 37.18 45.4487 37.18ZM54.8195 37.18C54.0395 37.18 53.3315 36.982 52.6955 36.586C52.0715 36.19 51.5735 35.656 51.2015 34.984C50.8415 34.3 50.6615 33.538 50.6615 32.698C50.6615 31.846 50.8415 31.084 51.2015 30.412C51.5735 29.728 52.0715 29.188 52.6955 28.792C53.3315 28.384 54.0395 28.18 54.8195 28.18C55.4795 28.18 56.0615 28.324 56.5655 28.612C57.0815 28.888 57.4895 29.272 57.7895 29.764C58.0895 30.256 58.2395 30.814 58.2395 31.438V33.922C58.2395 34.546 58.0895 35.104 57.7895 35.596C57.5015 36.088 57.0995 36.478 56.5835 36.766C56.0675 37.042 55.4795 37.18 54.8195 37.18ZM55.1435 35.308C55.6355 35.308 56.0615 35.2 56.4215 34.984C56.7935 34.756 57.0815 34.444 57.2855 34.048C57.4895 33.652 57.5915 33.196 57.5915 32.68C57.5915 32.164 57.4895 31.708 57.2855 31.312C57.0815 30.916 56.7935 30.61 56.4215 30.394C56.0615 30.166 55.6355 30.052 55.1435 30.052C54.6635 30.052 54.2375 30.166 53.8655 30.394C53.5055 30.61 53.2175 30.916 53.0015 31.312C52.7975 31.708 52.6955 32.164 52.6955 32.68C52.6955 33.196 52.7975 33.652 53.0015 34.048C53.2175 34.444 53.5055 34.756 53.8655 34.984C54.2375 35.2 54.6635 35.308 55.1435 35.308ZM59.4455 37H57.4655V34.678L57.8075 32.572L57.4655 30.484V24.04H59.4455V37ZM65.6569 37.18C64.7929 37.18 64.0129 36.988 63.3169 36.604C62.6329 36.208 62.0869 35.668 61.6789 34.984C61.2829 34.3 61.0849 33.532 61.0849 32.68C61.0849 31.828 61.2829 31.066 61.6789 30.394C62.0749 29.71 62.6089 29.17 63.2809 28.774C63.9649 28.378 64.7209 28.18 65.5489 28.18C66.3529 28.18 67.0609 28.366 67.6729 28.738C68.2969 29.11 68.7829 29.62 69.1309 30.268C69.4909 30.916 69.6709 31.654 69.6709 32.482C69.6709 32.626 69.6589 32.776 69.6349 32.932C69.6229 33.076 69.5989 33.238 69.5629 33.418H62.4709V31.798H68.5369L67.7989 32.446C67.7749 31.918 67.6729 31.474 67.4929 31.114C67.3129 30.754 67.0549 30.478 66.7189 30.286C66.3949 30.094 65.9929 29.998 65.5129 29.998C65.0089 29.998 64.5709 30.106 64.1989 30.322C63.8269 30.538 63.5389 30.844 63.3349 31.24C63.1309 31.624 63.0289 32.086 63.0289 32.626C63.0289 33.166 63.1369 33.64 63.3529 34.048C63.5689 34.456 63.8749 34.774 64.2709 35.002C64.6669 35.218 65.1229 35.326 65.6389 35.326C66.0829 35.326 66.4909 35.248 66.8629 35.092C67.2469 34.936 67.5709 34.708 67.8349 34.408L69.0949 35.686C68.6749 36.178 68.1649 36.55 67.5649 36.802C66.9649 37.054 66.3289 37.18 65.6569 37.18ZM77.1802 37V32.014C77.1802 31.438 76.9942 30.964 76.6222 30.592C76.2622 30.22 75.7942 30.034 75.2182 30.034C74.8342 30.034 74.4922 30.118 74.1922 30.286C73.8922 30.454 73.6582 30.688 73.4902 30.988C73.3222 31.288 73.2382 31.63 73.2382 32.014L72.4642 31.582C72.4642 30.922 72.6082 30.34 72.8962 29.836C73.1842 29.32 73.5802 28.918 74.0842 28.63C74.6002 28.33 75.1762 28.18 75.8122 28.18C76.4602 28.18 77.0362 28.348 77.5402 28.684C78.0442 29.008 78.4402 29.434 78.7282 29.962C79.0162 30.478 79.1602 31.018 79.1602 31.582V37H77.1802ZM71.2582 37V28.36H73.2382V37H71.2582ZM82.3808 37V24.76H84.3608V37H82.3808ZM80.3108 30.16V28.36H86.4308V30.16H80.3108ZM90.5197 37.18C90.0397 37.18 89.5777 37.12 89.1337 37C88.6897 36.868 88.2817 36.688 87.9097 36.46C87.5377 36.22 87.2137 35.932 86.9377 35.596L88.1977 34.336C88.4977 34.684 88.8397 34.948 89.2237 35.128C89.6197 35.296 90.0637 35.38 90.5557 35.38C90.9997 35.38 91.3357 35.314 91.5637 35.182C91.7917 35.05 91.9057 34.858 91.9057 34.606C91.9057 34.342 91.7977 34.138 91.5817 33.994C91.3657 33.85 91.0837 33.73 90.7357 33.634C90.3997 33.526 90.0397 33.418 89.6557 33.31C89.2837 33.202 88.9237 33.058 88.5757 32.878C88.2397 32.686 87.9637 32.428 87.7477 32.104C87.5317 31.78 87.4237 31.36 87.4237 30.844C87.4237 30.292 87.5497 29.818 87.8017 29.422C88.0657 29.026 88.4317 28.72 88.8997 28.504C89.3797 28.288 89.9497 28.18 90.6097 28.18C91.3057 28.18 91.9177 28.306 92.4457 28.558C92.9857 28.798 93.4357 29.164 93.7957 29.656L92.5357 30.916C92.2837 30.604 91.9957 30.37 91.6717 30.214C91.3477 30.058 90.9757 29.98 90.5557 29.98C90.1597 29.98 89.8537 30.04 89.6377 30.16C89.4217 30.28 89.3137 30.454 89.3137 30.682C89.3137 30.922 89.4217 31.108 89.6377 31.24C89.8537 31.372 90.1297 31.486 90.4657 31.582C90.8137 31.678 91.1737 31.786 91.5457 31.906C91.9297 32.014 92.2897 32.17 92.6257 32.374C92.9737 32.566 93.2557 32.83 93.4717 33.166C93.6877 33.49 93.7957 33.916 93.7957 34.444C93.7957 35.284 93.5017 35.95 92.9137 36.442C92.3257 36.934 91.5277 37.18 90.5197 37.18ZM97.8558 37L103.04 24.4H104.48L109.628 37H107.396L103.364 26.794H104.12L100.052 37H97.8558ZM100.412 34.57V32.77H107.09V34.57H100.412ZM112.475 37V24.76H114.455V37H112.475ZM110.405 30.16V28.36H121.745V30.16H110.405ZM117.695 37V24.76H119.675V37H117.695ZM126.952 37.18C126.088 37.18 125.308 36.988 124.612 36.604C123.928 36.208 123.382 35.668 122.974 34.984C122.578 34.3 122.38 33.532 122.38 32.68C122.38 31.828 122.578 31.066 122.974 30.394C123.37 29.71 123.904 29.17 124.576 28.774C125.26 28.378 126.016 28.18 126.844 28.18C127.648 28.18 128.356 28.366 128.968 28.738C129.592 29.11 130.078 29.62 130.426 30.268C130.786 30.916 130.966 31.654 130.966 32.482C130.966 32.626 130.954 32.776 130.93 32.932C130.918 33.076 130.894 33.238 130.858 33.418H123.766V31.798H129.832L129.094 32.446C129.07 31.918 128.968 31.474 128.788 31.114C128.608 30.754 128.35 30.478 128.014 30.286C127.69 30.094 127.288 29.998 126.808 29.998C126.304 29.998 125.866 30.106 125.494 30.322C125.122 30.538 124.834 30.844 124.63 31.24C124.426 31.624 124.324 32.086 124.324 32.626C124.324 33.166 124.432 33.64 124.648 34.048C124.864 34.456 125.17 34.774 125.566 35.002C125.962 35.218 126.418 35.326 126.934 35.326C127.378 35.326 127.786 35.248 128.158 35.092C128.542 34.936 128.866 34.708 129.13 34.408L130.39 35.686C129.97 36.178 129.46 36.55 128.86 36.802C128.26 37.054 127.624 37.18 126.952 37.18ZM138.475 37V32.014C138.475 31.438 138.289 30.964 137.917 30.592C137.557 30.22 137.089 30.034 136.513 30.034C136.129 30.034 135.787 30.118 135.487 30.286C135.187 30.454 134.953 30.688 134.785 30.988C134.617 31.288 134.533 31.63 134.533 32.014L133.759 31.582C133.759 30.922 133.903 30.34 134.191 29.836C134.479 29.32 134.875 28.918 135.379 28.63C135.895 28.33 136.471 28.18 137.107 28.18C137.755 28.18 138.331 28.348 138.835 28.684C139.339 29.008 139.735 29.434 140.023 29.962C140.311 30.478 140.455 31.018 140.455 31.582V37H138.475ZM132.553 37V28.36H134.533V37H132.553ZM146.085 37.18C145.305 37.18 144.597 36.982 143.961 36.586C143.337 36.19 142.839 35.656 142.467 34.984C142.107 34.3 141.927 33.538 141.927 32.698C141.927 31.846 142.107 31.084 142.467 30.412C142.839 29.728 143.337 29.188 143.961 28.792C144.597 28.384 145.305 28.18 146.085 28.18C146.745 28.18 147.327 28.324 147.831 28.612C148.347 28.888 148.755 29.272 149.055 29.764C149.355 30.256 149.505 30.814 149.505 31.438V33.922C149.505 34.546 149.355 35.104 149.055 35.596C148.767 36.088 148.365 36.478 147.849 36.766C147.333 37.042 146.745 37.18 146.085 37.18ZM146.409 35.308C146.901 35.308 147.327 35.2 147.687 34.984C148.059 34.756 148.347 34.444 148.551 34.048C148.755 33.652 148.857 33.196 148.857 32.68C148.857 32.164 148.755 31.708 148.551 31.312C148.347 30.916 148.059 30.61 147.687 30.394C147.327 30.166 146.901 30.052 146.409 30.052C145.929 30.052 145.503 30.166 145.131 30.394C144.771 30.61 144.483 30.916 144.267 31.312C144.063 31.708 143.961 32.164 143.961 32.68C143.961 33.196 144.063 33.652 144.267 34.048C144.483 34.444 144.771 34.756 145.131 34.984C145.503 35.2 145.929 35.308 146.409 35.308ZM150.711 37H148.731V34.678L149.073 32.572L148.731 30.484V24.04H150.711V37ZM156.527 37.18C155.747 37.18 155.039 36.982 154.403 36.586C153.779 36.19 153.281 35.656 152.909 34.984C152.549 34.3 152.369 33.538 152.369 32.698C152.369 31.846 152.549 31.084 152.909 30.412C153.281 29.728 153.779 29.188 154.403 28.792C155.039 28.384 155.747 28.18 156.527 28.18C157.187 28.18 157.769 28.324 158.273 28.612C158.789 28.888 159.197 29.272 159.497 29.764C159.797 30.256 159.947 30.814 159.947 31.438V33.922C159.947 34.546 159.797 35.104 159.497 35.596C159.209 36.088 158.807 36.478 158.291 36.766C157.775 37.042 157.187 37.18 156.527 37.18ZM156.851 35.308C157.583 35.308 158.171 35.062 158.615 34.57C159.071 34.078 159.299 33.448 159.299 32.68C159.299 32.164 159.197 31.708 158.993 31.312C158.789 30.916 158.501 30.61 158.129 30.394C157.769 30.166 157.343 30.052 156.851 30.052C156.371 30.052 155.945 30.166 155.573 30.394C155.213 30.61 154.925 30.916 154.709 31.312C154.505 31.708 154.403 32.164 154.403 32.68C154.403 33.196 154.505 33.652 154.709 34.048C154.925 34.444 155.213 34.756 155.573 34.984C155.945 35.2 156.371 35.308 156.851 35.308ZM159.173 37V34.678L159.515 32.572L159.173 30.484V28.36H161.153V37H159.173ZM169.272 37V32.014C169.272 31.438 169.086 30.964 168.714 30.592C168.354 30.22 167.886 30.034 167.31 30.034C166.926 30.034 166.584 30.118 166.284 30.286C165.984 30.454 165.75 30.688 165.582 30.988C165.414 31.288 165.33 31.63 165.33 32.014L164.556 31.582C164.556 30.922 164.7 30.34 164.988 29.836C165.276 29.32 165.672 28.918 166.176 28.63C166.692 28.33 167.268 28.18 167.904 28.18C168.552 28.18 169.128 28.348 169.632 28.684C170.136 29.008 170.532 29.434 170.82 29.962C171.108 30.478 171.252 31.018 171.252 31.582V37H169.272ZM163.35 37V28.36H165.33V37H163.35ZM177.242 37.18C176.39 37.18 175.616 36.982 174.92 36.586C174.236 36.19 173.696 35.65 173.3 34.966C172.904 34.282 172.706 33.52 172.706 32.68C172.706 31.828 172.904 31.066 173.3 30.394C173.696 29.71 174.236 29.17 174.92 28.774C175.616 28.378 176.39 28.18 177.242 28.18C177.914 28.18 178.538 28.312 179.114 28.576C179.702 28.828 180.2 29.194 180.608 29.674L179.312 30.988C179.06 30.688 178.754 30.466 178.394 30.322C178.046 30.166 177.662 30.088 177.242 30.088C176.75 30.088 176.312 30.202 175.928 30.43C175.556 30.646 175.262 30.946 175.046 31.33C174.842 31.714 174.74 32.164 174.74 32.68C174.74 33.184 174.842 33.634 175.046 34.03C175.262 34.414 175.556 34.72 175.928 34.948C176.312 35.164 176.75 35.272 177.242 35.272C177.662 35.272 178.046 35.2 178.394 35.056C178.754 34.9 179.06 34.672 179.312 34.372L180.608 35.686C180.2 36.166 179.702 36.538 179.114 36.802C178.538 37.054 177.914 37.18 177.242 37.18ZM185.874 37.18C185.01 37.18 184.23 36.988 183.534 36.604C182.85 36.208 182.304 35.668 181.896 34.984C181.5 34.3 181.302 33.532 181.302 32.68C181.302 31.828 181.5 31.066 181.896 30.394C182.292 29.71 182.826 29.17 183.498 28.774C184.182 28.378 184.938 28.18 185.766 28.18C186.57 28.18 187.278 28.366 187.89 28.738C188.514 29.11 189 29.62 189.348 30.268C189.708 30.916 189.888 31.654 189.888 32.482C189.888 32.626 189.876 32.776 189.852 32.932C189.84 33.076 189.816 33.238 189.78 33.418H182.688V31.798H188.754L188.016 32.446C187.992 31.918 187.89 31.474 187.71 31.114C187.53 30.754 187.272 30.478 186.936 30.286C186.612 30.094 186.21 29.998 185.73 29.998C185.226 29.998 184.788 30.106 184.416 30.322C184.044 30.538 183.756 30.844 183.552 31.24C183.348 31.624 183.246 32.086 183.246 32.626C183.246 33.166 183.354 33.64 183.57 34.048C183.786 34.456 184.092 34.774 184.488 35.002C184.884 35.218 185.34 35.326 185.856 35.326C186.3 35.326 186.708 35.248 187.08 35.092C187.464 34.936 187.788 34.708 188.052 34.408L189.312 35.686C188.892 36.178 188.382 36.55 187.782 36.802C187.182 37.054 186.546 37.18 185.874 37.18Z" fill="#475569"/>
<g clip-path="url(#clip0_90_1047)">
<path d="M478.5 27.5C477.125 27.5 476 28.625 476 30C476 31.375 477.125 32.5 478.5 32.5C479.875 32.5 481 31.375 481 30C481 28.625 479.875 27.5 478.5 27.5ZM493.5 27.5C492.125 27.5 491 28.625 491 30C491 31.375 492.125 32.5 493.5 32.5C494.875 32.5 496 31.375 496 30C496 28.625 494.875 27.5 493.5 27.5ZM486 27.5C484.625 27.5 483.5 28.625 483.5 30C483.5 31.375 484.625 32.5 486 32.5C487.375 32.5 488.5 31.375 488.5 30C488.5 28.625 487.375 27.5 486 27.5Z" fill="#919AA3"/>
</g>
<rect x="103" y="366" width="10" height="10" fill="#2ECC71"/>
<path d="M125.03 372.22V371.072H127.676C128.04 371.072 128.362 370.997 128.642 370.848C128.931 370.699 129.155 370.489 129.314 370.218C129.482 369.947 129.566 369.625 129.566 369.252C129.566 368.879 129.482 368.557 129.314 368.286C129.155 368.015 128.931 367.805 128.642 367.656C128.362 367.507 128.04 367.432 127.676 367.432H125.03V366.284H127.76C128.357 366.284 128.889 366.405 129.356 366.648C129.832 366.891 130.205 367.236 130.476 367.684C130.756 368.123 130.896 368.645 130.896 369.252C130.896 369.849 130.756 370.372 130.476 370.82C130.205 371.259 129.832 371.604 129.356 371.856C128.889 372.099 128.357 372.22 127.76 372.22H125.03ZM124.148 376V366.284H125.464V376H124.148ZM132.414 376V369.35H133.674V376H132.414ZM133.674 372.206L133.198 371.996C133.198 371.147 133.394 370.47 133.786 369.966C134.178 369.462 134.743 369.21 135.48 369.21C135.816 369.21 136.12 369.271 136.39 369.392C136.661 369.504 136.913 369.695 137.146 369.966L136.32 370.82C136.18 370.671 136.026 370.563 135.858 370.498C135.69 370.433 135.494 370.4 135.27 370.4C134.804 370.4 134.421 370.549 134.122 370.848C133.824 371.147 133.674 371.599 133.674 372.206ZM140.895 376.14C140.232 376.14 139.635 375.991 139.103 375.692C138.571 375.384 138.151 374.969 137.843 374.446C137.535 373.923 137.381 373.331 137.381 372.668C137.381 372.015 137.53 371.427 137.829 370.904C138.137 370.381 138.547 369.971 139.061 369.672C139.583 369.364 140.167 369.21 140.811 369.21C141.427 369.21 141.968 369.35 142.435 369.63C142.911 369.91 143.279 370.297 143.541 370.792C143.811 371.287 143.947 371.847 143.947 372.472C143.947 372.565 143.942 372.668 143.933 372.78C143.923 372.883 143.905 373.004 143.877 373.144H138.263V372.094H143.205L142.743 372.5C142.743 372.052 142.663 371.674 142.505 371.366C142.346 371.049 142.122 370.806 141.833 370.638C141.543 370.461 141.193 370.372 140.783 370.372C140.353 370.372 139.975 370.465 139.649 370.652C139.322 370.839 139.07 371.1 138.893 371.436C138.715 371.772 138.627 372.169 138.627 372.626C138.627 373.093 138.72 373.503 138.907 373.858C139.093 374.203 139.359 374.474 139.705 374.67C140.05 374.857 140.447 374.95 140.895 374.95C141.268 374.95 141.609 374.885 141.917 374.754C142.234 374.623 142.505 374.427 142.729 374.166L143.541 374.992C143.223 375.365 142.831 375.65 142.365 375.846C141.907 376.042 141.417 376.14 140.895 376.14ZM147.434 376.14C147.061 376.14 146.706 376.093 146.37 376C146.044 375.897 145.74 375.757 145.46 375.58C145.18 375.393 144.938 375.174 144.732 374.922L145.544 374.11C145.787 374.409 146.067 374.633 146.384 374.782C146.702 374.922 147.056 374.992 147.448 374.992C147.84 374.992 148.144 374.927 148.358 374.796C148.573 374.656 148.68 374.465 148.68 374.222C148.68 373.979 148.592 373.793 148.414 373.662C148.246 373.522 148.027 373.41 147.756 373.326C147.486 373.233 147.196 373.144 146.888 373.06C146.59 372.967 146.305 372.85 146.034 372.71C145.764 372.57 145.54 372.379 145.362 372.136C145.194 371.893 145.11 371.571 145.11 371.17C145.11 370.769 145.208 370.423 145.404 370.134C145.6 369.835 145.871 369.607 146.216 369.448C146.571 369.289 146.996 369.21 147.49 369.21C148.013 369.21 148.475 369.303 148.876 369.49C149.287 369.667 149.623 369.938 149.884 370.302L149.072 371.114C148.886 370.871 148.652 370.685 148.372 370.554C148.102 370.423 147.794 370.358 147.448 370.358C147.084 370.358 146.804 370.423 146.608 370.554C146.422 370.675 146.328 370.848 146.328 371.072C146.328 371.296 146.412 371.469 146.58 371.59C146.748 371.711 146.968 371.814 147.238 371.898C147.518 371.982 147.808 372.071 148.106 372.164C148.405 372.248 148.69 372.365 148.96 372.514C149.231 372.663 149.45 372.864 149.618 373.116C149.796 373.368 149.884 373.699 149.884 374.11C149.884 374.735 149.66 375.23 149.212 375.594C148.774 375.958 148.181 376.14 147.434 376.14ZM154.375 376.14C153.712 376.14 153.115 375.991 152.583 375.692C152.051 375.384 151.631 374.969 151.323 374.446C151.015 373.923 150.861 373.331 150.861 372.668C150.861 372.015 151.01 371.427 151.309 370.904C151.617 370.381 152.028 369.971 152.541 369.672C153.064 369.364 153.647 369.21 154.291 369.21C154.907 369.21 155.448 369.35 155.915 369.63C156.391 369.91 156.76 370.297 157.021 370.792C157.292 371.287 157.427 371.847 157.427 372.472C157.427 372.565 157.422 372.668 157.413 372.78C157.404 372.883 157.385 373.004 157.357 373.144H151.743V372.094H156.685L156.223 372.5C156.223 372.052 156.144 371.674 155.985 371.366C155.826 371.049 155.602 370.806 155.313 370.638C155.024 370.461 154.674 370.372 154.263 370.372C153.834 370.372 153.456 370.465 153.129 370.652C152.802 370.839 152.55 371.1 152.373 371.436C152.196 371.772 152.107 372.169 152.107 372.626C152.107 373.093 152.2 373.503 152.387 373.858C152.574 374.203 152.84 374.474 153.185 374.67C153.53 374.857 153.927 374.95 154.375 374.95C154.748 374.95 155.089 374.885 155.397 374.754C155.714 374.623 155.985 374.427 156.209 374.166L157.021 374.992C156.704 375.365 156.312 375.65 155.845 375.846C155.388 376.042 154.898 376.14 154.375 376.14ZM163.505 376V372.122C163.505 371.618 163.346 371.203 163.029 370.876C162.712 370.549 162.301 370.386 161.797 370.386C161.461 370.386 161.162 370.461 160.901 370.61C160.64 370.759 160.434 370.965 160.285 371.226C160.136 371.487 160.061 371.786 160.061 372.122L159.543 371.828C159.543 371.324 159.655 370.876 159.879 370.484C160.103 370.092 160.416 369.784 160.817 369.56C161.218 369.327 161.671 369.21 162.175 369.21C162.679 369.21 163.122 369.336 163.505 369.588C163.897 369.84 164.205 370.171 164.429 370.582C164.653 370.983 164.765 371.413 164.765 371.87V376H163.505ZM158.801 376V369.35H160.061V376H158.801ZM167.411 376V366.564H168.671V376H167.411ZM165.773 370.498V369.35H170.309V370.498H165.773ZM177.381 376.14C176.737 376.14 176.168 376.019 175.673 375.776C175.188 375.533 174.81 375.197 174.539 374.768C174.269 374.339 174.133 373.853 174.133 373.312C174.133 372.873 174.217 372.472 174.385 372.108C174.553 371.744 174.801 371.436 175.127 371.184C175.454 370.923 175.837 370.736 176.275 370.624L176.317 371.002C175.944 370.899 175.627 370.736 175.365 370.512C175.104 370.279 174.903 370.008 174.763 369.7C174.633 369.383 174.567 369.047 174.567 368.692C174.567 368.188 174.689 367.745 174.931 367.362C175.174 366.979 175.505 366.681 175.925 366.466C176.355 366.242 176.84 366.13 177.381 366.13C177.932 366.13 178.417 366.242 178.837 366.466C179.257 366.681 179.589 366.979 179.831 367.362C180.074 367.745 180.195 368.188 180.195 368.692C180.195 369.047 180.125 369.383 179.985 369.7C179.855 370.008 179.659 370.279 179.397 370.512C179.145 370.736 178.833 370.899 178.459 371.002L178.487 370.624C178.935 370.736 179.318 370.923 179.635 371.184C179.962 371.436 180.209 371.744 180.377 372.108C180.555 372.472 180.643 372.873 180.643 373.312C180.643 373.853 180.508 374.339 180.237 374.768C179.967 375.197 179.584 375.533 179.089 375.776C178.604 376.019 178.035 376.14 177.381 376.14ZM177.381 374.95C177.773 374.95 178.114 374.875 178.403 374.726C178.702 374.567 178.935 374.353 179.103 374.082C179.281 373.811 179.369 373.499 179.369 373.144C179.369 372.799 179.281 372.491 179.103 372.22C178.935 371.949 178.702 371.739 178.403 371.59C178.114 371.431 177.773 371.352 177.381 371.352C176.999 371.352 176.658 371.431 176.359 371.59C176.061 371.739 175.823 371.949 175.645 372.22C175.477 372.491 175.393 372.799 175.393 373.144C175.393 373.499 175.477 373.811 175.645 374.082C175.823 374.353 176.061 374.567 176.359 374.726C176.658 374.875 176.999 374.95 177.381 374.95ZM177.381 370.33C177.848 370.33 178.231 370.185 178.529 369.896C178.828 369.607 178.977 369.233 178.977 368.776C178.977 368.328 178.828 367.964 178.529 367.684C178.231 367.395 177.848 367.25 177.381 367.25C176.924 367.25 176.546 367.395 176.247 367.684C175.949 367.964 175.799 368.328 175.799 368.776C175.799 369.233 175.949 369.607 176.247 369.896C176.546 370.185 176.924 370.33 177.381 370.33ZM184.701 376.14C184.038 376.14 183.445 376.023 182.923 375.79C182.409 375.547 181.975 375.197 181.621 374.74L182.517 373.844C182.731 374.171 183.025 374.432 183.399 374.628C183.781 374.815 184.206 374.908 184.673 374.908C185.111 374.908 185.494 374.824 185.821 374.656C186.157 374.488 186.418 374.255 186.605 373.956C186.801 373.648 186.899 373.284 186.899 372.864C186.899 372.435 186.805 372.071 186.619 371.772C186.432 371.473 186.18 371.249 185.863 371.1C185.555 370.941 185.214 370.862 184.841 370.862C184.458 370.862 184.108 370.909 183.791 371.002C183.483 371.095 183.189 371.254 182.909 371.478L182.923 370.638C183.081 370.442 183.263 370.283 183.469 370.162C183.674 370.041 183.907 369.947 184.169 369.882C184.43 369.817 184.733 369.784 185.079 369.784C185.751 369.784 186.32 369.924 186.787 370.204C187.253 370.484 187.608 370.862 187.851 371.338C188.103 371.814 188.229 372.346 188.229 372.934C188.229 373.55 188.075 374.101 187.767 374.586C187.468 375.071 187.053 375.454 186.521 375.734C185.989 376.005 185.382 376.14 184.701 376.14ZM182.909 371.478L182.195 370.764L182.629 366.284H183.833L183.343 370.89L182.909 371.478ZM182.895 367.46L182.629 366.284H187.739V367.46H182.895ZM189.671 376L195.901 366.284H197.175L190.945 376H189.671ZM195.369 376.14C195.005 376.14 194.673 376.051 194.375 375.874C194.076 375.697 193.838 375.463 193.661 375.174C193.483 374.875 193.395 374.539 193.395 374.166C193.395 373.802 193.483 373.475 193.661 373.186C193.838 372.887 194.076 372.649 194.375 372.472C194.673 372.295 195.005 372.206 195.369 372.206C195.733 372.206 196.064 372.295 196.363 372.472C196.671 372.649 196.913 372.887 197.091 373.186C197.268 373.475 197.357 373.802 197.357 374.166C197.357 374.539 197.268 374.875 197.091 375.174C196.913 375.463 196.675 375.697 196.377 375.874C196.078 376.051 195.742 376.14 195.369 376.14ZM195.369 375.146C195.649 375.146 195.877 375.057 196.055 374.88C196.232 374.693 196.321 374.455 196.321 374.166C196.321 373.886 196.227 373.657 196.041 373.48C195.863 373.293 195.639 373.2 195.369 373.2C195.098 373.2 194.874 373.293 194.697 373.48C194.519 373.657 194.431 373.886 194.431 374.166C194.431 374.455 194.519 374.693 194.697 374.88C194.874 375.057 195.098 375.146 195.369 375.146ZM191.463 370.078C191.108 370.078 190.781 369.989 190.483 369.812C190.184 369.635 189.946 369.397 189.769 369.098C189.591 368.799 189.503 368.468 189.503 368.104C189.503 367.731 189.587 367.399 189.755 367.11C189.932 366.821 190.17 366.587 190.469 366.41C190.767 366.233 191.099 366.144 191.463 366.144C191.836 366.144 192.172 366.233 192.471 366.41C192.769 366.587 193.007 366.821 193.185 367.11C193.362 367.399 193.451 367.731 193.451 368.104C193.451 368.468 193.362 368.799 193.185 369.098C193.007 369.397 192.769 369.635 192.471 369.812C192.181 369.989 191.845 370.078 191.463 370.078ZM191.463 369.084C191.743 369.084 191.971 368.995 192.149 368.818C192.326 368.631 192.415 368.393 192.415 368.104C192.415 367.815 192.321 367.581 192.135 367.404C191.957 367.227 191.733 367.138 191.463 367.138C191.192 367.138 190.968 367.227 190.791 367.404C190.623 367.581 190.539 367.815 190.539 368.104C190.539 368.393 190.623 368.631 190.791 368.818C190.968 368.995 191.192 369.084 191.463 369.084Z" fill="#919AA3"/>
<rect x="228" y="366" width="10" height="10" fill="#FFB264"/>
<path d="M249.148 376V366.284H250.464V376H249.148ZM250.044 376V374.796H255.252V376H250.044ZM259.19 376.14C258.583 376.14 258.032 375.991 257.538 375.692C257.043 375.384 256.651 374.969 256.361 374.446C256.082 373.923 255.942 373.335 255.942 372.682C255.942 372.029 256.082 371.441 256.361 370.918C256.651 370.395 257.038 369.98 257.524 369.672C258.018 369.364 258.574 369.21 259.19 369.21C259.694 369.21 260.142 369.317 260.534 369.532C260.935 369.737 261.257 370.027 261.5 370.4C261.742 370.764 261.878 371.189 261.906 371.674V373.676C261.878 374.152 261.742 374.577 261.5 374.95C261.266 375.323 260.949 375.617 260.548 375.832C260.156 376.037 259.703 376.14 259.19 376.14ZM259.4 374.95C260.025 374.95 260.529 374.74 260.912 374.32C261.294 373.891 261.486 373.345 261.486 372.682C261.486 372.225 261.397 371.828 261.22 371.492C261.052 371.147 260.809 370.881 260.492 370.694C260.174 370.498 259.806 370.4 259.386 370.4C258.966 370.4 258.592 370.498 258.266 370.694C257.948 370.89 257.696 371.161 257.51 371.506C257.332 371.842 257.244 372.229 257.244 372.668C257.244 373.116 257.332 373.513 257.51 373.858C257.696 374.194 257.953 374.46 258.28 374.656C258.606 374.852 258.98 374.95 259.4 374.95ZM261.402 376V374.208L261.64 372.584L261.402 370.974V369.35H262.676V376H261.402ZM265.505 376V366.564H266.765V376H265.505ZM263.867 370.498V369.35H268.403V370.498H263.867ZM272.512 376.14C271.849 376.14 271.252 375.991 270.72 375.692C270.188 375.384 269.768 374.969 269.46 374.446C269.152 373.923 268.998 373.331 268.998 372.668C268.998 372.015 269.147 371.427 269.446 370.904C269.754 370.381 270.164 369.971 270.678 369.672C271.2 369.364 271.784 369.21 272.428 369.21C273.044 369.21 273.585 369.35 274.052 369.63C274.528 369.91 274.896 370.297 275.158 370.792C275.428 371.287 275.564 371.847 275.564 372.472C275.564 372.565 275.559 372.668 275.55 372.78C275.54 372.883 275.522 373.004 275.494 373.144H269.88V372.094H274.822L274.36 372.5C274.36 372.052 274.28 371.674 274.122 371.366C273.963 371.049 273.739 370.806 273.45 370.638C273.16 370.461 272.81 370.372 272.4 370.372C271.97 370.372 271.592 370.465 271.266 370.652C270.939 370.839 270.687 371.1 270.51 371.436C270.332 371.772 270.244 372.169 270.244 372.626C270.244 373.093 270.337 373.503 270.524 373.858C270.71 374.203 270.976 374.474 271.322 374.67C271.667 374.857 272.064 374.95 272.512 374.95C272.885 374.95 273.226 374.885 273.534 374.754C273.851 374.623 274.122 374.427 274.346 374.166L275.158 374.992C274.84 375.365 274.448 375.65 273.982 375.846C273.524 376.042 273.034 376.14 272.512 376.14ZM282.398 376.14C281.735 376.14 281.142 376.023 280.62 375.79C280.106 375.547 279.672 375.197 279.318 374.74L280.214 373.844C280.428 374.171 280.722 374.432 281.096 374.628C281.478 374.815 281.903 374.908 282.37 374.908C282.808 374.908 283.191 374.824 283.518 374.656C283.854 374.488 284.115 374.255 284.302 373.956C284.498 373.648 284.596 373.284 284.596 372.864C284.596 372.435 284.502 372.071 284.316 371.772C284.129 371.473 283.877 371.249 283.56 371.1C283.252 370.941 282.911 370.862 282.538 370.862C282.155 370.862 281.805 370.909 281.488 371.002C281.18 371.095 280.886 371.254 280.606 371.478L280.62 370.638C280.778 370.442 280.96 370.283 281.166 370.162C281.371 370.041 281.604 369.947 281.866 369.882C282.127 369.817 282.43 369.784 282.776 369.784C283.448 369.784 284.017 369.924 284.484 370.204C284.95 370.484 285.305 370.862 285.548 371.338C285.8 371.814 285.926 372.346 285.926 372.934C285.926 373.55 285.772 374.101 285.464 374.586C285.165 375.071 284.75 375.454 284.218 375.734C283.686 376.005 283.079 376.14 282.398 376.14ZM280.606 371.478L279.892 370.764L280.326 366.284H281.53L281.04 370.89L280.606 371.478ZM280.592 367.46L280.326 366.284H285.436V367.46H280.592ZM287.368 376L293.598 366.284H294.872L288.642 376H287.368ZM293.066 376.14C292.702 376.14 292.371 376.051 292.072 375.874C291.773 375.697 291.535 375.463 291.358 375.174C291.181 374.875 291.092 374.539 291.092 374.166C291.092 373.802 291.181 373.475 291.358 373.186C291.535 372.887 291.773 372.649 292.072 372.472C292.371 372.295 292.702 372.206 293.066 372.206C293.43 372.206 293.761 372.295 294.06 372.472C294.368 372.649 294.611 372.887 294.788 373.186C294.965 373.475 295.054 373.802 295.054 374.166C295.054 374.539 294.965 374.875 294.788 375.174C294.611 375.463 294.373 375.697 294.074 375.874C293.775 376.051 293.439 376.14 293.066 376.14ZM293.066 375.146C293.346 375.146 293.575 375.057 293.752 374.88C293.929 374.693 294.018 374.455 294.018 374.166C294.018 373.886 293.925 373.657 293.738 373.48C293.561 373.293 293.337 373.2 293.066 373.2C292.795 373.2 292.571 373.293 292.394 373.48C292.217 373.657 292.128 373.886 292.128 374.166C292.128 374.455 292.217 374.693 292.394 374.88C292.571 375.057 292.795 375.146 293.066 375.146ZM289.16 370.078C288.805 370.078 288.479 369.989 288.18 369.812C287.881 369.635 287.643 369.397 287.466 369.098C287.289 368.799 287.2 368.468 287.2 368.104C287.2 367.731 287.284 367.399 287.452 367.11C287.629 366.821 287.867 366.587 288.166 366.41C288.465 366.233 288.796 366.144 289.16 366.144C289.533 366.144 289.869 366.233 290.168 366.41C290.467 366.587 290.705 366.821 290.882 367.11C291.059 367.399 291.148 367.731 291.148 368.104C291.148 368.468 291.059 368.799 290.882 369.098C290.705 369.397 290.467 369.635 290.168 369.812C289.879 369.989 289.543 370.078 289.16 370.078ZM289.16 369.084C289.44 369.084 289.669 368.995 289.846 368.818C290.023 368.631 290.112 368.393 290.112 368.104C290.112 367.815 290.019 367.581 289.832 367.404C289.655 367.227 289.431 367.138 289.16 367.138C288.889 367.138 288.665 367.227 288.488 367.404C288.32 367.581 288.236 367.815 288.236 368.104C288.236 368.393 288.32 368.631 288.488 368.818C288.665 368.995 288.889 369.084 289.16 369.084Z" fill="#919AA3"/>
<rect x="326" y="366" width="10" height="10" fill="#E74C3C"/>
<path d="M346.434 376L350.41 366.284H351.362L355.324 376H353.896L350.634 367.782H351.124L347.834 376H346.434ZM348.324 373.802V372.654H353.434V373.802H348.324ZM360.172 376.14C359.668 376.14 359.211 376.037 358.8 375.832C358.399 375.617 358.077 375.323 357.834 374.95C357.591 374.577 357.456 374.152 357.428 373.676V371.674C357.456 371.189 357.591 370.764 357.834 370.4C358.086 370.027 358.413 369.737 358.814 369.532C359.225 369.317 359.677 369.21 360.172 369.21C360.779 369.21 361.325 369.364 361.81 369.672C362.305 369.98 362.692 370.395 362.972 370.918C363.252 371.441 363.392 372.029 363.392 372.682C363.392 373.335 363.252 373.923 362.972 374.446C362.692 374.969 362.305 375.384 361.81 375.692C361.325 375.991 360.779 376.14 360.172 376.14ZM356.672 376V366.004H357.932V370.974L357.694 372.584L357.932 374.208V376H356.672ZM359.962 374.95C360.382 374.95 360.751 374.852 361.068 374.656C361.385 374.46 361.637 374.194 361.824 373.858C362.011 373.513 362.104 373.116 362.104 372.668C362.104 372.229 362.011 371.837 361.824 371.492C361.637 371.147 361.385 370.881 361.068 370.694C360.751 370.498 360.387 370.4 359.976 370.4C359.556 370.4 359.187 370.498 358.87 370.694C358.553 370.881 358.305 371.147 358.128 371.492C357.951 371.837 357.862 372.234 357.862 372.682C357.862 373.121 357.946 373.513 358.114 373.858C358.291 374.194 358.539 374.46 358.856 374.656C359.183 374.852 359.551 374.95 359.962 374.95ZM366.934 376.14C366.561 376.14 366.206 376.093 365.87 376C365.544 375.897 365.24 375.757 364.96 375.58C364.68 375.393 364.438 375.174 364.232 374.922L365.044 374.11C365.287 374.409 365.567 374.633 365.884 374.782C366.202 374.922 366.556 374.992 366.948 374.992C367.34 374.992 367.644 374.927 367.858 374.796C368.073 374.656 368.18 374.465 368.18 374.222C368.18 373.979 368.092 373.793 367.914 373.662C367.746 373.522 367.527 373.41 367.256 373.326C366.986 373.233 366.696 373.144 366.388 373.06C366.09 372.967 365.805 372.85 365.534 372.71C365.264 372.57 365.04 372.379 364.862 372.136C364.694 371.893 364.61 371.571 364.61 371.17C364.61 370.769 364.708 370.423 364.904 370.134C365.1 369.835 365.371 369.607 365.716 369.448C366.071 369.289 366.496 369.21 366.99 369.21C367.513 369.21 367.975 369.303 368.376 369.49C368.787 369.667 369.123 369.938 369.384 370.302L368.572 371.114C368.386 370.871 368.152 370.685 367.872 370.554C367.602 370.423 367.294 370.358 366.948 370.358C366.584 370.358 366.304 370.423 366.108 370.554C365.922 370.675 365.828 370.848 365.828 371.072C365.828 371.296 365.912 371.469 366.08 371.59C366.248 371.711 366.468 371.814 366.738 371.898C367.018 371.982 367.308 372.071 367.606 372.164C367.905 372.248 368.19 372.365 368.46 372.514C368.731 372.663 368.95 372.864 369.118 373.116C369.296 373.368 369.384 373.699 369.384 374.11C369.384 374.735 369.16 375.23 368.712 375.594C368.274 375.958 367.681 376.14 366.934 376.14ZM373.875 376.14C373.212 376.14 372.615 375.991 372.083 375.692C371.551 375.384 371.131 374.969 370.823 374.446C370.515 373.923 370.361 373.331 370.361 372.668C370.361 372.015 370.51 371.427 370.809 370.904C371.117 370.381 371.528 369.971 372.041 369.672C372.564 369.364 373.147 369.21 373.791 369.21C374.407 369.21 374.948 369.35 375.415 369.63C375.891 369.91 376.26 370.297 376.521 370.792C376.792 371.287 376.927 371.847 376.927 372.472C376.927 372.565 376.922 372.668 376.913 372.78C376.904 372.883 376.885 373.004 376.857 373.144H371.243V372.094H376.185L375.723 372.5C375.723 372.052 375.644 371.674 375.485 371.366C375.326 371.049 375.102 370.806 374.813 370.638C374.524 370.461 374.174 370.372 373.763 370.372C373.334 370.372 372.956 370.465 372.629 370.652C372.302 370.839 372.05 371.1 371.873 371.436C371.696 371.772 371.607 372.169 371.607 372.626C371.607 373.093 371.7 373.503 371.887 373.858C372.074 374.203 372.34 374.474 372.685 374.67C373.03 374.857 373.427 374.95 373.875 374.95C374.248 374.95 374.589 374.885 374.897 374.754C375.214 374.623 375.485 374.427 375.709 374.166L376.521 374.992C376.204 375.365 375.812 375.65 375.345 375.846C374.888 376.042 374.398 376.14 373.875 376.14ZM383.005 376V372.122C383.005 371.618 382.846 371.203 382.529 370.876C382.212 370.549 381.801 370.386 381.297 370.386C380.961 370.386 380.662 370.461 380.401 370.61C380.14 370.759 379.934 370.965 379.785 371.226C379.636 371.487 379.561 371.786 379.561 372.122L379.043 371.828C379.043 371.324 379.155 370.876 379.379 370.484C379.603 370.092 379.916 369.784 380.317 369.56C380.718 369.327 381.171 369.21 381.675 369.21C382.179 369.21 382.622 369.336 383.005 369.588C383.397 369.84 383.705 370.171 383.929 370.582C384.153 370.983 384.265 371.413 384.265 371.87V376H383.005ZM378.301 376V369.35H379.561V376H378.301ZM386.911 376V366.564H388.171V376H386.911ZM385.273 370.498V369.35H389.809V370.498H385.273ZM395.453 376V366.284H396.755V376H395.453ZM393.465 367.46V366.284H396.615V367.46H393.465ZM402.505 376.14C401.777 376.14 401.109 375.935 400.503 375.524C399.905 375.113 399.429 374.535 399.075 373.788C398.72 373.032 398.543 372.145 398.543 371.128C398.543 370.111 398.715 369.229 399.061 368.482C399.415 367.735 399.891 367.161 400.489 366.76C401.086 366.349 401.744 366.144 402.463 366.144C403.2 366.144 403.867 366.349 404.465 366.76C405.062 367.161 405.533 367.735 405.879 368.482C406.233 369.229 406.411 370.115 406.411 371.142C406.411 372.159 406.233 373.046 405.879 373.802C405.533 374.549 405.062 375.127 404.465 375.538C403.877 375.939 403.223 376.14 402.505 376.14ZM402.477 374.894C402.99 374.894 403.438 374.754 403.821 374.474C404.213 374.185 404.521 373.76 404.745 373.2C404.969 372.64 405.081 371.949 405.081 371.128C405.081 370.307 404.969 369.621 404.745 369.07C404.521 368.51 404.213 368.09 403.821 367.81C403.429 367.521 402.976 367.376 402.463 367.376C401.959 367.376 401.511 367.521 401.119 367.81C400.727 368.09 400.419 368.51 400.195 369.07C399.98 369.621 399.873 370.307 399.873 371.128C399.873 371.949 399.98 372.64 400.195 373.2C400.419 373.76 400.727 374.185 401.119 374.474C401.511 374.754 401.963 374.894 402.477 374.894ZM407.94 376L414.17 366.284H415.444L409.214 376H407.94ZM413.638 376.14C413.274 376.14 412.943 376.051 412.644 375.874C412.346 375.697 412.108 375.463 411.93 375.174C411.753 374.875 411.664 374.539 411.664 374.166C411.664 373.802 411.753 373.475 411.93 373.186C412.108 372.887 412.346 372.649 412.644 372.472C412.943 372.295 413.274 372.206 413.638 372.206C414.002 372.206 414.334 372.295 414.632 372.472C414.94 372.649 415.183 372.887 415.36 373.186C415.538 373.475 415.626 373.802 415.626 374.166C415.626 374.539 415.538 374.875 415.36 375.174C415.183 375.463 414.945 375.697 414.646 375.874C414.348 376.051 414.012 376.14 413.638 376.14ZM413.638 375.146C413.918 375.146 414.147 375.057 414.324 374.88C414.502 374.693 414.59 374.455 414.59 374.166C414.59 373.886 414.497 373.657 414.31 373.48C414.133 373.293 413.909 373.2 413.638 373.2C413.368 373.2 413.144 373.293 412.966 373.48C412.789 373.657 412.7 373.886 412.7 374.166C412.7 374.455 412.789 374.693 412.966 374.88C413.144 375.057 413.368 375.146 413.638 375.146ZM409.732 370.078C409.378 370.078 409.051 369.989 408.752 369.812C408.454 369.635 408.216 369.397 408.038 369.098C407.861 368.799 407.772 368.468 407.772 368.104C407.772 367.731 407.856 367.399 408.024 367.11C408.202 366.821 408.44 366.587 408.738 366.41C409.037 366.233 409.368 366.144 409.732 366.144C410.106 366.144 410.442 366.233 410.74 366.41C411.039 366.587 411.277 366.821 411.454 367.11C411.632 367.399 411.72 367.731 411.72 368.104C411.72 368.468 411.632 368.799 411.454 369.098C411.277 369.397 411.039 369.635 410.74 369.812C410.451 369.989 410.115 370.078 409.732 370.078ZM409.732 369.084C410.012 369.084 410.241 368.995 410.418 368.818C410.596 368.631 410.684 368.393 410.684 368.104C410.684 367.815 410.591 367.581 410.404 367.404C410.227 367.227 410.003 367.138 409.732 367.138C409.462 367.138 409.238 367.227 409.06 367.404C408.892 367.581 408.808 367.815 408.808 368.104C408.808 368.393 408.892 368.631 409.06 368.818C409.238 368.995 409.462 369.084 409.732 369.084Z" fill="#919AA3"/>
<path d="M227.051 68.8048C227.051 68.1055 227.191 67.4134 227.464 66.7695C227.737 66.1257 228.137 65.5434 228.639 65.0572C229.142 64.5709 229.737 64.1908 230.39 63.9393C231.042 63.6878 231.738 63.5701 232.437 63.5932C260.113 64.5086 287.098 72.4616 310.847 86.7014C334.596 100.941 354.324 120.998 368.169 144.979C382.014 168.96 389.52 196.073 389.978 223.76C390.436 251.447 383.83 278.794 370.785 303.219C370.456 303.836 370.006 304.38 369.462 304.819C368.918 305.259 368.291 305.584 367.618 305.776C366.946 305.968 366.242 306.023 365.548 305.938C364.854 305.852 364.184 305.628 363.579 305.278L259.477 245.175C258.387 244.546 257.562 243.544 257.153 242.354C256.744 241.164 256.779 239.866 257.252 238.7C259.115 234.106 259.905 229.147 259.563 224.201C259.22 219.255 257.753 214.452 255.274 210.159C252.795 205.865 249.37 202.194 245.258 199.424C241.146 196.654 236.456 194.859 231.546 194.175C230.299 194.002 229.158 193.383 228.332 192.434C227.506 191.485 227.051 190.269 227.051 189.011V68.8048Z" fill="#2ECC71"/>
<path d="M322.494 281.558C323.105 281.911 323.638 282.384 324.061 282.949C324.483 283.513 324.787 284.158 324.954 284.844C325.12 285.529 325.146 286.241 325.029 286.937C324.912 287.633 324.655 288.298 324.274 288.891C313.814 305.179 299.43 318.578 282.442 327.857C265.454 337.137 246.408 342 227.05 342C207.693 342 188.647 337.137 171.659 327.857C154.671 318.578 140.287 305.179 129.827 288.891C129.446 288.298 129.189 287.633 129.072 286.937C128.955 286.241 128.981 285.529 129.147 284.844C129.314 284.158 129.617 283.513 130.04 282.949C130.463 282.384 130.996 281.911 131.607 281.558L194.624 245.175C195.714 244.546 196.994 244.332 198.229 244.573C199.464 244.814 200.571 245.493 201.344 246.486C204.392 250.396 208.291 253.56 212.746 255.736C217.2 257.912 222.093 259.044 227.05 259.044C232.008 259.044 236.901 257.912 241.355 255.736C245.81 253.56 249.709 250.396 252.757 246.486C253.53 245.493 254.637 244.814 255.872 244.573C257.107 244.332 258.387 244.546 259.477 245.175L322.494 281.558Z" fill="#FFB264"/>
<path d="M183.047 251.859C182.415 252.224 181.714 252.452 180.988 252.529C180.263 252.605 179.529 252.529 178.835 252.304C178.141 252.08 177.501 251.712 176.958 251.225C176.415 250.737 175.98 250.142 175.682 249.476C172.039 241.348 170.377 232.472 170.832 223.577C171.288 214.682 173.847 206.021 178.3 198.308C182.754 190.594 188.974 184.048 196.45 179.206C203.925 174.364 212.443 171.365 221.304 170.456C222.03 170.382 222.763 170.46 223.456 170.687C224.15 170.914 224.788 171.284 225.33 171.773C225.872 172.261 226.305 172.859 226.601 173.525C226.897 174.192 227.05 174.914 227.05 175.643V189.011C227.05 190.269 226.595 191.485 225.769 192.434C224.943 193.383 223.802 194.002 222.555 194.175C217.645 194.859 212.955 196.654 208.843 199.424C204.731 202.194 201.306 205.865 198.827 210.159C196.348 214.452 194.881 219.255 194.538 224.201C194.196 229.147 194.986 234.106 196.849 238.7C197.322 239.866 197.357 241.164 196.948 242.354C196.539 243.544 195.714 244.546 194.624 245.175L183.047 251.859Z" fill="#E74C3C"/>
<g filter="url(#filter0_d_90_1047)">
<rect x="305" y="175" width="85" height="25" rx="3" fill="white" shape-rendering="crispEdges"/>
<path d="M316.74 188.76V187.776H319.008C319.32 187.776 319.596 187.712 319.836 187.584C320.084 187.456 320.276 187.276 320.412 187.044C320.556 186.812 320.628 186.536 320.628 186.216C320.628 185.896 320.556 185.62 320.412 185.388C320.276 185.156 320.084 184.976 319.836 184.848C319.596 184.72 319.32 184.656 319.008 184.656H316.74V183.672H319.08C319.592 183.672 320.048 183.776 320.448 183.984C320.856 184.192 321.176 184.488 321.408 184.872C321.648 185.248 321.768 185.696 321.768 186.216C321.768 186.728 321.648 187.176 321.408 187.56C321.176 187.936 320.856 188.232 320.448 188.448C320.048 188.656 319.592 188.76 319.08 188.76H316.74ZM315.984 192V183.672H317.112V192H315.984ZM323.069 192V186.3H324.149V192H323.069ZM324.149 188.748L323.741 188.568C323.741 187.84 323.909 187.26 324.245 186.828C324.581 186.396 325.065 186.18 325.697 186.18C325.985 186.18 326.245 186.232 326.477 186.336C326.709 186.432 326.925 186.596 327.125 186.828L326.417 187.56C326.297 187.432 326.165 187.34 326.021 187.284C325.877 187.228 325.709 187.2 325.517 187.2C325.117 187.2 324.789 187.328 324.533 187.584C324.277 187.84 324.149 188.228 324.149 188.748ZM330.338 192.12C329.77 192.12 329.258 191.992 328.802 191.736C328.346 191.472 327.986 191.116 327.722 190.668C327.458 190.22 327.326 189.712 327.326 189.144C327.326 188.584 327.454 188.08 327.71 187.632C327.974 187.184 328.326 186.832 328.766 186.576C329.214 186.312 329.714 186.18 330.266 186.18C330.794 186.18 331.258 186.3 331.658 186.54C332.066 186.78 332.382 187.112 332.606 187.536C332.838 187.96 332.954 188.44 332.954 188.976C332.954 189.056 332.95 189.144 332.942 189.24C332.934 189.328 332.918 189.432 332.894 189.552H328.082V188.652H332.318L331.922 189C331.922 188.616 331.854 188.292 331.718 188.028C331.582 187.756 331.39 187.548 331.142 187.404C330.894 187.252 330.594 187.176 330.242 187.176C329.874 187.176 329.55 187.256 329.27 187.416C328.99 187.576 328.774 187.8 328.622 188.088C328.47 188.376 328.394 188.716 328.394 189.108C328.394 189.508 328.474 189.86 328.634 190.164C328.794 190.46 329.022 190.692 329.318 190.86C329.614 191.02 329.954 191.1 330.338 191.1C330.658 191.1 330.95 191.044 331.214 190.932C331.486 190.82 331.718 190.652 331.91 190.428L332.606 191.136C332.334 191.456 331.998 191.7 331.598 191.868C331.206 192.036 330.786 192.12 330.338 192.12ZM335.944 192.12C335.624 192.12 335.32 192.08 335.032 192C334.752 191.912 334.492 191.792 334.252 191.64C334.012 191.48 333.804 191.292 333.628 191.076L334.324 190.38C334.532 190.636 334.772 190.828 335.044 190.956C335.316 191.076 335.62 191.136 335.956 191.136C336.292 191.136 336.552 191.08 336.736 190.968C336.92 190.848 337.012 190.684 337.012 190.476C337.012 190.268 336.936 190.108 336.784 189.996C336.64 189.876 336.452 189.78 336.22 189.708C335.988 189.628 335.74 189.552 335.476 189.48C335.22 189.4 334.976 189.3 334.744 189.18C334.512 189.06 334.32 188.896 334.168 188.688C334.024 188.48 333.952 188.204 333.952 187.86C333.952 187.516 334.036 187.22 334.204 186.972C334.372 186.716 334.604 186.52 334.9 186.384C335.204 186.248 335.568 186.18 335.992 186.18C336.44 186.18 336.836 186.26 337.18 186.42C337.532 186.572 337.82 186.804 338.044 187.116L337.348 187.812C337.188 187.604 336.988 187.444 336.748 187.332C336.516 187.22 336.252 187.164 335.956 187.164C335.644 187.164 335.404 187.22 335.236 187.332C335.076 187.436 334.996 187.584 334.996 187.776C334.996 187.968 335.068 188.116 335.212 188.22C335.356 188.324 335.544 188.412 335.776 188.484C336.016 188.556 336.264 188.632 336.52 188.712C336.776 188.784 337.02 188.884 337.252 189.012C337.484 189.14 337.672 189.312 337.816 189.528C337.968 189.744 338.044 190.028 338.044 190.38C338.044 190.916 337.852 191.34 337.468 191.652C337.092 191.964 336.584 192.12 335.944 192.12ZM341.893 192.12C341.325 192.12 340.813 191.992 340.357 191.736C339.901 191.472 339.541 191.116 339.277 190.668C339.013 190.22 338.881 189.712 338.881 189.144C338.881 188.584 339.009 188.08 339.265 187.632C339.529 187.184 339.881 186.832 340.321 186.576C340.769 186.312 341.269 186.18 341.821 186.18C342.349 186.18 342.813 186.3 343.213 186.54C343.621 186.78 343.937 187.112 344.161 187.536C344.393 187.96 344.509 188.44 344.509 188.976C344.509 189.056 344.505 189.144 344.497 189.24C344.489 189.328 344.473 189.432 344.449 189.552H339.637V188.652H343.873L343.477 189C343.477 188.616 343.409 188.292 343.273 188.028C343.137 187.756 342.945 187.548 342.697 187.404C342.449 187.252 342.149 187.176 341.797 187.176C341.429 187.176 341.105 187.256 340.825 187.416C340.545 187.576 340.329 187.8 340.177 188.088C340.025 188.376 339.949 188.716 339.949 189.108C339.949 189.508 340.029 189.86 340.189 190.164C340.349 190.46 340.577 190.692 340.873 190.86C341.169 191.02 341.509 191.1 341.893 191.1C342.213 191.1 342.505 191.044 342.769 190.932C343.041 190.82 343.273 190.652 343.465 190.428L344.161 191.136C343.889 191.456 343.553 191.7 343.153 191.868C342.761 192.036 342.341 192.12 341.893 192.12ZM349.719 192V188.676C349.719 188.244 349.583 187.888 349.311 187.608C349.039 187.328 348.687 187.188 348.255 187.188C347.967 187.188 347.711 187.252 347.487 187.38C347.263 187.508 347.087 187.684 346.959 187.908C346.831 188.132 346.767 188.388 346.767 188.676L346.323 188.424C346.323 187.992 346.419 187.608 346.611 187.272C346.803 186.936 347.071 186.672 347.415 186.48C347.759 186.28 348.147 186.18 348.579 186.18C349.011 186.18 349.391 186.288 349.719 186.504C350.055 186.72 350.319 187.004 350.511 187.356C350.703 187.7 350.799 188.068 350.799 188.46V192H349.719ZM345.687 192V186.3H346.767V192H345.687ZM353.066 192V183.912H354.146V192H353.066ZM351.662 187.284V186.3H355.55V187.284H351.662ZM361.613 192.12C361.061 192.12 360.573 192.016 360.149 191.808C359.733 191.6 359.409 191.312 359.177 190.944C358.945 190.576 358.829 190.16 358.829 189.696C358.829 189.32 358.901 188.976 359.045 188.664C359.189 188.352 359.401 188.088 359.681 187.872C359.961 187.648 360.289 187.488 360.665 187.392L360.701 187.716C360.381 187.628 360.109 187.488 359.885 187.296C359.661 187.096 359.489 186.864 359.369 186.6C359.257 186.328 359.201 186.04 359.201 185.736C359.201 185.304 359.305 184.924 359.513 184.596C359.721 184.268 360.005 184.012 360.365 183.828C360.733 183.636 361.149 183.54 361.613 183.54C362.085 183.54 362.501 183.636 362.861 183.828C363.221 184.012 363.505 184.268 363.713 184.596C363.921 184.924 364.025 185.304 364.025 185.736C364.025 186.04 363.965 186.328 363.845 186.6C363.733 186.864 363.565 187.096 363.341 187.296C363.125 187.488 362.857 187.628 362.537 187.716L362.561 187.392C362.945 187.488 363.273 187.648 363.545 187.872C363.825 188.088 364.037 188.352 364.181 188.664C364.333 188.976 364.409 189.32 364.409 189.696C364.409 190.16 364.293 190.576 364.061 190.944C363.829 191.312 363.501 191.6 363.077 191.808C362.661 192.016 362.173 192.12 361.613 192.12ZM361.613 191.1C361.949 191.1 362.241 191.036 362.489 190.908C362.745 190.772 362.945 190.588 363.089 190.356C363.241 190.124 363.317 189.856 363.317 189.552C363.317 189.256 363.241 188.992 363.089 188.76C362.945 188.528 362.745 188.348 362.489 188.22C362.241 188.084 361.949 188.016 361.613 188.016C361.285 188.016 360.993 188.084 360.737 188.22C360.481 188.348 360.277 188.528 360.125 188.76C359.981 188.992 359.909 189.256 359.909 189.552C359.909 189.856 359.981 190.124 360.125 190.356C360.277 190.588 360.481 190.772 360.737 190.908C360.993 191.036 361.285 191.1 361.613 191.1ZM361.613 187.14C362.013 187.14 362.341 187.016 362.597 186.768C362.853 186.52 362.981 186.2 362.981 185.808C362.981 185.424 362.853 185.112 362.597 184.872C362.341 184.624 362.013 184.5 361.613 184.5C361.221 184.5 360.897 184.624 360.641 184.872C360.385 185.112 360.257 185.424 360.257 185.808C360.257 186.2 360.385 186.52 360.641 186.768C360.897 187.016 361.221 187.14 361.613 187.14ZM367.886 192.12C367.318 192.12 366.81 192.02 366.362 191.82C365.922 191.612 365.55 191.312 365.246 190.92L366.014 190.152C366.198 190.432 366.45 190.656 366.77 190.824C367.098 190.984 367.462 191.064 367.862 191.064C368.238 191.064 368.566 190.992 368.846 190.848C369.134 190.704 369.358 190.504 369.518 190.248C369.686 189.984 369.77 189.672 369.77 189.312C369.77 188.944 369.69 188.632 369.53 188.376C369.37 188.12 369.154 187.928 368.882 187.8C368.618 187.664 368.326 187.596 368.006 187.596C367.678 187.596 367.378 187.636 367.106 187.716C366.842 187.796 366.59 187.932 366.35 188.124L366.362 187.404C366.498 187.236 366.654 187.1 366.83 186.996C367.006 186.892 367.206 186.812 367.43 186.756C367.654 186.7 367.914 186.672 368.21 186.672C368.786 186.672 369.274 186.792 369.674 187.032C370.074 187.272 370.378 187.596 370.586 188.004C370.802 188.412 370.91 188.868 370.91 189.372C370.91 189.9 370.778 190.372 370.514 190.788C370.258 191.204 369.902 191.532 369.446 191.772C368.99 192.004 368.47 192.12 367.886 192.12ZM366.35 188.124L365.738 187.512L366.11 183.672H367.142L366.722 187.62L366.35 188.124ZM366.338 184.68L366.11 183.672H370.49V184.68H366.338ZM372.146 192L377.486 183.672H378.578L373.238 192H372.146ZM377.03 192.12C376.718 192.12 376.434 192.044 376.178 191.892C375.922 191.74 375.718 191.54 375.566 191.292C375.414 191.036 375.338 190.748 375.338 190.428C375.338 190.116 375.414 189.836 375.566 189.588C375.718 189.332 375.922 189.128 376.178 188.976C376.434 188.824 376.718 188.748 377.03 188.748C377.342 188.748 377.626 188.824 377.882 188.976C378.146 189.128 378.354 189.332 378.506 189.588C378.658 189.836 378.734 190.116 378.734 190.428C378.734 190.748 378.658 191.036 378.506 191.292C378.354 191.54 378.15 191.74 377.894 191.892C377.638 192.044 377.35 192.12 377.03 192.12ZM377.03 191.268C377.27 191.268 377.466 191.192 377.618 191.04C377.77 190.88 377.846 190.676 377.846 190.428C377.846 190.188 377.766 189.992 377.606 189.84C377.454 189.68 377.262 189.6 377.03 189.6C376.798 189.6 376.606 189.68 376.454 189.84C376.302 189.992 376.226 190.188 376.226 190.428C376.226 190.676 376.302 190.88 376.454 191.04C376.606 191.192 376.798 191.268 377.03 191.268ZM373.682 186.924C373.378 186.924 373.098 186.848 372.842 186.696C372.586 186.544 372.382 186.34 372.23 186.084C372.078 185.828 372.002 185.544 372.002 185.232C372.002 184.912 372.074 184.628 372.218 184.38C372.37 184.132 372.574 183.932 372.83 183.78C373.086 183.628 373.37 183.552 373.682 183.552C374.002 183.552 374.29 183.628 374.546 183.78C374.802 183.932 375.006 184.132 375.158 184.38C375.31 184.628 375.386 184.912 375.386 185.232C375.386 185.544 375.31 185.828 375.158 186.084C375.006 186.34 374.802 186.544 374.546 186.696C374.298 186.848 374.01 186.924 373.682 186.924ZM373.682 186.072C373.922 186.072 374.118 185.996 374.27 185.844C374.422 185.684 374.498 185.48 374.498 185.232C374.498 184.984 374.418 184.784 374.258 184.632C374.106 184.48 373.914 184.404 373.682 184.404C373.45 184.404 373.258 184.48 373.106 184.632C372.962 184.784 372.89 184.984 372.89 185.232C372.89 185.48 372.962 185.684 373.106 185.844C373.258 185.996 373.45 186.072 373.682 186.072Z" fill="#475569"/>
</g>
<defs>
<filter id="filter0_d_90_1047" x="281" y="151" width="133" height="73" filterUnits="userSpaceOnUse" color-interpolation-filters="sRGB">
<feFlood flood-opacity="0" result="BackgroundImageFix"/>
<feColorMatrix in="SourceAlpha" type="matrix" values="0 0 0 0 0 0 0 0 0 0 0 0 0 0 0 0 0 0 127 0" result="hardAlpha"/>
<feOffset/>
<feGaussianBlur stdDeviation="12"/>
<feComposite in2="hardAlpha" operator="out"/>
<feColorMatrix type="matrix" values="0 0 0 0 0.278431 0 0 0 0 0.333333 0 0 0 0 0.411765 0 0 0 0.1 0"/>
<feBlend mode="normal" in2="BackgroundImageFix" result="effect1_dropShadow_90_1047"/>
<feBlend mode="normal" in="SourceGraphic" in2="effect1_dropShadow_90_1047" result="shape"/>
</filter>
<clipPath id="clip0_90_1047">
<rect width="30" height="30" fill="white" transform="translate(471 15)"/>
</clipPath>
</defs>
</svg>
