<svg width="520" height="400" viewBox="0 0 520 400" fill="none" xmlns="http://www.w3.org/2000/svg">
<rect width="520" height="400" rx="10" fill="white"/>
<path d="M28.536 37V24.76H30.606V37H28.536ZM24.432 26.29V24.4H34.71V26.29H24.432ZM38.0241 37.18C37.1601 37.18 36.3801 36.988 35.6841 36.604C35.0001 36.208 34.4541 35.668 34.0461 34.984C33.6501 34.3 33.4521 33.532 33.4521 32.68C33.4521 31.828 33.6501 31.066 34.0461 30.394C34.4421 29.71 34.9761 29.17 35.6481 28.774C36.3321 28.378 37.0881 28.18 37.9161 28.18C38.7201 28.18 39.4281 28.366 40.0401 28.738C40.6641 29.11 41.1501 29.62 41.4981 30.268C41.8581 30.916 42.0381 31.654 42.0381 32.482C42.0381 32.626 42.0261 32.776 42.0021 32.932C41.9901 33.076 41.9661 33.238 41.9301 33.418H34.8381V31.798H40.9041L40.1661 32.446C40.1421 31.918 40.0401 31.474 39.8601 31.114C39.6801 30.754 39.4221 30.478 39.0861 30.286C38.7621 30.094 38.3601 29.998 37.8801 29.998C37.3761 29.998 36.9381 30.106 36.5661 30.322C36.1941 30.538 35.9061 30.844 35.7021 31.24C35.4981 31.624 35.3961 32.086 35.3961 32.626C35.3961 33.166 35.5041 33.64 35.7201 34.048C35.9361 34.456 36.2421 34.774 36.6381 35.002C37.0341 35.218 37.4901 35.326 38.0061 35.326C38.4501 35.326 38.8581 35.248 39.2301 35.092C39.6141 34.936 39.9381 34.708 40.2021 34.408L41.4621 35.686C41.0421 36.178 40.5321 36.55 39.9321 36.802C39.3321 37.054 38.6961 37.18 38.0241 37.18ZM47.2433 37.18C46.4633 37.18 45.7553 36.982 45.1193 36.586C44.4953 36.19 43.9973 35.656 43.6253 34.984C43.2653 34.3 43.0853 33.538 43.0853 32.698C43.0853 31.846 43.2653 31.084 43.6253 30.412C43.9973 29.728 44.4953 29.188 45.1193 28.792C45.7553 28.384 46.4633 28.18 47.2433 28.18C47.9033 28.18 48.4853 28.324 48.9893 28.612C49.5053 28.888 49.9133 29.272 50.2133 29.764C50.5133 30.256 50.6633 30.814 50.6633 31.438V33.922C50.6633 34.546 50.5133 35.104 50.2133 35.596C49.9253 36.088 49.5233 36.478 49.0073 36.766C48.4913 37.042 47.9033 37.18 47.2433 37.18ZM47.5673 35.308C48.2993 35.308 48.8873 35.062 49.3313 34.57C49.7873 34.078 50.0153 33.448 50.0153 32.68C50.0153 32.164 49.9133 31.708 49.7093 31.312C49.5053 30.916 49.2173 30.61 48.8453 30.394C48.4853 30.166 48.0593 30.052 47.5673 30.052C47.0873 30.052 46.6613 30.166 46.2893 30.394C45.9293 30.61 45.6413 30.916 45.4253 31.312C45.2213 31.708 45.1193 32.164 45.1193 32.68C45.1193 33.196 45.2213 33.652 45.4253 34.048C45.6413 34.444 45.9293 34.756 46.2893 34.984C46.6613 35.2 47.0873 35.308 47.5673 35.308ZM49.8893 37V34.678L50.2313 32.572L49.8893 30.484V28.36H51.8693V37H49.8893ZM58.0448 37.18C57.1928 37.18 56.4188 36.982 55.7228 36.586C55.0388 36.19 54.4988 35.65 54.1028 34.966C53.7068 34.282 53.5088 33.52 53.5088 32.68C53.5088 31.828 53.7068 31.066 54.1028 30.394C54.4988 29.71 55.0388 29.17 55.7228 28.774C56.4188 28.378 57.1928 28.18 58.0448 28.18C58.7168 28.18 59.3408 28.312 59.9168 28.576C60.5048 28.828 61.0028 29.194 61.4108 29.674L60.1148 30.988C59.8628 30.688 59.5568 30.466 59.1968 30.322C58.8488 30.166 58.4648 30.088 58.0448 30.088C57.5528 30.088 57.1148 30.202 56.7308 30.43C56.3588 30.646 56.0648 30.946 55.8488 31.33C55.6448 31.714 55.5428 32.164 55.5428 32.68C55.5428 33.184 55.6448 33.634 55.8488 34.03C56.0648 34.414 56.3588 34.72 56.7308 34.948C57.1148 35.164 57.5528 35.272 58.0448 35.272C58.4648 35.272 58.8488 35.2 59.1968 35.056C59.5568 34.9 59.8628 34.672 60.1148 34.372L61.4108 35.686C61.0028 36.166 60.5048 36.538 59.9168 36.802C59.3408 37.054 58.7168 37.18 58.0448 37.18ZM68.7602 37V32.014C68.7602 31.438 68.5742 30.964 68.2022 30.592C67.8422 30.22 67.3742 30.034 66.7982 30.034C66.4142 30.034 66.0722 30.118 65.7722 30.286C65.4722 30.454 65.2382 30.688 65.0702 30.988C64.9022 31.288 64.8182 31.63 64.8182 32.014L64.0442 31.582C64.0442 30.922 64.1882 30.34 64.4762 29.836C64.7642 29.32 65.1602 28.918 65.6642 28.63C66.1802 28.33 66.7562 28.18 67.3922 28.18C68.0402 28.18 68.6162 28.324 69.1202 28.612C69.6242 28.9 70.0202 29.302 70.3082 29.818C70.5962 30.322 70.7402 30.91 70.7402 31.582V37H68.7602ZM62.8382 37V24.04H64.8182V37H62.8382ZM76.7663 37.18C75.9023 37.18 75.1223 36.988 74.4263 36.604C73.7423 36.208 73.1963 35.668 72.7883 34.984C72.3923 34.3 72.1943 33.532 72.1943 32.68C72.1943 31.828 72.3923 31.066 72.7883 30.394C73.1843 29.71 73.7183 29.17 74.3903 28.774C75.0743 28.378 75.8303 28.18 76.6583 28.18C77.4623 28.18 78.1703 28.366 78.7823 28.738C79.4063 29.11 79.8923 29.62 80.2403 30.268C80.6003 30.916 80.7803 31.654 80.7803 32.482C80.7803 32.626 80.7683 32.776 80.7443 32.932C80.7323 33.076 80.7083 33.238 80.6723 33.418H73.5803V31.798H79.6463L78.9083 32.446C78.8843 31.918 78.7823 31.474 78.6023 31.114C78.4223 30.754 78.1643 30.478 77.8283 30.286C77.5043 30.094 77.1023 29.998 76.6223 29.998C76.1183 29.998 75.6803 30.106 75.3083 30.322C74.9363 30.538 74.6483 30.844 74.4443 31.24C74.2403 31.624 74.1383 32.086 74.1383 32.626C74.1383 33.166 74.2463 33.64 74.4623 34.048C74.6783 34.456 74.9843 34.774 75.3803 35.002C75.7763 35.218 76.2323 35.326 76.7483 35.326C77.1923 35.326 77.6003 35.248 77.9723 35.092C78.3563 34.936 78.6803 34.708 78.9443 34.408L80.2043 35.686C79.7843 36.178 79.2743 36.55 78.6743 36.802C78.0743 37.054 77.4383 37.18 76.7663 37.18ZM82.3675 37V28.36H84.3475V37H82.3675ZM84.3475 32.194L83.6635 31.852C83.6635 30.76 83.9035 29.878 84.3835 29.206C84.8755 28.522 85.6135 28.18 86.5975 28.18C87.0295 28.18 87.4195 28.258 87.7675 28.414C88.1155 28.57 88.4395 28.822 88.7395 29.17L87.4435 30.502C87.2875 30.334 87.1135 30.214 86.9215 30.142C86.7295 30.07 86.5075 30.034 86.2555 30.034C85.7035 30.034 85.2475 30.208 84.8875 30.556C84.5275 30.904 84.3475 31.45 84.3475 32.194ZM92.3303 37.18C91.8503 37.18 91.3883 37.12 90.9443 37C90.5003 36.868 90.0923 36.688 89.7203 36.46C89.3483 36.22 89.0243 35.932 88.7483 35.596L90.0083 34.336C90.3083 34.684 90.6503 34.948 91.0343 35.128C91.4303 35.296 91.8743 35.38 92.3663 35.38C92.8103 35.38 93.1463 35.314 93.3743 35.182C93.6023 35.05 93.7163 34.858 93.7163 34.606C93.7163 34.342 93.6083 34.138 93.3923 33.994C93.1763 33.85 92.8943 33.73 92.5463 33.634C92.2103 33.526 91.8503 33.418 91.4663 33.31C91.0943 33.202 90.7343 33.058 90.3863 32.878C90.0503 32.686 89.7743 32.428 89.5583 32.104C89.3423 31.78 89.2343 31.36 89.2343 30.844C89.2343 30.292 89.3603 29.818 89.6123 29.422C89.8763 29.026 90.2423 28.72 90.7103 28.504C91.1903 28.288 91.7603 28.18 92.4203 28.18C93.1163 28.18 93.7283 28.306 94.2563 28.558C94.7963 28.798 95.2463 29.164 95.6063 29.656L94.3463 30.916C94.0943 30.604 93.8063 30.37 93.4823 30.214C93.1583 30.058 92.7863 29.98 92.3663 29.98C91.9703 29.98 91.6643 30.04 91.4483 30.16C91.2323 30.28 91.1243 30.454 91.1243 30.682C91.1243 30.922 91.2323 31.108 91.4483 31.24C91.6643 31.372 91.9403 31.486 92.2763 31.582C92.6243 31.678 92.9843 31.786 93.3563 31.906C93.7403 32.014 94.1003 32.17 94.4363 32.374C94.7843 32.566 95.0663 32.83 95.2823 33.166C95.4983 33.49 95.6063 33.916 95.6063 34.444C95.6063 35.284 95.3123 35.95 94.7243 36.442C94.1363 36.934 93.3383 37.18 92.3303 37.18ZM99.6664 37L104.85 24.4H106.29L111.438 37H109.206L105.174 26.794H105.93L101.862 37H99.6664ZM102.222 34.57V32.77H108.9V34.57H102.222ZM114.285 37V24.76H116.265V37H114.285ZM112.215 30.16V28.36H123.555V30.16H112.215ZM119.505 37V24.76H121.485V37H119.505ZM128.762 37.18C127.898 37.18 127.118 36.988 126.422 36.604C125.738 36.208 125.192 35.668 124.784 34.984C124.388 34.3 124.19 33.532 124.19 32.68C124.19 31.828 124.388 31.066 124.784 30.394C125.18 29.71 125.714 29.17 126.386 28.774C127.07 28.378 127.826 28.18 128.654 28.18C129.458 28.18 130.166 28.366 130.778 28.738C131.402 29.11 131.888 29.62 132.236 30.268C132.596 30.916 132.776 31.654 132.776 32.482C132.776 32.626 132.764 32.776 132.74 32.932C132.728 33.076 132.704 33.238 132.668 33.418H125.576V31.798H131.642L130.904 32.446C130.88 31.918 130.778 31.474 130.598 31.114C130.418 30.754 130.16 30.478 129.824 30.286C129.5 30.094 129.098 29.998 128.618 29.998C128.114 29.998 127.676 30.106 127.304 30.322C126.932 30.538 126.644 30.844 126.44 31.24C126.236 31.624 126.134 32.086 126.134 32.626C126.134 33.166 126.242 33.64 126.458 34.048C126.674 34.456 126.98 34.774 127.376 35.002C127.772 35.218 128.228 35.326 128.744 35.326C129.188 35.326 129.596 35.248 129.968 35.092C130.352 34.936 130.676 34.708 130.94 34.408L132.2 35.686C131.78 36.178 131.27 36.55 130.67 36.802C130.07 37.054 129.434 37.18 128.762 37.18ZM140.286 37V32.014C140.286 31.438 140.1 30.964 139.728 30.592C139.368 30.22 138.9 30.034 138.324 30.034C137.94 30.034 137.598 30.118 137.298 30.286C136.998 30.454 136.764 30.688 136.596 30.988C136.428 31.288 136.344 31.63 136.344 32.014L135.57 31.582C135.57 30.922 135.714 30.34 136.002 29.836C136.29 29.32 136.686 28.918 137.19 28.63C137.706 28.33 138.282 28.18 138.918 28.18C139.566 28.18 140.142 28.348 140.646 28.684C141.15 29.008 141.546 29.434 141.834 29.962C142.122 30.478 142.266 31.018 142.266 31.582V37H140.286ZM134.364 37V28.36H136.344V37H134.364ZM147.896 37.18C147.116 37.18 146.408 36.982 145.772 36.586C145.148 36.19 144.65 35.656 144.278 34.984C143.918 34.3 143.738 33.538 143.738 32.698C143.738 31.846 143.918 31.084 144.278 30.412C144.65 29.728 145.148 29.188 145.772 28.792C146.408 28.384 147.116 28.18 147.896 28.18C148.556 28.18 149.138 28.324 149.642 28.612C150.158 28.888 150.566 29.272 150.866 29.764C151.166 30.256 151.316 30.814 151.316 31.438V33.922C151.316 34.546 151.166 35.104 150.866 35.596C150.578 36.088 150.176 36.478 149.66 36.766C149.144 37.042 148.556 37.18 147.896 37.18ZM148.22 35.308C148.712 35.308 149.138 35.2 149.498 34.984C149.87 34.756 150.158 34.444 150.362 34.048C150.566 33.652 150.668 33.196 150.668 32.68C150.668 32.164 150.566 31.708 150.362 31.312C150.158 30.916 149.87 30.61 149.498 30.394C149.138 30.166 148.712 30.052 148.22 30.052C147.74 30.052 147.314 30.166 146.942 30.394C146.582 30.61 146.294 30.916 146.078 31.312C145.874 31.708 145.772 32.164 145.772 32.68C145.772 33.196 145.874 33.652 146.078 34.048C146.294 34.444 146.582 34.756 146.942 34.984C147.314 35.2 147.74 35.308 148.22 35.308ZM152.522 37H150.542V34.678L150.884 32.572L150.542 30.484V24.04H152.522V37ZM158.337 37.18C157.557 37.18 156.849 36.982 156.213 36.586C155.589 36.19 155.091 35.656 154.719 34.984C154.359 34.3 154.179 33.538 154.179 32.698C154.179 31.846 154.359 31.084 154.719 30.412C155.091 29.728 155.589 29.188 156.213 28.792C156.849 28.384 157.557 28.18 158.337 28.18C158.997 28.18 159.579 28.324 160.083 28.612C160.599 28.888 161.007 29.272 161.307 29.764C161.607 30.256 161.757 30.814 161.757 31.438V33.922C161.757 34.546 161.607 35.104 161.307 35.596C161.019 36.088 160.617 36.478 160.101 36.766C159.585 37.042 158.997 37.18 158.337 37.18ZM158.661 35.308C159.393 35.308 159.981 35.062 160.425 34.57C160.881 34.078 161.109 33.448 161.109 32.68C161.109 32.164 161.007 31.708 160.803 31.312C160.599 30.916 160.311 30.61 159.939 30.394C159.579 30.166 159.153 30.052 158.661 30.052C158.181 30.052 157.755 30.166 157.383 30.394C157.023 30.61 156.735 30.916 156.519 31.312C156.315 31.708 156.213 32.164 156.213 32.68C156.213 33.196 156.315 33.652 156.519 34.048C156.735 34.444 157.023 34.756 157.383 34.984C157.755 35.2 158.181 35.308 158.661 35.308ZM160.983 37V34.678L161.325 32.572L160.983 30.484V28.36H162.963V37H160.983ZM171.083 37V32.014C171.083 31.438 170.897 30.964 170.525 30.592C170.165 30.22 169.697 30.034 169.121 30.034C168.737 30.034 168.395 30.118 168.095 30.286C167.795 30.454 167.561 30.688 167.393 30.988C167.225 31.288 167.141 31.63 167.141 32.014L166.367 31.582C166.367 30.922 166.511 30.34 166.799 29.836C167.087 29.32 167.483 28.918 167.987 28.63C168.503 28.33 169.079 28.18 169.715 28.18C170.363 28.18 170.939 28.348 171.443 28.684C171.947 29.008 172.343 29.434 172.631 29.962C172.919 30.478 173.062 31.018 173.062 31.582V37H171.083ZM165.161 37V28.36H167.141V37H165.161ZM179.053 37.18C178.201 37.18 177.427 36.982 176.731 36.586C176.047 36.19 175.507 35.65 175.111 34.966C174.715 34.282 174.517 33.52 174.517 32.68C174.517 31.828 174.715 31.066 175.111 30.394C175.507 29.71 176.047 29.17 176.731 28.774C177.427 28.378 178.201 28.18 179.053 28.18C179.725 28.18 180.349 28.312 180.925 28.576C181.513 28.828 182.011 29.194 182.419 29.674L181.123 30.988C180.871 30.688 180.565 30.466 180.205 30.322C179.857 30.166 179.473 30.088 179.053 30.088C178.561 30.088 178.123 30.202 177.739 30.43C177.367 30.646 177.073 30.946 176.857 31.33C176.653 31.714 176.551 32.164 176.551 32.68C176.551 33.184 176.653 33.634 176.857 34.03C177.073 34.414 177.367 34.72 177.739 34.948C178.123 35.164 178.561 35.272 179.053 35.272C179.473 35.272 179.857 35.2 180.205 35.056C180.565 34.9 180.871 34.672 181.123 34.372L182.419 35.686C182.011 36.166 181.513 36.538 180.925 36.802C180.349 37.054 179.725 37.18 179.053 37.18ZM187.684 37.18C186.82 37.18 186.04 36.988 185.344 36.604C184.66 36.208 184.114 35.668 183.706 34.984C183.31 34.3 183.112 33.532 183.112 32.68C183.112 31.828 183.31 31.066 183.706 30.394C184.102 29.71 184.636 29.17 185.308 28.774C185.992 28.378 186.748 28.18 187.576 28.18C188.38 28.18 189.088 28.366 189.7 28.738C190.324 29.11 190.81 29.62 191.158 30.268C191.518 30.916 191.698 31.654 191.698 32.482C191.698 32.626 191.686 32.776 191.662 32.932C191.65 33.076 191.626 33.238 191.59 33.418H184.498V31.798H190.564L189.826 32.446C189.802 31.918 189.7 31.474 189.52 31.114C189.34 30.754 189.082 30.478 188.746 30.286C188.422 30.094 188.02 29.998 187.54 29.998C187.036 29.998 186.598 30.106 186.226 30.322C185.854 30.538 185.566 30.844 185.362 31.24C185.158 31.624 185.056 32.086 185.056 32.626C185.056 33.166 185.164 33.64 185.38 34.048C185.596 34.456 185.902 34.774 186.298 35.002C186.694 35.218 187.15 35.326 187.666 35.326C188.11 35.326 188.518 35.248 188.89 35.092C189.274 34.936 189.598 34.708 189.862 34.408L191.122 35.686C190.702 36.178 190.192 36.55 189.592 36.802C188.992 37.054 188.356 37.18 187.684 37.18Z" fill="#475569"/>
<g clip-path="url(#clip0_90_1140)">
<path d="M478.5 27.5C477.125 27.5 476 28.625 476 30C476 31.375 477.125 32.5 478.5 32.5C479.875 32.5 481 31.375 481 30C481 28.625 479.875 27.5 478.5 27.5ZM493.5 27.5C492.125 27.5 491 28.625 491 30C491 31.375 492.125 32.5 493.5 32.5C494.875 32.5 496 31.375 496 30C496 28.625 494.875 27.5 493.5 27.5ZM486 27.5C484.625 27.5 483.5 28.625 483.5 30C483.5 31.375 484.625 32.5 486 32.5C487.375 32.5 488.5 31.375 488.5 30C488.5 28.625 487.375 27.5 486 27.5Z" fill="#919AA3"/>
</g>
<rect x="107" y="366" width="10" height="10" fill="#2ECC71"/>
<path d="M129.03 372.22V371.072H131.676C132.04 371.072 132.362 370.997 132.642 370.848C132.931 370.699 133.155 370.489 133.314 370.218C133.482 369.947 133.566 369.625 133.566 369.252C133.566 368.879 133.482 368.557 133.314 368.286C133.155 368.015 132.931 367.805 132.642 367.656C132.362 367.507 132.04 367.432 131.676 367.432H129.03V366.284H131.76C132.357 366.284 132.889 366.405 133.356 366.648C133.832 366.891 134.205 367.236 134.476 367.684C134.756 368.123 134.896 368.645 134.896 369.252C134.896 369.849 134.756 370.372 134.476 370.82C134.205 371.259 133.832 371.604 133.356 371.856C132.889 372.099 132.357 372.22 131.76 372.22H129.03ZM128.148 376V366.284H129.464V376H128.148ZM136.414 376V369.35H137.674V376H136.414ZM137.674 372.206L137.198 371.996C137.198 371.147 137.394 370.47 137.786 369.966C138.178 369.462 138.743 369.21 139.48 369.21C139.816 369.21 140.12 369.271 140.39 369.392C140.661 369.504 140.913 369.695 141.146 369.966L140.32 370.82C140.18 370.671 140.026 370.563 139.858 370.498C139.69 370.433 139.494 370.4 139.27 370.4C138.804 370.4 138.421 370.549 138.122 370.848C137.824 371.147 137.674 371.599 137.674 372.206ZM144.895 376.14C144.232 376.14 143.635 375.991 143.103 375.692C142.571 375.384 142.151 374.969 141.843 374.446C141.535 373.923 141.381 373.331 141.381 372.668C141.381 372.015 141.53 371.427 141.829 370.904C142.137 370.381 142.547 369.971 143.061 369.672C143.583 369.364 144.167 369.21 144.811 369.21C145.427 369.21 145.968 369.35 146.435 369.63C146.911 369.91 147.279 370.297 147.541 370.792C147.811 371.287 147.947 371.847 147.947 372.472C147.947 372.565 147.942 372.668 147.933 372.78C147.923 372.883 147.905 373.004 147.877 373.144H142.263V372.094H147.205L146.743 372.5C146.743 372.052 146.663 371.674 146.505 371.366C146.346 371.049 146.122 370.806 145.833 370.638C145.543 370.461 145.193 370.372 144.783 370.372C144.353 370.372 143.975 370.465 143.649 370.652C143.322 370.839 143.07 371.1 142.893 371.436C142.715 371.772 142.627 372.169 142.627 372.626C142.627 373.093 142.72 373.503 142.907 373.858C143.093 374.203 143.359 374.474 143.705 374.67C144.05 374.857 144.447 374.95 144.895 374.95C145.268 374.95 145.609 374.885 145.917 374.754C146.234 374.623 146.505 374.427 146.729 374.166L147.541 374.992C147.223 375.365 146.831 375.65 146.365 375.846C145.907 376.042 145.417 376.14 144.895 376.14ZM151.434 376.14C151.061 376.14 150.706 376.093 150.37 376C150.044 375.897 149.74 375.757 149.46 375.58C149.18 375.393 148.938 375.174 148.732 374.922L149.544 374.11C149.787 374.409 150.067 374.633 150.384 374.782C150.702 374.922 151.056 374.992 151.448 374.992C151.84 374.992 152.144 374.927 152.358 374.796C152.573 374.656 152.68 374.465 152.68 374.222C152.68 373.979 152.592 373.793 152.414 373.662C152.246 373.522 152.027 373.41 151.756 373.326C151.486 373.233 151.196 373.144 150.888 373.06C150.59 372.967 150.305 372.85 150.034 372.71C149.764 372.57 149.54 372.379 149.362 372.136C149.194 371.893 149.11 371.571 149.11 371.17C149.11 370.769 149.208 370.423 149.404 370.134C149.6 369.835 149.871 369.607 150.216 369.448C150.571 369.289 150.996 369.21 151.49 369.21C152.013 369.21 152.475 369.303 152.876 369.49C153.287 369.667 153.623 369.938 153.884 370.302L153.072 371.114C152.886 370.871 152.652 370.685 152.372 370.554C152.102 370.423 151.794 370.358 151.448 370.358C151.084 370.358 150.804 370.423 150.608 370.554C150.422 370.675 150.328 370.848 150.328 371.072C150.328 371.296 150.412 371.469 150.58 371.59C150.748 371.711 150.968 371.814 151.238 371.898C151.518 371.982 151.808 372.071 152.106 372.164C152.405 372.248 152.69 372.365 152.96 372.514C153.231 372.663 153.45 372.864 153.618 373.116C153.796 373.368 153.884 373.699 153.884 374.11C153.884 374.735 153.66 375.23 153.212 375.594C152.774 375.958 152.181 376.14 151.434 376.14ZM158.375 376.14C157.712 376.14 157.115 375.991 156.583 375.692C156.051 375.384 155.631 374.969 155.323 374.446C155.015 373.923 154.861 373.331 154.861 372.668C154.861 372.015 155.01 371.427 155.309 370.904C155.617 370.381 156.028 369.971 156.541 369.672C157.064 369.364 157.647 369.21 158.291 369.21C158.907 369.21 159.448 369.35 159.915 369.63C160.391 369.91 160.76 370.297 161.021 370.792C161.292 371.287 161.427 371.847 161.427 372.472C161.427 372.565 161.422 372.668 161.413 372.78C161.404 372.883 161.385 373.004 161.357 373.144H155.743V372.094H160.685L160.223 372.5C160.223 372.052 160.144 371.674 159.985 371.366C159.826 371.049 159.602 370.806 159.313 370.638C159.024 370.461 158.674 370.372 158.263 370.372C157.834 370.372 157.456 370.465 157.129 370.652C156.802 370.839 156.55 371.1 156.373 371.436C156.196 371.772 156.107 372.169 156.107 372.626C156.107 373.093 156.2 373.503 156.387 373.858C156.574 374.203 156.84 374.474 157.185 374.67C157.53 374.857 157.927 374.95 158.375 374.95C158.748 374.95 159.089 374.885 159.397 374.754C159.714 374.623 159.985 374.427 160.209 374.166L161.021 374.992C160.704 375.365 160.312 375.65 159.845 375.846C159.388 376.042 158.898 376.14 158.375 376.14ZM167.505 376V372.122C167.505 371.618 167.346 371.203 167.029 370.876C166.712 370.549 166.301 370.386 165.797 370.386C165.461 370.386 165.162 370.461 164.901 370.61C164.64 370.759 164.434 370.965 164.285 371.226C164.136 371.487 164.061 371.786 164.061 372.122L163.543 371.828C163.543 371.324 163.655 370.876 163.879 370.484C164.103 370.092 164.416 369.784 164.817 369.56C165.218 369.327 165.671 369.21 166.175 369.21C166.679 369.21 167.122 369.336 167.505 369.588C167.897 369.84 168.205 370.171 168.429 370.582C168.653 370.983 168.765 371.413 168.765 371.87V376H167.505ZM162.801 376V369.35H164.061V376H162.801ZM171.411 376V366.564H172.671V376H171.411ZM169.773 370.498V369.35H174.309V370.498H169.773ZM179.589 376L182.515 372.01L182.991 371.758C182.879 371.945 182.744 372.108 182.585 372.248C182.427 372.388 182.231 372.495 181.997 372.57C181.773 372.645 181.498 372.682 181.171 372.682C180.611 372.682 180.093 372.547 179.617 372.276C179.151 372.005 178.777 371.632 178.497 371.156C178.217 370.671 178.077 370.125 178.077 369.518C178.077 368.893 178.231 368.328 178.539 367.824C178.847 367.311 179.258 366.905 179.771 366.606C180.285 366.298 180.854 366.144 181.479 366.144C182.114 366.144 182.688 366.293 183.201 366.592C183.715 366.891 184.121 367.292 184.419 367.796C184.718 368.291 184.867 368.851 184.867 369.476C184.867 370.335 184.569 371.189 183.971 372.038L181.115 376H179.589ZM181.479 371.646C181.871 371.646 182.221 371.553 182.529 371.366C182.847 371.17 183.094 370.913 183.271 370.596C183.458 370.269 183.551 369.91 183.551 369.518C183.551 369.107 183.458 368.743 183.271 368.426C183.094 368.099 182.847 367.843 182.529 367.656C182.221 367.469 181.871 367.376 181.479 367.376C181.087 367.376 180.733 367.469 180.415 367.656C180.107 367.843 179.86 368.099 179.673 368.426C179.487 368.743 179.393 369.107 179.393 369.518C179.393 369.919 179.487 370.279 179.673 370.596C179.86 370.913 180.112 371.17 180.429 371.366C180.747 371.553 181.097 371.646 181.479 371.646ZM190.054 376.14C189.326 376.14 188.658 375.935 188.052 375.524C187.454 375.113 186.978 374.535 186.624 373.788C186.269 373.032 186.092 372.145 186.092 371.128C186.092 370.111 186.264 369.229 186.61 368.482C186.964 367.735 187.44 367.161 188.038 366.76C188.635 366.349 189.293 366.144 190.012 366.144C190.749 366.144 191.416 366.349 192.014 366.76C192.611 367.161 193.082 367.735 193.428 368.482C193.782 369.229 193.96 370.115 193.96 371.142C193.96 372.159 193.782 373.046 193.428 373.802C193.082 374.549 192.611 375.127 192.014 375.538C191.426 375.939 190.772 376.14 190.054 376.14ZM190.026 374.894C190.539 374.894 190.987 374.754 191.37 374.474C191.762 374.185 192.07 373.76 192.294 373.2C192.518 372.64 192.63 371.949 192.63 371.128C192.63 370.307 192.518 369.621 192.294 369.07C192.07 368.51 191.762 368.09 191.37 367.81C190.978 367.521 190.525 367.376 190.012 367.376C189.508 367.376 189.06 367.521 188.668 367.81C188.276 368.09 187.968 368.51 187.744 369.07C187.529 369.621 187.422 370.307 187.422 371.128C187.422 371.949 187.529 372.64 187.744 373.2C187.968 373.76 188.276 374.185 188.668 374.474C189.06 374.754 189.512 374.894 190.026 374.894ZM195.489 376L201.719 366.284H202.993L196.763 376H195.489ZM201.187 376.14C200.823 376.14 200.492 376.051 200.193 375.874C199.894 375.697 199.656 375.463 199.479 375.174C199.302 374.875 199.213 374.539 199.213 374.166C199.213 373.802 199.302 373.475 199.479 373.186C199.656 372.887 199.894 372.649 200.193 372.472C200.492 372.295 200.823 372.206 201.187 372.206C201.551 372.206 201.882 372.295 202.181 372.472C202.489 372.649 202.732 372.887 202.909 373.186C203.086 373.475 203.175 373.802 203.175 374.166C203.175 374.539 203.086 374.875 202.909 375.174C202.732 375.463 202.494 375.697 202.195 375.874C201.896 376.051 201.56 376.14 201.187 376.14ZM201.187 375.146C201.467 375.146 201.696 375.057 201.873 374.88C202.05 374.693 202.139 374.455 202.139 374.166C202.139 373.886 202.046 373.657 201.859 373.48C201.682 373.293 201.458 373.2 201.187 373.2C200.916 373.2 200.692 373.293 200.515 373.48C200.338 373.657 200.249 373.886 200.249 374.166C200.249 374.455 200.338 374.693 200.515 374.88C200.692 375.057 200.916 375.146 201.187 375.146ZM197.281 370.078C196.926 370.078 196.6 369.989 196.301 369.812C196.002 369.635 195.764 369.397 195.587 369.098C195.41 368.799 195.321 368.468 195.321 368.104C195.321 367.731 195.405 367.399 195.573 367.11C195.75 366.821 195.988 366.587 196.287 366.41C196.586 366.233 196.917 366.144 197.281 366.144C197.654 366.144 197.99 366.233 198.289 366.41C198.588 366.587 198.826 366.821 199.003 367.11C199.18 367.399 199.269 367.731 199.269 368.104C199.269 368.468 199.18 368.799 199.003 369.098C198.826 369.397 198.588 369.635 198.289 369.812C198 369.989 197.664 370.078 197.281 370.078ZM197.281 369.084C197.561 369.084 197.79 368.995 197.967 368.818C198.144 368.631 198.233 368.393 198.233 368.104C198.233 367.815 198.14 367.581 197.953 367.404C197.776 367.227 197.552 367.138 197.281 367.138C197.01 367.138 196.786 367.227 196.609 367.404C196.441 367.581 196.357 367.815 196.357 368.104C196.357 368.393 196.441 368.631 196.609 368.818C196.786 368.995 197.01 369.084 197.281 369.084Z" fill="#919AA3"/>
<rect x="232" y="366" width="10" height="10" fill="#FFB264"/>
<path d="M253.148 376V366.284H254.464V376H253.148ZM254.044 376V374.796H259.252V376H254.044ZM263.19 376.14C262.583 376.14 262.032 375.991 261.538 375.692C261.043 375.384 260.651 374.969 260.361 374.446C260.082 373.923 259.942 373.335 259.942 372.682C259.942 372.029 260.082 371.441 260.361 370.918C260.651 370.395 261.038 369.98 261.524 369.672C262.018 369.364 262.574 369.21 263.19 369.21C263.694 369.21 264.142 369.317 264.534 369.532C264.935 369.737 265.257 370.027 265.5 370.4C265.742 370.764 265.878 371.189 265.906 371.674V373.676C265.878 374.152 265.742 374.577 265.5 374.95C265.266 375.323 264.949 375.617 264.548 375.832C264.156 376.037 263.703 376.14 263.19 376.14ZM263.4 374.95C264.025 374.95 264.529 374.74 264.912 374.32C265.294 373.891 265.486 373.345 265.486 372.682C265.486 372.225 265.397 371.828 265.22 371.492C265.052 371.147 264.809 370.881 264.492 370.694C264.174 370.498 263.806 370.4 263.386 370.4C262.966 370.4 262.592 370.498 262.266 370.694C261.948 370.89 261.696 371.161 261.51 371.506C261.332 371.842 261.244 372.229 261.244 372.668C261.244 373.116 261.332 373.513 261.51 373.858C261.696 374.194 261.953 374.46 262.28 374.656C262.606 374.852 262.98 374.95 263.4 374.95ZM265.402 376V374.208L265.64 372.584L265.402 370.974V369.35H266.676V376H265.402ZM269.505 376V366.564H270.765V376H269.505ZM267.867 370.498V369.35H272.403V370.498H267.867ZM276.512 376.14C275.849 376.14 275.252 375.991 274.72 375.692C274.188 375.384 273.768 374.969 273.46 374.446C273.152 373.923 272.998 373.331 272.998 372.668C272.998 372.015 273.147 371.427 273.446 370.904C273.754 370.381 274.164 369.971 274.678 369.672C275.2 369.364 275.784 369.21 276.428 369.21C277.044 369.21 277.585 369.35 278.052 369.63C278.528 369.91 278.896 370.297 279.158 370.792C279.428 371.287 279.564 371.847 279.564 372.472C279.564 372.565 279.559 372.668 279.55 372.78C279.54 372.883 279.522 373.004 279.494 373.144H273.88V372.094H278.822L278.36 372.5C278.36 372.052 278.28 371.674 278.122 371.366C277.963 371.049 277.739 370.806 277.45 370.638C277.16 370.461 276.81 370.372 276.4 370.372C275.97 370.372 275.592 370.465 275.266 370.652C274.939 370.839 274.687 371.1 274.51 371.436C274.332 371.772 274.244 372.169 274.244 372.626C274.244 373.093 274.337 373.503 274.524 373.858C274.71 374.203 274.976 374.474 275.322 374.67C275.667 374.857 276.064 374.95 276.512 374.95C276.885 374.95 277.226 374.885 277.534 374.754C277.851 374.623 278.122 374.427 278.346 374.166L279.158 374.992C278.84 375.365 278.448 375.65 277.982 375.846C277.524 376.042 277.034 376.14 276.512 376.14ZM284.886 376L288.526 367.054L289.828 367.096L286.272 376H284.886ZM283.36 367.46V366.284H289.828V367.096L289.254 367.46H283.36ZM291.149 376L297.379 366.284H298.653L292.423 376H291.149ZM296.847 376.14C296.483 376.14 296.152 376.051 295.853 375.874C295.555 375.697 295.317 375.463 295.139 375.174C294.962 374.875 294.873 374.539 294.873 374.166C294.873 373.802 294.962 373.475 295.139 373.186C295.317 372.887 295.555 372.649 295.853 372.472C296.152 372.295 296.483 372.206 296.847 372.206C297.211 372.206 297.543 372.295 297.841 372.472C298.149 372.649 298.392 372.887 298.569 373.186C298.747 373.475 298.835 373.802 298.835 374.166C298.835 374.539 298.747 374.875 298.569 375.174C298.392 375.463 298.154 375.697 297.855 375.874C297.557 376.051 297.221 376.14 296.847 376.14ZM296.847 375.146C297.127 375.146 297.356 375.057 297.533 374.88C297.711 374.693 297.799 374.455 297.799 374.166C297.799 373.886 297.706 373.657 297.519 373.48C297.342 373.293 297.118 373.2 296.847 373.2C296.577 373.2 296.353 373.293 296.175 373.48C295.998 373.657 295.909 373.886 295.909 374.166C295.909 374.455 295.998 374.693 296.175 374.88C296.353 375.057 296.577 375.146 296.847 375.146ZM292.941 370.078C292.587 370.078 292.26 369.989 291.961 369.812C291.663 369.635 291.425 369.397 291.247 369.098C291.07 368.799 290.981 368.468 290.981 368.104C290.981 367.731 291.065 367.399 291.233 367.11C291.411 366.821 291.649 366.587 291.947 366.41C292.246 366.233 292.577 366.144 292.941 366.144C293.315 366.144 293.651 366.233 293.949 366.41C294.248 366.587 294.486 366.821 294.663 367.11C294.841 367.399 294.929 367.731 294.929 368.104C294.929 368.468 294.841 368.799 294.663 369.098C294.486 369.397 294.248 369.635 293.949 369.812C293.66 369.989 293.324 370.078 292.941 370.078ZM292.941 369.084C293.221 369.084 293.45 368.995 293.627 368.818C293.805 368.631 293.893 368.393 293.893 368.104C293.893 367.815 293.8 367.581 293.613 367.404C293.436 367.227 293.212 367.138 292.941 367.138C292.671 367.138 292.447 367.227 292.269 367.404C292.101 367.581 292.017 367.815 292.017 368.104C292.017 368.393 292.101 368.631 292.269 368.818C292.447 368.995 292.671 369.084 292.941 369.084Z" fill="#919AA3"/>
<rect x="330" y="366" width="10" height="10" fill="#E74C3C"/>
<path d="M350.434 376L354.41 366.284H355.362L359.324 376H357.896L354.634 367.782H355.124L351.834 376H350.434ZM352.324 373.802V372.654H357.434V373.802H352.324ZM364.172 376.14C363.668 376.14 363.211 376.037 362.8 375.832C362.399 375.617 362.077 375.323 361.834 374.95C361.591 374.577 361.456 374.152 361.428 373.676V371.674C361.456 371.189 361.591 370.764 361.834 370.4C362.086 370.027 362.413 369.737 362.814 369.532C363.225 369.317 363.677 369.21 364.172 369.21C364.779 369.21 365.325 369.364 365.81 369.672C366.305 369.98 366.692 370.395 366.972 370.918C367.252 371.441 367.392 372.029 367.392 372.682C367.392 373.335 367.252 373.923 366.972 374.446C366.692 374.969 366.305 375.384 365.81 375.692C365.325 375.991 364.779 376.14 364.172 376.14ZM360.672 376V366.004H361.932V370.974L361.694 372.584L361.932 374.208V376H360.672ZM363.962 374.95C364.382 374.95 364.751 374.852 365.068 374.656C365.385 374.46 365.637 374.194 365.824 373.858C366.011 373.513 366.104 373.116 366.104 372.668C366.104 372.229 366.011 371.837 365.824 371.492C365.637 371.147 365.385 370.881 365.068 370.694C364.751 370.498 364.387 370.4 363.976 370.4C363.556 370.4 363.187 370.498 362.87 370.694C362.553 370.881 362.305 371.147 362.128 371.492C361.951 371.837 361.862 372.234 361.862 372.682C361.862 373.121 361.946 373.513 362.114 373.858C362.291 374.194 362.539 374.46 362.856 374.656C363.183 374.852 363.551 374.95 363.962 374.95ZM370.934 376.14C370.561 376.14 370.206 376.093 369.87 376C369.544 375.897 369.24 375.757 368.96 375.58C368.68 375.393 368.438 375.174 368.232 374.922L369.044 374.11C369.287 374.409 369.567 374.633 369.884 374.782C370.202 374.922 370.556 374.992 370.948 374.992C371.34 374.992 371.644 374.927 371.858 374.796C372.073 374.656 372.18 374.465 372.18 374.222C372.18 373.979 372.092 373.793 371.914 373.662C371.746 373.522 371.527 373.41 371.256 373.326C370.986 373.233 370.696 373.144 370.388 373.06C370.09 372.967 369.805 372.85 369.534 372.71C369.264 372.57 369.04 372.379 368.862 372.136C368.694 371.893 368.61 371.571 368.61 371.17C368.61 370.769 368.708 370.423 368.904 370.134C369.1 369.835 369.371 369.607 369.716 369.448C370.071 369.289 370.496 369.21 370.99 369.21C371.513 369.21 371.975 369.303 372.376 369.49C372.787 369.667 373.123 369.938 373.384 370.302L372.572 371.114C372.386 370.871 372.152 370.685 371.872 370.554C371.602 370.423 371.294 370.358 370.948 370.358C370.584 370.358 370.304 370.423 370.108 370.554C369.922 370.675 369.828 370.848 369.828 371.072C369.828 371.296 369.912 371.469 370.08 371.59C370.248 371.711 370.468 371.814 370.738 371.898C371.018 371.982 371.308 372.071 371.606 372.164C371.905 372.248 372.19 372.365 372.46 372.514C372.731 372.663 372.95 372.864 373.118 373.116C373.296 373.368 373.384 373.699 373.384 374.11C373.384 374.735 373.16 375.23 372.712 375.594C372.274 375.958 371.681 376.14 370.934 376.14ZM377.875 376.14C377.212 376.14 376.615 375.991 376.083 375.692C375.551 375.384 375.131 374.969 374.823 374.446C374.515 373.923 374.361 373.331 374.361 372.668C374.361 372.015 374.51 371.427 374.809 370.904C375.117 370.381 375.528 369.971 376.041 369.672C376.564 369.364 377.147 369.21 377.791 369.21C378.407 369.21 378.948 369.35 379.415 369.63C379.891 369.91 380.26 370.297 380.521 370.792C380.792 371.287 380.927 371.847 380.927 372.472C380.927 372.565 380.922 372.668 380.913 372.78C380.904 372.883 380.885 373.004 380.857 373.144H375.243V372.094H380.185L379.723 372.5C379.723 372.052 379.644 371.674 379.485 371.366C379.326 371.049 379.102 370.806 378.813 370.638C378.524 370.461 378.174 370.372 377.763 370.372C377.334 370.372 376.956 370.465 376.629 370.652C376.302 370.839 376.05 371.1 375.873 371.436C375.696 371.772 375.607 372.169 375.607 372.626C375.607 373.093 375.7 373.503 375.887 373.858C376.074 374.203 376.34 374.474 376.685 374.67C377.03 374.857 377.427 374.95 377.875 374.95C378.248 374.95 378.589 374.885 378.897 374.754C379.214 374.623 379.485 374.427 379.709 374.166L380.521 374.992C380.204 375.365 379.812 375.65 379.345 375.846C378.888 376.042 378.398 376.14 377.875 376.14ZM387.005 376V372.122C387.005 371.618 386.846 371.203 386.529 370.876C386.212 370.549 385.801 370.386 385.297 370.386C384.961 370.386 384.662 370.461 384.401 370.61C384.14 370.759 383.934 370.965 383.785 371.226C383.636 371.487 383.561 371.786 383.561 372.122L383.043 371.828C383.043 371.324 383.155 370.876 383.379 370.484C383.603 370.092 383.916 369.784 384.317 369.56C384.718 369.327 385.171 369.21 385.675 369.21C386.179 369.21 386.622 369.336 387.005 369.588C387.397 369.84 387.705 370.171 387.929 370.582C388.153 370.983 388.265 371.413 388.265 371.87V376H387.005ZM382.301 376V369.35H383.561V376H382.301ZM390.911 376V366.564H392.171V376H390.911ZM389.273 370.498V369.35H393.809V370.498H389.273ZM400.489 376.14C399.855 376.14 399.276 376.023 398.753 375.79C398.24 375.547 397.806 375.197 397.451 374.74L398.347 373.844C398.562 374.171 398.856 374.432 399.229 374.628C399.603 374.815 400.018 374.908 400.475 374.908C400.905 374.908 401.273 374.829 401.581 374.67C401.899 374.502 402.146 374.269 402.323 373.97C402.51 373.671 402.603 373.326 402.603 372.934C402.603 372.533 402.51 372.187 402.323 371.898C402.146 371.599 401.894 371.371 401.567 371.212C401.241 371.053 400.853 370.974 400.405 370.974C400.237 370.974 400.069 370.988 399.901 371.016C399.733 371.035 399.57 371.067 399.411 371.114L399.971 370.358C400.149 370.274 400.34 370.209 400.545 370.162C400.751 370.115 400.956 370.092 401.161 370.092C401.684 370.092 402.151 370.213 402.561 370.456C402.981 370.699 403.313 371.039 403.555 371.478C403.807 371.917 403.933 372.425 403.933 373.004C403.933 373.62 403.784 374.166 403.485 374.642C403.196 375.109 402.795 375.477 402.281 375.748C401.768 376.009 401.171 376.14 400.489 376.14ZM399.411 371.114V370.316L402.253 367.082L403.821 367.068L400.895 370.386L399.411 371.114ZM397.913 367.46V366.284H403.821V367.068L402.673 367.46H397.913ZM405.432 376L411.662 366.284H412.936L406.706 376H405.432ZM411.13 376.14C410.766 376.14 410.435 376.051 410.136 375.874C409.838 375.697 409.6 375.463 409.422 375.174C409.245 374.875 409.156 374.539 409.156 374.166C409.156 373.802 409.245 373.475 409.422 373.186C409.6 372.887 409.838 372.649 410.136 372.472C410.435 372.295 410.766 372.206 411.13 372.206C411.494 372.206 411.826 372.295 412.124 372.472C412.432 372.649 412.675 372.887 412.852 373.186C413.03 373.475 413.118 373.802 413.118 374.166C413.118 374.539 413.03 374.875 412.852 375.174C412.675 375.463 412.437 375.697 412.138 375.874C411.84 376.051 411.504 376.14 411.13 376.14ZM411.13 375.146C411.41 375.146 411.639 375.057 411.816 374.88C411.994 374.693 412.082 374.455 412.082 374.166C412.082 373.886 411.989 373.657 411.802 373.48C411.625 373.293 411.401 373.2 411.13 373.2C410.86 373.2 410.636 373.293 410.458 373.48C410.281 373.657 410.192 373.886 410.192 374.166C410.192 374.455 410.281 374.693 410.458 374.88C410.636 375.057 410.86 375.146 411.13 375.146ZM407.224 370.078C406.87 370.078 406.543 369.989 406.244 369.812C405.946 369.635 405.708 369.397 405.53 369.098C405.353 368.799 405.264 368.468 405.264 368.104C405.264 367.731 405.348 367.399 405.516 367.11C405.694 366.821 405.932 366.587 406.23 366.41C406.529 366.233 406.86 366.144 407.224 366.144C407.598 366.144 407.934 366.233 408.232 366.41C408.531 366.587 408.769 366.821 408.946 367.11C409.124 367.399 409.212 367.731 409.212 368.104C409.212 368.468 409.124 368.799 408.946 369.098C408.769 369.397 408.531 369.635 408.232 369.812C407.943 369.989 407.607 370.078 407.224 370.078ZM407.224 369.084C407.504 369.084 407.733 368.995 407.91 368.818C408.088 368.631 408.176 368.393 408.176 368.104C408.176 367.815 408.083 367.581 407.896 367.404C407.719 367.227 407.495 367.138 407.224 367.138C406.954 367.138 406.73 367.227 406.552 367.404C406.384 367.581 406.3 367.815 406.3 368.104C406.3 368.393 406.384 368.631 406.552 368.818C406.73 368.995 406.954 369.084 407.224 369.084Z" fill="#919AA3"/>
<circle cx="259.538" cy="205.462" r="136.038" stroke="#EFF1F7"/>
<circle cx="259.539" cy="205.462" r="122.385" stroke="#EFF1F7"/>
<circle cx="259.539" cy="205.461" r="108.731" stroke="#EFF1F7"/>
<circle cx="259.539" cy="205.461" r="95.0769" stroke="#EFF1F7"/>
<circle cx="259.539" cy="205.462" r="81.4231" stroke="#EFF1F7"/>
<circle cx="259.539" cy="205.462" r="67.7692" stroke="#EFF1F7"/>
<circle cx="259.539" cy="205.462" r="54.1154" stroke="#EFF1F7"/>
<circle cx="259.539" cy="205.462" r="40.4615" stroke="#EFF1F7"/>
<circle cx="259.539" cy="205.462" r="26.8077" stroke="#EFF1F7"/>
<circle cx="259.539" cy="205.461" r="13.1538" stroke="#EFF1F7"/>
<circle cx="259.539" cy="205.461" r="95.0769" fill="#E74C3C" stroke="white"/>
<mask id="path-21-inside-1_90_1140" fill="white">
<path d="M259.539 89.4038C289.372 89.4038 318.061 100.893 339.648 121.486C361.234 142.079 374.062 170.194 375.467 199.994C376.873 229.795 366.748 258.993 347.195 281.526C327.642 304.059 300.162 318.197 270.46 321.004C240.759 323.812 211.117 315.074 187.688 296.604C164.259 278.134 148.842 251.35 144.639 221.814C140.435 192.278 147.767 162.257 165.113 137.984C182.459 113.711 208.486 97.0498 237.792 91.4595L259.539 205.462V89.4038Z"/>
</mask>
<path d="M259.539 89.4038C289.372 89.4038 318.061 100.893 339.648 121.486C361.234 142.079 374.062 170.194 375.467 199.994C376.873 229.795 366.748 258.993 347.195 281.526C327.642 304.059 300.162 318.197 270.46 321.004C240.759 323.812 211.117 315.074 187.688 296.604C164.259 278.134 148.842 251.35 144.639 221.814C140.435 192.278 147.767 162.257 165.113 137.984C182.459 113.711 208.486 97.0498 237.792 91.4595L259.539 205.462V89.4038Z" fill="#FE9039" stroke="white" stroke-width="2" mask="url(#path-21-inside-1_90_1140)"/>
<mask id="path-22-inside-2_90_1140" fill="white">
<path d="M259.538 68.9231C292.049 68.9231 323.492 80.5232 348.213 101.637C372.934 122.751 389.31 151.992 394.396 184.102C399.482 216.212 392.943 249.083 375.957 276.803C358.97 304.522 332.65 325.271 301.731 335.317C270.812 345.364 237.323 344.048 207.287 331.607C177.252 319.166 152.641 296.416 137.882 267.449C123.122 238.482 119.183 205.199 126.773 173.587C134.362 141.975 152.982 114.109 179.283 94.9996L259.538 205.462V68.9231Z"/>
</mask>
<path d="M259.538 68.9231C292.049 68.9231 323.492 80.5232 348.213 101.637C372.934 122.751 389.31 151.992 394.396 184.102C399.482 216.212 392.943 249.083 375.957 276.803C358.97 304.522 332.65 325.271 301.731 335.317C270.812 345.364 237.323 344.048 207.287 331.607C177.252 319.166 152.641 296.416 137.882 267.449C123.122 238.482 119.183 205.199 126.773 173.587C134.362 141.975 152.982 114.109 179.283 94.9996L259.538 205.462V68.9231Z" fill="#796DF6" stroke="white" stroke-width="2" mask="url(#path-22-inside-2_90_1140)"/>
<path d="M257.978 188.885V183.333H258.722V188.885H257.978ZM256.842 184.005V183.333H258.642V184.005H256.842ZM262.008 188.965C261.592 188.965 261.21 188.847 260.864 188.613C260.522 188.378 260.25 188.047 260.048 187.621C259.845 187.189 259.744 186.682 259.744 186.101C259.744 185.519 259.842 185.015 260.04 184.589C260.242 184.162 260.514 183.834 260.856 183.605C261.197 183.37 261.573 183.253 261.984 183.253C262.405 183.253 262.786 183.37 263.128 183.605C263.469 183.834 263.738 184.162 263.936 184.589C264.138 185.015 264.24 185.522 264.24 186.109C264.24 186.69 264.138 187.197 263.936 187.629C263.738 188.055 263.469 188.386 263.128 188.621C262.792 188.85 262.418 188.965 262.008 188.965ZM261.992 188.253C262.285 188.253 262.541 188.173 262.76 188.013C262.984 187.847 263.16 187.605 263.288 187.285C263.416 186.965 263.48 186.57 263.48 186.101C263.48 185.631 263.416 185.239 263.288 184.925C263.16 184.605 262.984 184.365 262.76 184.205C262.536 184.039 262.277 183.957 261.984 183.957C261.696 183.957 261.44 184.039 261.216 184.205C260.992 184.365 260.816 184.605 260.688 184.925C260.565 185.239 260.504 185.631 260.504 186.101C260.504 186.57 260.565 186.965 260.688 187.285C260.816 187.605 260.992 187.847 261.216 188.013C261.44 188.173 261.698 188.253 261.992 188.253Z" fill="#475569"/>
<path d="M255.398 174.775L257.446 172.615C257.654 172.401 257.817 172.217 257.934 172.063C258.051 171.903 258.134 171.756 258.182 171.623C258.235 171.489 258.262 171.351 258.262 171.207C258.262 170.924 258.171 170.703 257.99 170.543C257.809 170.383 257.574 170.303 257.286 170.303C257.003 170.303 256.755 170.372 256.542 170.511C256.329 170.644 256.139 170.852 255.974 171.135L255.446 170.695C255.665 170.332 255.929 170.06 256.238 169.879C256.547 169.692 256.905 169.599 257.31 169.599C257.651 169.599 257.947 169.665 258.198 169.799C258.454 169.932 258.651 170.119 258.79 170.359C258.929 170.599 258.998 170.879 258.998 171.199C258.998 171.428 258.969 171.633 258.91 171.815C258.857 171.996 258.758 172.183 258.614 172.375C258.475 172.561 258.281 172.785 258.03 173.047L256.374 174.751L255.398 174.775ZM255.398 175.231V174.775L256.038 174.559H259.126V175.231H255.398ZM262.102 175.311C261.686 175.311 261.305 175.193 260.958 174.959C260.617 174.724 260.345 174.393 260.142 173.967C259.94 173.535 259.838 173.028 259.838 172.447C259.838 171.865 259.937 171.361 260.134 170.935C260.337 170.508 260.609 170.18 260.95 169.951C261.292 169.716 261.668 169.599 262.078 169.599C262.5 169.599 262.881 169.716 263.222 169.951C263.564 170.18 263.833 170.508 264.03 170.935C264.233 171.361 264.334 171.868 264.334 172.455C264.334 173.036 264.233 173.543 264.03 173.975C263.833 174.401 263.564 174.732 263.222 174.967C262.886 175.196 262.513 175.311 262.102 175.311ZM262.086 174.599C262.38 174.599 262.636 174.519 262.854 174.359C263.078 174.193 263.254 173.951 263.382 173.631C263.51 173.311 263.574 172.916 263.574 172.447C263.574 171.977 263.51 171.585 263.382 171.271C263.254 170.951 263.078 170.711 262.854 170.551C262.63 170.385 262.372 170.303 262.078 170.303C261.79 170.303 261.534 170.385 261.31 170.551C261.086 170.711 260.91 170.951 260.782 171.271C260.66 171.585 260.598 171.977 260.598 172.447C260.598 172.916 260.66 173.311 260.782 173.631C260.91 173.951 261.086 174.193 261.31 174.359C261.534 174.519 261.793 174.599 262.086 174.599Z" fill="#475569"/>
<path d="M257.122 161.657C256.759 161.657 256.428 161.59 256.13 161.457C255.836 161.318 255.588 161.118 255.386 160.857L255.898 160.345C256.02 160.532 256.188 160.681 256.402 160.793C256.615 160.9 256.852 160.953 257.114 160.953C257.359 160.953 257.57 160.908 257.746 160.817C257.927 160.721 258.068 160.588 258.17 160.417C258.276 160.246 258.33 160.049 258.33 159.825C258.33 159.596 258.276 159.398 258.17 159.233C258.068 159.062 257.924 158.932 257.738 158.841C257.551 158.75 257.33 158.705 257.074 158.705C256.978 158.705 256.882 158.713 256.786 158.729C256.69 158.74 256.596 158.758 256.506 158.785L256.826 158.353C256.927 158.305 257.036 158.268 257.154 158.241C257.271 158.214 257.388 158.201 257.506 158.201C257.804 158.201 258.071 158.27 258.306 158.409C258.546 158.548 258.735 158.742 258.874 158.993C259.018 159.244 259.09 159.534 259.09 159.865C259.09 160.217 259.004 160.529 258.834 160.801C258.668 161.068 258.439 161.278 258.146 161.433C257.852 161.582 257.511 161.657 257.122 161.657ZM256.506 158.785V158.329L258.13 156.481L259.026 156.473L257.354 158.369L256.506 158.785ZM255.65 156.697V156.025H259.026V156.473L258.37 156.697H255.65ZM262.09 161.657C261.674 161.657 261.293 161.54 260.946 161.305C260.605 161.07 260.333 160.74 260.13 160.313C259.928 159.881 259.826 159.374 259.826 158.793C259.826 158.212 259.925 157.708 260.122 157.281C260.325 156.854 260.597 156.526 260.938 156.297C261.28 156.062 261.656 155.945 262.066 155.945C262.488 155.945 262.869 156.062 263.21 156.297C263.552 156.526 263.821 156.854 264.018 157.281C264.221 157.708 264.322 158.214 264.322 158.801C264.322 159.382 264.221 159.889 264.018 160.321C263.821 160.748 263.552 161.078 263.21 161.313C262.874 161.542 262.501 161.657 262.09 161.657ZM262.074 160.945C262.368 160.945 262.624 160.865 262.842 160.705C263.066 160.54 263.242 160.297 263.37 159.977C263.498 159.657 263.562 159.262 263.562 158.793C263.562 158.324 263.498 157.932 263.37 157.617C263.242 157.297 263.066 157.057 262.842 156.897C262.618 156.732 262.36 156.649 262.066 156.649C261.778 156.649 261.522 156.732 261.298 156.897C261.074 157.057 260.898 157.297 260.77 157.617C260.648 157.932 260.586 158.324 260.586 158.793C260.586 159.262 260.648 159.657 260.77 159.977C260.898 160.297 261.074 160.54 261.298 160.705C261.522 160.865 261.781 160.945 262.074 160.945Z" fill="#475569"/>
<path d="M255.854 146.011L257.878 142.371H258.726L256.662 146.011H255.854ZM255.854 146.475V146.011L256.174 145.803H260.11V146.475H255.854ZM258.566 147.923V144.251H259.31V147.923H258.566ZM263.011 148.003C262.595 148.003 262.214 147.886 261.867 147.651C261.526 147.416 261.254 147.086 261.051 146.659C260.849 146.227 260.747 145.72 260.747 145.139C260.747 144.558 260.846 144.054 261.043 143.627C261.246 143.2 261.518 142.872 261.859 142.643C262.201 142.408 262.577 142.291 262.987 142.291C263.409 142.291 263.79 142.408 264.131 142.643C264.473 142.872 264.742 143.2 264.939 143.627C265.142 144.054 265.243 144.56 265.243 145.147C265.243 145.728 265.142 146.235 264.939 146.667C264.742 147.094 264.473 147.424 264.131 147.659C263.795 147.888 263.422 148.003 263.011 148.003ZM262.995 147.291C263.289 147.291 263.545 147.211 263.763 147.051C263.987 146.886 264.163 146.643 264.291 146.323C264.419 146.003 264.483 145.608 264.483 145.139C264.483 144.67 264.419 144.278 264.291 143.963C264.163 143.643 263.987 143.403 263.763 143.243C263.539 143.078 263.281 142.995 262.987 142.995C262.699 142.995 262.443 143.078 262.219 143.243C261.995 143.403 261.819 143.643 261.691 143.963C261.569 144.278 261.507 144.67 261.507 145.139C261.507 145.608 261.569 146.003 261.691 146.323C261.819 146.643 261.995 146.886 262.219 147.051C262.443 147.211 262.702 147.291 262.995 147.291Z" fill="#475569"/>
<path d="M257.118 134.349C256.739 134.349 256.401 134.283 256.102 134.149C255.809 134.011 255.561 133.811 255.358 133.549L255.87 133.037C255.993 133.224 256.161 133.373 256.374 133.485C256.593 133.592 256.835 133.645 257.102 133.645C257.353 133.645 257.571 133.597 257.758 133.501C257.95 133.405 258.099 133.272 258.206 133.101C258.318 132.925 258.374 132.717 258.374 132.477C258.374 132.232 258.321 132.024 258.214 131.853C258.107 131.683 257.963 131.555 257.782 131.469C257.606 131.379 257.411 131.333 257.198 131.333C256.979 131.333 256.779 131.36 256.598 131.413C256.422 131.467 256.254 131.557 256.094 131.685L256.102 131.205C256.193 131.093 256.297 131.003 256.414 130.933C256.531 130.864 256.665 130.811 256.814 130.773C256.963 130.736 257.137 130.717 257.334 130.717C257.718 130.717 258.043 130.797 258.31 130.957C258.577 131.117 258.779 131.333 258.918 131.605C259.062 131.877 259.134 132.181 259.134 132.517C259.134 132.869 259.046 133.184 258.87 133.461C258.699 133.739 258.462 133.957 258.158 134.117C257.854 134.272 257.507 134.349 257.118 134.349ZM256.094 131.685L255.686 131.277L255.934 128.717H256.622L256.342 131.349L256.094 131.685ZM256.086 129.389L255.934 128.717H258.854V129.389H256.086ZM262.102 134.349C261.686 134.349 261.305 134.232 260.958 133.997C260.617 133.763 260.345 133.432 260.142 133.005C259.94 132.573 259.838 132.067 259.838 131.485C259.838 130.904 259.937 130.4 260.134 129.973C260.337 129.547 260.609 129.219 260.95 128.989C261.292 128.755 261.668 128.637 262.078 128.637C262.5 128.637 262.881 128.755 263.222 128.989C263.564 129.219 263.833 129.547 264.03 129.973C264.233 130.4 264.334 130.907 264.334 131.493C264.334 132.075 264.233 132.581 264.03 133.013C263.833 133.44 263.564 133.771 263.222 134.005C262.886 134.235 262.513 134.349 262.102 134.349ZM262.086 133.637C262.38 133.637 262.636 133.557 262.854 133.397C263.078 133.232 263.254 132.989 263.382 132.669C263.51 132.349 263.574 131.955 263.574 131.485C263.574 131.016 263.51 130.624 263.382 130.309C263.254 129.989 263.078 129.749 262.854 129.589C262.63 129.424 262.372 129.341 262.078 129.341C261.79 129.341 261.534 129.424 261.31 129.589C261.086 129.749 260.91 129.989 260.782 130.309C260.66 130.624 260.598 131.016 260.598 131.485C260.598 131.955 260.66 132.349 260.782 132.669C260.91 132.989 261.086 133.232 261.31 133.397C261.534 133.557 261.793 133.637 262.086 133.637Z" fill="#475569"/>
<path d="M257.296 120.695C256.928 120.695 256.598 120.61 256.304 120.439C256.016 120.269 255.787 120.039 255.616 119.751C255.446 119.463 255.36 119.143 255.36 118.791C255.36 118.301 255.531 117.813 255.872 117.327L257.504 115.063H258.376L256.704 117.343L256.432 117.487C256.496 117.375 256.574 117.282 256.664 117.207C256.755 117.127 256.867 117.066 257 117.023C257.134 116.981 257.291 116.959 257.472 116.959C257.798 116.959 258.091 117.037 258.352 117.191C258.619 117.346 258.832 117.559 258.992 117.831C259.158 118.098 259.24 118.41 259.24 118.767C259.24 119.119 259.152 119.442 258.976 119.735C258.806 120.029 258.571 120.263 258.272 120.439C257.979 120.61 257.654 120.695 257.296 120.695ZM257.296 119.991C257.52 119.991 257.72 119.938 257.896 119.831C258.078 119.719 258.219 119.573 258.32 119.391C258.427 119.205 258.48 118.997 258.48 118.767C258.48 118.538 258.427 118.333 258.32 118.151C258.219 117.965 258.078 117.818 257.896 117.711C257.72 117.605 257.52 117.551 257.296 117.551C257.072 117.551 256.87 117.605 256.688 117.711C256.512 117.818 256.371 117.965 256.264 118.151C256.163 118.333 256.112 118.538 256.112 118.767C256.112 118.997 256.163 119.205 256.264 119.391C256.371 119.578 256.512 119.725 256.688 119.831C256.87 119.938 257.072 119.991 257.296 119.991ZM262.196 120.695C261.78 120.695 261.399 120.578 261.052 120.343C260.711 120.109 260.439 119.778 260.236 119.351C260.033 118.919 259.932 118.413 259.932 117.831C259.932 117.25 260.031 116.746 260.228 116.319C260.431 115.893 260.703 115.565 261.044 115.335C261.385 115.101 261.761 114.983 262.172 114.983C262.593 114.983 262.975 115.101 263.316 115.335C263.657 115.565 263.927 115.893 264.124 116.319C264.327 116.746 264.428 117.253 264.428 117.839C264.428 118.421 264.327 118.927 264.124 119.359C263.927 119.786 263.657 120.117 263.316 120.351C262.98 120.581 262.607 120.695 262.196 120.695ZM262.18 119.983C262.473 119.983 262.729 119.903 262.948 119.743C263.172 119.578 263.348 119.335 263.476 119.015C263.604 118.695 263.668 118.301 263.668 117.831C263.668 117.362 263.604 116.97 263.476 116.655C263.348 116.335 263.172 116.095 262.948 115.935C262.724 115.77 262.465 115.687 262.172 115.687C261.884 115.687 261.628 115.77 261.404 115.935C261.18 116.095 261.004 116.335 260.876 116.655C260.753 116.97 260.692 117.362 260.692 117.831C260.692 118.301 260.753 118.695 260.876 119.015C261.004 119.335 261.18 119.578 261.404 119.743C261.628 119.903 261.887 119.983 262.18 119.983Z" fill="#475569"/>
<path d="M256.383 106.961L258.463 101.849L259.207 101.873L257.175 106.961H256.383ZM255.511 102.081V101.409H259.207V101.873L258.879 102.081H255.511ZM261.973 107.041C261.557 107.041 261.176 106.924 260.829 106.689C260.488 106.455 260.216 106.124 260.013 105.697C259.811 105.265 259.709 104.759 259.709 104.177C259.709 103.596 259.808 103.092 260.005 102.665C260.208 102.239 260.48 101.911 260.821 101.681C261.163 101.447 261.539 101.329 261.949 101.329C262.371 101.329 262.752 101.447 263.093 101.681C263.435 101.911 263.704 102.239 263.901 102.665C264.104 103.092 264.205 103.599 264.205 104.185C264.205 104.767 264.104 105.273 263.901 105.705C263.704 106.132 263.435 106.463 263.093 106.697C262.757 106.927 262.384 107.041 261.973 107.041ZM261.957 106.329C262.251 106.329 262.507 106.249 262.725 106.089C262.949 105.924 263.125 105.681 263.253 105.361C263.381 105.041 263.445 104.647 263.445 104.177C263.445 103.708 263.381 103.316 263.253 103.001C263.125 102.681 262.949 102.441 262.725 102.281C262.501 102.116 262.243 102.033 261.949 102.033C261.661 102.033 261.405 102.116 261.181 102.281C260.957 102.441 260.781 102.681 260.653 103.001C260.531 103.316 260.469 103.708 260.469 104.177C260.469 104.647 260.531 105.041 260.653 105.361C260.781 105.681 260.957 105.924 261.181 106.089C261.405 106.249 261.664 106.329 261.957 106.329Z" fill="#475569"/>
<path d="M257.299 93.3876C256.931 93.3876 256.606 93.3183 256.323 93.1796C256.046 93.041 255.83 92.849 255.675 92.6036C255.52 92.3583 255.443 92.081 255.443 91.7716C255.443 91.521 255.491 91.2916 255.587 91.0836C255.683 90.8756 255.824 90.6996 256.011 90.5556C256.198 90.4063 256.416 90.2996 256.667 90.2356L256.691 90.4516C256.478 90.393 256.296 90.2996 256.147 90.1716C255.998 90.0383 255.883 89.8836 255.803 89.7076C255.728 89.5263 255.691 89.3343 255.691 89.1316C255.691 88.8436 255.76 88.5903 255.899 88.3716C256.038 88.153 256.227 87.9823 256.467 87.8596C256.712 87.7316 256.99 87.6676 257.299 87.6676C257.614 87.6676 257.891 87.7316 258.131 87.8596C258.371 87.9823 258.56 88.153 258.699 88.3716C258.838 88.5903 258.907 88.8436 258.907 89.1316C258.907 89.3343 258.867 89.5263 258.787 89.7076C258.712 89.8836 258.6 90.0383 258.451 90.1716C258.307 90.2996 258.128 90.393 257.915 90.4516L257.931 90.2356C258.187 90.2996 258.406 90.4063 258.587 90.5556C258.774 90.6996 258.915 90.8756 259.011 91.0836C259.112 91.2916 259.163 91.521 259.163 91.7716C259.163 92.081 259.086 92.3583 258.931 92.6036C258.776 92.849 258.558 93.041 258.275 93.1796C257.998 93.3183 257.672 93.3876 257.299 93.3876ZM257.299 92.7076C257.523 92.7076 257.718 92.665 257.883 92.5796C258.054 92.489 258.187 92.3663 258.283 92.2116C258.384 92.057 258.435 91.8783 258.435 91.6756C258.435 91.4783 258.384 91.3023 258.283 91.1476C258.187 90.993 258.054 90.873 257.883 90.7876C257.718 90.697 257.523 90.6516 257.299 90.6516C257.08 90.6516 256.886 90.697 256.715 90.7876C256.544 90.873 256.408 90.993 256.307 91.1476C256.211 91.3023 256.163 91.4783 256.163 91.6756C256.163 91.8783 256.211 92.057 256.307 92.2116C256.408 92.3663 256.544 92.489 256.715 92.5796C256.886 92.665 257.08 92.7076 257.299 92.7076ZM257.299 90.0676C257.566 90.0676 257.784 89.985 257.955 89.8196C258.126 89.6543 258.211 89.441 258.211 89.1796C258.211 88.9236 258.126 88.7156 257.955 88.5556C257.784 88.3903 257.566 88.3076 257.299 88.3076C257.038 88.3076 256.822 88.3903 256.651 88.5556C256.48 88.7156 256.395 88.9236 256.395 89.1796C256.395 89.441 256.48 89.6543 256.651 89.8196C256.822 89.985 257.038 90.0676 257.299 90.0676ZM262.137 93.3876C261.721 93.3876 261.34 93.2703 260.993 93.0356C260.652 92.801 260.38 92.4703 260.177 92.0436C259.975 91.6116 259.873 91.105 259.873 90.5236C259.873 89.9423 259.972 89.4383 260.169 89.0116C260.372 88.585 260.644 88.257 260.985 88.0276C261.327 87.793 261.703 87.6756 262.113 87.6756C262.535 87.6756 262.916 87.793 263.257 88.0276C263.599 88.257 263.868 88.585 264.065 89.0116C264.268 89.4383 264.369 89.945 264.369 90.5316C264.369 91.113 264.268 91.6196 264.065 92.0516C263.868 92.4783 263.599 92.809 263.257 93.0436C262.921 93.273 262.548 93.3876 262.137 93.3876ZM262.121 92.6756C262.415 92.6756 262.671 92.5956 262.889 92.4356C263.113 92.2703 263.289 92.0276 263.417 91.7076C263.545 91.3876 263.609 90.993 263.609 90.5236C263.609 90.0543 263.545 89.6623 263.417 89.3476C263.289 89.0276 263.113 88.7876 262.889 88.6276C262.665 88.4623 262.407 88.3796 262.113 88.3796C261.825 88.3796 261.569 88.4623 261.345 88.6276C261.121 88.7876 260.945 89.0276 260.817 89.3476C260.695 89.6623 260.633 90.0543 260.633 90.5236C260.633 90.993 260.695 91.3876 260.817 91.7076C260.945 92.0276 261.121 92.2703 261.345 92.4356C261.569 92.5956 261.828 92.6756 262.121 92.6756Z" fill="#475569"/>
<path d="M256.216 79.6538L257.888 77.3738L258.16 77.2298C258.096 77.3365 258.019 77.4298 257.928 77.5098C257.838 77.5898 257.726 77.6511 257.592 77.6938C257.464 77.7365 257.307 77.7578 257.12 77.7578C256.8 77.7578 256.504 77.6805 256.232 77.5258C255.966 77.3711 255.752 77.1578 255.592 76.8858C255.432 76.6085 255.352 76.2965 255.352 75.9498C255.352 75.5925 255.44 75.2698 255.616 74.9818C255.792 74.6885 256.027 74.4565 256.32 74.2858C256.614 74.1098 256.939 74.0218 257.296 74.0218C257.659 74.0218 257.987 74.1071 258.28 74.2778C258.574 74.4485 258.806 74.6778 258.976 74.9658C259.147 75.2485 259.232 75.5685 259.232 75.9258C259.232 76.4165 259.062 76.9045 258.72 77.3898L257.088 79.6538H256.216ZM257.296 77.1658C257.52 77.1658 257.72 77.1125 257.896 77.0058C258.078 76.8938 258.219 76.7471 258.32 76.5658C258.427 76.3791 258.48 76.1738 258.48 75.9498C258.48 75.7151 258.427 75.5071 258.32 75.3258C258.219 75.1391 258.078 74.9925 257.896 74.8858C257.72 74.7791 257.52 74.7258 257.296 74.7258C257.072 74.7258 256.87 74.7791 256.688 74.8858C256.512 74.9925 256.371 75.1391 256.264 75.3258C256.158 75.5071 256.104 75.7151 256.104 75.9498C256.104 76.1791 256.158 76.3845 256.264 76.5658C256.371 76.7471 256.515 76.8938 256.696 77.0058C256.878 77.1125 257.078 77.1658 257.296 77.1658ZM262.196 79.7338C261.78 79.7338 261.399 79.6165 261.052 79.3818C260.711 79.1471 260.439 78.8165 260.236 78.3898C260.033 77.9578 259.932 77.4511 259.932 76.8698C259.932 76.2885 260.031 75.7845 260.228 75.3578C260.431 74.9311 260.703 74.6031 261.044 74.3738C261.385 74.1391 261.761 74.0218 262.172 74.0218C262.593 74.0218 262.975 74.1391 263.316 74.3738C263.657 74.6031 263.927 74.9311 264.124 75.3578C264.327 75.7845 264.428 76.2911 264.428 76.8778C264.428 77.4591 264.327 77.9658 264.124 78.3978C263.927 78.8245 263.657 79.1551 263.316 79.3898C262.98 79.6191 262.607 79.7338 262.196 79.7338ZM262.18 79.0218C262.473 79.0218 262.729 78.9418 262.948 78.7818C263.172 78.6165 263.348 78.3738 263.476 78.0538C263.604 77.7338 263.668 77.3391 263.668 76.8698C263.668 76.4005 263.604 76.0085 263.476 75.6938C263.348 75.3738 263.172 75.1338 262.948 74.9738C262.724 74.8085 262.465 74.7258 262.172 74.7258C261.884 74.7258 261.628 74.8085 261.404 74.9738C261.18 75.1338 261.004 75.3738 260.876 75.6938C260.753 76.0085 260.692 76.4005 260.692 76.8698C260.692 77.3391 260.753 77.7338 260.876 78.0538C261.004 78.3738 261.18 78.6165 261.404 78.7818C261.628 78.9418 261.887 79.0218 262.18 79.0218Z" fill="#475569"/>
<path d="M254.67 66V60.448H255.414V66H254.67ZM253.534 61.12V60.448H255.334V61.12H253.534ZM258.7 66.08C258.284 66.08 257.903 65.9627 257.556 65.728C257.215 65.4933 256.943 65.1627 256.74 64.736C256.537 64.304 256.436 63.7973 256.436 63.216C256.436 62.6347 256.535 62.1307 256.732 61.704C256.935 61.2773 257.207 60.9493 257.548 60.72C257.889 60.4853 258.265 60.368 258.676 60.368C259.097 60.368 259.479 60.4853 259.82 60.72C260.161 60.9493 260.431 61.2773 260.628 61.704C260.831 62.1307 260.932 62.6373 260.932 63.224C260.932 63.8053 260.831 64.312 260.628 64.744C260.431 65.1707 260.161 65.5013 259.82 65.736C259.484 65.9653 259.111 66.08 258.7 66.08ZM258.684 65.368C258.977 65.368 259.233 65.288 259.452 65.128C259.676 64.9627 259.852 64.72 259.98 64.4C260.108 64.08 260.172 63.6853 260.172 63.216C260.172 62.7467 260.108 62.3547 259.98 62.04C259.852 61.72 259.676 61.48 259.452 61.32C259.228 61.1547 258.969 61.072 258.676 61.072C258.388 61.072 258.132 61.1547 257.908 61.32C257.684 61.48 257.508 61.72 257.38 62.04C257.257 62.3547 257.196 62.7467 257.196 63.216C257.196 63.6853 257.257 64.08 257.38 64.4C257.508 64.72 257.684 64.9627 257.908 65.128C258.132 65.288 258.391 65.368 258.684 65.368ZM263.95 66.08C263.534 66.08 263.153 65.9627 262.806 65.728C262.465 65.4933 262.193 65.1627 261.99 64.736C261.787 64.304 261.686 63.7973 261.686 63.216C261.686 62.6347 261.785 62.1307 261.982 61.704C262.185 61.2773 262.457 60.9493 262.798 60.72C263.139 60.4853 263.515 60.368 263.926 60.368C264.347 60.368 264.729 60.4853 265.07 60.72C265.411 60.9493 265.681 61.2773 265.878 61.704C266.081 62.1307 266.182 62.6373 266.182 63.224C266.182 63.8053 266.081 64.312 265.878 64.744C265.681 65.1707 265.411 65.5013 265.07 65.736C264.734 65.9653 264.361 66.08 263.95 66.08ZM263.934 65.368C264.227 65.368 264.483 65.288 264.702 65.128C264.926 64.9627 265.102 64.72 265.23 64.4C265.358 64.08 265.422 63.6853 265.422 63.216C265.422 62.7467 265.358 62.3547 265.23 62.04C265.102 61.72 264.926 61.48 264.702 61.32C264.478 61.1547 264.219 61.072 263.926 61.072C263.638 61.072 263.382 61.1547 263.158 61.32C262.934 61.48 262.758 61.72 262.63 62.04C262.507 62.3547 262.446 62.7467 262.446 63.216C262.446 63.6853 262.507 64.08 262.63 64.4C262.758 64.72 262.934 64.9627 263.158 65.128C263.382 65.288 263.641 65.368 263.934 65.368Z" fill="#475569"/>
<g filter="url(#filter0_d_90_1140)">
<rect x="219" y="266" width="86" height="25" rx="3" fill="white" shape-rendering="crispEdges"/>
<path d="M230.74 279.76V278.776H233.008C233.32 278.776 233.596 278.712 233.836 278.584C234.084 278.456 234.276 278.276 234.412 278.044C234.556 277.812 234.628 277.536 234.628 277.216C234.628 276.896 234.556 276.62 234.412 276.388C234.276 276.156 234.084 275.976 233.836 275.848C233.596 275.72 233.32 275.656 233.008 275.656H230.74V274.672H233.08C233.592 274.672 234.048 274.776 234.448 274.984C234.856 275.192 235.176 275.488 235.408 275.872C235.648 276.248 235.768 276.696 235.768 277.216C235.768 277.728 235.648 278.176 235.408 278.56C235.176 278.936 234.856 279.232 234.448 279.448C234.048 279.656 233.592 279.76 233.08 279.76H230.74ZM229.984 283V274.672H231.112V283H229.984ZM237.069 283V277.3H238.149V283H237.069ZM238.149 279.748L237.741 279.568C237.741 278.84 237.909 278.26 238.245 277.828C238.581 277.396 239.065 277.18 239.697 277.18C239.985 277.18 240.245 277.232 240.477 277.336C240.709 277.432 240.925 277.596 241.125 277.828L240.417 278.56C240.297 278.432 240.165 278.34 240.021 278.284C239.877 278.228 239.709 278.2 239.517 278.2C239.117 278.2 238.789 278.328 238.533 278.584C238.277 278.84 238.149 279.228 238.149 279.748ZM244.338 283.12C243.77 283.12 243.258 282.992 242.802 282.736C242.346 282.472 241.986 282.116 241.722 281.668C241.458 281.22 241.326 280.712 241.326 280.144C241.326 279.584 241.454 279.08 241.71 278.632C241.974 278.184 242.326 277.832 242.766 277.576C243.214 277.312 243.714 277.18 244.266 277.18C244.794 277.18 245.258 277.3 245.658 277.54C246.066 277.78 246.382 278.112 246.606 278.536C246.838 278.96 246.954 279.44 246.954 279.976C246.954 280.056 246.95 280.144 246.942 280.24C246.934 280.328 246.918 280.432 246.894 280.552H242.082V279.652H246.318L245.922 280C245.922 279.616 245.854 279.292 245.718 279.028C245.582 278.756 245.39 278.548 245.142 278.404C244.894 278.252 244.594 278.176 244.242 278.176C243.874 278.176 243.55 278.256 243.27 278.416C242.99 278.576 242.774 278.8 242.622 279.088C242.47 279.376 242.394 279.716 242.394 280.108C242.394 280.508 242.474 280.86 242.634 281.164C242.794 281.46 243.022 281.692 243.318 281.86C243.614 282.02 243.954 282.1 244.338 282.1C244.658 282.1 244.95 282.044 245.214 281.932C245.486 281.82 245.718 281.652 245.91 281.428L246.606 282.136C246.334 282.456 245.998 282.7 245.598 282.868C245.206 283.036 244.786 283.12 244.338 283.12ZM249.944 283.12C249.624 283.12 249.32 283.08 249.032 283C248.752 282.912 248.492 282.792 248.252 282.64C248.012 282.48 247.804 282.292 247.628 282.076L248.324 281.38C248.532 281.636 248.772 281.828 249.044 281.956C249.316 282.076 249.62 282.136 249.956 282.136C250.292 282.136 250.552 282.08 250.736 281.968C250.92 281.848 251.012 281.684 251.012 281.476C251.012 281.268 250.936 281.108 250.784 280.996C250.64 280.876 250.452 280.78 250.22 280.708C249.988 280.628 249.74 280.552 249.476 280.48C249.22 280.4 248.976 280.3 248.744 280.18C248.512 280.06 248.32 279.896 248.168 279.688C248.024 279.48 247.952 279.204 247.952 278.86C247.952 278.516 248.036 278.22 248.204 277.972C248.372 277.716 248.604 277.52 248.9 277.384C249.204 277.248 249.568 277.18 249.992 277.18C250.44 277.18 250.836 277.26 251.18 277.42C251.532 277.572 251.82 277.804 252.044 278.116L251.348 278.812C251.188 278.604 250.988 278.444 250.748 278.332C250.516 278.22 250.252 278.164 249.956 278.164C249.644 278.164 249.404 278.22 249.236 278.332C249.076 278.436 248.996 278.584 248.996 278.776C248.996 278.968 249.068 279.116 249.212 279.22C249.356 279.324 249.544 279.412 249.776 279.484C250.016 279.556 250.264 279.632 250.52 279.712C250.776 279.784 251.02 279.884 251.252 280.012C251.484 280.14 251.672 280.312 251.816 280.528C251.968 280.744 252.044 281.028 252.044 281.38C252.044 281.916 251.852 282.34 251.468 282.652C251.092 282.964 250.584 283.12 249.944 283.12ZM255.893 283.12C255.325 283.12 254.813 282.992 254.357 282.736C253.901 282.472 253.541 282.116 253.277 281.668C253.013 281.22 252.881 280.712 252.881 280.144C252.881 279.584 253.009 279.08 253.265 278.632C253.529 278.184 253.881 277.832 254.321 277.576C254.769 277.312 255.269 277.18 255.821 277.18C256.349 277.18 256.813 277.3 257.213 277.54C257.621 277.78 257.937 278.112 258.161 278.536C258.393 278.96 258.509 279.44 258.509 279.976C258.509 280.056 258.505 280.144 258.497 280.24C258.489 280.328 258.473 280.432 258.449 280.552H253.637V279.652H257.873L257.477 280C257.477 279.616 257.409 279.292 257.273 279.028C257.137 278.756 256.945 278.548 256.697 278.404C256.449 278.252 256.149 278.176 255.797 278.176C255.429 278.176 255.105 278.256 254.825 278.416C254.545 278.576 254.329 278.8 254.177 279.088C254.025 279.376 253.949 279.716 253.949 280.108C253.949 280.508 254.029 280.86 254.189 281.164C254.349 281.46 254.577 281.692 254.873 281.86C255.169 282.02 255.509 282.1 255.893 282.1C256.213 282.1 256.505 282.044 256.769 281.932C257.041 281.82 257.273 281.652 257.465 281.428L258.161 282.136C257.889 282.456 257.553 282.7 257.153 282.868C256.761 283.036 256.341 283.12 255.893 283.12ZM263.719 283V279.676C263.719 279.244 263.583 278.888 263.311 278.608C263.039 278.328 262.687 278.188 262.255 278.188C261.967 278.188 261.711 278.252 261.487 278.38C261.263 278.508 261.087 278.684 260.959 278.908C260.831 279.132 260.767 279.388 260.767 279.676L260.323 279.424C260.323 278.992 260.419 278.608 260.611 278.272C260.803 277.936 261.071 277.672 261.415 277.48C261.759 277.28 262.147 277.18 262.579 277.18C263.011 277.18 263.391 277.288 263.719 277.504C264.055 277.72 264.319 278.004 264.511 278.356C264.703 278.7 264.799 279.068 264.799 279.46V283H263.719ZM259.687 283V277.3H260.767V283H259.687ZM267.066 283V274.912H268.146V283H267.066ZM265.662 278.284V277.3H269.55V278.284H265.662ZM274.076 283L276.585 279.58L276.993 279.364C276.897 279.524 276.781 279.664 276.645 279.784C276.509 279.904 276.341 279.996 276.141 280.06C275.949 280.124 275.713 280.156 275.433 280.156C274.953 280.156 274.509 280.04 274.101 279.808C273.701 279.576 273.381 279.256 273.141 278.848C272.901 278.432 272.781 277.964 272.781 277.444C272.781 276.908 272.913 276.424 273.177 275.992C273.441 275.552 273.793 275.204 274.233 274.948C274.673 274.684 275.161 274.552 275.697 274.552C276.241 274.552 276.733 274.68 277.173 274.936C277.613 275.192 277.961 275.536 278.217 275.968C278.473 276.392 278.601 276.872 278.601 277.408C278.601 278.144 278.345 278.876 277.833 279.604L275.385 283H274.076ZM275.697 279.268C276.033 279.268 276.333 279.188 276.597 279.028C276.869 278.86 277.081 278.64 277.233 278.368C277.393 278.088 277.473 277.78 277.473 277.444C277.473 277.092 277.393 276.78 277.233 276.508C277.081 276.228 276.869 276.008 276.597 275.848C276.333 275.688 276.033 275.608 275.697 275.608C275.361 275.608 275.057 275.688 274.785 275.848C274.521 276.008 274.309 276.228 274.149 276.508C273.989 276.78 273.909 277.092 273.909 277.444C273.909 277.788 273.989 278.096 274.149 278.368C274.309 278.64 274.525 278.86 274.797 279.028C275.069 279.188 275.369 279.268 275.697 279.268ZM283.046 283.12C282.422 283.12 281.85 282.944 281.33 282.592C280.818 282.24 280.41 281.744 280.106 281.104C279.802 280.456 279.65 279.696 279.65 278.824C279.65 277.952 279.798 277.196 280.094 276.556C280.398 275.916 280.806 275.424 281.318 275.08C281.83 274.728 282.394 274.552 283.01 274.552C283.642 274.552 284.214 274.728 284.726 275.08C285.238 275.424 285.642 275.916 285.938 276.556C286.242 277.196 286.394 277.956 286.394 278.836C286.394 279.708 286.242 280.468 285.938 281.116C285.642 281.756 285.238 282.252 284.726 282.604C284.222 282.948 283.662 283.12 283.046 283.12ZM283.022 282.052C283.462 282.052 283.846 281.932 284.174 281.692C284.51 281.444 284.774 281.08 284.966 280.6C285.158 280.12 285.254 279.528 285.254 278.824C285.254 278.12 285.158 277.532 284.966 277.06C284.774 276.58 284.51 276.22 284.174 275.98C283.838 275.732 283.45 275.608 283.01 275.608C282.578 275.608 282.194 275.732 281.858 275.98C281.522 276.22 281.258 276.58 281.066 277.06C280.882 277.532 280.79 278.12 280.79 278.824C280.79 279.528 280.882 280.12 281.066 280.6C281.258 281.08 281.522 281.444 281.858 281.692C282.194 281.932 282.582 282.052 283.022 282.052ZM287.705 283L293.045 274.672H294.137L288.797 283H287.705ZM292.589 283.12C292.277 283.12 291.993 283.044 291.737 282.892C291.481 282.74 291.277 282.54 291.125 282.292C290.973 282.036 290.897 281.748 290.897 281.428C290.897 281.116 290.973 280.836 291.125 280.588C291.277 280.332 291.481 280.128 291.737 279.976C291.993 279.824 292.277 279.748 292.589 279.748C292.901 279.748 293.185 279.824 293.441 279.976C293.705 280.128 293.913 280.332 294.065 280.588C294.217 280.836 294.293 281.116 294.293 281.428C294.293 281.748 294.217 282.036 294.065 282.292C293.913 282.54 293.709 282.74 293.453 282.892C293.197 283.044 292.909 283.12 292.589 283.12ZM292.589 282.268C292.829 282.268 293.025 282.192 293.177 282.04C293.329 281.88 293.405 281.676 293.405 281.428C293.405 281.188 293.325 280.992 293.165 280.84C293.013 280.68 292.821 280.6 292.589 280.6C292.357 280.6 292.165 280.68 292.013 280.84C291.861 280.992 291.785 281.188 291.785 281.428C291.785 281.676 291.861 281.88 292.013 282.04C292.165 282.192 292.357 282.268 292.589 282.268ZM289.241 277.924C288.937 277.924 288.657 277.848 288.401 277.696C288.145 277.544 287.941 277.34 287.789 277.084C287.637 276.828 287.561 276.544 287.561 276.232C287.561 275.912 287.633 275.628 287.777 275.38C287.929 275.132 288.133 274.932 288.389 274.78C288.645 274.628 288.929 274.552 289.241 274.552C289.561 274.552 289.849 274.628 290.105 274.78C290.361 274.932 290.565 275.132 290.717 275.38C290.869 275.628 290.945 275.912 290.945 276.232C290.945 276.544 290.869 276.828 290.717 277.084C290.565 277.34 290.361 277.544 290.105 277.696C289.857 277.848 289.569 277.924 289.241 277.924ZM289.241 277.072C289.481 277.072 289.677 276.996 289.829 276.844C289.981 276.684 290.057 276.48 290.057 276.232C290.057 275.984 289.977 275.784 289.817 275.632C289.665 275.48 289.473 275.404 289.241 275.404C289.009 275.404 288.817 275.48 288.665 275.632C288.521 275.784 288.449 275.984 288.449 276.232C288.449 276.48 288.521 276.684 288.665 276.844C288.817 276.996 289.009 277.072 289.241 277.072Z" fill="#475569"/>
</g>
<defs>
<filter id="filter0_d_90_1140" x="195" y="242" width="134" height="73" filterUnits="userSpaceOnUse" color-interpolation-filters="sRGB">
<feFlood flood-opacity="0" result="BackgroundImageFix"/>
<feColorMatrix in="SourceAlpha" type="matrix" values="0 0 0 0 0 0 0 0 0 0 0 0 0 0 0 0 0 0 127 0" result="hardAlpha"/>
<feOffset/>
<feGaussianBlur stdDeviation="12"/>
<feComposite in2="hardAlpha" operator="out"/>
<feColorMatrix type="matrix" values="0 0 0 0 0.278431 0 0 0 0 0.333333 0 0 0 0 0.411765 0 0 0 0.1 0"/>
<feBlend mode="normal" in2="BackgroundImageFix" result="effect1_dropShadow_90_1140"/>
<feBlend mode="normal" in="SourceGraphic" in2="effect1_dropShadow_90_1140" result="shape"/>
</filter>
<clipPath id="clip0_90_1140">
<rect width="30" height="30" fill="white" transform="translate(471 15)"/>
</clipPath>
</defs>
</svg>
