<svg width="90" height="32" viewBox="0 0 90 32" fill="none" xmlns="http://www.w3.org/2000/svg">
<path d="M49.5866 25V7.425H52.9866V25H49.5866ZM52.0866 17.8V14.775H60.9366V17.8H52.0866ZM52.0866 10.425V7.425H61.3616V10.425H52.0866ZM63.6897 25V12.925H66.9897V25H63.6897ZM65.3397 10.975C64.8064 10.975 64.3647 10.8 64.0147 10.45C63.6647 10.0833 63.4897 9.63333 63.4897 9.1C63.4897 8.58333 63.6647 8.14167 64.0147 7.775C64.3647 7.40833 64.8064 7.225 65.3397 7.225C65.8897 7.225 66.3314 7.40833 66.6647 7.775C67.0147 8.14167 67.1897 8.58333 67.1897 9.1C67.1897 9.63333 67.0147 10.0833 66.6647 10.45C66.3314 10.8 65.8897 10.975 65.3397 10.975ZM69.8909 25V6.925H73.1659V25H69.8909ZM81.1177 25.25C80.0177 25.25 79.026 24.975 78.1427 24.425C77.2593 23.875 76.5677 23.125 76.0677 22.175C75.5677 21.225 75.3177 20.1583 75.3177 18.975C75.3177 17.775 75.5677 16.7 76.0677 15.75C76.5677 14.8 77.2593 14.05 78.1427 13.5C79.026 12.95 80.0177 12.675 81.1177 12.675C81.9843 12.675 82.7593 12.85 83.4427 13.2C84.126 13.55 84.6677 14.0417 85.0677 14.675C85.4843 15.2917 85.7093 15.9917 85.7427 16.775V21.125C85.7093 21.925 85.4843 22.6333 85.0677 23.25C84.6677 23.8667 84.126 24.3583 83.4427 24.725C82.7593 25.075 81.9843 25.25 81.1177 25.25ZM81.7177 22.225C82.6343 22.225 83.376 21.925 83.9427 21.325C84.5093 20.7083 84.7927 19.9167 84.7927 18.95C84.7927 18.3167 84.6593 17.7583 84.3927 17.275C84.1427 16.775 83.7843 16.3917 83.3177 16.125C82.8677 15.8417 82.3343 15.7 81.7177 15.7C81.1177 15.7 80.5843 15.8417 80.1177 16.125C79.6677 16.3917 79.3093 16.775 79.0427 17.275C78.7927 17.7583 78.6677 18.3167 78.6677 18.95C78.6677 19.6 78.7927 20.175 79.0427 20.675C79.3093 21.1583 79.6677 21.5417 80.1177 21.825C80.5843 22.0917 81.1177 22.225 81.7177 22.225ZM84.6177 25V21.75L85.1427 18.8L84.6177 15.9V12.925H87.8677V25H84.6177Z" fill="#475569"/>
<g clip-path="url(#clip0_94_1136)">
<path d="M9.25098 12.9638L36.0982 32L38.9732 3.56842L9.25098 12.9638Z" fill="#00CAE3"/>
<path d="M16.7537 0L0 28.1475L31.8218 23.5148L16.7537 0Z" fill="#0F79F3"/>
</g>
<defs>
<clipPath id="clip0_94_1136">
<rect width="38.9731" height="32" fill="white"/>
</clipPath>
</defs>
</svg>
