<svg width="50" height="50" viewBox="0 0 50 50" fill="none" xmlns="http://www.w3.org/2000/svg">
<g clip-path="url(#clip0_90_791)">
<path d="M43.05 24.5523L36.9141 21.4844C35.7109 24.1922 31.8672 24.1922 30.6641 21.4844L26.2766 23.6781C28.282 25.05 29.4922 27.3109 29.4922 29.793V37.1094H33.0078V33.9844C33.0078 33.1219 33.7078 32.4219 34.5703 32.4219H35.5469V29.2969C35.5469 28.4344 36.2469 27.7344 37.1094 27.7344H45.9008C45.3898 26.375 44.3937 25.2234 43.05 24.5523Z" fill="#64B5F6"/>
<path d="M36.5234 12.5C36.9549 12.5 37.3047 12.1502 37.3047 11.7188C37.3047 11.2873 36.9549 10.9375 36.5234 10.9375C36.092 10.9375 35.7422 11.2873 35.7422 11.7188C35.7422 12.1502 36.092 12.5 36.5234 12.5Z" fill="#475569"/>
<path d="M31.0547 12.5C31.4862 12.5 31.8359 12.1502 31.8359 11.7188C31.8359 11.2873 31.4862 10.9375 31.0547 10.9375C30.6232 10.9375 30.2734 11.2873 30.2734 11.7188C30.2734 12.1502 30.6232 12.5 31.0547 12.5Z" fill="#475569"/>
<path d="M38.0859 5.07812C37.8703 5.07812 37.6953 5.25313 37.6953 5.46875V9.375C37.6953 10.6672 38.7469 11.7188 40.0391 11.7188C40.2547 11.7188 40.4297 11.5437 40.4297 11.3281V7.42188C40.4297 6.12969 39.3781 5.07812 38.0859 5.07812ZM39.6484 10.8883C38.9758 10.7148 38.4766 10.1023 38.4766 9.375V5.90859C39.1492 6.08203 39.6484 6.69453 39.6484 7.42188V10.8883Z" fill="#475569"/>
<path d="M38.7648 3.48984C38.4445 2.78281 37.7625 2.34375 36.9867 2.34375H32.2266C28.7805 2.34375 25.9766 5.14766 25.9766 8.59375V9.76562C25.9766 9.87578 26.0234 9.97969 26.1039 10.0539C26.1758 10.1203 26.2703 10.1562 26.3672 10.1562C26.3789 10.1562 26.3906 10.1562 26.4023 10.1547L30.3258 9.79766C33.4375 9.51484 36.2844 8.06406 38.3438 5.7125L38.4563 5.58281C38.9672 4.99922 39.0852 4.19687 38.7648 3.48984ZM37.868 5.06875L37.7555 5.19844C35.8297 7.39844 33.1664 8.75547 30.2555 9.02031L26.757 9.33828V8.59375C26.757 5.57812 29.2109 3.125 32.2258 3.125H36.9859C37.4586 3.125 37.857 3.38203 38.0531 3.8125C38.2492 4.24375 38.1797 4.71328 37.868 5.06875Z" fill="#475569"/>
<path d="M40.0391 10.9375C39.8234 10.9375 39.6484 11.1125 39.6484 11.3282C39.6484 11.5438 39.8234 11.7188 40.0391 11.7188C40.6852 11.7188 41.2109 12.2446 41.2109 12.8907C41.2109 13.5368 40.6852 14.0625 40.0391 14.0625C39.8234 14.0625 39.6484 14.2375 39.6484 14.4532C39.6484 17.2532 37.3703 19.5313 34.5703 19.5313H33.0078C30.2078 19.5313 27.9297 17.2532 27.9297 14.4532C27.9297 14.2375 27.7547 14.0625 27.5391 14.0625C26.893 14.0625 26.3672 13.5368 26.3672 12.8907C26.3672 12.2446 26.893 11.7188 27.5391 11.7188C27.7547 11.7188 27.9297 11.5438 27.9297 11.3282V9.65942C27.9297 9.4438 27.7547 9.2688 27.5391 9.2688C27.3234 9.2688 27.1484 9.4438 27.1484 9.65942V10.9774C26.2578 11.1586 25.5859 11.9477 25.5859 12.8915C25.5859 13.8383 26.2633 14.6305 27.1594 14.8079C27.3422 17.8735 29.8961 20.3125 33.0078 20.3125H34.5703C37.682 20.3125 40.2359 17.8735 40.4187 14.8071C41.3141 14.6297 41.9922 13.8375 41.9922 12.8907C41.9922 11.8141 41.1164 10.9375 40.0391 10.9375Z" fill="#475569"/>
<path d="M37.1227 19.0586C37.0086 18.9868 36.868 18.9789 36.7469 19.036C36.0555 19.3649 35.3235 19.5313 34.5703 19.5313H33.0078C32.2547 19.5313 31.5227 19.3649 30.832 19.036C30.7117 18.9789 30.5688 18.9868 30.4563 19.0586C30.3422 19.1305 30.2742 19.2547 30.2742 19.3891V21.4844C30.2742 21.5391 30.2859 21.593 30.3078 21.643C30.9281 23.0391 32.2625 23.9055 33.7899 23.9055C35.3172 23.9055 36.6516 23.0383 37.2719 21.643C37.2938 21.593 37.3055 21.5391 37.3055 21.4844V19.3891C37.3047 19.2547 37.2359 19.1297 37.1227 19.0586ZM36.5234 21.3993C36.0172 22.4657 34.9766 23.1243 33.7891 23.1243C32.6016 23.1243 31.561 22.4657 31.0547 21.3985V19.9735C31.6844 20.1985 32.3391 20.3125 33.0078 20.3125H34.5703C35.2391 20.3125 35.8938 20.1985 36.5234 19.9735V21.3993Z" fill="#475569"/>
<path d="M36.1328 14.0625H31.4453C31.2297 14.0625 31.0547 14.2375 31.0547 14.4531C31.0547 15.9609 32.2812 17.1875 33.7891 17.1875C35.2969 17.1875 36.5234 15.9609 36.5234 14.4531C36.5234 14.2375 36.3484 14.0625 36.1328 14.0625ZM33.7891 16.4062C32.8461 16.4062 32.0562 15.7344 31.875 14.8438H35.7031C35.5219 15.7344 34.732 16.4062 33.7891 16.4062Z" fill="#475569"/>
<path d="M9.96094 3.125C10.1766 3.125 10.3516 2.95 10.3516 2.73438C10.3516 2.51875 10.1766 2.34375 9.96094 2.34375C7.59219 2.34375 5.66406 4.27109 5.66406 6.64062V19.9219C5.66406 20.1375 5.83906 20.3125 6.05469 20.3125C7.99453 20.3125 9.70078 19.0055 10.2047 17.1344C10.2609 16.9258 10.1375 16.7117 9.92891 16.6555C9.72266 16.6016 9.50625 16.7234 9.45078 16.9313C9.07266 18.3352 7.86719 19.3508 6.44531 19.5094V6.64062C6.44531 4.70234 8.02266 3.125 9.96094 3.125Z" fill="#475569"/>
<path d="M27.9297 37.1094V29.793C27.9297 27.5734 26.6758 25.5445 24.6906 24.5523L18.5547 21.4844C17.3516 24.1922 13.5078 24.1922 12.3047 21.4844L6.16875 24.5523C4.18359 25.5445 2.92969 27.5734 2.92969 29.793V37.1094" fill="#FFCA28"/>
<path d="M24.8656 24.2025L18.7297 21.1345C18.6344 21.0868 18.5234 21.0806 18.4227 21.1165C18.3219 21.1525 18.2414 21.2282 18.1977 21.3259C17.7047 22.4353 16.6445 23.1251 15.4297 23.1251C14.2148 23.1251 13.1547 22.4361 12.6617 21.3259C12.618 21.2282 12.5375 21.1532 12.4367 21.1165C12.3359 21.0806 12.225 21.0868 12.1297 21.1345L5.99375 24.2025C3.8625 25.2681 2.53906 27.4103 2.53906 29.7923V37.1095C2.53906 37.3251 2.71406 37.5001 2.92969 37.5001C3.14531 37.5001 3.32031 37.3251 3.32031 37.1095V29.7931C3.32031 27.7087 4.47813 25.8345 6.34297 24.9017L12.132 22.0072C12.8094 23.1876 14.0391 23.9056 15.4297 23.9056C16.8203 23.9056 18.05 23.1876 18.7273 22.0072L24.5164 24.9017C26.3813 25.8345 27.5391 27.7087 27.5391 29.7931V37.1095C27.5391 37.3251 27.7141 37.5001 27.9297 37.5001C28.1453 37.5001 28.3203 37.3251 28.3203 37.1095V29.7931C28.3203 27.4103 26.9969 25.2689 24.8656 24.2025Z" fill="#475569"/>
<path d="M46.2765 27.5852C45.7195 26.1094 44.6351 24.9086 43.225 24.2024L37.089 21.1344C36.9945 21.0867 36.8828 21.0805 36.782 21.1164C36.6812 21.1524 36.6008 21.2281 36.557 21.3258C36.064 22.4352 35.0039 23.1242 33.789 23.1242C32.5742 23.1242 31.514 22.4352 31.0211 21.325C30.9773 21.2274 30.8969 21.1524 30.7961 21.1156C30.6953 21.0789 30.5844 21.0859 30.489 21.1336L26.1023 23.3274C25.9094 23.4242 25.8312 23.6586 25.9273 23.8516C26.0242 24.0445 26.2586 24.1219 26.4515 24.0266L30.4914 22.007C31.1687 23.1875 32.3984 23.9055 33.789 23.9055C35.1797 23.9055 36.4094 23.1875 37.0867 22.007L42.8758 24.9016C44.1101 25.5188 45.0586 26.5703 45.5461 27.8617C45.6047 28.018 45.7539 28.1141 45.9117 28.1141C45.9578 28.1141 46.0039 28.1063 46.05 28.0891C46.2508 28.0125 46.3531 27.7875 46.2765 27.5852Z" fill="#475569"/>
<path d="M18.1641 12.5C18.5955 12.5 18.9453 12.1502 18.9453 11.7188C18.9453 11.2873 18.5955 10.9375 18.1641 10.9375C17.7326 10.9375 17.3828 11.2873 17.3828 11.7188C17.3828 12.1502 17.7326 12.5 18.1641 12.5Z" fill="#475569"/>
<path d="M12.6953 12.5C13.1268 12.5 13.4766 12.1502 13.4766 11.7188C13.4766 11.2873 13.1268 10.9375 12.6953 10.9375C12.2638 10.9375 11.9141 11.2873 11.9141 11.7188C11.9141 12.1502 12.2638 12.5 12.6953 12.5Z" fill="#475569"/>
<path d="M8.39844 32.0312C8.18281 32.0312 8.00781 32.2063 8.00781 32.4219V37.1094C8.00781 37.325 8.18281 37.5 8.39844 37.5C8.61406 37.5 8.78906 37.325 8.78906 37.1094V32.4219C8.78906 32.2055 8.61406 32.0312 8.39844 32.0312Z" fill="#475569"/>
<path d="M22.4609 32.0312C22.2453 32.0312 22.0703 32.2063 22.0703 32.4219V37.1094C22.0703 37.325 22.2453 37.5 22.4609 37.5C22.6766 37.5 22.8516 37.325 22.8516 37.1094V32.4219C22.8516 32.2055 22.6766 32.0312 22.4609 32.0312Z" fill="#475569"/>
<path d="M16.9922 2.34375H13.8672C10.4211 2.34375 7.61719 5.14766 7.61719 8.59375V9.76562C7.61719 9.98125 7.79219 10.1562 8.00781 10.1562H8.32812C9.8875 10.1562 11.2969 9.33125 12.0602 7.98906L13.0461 8.64687C14.4945 9.61172 16.3648 9.61172 17.8133 8.64687L18.7992 7.98906C19.5625 9.33125 20.9719 10.1562 22.5312 10.1562H22.8516C23.0672 10.1562 23.2422 9.98125 23.2422 9.76562V8.59375C23.2422 5.14766 20.4383 2.34375 16.9922 2.34375ZM22.4609 9.37422C21.1484 9.34844 19.975 8.60937 19.3867 7.43203L19.2945 7.24766C19.2445 7.14766 19.1531 7.07344 19.0453 7.04453C19.0125 7.03516 18.9789 7.03125 18.9453 7.03125C18.8687 7.03125 18.7937 7.05391 18.7289 7.09687L17.3797 7.99609C16.1953 8.78594 14.6633 8.78594 13.4797 7.99609L12.1305 7.09687C12.0367 7.03437 11.9195 7.01562 11.8141 7.04453C11.7055 7.07344 11.6148 7.14688 11.5648 7.24766L11.4727 7.43203C10.8844 8.60937 9.71094 9.34922 8.39844 9.37422V8.59375C8.39844 5.57812 10.8523 3.125 13.8672 3.125H16.9922C20.007 3.125 22.4609 5.57812 22.4609 8.59375V9.37422Z" fill="#475569"/>
<path d="M10.3516 0.390625C9.05703 0.390625 8.00781 1.43984 8.00781 2.73437C8.00781 3.67266 8.56328 4.47656 9.36016 4.85078C10.1945 3.84687 11.357 3.12656 12.6836 2.85391C12.6852 2.81406 12.6953 2.77578 12.6953 2.73437C12.6953 1.43984 11.6461 0.390625 10.3516 0.390625Z" fill="#EF5350"/>
<path d="M10.3516 0C8.84375 0 7.61719 1.22656 7.61719 2.73437C7.61719 3.78516 8.23594 4.75469 9.19375 5.20469C9.24687 5.22969 9.30391 5.24141 9.36016 5.24141C9.47344 5.24141 9.58438 5.19219 9.66094 5.10078C10.4547 4.14609 11.5563 3.48437 12.7625 3.23672C12.9242 3.20391 13.0531 3.02031 13.0766 2.85625C13.0781 2.83906 13.0859 2.75234 13.0859 2.73437C13.0859 1.22656 11.8594 0 10.3516 0ZM9.27422 4.35625C8.73516 3.99766 8.39844 3.3875 8.39844 2.73437C8.39844 1.65781 9.27422 0.78125 10.3516 0.78125C11.3609 0.78125 12.1938 1.55078 12.2922 2.54453C11.1406 2.84453 10.0875 3.47656 9.27422 4.35625Z" fill="#475569"/>
<path d="M22.0703 10.9766V9.76562C22.0703 9.55 21.8953 9.375 21.6797 9.375C21.4641 9.375 21.2891 9.55 21.2891 9.76562V11.3281C21.2891 11.5438 21.4641 11.7188 21.6797 11.7188C22.3258 11.7188 22.8516 12.2445 22.8516 12.8906C22.8516 13.5367 22.3258 14.0625 21.6797 14.0625C21.4641 14.0625 21.2891 14.2375 21.2891 14.4531C21.2891 17.2531 19.0109 19.5312 16.2109 19.5312H14.6484C11.8484 19.5312 9.57031 17.2531 9.57031 14.4531C9.57031 14.2375 9.39531 14.0625 9.17969 14.0625C8.53359 14.0625 8.00781 13.5367 8.00781 12.8906C8.00781 12.2445 8.53359 11.7188 9.17969 11.7188C9.39531 11.7188 9.57031 11.5438 9.57031 11.3281V9.76562C9.57031 9.55 9.39531 9.375 9.17969 9.375C8.96406 9.375 8.78906 9.55 8.78906 9.76562V10.9766C7.89844 11.1578 7.22656 11.9469 7.22656 12.8906C7.22656 13.8375 7.90391 14.6297 8.8 14.807C8.98281 17.8734 11.5367 20.3125 14.6484 20.3125H16.2109C19.3227 20.3125 21.8766 17.8734 22.0594 14.807C22.9547 14.6297 23.6328 13.8375 23.6328 12.8906C23.6328 11.9469 22.9609 11.1586 22.0703 10.9766Z" fill="#475569"/>
<path d="M18.7633 19.0586C18.65 18.9868 18.5086 18.9789 18.3875 19.036C17.6961 19.3649 16.9641 19.5313 16.2109 19.5313H14.6484C13.8953 19.5313 13.1633 19.3649 12.4727 19.036C12.3524 18.9789 12.2102 18.9868 12.0969 19.0586C11.9836 19.1305 11.9149 19.2547 11.9149 19.3891V21.4844C11.9149 21.5391 11.9266 21.593 11.9484 21.643C12.5688 23.0391 13.9031 23.9055 15.4305 23.9055C16.9578 23.9055 18.2922 23.0383 18.9125 21.643C18.9344 21.593 18.9461 21.5391 18.9461 21.4844V19.3891C18.9453 19.2547 18.8766 19.1297 18.7633 19.0586ZM18.1641 21.3993C17.6578 22.4657 16.6172 23.1243 15.4297 23.1243C14.2422 23.1243 13.2016 22.4657 12.6953 21.3985V19.9735C13.325 20.1985 13.9797 20.3125 14.6484 20.3125H16.2109C16.8797 20.3125 17.5344 20.1985 18.1641 19.9735V21.3993Z" fill="#475569"/>
<path d="M17.7734 14.0625H13.0859C12.8703 14.0625 12.6953 14.2375 12.6953 14.4531C12.6953 15.9609 13.9219 17.1875 15.4297 17.1875C16.9375 17.1875 18.1641 15.9609 18.1641 14.4531C18.1641 14.2375 17.9891 14.0625 17.7734 14.0625ZM15.4297 16.4062C14.4867 16.4062 13.6969 15.7344 13.5156 14.8438H17.3438C17.1625 15.7344 16.3727 16.4062 15.4297 16.4062Z" fill="#475569"/>
<path d="M47.6562 38.2812H12.3047C12.0891 38.2812 11.9141 38.4563 11.9141 38.6719C11.9141 38.8875 12.0891 39.0625 12.3047 39.0625H47.6562C48.518 39.0625 49.2188 39.7633 49.2188 40.625V41.4062C49.2188 42.268 48.518 42.9688 47.6562 42.9688H2.34375C1.48203 42.9688 0.78125 42.268 0.78125 41.4062V40.625C0.78125 39.7633 1.48203 39.0625 2.34375 39.0625H5.27344C5.48906 39.0625 5.66406 38.8875 5.66406 38.6719C5.66406 38.4563 5.48906 38.2812 5.27344 38.2812H2.34375C1.05156 38.2812 0 39.3328 0 40.625V41.4062C0 42.6984 1.05156 43.75 2.34375 43.75H47.6562C48.9484 43.75 50 42.6984 50 41.4062V40.625C50 39.3328 48.9484 38.2812 47.6562 38.2812Z" fill="#475569"/>
<path d="M9.96094 38.2812H7.61719C7.40156 38.2812 7.22656 38.4563 7.22656 38.6719C7.22656 38.8875 7.40156 39.0625 7.61719 39.0625H9.96094C10.1766 39.0625 10.3516 38.8875 10.3516 38.6719C10.3516 38.4563 10.1766 38.2812 9.96094 38.2812Z" fill="#475569"/>
<path d="M7.22656 44.5312C7.01094 44.5312 6.83594 44.7063 6.83594 44.9219V49.6094C6.83594 49.825 7.01094 50 7.22656 50C7.44219 50 7.61719 49.825 7.61719 49.6094V44.9219C7.61719 44.7063 7.44219 44.5312 7.22656 44.5312Z" fill="#475569"/>
<path d="M2.53906 44.5312C2.32344 44.5312 2.14844 44.7063 2.14844 44.9219V49.6094C2.14844 49.825 2.32344 50 2.53906 50C2.75469 50 2.92969 49.825 2.92969 49.6094V44.9219C2.92969 44.7063 2.75469 44.5312 2.53906 44.5312Z" fill="#475569"/>
<path d="M47.0703 44.5312C46.8547 44.5312 46.6797 44.7063 46.6797 44.9219V49.6094C46.6797 49.825 46.8547 50 47.0703 50C47.2859 50 47.4609 49.825 47.4609 49.6094V44.9219C47.4609 44.7063 47.2859 44.5312 47.0703 44.5312Z" fill="#475569"/>
<path d="M42.3828 44.5312C42.1672 44.5312 41.9922 44.7063 41.9922 44.9219V49.6094C41.9922 49.825 42.1672 50 42.3828 50C42.5984 50 42.7734 49.825 42.7734 49.6094V44.9219C42.7734 44.7063 42.5984 44.5312 42.3828 44.5312Z" fill="#475569"/>
<path d="M44.7266 33.9844H34.5703V38.6719H44.7266C46.0211 38.6719 47.0703 37.6227 47.0703 36.3281C47.0703 35.0336 46.0211 33.9844 44.7266 33.9844Z" fill="#EF5350"/>
<path d="M44.7266 33.5938H34.5703C34.3547 33.5938 34.1797 33.7688 34.1797 33.9844V38.6719C34.1797 38.8875 34.3547 39.0625 34.5703 39.0625H44.7266C46.2344 39.0625 47.4609 37.8359 47.4609 36.3281C47.4609 34.8203 46.2344 33.5938 44.7266 33.5938ZM44.7266 38.2812H34.9609V34.375H44.7266C45.8039 34.375 46.6797 35.2516 46.6797 36.3281C46.6797 37.4047 45.8039 38.2812 44.7266 38.2812Z" fill="#475569"/>
<path d="M44.1531 35.5469H34.5703V37.1094H44.1531C44.5844 37.1094 44.9344 36.7594 44.9344 36.3281C44.9344 35.8969 44.5844 35.5469 44.1531 35.5469Z" fill="white"/>
<path d="M44.1531 35.1562H34.5703C34.3547 35.1562 34.1797 35.3313 34.1797 35.5469V37.1094C34.1797 37.325 34.3547 37.5 34.5703 37.5H44.1531C44.7992 37.5 45.325 36.9742 45.325 36.3281C45.325 35.682 44.7992 35.1562 44.1531 35.1562ZM44.1531 36.7188H34.9609V35.9375H44.1531C44.368 35.9375 44.5438 36.1125 44.5438 36.3281C44.5438 36.5438 44.368 36.7188 44.1531 36.7188Z" fill="#475569"/>
<path d="M47.2656 29.2969H37.1094V33.9844H47.2656C48.5602 33.9844 49.6094 32.9352 49.6094 31.6406C49.6094 30.3461 48.5602 29.2969 47.2656 29.2969Z" fill="#EF5350"/>
<path d="M47.2656 28.9062H37.1094C36.8938 28.9062 36.7188 29.0813 36.7188 29.2969V33.9844C36.7188 34.2 36.8938 34.375 37.1094 34.375H47.2656C48.7734 34.375 50 33.1484 50 31.6406C50 30.1328 48.7734 28.9062 47.2656 28.9062ZM47.2656 33.5938H37.5V29.6875H47.2656C48.343 29.6875 49.2188 30.5641 49.2188 31.6406C49.2188 32.7172 48.343 33.5938 47.2656 33.5938Z" fill="#475569"/>
<path d="M46.6922 30.8594H37.1094V32.4219H46.6922C47.1234 32.4219 47.4734 32.0719 47.4734 31.6406C47.4734 31.2094 47.1234 30.8594 46.6922 30.8594Z" fill="white"/>
<path d="M46.6922 30.4688H37.1094C36.8938 30.4688 36.7188 30.6438 36.7188 30.8594V32.4219C36.7188 32.6375 36.8938 32.8125 37.1094 32.8125H46.6922C47.3383 32.8125 47.8641 32.2867 47.8641 31.6406C47.8641 30.9945 47.3383 30.4688 46.6922 30.4688ZM46.6922 32.0312H37.5V31.25H46.6922C46.907 31.25 47.0828 31.425 47.0828 31.6406C47.0828 31.8563 46.907 32.0312 46.6922 32.0312Z" fill="#475569"/>
</g>
<defs>
<clipPath id="clip0_90_791">
<rect width="50" height="50" fill="white"/>
</clipPath>
</defs>
</svg>
