<svg width="50" height="50" viewBox="0 0 50 50" fill="none" xmlns="http://www.w3.org/2000/svg">
<g clip-path="url(#clip0_90_744)">
<path d="M15.4133 35.9188C15.3211 35.8875 15.2289 35.8578 15.1352 35.8297L12.8906 35.1562C11.7188 36.7188 9.375 36.7188 8.20312 35.1562L5.95859 35.8297C2.65391 36.8211 0.390625 39.8625 0.390625 43.3125V46.875H12.5V42.7188C12.5 40.0906 13.5773 37.6594 15.4172 35.9203C15.4156 35.9195 15.4148 35.9188 15.4133 35.9188Z" fill="#64B5F6"/>
<path d="M44.0414 35.8297L41.7968 35.1562C40.625 36.7188 38.2812 36.7188 37.1093 35.1562L34.8648 35.8297C34.771 35.8578 34.6781 35.8875 34.5867 35.9188C34.5851 35.9188 34.5843 35.9195 34.5828 35.9203C36.4226 37.6594 37.5 40.0898 37.5 42.7188V46.875H49.6093V43.3125C49.6093 39.8625 47.346 36.8211 44.0414 35.8297Z" fill="#64B5F6"/>
<path d="M17.9688 29.782C17.7531 29.782 17.5781 29.957 17.5781 30.1726V34.1906C17.5781 34.4062 17.7531 34.5812 17.9688 34.5812C18.1844 34.5812 18.3594 34.4062 18.3594 34.1906V30.1726C18.3594 29.957 18.1844 29.782 17.9688 29.782Z" fill="#475569"/>
<path d="M15.5398 35.5484C15.4438 35.5156 15.3461 35.4851 15.2477 35.4554L13.0023 34.7828C12.8469 34.7351 12.6766 34.7921 12.5781 34.9226C12.0938 35.5679 11.3539 35.9382 10.5469 35.9382C9.73984 35.9382 9 35.5679 8.51562 34.9226C8.41797 34.7921 8.24844 34.7359 8.09141 34.7828L5.84609 35.4554C2.34922 36.5046 0 39.6625 0 43.3125V46.875C0 47.0906 0.175 47.2656 0.390625 47.2656C0.60625 47.2656 0.78125 47.0906 0.78125 46.875V43.3125C0.78125 40.0093 2.90703 37.1523 6.07031 36.2023L8.06563 35.6046C8.69453 36.3156 9.58516 36.7187 10.5469 36.7187C11.5086 36.7187 12.3992 36.3156 13.0281 35.6054L15.0227 36.2031C15.1117 36.2296 15.2 36.2586 15.2875 36.2882C15.493 36.3562 15.7133 36.2484 15.7828 36.0445C15.8531 35.8398 15.7438 35.6179 15.5398 35.5484Z" fill="#475569"/>
<path d="M13.2812 26.9531C13.7127 26.9531 14.0625 26.6033 14.0625 26.1719C14.0625 25.7404 13.7127 25.3906 13.2812 25.3906C12.8498 25.3906 12.5 25.7404 12.5 26.1719C12.5 26.6033 12.8498 26.9531 13.2812 26.9531Z" fill="#475569"/>
<path d="M7.8125 26.9531C8.24397 26.9531 8.59375 26.6033 8.59375 26.1719C8.59375 25.7404 8.24397 25.3906 7.8125 25.3906C7.38103 25.3906 7.03125 25.7404 7.03125 26.1719C7.03125 26.6033 7.38103 26.9531 7.8125 26.9531Z" fill="#475569"/>
<path d="M5.07812 43.3594C4.8625 43.3594 4.6875 43.5344 4.6875 43.75V46.875C4.6875 47.0906 4.8625 47.2656 5.07812 47.2656C5.29375 47.2656 5.46875 47.0906 5.46875 46.875V43.75C5.46875 43.5344 5.29375 43.3594 5.07812 43.3594Z" fill="#475569"/>
<path d="M17.525 27.9079C17.3469 27.786 17.1039 27.8297 16.982 28.0079C16.7625 28.3258 16.4016 28.5157 16.0164 28.5157C15.8008 28.5157 15.6258 28.6907 15.6258 28.9063V29.2969C15.6258 31.2352 14.0484 32.8125 12.1102 32.8125H8.98516C7.04609 32.8125 5.46875 31.2352 5.46875 29.2969V28.9063C5.46875 28.6907 5.29375 28.5157 5.07812 28.5157C4.43203 28.5157 3.90625 27.9899 3.90625 27.3438C3.90625 26.6977 4.43203 26.1719 5.07812 26.1719C5.29375 26.1719 5.46875 25.9969 5.46875 25.7813V23.5461C5.46875 23.3305 5.29375 23.1555 5.07812 23.1555C4.8625 23.1555 4.6875 23.3297 4.6875 23.5461V25.4297C3.79687 25.611 3.125 26.4008 3.125 27.3438C3.125 28.2868 3.79687 29.0766 4.6875 29.2579V29.2969C4.6875 31.6657 6.61484 33.5938 8.98437 33.5938H12.1094C14.4789 33.5938 16.4062 31.6657 16.4062 29.2969V29.2571C16.8961 29.1571 17.3352 28.8719 17.625 28.4516C17.7469 28.2735 17.7023 28.0305 17.525 27.9079Z" fill="#475569"/>
<path d="M12.8906 28.125H8.20312C7.9875 28.125 7.8125 28.3 7.8125 28.5156C7.8125 30.0234 9.03906 31.25 10.5469 31.25C12.0547 31.25 13.2812 30.0234 13.2812 28.5156C13.2812 28.3 13.1062 28.125 12.8906 28.125ZM10.5469 30.4688C9.60313 30.4688 8.81484 29.7969 8.63281 28.9062H12.4602C12.2789 29.7969 11.4906 30.4688 10.5469 30.4688Z" fill="#475569"/>
<path d="M8.20312 32.8125C7.9875 32.8125 7.8125 32.9875 7.8125 33.2031V35.1562C7.8125 35.3719 7.9875 35.5469 8.20312 35.5469C8.41875 35.5469 8.59375 35.3719 8.59375 35.1562V33.2031C8.59375 32.9875 8.41875 32.8125 8.20312 32.8125Z" fill="#475569"/>
<path d="M12.8906 32.8125C12.675 32.8125 12.5 32.9875 12.5 33.2031V35.1562C12.5 35.3719 12.675 35.5469 12.8906 35.5469C13.1062 35.5469 13.2812 35.3719 13.2812 35.1562V33.2031C13.2812 32.9875 13.1062 32.8125 12.8906 32.8125Z" fill="#475569"/>
<path d="M44.1539 35.4554L41.9086 34.7828C41.7531 34.7351 41.5828 34.7921 41.4843 34.9226C41 35.5679 40.2601 35.9382 39.4531 35.9382C38.6461 35.9382 37.9062 35.5679 37.4218 34.9226C37.3242 34.7921 37.1546 34.7359 36.9976 34.7828L34.7515 35.4554C34.6539 35.4851 34.5562 35.5156 34.4601 35.5484C34.2562 35.6179 34.1468 35.8398 34.2164 36.0445C34.2859 36.2492 34.5086 36.3562 34.7117 36.2882C34.7992 36.2586 34.8875 36.2296 34.9757 36.2031L36.9711 35.6054C37.6007 36.3156 38.4914 36.7187 39.4531 36.7187C40.4148 36.7187 41.3054 36.3156 41.9343 35.6054L43.9296 36.2031C47.0929 37.1531 49.2187 40.0101 49.2187 43.3125V46.875C49.2187 47.0906 49.3937 47.2656 49.6093 47.2656C49.825 47.2656 50 47.0906 50 46.875V43.3125C50 39.6625 47.6507 36.5046 44.1539 35.4554Z" fill="#475569"/>
<path d="M42.1875 27.3438C42.619 27.3438 42.9688 26.994 42.9688 26.5625C42.9688 26.131 42.619 25.7812 42.1875 25.7812C41.756 25.7812 41.4062 26.131 41.4062 26.5625C41.4062 26.994 41.756 27.3438 42.1875 27.3438Z" fill="#475569"/>
<path d="M36.7188 27.3438C37.1502 27.3438 37.5 26.994 37.5 26.5625C37.5 26.131 37.1502 25.7812 36.7188 25.7812C36.2873 25.7812 35.9375 26.131 35.9375 26.5625C35.9375 26.994 36.2873 27.3438 36.7188 27.3438Z" fill="#475569"/>
<path d="M44.9219 43.3594C44.7063 43.3594 44.5312 43.5344 44.5312 43.75V46.875C44.5312 47.0906 44.7063 47.2656 44.9219 47.2656C45.1375 47.2656 45.3125 47.0906 45.3125 46.875V43.75C45.3125 43.5344 45.1375 43.3594 44.9219 43.3594Z" fill="#475569"/>
<path d="M44.9218 25.3906C44.7062 25.3906 44.5312 25.5656 44.5312 25.7812C44.5312 25.9969 44.7062 26.1719 44.9218 26.1719C45.5679 26.1719 46.0937 26.6977 46.0937 27.3438C46.0937 27.9898 45.5679 28.5156 44.9218 28.5156C44.7062 28.5156 44.5312 28.6906 44.5312 28.9062V29.2969C44.5312 31.2352 42.9539 32.8125 41.0156 32.8125H37.8906C35.9523 32.8125 34.375 31.2352 34.375 29.2969V28.9062C34.375 28.6906 34.2 28.5156 33.9843 28.5156C33.6 28.5156 33.2398 28.3273 33.0203 28.0109C32.8968 27.8336 32.6539 27.7906 32.4765 27.9125C32.2992 28.0359 32.2554 28.2797 32.3789 28.4562C32.6687 28.8734 33.1062 29.1578 33.5945 29.257V29.2969C33.5945 31.6656 35.5218 33.5938 37.8914 33.5938H41.0164C43.3859 33.5938 45.3132 31.6656 45.3132 29.2969V29.2578C46.2039 29.0766 46.8757 28.2867 46.8757 27.3438C46.875 26.2664 45.9984 25.3906 44.9218 25.3906Z" fill="#475569"/>
<path d="M41.4062 28.3203H37.5C37.2844 28.3203 37.1094 28.4953 37.1094 28.7109C37.1094 30.0031 38.1609 31.0547 39.4531 31.0547C40.7453 31.0547 41.7969 30.0031 41.7969 28.7109C41.7969 28.4953 41.6219 28.3203 41.4062 28.3203ZM39.4531 30.2734C38.7266 30.2734 38.1141 29.7742 37.9398 29.1016H40.9656C40.7922 29.7742 40.1797 30.2734 39.4531 30.2734Z" fill="#475569"/>
<path d="M37.1094 32.8125C36.8938 32.8125 36.7188 32.9875 36.7188 33.2031V35.1562C36.7188 35.3719 36.8938 35.5469 37.1094 35.5469C37.325 35.5469 37.5 35.3719 37.5 35.1562V33.2031C37.5 32.9875 37.325 32.8125 37.1094 32.8125Z" fill="#475569"/>
<path d="M41.7969 32.8125C41.5813 32.8125 41.4062 32.9875 41.4062 33.2031V35.1562C41.4062 35.3719 41.5813 35.5469 41.7969 35.5469C42.0125 35.5469 42.1875 35.3719 42.1875 35.1562V33.2031C42.1875 32.9875 42.0125 32.8125 41.7969 32.8125Z" fill="#475569"/>
<path d="M35.9375 49.6094V42.7188C35.9375 39.7594 34.2656 37.0547 31.6187 35.7313L28.125 33.9844C26.9219 36.6922 23.0781 36.6922 21.875 33.9844L18.3812 35.7313C15.7344 37.0547 14.0625 39.7594 14.0625 42.7188V49.6094" fill="#64B5F6"/>
<path d="M31.7937 35.3814L28.3 33.6353C28.2047 33.5876 28.0938 33.5822 27.993 33.6173C27.893 33.6532 27.8117 33.729 27.768 33.8267C27.275 34.9353 26.2141 35.6251 25 35.6251C23.7859 35.6251 22.725 34.9353 22.232 33.8259C22.1883 33.7282 22.107 33.6525 22.007 33.6165C21.9078 33.5806 21.7961 33.5868 21.7 33.6345L18.2063 35.3806C15.4094 36.7798 13.6719 39.5915 13.6719 42.7181V49.6087C13.6719 49.8243 13.8469 49.9993 14.0625 49.9993C14.2781 49.9993 14.4531 49.8243 14.4531 49.6087V42.7181C14.4531 39.8892 16.025 37.3454 18.5555 36.0798L21.7023 34.5064C22.3805 35.6884 23.6102 36.4064 25 36.4064C26.3898 36.4064 27.6195 35.6884 28.2977 34.5072L31.4445 36.0806C33.975 37.3462 35.5469 39.89 35.5469 42.7189V49.6095C35.5469 49.8251 35.7219 50.0001 35.9375 50.0001C36.1531 50.0001 36.3281 49.8251 36.3281 49.6095V42.7189C36.3281 39.5923 34.5906 36.7806 31.7937 35.3814Z" fill="#475569"/>
<path d="M27.7344 25C28.1658 25 28.5156 24.6502 28.5156 24.2188C28.5156 23.7873 28.1658 23.4375 27.7344 23.4375C27.3029 23.4375 26.9531 23.7873 26.9531 24.2188C26.9531 24.6502 27.3029 25 27.7344 25Z" fill="#475569"/>
<path d="M22.2656 25C22.6971 25 23.0469 24.6502 23.0469 24.2188C23.0469 23.7873 22.6971 23.4375 22.2656 23.4375C21.8342 23.4375 21.4844 23.7873 21.4844 24.2188C21.4844 24.6502 21.8342 25 22.2656 25Z" fill="#475569"/>
<path d="M29.2969 17.9688V21.875C29.2969 22.9539 30.1711 23.8281 31.25 23.8281V19.9219C31.25 18.8438 30.3758 17.9688 29.2969 17.9688Z" fill="#EF5350"/>
<path d="M29.2969 17.5781C29.0813 17.5781 28.9062 17.7531 28.9062 17.9688V21.875C28.9062 23.1672 29.9578 24.2188 31.25 24.2188C31.4656 24.2188 31.6406 24.0437 31.6406 23.8281V19.9219C31.6406 18.6297 30.5891 17.5781 29.2969 17.5781ZM30.8594 23.3883C30.1859 23.2141 29.6875 22.6023 29.6875 21.875V18.4086C30.3609 18.5828 30.8594 19.1945 30.8594 19.9219V23.3883Z" fill="#475569"/>
<path d="M28.1969 15.2344H23.4375C20.2016 15.2344 17.5781 17.8578 17.5781 21.0938V22.2656L21.5016 21.9086C24.4992 21.6359 27.2773 20.2203 29.2602 17.9547L29.3734 17.825C30.257 16.8156 29.5398 15.2344 28.1969 15.2344Z" fill="#EF5350"/>
<path d="M29.9758 15.9898C29.6547 15.2828 28.9734 14.8438 28.1969 14.8438H23.4375C19.9914 14.8438 17.1875 17.6477 17.1875 21.0938V22.2656C17.1875 22.3758 17.2336 22.4797 17.3148 22.5539C17.3867 22.6203 17.4813 22.6562 17.5781 22.6562C17.5898 22.6562 17.6016 22.6555 17.6133 22.6547L21.5367 22.2984C24.6484 22.0156 27.4961 20.5641 29.5531 18.2133L29.6672 18.0836C30.1781 17.4984 30.2961 16.6969 29.9758 15.9898ZM29.0797 17.568L28.9656 17.6977C27.0406 19.8977 24.3773 21.2555 21.4656 21.5203L17.9688 21.8375V21.0938C17.9688 18.0789 20.4219 15.625 23.4375 15.625H28.1969C28.6695 15.625 29.0688 15.882 29.2641 16.3133C29.4594 16.7438 29.3906 17.2133 29.0797 17.568Z" fill="#475569"/>
<path d="M42.9688 19.5312C42.7531 19.5312 42.5781 19.7063 42.5781 19.9219V23.8281C42.5781 25.1203 43.6297 26.1719 44.9219 26.1719C45.1375 26.1719 45.3125 25.9969 45.3125 25.7812V21.875C45.3125 20.5828 44.2609 19.5312 42.9688 19.5312ZM44.5312 25.3414C43.8578 25.1672 43.3594 24.5555 43.3594 23.8281V20.3617C44.0328 20.5359 44.5312 21.1477 44.5312 21.875V25.3414Z" fill="#475569"/>
<path d="M43.0797 19.6437C42.8187 19.0922 42.2773 18.75 41.6672 18.75H37.8906C35.5211 18.75 33.5938 20.6781 33.5938 23.0469V24.6094C33.5938 24.7242 33.6445 24.8344 33.7336 24.9086C33.8047 24.968 33.893 25 33.9844 25C34.007 25 34.0297 24.9977 34.0523 24.9938L37.9109 24.3133C39.7969 23.9805 41.5031 22.9813 42.7164 21.4977L42.8773 21.3016C43.2633 20.8297 43.3406 20.1945 43.0797 19.6437ZM42.2727 20.8078L42.1117 21.0039C41.0164 22.3422 39.4766 23.2437 37.775 23.5445L34.375 24.1437V23.0469C34.375 21.1086 35.9523 19.5312 37.8906 19.5312H41.6672C41.9766 19.5312 42.2406 19.6984 42.3734 19.9781C42.5062 20.2578 42.468 20.568 42.2727 20.8078Z" fill="#475569"/>
<path d="M31.25 23.4375C31.0344 23.4375 30.8594 23.6125 30.8594 23.8282C30.8594 24.0438 31.0344 24.2188 31.25 24.2188C31.8961 24.2188 32.4219 24.7446 32.4219 25.3907C32.4219 26.0368 31.8961 26.5625 31.25 26.5625C31.0344 26.5625 30.8594 26.7375 30.8594 26.9532C30.8594 29.7532 28.5813 32.0313 25.7812 32.0313H24.2188C21.4187 32.0313 19.1406 29.7532 19.1406 26.9532C19.1406 26.7375 18.9656 26.5625 18.75 26.5625C18.1039 26.5625 17.5781 26.0368 17.5781 25.3907C17.5781 24.7446 18.1039 24.2188 18.75 24.2188C18.9656 24.2188 19.1406 24.0438 19.1406 23.8282V22.1594C19.1406 21.9438 18.9656 21.7688 18.75 21.7688C18.5344 21.7688 18.3594 21.9438 18.3594 22.1594V23.4766C17.4688 23.6579 16.7969 24.4477 16.7969 25.3907C16.7969 26.3375 17.4742 27.1297 18.3703 27.3063C18.5531 30.3735 21.107 32.8125 24.2188 32.8125H25.7812C28.893 32.8125 31.4469 30.3735 31.6297 27.3063C32.525 27.129 33.2031 26.3375 33.2031 25.3907C33.2031 24.3133 32.3266 23.4375 31.25 23.4375Z" fill="#475569"/>
<path d="M16.3922 23.3234L16.3165 23.2719C16.2641 23.2367 16.211 23.2031 16.1618 23.1602L14.3172 21.5789C14.1852 21.4664 13.993 21.4539 13.8462 21.5508L12.4969 22.45C11.3118 23.2406 9.78053 23.2406 8.59693 22.45L7.24771 21.5508C7.1024 21.4539 6.91021 21.4672 6.77662 21.5789L4.93131 23.1609L4.83521 23.2398C4.66646 23.3734 4.63756 23.6188 4.77115 23.7883C4.90474 23.9563 5.15084 23.9867 5.32037 23.8516L7.06021 22.3649L8.16334 23.1C9.611 24.0656 11.4821 24.0656 12.9305 23.1L14.0337 22.3649L15.6532 23.7531C15.7258 23.8156 15.8047 23.8688 15.8837 23.9227L15.9493 23.9664C16.0165 24.0141 16.0946 24.0359 16.1704 24.0359C16.2946 24.0359 16.4165 23.9773 16.4922 23.8672C16.6149 23.6883 16.5696 23.4453 16.3922 23.3234Z" fill="#475569"/>
<path d="M16.6062 18.7125C15.4156 17.4773 13.8187 16.7969 12.1094 16.7969H8.98437C5.53828 16.7969 2.73438 19.6008 2.73438 23.0469V35.3625C2.73438 35.5781 2.90937 35.7531 3.125 35.7531C3.34062 35.7531 3.51562 35.5781 3.51562 35.3625V23.0469C3.51562 20.032 5.96875 17.5781 8.98437 17.5781H12.1094C13.6047 17.5781 15.0016 18.1734 16.0437 19.2547C16.1937 19.4117 16.4414 19.4141 16.5961 19.2656C16.7516 19.1148 16.7562 18.8672 16.6062 18.7125Z" fill="#475569"/>
<path d="M28.3336 31.5586C28.2195 31.4883 28.0773 31.4774 27.957 31.5367C27.2672 31.8649 26.5352 32.0313 25.7812 32.0313H24.2188C23.4648 32.0313 22.7328 31.8649 22.043 31.5359C21.9219 31.4774 21.7797 31.4875 21.6664 31.5578C21.5531 31.6297 21.4844 31.7539 21.4844 31.8883V33.9844C21.4844 34.0391 21.4961 34.093 21.518 34.143C22.1383 35.5383 23.4727 36.4063 25 36.4063C26.5273 36.4063 27.8617 35.5391 28.482 34.1438C28.5039 34.093 28.5156 34.0391 28.5156 33.9844V31.8883C28.5156 31.7547 28.4469 31.6297 28.3336 31.5586ZM27.7344 33.8992C27.2281 34.9656 26.1875 35.625 25 35.625C23.8125 35.625 22.7719 34.9656 22.2656 33.8992V32.4742C22.8945 32.6984 23.5492 32.8125 24.2188 32.8125H25.7812C26.4508 32.8125 27.1055 32.6984 27.7344 32.4734V33.8992Z" fill="#475569"/>
<path d="M27.3438 26.5625H22.6562C22.4406 26.5625 22.2656 26.7375 22.2656 26.9531C22.2656 28.4609 23.4922 29.6875 25 29.6875C26.5078 29.6875 27.7344 28.4609 27.7344 26.9531C27.7344 26.7375 27.5594 26.5625 27.3438 26.5625ZM25 28.9062C24.0563 28.9062 23.268 28.2344 23.0859 27.3438H26.9133C26.732 28.2344 25.9437 28.9062 25 28.9062Z" fill="#475569"/>
<path d="M17.9688 43.3594C17.7531 43.3594 17.5781 43.5344 17.5781 43.75V49.6094C17.5781 49.825 17.7531 50 17.9688 50C18.1844 50 18.3594 49.825 18.3594 49.6094V43.75C18.3594 43.5344 18.1844 43.3594 17.9688 43.3594Z" fill="#475569"/>
<path d="M32.0312 43.3594C31.8156 43.3594 31.6406 43.5344 31.6406 43.75V49.6094C31.6406 49.825 31.8156 50 32.0312 50C32.2469 50 32.4219 49.825 32.4219 49.6094V43.75C32.4219 43.5344 32.2469 43.3594 32.0312 43.3594Z" fill="#475569"/>
<path d="M39.8438 0.390625H10.1562C9.725 0.390625 9.375 0.740625 9.375 1.17188V8.98438C9.375 9.41562 9.725 9.76562 10.1562 9.76562H39.8438C40.275 9.76562 40.625 9.41562 40.625 8.98438V1.17188C40.625 0.740625 40.2758 0.390625 39.8438 0.390625Z" fill="#FFCA28"/>
<path d="M39.8438 0H10.1562C9.51016 0 8.98438 0.525781 8.98438 1.17188V8.98438C8.98438 9.63047 9.51016 10.1562 10.1562 10.1562H39.8438C40.4898 10.1562 41.0156 9.63047 41.0156 8.98438V1.17188C41.0156 0.525781 40.4906 0 39.8438 0ZM40.2344 8.98438C40.2344 9.19922 40.0594 9.375 39.8438 9.375H10.1562C9.94063 9.375 9.76562 9.19922 9.76562 8.98438V1.17188C9.76562 0.957031 9.94141 0.78125 10.1562 0.78125H39.8438C40.0594 0.78125 40.2344 0.957031 40.2344 1.17188V8.98438Z" fill="#475569"/>
<path d="M9.375 11.3281C8.5125 11.3281 7.8125 10.6281 7.8125 9.76562V3.51562H2.34375L5.46875 8.20312L2.34375 12.8906H14.8438V11.3281H9.375Z" fill="#FFCA28"/>
<path d="M14.8437 10.9375C14.6281 10.9375 14.4531 11.1125 14.4531 11.3281V12.5H3.0742L5.79452 8.41953C5.88202 8.28828 5.88202 8.11719 5.79452 7.98594L3.0742 3.90625H7.81248C8.02811 3.90625 8.20311 3.73125 8.20311 3.51562C8.20311 3.3 8.02811 3.125 7.81248 3.125H2.34374C2.19999 3.125 2.06717 3.20469 1.99999 3.33125C1.93202 3.45859 1.93983 3.6125 2.01952 3.73281L4.9992 8.20312L2.01874 12.6742C1.93905 12.7937 1.93124 12.9484 1.9992 13.0758C2.06717 13.2016 2.19999 13.2812 2.34374 13.2812H14.8437C15.0594 13.2812 15.2344 13.1062 15.2344 12.8906V11.3281C15.2344 11.1125 15.0601 10.9375 14.8437 10.9375Z" fill="#475569"/>
<path d="M47.6562 3.51562H42.1875V9.76562C42.1875 10.6281 41.4875 11.3281 40.625 11.3281H35.1562V12.8906H47.6562L44.5312 8.20312L47.6562 3.51562Z" fill="#FFCA28"/>
<path d="M45.0016 8.20312L47.982 3.73203C48.0617 3.6125 48.0695 3.45781 48.0016 3.33047C47.9328 3.20469 47.8008 3.125 47.6562 3.125H42.1875C41.9719 3.125 41.7969 3.3 41.7969 3.51562C41.7969 3.73125 41.9719 3.90625 42.1875 3.90625H46.9258L44.2055 7.98672C44.118 8.11797 44.118 8.28906 44.2055 8.42031L46.9266 12.5H35.5469V11.3281C35.5469 11.1125 35.3719 10.9375 35.1562 10.9375C34.9406 10.9375 34.7656 11.1125 34.7656 11.3281V12.8906C34.7656 13.1062 34.9406 13.2812 35.1562 13.2812H47.6562C47.8008 13.2812 47.9328 13.2016 48.0008 13.075C48.0688 12.9477 48.0609 12.7937 47.9813 12.6734L45.0016 8.20312Z" fill="#475569"/>
</g>
<defs>
<clipPath id="clip0_90_744">
<rect width="50" height="50" fill="white"/>
</clipPath>
</defs>
</svg>
