<svg width="50" height="50" viewBox="0 0 50 50" fill="none" xmlns="http://www.w3.org/2000/svg">
<path d="M12.5023 32.4219C10.1336 32.4219 8.20547 34.35 8.20547 36.7188C8.20547 39.0875 10.1336 41.0156 12.5023 41.0156C14.8711 41.0156 16.7992 39.0875 16.7992 36.7188C16.7992 34.35 14.8711 32.4219 12.5023 32.4219ZM12.5023 40.2344C10.5641 40.2344 8.98672 38.657 8.98672 36.7188C8.98672 34.7805 10.5641 33.2031 12.5023 33.2031C14.4406 33.2031 16.018 34.7805 16.018 36.7188C16.018 38.657 14.4406 40.2344 12.5023 40.2344Z" fill="#475569"/>
<path d="M10.932 40.0977C10.932 39.882 10.757 39.707 10.5414 39.707C10.3258 39.707 10.1508 39.8828 10.1508 40.0977L10.1516 40.7672L7.23438 42.093C6.39844 42.4719 5.85938 43.3102 5.85938 44.2266V46.875C5.85938 47.0906 6.03438 47.2656 6.25 47.2656C6.46563 47.2656 6.64063 47.0906 6.64063 46.875V44.2266C6.64063 43.6156 7.00078 43.057 7.55781 42.8039L10.7039 41.375C10.8438 41.3117 10.9328 41.1727 10.9328 41.0195L10.932 40.0977Z" fill="#475569"/>
<path d="M17.7672 42.0921L14.8391 40.7601L14.8383 40.1062C14.8383 39.8906 14.6633 39.7156 14.4477 39.7156C14.232 39.7156 14.057 39.8914 14.057 40.1062L14.0578 41.0117C14.0578 41.1648 14.1469 41.3039 14.2867 41.3671L17.4438 42.8031C18 43.0562 18.3594 43.614 18.3594 44.225V46.875C18.3594 47.0906 18.5344 47.2656 18.75 47.2656C18.9656 47.2656 19.1406 47.0906 19.1406 46.875V44.225C19.1406 43.3093 18.6016 42.4718 17.7672 42.0921Z" fill="#475569"/>
<path d="M25.0016 32.4219C22.6328 32.4219 20.7047 34.35 20.7047 36.7188C20.7047 39.0875 22.6328 41.0156 25.0016 41.0156C27.3703 41.0156 29.2985 39.0875 29.2985 36.7188C29.2985 34.35 27.3703 32.4219 25.0016 32.4219ZM25.0016 40.2344C23.0633 40.2344 21.486 38.657 21.486 36.7188C21.486 34.7805 23.0633 33.2031 25.0016 33.2031C26.9399 33.2031 28.5172 34.7805 28.5172 36.7188C28.5172 38.657 26.9399 40.2344 25.0016 40.2344Z" fill="#475569"/>
<path d="M23.432 40.0977C23.432 39.882 23.257 39.707 23.0414 39.707C22.8258 39.707 22.6508 39.8828 22.6508 40.0977L22.6516 40.7672L19.7352 42.0922C18.9 42.4703 18.3594 43.3086 18.3594 44.2258V46.875C18.3594 47.0906 18.5344 47.2656 18.75 47.2656C18.9656 47.2656 19.1406 47.0906 19.1406 46.875V44.2266C19.1406 43.6148 19.5008 43.0563 20.0578 42.8039L23.2039 41.375C23.3438 41.3117 23.4328 41.1727 23.4328 41.0195L23.432 40.0977Z" fill="#475569"/>
<path d="M30.2672 42.0921L27.339 40.7601L27.3383 40.1062C27.3383 39.8906 27.1633 39.7156 26.9476 39.7156C26.732 39.7156 26.557 39.8906 26.557 40.1062V41.0117C26.557 41.1648 26.6461 41.3039 26.7859 41.3671L29.9437 42.8031C30.5 43.0562 30.8594 43.6148 30.8594 44.225V46.875C30.8594 47.0906 31.0344 47.2656 31.25 47.2656C31.4656 47.2656 31.6406 47.0906 31.6406 46.875V44.225C31.6406 43.3101 31.1023 42.4718 30.2672 42.0921Z" fill="#475569"/>
<path d="M37.5016 32.4219C35.1328 32.4219 33.2047 34.35 33.2047 36.7188C33.2047 39.0875 35.1328 41.0156 37.5016 41.0156C39.8703 41.0156 41.7985 39.0875 41.7985 36.7188C41.7985 34.35 39.8703 32.4219 37.5016 32.4219ZM37.5016 40.2344C35.5633 40.2344 33.986 38.657 33.986 36.7188C33.986 34.7805 35.5633 33.2031 37.5016 33.2031C39.4399 33.2031 41.0172 34.7805 41.0172 36.7188C41.0172 38.657 39.4399 40.2344 37.5016 40.2344Z" fill="#475569"/>
<path d="M35.932 40.0977C35.932 39.882 35.757 39.707 35.5414 39.707C35.3258 39.707 35.1508 39.8828 35.1508 40.0977L35.1516 40.7672L32.2336 42.0922C31.3984 42.4719 30.8594 43.3102 30.8594 44.2266V46.875C30.8594 47.0906 31.0344 47.2656 31.25 47.2656C31.4656 47.2656 31.6406 47.0906 31.6406 46.875V44.2266C31.6406 43.6148 32 43.0563 32.557 42.8039L35.7039 41.375C35.8438 41.3117 35.9328 41.1727 35.9328 41.0195L35.932 40.0977Z" fill="#475569"/>
<path d="M42.7664 42.0921L39.8391 40.7601L39.8383 40.1062C39.8383 39.8906 39.6633 39.7156 39.4477 39.7156C39.2321 39.7156 39.0571 39.8906 39.0571 40.1062V41.0117C39.0571 41.1648 39.1461 41.3039 39.286 41.3671L42.443 42.8031C43 43.0562 43.3594 43.6148 43.3594 44.225V46.875C43.3594 47.0906 43.5344 47.2656 43.75 47.2656C43.9657 47.2656 44.1407 47.0906 44.1407 46.875V44.225C44.1407 43.3093 43.6016 42.4718 42.7664 42.0921Z" fill="#475569"/>
<path d="M25.0016 9.76562C22.2016 9.76562 19.9235 12.0437 19.9235 14.8438C19.9235 17.6438 22.2016 19.9219 25.0016 19.9219C27.8016 19.9219 30.0797 17.6438 30.0797 14.8438C30.0797 12.0437 27.8016 9.76562 25.0016 9.76562ZM25.0016 19.1406C22.6328 19.1406 20.7047 17.2125 20.7047 14.8438C20.7047 12.475 22.6328 10.5469 25.0016 10.5469C27.3703 10.5469 29.2985 12.475 29.2985 14.8438C29.2985 17.2125 27.3703 19.1406 25.0016 19.1406Z" fill="#475569"/>
<path d="M32.8141 31.25V23.4375C32.8141 21.2805 31.0649 19.5312 28.9078 19.5312H27.736L25.0016 22.6562L22.2672 19.5312H21.0953C18.9383 19.5312 17.1891 21.2805 17.1891 23.4375V31.25" fill="#FFCA28"/>
<path d="M28.9078 19.1406H27.7359C27.6226 19.1406 27.5164 19.1891 27.4422 19.2742L25.0016 22.0625L22.5609 19.2742C22.4867 19.1898 22.3805 19.1406 22.2672 19.1406H21.0953C18.7266 19.1406 16.7984 21.0687 16.7984 23.4375V31.25C16.7984 31.4656 16.9734 31.6406 17.1891 31.6406C17.4047 31.6406 17.5797 31.4656 17.5797 31.25V23.4375C17.5797 21.4992 19.157 19.9219 21.0953 19.9219H22.0898L24.7078 22.9133C24.8555 23.0828 25.1469 23.0828 25.2953 22.9133L27.9133 19.9219H28.9078C30.8461 19.9219 32.4234 21.4992 32.4234 23.4375V31.25C32.4234 31.4656 32.5984 31.6406 32.8141 31.6406C33.0297 31.6406 33.2047 31.4656 33.2047 31.25V23.4375C33.2047 21.0687 31.2766 19.1406 28.9078 19.1406Z" fill="#475569"/>
<path d="M25.0016 22.2656C24.786 22.2656 24.611 22.4406 24.611 22.6562V26.5625C24.611 26.7781 24.786 26.9531 25.0016 26.9531C25.2172 26.9531 25.3922 26.7781 25.3922 26.5625V22.6562C25.3922 22.4406 25.2172 22.2656 25.0016 22.2656Z" fill="#475569"/>
<path d="M20.3141 24.2188C20.0985 24.2188 19.9235 24.3938 19.9235 24.6094V31.25C19.9235 31.4656 20.0985 31.6406 20.3141 31.6406C20.5297 31.6406 20.7047 31.4656 20.7047 31.25V24.6094C20.7047 24.3938 20.5297 24.2188 20.3141 24.2188Z" fill="#475569"/>
<path d="M29.6891 24.2188C29.4735 24.2188 29.2985 24.3938 29.2985 24.6094V31.25C29.2985 31.4656 29.4735 31.6406 29.6891 31.6406C29.9047 31.6406 30.0797 31.4656 30.0797 31.25V24.6094C30.0797 24.3938 29.9047 24.2188 29.6891 24.2188Z" fill="#475569"/>
<path d="M7.03359 36.3281H4.6875C3.82578 36.3281 3.125 35.6273 3.125 34.7656V16.7969C3.125 16.5813 2.95 16.4062 2.73438 16.4062C2.51875 16.4062 2.34375 16.5813 2.34375 16.7969V34.7656C2.34375 36.0578 3.39531 37.1094 4.6875 37.1094H7.03359C7.24922 37.1094 7.42422 36.9344 7.42422 36.7188C7.42422 36.5031 7.24922 36.3281 7.03359 36.3281Z" fill="#475569"/>
<path d="M19.5328 36.3281H17.9711C17.7554 36.3281 17.5804 36.5031 17.5804 36.7188C17.5804 36.9344 17.7554 37.1094 17.9711 37.1094H19.5328C19.7484 37.1094 19.9234 36.9344 19.9234 36.7188C19.9234 36.5031 19.7484 36.3281 19.5328 36.3281Z" fill="#475569"/>
<path d="M32.0328 36.3281H30.4703C30.2547 36.3281 30.0797 36.5031 30.0797 36.7188C30.0797 36.9344 30.2547 37.1094 30.4703 37.1094H32.0328C32.2485 37.1094 32.4235 36.9344 32.4235 36.7188C32.4235 36.5031 32.2485 36.3281 32.0328 36.3281Z" fill="#475569"/>
<path d="M47.2657 6.64062C47.05 6.64062 46.875 6.81563 46.875 7.03125V34.7656C46.875 35.6273 46.1742 36.3281 45.3125 36.3281H42.9703C42.7547 36.3281 42.5797 36.5031 42.5797 36.7188C42.5797 36.9344 42.7547 37.1094 42.9703 37.1094H45.3125C46.6047 37.1094 47.6563 36.0578 47.6563 34.7656V7.03125C47.6563 6.81563 47.4813 6.64062 47.2657 6.64062Z" fill="#475569"/>
<path d="M2.73438 6.64062C2.51875 6.64062 2.34375 6.81563 2.34375 7.03125V9.76562C2.34375 9.98125 2.51875 10.1562 2.73438 10.1562C2.95 10.1562 3.125 9.98125 3.125 9.76562V7.03125C3.125 6.81563 2.95 6.64062 2.73438 6.64062Z" fill="#475569"/>
<path d="M2.73438 11.7188C2.51875 11.7188 2.34375 11.8938 2.34375 12.1094V14.4531C2.34375 14.6688 2.51875 14.8438 2.73438 14.8438C2.95 14.8438 3.125 14.6688 3.125 14.4531V12.1094C3.125 11.8938 2.95 11.7188 2.73438 11.7188Z" fill="#475569"/>
<path d="M48.8281 3.125H1.17188C0.740625 3.125 0.390625 3.475 0.390625 3.90625V4.6875C0.390625 5.11875 0.740625 5.46875 1.17188 5.46875H48.8281C49.2594 5.46875 49.6094 5.11875 49.6094 4.6875V3.90625C49.6094 3.475 49.2594 3.125 48.8281 3.125Z" fill="#EF5350"/>
<path d="M48.8281 2.73438H1.17188C0.525781 2.73438 0 3.26016 0 3.90625V4.6875C0 5.33359 0.525781 5.85938 1.17188 5.85938H48.8281C49.4742 5.85938 50 5.33359 50 4.6875V3.90625C50 3.26016 49.4742 2.73438 48.8281 2.73438ZM49.2188 4.6875C49.2188 4.90234 49.043 5.07812 48.8281 5.07812H1.17188C0.957031 5.07812 0.78125 4.90234 0.78125 4.6875V3.90625C0.78125 3.69141 0.957031 3.51562 1.17188 3.51562H48.8281C49.043 3.51562 49.2188 3.69141 49.2188 3.90625V4.6875Z" fill="#475569"/>
<path d="M41.7985 10.1562H35.5485C35.1172 10.1562 34.7672 10.5063 34.7672 10.9375V17.1875C34.7672 17.6188 35.1172 17.9688 35.5485 17.9688H41.7985C42.2297 17.9688 42.5797 17.6188 42.5797 17.1875V10.9375C42.5797 10.5063 42.2297 10.1562 41.7985 10.1562Z" fill="#64B5F6"/>
<path d="M41.7985 9.76562H35.5485C34.9024 9.76562 34.3766 10.2914 34.3766 10.9375V17.1875C34.3766 17.8336 34.9024 18.3594 35.5485 18.3594H41.7985C42.4446 18.3594 42.9703 17.8336 42.9703 17.1875V10.9375C42.9703 10.2914 42.4446 9.76562 41.7985 9.76562ZM42.1891 17.1875C42.1891 17.4023 42.0133 17.5781 41.7985 17.5781H35.5485C35.3336 17.5781 35.1578 17.4023 35.1578 17.1875V10.9375C35.1578 10.7227 35.3336 10.5469 35.5485 10.5469H41.7985C42.0133 10.5469 42.1891 10.7227 42.1891 10.9375V17.1875Z" fill="#475569"/>
<path d="M14.4547 10.1562H8.20468C7.77343 10.1562 7.42343 10.5063 7.42343 10.9375V17.1875C7.42343 17.6188 7.77343 17.9688 8.20468 17.9688H14.4547C14.8859 17.9688 15.2359 17.6188 15.2359 17.1875V10.9375C15.2359 10.5063 14.8859 10.1562 14.4547 10.1562Z" fill="#64B5F6"/>
<path d="M14.4547 9.76562H8.20468C7.55859 9.76562 7.03281 10.2914 7.03281 10.9375V17.1875C7.03281 17.8336 7.55859 18.3594 8.20468 18.3594H14.4547C15.1008 18.3594 15.6266 17.8336 15.6266 17.1875V10.9375C15.6266 10.2914 15.1008 9.76562 14.4547 9.76562ZM14.8453 17.1875C14.8453 17.4023 14.6695 17.5781 14.4547 17.5781H8.20468C7.98984 17.5781 7.81406 17.4023 7.81406 17.1875V10.9375C7.81406 10.7227 7.98984 10.5469 8.20468 10.5469H14.4547C14.6695 10.5469 14.8453 10.7227 14.8453 10.9375V17.1875Z" fill="#475569"/>
</svg>
