<svg width="50" height="50" viewBox="0 0 50 50" fill="none" xmlns="http://www.w3.org/2000/svg">
<path d="M40.7227 35.3516H39.2446C38.9086 35.3516 38.6094 35.5664 38.5032 35.8859L35.8993 43.6984C35.7305 44.2039 36.1071 44.7266 36.6407 44.7266H38.1188C38.4547 44.7266 38.7539 44.5117 38.8602 44.1922L41.4641 36.3797C41.6321 35.8742 41.2555 35.3516 40.7227 35.3516Z" fill="#EF5350"/>
<path d="M41.6726 35.4477C41.45 35.1383 41.1031 34.9609 40.7218 34.9609H39.2437C38.7382 34.9609 38.2914 35.2828 38.132 35.7617L35.5281 43.5742C35.407 43.9359 35.4656 44.3211 35.689 44.6305C35.9117 44.9398 36.2586 45.1172 36.6398 45.1172H38.1179C38.6234 45.1172 39.0703 44.7953 39.2297 44.3164L41.8336 36.5039C41.9547 36.1422 41.8961 35.757 41.6726 35.4477ZM41.0929 36.2563L38.4882 44.0688C38.4351 44.2289 38.2867 44.3359 38.1179 44.3359H36.6398C36.5125 44.3359 36.3968 44.2766 36.3226 44.1734C36.2484 44.0703 36.2289 43.9422 36.2687 43.8219L38.8734 36.0094C38.9265 35.8492 39.075 35.7422 39.2437 35.7422H40.7218C40.8492 35.7422 40.9648 35.8016 41.039 35.9047C41.1132 36.0078 41.1328 36.1359 41.0929 36.2563Z" fill="#475569"/>
<path d="M0.390625 47.8515V36.332C0.390625 34.7882 1.3 33.389 2.71094 32.7625L7.42266 30.6687L9.76953 34.1554L12.1102 30.6609L15.0828 32.007C15.9398 32.3953 16.7195 32.9343 17.3852 33.6L20.2461 36.4609L24.3891 32.3179L27.1516 35.0804L21.6297 40.6023C20.8672 41.3648 19.6305 41.3648 18.8672 40.6023L15.2383 36.9734L15.2344 47.8515" fill="#64B5F6"/>
<path d="M9.76562 16.9922C6.10391 16.9922 3.125 19.9711 3.125 23.6328C3.125 27.2945 6.10391 30.2734 9.76562 30.2734C13.4273 30.2734 16.4062 27.2945 16.4062 23.6328C16.4062 19.9711 13.4273 16.9922 9.76562 16.9922ZM9.76562 29.4922C6.53437 29.4922 3.90625 26.8641 3.90625 23.6328C3.90625 20.4016 6.53437 17.7734 9.76562 17.7734C12.9969 17.7734 15.625 20.4016 15.625 23.6328C15.625 26.8641 12.9969 29.4922 9.76562 29.4922Z" fill="#475569"/>
<path d="M14.8648 19.382C13.5977 17.8641 11.7398 16.9922 9.76562 16.9922C6.10391 16.9922 3.125 19.9711 3.125 23.6328C3.125 23.8484 3.3 24.0234 3.51562 24.0234H4.10547C7.83984 24.0234 11.4781 22.7078 14.3492 20.3203C14.3492 20.3203 14.3492 20.3203 14.3492 20.3195L14.8148 19.932C14.8945 19.8656 14.9445 19.7711 14.9539 19.6672C14.9633 19.5641 14.9312 19.4609 14.8648 19.382ZM13.85 19.7187C11.1187 21.9906 7.65859 23.2422 4.10625 23.2422H3.91953C4.12109 20.193 6.66641 17.7734 9.76562 17.7734C11.3766 17.7734 12.9 18.4313 14.0047 19.5898L13.85 19.7187Z" fill="#475569"/>
<path d="M12.5 29.4273C12.5 29.2976 12.4352 29.1765 12.3281 29.1039C12.2203 29.0305 12.0828 29.0164 11.9633 29.0648C10.5531 29.6344 8.97344 29.6297 7.56875 29.0601C7.44766 29.0101 7.31094 29.0266 7.20313 29.0976C7.09531 29.1711 7.03125 29.2922 7.03125 29.4219V30.6687C7.03125 30.7469 7.05469 30.8219 7.09766 30.8867L9.44453 34.3734C9.51719 34.4812 9.63828 34.5461 9.76875 34.5461C9.89922 34.5461 10.0203 34.4812 10.093 34.3726L12.4336 30.8781C12.4773 30.814 12.5 30.7383 12.5 30.6609V29.4273ZM9.76797 33.4547L7.8125 30.55V29.9773C9.07734 30.3695 10.4508 30.3719 11.7188 29.9812V30.5437L9.76797 33.4547Z" fill="#475569"/>
<path d="M27.4266 34.8031L24.6641 32.0414C24.5117 31.8891 24.2641 31.8891 24.1117 32.0414L20.2445 35.9078L17.6594 33.3226C16.9594 32.6219 16.1453 32.0594 15.2422 31.6508L12.2695 30.3047C12.0977 30.2258 11.8906 30.2844 11.7836 30.443L9.76641 33.4539L7.74453 30.4492C7.63984 30.293 7.4375 30.2344 7.26328 30.3117L2.55156 32.4055C1.00156 33.093 0 34.6351 0 36.332V47.8516C0 48.0672 0.175 48.2422 0.390625 48.2422C0.60625 48.2422 0.78125 48.0672 0.78125 47.8516V36.332C0.78125 34.9437 1.60078 33.682 2.86953 33.1195L7.28125 31.1586L9.44531 34.3734C9.51797 34.4812 9.63906 34.5461 9.76953 34.5461C9.9 34.5461 10.0211 34.4812 10.0938 34.3726L12.25 31.1531L14.9211 32.3633C15.7383 32.7328 16.4742 33.2414 17.1078 33.8758L19.9688 36.7367C20.1211 36.8891 20.3688 36.8891 20.5211 36.7367L24.3883 32.8703L26.5984 35.0797L21.3523 40.3258C20.7617 40.9164 19.7328 40.9164 19.1422 40.3258L15.5133 36.6961C15.4016 36.5844 15.2344 36.5523 15.0875 36.6117C14.9414 36.6719 14.8461 36.8148 14.8461 36.9726L14.8438 47.8516C14.8438 48.0672 15.0188 48.2422 15.2344 48.2422C15.45 48.2422 15.625 48.0672 15.625 47.8516L15.6273 37.9148L18.5898 40.8773C19.4758 41.7625 21.0195 41.7625 21.9047 40.8773L27.4266 35.3555C27.5 35.282 27.5406 35.1828 27.5406 35.0789C27.5406 34.975 27.5 34.8766 27.4266 34.8031Z" fill="#475569"/>
<path d="M4.29688 38.0898C4.08125 38.0898 3.90625 38.2648 3.90625 38.4805V47.8516C3.90625 48.0672 4.08125 48.2422 4.29688 48.2422C4.5125 48.2422 4.6875 48.0672 4.6875 47.8516V38.4805C4.6875 38.2648 4.5125 38.0898 4.29688 38.0898Z" fill="#475569"/>
<path d="M10.5469 34.1548H8.98438L7.8125 43.5556L9.77344 45.5087L11.7188 43.5556L10.5469 34.1548Z" fill="white"/>
<path d="M10.9343 34.1071C10.9101 33.911 10.7437 33.7649 10.5468 33.7649H8.98434C8.78746 33.7649 8.62106 33.9118 8.59684 34.1071L7.42496 43.5071C7.41012 43.6266 7.45153 43.7469 7.53668 43.8321L9.49762 45.7852C9.57106 45.8579 9.67028 45.8993 9.7734 45.8993C9.7734 45.8993 9.7734 45.8993 9.77418 45.8993C9.87809 45.8993 9.97731 45.8579 10.05 45.7844L11.9953 43.8313C12.0804 43.7469 12.1211 43.6266 12.1062 43.5079L10.9343 34.1071ZM9.77184 44.9563L8.2234 43.4133L9.32887 34.5454H10.2015L11.307 43.4149L9.77184 44.9563Z" fill="#475569"/>
<path d="M12.4976 30.6171C12.4796 30.4539 12.3609 30.3203 12.2023 30.2812C12.0437 30.2429 11.8765 30.307 11.7851 30.4429L9.76871 33.4539L7.74684 30.4492C7.65543 30.314 7.48981 30.2484 7.32965 30.2882C7.17027 30.3273 7.05309 30.4617 7.03434 30.6242L6.64371 34.1109C6.63121 34.2218 6.66637 34.332 6.74137 34.4148C6.81559 34.4976 6.92106 34.5453 7.03277 34.5453H12.5015C12.6125 34.5453 12.7187 34.4976 12.7929 34.4148C12.8671 34.3328 12.9023 34.2218 12.8906 34.1109L12.4976 30.6171ZM7.46793 33.7648L7.69137 31.7687L9.03434 33.7648H7.46793ZM10.5 33.7648L11.839 31.7648L12.0625 33.7648H10.5Z" fill="#475569"/>
<path d="M28.5312 30.936C28.089 30.4938 27.4999 30.2493 26.8741 30.2493H26.8726C26.2452 30.25 25.6569 30.4946 25.214 30.9391C25.0655 31.0868 25.0616 31.3266 25.2038 31.4797C25.3476 31.6352 25.5859 31.6469 25.7444 31.511L25.7468 31.5086C25.7585 31.4985 25.7687 31.4891 25.7788 31.4782C26.0726 31.1899 26.4601 31.0305 26.8726 31.0305H26.8734C27.2905 31.0305 27.6827 31.193 27.978 31.4883C28.5866 32.0969 28.5874 33.0875 27.9546 33.7243C27.821 33.8852 27.8382 34.1211 27.9929 34.2618C28.0671 34.3297 28.1609 34.3633 28.2554 34.3633C28.3562 34.3633 28.4569 34.3243 28.5335 34.2477C29.4452 33.3344 29.4437 31.8485 28.5312 30.936Z" fill="#475569"/>
<path d="M18.3594 6.44531V4.10156C18.3594 3.02266 19.2336 2.14844 20.3125 2.14844H47.6562C48.7352 2.14844 49.6094 3.02266 49.6094 4.10156V23.6328C49.6094 24.7117 48.7352 25.5859 47.6562 25.5859H20.3125C19.2336 25.5859 18.3594 24.7117 18.3594 23.6328V13.4766" fill="#FFCA28"/>
<path d="M47.6562 1.75781H20.3125C19.0203 1.75781 17.9688 2.80937 17.9688 4.10156V6.44531C17.9688 6.66094 18.1438 6.83594 18.3594 6.83594C18.575 6.83594 18.75 6.66094 18.75 6.44531V4.10156C18.75 3.23984 19.4508 2.53906 20.3125 2.53906H47.6562C48.518 2.53906 49.2188 3.23984 49.2188 4.10156V23.6328C49.2188 24.4945 48.518 25.1953 47.6562 25.1953H20.3125C19.4508 25.1953 18.75 24.4945 18.75 23.6328V13.4766C18.75 13.2609 18.575 13.0859 18.3594 13.0859C18.1438 13.0859 17.9688 13.2609 17.9688 13.4766V23.6328C17.9688 24.925 19.0203 25.9766 20.3125 25.9766H47.6562C48.9484 25.9766 50 24.925 50 23.6328V4.10156C50 2.80937 48.9484 1.75781 47.6562 1.75781Z" fill="#475569"/>
<path d="M18.3594 8.39844C18.1438 8.39844 17.9688 8.57344 17.9688 8.78906V11.1328C17.9688 11.3484 18.1438 11.5234 18.3594 11.5234C18.575 11.5234 18.75 11.3484 18.75 11.1328V8.78906C18.75 8.57344 18.575 8.39844 18.3594 8.39844Z" fill="#475569"/>
<path d="M31.6234 12.6953H29.2797C29.064 12.6953 28.889 12.8703 28.889 13.0859C28.889 13.3016 29.064 13.4766 29.2797 13.4766H31.6234C31.839 13.4766 32.014 13.3016 32.014 13.0859C32.014 12.8703 31.839 12.6953 31.6234 12.6953Z" fill="#475569"/>
<path d="M31.6234 14.2578H29.2797C29.064 14.2578 28.889 14.4328 28.889 14.6484C28.889 14.8641 29.064 15.0391 29.2797 15.0391H31.6234C31.839 15.0391 32.014 14.8641 32.014 14.6484C32.014 14.4328 31.839 14.2578 31.6234 14.2578Z" fill="#475569"/>
<path d="M44.1578 10.9375V10.1562C44.1578 9.94063 43.9828 9.76562 43.7672 9.76562H42.5953C42.3797 9.76562 42.2047 9.94063 42.2047 10.1562V10.7422C42.2047 10.9578 42.3797 11.1328 42.5953 11.1328C42.811 11.1328 42.986 10.9578 42.986 10.7422V10.5469H43.3766V10.793L42.2992 12.05C42.2383 12.1211 42.2047 12.2109 42.2047 12.3039V12.5C42.2047 12.7156 42.3797 12.8906 42.5953 12.8906H43.7672C43.9828 12.8906 44.1578 12.7156 44.1578 12.5C44.1578 12.2844 43.9828 12.1094 43.7672 12.1094H43.2774L44.0633 11.1914C44.125 11.1203 44.1578 11.0305 44.1578 10.9375Z" fill="#475569"/>
<path d="M41.0328 14.8438H40.0563C39.518 14.8438 39.0797 14.4055 39.0797 13.8672C39.0797 13.3289 39.518 12.8906 40.0563 12.8906H41.0328C41.2485 12.8906 41.4235 12.7156 41.4235 12.5C41.4235 12.2844 41.2485 12.1094 41.0328 12.1094H40.0563C39.0867 12.1094 38.2985 12.8984 38.2985 13.8672C38.2985 14.8359 39.0875 15.625 40.0563 15.625H41.0328C41.2485 15.625 41.4235 15.45 41.4235 15.2344C41.4235 15.0187 41.2492 14.8438 41.0328 14.8438Z" fill="#475569"/>
<path d="M26.9359 13.4766H24.9828C24.7672 13.4766 24.5922 13.3008 24.5922 13.0859C24.5922 12.8711 24.7672 12.6953 24.9828 12.6953H26.9359C27.1515 12.6953 27.3265 12.5203 27.3265 12.3047C27.3265 12.0891 27.1515 11.9141 26.9359 11.9141H24.9828C24.3367 11.9141 23.8109 12.4398 23.8109 13.0859C23.8109 13.732 24.3367 14.2578 24.9828 14.2578H26.9359C27.1515 14.2578 27.3265 14.0828 27.3265 13.8672C27.3265 13.6516 27.1515 13.4766 26.9359 13.4766Z" fill="#475569"/>
<path d="M26.9359 15.0391H24.9828C24.7672 15.0391 24.5922 14.8633 24.5922 14.6484C24.5922 14.4336 24.7672 14.2578 24.9828 14.2578H26.9359C27.1515 14.2578 27.3265 14.0828 27.3265 13.8672C27.3265 13.6516 27.1515 13.4766 26.9359 13.4766H24.9828C24.3367 13.4766 23.8109 14.0023 23.8109 14.6484C23.8109 15.2945 24.3367 15.8203 24.9828 15.8203H26.9359C27.1515 15.8203 27.3265 15.6453 27.3265 15.4297C27.3265 15.2141 27.1515 15.0391 26.9359 15.0391Z" fill="#475569"/>
<path d="M36.3109 12.1094C35.6648 12.1094 35.139 12.6352 35.139 13.2812V15.2344C35.139 15.45 35.314 15.625 35.5297 15.625C35.7453 15.625 35.9203 15.45 35.9203 15.2344V13.2812C35.9203 13.0664 36.0953 12.8906 36.3109 12.8906C36.5265 12.8906 36.7015 13.0664 36.7015 13.2812V15.2344C36.7015 15.45 36.8765 15.625 37.0922 15.625C37.3078 15.625 37.4828 15.45 37.4828 15.2344V13.2812C37.4828 12.6352 36.957 12.1094 36.3109 12.1094Z" fill="#475569"/>
<path d="M34.7484 12.1094C34.1023 12.1094 33.5765 12.6352 33.5765 13.2812V15.2344C33.5765 15.45 33.7515 15.625 33.9672 15.625C34.1828 15.625 34.3578 15.45 34.3578 15.2344V13.2812C34.3578 13.0664 34.5328 12.8906 34.7484 12.8906C34.964 12.8906 35.139 13.0664 35.139 13.2812V15.2344C35.139 15.45 35.314 15.625 35.5297 15.625C35.7453 15.625 35.9203 15.45 35.9203 15.2344V13.2812C35.9203 12.6352 35.3945 12.1094 34.7484 12.1094Z" fill="#475569"/>
<path d="M27.1594 20.8743C26.9438 20.8743 26.7688 21.0493 26.7688 21.2649V29.0774C26.7688 29.293 26.9438 29.468 27.1594 29.468C27.375 29.468 27.55 29.293 27.55 29.0774V21.2649C27.55 21.0485 27.375 20.8743 27.1594 20.8743Z" fill="#475569"/>
<path d="M49.6094 44.3359H21.4844C21.2688 44.3359 21.0938 44.5109 21.0938 44.7266V47.8516C21.0938 48.0672 21.2688 48.2422 21.4844 48.2422H49.6094C49.825 48.2422 50 48.0672 50 47.8516V44.7266C50 44.5109 49.825 44.3359 49.6094 44.3359ZM49.2188 47.4609H21.875V45.1172H49.2188V47.4609Z" fill="#475569"/>
<path d="M47.2656 34.9609H45.7031C45.057 34.9609 44.5312 35.4867 44.5312 36.1328V43.9453C44.5312 44.5914 45.057 45.1172 45.7031 45.1172H47.2656C47.9117 45.1172 48.4375 44.5914 48.4375 43.9453V36.1328C48.4375 35.4867 47.9117 34.9609 47.2656 34.9609ZM47.6562 43.9453C47.6562 44.1602 47.4813 44.3359 47.2656 44.3359H45.7031C45.4875 44.3359 45.3125 44.1602 45.3125 43.9453V36.1328C45.3125 35.918 45.4875 35.7422 45.7031 35.7422H47.2656C47.4813 35.7422 47.6562 35.918 47.6562 36.1328V43.9453Z" fill="#475569"/>
<path d="M48.0469 36.9141H44.9219C44.7063 36.9141 44.5312 37.0891 44.5312 37.3047C44.5312 37.5203 44.7063 37.6953 44.9219 37.6953H48.0469C48.2625 37.6953 48.4375 37.5203 48.4375 37.3047C48.4375 37.0891 48.2625 36.9141 48.0469 36.9141Z" fill="#475569"/>
<path d="M44.1406 34.9609H42.5781C41.932 34.9609 41.4062 35.4867 41.4062 36.1328V43.9453C41.4062 44.5914 41.932 45.1172 42.5781 45.1172H44.1406C44.7867 45.1172 45.3125 44.5914 45.3125 43.9453V36.1328C45.3125 35.4867 44.7867 34.9609 44.1406 34.9609ZM44.5312 43.9453C44.5312 44.1602 44.3563 44.3359 44.1406 44.3359H42.5781C42.3625 44.3359 42.1875 44.1602 42.1875 43.9453V36.1328C42.1875 35.918 42.3625 35.7422 42.5781 35.7422H44.1406C44.3563 35.7422 44.5312 35.918 44.5312 36.1328V43.9453Z" fill="#475569"/>
<path d="M44.9219 36.9141H41.7969C41.5813 36.9141 41.4062 37.0891 41.4062 37.3047C41.4062 37.5203 41.5813 37.6953 41.7969 37.6953H44.9219C45.1375 37.6953 45.3125 37.5203 45.3125 37.3047C45.3125 37.0891 45.1375 36.9141 44.9219 36.9141Z" fill="#475569"/>
<path d="M41.2109 36.9141H38.0859C37.8703 36.9141 37.6953 37.0891 37.6953 37.3047C37.6953 37.5203 37.8703 37.6953 38.0859 37.6953H41.2109C41.4266 37.6953 41.6016 37.5203 41.6016 37.3047C41.6016 37.0891 41.4266 36.9141 41.2109 36.9141Z" fill="#475569"/>
<path d="M46.4844 4.10156H44.1406C43.925 4.10156 43.75 4.27656 43.75 4.49219C43.75 4.70781 43.925 4.88281 44.1406 4.88281H46.4844C46.7 4.88281 46.875 5.05859 46.875 5.27344V7.61719C46.875 7.83281 47.05 8.00781 47.2656 8.00781C47.4813 8.00781 47.6562 7.83281 47.6562 7.61719V5.27344C47.6562 4.62734 47.1305 4.10156 46.4844 4.10156Z" fill="#475569"/>
</svg>
