<svg width="70" height="70" viewBox="0 0 70 70" fill="none" xmlns="http://www.w3.org/2000/svg">
<path d="M2.7422 64.8114H2.46798L1.37109 64.5372V57.5446L2.60509 57.2703H2.87931H4.25041V54.5281L5.48441 54.2539H5.75863H23.8572H24.1314L25.2283 54.5281V57.2703H26.7365L27.0107 57.4074L28.1076 57.5446V64.5372L26.8736 64.8114H26.5994H2.7422Z" fill="#D1B479"/>
<path d="M26.7372 57.2703H25.2289V54.5281L24.1321 54.2539H23.8578H19.6074V64.8114H26.6001H26.8743L28.1083 64.5372V57.5446L27.0114 57.4074L26.7372 57.2703Z" fill="#152833"/>
<path d="M43.3277 22.4443C42.6422 22.4443 42.0937 22.3072 41.4082 22.17L40.9969 22.0329L29.6167 11.3383L29.4796 10.927C28.794 8.87034 28.9311 7.22502 30.028 6.12813C30.7136 5.44258 31.8105 5.03125 32.9073 5.03125C35.5124 5.03125 39.0773 6.81369 41.9566 9.55589C44.0133 11.3383 45.5215 13.5321 46.4813 16.1372C47.3039 18.331 47.1668 20.1134 46.0699 21.2103C45.3844 22.17 44.4246 22.5814 43.3277 22.4443Z" fill="#152833"/>
<path d="M27.8866 37.2035L41.4844 22.7031L29.0841 11.0747L15.4863 25.575L27.8866 37.2035Z" fill="#B98E44"/>
<path d="M24.2694 42.8736C21.5272 42.8736 18.0995 41.0911 15.2201 38.3489C10.8326 34.2356 8.91305 28.8883 11.1068 26.6945C11.7924 26.009 12.8893 25.5977 13.849 25.5977C14.5346 25.5977 15.083 25.7348 15.7686 25.8719L16.1799 26.009L27.5601 36.7036L27.6972 37.1149C28.3827 39.1716 28.2456 40.8169 27.1487 41.9138C26.3261 42.4622 25.2292 42.8736 24.2694 42.8736Z" fill="#152833"/>
<path d="M46.4814 16.2727C45.6587 14.3532 44.5618 12.5707 43.0536 10.9254C43.3278 11.4738 43.6021 12.0223 43.7392 12.5707C44.5618 14.7645 44.4247 16.5469 43.3278 17.6438C42.6423 18.3294 41.5454 18.7407 40.5856 18.7407C39.9001 18.7407 39.3516 18.6036 38.6661 18.4665L38.2548 18.3294L29.0684 9.69141C29.0684 10.1027 29.2055 10.5141 29.3426 10.9254L29.4797 11.3367L40.8599 22.0313L41.2712 22.1685C41.9567 22.3056 42.5052 22.4427 43.1907 22.4427C44.1505 22.4427 45.2474 22.1685 45.9329 21.3458C47.1669 20.386 47.304 18.4665 46.4814 16.2727Z" fill="#152833"/>
<path d="M38.2545 19.5625L25.229 33.5478L16.1797 24.9098L15.4941 25.5954L27.8341 37.1126L41.5451 22.5789L38.2545 19.5625Z" fill="#B98E44"/>
<path d="M27.5595 36.9746L27.4224 36.5633L25.0915 34.6438C25.3657 35.8778 25.0915 37.2489 24.406 38.2086C23.7204 38.8942 22.6235 39.3055 21.6637 39.3055C18.9215 39.3055 15.4938 37.5231 12.6145 34.7809C12.2031 34.3695 11.7918 33.9582 11.5176 33.5469C12.4774 35.3293 13.8485 36.9746 15.3567 38.3457C18.236 41.0879 21.8009 42.8704 24.406 42.8704C25.5028 42.8704 26.4626 42.5962 27.1482 41.7735C27.9708 40.8137 28.1079 39.0313 27.5595 36.9746Z" fill="#152833"/>
<path d="M62.2487 61.5206C60.8776 61.5206 59.3693 60.9721 58.4096 60.0124L31.9473 32.8645L37.4317 26.9688L66.2249 51.5115C68.5557 53.7053 68.6929 57.2701 66.4991 59.601C65.5393 60.835 63.894 61.3835 62.2487 61.5206Z" fill="#D1B479"/>
<path d="M66.4991 55.2111C64.3053 57.542 60.7404 57.6791 58.4096 55.4853L34.0039 30.5312L31.9473 32.8621L58.4096 60.01C60.7404 62.2038 64.3053 62.0666 66.4991 59.8729C68.1444 58.2275 68.5557 55.7596 67.596 53.5658C67.3218 54.1142 66.9104 54.6627 66.4991 55.2111Z" fill="#152833"/>
<path d="M39.4874 26.8311L42.3667 23.8146C42.6409 23.8146 43.0522 23.9517 43.3265 23.9517C44.6976 24.0889 46.2058 23.5404 47.1655 22.4435C48.5366 20.9353 48.8109 18.6044 47.8511 15.8622C46.7542 13.12 45.1089 10.7891 43.0522 8.73249C37.9791 3.93363 31.9463 2.56252 29.2041 5.44184C28.1072 6.81295 27.6959 8.59538 28.1072 10.3778L14.9446 24.5002C13.1622 24.0889 11.3797 24.6373 10.1457 25.8713C7.40353 28.7506 9.32307 34.7835 14.3962 39.4452C17.6868 42.5988 21.5259 44.2441 24.4052 44.2441C25.7763 44.2441 27.1474 43.8328 28.2443 42.7359C29.3412 41.3648 29.7525 39.5823 29.3412 37.7999L32.2205 34.7835L57.723 60.9716C60.3281 63.8509 64.8528 63.988 67.7321 61.3829C70.6114 58.7778 70.7485 54.2532 68.1434 51.3738C67.8692 51.0996 67.595 50.8254 67.3208 50.6883L39.4874 26.8311ZM30.9865 7.36139C32.3576 5.85317 36.8823 7.08717 40.9956 10.7891C42.778 12.4345 44.2862 14.4911 45.246 16.822C45.7944 18.4673 45.7944 19.8384 45.1089 20.524C44.1491 21.2095 42.778 21.3467 41.6811 20.9353L30.8494 10.7891C30.301 9.55515 30.4381 8.32116 30.9865 7.36139ZM26.0505 40.8163C24.6794 42.3245 20.1548 41.0906 16.0415 37.3886C11.9282 33.6866 10.5571 29.1619 11.9282 27.6537C12.8879 26.9682 14.259 26.8311 15.3559 27.2424L26.1877 37.3886C26.7361 38.4855 26.599 39.8566 26.0505 40.8163ZM30.0267 32.8639L27.833 35.1948L17.4126 25.46L29.2041 12.9829L39.6245 22.7178L33.7287 29.0248L30.0267 32.8639ZM65.5383 58.7778C63.893 60.5602 61.1508 60.5602 59.3684 59.052L33.8658 32.8639L37.5678 28.8877L65.2641 52.6078C67.0465 54.2532 67.0465 56.9954 65.5383 58.7778Z" fill="white"/>
<path d="M26.5994 55.8992V55.4879C26.4623 53.9797 25.2283 52.8828 23.7201 52.8828H5.75864C4.25042 52.8828 3.01643 53.9797 2.87932 55.4879V55.8992C1.3711 55.7621 0.13711 56.859 0 58.2301V63.5774C0.13711 65.0856 1.3711 66.1825 2.74221 66.0454H26.5994C28.1076 66.1825 29.3416 65.0856 29.4787 63.7145V58.3672C29.4787 56.859 28.1076 55.7621 26.5994 55.8992C26.7365 55.8992 26.7365 55.8992 26.5994 55.8992ZM26.7365 63.4403H2.74221V58.6415H4.25042C5.07308 58.6415 5.62153 58.093 5.62153 57.2703V55.625H23.8572V57.2703C23.8572 58.093 24.4057 58.6415 25.2283 58.6415H26.7365V63.4403Z" fill="white"/>
</svg>
