<svg width="70" height="70" viewBox="0 0 70 70" fill="none" xmlns="http://www.w3.org/2000/svg">
<path d="M15.1684 31.3086H7.55469V57.5683H15.1684V31.3086Z" fill="#D1B479"/>
<path d="M62.561 31.3086H54.9473V57.5683H62.561V31.3086Z" fill="#D1B479"/>
<path d="M62.7166 31.3086H58.832V57.5683H62.7166V31.3086Z" fill="#F2BF81"/>
<path d="M38.7876 31.3086H31.1738V57.5683H38.7876V31.3086Z" fill="#D1B479"/>
<path d="M38.9432 31.3086H35.0586V57.5683H38.9432V31.3086Z" fill="#F2BF81"/>
<path d="M15.324 31.3086H11.4395V57.5683H15.324V31.3086Z" fill="#F2BF81"/>
<path d="M2.89258 25.4064V20.7449L35.0568 1.63281L67.2211 20.7449V25.4064H2.89258Z" fill="#B98E44"/>
<path d="M3.35873 20.5898L2.89258 20.7452V25.4067H67.2211V20.7452L66.755 20.5898H3.35873Z" fill="#B98E44"/>
<path d="M35.0571 20.5869C37.7174 20.5869 39.874 18.4303 39.874 15.77C39.874 13.1097 37.7174 10.9531 35.0571 10.9531C32.3968 10.9531 30.2402 13.1097 30.2402 15.77C30.2402 18.4303 32.3968 20.5869 35.0571 20.5869Z" fill="#152833"/>
<path d="M35.0569 10.9531C34.4353 10.9531 33.9692 11.1085 33.3477 11.2639C35.8338 12.1962 37.0768 14.8377 36.1445 17.3238C35.6784 18.7223 34.5907 19.6546 33.3477 20.1207C33.8138 20.2761 34.4353 20.4315 35.0569 20.4315C37.6984 20.4315 39.8737 18.2561 39.8737 15.6146C39.8737 13.1285 37.6984 10.9531 35.0569 10.9531Z" fill="#152833"/>
<path d="M67.9991 19.5006L35.8349 0.233074C35.3687 -0.0776915 34.7472 -0.0776915 34.281 0.233074L2.11676 19.5006C1.65061 19.8113 1.33984 20.2775 1.33984 20.899V25.5605C1.33984 26.4928 1.96138 27.1143 2.89367 27.1143H67.0668C67.9991 27.1143 68.6206 26.4928 68.6206 25.5605V20.899C68.776 20.2775 68.4653 19.8113 67.9991 19.5006ZM65.6684 24.0067H4.4475V21.6759L35.0579 3.49612L65.6684 21.6759V24.0067Z" fill="white"/>
<path d="M15.1695 59.1213C16.1018 59.1213 16.7234 58.4997 16.7234 57.5674V31.3077C16.7234 30.3754 16.1018 29.7539 15.1695 29.7539H7.55578C6.62348 29.7539 6.00195 30.3754 6.00195 31.3077V57.5674C6.00195 58.4997 6.62348 59.1213 7.55578 59.1213H15.1695ZM9.10961 32.8616H13.6157V56.0136H9.10961V32.8616Z" fill="white"/>
<path d="M38.943 59.1213C39.8753 59.1213 40.4968 58.4997 40.4968 57.5674V31.3077C40.4968 30.3754 39.8753 29.7539 38.943 29.7539H31.3292C30.3969 29.7539 29.7754 30.3754 29.7754 31.3077V57.5674C29.7754 58.4997 30.3969 59.1213 31.3292 59.1213H38.943ZM32.7277 32.8616H37.2338V56.0136H32.7277V32.8616Z" fill="white"/>
<path d="M62.5602 59.1213C63.4925 59.1213 64.114 58.4997 64.114 57.5674V31.3077C64.114 30.3754 63.4925 29.7539 62.5602 29.7539H54.9464C54.0141 29.7539 53.3926 30.3754 53.3926 31.3077V57.5674C53.3926 58.4997 54.0141 59.1213 54.9464 59.1213H62.5602ZM56.5002 32.8616H61.0063V56.0136H56.5002V32.8616Z" fill="white"/>
<path d="M28.6875 15.773C28.6875 19.3468 31.4844 22.1437 35.0582 22.1437C38.632 22.1437 41.4289 19.3468 41.4289 15.773C41.4289 12.1992 38.632 9.40234 35.0582 9.40234C31.4844 9.40234 28.6875 12.1992 28.6875 15.773ZM38.3212 15.773C38.3212 17.4823 36.9228 19.0361 35.0582 19.0361C33.349 19.0361 31.7952 17.6376 31.7952 15.773C31.7952 14.0638 33.1936 12.51 35.0582 12.51C36.7674 12.51 38.3212 13.9084 38.3212 15.773Z" fill="white"/>
<path d="M5.06836 63.3195C5.06836 64.2518 5.68989 64.8733 6.62219 64.8733H63.6477C64.58 64.8733 65.2015 64.2518 65.2015 63.3195C65.2015 62.3872 64.58 61.7656 63.6477 61.7656H6.62219C5.68989 61.7656 5.06836 62.3872 5.06836 63.3195Z" fill="white"/>
<path d="M67.2222 66.8906H2.89367C1.96138 66.8906 1.33984 67.5122 1.33984 68.4445C1.33984 69.3768 1.96138 69.9983 2.89367 69.9983H67.0668C67.9991 69.9983 68.6206 69.3768 68.6206 68.4445C68.6206 67.5122 67.9991 66.8906 67.2222 66.8906Z" fill="white"/>
</svg>
