<svg width="70" height="70" viewBox="0 0 70 70" fill="none" xmlns="http://www.w3.org/2000/svg">
<path d="M12.3611 47.0642C6.99942 47.0642 2.3824 43.1919 1.63772 37.8302L1.33984 36.043H23.3824L23.0845 37.8302C22.1909 43.1919 17.7228 47.0642 12.3611 47.0642Z" fill="#B98E44"/>
<path d="M57.6385 47.0642C52.2768 47.0642 47.8087 43.1919 46.9151 37.8302L46.6172 36.043H68.6597L68.3619 37.8302C67.4683 43.1919 63.0002 47.0642 57.6385 47.0642Z" fill="#B98E44"/>
<path d="M21.8945 66.7242L22.6392 64.7881C23.9796 60.9157 29.1924 58.0859 35.0009 58.0859C40.8094 58.0859 46.0222 60.9157 47.3626 64.7881L48.1073 66.7242H21.8945Z" fill="#D1B479"/>
<path d="M18.171 36.1914L17.8731 37.9786C17.1284 42.2978 14.0008 45.7233 9.68164 46.7659C10.5753 46.9148 11.4689 47.0637 12.3625 47.0637C17.7242 47.0637 22.1923 43.1914 23.0859 37.9786L23.3838 36.1914H18.171Z" fill="#B98E44"/>
<path d="M63.4483 36.1919L63.1505 37.9791C62.4058 42.2983 59.2781 45.7238 54.959 46.7664C55.8526 46.9153 56.7462 47.0642 57.6398 47.0642C63.0015 47.0642 67.6186 43.1919 68.3632 37.8302L68.6611 36.043L63.4483 36.1919Z" fill="#B98E44"/>
<path d="M47.2125 64.7881C45.8721 60.9157 40.6593 58.0859 34.8508 58.0859C33.9572 58.0859 33.0635 58.0859 32.1699 58.2349C36.9359 58.9796 40.8082 61.5115 41.8508 64.6391L42.5955 66.5753H47.8082L47.2125 64.7881Z" fill="#F2BF81"/>
<path d="M69.8511 35.5976L59.7234 10.5763H64.3404C65.234 10.5763 65.8298 9.98055 65.8298 9.08693C65.8298 8.19332 65.234 7.59757 64.3404 7.59757H36.3404V3.27842C36.3404 2.38481 35.7447 1.78906 34.8511 1.78906C33.9574 1.78906 33.3617 2.38481 33.3617 3.27842V7.59757H5.3617C4.46808 7.59757 3.87234 8.19332 3.87234 9.08693C3.87234 9.98055 4.46808 10.5763 5.3617 10.5763H10.1277L0.148936 35.5976C0.148936 35.7465 0 35.8954 0 36.1933C0 43.0444 5.51064 48.555 12.3617 48.555C19.2128 48.555 24.7234 43.0444 24.7234 36.1933C24.7234 36.0444 24.7234 35.7465 24.5745 35.5976L14.4468 10.5763H33.2128V56.5976C26.0638 57.1933 20.5532 61.5125 20.5532 66.7252C20.5532 67.6188 21.1489 68.2146 22.0426 68.2146H47.3617C48.2553 68.2146 48.8511 67.6188 48.8511 66.7252C48.8511 61.5125 43.3404 57.1933 36.1915 56.5976V10.5763H55.2553L45.4255 35.5976C45.4255 35.7465 45.2766 35.8954 45.2766 36.1933C45.2766 43.0444 50.7872 48.555 57.6383 48.555C64.4894 48.555 70 43.0444 70 36.1933C70 35.8954 70 35.7465 69.8511 35.5976ZM12.3617 45.5763C7.74468 45.5763 3.87234 42.1508 3.12766 37.6827H21.5957C20.8511 42.1508 16.9787 45.5763 12.3617 45.5763ZM21 34.704H3.7234L12.3617 13.1082L21 34.704ZM45.8723 65.2359H23.9787C25.0213 61.9593 29.6383 59.5763 34.8511 59.5763C40.0638 59.5763 44.6808 61.9593 45.8723 65.2359ZM57.6383 13.1082L66.2766 34.704H49L57.6383 13.1082ZM57.6383 45.5763C53.0213 45.5763 49.1489 42.1508 48.4043 37.6827H66.8723C66.1277 42.1508 62.2553 45.5763 57.6383 45.5763Z" fill="white"/>
</svg>
