<svg width="70" height="70" viewBox="0 0 70 70" fill="none" xmlns="http://www.w3.org/2000/svg">
<path d="M8.38281 68.5312V14.4136H55.1475C56.6181 14.4136 58.0887 13.8254 59.2652 12.943L61.6181 11.0312V62.0607C61.6181 65.5901 58.6769 68.5312 55.1475 68.5312H8.38281Z" fill="#B98E44"/>
<path d="M61.6167 62.0607V11.0312L59.2638 12.943C58.0873 13.8254 56.6167 14.4136 55.1461 14.4136H53.2344V68.5312H55.1461C58.6756 68.5312 61.6167 65.5901 61.6167 62.0607Z" fill="#B98E44"/>
<path d="M35.7344 14.4102H47.6461V37.2043L41.6167 31.3219L35.7344 37.2043V14.4102Z" fill="#D1B479"/>
<path d="M47.6466 37.2043V14.4102H41.6172V31.3219L47.6466 37.2043Z" fill="#F2BF81"/>
<path d="M17.0586 14.4099V1.46875H55.1468C58.6762 1.46875 61.6174 4.40993 61.6174 7.93934C61.6174 11.4688 58.6762 14.4099 55.1468 14.4099H17.0586Z" fill="#152833"/>
<path d="M55.1472 1.46875H46.4707C50.0001 1.46875 52.9413 4.40993 52.9413 7.93934C52.9413 11.4688 50.0001 14.4099 46.4707 14.4099H55.1472C58.6766 14.4099 61.6178 11.4688 61.6178 7.93934C61.6178 4.40993 58.6766 1.46875 55.1472 1.46875Z" fill="#152833"/>
<path d="M55.1474 0H17.0592C16.1768 0 15.5886 0.588235 15.5886 1.47059V12.9412H8.3827C7.50034 12.9412 6.91211 13.5294 6.91211 14.4118V68.5294C6.91211 69.4118 7.50034 70 8.3827 70H55.1474C59.5592 70 63.0886 66.4706 63.0886 62.0588V7.94118C63.0886 3.67647 59.5592 0 55.1474 0ZM60.1474 62.0588C60.1474 64.8529 57.9415 67.0588 55.1474 67.0588H9.85329V15.8824H34.118V37.2059C34.118 38.0882 34.8533 38.6765 35.5886 38.6765C36.0298 38.6765 36.3239 38.5294 36.618 38.2353L41.4709 33.5294L46.3239 38.3824C46.9121 38.9706 47.7945 38.9706 48.3827 38.3824C48.6768 38.0882 48.8239 37.7941 48.8239 37.3529V15.8824H54.8533C56.618 15.8824 58.3827 15.2941 59.8533 14.1176V62.0588H60.1474ZM37.2062 33.6765V15.8824H46.1768V33.6765L42.7945 30.2941C42.2062 29.7059 41.3239 29.7059 40.7356 30.2941L37.2062 33.6765ZM55.1474 12.9412H18.5298V2.94118H55.1474C57.9415 2.94118 60.1474 5.14706 60.1474 7.94118C60.1474 10.7353 57.9415 12.9412 55.1474 12.9412Z" fill="white"/>
</svg>
