<svg width="70" height="70" viewBox="0 0 70 70" fill="none" xmlns="http://www.w3.org/2000/svg">
<g clip-path="url(#clip0_1473_3294)">
<path d="M9.64386 67.0807C5.1313 67.0807 1.46484 63.4142 1.46484 58.9017C1.46484 54.3891 5.1313 50.7227 9.64386 50.7227H40.6677L38.4114 53.261C35.309 56.3634 35.309 61.581 38.4114 64.6834L40.6677 67.0807H9.64386Z" fill="#B98E44"/>
<path d="M36.0144 59.0423C36.0144 56.927 36.8605 54.8118 38.4116 53.2606L40.8089 50.8633H33.6171L31.0787 53.2606C27.9764 56.363 27.9764 61.5806 31.0787 64.683L33.476 67.0803H40.6679L38.2706 64.683C36.8605 63.1318 36.0144 61.1576 36.0144 59.0423Z" fill="#B98E44"/>
<path d="M44.0536 67.0817C39.541 67.0817 35.8746 63.4152 35.8746 58.9027C35.8746 54.3901 39.541 50.7237 44.0536 50.7237H10.0684V10.8157C10.0684 6.30317 13.7348 2.77774 18.1064 2.63672H57.0272L54.6299 5.03402C53.0787 6.58521 52.2326 8.55945 52.2326 10.8157V58.9027C52.2326 63.4152 48.5661 67.0817 44.0536 67.0817Z" fill="#152833"/>
<path d="M50.8224 2.77774L48.4251 5.17503C46.8739 6.72622 46.0278 8.70047 46.0278 10.9567V59.0437C46.0278 62.2871 44.0536 65.2485 40.9512 66.5176C45.0407 68.2098 49.8353 66.3766 51.5275 62.1461C51.9505 61.159 52.2326 60.0308 52.2326 58.9027V10.8157C52.2326 8.70047 53.0787 6.58521 54.6299 5.03402L57.0272 2.63672L50.8224 2.77774Z" fill="#152833"/>
<path d="M60.4114 13.9174H52.2324V10.956C52.2324 6.44344 55.8989 2.77698 60.4114 2.918C64.924 2.918 68.5904 6.58445 68.4494 11.097C68.4494 14.9045 65.7701 18.1479 62.1036 18.994L60.4114 19.135V13.9174Z" fill="#152833"/>
<path d="M60.4114 13.918H52.2324V18.9946H60.4114V13.918Z" fill="#B98E44"/>
<path d="M60.4109 1.36719H18.1056C12.888 1.36719 8.51646 5.59771 8.51646 10.9564V49.5952C3.29881 50.1592 -0.50866 54.8128 0.0554099 60.1715C0.61948 64.9661 4.70899 68.6325 9.50358 68.6325H43.9118C49.1295 68.6325 53.501 64.402 53.501 59.0433V20.4045H60.4109C65.6285 20.4045 70.0001 16.174 70.0001 10.8154C70.0001 5.45669 65.6285 1.36719 60.4109 1.36719ZM37.425 65.6711H9.6446C5.97814 65.6711 2.87576 62.7098 2.87576 58.9023C2.87576 55.0948 5.83712 52.1335 9.6446 52.1335H37.425C33.6176 55.9409 33.6176 62.0047 37.425 65.6711ZM50.8217 10.8154V58.9023C50.8217 62.5688 47.8603 65.6711 44.0529 65.6711C40.2454 65.6711 37.284 62.7098 37.284 58.9023C37.284 55.0948 40.2454 52.1335 44.0529 52.1335C44.899 52.1335 45.463 51.5694 45.463 50.7233C45.463 49.8772 44.899 49.3131 44.0529 49.3131H11.4778V10.8154C11.4778 7.1489 14.4392 4.18754 18.1056 4.04652H53.642C51.8088 5.87975 50.8217 8.41806 50.8217 10.8154ZM59.0007 17.5842H53.642V15.3279H59.0007V17.5842ZM61.821 17.4432V13.9177C61.821 13.0716 61.257 12.5076 60.4109 12.5076H53.642V10.9564C53.642 7.28992 56.6034 4.18754 60.4109 4.32855C64.0773 4.32855 67.1797 7.28992 67.0387 11.0974C67.0387 14.0588 64.9234 16.7381 61.821 17.4432Z" fill="white"/>
<path d="M20.6445 18.1485H41.2331C42.0792 18.1485 42.6433 17.5844 42.6433 16.7383C42.6433 15.8922 42.0792 15.3281 41.2331 15.3281H20.6445C19.7984 15.3281 19.2344 15.8922 19.2344 16.7383C19.2344 17.5844 19.7984 18.1485 20.6445 18.1485Z" fill="white"/>
<path d="M20.6445 28.1602H41.2331C42.0792 28.1602 42.6433 27.5961 42.6433 26.75C42.6433 25.9039 42.0792 25.3398 41.2331 25.3398H20.6445C19.7984 25.3398 19.2344 25.9039 19.2344 26.75C19.2344 27.5961 19.7984 28.1602 20.6445 28.1602Z" fill="white"/>
<path d="M20.6445 38.3125H41.2331C42.0792 38.3125 42.6433 37.7485 42.6433 36.9024C42.6433 36.0563 42.0792 35.4922 41.2331 35.4922H20.6445C19.7984 35.4922 19.2344 36.0563 19.2344 36.9024C19.2344 37.7485 19.7984 38.3125 20.6445 38.3125Z" fill="white"/>
</g>
<defs>
<clipPath id="clip0_1473_3294">
<rect width="70" height="70" fill="white"/>
</clipPath>
</defs>
</svg>
