<svg width="70" height="70" viewBox="0 0 70 70" fill="none" xmlns="http://www.w3.org/2000/svg">
<g clip-path="url(#clip0_1473_3433)">
<path d="M30.5793 23.6472L36.0996 17.8867L24.4739 6.74569L18.9536 12.5062L30.5793 23.6472Z" fill="#B98E44"/>
<path d="M32.2019 14.1406L26.6895 19.7981L30.4611 23.5698L35.9735 17.7672L32.2019 14.1406Z" fill="#B98E44"/>
<path d="M62.0845 33.2891H45.9824V41.2676H62.0845V33.2891Z" fill="#B98E44"/>
<path d="M62.2299 33.2891H55.9922V41.2676H62.2299V33.2891Z" fill="#B98E44"/>
<path d="M63.5346 40.3993V33.2912C63.5346 32.4208 62.9544 31.8405 62.084 31.8405H55.5561V28.9393C58.0222 28.0689 59.763 24.8775 59.763 20.9607C59.763 16.3187 57.2969 12.6921 54.1055 12.6921C53.09 12.6921 52.0746 13.1273 51.3493 13.7076L48.1579 10.081C48.593 9.64577 48.7381 9.06551 48.8832 8.48526C49.1733 6.74449 48.448 5.00373 47.1424 3.69815C45.6918 2.39258 43.951 1.52219 41.9201 1.087C41.0497 0.941939 40.1793 0.796875 39.309 0.796875C35.8274 0.796875 33.0712 2.39258 32.491 4.85866C32.3459 5.72904 32.491 6.74449 32.7811 7.61487L30.1699 10.3711L25.0927 5.58398C24.8026 5.29385 24.5125 5.14879 24.0773 5.14879C23.6421 5.14879 23.3519 5.29385 23.0618 5.58398L18.1296 10.6612C9.42582 9.5007 1.30224 15.5934 0.141734 24.2972C-1.01878 33.001 5.0739 41.1246 13.7777 42.2851C14.5031 42.4302 15.2284 42.4302 16.0988 42.4302H16.3889C25.5279 42.4302 32.491 35.177 32.3459 26.3281C32.3459 25.6028 32.2008 24.7324 32.0558 24.0071L36.9879 18.7848C37.5682 18.2045 37.5682 17.3342 36.9879 16.7539L32.491 12.402L34.812 9.9359C36.1176 11.0964 37.8583 11.8217 39.5991 12.2569C40.4695 12.402 41.3399 12.547 42.2102 12.547C43.5158 12.547 44.6763 12.2569 45.8368 11.8217L49.4634 16.0286C48.7381 17.6243 48.3029 19.22 48.3029 20.9607C48.3029 24.8775 50.0437 28.0689 52.5098 28.9393V31.8405H45.9819C45.1115 31.8405 44.5313 32.4208 44.5313 33.2912V40.3993C37.4231 45.6216 35.9725 55.631 41.1948 62.7391C46.4171 69.8473 56.4265 71.2979 63.5346 66.0756C70.6427 60.8533 72.0934 50.8439 66.8711 43.7358C66.0007 42.5753 64.8402 41.4147 63.5346 40.3993ZM25.818 35.7573C20.8859 40.9795 12.6172 41.1246 7.39492 36.1924C2.17263 31.2603 2.02756 22.8466 6.95973 17.6243C9.86101 14.5779 14.0679 13.1273 18.1296 13.7076L29.1545 24.2972C30.0249 28.5041 28.7193 32.7109 25.818 35.7573ZM33.9416 17.9144L30.4601 21.541L20.8859 12.402L24.3674 8.77538L33.9416 17.9144ZM44.8214 6.3093C44.2411 5.72904 43.3707 5.58398 42.7905 6.16424C42.2102 6.74449 42.0652 7.61487 42.6454 8.19513L43.8059 9.5007C42.6454 9.79083 41.4849 9.79083 40.1793 9.5007C39.0188 9.21058 37.8583 8.77538 36.8429 7.905L37.5682 7.17968C38.1485 6.59943 38.0034 5.72904 37.4231 5.14879C36.9879 4.85866 36.5527 4.7136 35.9725 4.85866C36.9879 4.13334 38.1484 3.69815 39.454 3.84321C40.1793 3.84321 40.7596 3.98828 41.3399 3.98828C42.7905 4.27841 44.0961 4.85866 45.1115 5.87411C45.6918 6.3093 45.9819 7.03462 45.9819 7.75994L44.8214 6.3093ZM51.2042 20.9607C51.2042 20.0904 51.3493 19.365 51.4943 18.4947L51.9295 18.9299C52.5098 19.5101 53.3801 19.6552 53.9604 19.0749C54.5407 18.4947 54.6857 17.6243 54.1055 17.044L53.09 15.8835C53.3802 15.7384 53.6703 15.5934 53.9604 15.5934C55.266 15.5934 56.7166 17.9144 56.7166 20.9607C56.8617 22.5564 56.2814 24.1521 55.411 25.4577V24.8775C55.411 24.0071 54.8308 23.4268 53.9604 23.4268C53.09 23.4268 52.5098 24.0071 52.5098 24.8775V25.3127C51.6394 24.1521 51.2042 22.5564 51.2042 20.9607ZM47.4325 34.7418H60.6333V39.819H47.5776L47.4325 34.7418ZM54.1055 66.2207C46.8523 66.2207 41.0497 60.4181 41.0497 53.1649C41.0497 48.9581 43.0806 45.0413 46.4171 42.5753H61.7939C67.5964 46.7821 68.902 55.0507 64.6951 60.8533C62.084 64.3348 58.3123 66.2207 54.1055 66.2207Z" fill="white"/>
</g>
<defs>
<clipPath id="clip0_1473_3433">
<rect width="70" height="70" fill="white"/>
</clipPath>
</defs>
</svg>
