<svg width="40" height="40" viewBox="0 0 40 40" fill="none" xmlns="http://www.w3.org/2000/svg">
<g clip-path="url(#clip0_489_1009)">
<path d="M38.4673 8.16766C36.9324 6.05571 34.2445 4.14946 30.8988 2.80024C27.5711 1.45837 23.7073 0.716258 20.0191 0.711023C16.3306 0.701804 12.4621 1.43626 9.1296 2.76766C5.77803 4.1068 3.08382 6.00477 1.54335 8.11173C0.0638163 10.1353 -0.36259 12.3165 0.310144 14.4195C0.746629 15.7836 2.01968 16.7016 3.47874 16.7037L8.47491 16.7084C8.47663 16.7084 8.47827 16.7084 8.47991 16.7084C9.47616 16.7083 10.4122 16.2722 11.0483 15.5113C11.6776 14.7586 11.9383 13.7749 11.7636 12.8122C11.7584 12.7839 11.7523 12.7559 11.7451 12.728L11.4823 11.7059C12.938 11.0113 16.2365 9.6693 20.0037 9.69063C23.7683 9.70993 27.0644 11.0512 28.5219 11.7461L28.2548 12.7624C28.2473 12.7912 28.2408 12.8201 28.2355 12.8492C28.058 13.8113 28.3159 14.7958 28.943 15.5503C29.5781 16.3144 30.5148 16.7533 31.5136 16.7548L36.5098 16.7595C36.5115 16.7595 36.5131 16.7595 36.5148 16.7595C37.9711 16.7594 39.2445 15.8457 39.6842 14.4844C40.3633 12.382 39.9426 10.1977 38.4673 8.16766Z" fill="#FF652E"/>
<path d="M31.296 21.8599L27.5702 17.9478C27.3449 17.7112 27.0326 17.5774 26.7059 17.5774H24.2981V15.9506C24.2981 15.2915 23.7637 14.757 23.1045 14.757C22.4453 14.757 21.9109 15.2914 21.9109 15.9506V17.5774H18.0889V15.9506C18.0889 15.2915 17.5545 14.757 16.8953 14.757C16.2361 14.757 15.7017 15.2914 15.7017 15.9506V17.5774H13.294C12.9673 17.5774 12.6549 17.7113 12.4297 17.9478L8.70391 21.8599C5.78266 24.9273 4.17383 28.9493 4.17383 33.1851V38.0955C4.17383 38.7547 4.7082 39.2891 5.36742 39.2891H34.6324C35.2916 39.2891 35.826 38.7547 35.826 38.0955V33.1851C35.8261 28.9493 34.2173 24.9273 31.296 21.8599ZM19.9999 34.9261C16.5554 34.9261 13.7531 32.1237 13.7531 28.6792C13.7531 25.2348 16.5555 22.4324 19.9999 22.4324C23.4444 22.4324 26.2467 25.2348 26.2467 28.6792C26.2467 32.1237 23.4444 34.9261 19.9999 34.9261Z" fill="#005153"/>
<path d="M20.0002 24.8196C17.872 24.8196 16.1406 26.551 16.1406 28.6792C16.1406 30.8075 17.872 32.5389 20.0002 32.5389C22.1284 32.5389 23.8598 30.8075 23.8598 28.6792C23.8598 26.5511 22.1284 24.8196 20.0002 24.8196Z" fill="#FF652E"/>
</g>
<defs>
<clipPath id="clip0_489_1009">
<rect width="40" height="40" fill="white"/>
</clipPath>
</defs>
</svg>
