<svg width="31" height="40" viewBox="0 0 31 40" fill="none" xmlns="http://www.w3.org/2000/svg">
<g clip-path="url(#clip0_489_1006)">
<path d="M3.61523 40H27.0527C28.9913 40 30.5684 38.423 30.5684 36.4844V11.7188H22.3652C20.4266 11.7188 18.8496 10.1417 18.8496 8.20312V0H3.61523C1.67664 0 0.0996094 1.57703 0.0996094 3.51562V36.4844C0.0996094 38.423 1.67664 40 3.61523 40ZM8.30273 16.4844H22.3652C23.013 16.4844 23.5371 17.0085 23.5371 17.6562C23.5371 18.304 23.013 18.8281 22.3652 18.8281H8.30273C7.655 18.8281 7.13086 18.304 7.13086 17.6562C7.13086 17.0085 7.655 16.4844 8.30273 16.4844ZM8.30273 21.1719H22.3652C23.013 21.1719 23.5371 21.696 23.5371 22.3438C23.5371 22.9915 23.013 23.5156 22.3652 23.5156H8.30273C7.655 23.5156 7.13086 22.9915 7.13086 22.3438C7.13086 21.696 7.655 21.1719 8.30273 21.1719ZM8.30273 25.8594H22.3652C23.013 25.8594 23.5371 26.3835 23.5371 27.0312C23.5371 27.679 23.013 28.2031 22.3652 28.2031H8.30273C7.655 28.2031 7.13086 27.679 7.13086 27.0312C7.13086 26.3835 7.655 25.8594 8.30273 25.8594ZM8.30273 30.5469H17.6777C18.3255 30.5469 18.8496 31.071 18.8496 31.7188C18.8496 32.3665 18.3255 32.8906 17.6777 32.8906H8.30273C7.655 32.8906 7.13086 32.3665 7.13086 31.7188C7.13086 31.071 7.655 30.5469 8.30273 30.5469Z" fill="#005153"/>
<path d="M22.3652 9.375H29.8817L21.1934 0.686646V8.20313C21.1934 8.84969 21.7187 9.375 22.3652 9.375Z" fill="#FF652E"/>
</g>
<defs>
<clipPath id="clip0_489_1006">
<rect width="30.6667" height="40" fill="white"/>
</clipPath>
</defs>
</svg>
