<svg width="46" height="40" viewBox="0 0 46 40" fill="none" xmlns="http://www.w3.org/2000/svg">
<g clip-path="url(#clip0_489_998)">
<path d="M22.8577 15.5921C27.1478 15.5921 30.6256 12.1143 30.6256 7.82425C30.6256 3.53418 27.1478 0.0563965 22.8577 0.0563965C18.5676 0.0563965 15.0898 3.53418 15.0898 7.82425C15.0898 12.1143 18.5676 15.5921 22.8577 15.5921Z" fill="#FF652E"/>
<path d="M38.5709 15.5921C41.283 15.5921 43.4816 13.3935 43.4816 10.6813C43.4816 7.96923 41.283 5.77063 38.5709 5.77063C35.8588 5.77063 33.6602 7.96923 33.6602 10.6813C33.6602 13.3935 35.8588 15.5921 38.5709 15.5921Z" fill="#FF652E"/>
<path d="M7.14314 15.5921C9.85525 15.5921 12.0539 13.3935 12.0539 10.6813C12.0539 7.96923 9.85525 5.77063 7.14314 5.77063C4.43102 5.77063 2.23242 7.96923 2.23242 10.6813C2.23242 13.3935 4.43102 15.5921 7.14314 15.5921Z" fill="#FF652E"/>
<path d="M11.9812 20.0019C10.0482 18.4182 8.29759 18.6278 6.0625 18.6278C2.71964 18.6278 0 21.3314 0 24.6537V34.4046C0 35.8475 1.17768 37.0207 2.62589 37.0207C8.87821 37.0207 8.125 37.1338 8.125 36.7511C8.125 29.8416 7.30661 24.7745 11.9812 20.0019Z" fill="#005153"/>
<path d="M24.9827 18.6635C21.0788 18.3378 17.6855 18.6672 14.7586 21.0831C9.86069 25.0063 10.8033 30.2887 10.8033 36.751C10.8033 38.4607 12.1943 39.8777 13.9301 39.8777C32.7767 39.8777 33.5268 40.4857 34.6443 38.0108C35.0109 37.1738 34.9104 37.4398 34.9104 29.4331C34.9104 23.0736 29.4039 18.6635 24.9827 18.6635Z" fill="#005153"/>
<path d="M39.6512 18.6277C37.4039 18.6277 35.6629 18.4202 33.7324 20.0018C38.3722 24.739 37.5887 29.4603 37.5887 36.751C37.5887 37.1361 36.9634 37.0206 42.994 37.0206C44.494 37.0206 45.7137 35.8054 45.7137 34.3117V24.6536C45.7137 21.3313 42.994 18.6277 39.6512 18.6277Z" fill="#005153"/>
</g>
<defs>
<clipPath id="clip0_489_998">
<rect width="45.7143" height="40" fill="white"/>
</clipPath>
</defs>
</svg>
