<svg width="31" height="30" viewBox="0 0 31 30" fill="none" xmlns="http://www.w3.org/2000/svg">
<path d="M24.5489 21.577C24.1904 21.5516 24.0438 21.6326 22.2729 22.2186C19.8494 23.0201 19.2576 22.8521 16.0685 26.4593C15.188 27.4554 14.21 28.4845 13.0865 29.2512C12.8644 29.4027 12.9431 29.7465 13.2077 29.7937C14.1279 29.9573 15.155 30.0436 16.2911 29.9777C21.0206 29.703 23.9201 27.0622 25.3563 25.7541C26.4406 24.7665 26.9059 24.0423 26.7858 23.3255C26.6301 22.3962 25.5188 21.6459 24.5489 21.577Z" fill="#D42C6C"/>
<path d="M9.83396 13.9038C11.1671 15.9941 12.6814 18.7036 12.2044 21.134C12.0955 21.6886 11.8465 22.9575 11.0667 23.2129C10.5023 23.3979 10.1741 22.9053 8.69928 22.2498C7.53129 21.7307 6.54979 21.2944 5.51982 21.5741C4.89148 21.7444 4.04376 22.2361 3.86735 23.0152C3.73981 23.578 3.98763 24.1896 4.85051 25.1934C6.28166 26.8581 7.33199 28.1565 9.14371 28.4635C12.2877 28.9961 15.0434 26.1547 15.3346 25.8462C16.377 24.7417 17.4991 23.2744 19.2931 22.2912C19.4961 22.1798 19.5786 21.9307 19.4794 21.7215C19.0084 20.7282 18.9106 19.3288 18.8957 19.1132C18.776 17.3677 19.458 15.349 20.0625 14.6592C21.2181 13.3408 22.241 11.9606 22.6604 10.1822C23.0291 8.61896 22.9853 8.34499 21.6325 7.43541C21.5928 7.40871 18.0161 4.96408 17.9798 4.93282C17.4377 4.46521 16.8646 3.83693 16.6497 3.13655C16.3087 2.02416 16.5196 0.475887 15.7195 0.0789213C15.5823 0.0104857 15.4215 0.116229 15.4215 0.26958V4.14363C15.4215 4.39975 15.5645 4.62841 15.786 4.75704C15.9537 4.85431 16.1195 5.00766 16.2842 5.22235C17.3521 6.6167 18.6516 7.77896 19.8582 9.03461C20.6996 9.91008 19.6734 11.6251 19.0756 11.7759C18.6379 11.887 17.8817 11.3882 17.9289 10.5013C17.9895 9.92588 17.9851 9.07993 17.6252 8.17836C17.4341 7.69954 17.2059 7.13878 16.6195 6.75815C16.2828 6.5398 15.8803 6.42353 15.4089 6.40613C14.16 6.36127 13.4865 6.80851 13.0011 8.00464C12.7245 8.68579 12.574 9.388 12.5951 10.1305C12.6062 10.5233 12.5815 10.7746 12.4369 11.1243C12.3722 11.2811 12.1044 11.9297 11.681 11.9911C10.989 12.0911 9.93083 10.6134 10.2441 9.60361C10.3238 9.34703 10.4622 9.17469 10.558 9.09114C12.8181 7.11639 14.0648 5.32193 14.658 4.88361C14.837 4.75154 14.9426 4.54418 14.9426 4.3217V0.211902C14.9426 0.0667906 14.7971 -0.038495 14.6616 0.0134611C14.5858 0.0425292 14.514 0.0809813 14.4488 0.129733C13.9639 0.492389 14.011 1.64974 13.7914 2.75226C13.6816 3.30387 13.4447 3.7891 13.144 4.25922C12.6428 5.04263 11.2492 5.82208 10.7407 6.17885C10.4989 6.34843 9.08789 7.3473 8.43652 7.78606C7.74879 8.24955 7.47104 9.12616 7.7608 9.90322C8.19299 11.062 8.39469 11.6466 9.83396 13.9038Z" fill="#D42C6C"/>
<path d="M24.1764 5.13037C24.535 5.13037 24.4359 4.99408 27.4297 2.07068C27.6128 1.88757 27.6128 1.59094 27.4297 1.40784C27.2466 1.22473 26.95 1.22473 26.7669 1.40784L23.845 4.3302C23.5482 4.62697 23.7633 5.13037 24.1764 5.13037Z" fill="#D42C6C"/>
<path d="M25.4381 7.93918C25.7145 7.93918 25.5689 7.91334 29.0339 5.49106C29.2449 5.34091 29.2943 5.0484 29.1446 4.83737C28.9945 4.62634 28.702 4.57645 28.4909 4.72659L25.1662 7.0882C24.7947 7.35252 24.9824 7.93918 25.4381 7.93918Z" fill="#D42C6C"/>
<path d="M30.0543 8.25L26.2392 9.55279C25.9943 9.63656 25.8634 9.90298 25.9472 10.1479C26.0293 10.3884 26.2916 10.5242 26.5423 10.4399L30.3573 9.13714C30.6022 9.05337 30.7331 8.78695 30.6493 8.54205C30.5656 8.29714 30.2982 8.16668 30.0543 8.25Z" fill="#D42C6C"/>
<path d="M6.1608 4.99304C6.3439 5.17614 6.64053 5.17615 6.82364 4.99304C7.00674 4.80994 7.00674 4.51331 6.82364 4.3302L3.90173 1.40784C3.71863 1.22473 3.422 1.22473 3.23889 1.40784C3.05579 1.59094 3.05579 1.88757 3.23889 2.07068L6.1608 4.99304Z" fill="#D42C6C"/>
<path d="M5.23051 7.93918C5.68651 7.93918 5.87361 7.35229 5.50243 7.0882L2.17769 4.72659C1.96574 4.57645 1.67415 4.62634 1.524 4.83737C1.37431 5.0484 1.42375 5.34091 1.63478 5.49106C5.06774 7.89099 4.95301 7.93918 5.23051 7.93918Z" fill="#D42C6C"/>
<path d="M4.72793 10.148C4.8117 9.90308 4.68078 9.63666 4.43587 9.55289L0.620412 8.2501C0.374593 8.16495 0.10909 8.29725 0.0253194 8.54215C-0.0584513 8.78705 0.0724691 9.05347 0.317373 9.13724L4.13283 10.44C4.37287 10.523 4.64324 10.3962 4.72793 10.148Z" fill="#D42C6C"/>
</svg>
