<svg width="40" height="40" viewBox="0 0 40 40" fill="none" xmlns="http://www.w3.org/2000/svg">
<g clip-path="url(#clip0_2194_42662)">
<path d="M24.5043 9.79627L22.7082 18.3971L35.2929 17.1938L37.1117 7.00508L24.5043 9.79627Z" fill="#794AFF"/>
<path d="M31.9171 17.6827L23.2697 20.618L30.6333 30.3856L40.723 26.6535L31.9171 17.6827Z" fill="#794AFF"/>
<path d="M28.4204 27.859L21.4605 22.2303L16.332 33.3239L24.7296 39.7337L28.4204 27.859Z" fill="#794AFF"/>
<path d="M17.5913 29.997L19.1912 21.3623L6.63465 22.8278L5.04812 33.0501L17.5913 29.997Z" fill="#794AFF"/>
<path d="M10.2917 22.1767L18.8717 19.0623L11.2859 9.45248L1.28177 13.3935L10.2917 22.1767Z" fill="#794AFF"/>
<path d="M13.7243 12.2233L20.8121 17.7044L25.6875 6.50841L17.1442 0.276579L13.7243 12.2233Z" fill="#794AFF"/>
</g>
<defs>
<clipPath id="clip0_2194_42662">
<rect width="40" height="40" fill="white"/>
</clipPath>
</defs>
</svg>
