<svg width="80" height="80" viewBox="0 0 80 80" fill="none" xmlns="http://www.w3.org/2000/svg">
<g clip-path="url(#clip0_349_570)">
<path d="M77.6552 75.3123H75.1552V29.063C75.1552 27.7686 74.1059 26.7192 72.8115 26.7192H63.4366C62.1423 26.7192 61.0929 27.7686 61.0929 29.063V75.3123H56.4055V44.6877C56.4055 43.3934 55.3561 42.344 54.0618 42.344H44.6869C43.3925 42.344 42.3432 43.3934 42.3432 44.6877V75.3123H37.6557V53.2814C37.6557 51.987 36.6064 50.9377 35.312 50.9377H25.9371C24.6428 50.9377 23.5934 51.987 23.5934 53.2814V75.3123H18.906V58.9063C18.906 57.6119 17.8566 56.5626 16.5623 56.5626H7.1874C5.89304 56.5626 4.84368 57.6119 4.84368 58.9063V75.3123H2.34372C1.04936 75.3123 0 76.3617 0 77.656C0 78.9504 1.04936 79.9998 2.34372 79.9998H77.6552C78.9495 79.9998 79.9989 78.9504 79.9989 77.656C79.9989 76.3617 78.9495 75.3123 77.6552 75.3123Z" fill="#292929"/>
<path d="M2.34372 50.36C16.9713 50.36 32.8339 45.1067 47.0097 35.5676C58.1119 28.0966 67.3666 18.5525 73.1152 8.77967L75.3915 17.2744C75.6721 18.3216 77.0269 19.2262 78.2619 18.9316C79.5209 18.6313 80.2541 17.3114 79.9191 16.0611L76.0811 1.73789C75.746 0.487755 74.4615 -0.254423 73.2107 0.0807291L58.8875 3.91865C57.6372 4.25364 56.8953 5.53878 57.2303 6.78908C57.5655 8.03937 58.85 8.78155 60.1007 8.44624L69.3279 5.97377C63.9647 15.2933 55.1011 24.4726 44.3927 31.6786C30.9822 40.7028 16.049 45.6726 2.34372 45.6726C1.04936 45.6726 0 46.722 0 48.0163C0 49.3107 1.04936 50.36 2.34372 50.36Z" fill="#0D6EFD"/>
</g>
<defs>
<clipPath id="clip0_349_570">
<rect width="80" height="80" fill="white"/>
</clipPath>
</defs>
</svg>
