<svg width="80" height="80" viewBox="0 0 80 80" fill="none" xmlns="http://www.w3.org/2000/svg">
<g clip-path="url(#clip0_349_574)">
<path d="M40.0322 55C43.484 55 46.2822 52.2018 46.2822 48.75C46.2822 45.2982 43.484 42.5 40.0322 42.5C36.5804 42.5 33.7822 45.2982 33.7822 48.75C33.7822 52.2018 36.5804 55 40.0322 55Z" fill="#0D6EFD"/>
<path d="M49.4478 64.9897C48.9799 61.9395 46.356 59.6875 43.2702 59.6875H36.7944C33.7086 59.6875 31.0847 61.9395 30.6168 64.9895L28.5897 78.2005C28.4444 79.1469 29.1768 80 30.1341 80H49.9305C50.8878 80 51.6202 79.1469 51.4749 78.2005L49.4478 64.9897Z" fill="#292929"/>
<path d="M76.875 11.7188H48.4375V18.4375C48.4375 22.7453 44.9328 26.25 40.625 26.25H36.25V30.1562C36.25 31.8822 37.6491 33.2812 39.375 33.2812H54.3488L65.5105 41.0922C65.7909 41.2884 66.0997 41.3772 66.4011 41.3772C67.2123 41.3772 67.9688 40.7336 67.9688 39.812V33.2812H76.875C78.6009 33.2812 80 31.8822 80 30.1562V14.8438C80 13.1178 78.6009 11.7188 76.875 11.7188Z" fill="#0D6EFD"/>
<path d="M40.625 21.5625C42.3509 21.5625 43.75 20.1634 43.75 18.4375V3.125C43.75 1.39906 42.3509 0 40.625 0H3.125C1.39906 0 0 1.39906 0 3.125V18.4375C0 20.1634 1.39906 21.5625 3.125 21.5625H12.0312V28.0933C12.0312 29.0148 12.7878 29.6584 13.5989 29.6584C13.9003 29.6584 14.2091 29.5697 14.4895 29.3734L25.6512 21.5625H40.625Z" fill="#292929"/>
<path d="M68.7178 62.8125C72.1696 62.8125 74.9678 60.0143 74.9678 56.5625C74.9678 53.1107 72.1696 50.3125 68.7178 50.3125C65.266 50.3125 62.4678 53.1107 62.4678 56.5625C62.4678 60.0143 65.266 62.8125 68.7178 62.8125Z" fill="#0D6EFD"/>
<path d="M78.5015 72.238C77.8074 69.4537 75.3066 67.5 72.4373 67.5H64.9991C62.1298 67.5 59.629 69.4537 58.9348 72.238L57.4832 78.0595C57.2374 79.0455 57.9832 80 58.9993 80H78.437C79.453 80 80.1988 79.0455 79.953 78.0595L78.5015 72.238Z" fill="#292929"/>
<path d="M11.2822 62.8125C14.734 62.8125 17.5322 60.0143 17.5322 56.5625C17.5322 53.1107 14.734 50.3125 11.2822 50.3125C7.83045 50.3125 5.03223 53.1107 5.03223 56.5625C5.03223 60.0143 7.83045 62.8125 11.2822 62.8125Z" fill="#0D6EFD"/>
<path d="M21.0656 72.238C20.3714 69.4537 17.8706 67.5 15.0012 67.5H7.5631C4.69373 67.5 2.19295 69.4537 1.49873 72.238L0.0471671 78.0595C-0.198614 79.0455 0.547167 80 1.56326 80H21.0009C22.017 80 22.7628 79.0455 22.517 78.0595L21.0656 72.238Z" fill="#292929"/>
</g>
<defs>
<clipPath id="clip0_349_574">
<rect width="80" height="80" fill="white"/>
</clipPath>
</defs>
</svg>
