<svg width="80" height="80" viewBox="0 0 80 80" fill="none" xmlns="http://www.w3.org/2000/svg">
<g clip-path="url(#clip0_349_581)">
<path d="M20.3497 21.6042L13.4188 22.1397C11.4903 22.2888 9.77262 23.2995 8.70606 24.9128L0.712846 37.0021C-0.096054 38.2255 -0.224647 39.7566 0.36863 41.0978C0.962063 42.4391 2.18158 43.3738 3.63079 43.5983L9.97684 44.5811C11.4614 36.703 15.0151 28.8443 20.3497 21.6042Z" fill="#0D6EFD"/>
<path d="M35.4189 70.023L36.4019 76.3691C36.6264 77.8183 37.5611 79.0378 38.9022 79.6311C39.4602 79.878 40.0508 79.9998 40.6384 79.9998C41.4639 79.9998 42.2836 79.7594 42.9981 79.2869L55.0877 71.2938C56.701 70.2271 57.7117 68.5093 57.8605 66.581L58.396 59.6501C51.1557 64.9849 43.2972 68.5387 35.4189 70.023Z" fill="#0D6EFD"/>
<path d="M33.0321 65.6246C33.2524 65.6246 33.4739 65.6065 33.695 65.5696C36.9956 65.0177 40.1769 64.088 43.2115 62.8712L17.1289 36.7886C15.912 39.8231 14.9824 43.0043 14.4305 46.3051C14.213 47.6061 14.6494 48.9316 15.582 49.8644L30.1357 64.418C30.9101 65.1923 31.9552 65.6246 33.0321 65.6246Z" fill="#0D6EFD"/>
<path d="M73.6211 35.4689C80.0037 23.1293 80.2401 10.0895 79.9065 3.97387C79.7923 1.87842 78.1217 0.207811 76.026 0.093593C75.0303 0.0392184 73.8501 0 72.52 0C65.6816 0 54.8612 1.03577 44.531 6.37901C36.3214 10.6254 25.5563 19.9755 19.2051 32.2632C19.2801 32.3218 19.3534 32.384 19.4224 32.453L47.5472 60.5778C47.6163 60.6469 47.6783 60.72 47.7369 60.795C60.0246 54.4436 69.3747 43.6786 73.6211 35.4689ZM46.515 16.9124C51.0839 12.3435 58.5184 12.343 63.0875 16.9124C65.301 19.1256 66.5199 22.0686 66.5199 25.1987C66.5199 28.3288 65.301 31.2718 63.0875 33.485C60.8033 35.7692 57.8018 36.9116 54.8014 36.9119C51.8 36.9121 48.7998 35.7699 46.515 33.485C44.3016 31.2718 43.0826 28.3288 43.0826 25.1987C43.0826 22.0686 44.3016 19.1256 46.515 16.9124Z" fill="#292929"/>
<path d="M49.8294 30.1706C52.5708 32.912 57.0317 32.9121 59.7731 30.1706C61.1011 28.8425 61.8325 27.0768 61.8325 25.1987C61.8325 23.3206 61.1011 21.555 59.7731 20.227C58.4025 18.8562 56.6019 18.1709 54.8013 18.1709C53.0008 18.1709 51.2002 18.8562 49.8296 20.227C48.5016 21.555 47.77 23.3206 47.77 25.1987C47.77 27.0768 48.5014 28.8426 49.8294 30.1706Z" fill="#0D6EFD"/>
<path d="M2.39119 65.9275C2.99104 65.9275 3.59088 65.6988 4.04838 65.2409L11.7004 57.5889C12.6157 56.6736 12.6157 55.1897 11.7004 54.2744C10.7853 53.3591 9.30119 53.3591 8.38588 54.2744L0.733848 61.9264C-0.181465 62.8417 -0.181465 64.3256 0.733848 65.2409C1.1915 65.6986 1.79135 65.9275 2.39119 65.9275Z" fill="#292929"/>
<path d="M18.7132 61.2868C17.7981 60.3715 16.314 60.3715 15.3987 61.2868L0.686973 75.9985C-0.22834 76.9139 -0.22834 78.3978 0.686973 79.3131C1.14463 79.7707 1.74447 79.9995 2.34432 79.9995C2.94416 79.9995 3.544 79.7707 4.0015 79.3129L18.7131 64.6014C19.6285 63.686 19.6285 62.2021 18.7132 61.2868Z" fill="#292929"/>
<path d="M22.4111 68.2995L14.7592 75.9516C13.8439 76.8669 13.8439 78.3508 14.7592 79.2661C15.2169 79.7237 15.8167 79.9526 16.4164 79.9526C17.0161 79.9526 17.6161 79.7239 18.0736 79.2661L25.7256 71.6141C26.641 70.6987 26.641 69.2148 25.7256 68.2995C24.8105 67.3842 23.3264 67.3842 22.4111 68.2995Z" fill="#292929"/>
</g>
<defs>
<clipPath id="clip0_349_581">
<rect width="80" height="80" fill="white"/>
</clipPath>
</defs>
</svg>
