<svg width="32" height="32" viewBox="0 0 32 32" fill="none" xmlns="http://www.w3.org/2000/svg">
<g id="fi_5968813">
<g id="Group">
<path id="Vector" d="M31.9067 17.7926C31.9067 17.7926 30.1992 12.5337 30.1988 12.5327L26.8106 2.10116C26.6272 1.55728 26.1389 1.20703 25.5654 1.20703C25.5631 1.20703 25.5605 1.20709 25.5581 1.20709C24.9845 1.21009 24.4993 1.56384 24.3218 2.10891L21.0987 12.0318H10.9071L7.67805 2.10841C7.50068 1.56384 7.01549 1.21009 6.4418 1.20709C6.43943 1.20709 6.43693 1.20703 6.43443 1.20703C5.86093 1.20703 5.37274 1.55734 5.18668 2.10922C5.18668 2.10922 1.8068 12.534 1.80674 12.5343L0.0933031 17.7927C-0.160447 18.5743 0.114928 19.4238 0.778928 19.9067C0.778928 19.9067 15.5719 30.6548 15.5719 30.6548C15.7174 30.7605 15.9039 30.8095 16.0824 30.7888C16.2044 30.7747 16.3257 30.7276 16.4259 30.6551L31.2214 19.9065C31.8851 19.4238 32.1604 18.5743 31.9067 17.7926ZM28.0207 13.484L17.9653 26.368L22.1539 13.4841H28.0207V13.484ZM15.9996 27.7173L15.6351 26.5945L11.3791 13.4841H20.6268L15.9996 27.7173ZM9.85212 13.484L14.0348 26.3686L3.98487 13.484H9.85212ZM25.5675 2.97497L28.5092 12.0318H22.6257L25.5675 2.97497ZM6.43274 2.97472L9.37987 12.0318H3.49637L6.43274 2.97472ZM1.63274 18.732C1.47912 18.6202 1.41555 18.4229 1.47437 18.2418L2.76493 14.2813L4.64362 16.6899L12.2579 26.4518L1.63274 18.732ZM30.3675 18.7317L19.7439 26.4495L22.7571 22.5888L29.24 14.2822L30.5253 18.2411C30.5844 18.4229 30.5208 18.6202 30.3675 18.7317Z" fill="#666666"/>
</g>
</g>
</svg>
