<svg width="32" height="32" viewBox="0 0 32 32" fill="none" xmlns="http://www.w3.org/2000/svg">
<g id="fi_16459818" clip-path="url(#clip0_1748_4639)">
<path id="Vector" d="M29.7056 13.0974C30.4316 10.9183 30.1816 8.53127 29.0206 6.54927C27.2745 3.50921 23.7644 1.94515 20.3364 2.68121C18.8113 0.963148 16.6203 -0.0138516 14.3232 0.000148423C10.8192 -0.00785158 7.71012 2.24821 6.63205 5.58227C4.38099 6.04327 2.43799 7.45234 1.30093 9.44934C-0.45807 12.4814 -0.0570703 16.3035 2.29299 18.9035C1.56699 21.0826 1.81699 23.4696 2.97799 25.4516C4.72405 28.4917 8.23412 30.0558 11.6622 29.3197C13.1862 31.0378 15.3782 32.0148 17.6753 31.9998C21.1814 32.0088 24.2914 29.7507 25.3695 26.4136C27.6206 25.9526 29.5636 24.5436 30.7006 22.5466C32.4577 19.5145 32.0557 15.6955 29.7066 13.0954L29.7056 13.0974ZM17.6773 29.9088C16.2743 29.9108 14.9152 29.4198 13.8382 28.5208C13.8872 28.4948 13.9722 28.4478 14.0272 28.4138L20.3994 24.7337C20.7254 24.5487 20.9254 24.2017 20.9234 23.8267V14.8434L23.6164 16.3985C23.6454 16.4125 23.6644 16.4405 23.6684 16.4725V23.9116C23.6644 27.2197 20.9854 29.9018 17.6773 29.9088ZM4.79299 24.4056C4.08999 23.1916 3.83699 21.7686 4.07799 20.3876C4.12499 20.4156 4.20799 20.4666 4.26699 20.5006L10.6391 24.1806C10.9621 24.3696 11.3621 24.3696 11.6861 24.1806L19.4653 19.6885V22.7986C19.4673 22.8306 19.4523 22.8616 19.4273 22.8816L12.9862 26.6006C10.1171 28.2527 6.45305 27.2706 4.79399 24.4056L4.79299 24.4056ZM3.11599 10.4963C3.81599 9.28034 4.92105 8.35027 6.23705 7.86727C6.23705 7.92227 6.23405 8.01927 6.23405 8.08727V15.4485C6.23205 15.8225 6.43205 16.1695 6.75705 16.3545L14.5362 20.8456L11.8432 22.4006C11.8162 22.4186 11.7822 22.4216 11.7522 22.4086L5.31005 18.6865C2.44699 17.0285 1.46499 13.3654 3.11499 10.4973L3.11599 10.4963ZM25.2424 15.6455L17.4632 11.1533L20.1563 9.59934C20.1833 9.58134 20.2173 9.57834 20.2473 9.59134L26.6894 13.3104C29.5575 14.9674 30.5405 18.6365 28.8835 21.5046C28.1825 22.7186 27.0784 23.6486 25.7634 24.1326V16.5515C25.7664 16.1775 25.5674 15.8315 25.2434 15.6455H25.2424ZM27.9225 11.6113C27.8755 11.5823 27.7925 11.5323 27.7335 11.4983L21.3614 7.81827C21.0384 7.62927 20.6384 7.62927 20.3144 7.81827L12.5352 12.3103V9.20027C12.5332 9.16827 12.5482 9.13727 12.5732 9.11727L19.0143 5.40121C21.8834 3.74615 25.5514 4.73121 27.2055 7.60127C27.9045 8.81334 28.1575 10.2323 27.9205 11.6113H27.9225ZM11.0712 17.1545L8.37712 15.5995C8.34812 15.5855 8.32912 15.5575 8.32512 15.5255V8.08627C8.32712 4.77421 11.0142 2.09015 14.3262 2.09215C15.7272 2.09215 17.0833 2.58415 18.1603 3.48015C18.1113 3.50615 18.0273 3.55315 17.9713 3.58715L11.5992 7.26727C11.2732 7.45227 11.0732 7.79827 11.0752 8.17327L11.0712 17.1525V17.1545ZM12.5342 14.0004L15.9992 11.9993L19.4643 13.9994V18.0005L15.9992 20.0005L12.5342 18.0005V14.0004Z" fill="#666666"/>
</g>
<defs>
<clipPath id="clip0_1748_4639">
<rect width="32" height="32" fill="white"/>
</clipPath>
</defs>
</svg>
