<svg width="32" height="32" viewBox="0 0 32 32" fill="none" xmlns="http://www.w3.org/2000/svg">
<g id="fi_5009707" clip-path="url(#clip0_1748_4697)">
<g id="Group">
<path id="Vector" d="M29.1875 13.1875C27.9669 13.1875 26.936 13.9736 26.5477 15.0625H24.3428C24.1606 13.4432 23.5312 11.9732 22.5629 10.7627L24.0891 9.23656C24.4685 9.41544 24.8691 9.53 25.2807 9.53C26.0012 9.53 26.7208 9.25625 27.2692 8.70788C28.4493 7.52775 28.4493 5.91094 27.2692 4.73081C26.1724 3.634 24.3889 3.634 23.2921 4.73081C22.4303 5.59269 22.2709 6.86744 22.7634 7.91087L21.2372 9.43706C20.0268 8.46875 18.5567 7.83944 16.9375 7.65725V5.45231C18.0264 5.064 18.8125 4.03312 18.8125 2.8125C18.8125 1.26163 17.5509 0 16 0C14.4491 0 13.1875 1.26163 13.1875 2.8125C13.1875 4.03312 13.9736 5.064 15.0625 5.45231V7.65725C13.4432 7.83944 11.9732 8.46875 10.7627 9.43706L9.23656 7.91087C9.72913 6.86737 9.56969 5.59263 8.70788 4.73081C7.61106 3.634 5.82763 3.634 4.73081 4.73081C3.634 5.82763 3.634 7.61106 4.73081 8.70788C5.27919 9.25625 5.99881 9.53 6.71931 9.53C7.13094 9.53 7.5315 9.41544 7.91087 9.23656L9.43706 10.7627C8.46875 11.9732 7.83944 13.4432 7.65725 15.0625H5.45231C5.064 13.9736 4.03312 13.1875 2.8125 13.1875C1.26163 13.1875 0 14.4491 0 16C0 17.5509 1.26163 18.8125 2.8125 18.8125C4.03312 18.8125 5.064 18.0264 5.45231 16.9375H7.65725C7.83944 18.5567 8.46875 20.0268 9.43706 21.2372L7.91087 22.7634C6.86737 22.271 5.5925 22.4304 4.73081 23.2921C3.634 24.3889 3.634 26.1724 4.73081 27.2692C5.27919 27.8176 5.99881 28.0913 6.71931 28.0913C7.43981 28.0913 8.15944 27.8176 8.70781 27.2692C9.56956 26.4074 9.729 25.1326 9.2365 24.0891L10.7627 22.5629C11.9731 23.5312 13.4432 24.1606 15.0624 24.3428V26.5477C13.9736 26.936 13.1874 27.9669 13.1874 29.1875C13.1874 30.7384 14.4491 32 15.9999 32C17.5508 32 18.8124 30.7384 18.8124 29.1875C18.8124 27.9669 18.0263 26.936 16.9374 26.5477V24.3428C18.5567 24.1606 20.0268 23.5312 21.2372 22.5629L22.7634 24.0891C22.2709 25.1326 22.4304 26.4075 23.2921 27.2692C23.8404 27.8176 24.5601 28.0913 25.2806 28.0913C26.0011 28.0913 26.7207 27.8176 27.2691 27.2692C28.3659 26.1724 28.3659 24.3889 27.2691 23.2921C26.4072 22.4303 25.1324 22.2709 24.089 22.7634L22.5628 21.2372C23.5311 20.0268 24.1604 18.5567 24.3426 16.9375H26.5476C26.9359 18.0264 27.9667 18.8125 29.1874 18.8125C30.7382 18.8125 31.9999 17.5509 31.9999 16C31.9999 14.4491 30.7384 13.1875 29.1875 13.1875ZM16 18.8125C16.9988 18.8125 17.9327 18.2733 18.4362 17.4044C18.6944 16.9568 19.2666 16.802 19.7179 17.0639C20.1656 17.3239 20.3185 17.8979 20.0585 18.3456C19.2199 19.7903 17.6654 20.6875 16 20.6875C13.4154 20.6875 11.3125 18.5846 11.3125 16C11.3125 13.4154 13.4154 11.3125 16 11.3125C17.6654 11.3125 19.2199 12.2097 20.0586 13.6544C20.3186 14.1021 20.1657 14.6762 19.718 14.9362C19.2694 15.1999 18.6963 15.0433 18.4363 14.5956C17.9327 13.7267 16.9988 13.1875 16 13.1875C14.4491 13.1875 13.1875 14.4491 13.1875 16C13.1875 17.5509 14.4491 18.8125 16 18.8125Z" fill="#666666"/>
</g>
</g>
<defs>
<clipPath id="clip0_1748_4697">
<rect width="32" height="32" fill="white"/>
</clipPath>
</defs>
</svg>
