<svg width="32" height="32" viewBox="0 0 32 32" fill="none" xmlns="http://www.w3.org/2000/svg">
<g id="fi_36420" clip-path="url(#clip0_1748_4659)">
<g id="Group">
<g id="Group_2">
<path id="Vector" d="M21.3584 5.79297C19.1541 5.79297 17.3584 7.58743 17.3584 9.79297C17.3584 11.9985 19.1541 13.793 21.3584 13.793C23.5652 13.793 25.3584 11.9985 25.3584 9.79297C25.3584 7.58743 23.5639 5.79297 21.3584 5.79297ZM21.3584 13.1776C19.4913 13.1776 17.9738 11.66 17.9738 9.79297C17.9738 7.92589 19.4913 6.40835 21.3584 6.40835C23.2267 6.40835 24.743 7.92589 24.743 9.79297C24.743 11.66 23.2255 13.1776 21.3584 13.1776Z" fill="#666666"/>
<path id="Vector_2" d="M11.5258 6.21484C9.55291 6.21484 7.94922 7.81977 7.94922 9.79146C7.94922 11.7632 9.55414 13.3681 11.5258 13.3681C13.4975 13.3681 15.1025 11.7632 15.1025 9.79146C15.1025 7.81977 13.4975 6.21484 11.5258 6.21484ZM11.5258 12.7527C9.8926 12.7527 8.5646 11.4247 8.5646 9.79146C8.5646 8.15823 9.89383 6.83023 11.5258 6.83023C13.1578 6.83023 14.4871 8.15823 14.4871 9.79146C14.4871 11.4247 13.1578 12.7527 11.5258 12.7527Z" fill="#666666"/>
<path id="Vector_3" d="M16 0C7.17785 0 0 7.17785 0 16C0 24.8222 7.17785 32 16 32C24.8222 32 32 24.8222 32 16C32 7.17785 24.8222 0 16 0ZM4.76923 18.2572C4.76923 18.9378 4.21785 19.488 3.53846 19.488C2.85908 19.488 2.30769 18.9378 2.30769 18.2572V16C2.30769 15.3194 2.85908 14.7692 3.53846 14.7692C4.21785 14.7692 4.76923 15.3194 4.76923 16V18.2572ZM7.744 20.5132C7.744 21.1938 7.19262 21.744 6.51323 21.744C5.83385 21.744 5.28246 21.1938 5.28246 20.5132V16C5.28246 15.3194 5.83385 14.7692 6.51323 14.7692C7.19262 14.7692 7.744 15.3194 7.744 16V20.5132ZM10.7175 22.4615C10.7175 23.1422 10.1662 23.6923 9.48677 23.6923C8.80739 23.6923 8.256 23.1422 8.256 22.4615V16C8.256 15.3194 8.80739 14.7692 9.48677 14.7692C10.1662 14.7692 10.7175 15.3194 10.7175 16V22.4615ZM13.6923 20.5132C13.6923 21.1938 13.1409 21.744 12.4615 21.744C11.7822 21.744 11.2308 21.1938 11.2308 20.5132V16C11.2308 15.3194 11.7822 14.7692 12.4615 14.7692C13.1409 14.7692 13.6923 15.3194 13.6923 16V20.5132ZM20.7692 20.5132C20.7692 21.1938 20.2178 21.744 19.5385 21.744C18.8591 21.744 18.3077 21.1938 18.3077 20.5132V16C18.3077 15.3194 18.8591 14.7692 19.5385 14.7692C20.2178 14.7692 20.7692 15.3194 20.7692 16V20.5132ZM23.744 22.4615C23.744 23.1422 23.1926 23.6923 22.5132 23.6923C21.8338 23.6923 21.2825 23.1422 21.2825 22.4615V16C21.2825 15.3194 21.8338 14.7692 22.5132 14.7692C23.1926 14.7692 23.744 15.3194 23.744 16V22.4615ZM26.7175 20.5132C26.7175 21.1938 26.1662 21.744 25.4868 21.744C24.8074 21.744 24.256 21.1938 24.256 20.5132V16C24.256 15.3194 24.8074 14.7692 25.4868 14.7692C26.1662 14.7692 26.7175 15.3194 26.7175 16V20.5132ZM29.6923 18.2572C29.6923 18.9378 29.1409 19.488 28.4615 19.488C27.7822 19.488 27.2308 18.9378 27.2308 18.2572V16C27.2308 15.3194 27.7822 14.7692 28.4615 14.7692C29.1409 14.7692 29.6923 15.3194 29.6923 16V18.2572ZM28.4615 14.1538C27.8498 14.1538 27.3095 14.4566 26.9748 14.9157C26.64 14.4566 26.0997 14.1538 25.488 14.1538C24.8763 14.1538 24.336 14.4566 24.0012 14.9157C23.6665 14.4566 23.1262 14.1538 22.5145 14.1538C21.9028 14.1538 21.3625 14.4566 21.0277 14.9157C20.6929 14.4566 20.1526 14.1538 19.5409 14.1538C18.5231 14.1538 17.6948 14.9822 17.6948 16H14.3114C14.3114 14.9822 13.4831 14.1538 12.4652 14.1538C11.8535 14.1538 11.3132 14.4566 10.9785 14.9157C10.6425 14.4566 10.1034 14.1538 9.49169 14.1538C8.88 14.1538 8.33969 14.4566 8.00492 14.9157C7.66892 14.4566 7.12985 14.1538 6.51815 14.1538C5.90646 14.1538 5.36615 14.4566 5.03138 14.9157C4.69538 14.4566 4.15631 14.1538 3.54462 14.1538C2.52677 14.1538 1.69846 14.9822 1.69846 16H1.23077C1.23077 10.1945 4.60554 5.17662 9.48677 2.76431V4.48246C9.48677 4.48246 13.2394 5.45477 14.7692 6.84431C12.5969 3.42031 9.80308 2.80492 9.51508 2.74954C11.4769 1.78708 13.6714 1.23077 16 1.23077C24.144 1.23077 30.7692 7.856 30.7692 16H30.3077C30.3077 14.9822 29.4806 14.1538 28.4615 14.1538Z" fill="#666666"/>
<path id="Vector_4" d="M12.4611 10.9495C13.0987 10.9495 13.6156 10.4327 13.6156 9.79509C13.6156 9.1575 13.0987 8.64062 12.4611 8.64062C11.8235 8.64062 11.3066 9.1575 11.3066 9.79509C11.3066 10.4327 11.8235 10.9495 12.4611 10.9495Z" fill="#666666"/>
<path id="Vector_5" d="M19.6155 11.024C20.2953 11.024 20.8463 10.473 20.8463 9.79327C20.8463 9.11353 20.2953 8.5625 19.6155 8.5625C18.9358 8.5625 18.3848 9.11353 18.3848 9.79327C18.3848 10.473 18.9358 11.024 19.6155 11.024Z" fill="#666666"/>
<path id="Vector_6" d="M21.1283 3.82031C21.1283 3.82031 18.9228 4.1797 17.2305 6.84554C18.3591 5.82031 21.1283 5.10277 21.1283 5.10277V3.82031Z" fill="#666666"/>
</g>
</g>
</g>
<defs>
<clipPath id="clip0_1748_4659">
<rect width="32" height="32" fill="white"/>
</clipPath>
</defs>
</svg>
