<svg width="32" height="32" viewBox="0 0 32 32" fill="none" xmlns="http://www.w3.org/2000/svg">
<g id="fi_299406" clip-path="url(#clip0_1748_4669)">
<g id="Group">
<g id="Group_2">
<path id="Vector" d="M6.22574 0.503583C5.49674 0.0325204 4.62112 -0.109855 3.7998 0.0840204L18.2331 14.5173L22.9109 9.83946L6.22574 0.503583Z" fill="#666666"/>
</g>
</g>
<g id="Group_3">
<g id="Group_4">
<path id="Vector_2" d="M2.00827 1.25781C1.60571 1.793 1.37402 2.45012 1.37402 3.14525V28.8551C1.37402 29.5503 1.60577 30.2074 2.00827 30.7426L16.7506 16.0002L2.00827 1.25781Z" fill="#666666"/>
</g>
</g>
<g id="Group_5">
<g id="Group_6">
<path id="Vector_3" d="M29.0164 13.2547L24.8123 10.9023L19.7158 15.9988L24.8126 21.0956L29.0171 18.7431C30.0244 18.1787 30.6258 17.153 30.6258 15.9988C30.6258 14.8447 30.0244 13.819 29.0164 13.2547Z" fill="#666666"/>
</g>
</g>
<g id="Group_7">
<g id="Group_8">
<path id="Vector_4" d="M18.2332 17.4805L3.80078 31.9128C4.03741 31.9685 4.27822 31.9985 4.51903 31.9985C5.11416 31.9985 5.70722 31.8293 6.22591 31.4942L22.9112 22.1584L18.2332 17.4805Z" fill="#666666"/>
</g>
</g>
</g>
<defs>
<clipPath id="clip0_1748_4669">
<rect width="32" height="32" fill="white"/>
</clipPath>
</defs>
</svg>
