<svg width="32" height="32" viewBox="0 0 32 32" fill="none" xmlns="http://www.w3.org/2000/svg">
<g id="fi_12922" clip-path="url(#clip0_1748_4647)">
<g id="Group">
<g id="Group_2">
<path id="Vector" d="M15.9999 29.4159C23.3175 29.4159 29.2712 23.3975 29.2712 16.0008C29.2712 15.5279 29.2462 15.0509 29.1976 14.5828C29.131 13.9419 28.6678 13.5273 28.0185 13.5273C27.6887 13.5273 27.3352 13.6364 26.9957 13.8426C26.1395 14.3627 25.7451 16.0675 25.3284 17.8729L25.2069 18.3951C24.6931 20.5845 23.4522 22.3636 21.5183 23.6822C21.0426 24.0065 20.4843 24.178 19.9031 24.178C18.9302 24.178 18.0074 23.6927 17.6074 22.9698C17.1949 22.2247 16.6241 21.8143 15.9999 21.8143C15.3756 21.8143 14.8041 22.2247 14.3923 22.9698C13.9931 23.6927 13.0702 24.178 12.0967 24.178C11.5154 24.178 10.9558 24.0065 10.4808 23.6815C8.54828 22.3636 7.30808 20.5845 6.79283 18.3951L6.67131 17.8729C6.25398 16.0675 5.86026 14.3627 5.00406 13.8426C4.6652 13.6364 4.31105 13.5273 3.98121 13.5273C3.33125 13.5273 2.86809 13.9419 2.80212 14.5828C2.75351 15.0509 2.72852 15.5279 2.72852 16.0008C2.72852 23.3982 8.68229 29.4159 15.9999 29.4159Z" fill="#666666"/>
<path id="Vector_2" d="M31.9759 9.77505C31.8467 9.30217 31.2468 9.0626 30.1927 9.0626C28.6462 9.0626 26.6172 7.7363 25.2909 6.42249C22.7952 3.94835 19.4954 2.58594 15.9998 2.58594C12.5042 2.58594 9.20444 3.94835 6.70877 6.42249C5.38316 7.7363 3.35343 9.0626 1.807 9.0626C0.752209 9.0626 0.152943 9.30217 0.0237846 9.77505C-0.0963465 10.2167 0.239048 10.6736 1.01955 11.1333L12.832 18.0912C13.684 18.5932 14.8096 18.8689 15.9998 18.8689C17.19 18.8689 18.3163 18.5932 19.1677 18.0912L30.9808 11.1333C31.7613 10.6729 32.096 10.216 31.9759 9.77505ZM8.73363 9.82922C8.89057 9.6334 9.21277 9.52507 9.6433 9.52507C10.3099 9.52507 11.1272 9.782 11.8279 10.2125C12.3035 10.5035 12.7799 10.6583 13.207 10.6583C14.1562 10.6583 14.77 9.93338 14.77 8.81192C14.77 7.34952 15.1193 6.5579 15.236 6.48221C15.7325 6.44333 16.2831 6.45305 16.7033 6.47041C16.8748 6.57734 17.181 7.4509 17.181 8.80845C17.181 9.93407 17.8032 10.6618 18.7656 10.6618C19.1948 10.6618 19.6746 10.5097 20.1523 10.2216C20.8634 9.79311 21.689 9.53757 22.3605 9.53757C22.7938 9.53757 23.1181 9.6452 23.2723 9.84033C23.348 9.93476 23.3702 10.0625 23.3396 10.2306C23.2188 10.8923 22.3682 11.811 21.2703 12.4652L18.8316 13.9178C18.0858 14.3629 17.0852 14.6074 16.0158 14.6074C14.9534 14.6074 13.959 14.365 13.2167 13.9248L10.7335 12.4534C9.63635 11.8034 8.78571 10.8875 8.66489 10.2257C8.63433 10.0549 8.65656 9.92574 8.73363 9.82922Z" fill="#666666"/>
</g>
</g>
</g>
<defs>
<clipPath id="clip0_1748_4647">
<rect width="32" height="32" fill="white"/>
</clipPath>
</defs>
</svg>
