<svg width="26" height="26" viewBox="0 0 26 26" fill="none" xmlns="http://www.w3.org/2000/svg">
<g clip-path="url(#clip0_1693_5252)">
<path d="M25.4312 14.1749L23.133 11.1106C22.9956 4.96065 17.9501 0.000168214 11.7678 0.000168214C1.44109 -0.0540151 -3.54646 12.9949 4.17641 19.8278L2.87002 25.0536C2.81314 25.2811 2.86428 25.5222 3.0086 25.7071C3.15297 25.892 3.37442 26 3.60898 26H14.2154C14.565 26 14.8697 25.7621 14.9544 25.423L15.6036 22.826L20.6348 23.5447C21.021 23.5999 21.3868 23.354 21.4814 22.9753L23.0418 16.734L25.2444 15.2656C25.4186 15.1494 25.5373 14.9667 25.5727 14.7604C25.608 14.5541 25.5569 14.3423 25.4312 14.1749ZM21.9517 15.6298C21.794 15.735 21.6812 15.8951 21.6353 16.0789L20.1701 21.9395L15.139 21.2208C14.7528 21.1655 14.387 21.4114 14.2923 21.7901L13.6207 24.4766H4.58453L5.76829 19.7417C5.83953 19.4566 5.74051 19.156 5.51372 18.9691C4.32144 17.9865 3.39545 16.7607 2.78242 15.3936H5.74112L7.14978 16.8023C7.29263 16.9451 7.48636 17.0253 7.68837 17.0253H9.49927C10.3932 19.5585 14.1078 18.9826 14.1612 16.2636C14.1076 13.5442 10.3928 12.9692 9.49927 15.5019H8.00387L6.59515 14.0933C6.45231 13.9504 6.25858 13.8702 6.05657 13.8702H2.24531C2.09688 13.304 1.99846 12.7221 1.95291 12.1301H14.3946C15.2885 14.6632 19.0031 14.0873 19.0565 11.3683C19.0029 8.64888 15.288 8.07388 14.3946 10.6066H1.95225C1.99811 10.0103 2.09769 9.42872 2.24551 8.86652H6.05657C6.25858 8.86652 6.45231 8.78629 6.59515 8.64344L8.00387 7.23478H9.49927C10.3932 9.76788 14.1078 9.19203 14.1612 6.47301C14.1076 3.75359 10.3928 3.1786 9.49927 5.71135H7.68837C7.48636 5.71135 7.29263 5.79163 7.14978 5.93443L5.74112 7.34309H2.7842C7.13496 -2.19626 21.4943 0.742331 21.6125 11.3685C21.6125 11.5331 21.666 11.6935 21.7648 11.8253L23.7294 14.4447L21.9517 15.6298ZM10.8977 16.2636C10.8977 15.7839 11.288 15.3936 11.7678 15.3936C12.9204 15.4373 12.9201 17.0901 11.7678 17.1337C11.288 17.1337 10.8977 16.7434 10.8977 16.2636ZM15.793 11.3683C15.793 10.8886 16.1833 10.4983 16.663 10.4983C17.8157 10.542 17.8154 12.1949 16.663 12.2384C16.1833 12.2384 15.793 11.8481 15.793 11.3683ZM10.8977 6.47306C10.8977 5.99334 11.288 5.60303 11.7678 5.60303C12.9204 5.64676 12.9201 7.29957 11.7678 7.34314C11.288 7.34309 10.8977 6.95279 10.8977 6.47306Z" fill="url(#paint0_linear_1693_5252)"/>
</g>
<defs>
<linearGradient id="paint0_linear_1693_5252" x1="25.131" y1="1.20371" x2="-1.83861" y2="4.96405" gradientUnits="userSpaceOnUse">
<stop stop-color="#23EFEF"/>
<stop offset="0.349611" stop-color="#37B8BE"/>
<stop offset="0.701514" stop-color="#2DA0FF"/>
<stop offset="1" stop-color="#B172FE"/>
</linearGradient>
<clipPath id="clip0_1693_5252">
<rect width="26" height="26" fill="white"/>
</clipPath>
</defs>
</svg>
