<svg width="64" height="64" viewBox="0 0 64 64" fill="none" xmlns="http://www.w3.org/2000/svg">
<g id="fi_4729541" clip-path="url(#clip0_1699_5398)">
<g id="Group">
<path id="Vector" d="M60.7583 31.9999C60.7583 29.1966 59.7468 26.562 57.8933 24.4968C59.4603 19.4667 55.9552 13.9994 50.7428 13.325C50.5438 9.07072 47.2937 5.60038 43.1367 5.05755C42.1577 -0.227891 35.1768 -1.83886 31.991 2.48612C28.8033 -1.84086 21.823 -0.225139 20.8454 5.05755C16.6885 5.60038 13.4384 9.07072 13.2394 13.325C8.0255 14.0002 4.52239 19.4674 6.08871 24.4968C2.29192 28.5645 2.29217 35.4358 6.08871 39.5032C4.52164 44.5332 8.02713 50.0005 13.2394 50.675C13.4384 54.9293 16.6884 58.3996 20.8454 58.9426C21.8242 64.228 28.8053 65.8387 31.9911 61.5139C35.1788 65.8409 42.1591 64.2251 43.1368 58.9426C47.2937 58.3996 50.5439 54.9293 50.7429 50.675C55.9567 49.9998 59.46 44.5326 57.8935 39.5032C59.7468 37.4378 60.7583 34.8034 60.7583 31.9999ZM39.4955 23.2448C40.1852 23.2448 40.7463 23.8057 40.7463 24.4954V39.5045C40.7463 40.1941 40.1852 40.7552 39.4955 40.7552H24.4864C23.7968 40.7552 23.2357 40.1941 23.2357 39.5045V24.4954C23.2357 23.8057 23.7968 23.2448 24.4864 23.2448H39.4955ZM26.9881 61.5177C24.9191 61.5177 23.2358 59.8345 23.2358 57.7656C23.2358 57.0749 22.6758 56.5149 21.9851 56.5149C18.5367 56.5149 15.7313 53.7094 15.7313 50.2611C15.7313 50.0525 15.7418 49.8416 15.7624 49.6341C15.8497 48.9191 15.2362 48.2444 14.5178 48.2594C11.1436 48.3526 8.15621 45.3795 8.22675 42.0058C8.22675 41.1947 8.37984 40.4054 8.68203 39.6598C8.87339 39.1874 8.75895 38.6461 8.39273 38.2915C6.67269 36.6265 5.72537 34.3921 5.72537 31.9999C5.72537 29.6079 6.67269 27.3735 8.39273 25.7085C8.75895 25.3539 8.87352 24.8126 8.68203 24.3402C6.99888 20.3081 10.0978 15.6887 14.4743 15.7405C14.8405 15.7519 15.1961 15.6037 15.4427 15.3319C15.6815 15.0697 15.7977 14.7186 15.7625 14.3658C15.3763 10.7191 18.3145 7.46288 21.9852 7.48501C22.676 7.48501 23.2359 6.92505 23.2359 6.23426C23.2359 4.16539 24.9192 2.48212 26.9882 2.48212C29.0572 2.48212 30.7405 4.16526 30.7405 6.23426V20.7431H28.239V18.8669C28.239 18.1762 27.679 17.6161 26.9882 17.6161C26.2974 17.6161 25.7374 18.1762 25.7374 18.8669V20.7431H24.4867C22.4177 20.7431 20.7344 22.4263 20.7344 24.4953V25.7462H18.8583C18.1675 25.7462 17.6075 26.3062 17.6075 26.9969C17.6075 27.6876 18.1675 28.2477 18.8583 28.2477H20.7344V30.7491H18.8583C18.1675 30.7491 17.6075 31.3091 17.6075 31.9998C17.6075 32.6905 18.1675 33.2506 18.8583 33.2506H20.7344V35.7521H15.3839C14.7878 35.024 14.0059 34.4407 13.0862 34.0731C12.4449 33.8168 11.717 34.1288 11.4606 34.7704C11.2042 35.4117 11.5164 36.1396 12.1577 36.396C13.3755 36.8826 14.1625 38.0446 14.1625 39.356C14.1625 40.2076 13.8309 41.0081 13.2288 41.6101C12.438 42.3778 13.0248 43.7649 14.1133 43.7453C14.4334 43.7453 14.7534 43.6232 14.9977 43.3789C16.3388 42.0564 16.9249 40.0963 16.558 38.2535H20.7344V39.5042C20.7344 41.5732 22.4177 43.2565 24.4867 43.2565H25.7374V45.1327C25.7374 45.8234 26.2974 46.3835 26.9882 46.3835C27.679 46.3835 28.239 45.8234 28.239 45.1327V43.2565H30.7405V57.7654C30.7403 59.8345 29.0571 61.5177 26.9881 61.5177ZM53.9096 46.4418C52.7297 47.6149 51.1679 48.2595 49.508 48.2595C48.7772 48.2221 48.1285 48.9016 48.2196 49.6338C48.6059 53.2823 45.668 56.5359 41.997 56.5147C41.3063 56.5147 40.7463 57.0748 40.7463 57.7655C40.7463 59.8344 39.063 61.5176 36.994 61.5176C34.925 61.5176 33.2418 59.8344 33.2418 57.7655V43.2567H35.7432V45.133C35.7432 45.8237 36.3033 46.3837 36.994 46.3837C37.6847 46.3837 38.2447 45.8237 38.2447 45.133V43.2567H39.4955C41.5645 43.2567 43.2478 41.5735 43.2478 39.5045V38.2537H45.124C45.8147 38.2537 46.3748 37.6936 46.3748 37.003C46.3748 36.3123 45.8147 35.7522 45.124 35.7522H43.2478V33.2507H45.124C45.8147 33.2507 46.3748 32.6906 46.3748 31.9999C46.3748 31.3093 45.8147 30.7492 45.124 30.7492H43.2478V28.2478H48.5982C49.1945 28.9759 49.9764 29.5592 50.8961 29.9268C51.5213 30.1815 52.2657 29.8775 52.5217 29.2295C52.7781 28.5881 52.4659 27.8603 51.8244 27.6039C50.6067 27.1171 49.8197 25.9553 49.8197 24.6439C49.8197 23.7924 50.1513 22.9919 50.7535 22.3898C51.242 21.9013 51.242 21.1094 50.7535 20.6208C50.265 20.1325 49.4733 20.1325 48.9846 20.6208C47.9099 21.6955 47.3182 23.1242 47.3182 24.6439C47.3182 25.0196 47.3545 25.3883 47.4242 25.7463H43.2478V24.4954C43.2478 22.4264 41.5645 20.7433 39.4955 20.7433H38.2447V18.867C38.2447 18.1763 37.6847 17.6163 36.994 17.6163C36.3033 17.6163 35.7432 18.1763 35.7432 18.867V20.7433H33.2418V6.23438C33.2418 4.16539 34.925 2.48224 36.994 2.48224C39.063 2.48224 40.7463 4.16539 40.7463 6.23438C40.7463 6.92505 41.3063 7.48514 41.997 7.48514C45.6677 7.464 48.6061 10.7178 48.2196 14.3662C48.1301 15.0974 48.7738 15.7808 49.508 15.7405C52.8643 15.6711 55.826 18.6374 55.7553 21.9941C55.7553 22.8053 55.6022 23.5946 55.3002 24.3402C55.1088 24.8126 55.2232 25.3539 55.5895 25.7085C57.3095 27.3735 58.2568 29.6079 58.2568 31.9999C58.2568 34.3921 57.3095 36.6265 55.5895 38.2915C55.2231 38.6461 55.1087 39.1874 55.3002 39.6598C56.245 41.9434 55.6875 44.7152 53.9096 46.4418Z" fill="url(#paint0_linear_1699_5398)"/>
<path id="Vector_2" d="M42.3622 47.8984C38.8798 47.8984 36.0469 50.7314 36.0469 54.2137C36.0469 54.9044 36.607 55.4645 37.2976 55.4645C37.9883 55.4645 38.5484 54.9044 38.5484 54.2137C38.5484 52.1109 40.2593 50.3999 42.3622 50.3999C44.0176 50.3398 44.0207 47.9598 42.3622 47.8984Z" fill="url(#paint1_linear_1699_5398)"/>
<path id="Vector_3" d="M21.6197 16.1051C25.102 16.1051 27.9351 13.2722 27.9351 9.78982C27.9351 9.09915 27.3751 8.53906 26.6843 8.53906C25.9935 8.53906 25.4336 9.09915 25.4336 9.78982C25.4336 11.8927 23.7227 13.6036 21.6197 13.6036C19.9643 13.6637 19.9612 16.0437 21.6197 16.1051Z" fill="url(#paint2_linear_1699_5398)"/>
<path id="Vector_4" d="M26.9881 38.2535H31.9911C32.3228 38.2535 32.641 38.1217 32.8755 37.8872L37.8785 32.8842C38.113 32.6495 38.2449 32.3314 38.2449 31.9997V26.9968C38.2449 26.3062 37.6848 25.7461 36.9941 25.7461H26.9881C26.2973 25.7461 25.7373 26.3062 25.7373 26.9968V37.0028C25.7373 37.6934 26.2973 38.2535 26.9881 38.2535ZM28.2388 28.2476H35.7433V31.4816L31.473 35.752H28.2388V28.2476Z" fill="url(#paint3_linear_1699_5398)"/>
</g>
</g>
<defs>
<linearGradient id="paint0_linear_1699_5398" x1="59.7238" y1="2.96297" x2="-2.07643" y2="10.9634" gradientUnits="userSpaceOnUse">
<stop stop-color="#23EFEF"/>
<stop offset="0.349611" stop-color="#37B8BE"/>
<stop offset="0.701514" stop-color="#2DA0FF"/>
<stop offset="1" stop-color="#B172FE"/>
</linearGradient>
<linearGradient id="paint1_linear_1699_5398" x1="43.469" y1="48.2487" x2="35.3795" y2="49.4127" gradientUnits="userSpaceOnUse">
<stop stop-color="#23EFEF"/>
<stop offset="0.349611" stop-color="#37B8BE"/>
<stop offset="0.701514" stop-color="#2DA0FF"/>
<stop offset="1" stop-color="#B172FE"/>
</linearGradient>
<linearGradient id="paint2_linear_1699_5398" x1="27.7992" y1="8.88934" x2="19.7096" y2="10.0534" gradientUnits="userSpaceOnUse">
<stop stop-color="#23EFEF"/>
<stop offset="0.349611" stop-color="#37B8BE"/>
<stop offset="0.701514" stop-color="#2DA0FF"/>
<stop offset="1" stop-color="#B172FE"/>
</linearGradient>
<linearGradient id="paint3_linear_1699_5398" x1="38.0199" y1="26.3251" x2="24.6335" y2="28.2534" gradientUnits="userSpaceOnUse">
<stop stop-color="#23EFEF"/>
<stop offset="0.349611" stop-color="#37B8BE"/>
<stop offset="0.701514" stop-color="#2DA0FF"/>
<stop offset="1" stop-color="#B172FE"/>
</linearGradient>
<clipPath id="clip0_1699_5398">
<rect width="64" height="64" fill="white"/>
</clipPath>
</defs>
</svg>
