<svg width="38" height="38" viewBox="0 0 38 38" fill="none" xmlns="http://www.w3.org/2000/svg">
<g id="fi_4252938" clip-path="url(#clip0_2068_27547)">
<g id="Group">
<path id="Vector" d="M23.5273 13.3594H14.4727C13.8578 13.3594 13.3594 13.8578 13.3594 14.4727V23.5273C13.3594 24.1422 13.8578 24.6406 14.4727 24.6406H23.5273C24.1422 24.6406 24.6406 24.1422 24.6406 23.5273V14.4727C24.6406 13.8578 24.1422 13.3594 23.5273 13.3594ZM22.4141 22.4141H15.5859V15.5859H22.4141V22.4141Z" fill="url(#paint0_linear_2068_27547)"/>
<path id="Vector_2" d="M29.0938 15.6602H31.5118C31.9714 16.9559 33.2088 17.8867 34.6602 17.8867C36.5017 17.8867 38 16.3885 38 14.5469C38 12.7053 36.5017 11.207 34.6602 11.207C33.2088 11.207 31.9714 12.1378 31.5118 13.4336H29.0938V10.0195C29.0938 9.4047 28.5953 8.90625 27.9805 8.90625H22.3398V4.45312H25.8833C26.3428 5.74891 27.5803 6.67969 29.0316 6.67969C30.8732 6.67969 32.3715 5.18143 32.3715 3.33984C32.3715 1.49825 30.8732 0 29.0316 0C27.5803 0 26.3428 0.930777 25.8833 2.22656H21.2266C20.6117 2.22656 20.1133 2.72502 20.1133 3.33984V8.90625H17.8867V3.33984C17.8867 2.72502 17.3883 2.22656 16.7734 2.22656H12.1167C11.6572 0.930777 10.4197 0 8.96837 0C7.12678 0 5.62853 1.49825 5.62853 3.33984C5.62853 5.18143 7.12678 6.67969 8.96837 6.67969C10.4197 6.67969 11.6572 5.74891 12.1167 4.45312H15.6602V8.90625H10.0195C9.4047 8.90625 8.90625 9.4047 8.90625 10.0195V13.4336H6.4882C6.02864 12.1378 4.79119 11.207 3.33984 11.207C1.49825 11.207 0 12.7053 0 14.5469C0 16.3885 1.49825 17.8867 3.33984 17.8867C4.79119 17.8867 6.02864 16.9559 6.4882 15.6602H8.90625V22.3398H6.4882C6.02864 21.0441 4.79119 20.1133 3.33984 20.1133C1.49825 20.1133 0 21.6115 0 23.4531C0 25.2947 1.49825 26.793 3.33984 26.793C4.79119 26.793 6.02864 25.8622 6.4882 24.5664H8.90625V27.9805C8.90625 28.5953 9.4047 29.0938 10.0195 29.0938H15.6602V33.5469H12.1167C11.6572 32.2511 10.4197 31.3203 8.96837 31.3203C7.12678 31.3203 5.62853 32.8186 5.62853 34.6602C5.62853 36.5017 7.12678 38 8.96837 38C10.4197 38 11.6572 37.0692 12.1167 35.7734H16.7734C17.3883 35.7734 17.8867 35.275 17.8867 34.6602V29.0938H20.1133V34.6602C20.1133 35.275 20.6117 35.7734 21.2266 35.7734H25.8833C26.3428 37.0692 27.5803 38 29.0316 38C30.8732 38 32.3715 36.5017 32.3715 34.6602C32.3715 32.8186 30.8732 31.3203 29.0316 31.3203C27.5803 31.3203 26.3428 32.2511 25.8833 33.5469H22.3398V29.0938H27.9805C28.5953 29.0938 29.0938 28.5953 29.0938 27.9805V24.5664H31.5118C31.9714 25.8622 33.2088 26.793 34.6602 26.793C36.5017 26.793 38 25.2947 38 23.4531C38 21.6115 36.5017 20.1133 34.6602 20.1133C33.2088 20.1133 31.9714 21.0441 31.5118 22.3398H29.0938V15.6602ZM34.6602 13.4336C35.274 13.4336 35.7734 13.933 35.7734 14.5469C35.7734 15.1607 35.274 15.6602 34.6602 15.6602C34.0463 15.6602 33.5469 15.1607 33.5469 14.5469C33.5469 13.933 34.0463 13.4336 34.6602 13.4336ZM29.0316 2.22656C29.6455 2.22656 30.1449 2.72598 30.1449 3.33984C30.1449 3.95371 29.6455 4.45312 29.0316 4.45312C28.4178 4.45312 27.9183 3.95371 27.9183 3.33984C27.9183 2.72598 28.4178 2.22656 29.0316 2.22656ZM8.96837 4.45312C8.35451 4.45312 7.85509 3.95371 7.85509 3.33984C7.85509 2.72598 8.35451 2.22656 8.96837 2.22656C9.58223 2.22656 10.0817 2.72598 10.0817 3.33984C10.0817 3.95371 9.58223 4.45312 8.96837 4.45312ZM3.33984 15.6602C2.72598 15.6602 2.22656 15.1607 2.22656 14.5469C2.22656 13.933 2.72598 13.4336 3.33984 13.4336C3.95371 13.4336 4.45312 13.933 4.45312 14.5469C4.45312 15.1607 3.95371 15.6602 3.33984 15.6602ZM3.33984 24.5664C2.72598 24.5664 2.22656 24.067 2.22656 23.4531C2.22656 22.8393 2.72598 22.3398 3.33984 22.3398C3.95371 22.3398 4.45312 22.8393 4.45312 23.4531C4.45312 24.067 3.95371 24.5664 3.33984 24.5664ZM8.96837 35.7734C8.35451 35.7734 7.85509 35.274 7.85509 34.6602C7.85509 34.0463 8.35451 33.5469 8.96837 33.5469C9.58223 33.5469 10.0817 34.0463 10.0817 34.6602C10.0817 35.274 9.58223 35.7734 8.96837 35.7734ZM29.0316 33.5469C29.6455 33.5469 30.1449 34.0463 30.1449 34.6602C30.1449 35.274 29.6455 35.7734 29.0316 35.7734C28.4178 35.7734 27.9183 35.274 27.9183 34.6602C27.9183 34.0463 28.4178 33.5469 29.0316 33.5469ZM34.6602 22.3398C35.274 22.3398 35.7734 22.8393 35.7734 23.4531C35.7734 24.067 35.274 24.5664 34.6602 24.5664C34.0463 24.5664 33.5469 24.067 33.5469 23.4531C33.5469 22.8393 34.0463 22.3398 34.6602 22.3398ZM26.8672 26.8672H11.1328V11.1328H26.8672V26.8672Z" fill="url(#paint1_linear_2068_27547)"/>
</g>
</g>
<defs>
<linearGradient id="paint0_linear_2068_27547" x1="24.4377" y1="13.8817" x2="12.3638" y2="15.6209" gradientUnits="userSpaceOnUse">
<stop stop-color="#23EFEF"/>
<stop offset="0.349611" stop-color="#37B8BE"/>
<stop offset="0.701514" stop-color="#2DA0FF"/>
<stop offset="1" stop-color="#B172FE"/>
</linearGradient>
<linearGradient id="paint1_linear_2068_27547" x1="37.3165" y1="1.75926" x2="-3.3536" y2="7.61766" gradientUnits="userSpaceOnUse">
<stop stop-color="#23EFEF"/>
<stop offset="0.349611" stop-color="#37B8BE"/>
<stop offset="0.701514" stop-color="#2DA0FF"/>
<stop offset="1" stop-color="#B172FE"/>
</linearGradient>
<clipPath id="clip0_2068_27547">
<rect width="38" height="38" fill="white"/>
</clipPath>
</defs>
</svg>
