<svg width="63" height="63" viewBox="0 0 63 63" fill="none" xmlns="http://www.w3.org/2000/svg">
<path fill-rule="evenodd" clip-rule="evenodd" d="M15.75 0C24.4484 0 31.5 7.05151 31.5 15.75V0H47.25C55.9484 0 63 7.05151 63 15.75C63 24.4484 55.9484 31.5 47.25 31.5C55.9484 31.5 63 38.5516 63 47.25C63 51.5691 61.2614 55.4822 58.4459 58.3276L58.387 58.387L58.3347 58.439C55.4887 61.2585 51.5727 63 47.25 63C42.9567 63 39.0646 61.2821 36.2234 58.4963C36.1866 58.4601 36.1497 58.4235 36.113 58.387C36.0785 58.3525 36.0442 58.3178 36.01 58.283C33.2205 55.4414 31.5 51.5466 31.5 47.25C31.5 55.9484 24.4484 63 15.75 63C7.05151 63 0 55.9484 0 47.25V31.5H15.75C7.05151 31.5 0 24.4484 0 15.75C0 7.05151 7.05151 0 15.75 0ZM28.35 15.75C28.35 22.7088 22.7088 28.35 15.75 28.35V3.15C22.7088 3.15 28.35 8.79121 28.35 15.75ZM59.85 47.25C59.85 40.2912 54.2088 34.65 47.25 34.65C40.2912 34.65 34.65 40.2912 34.65 47.25H59.85ZM3.15 34.65V47.25C3.15 54.2088 8.79121 59.85 15.75 59.85C22.7088 59.85 28.35 54.2088 28.35 47.25V34.65H3.15ZM34.65 28.35V3.15H47.25C54.2088 3.15 59.85 8.79121 59.85 15.75C59.85 22.7088 54.2088 28.35 47.25 28.35H34.65Z" fill="#292929"/>
</svg>
