<svg width="84" height="56" viewBox="0 0 84 56" fill="none" xmlns="http://www.w3.org/2000/svg">
<g id="logo-73" clip-path="url(#clip0_1693_5171)">
<path id="Vector" d="M78.75 1.75C78.75 2.7165 79.5334 3.49999 80.5 3.49999H82.25C83.2166 3.49999 84 2.7165 84 1.75C84 0.783502 83.2166 0 82.25 0H80.5C79.5334 0 78.75 0.783502 78.75 1.75Z" fill="#212326"/>
<path id="Vector_2" d="M28 56H36.5012L34.0263 53.5251C33.37 52.8688 32.4797 52.5 31.5515 52.5H28C14.469 52.5 3.5 41.531 3.5 28C3.5 14.469 14.469 3.50001 28 3.5H56C69.531 3.5 80.5 14.469 80.5 28C80.5 41.531 69.531 52.5 56 52.5H45.5258C44.1333 52.5 42.798 51.9469 41.8134 50.9624L38.914 48.0628C37.273 46.4219 35.0473 45.5 32.7267 45.5H28C18.335 45.5 10.5 37.665 10.5 28C10.5 18.335 18.335 10.5 28 10.5H56C65.665 10.5 73.5 18.335 73.5 28C73.5 37.665 65.665 45.5 56 45.5H49.2745C47.8821 45.5 46.5468 44.9469 45.5622 43.9624L42.6626 41.0628C41.0217 39.4219 38.7961 38.5 36.4755 38.5H28C22.2011 38.5 17.5 33.7989 17.5 28C17.5 22.2011 22.2011 17.5 28 17.5H56C61.7989 17.5 66.5 22.2011 66.5 28C66.5 33.7282 61.9129 38.3852 56.2117 38.4979L56.2106 38.5H53.6495C52.2571 38.5 50.9218 37.9469 49.9372 36.9624L47.0376 34.0628C45.6912 32.7163 43.9512 31.8541 42.0879 31.5879L42 31.5H28C26.067 31.5 24.5 29.933 24.5 28C24.5 26.067 26.067 24.5 28 24.5H56C57.933 24.5 59.5 26.067 59.5 28C59.5 29.933 57.933 31.5 56 31.5H49L51.4749 33.9749C52.1312 34.6312 53.0215 35 53.9497 35H56C59.866 35 63 31.866 63 28C63 24.134 59.866 21 56 21H28C24.134 21 21 24.134 21 28C21 31.866 24.134 35 28 35H40.8505C42.2429 35 43.5782 35.5531 44.5628 36.5376L47.4624 39.4372C49.1033 41.0781 51.3289 42 53.6495 42H56.875V41.9731C64.1994 41.5215 70 35.4381 70 28C70 20.2681 63.7319 14 56 14H28C20.2681 14 14 20.2681 14 28C14 35.7321 20.2681 42 28 42H36.4755C37.8679 42 39.2032 42.5531 40.1878 43.5376L43.0874 46.4372C44.7283 48.0781 46.9539 49 49.2745 49H56C67.598 49 77 39.598 77 28C77 16.402 67.598 7 56 7H28C16.402 7 7 16.402 7 28C7 39.598 16.402 49 28 49H32.7267C34.1191 49 35.4544 49.5531 36.4391 50.5376L39.3386 53.4372C40.9795 55.0781 43.2051 56 45.5258 56H56C71.464 56 84 43.464 84 28C84 12.536 71.464 -1.3519e-06 56 0L28 5.7857e-06C12.536 7.13761e-06 -1.3519e-06 12.536 0 28C1.3519e-06 43.464 12.536 56 28 56Z" fill="#212326"/>
</g>
<defs>
<clipPath id="clip0_1693_5171">
<rect width="84" height="56" fill="white"/>
</clipPath>
</defs>
</svg>
