<svg width="64" height="58" viewBox="0 0 64 58" fill="none" xmlns="http://www.w3.org/2000/svg">
<g id="logo-37" clip-path="url(#clip0_1693_5180)">
<path id="Vector" d="M8.75629 43.8436C11.1032 45.4833 14.9083 45.4833 17.2553 43.8436C19.6021 42.2038 19.6021 39.5453 17.2553 37.9056C14.9083 36.2659 11.1032 36.2659 8.75629 37.9056C6.40936 39.5453 6.40936 42.2038 8.75629 43.8436Z" fill="#292929"/>
<path id="Vector_2" d="M33.1158 21.5758C36.6363 24.0353 42.3439 24.0353 45.8643 21.5758C49.3846 19.1161 49.3846 15.1284 45.8643 12.6689C42.3439 10.2093 36.6363 10.2093 33.1158 12.6689C29.5955 15.1284 29.5955 19.1161 33.1158 21.5758Z" fill="#292929"/>
<path id="Vector_3" d="M20.1846 32.7096C23.1182 34.7592 27.8747 34.7592 30.8083 32.7096C33.7419 30.6599 33.7419 27.3368 30.8083 25.2872C27.8747 23.2376 23.1182 23.2376 20.1846 25.2872C17.251 27.3368 17.251 30.6599 20.1846 32.7096Z" fill="#292929"/>
<path id="Vector_4" d="M1.32014 31.2274C3.08034 32.4571 5.93417 32.4571 7.69437 31.2274C9.45455 29.9976 9.45455 28.0038 7.69437 26.7739C5.93417 25.5441 3.08034 25.5441 1.32014 26.7739C-0.440049 28.0038 -0.440047 29.9976 1.32014 31.2274Z" fill="#292929"/>
<path id="Vector_5" d="M20.1846 8.95959C23.1182 11.0092 27.8747 11.0092 30.8083 8.95959C33.7419 6.90997 33.7419 3.58686 30.8083 1.53723C27.8747 -0.512408 23.1182 -0.51241 20.1846 1.53723C17.251 3.58686 17.251 6.90997 20.1846 8.95959Z" fill="#292929"/>
<path id="Vector_6" d="M8.75628 20.0935C11.1032 21.7332 14.9083 21.7332 17.2553 20.0935C19.6021 18.4537 19.6021 15.7952 17.2553 14.1556C14.9083 12.5159 11.1032 12.5159 8.75628 14.1556C6.40936 15.7952 6.40937 18.4537 8.75628 20.0935Z" fill="#292929"/>
<path id="Vector_7" d="M20.1846 56.4635C23.1182 58.5131 27.8747 58.5131 30.8083 56.4635C33.7419 54.4138 33.7419 51.0907 30.8083 49.0411C27.8747 46.9915 23.1182 46.9915 20.1846 49.0411C17.251 51.0907 17.251 54.4138 20.1846 56.4635Z" fill="#292929"/>
<path id="Vector_8" d="M48.6109 33.4547C52.1314 35.9142 57.8391 35.9142 61.3594 33.4547C64.8799 30.9952 64.8799 27.0074 61.3594 24.5479C57.8391 22.0882 52.1314 22.0882 48.6109 24.5479C45.0906 27.0074 45.0906 30.9952 48.6109 33.4547Z" fill="#292929"/>
<path id="Vector_9" d="M33.1158 45.3296C36.6363 47.7892 42.3439 47.7892 45.8643 45.3296C49.3846 42.8701 49.3846 38.8824 45.8643 36.4228C42.3439 33.9632 36.6363 33.9632 33.1158 36.4228C29.5955 38.8824 29.5955 42.8701 33.1158 45.3296Z" fill="#292929"/>
</g>
<defs>
<clipPath id="clip0_1693_5180">
<rect width="64" height="58" fill="white"/>
</clipPath>
</defs>
</svg>
