<svg width="58" height="58" viewBox="0 0 58 58" fill="none" xmlns="http://www.w3.org/2000/svg">
<g id="logo-36" clip-path="url(#clip0_1693_5218)">
<path id="Vector" d="M27.4808 16.0553C26.91 11.1632 26.3072 5.99784 26.3072 0H31.6928C31.6928 5.93047 31.0929 11.0892 30.5228 15.9868C30.0584 19.9781 29.6141 23.7959 29.5316 27.7168C32.2358 24.8961 34.6014 21.9051 37.0794 18.7721C40.1347 14.9093 43.3612 10.8307 47.6021 6.58973L51.4103 10.398C47.2168 14.5915 43.1443 17.8148 39.2782 20.8751L39.2746 20.8778C36.1254 23.3708 33.1129 25.7555 30.2833 28.4684C34.1896 28.3859 37.9771 27.944 41.9444 27.481C46.8366 26.91 52.0022 26.3072 58 26.3072V31.6928C52.0698 31.6928 46.911 31.0926 42.0136 30.5228L42.01 30.5225C38.0196 30.0582 34.2029 29.6142 30.2833 29.5316C33.1021 32.2338 36.0914 34.5983 39.2224 37.0746L39.2273 37.0788C43.0902 40.1344 47.1691 43.3607 51.4103 47.6021L47.6021 51.4103C43.4085 47.2169 40.1853 43.1448 37.1255 39.2789L37.1183 39.2689L37.1122 39.2609C34.6224 36.1167 32.2406 33.109 29.5316 30.2833C29.6141 34.2041 30.0584 38.0219 30.5228 42.0132C31.0929 46.9108 31.6928 52.0695 31.6928 58H26.3072C26.3072 52.0022 26.91 46.8369 27.4808 41.9447L27.482 41.9368C27.9444 37.9722 28.3859 34.1869 28.4684 30.2833C25.7594 33.109 23.3776 36.1167 20.8878 39.2609L20.8817 39.2689L20.8745 39.2789C17.8147 43.1448 14.5915 47.2169 10.398 51.4103L6.58973 47.6021C10.8309 43.3607 14.9098 40.1344 18.7727 37.0788L18.7776 37.0746C21.9086 34.5983 24.898 32.2338 27.7168 29.5316C23.7959 29.6144 19.978 30.0585 15.9864 30.5228C11.089 31.0926 5.93027 31.6928 0 31.6928V26.3072C5.99784 26.3072 11.1635 26.91 16.0556 27.481C20.0229 27.944 23.8104 28.3859 27.7168 28.4684C24.8859 25.7545 21.8722 23.3691 18.7218 20.8751C14.8557 17.8148 10.7832 14.5915 6.58973 10.398L10.398 6.58973C14.6388 10.8307 17.8653 14.9093 20.9206 18.7721C23.3987 21.905 25.7642 24.8959 28.4684 27.7165C28.3859 23.8129 27.9444 20.0278 27.482 16.0632L27.4808 16.0553Z" fill="#292929"/>
</g>
<defs>
<clipPath id="clip0_1693_5218">
<rect width="58" height="58" fill="white"/>
</clipPath>
</defs>
</svg>
