<svg width="61" height="68" viewBox="0 0 61 68" fill="none" xmlns="http://www.w3.org/2000/svg">
<g id="logo-71" clip-path="url(#clip0_1693_5221)">
<path id="Vector" fill-rule="evenodd" clip-rule="evenodd" d="M32.1636 11.9149C32.1636 10.4149 31.814 8.93559 31.1422 7.59399C30.5616 6.43431 30.2206 5.16981 30.1397 3.87577L29.9455 0.773438L29.7514 3.87566C29.6703 5.16971 29.3294 6.43426 28.7487 7.59395C28.0771 8.93558 27.7273 10.415 27.7273 11.9149V56.0865C27.7273 57.5864 28.0771 59.0658 28.7487 60.4075C29.3294 61.5672 29.6703 62.8317 29.7514 64.1258L29.9455 67.228L30.1397 64.1257C30.2206 62.8316 30.5616 61.5672 31.1422 60.4074C31.814 59.0659 32.1636 57.5865 32.1636 56.0865V11.9149ZM20.0513 12.0243C20.7231 13.3659 21.0727 14.8453 21.0727 16.3453V51.6562C21.0727 53.1562 20.7231 54.6355 20.0513 55.9772C19.4706 57.1369 19.1297 58.4014 19.0486 59.6954L18.8545 62.7977L18.6605 59.6954C18.5794 58.4014 18.2384 57.1369 17.6578 55.9772C16.986 54.6355 16.6364 53.1562 16.6364 51.6562V16.3453C16.6364 14.8453 16.986 13.3659 17.6578 12.0243C18.2384 10.8646 18.5794 9.60008 18.6605 8.30603L18.8545 5.20375L19.0486 8.30603C19.1297 9.60008 19.4706 10.8646 20.0513 12.0243ZM15.5273 20.7756C15.5273 19.2755 15.1776 17.7962 14.5058 16.4546C13.9252 15.2949 13.5842 14.0304 13.5033 12.7363L13.3091 9.63403L13.1149 12.7363C13.0339 14.0304 12.693 15.2949 12.1123 16.4546C11.4406 17.7962 11.0909 19.2755 11.0909 20.7756V47.2259C11.0909 48.7258 11.4406 50.2052 12.1123 51.5468C12.693 52.7066 13.0339 53.971 13.1149 55.2651L13.3091 58.3674L13.5033 55.2651C13.5842 53.971 13.9252 52.7066 14.5058 51.5468C15.1776 50.2052 15.5273 48.7258 15.5273 47.2259V20.7756ZM8.96039 25.3151C9.63211 26.6568 9.98182 28.1361 9.98182 29.6362V38.3653C9.98182 39.8652 9.63211 41.3446 8.96039 42.6862C8.37975 43.846 8.03879 45.1104 7.9578 46.4045L7.76364 49.5068L7.56948 46.4045C7.48848 45.1104 7.14752 43.846 6.56689 42.6862C5.89516 41.3446 5.54545 39.8652 5.54545 38.3653V29.6362C5.54545 28.1361 5.89516 26.6568 6.56689 25.3151C7.14752 24.1555 7.48848 22.8909 7.56948 21.597L7.76364 18.4947L7.9578 21.597C8.03879 22.8909 8.37975 24.1555 8.96039 25.3151ZM4.43614 34.0007L4.43636 34.0665V33.935L4.43614 34.0007ZM0 34.0665L0.00022379 34.0007C0.0102858 35.4782 0.359522 36.934 1.02143 38.2559C1.60207 39.4157 1.94303 40.6801 2.02402 41.9742L2.21818 45.0765L2.41234 41.9742C2.49333 40.6801 2.8343 39.4157 3.41493 38.2559C4.07684 36.934 4.42608 35.4782 4.43614 34.0007C4.42608 32.5232 4.07684 31.0674 3.41493 29.7455C2.8343 28.5858 2.49333 27.3213 2.41234 26.0273L2.21818 22.925L2.02402 26.0273C1.94303 27.3213 1.60207 28.5858 1.02143 29.7455C0.359522 31.0674 0.0102858 32.5232 0.00022379 34.0007L0 33.935V34.0665ZM25.5967 7.59397C26.2685 8.93558 26.6182 10.415 26.6182 11.9149V56.0865C26.6182 57.5865 26.2685 59.0659 25.5967 60.4074C25.0161 61.5672 24.6752 62.8316 24.5941 64.1257L24.4 67.228L24.2059 64.1257C24.1248 62.8316 23.7839 61.5672 23.2033 60.4074C22.5315 59.0659 22.1818 57.5865 22.1818 56.0865V11.9149C22.1818 10.415 22.5315 8.93558 23.2033 7.59397C23.7839 6.43429 24.1248 5.16975 24.2059 3.87572L24.4 0.773438L24.5941 3.87572C24.6752 5.16975 25.0161 6.43429 25.5967 7.59397ZM36.6876 7.59397C37.3594 8.93558 37.7091 10.415 37.7091 11.9149V56.0865C37.7091 57.5865 37.3594 59.0659 36.6876 60.4074C36.107 61.5672 35.7661 62.8316 35.685 64.1257L35.4909 67.228L35.2968 64.1257C35.2157 62.8316 34.8748 61.5672 34.2942 60.4074C33.6224 59.0659 33.2727 57.5865 33.2727 56.0865V11.9149C33.2727 10.415 33.6224 8.93558 34.2942 7.59397C34.8748 6.43429 35.2157 5.16975 35.2968 3.87572L35.4909 0.773438L35.685 3.87572C35.7661 5.16975 36.107 6.43429 36.6876 7.59397ZM43.2545 16.3453C43.2545 14.8453 42.9049 13.3659 42.2331 12.0243C41.6525 10.8646 41.3116 9.60008 41.2305 8.30603L41.0364 5.20375L40.8423 8.30603C40.7612 9.60008 40.4203 10.8646 39.8397 12.0243C39.1678 13.3659 38.8182 14.8453 38.8182 16.3453V51.6562C38.8182 53.1562 39.1678 54.6355 39.8397 55.9772C40.4203 57.1369 40.7612 58.4014 40.8423 59.6954L41.0364 62.7977L41.2305 59.6954C41.3116 58.4014 41.6525 57.1369 42.2331 55.9772C42.9049 54.6355 43.2545 53.1562 43.2545 51.6562V16.3453ZM47.7785 16.4546C48.4504 17.7962 48.8 19.2755 48.8 20.7756V47.2259C48.8 48.7258 48.4504 50.2052 47.7785 51.5468C47.1979 52.7066 46.857 53.971 46.7759 55.2651L46.5818 58.3674L46.3877 55.2651C46.3066 53.971 45.9657 52.7066 45.3851 51.5468C44.7134 50.2052 44.3636 48.7258 44.3636 47.2259V20.7756C44.3636 19.2755 44.7134 17.7962 45.3851 16.4546C45.9657 15.2949 46.3066 14.0304 46.3877 12.7363L46.5818 9.63403L46.7759 12.7363C46.857 14.0304 47.1979 15.2949 47.7785 16.4546ZM54.3455 29.6362C54.3455 28.1361 53.9958 26.6568 53.324 25.3151C52.7434 24.1555 52.4025 22.8909 52.3214 21.597L52.1273 18.4947L51.9332 21.597C51.8521 22.8909 51.5112 24.1555 50.9306 25.3151C50.2589 26.6568 49.9091 28.1361 49.9091 29.6362V38.3653C49.9091 39.8652 50.2589 41.3446 50.9306 42.6862C51.5112 43.846 51.8521 45.1104 51.9332 46.4045L52.1273 49.5068L52.3214 46.4045C52.4025 45.1104 52.7434 43.846 53.324 42.6862C53.9958 41.3446 54.3455 39.8652 54.3455 38.3653V29.6362ZM59.8906 34.0007C59.8908 34.0226 59.8909 34.0445 59.8909 34.0665V33.935C59.8909 33.957 59.8908 33.9788 59.8906 34.0007ZM55.4548 34.0007C55.4648 35.4782 55.814 36.934 56.476 38.2559C57.0566 39.4157 57.3975 40.6801 57.4786 41.9742L57.6727 45.0765L57.8668 41.9742C57.9479 40.6801 58.2888 39.4157 58.8694 38.2559C59.5314 36.934 59.8806 35.4782 59.8906 34.0007C59.8806 32.5232 59.5314 31.0674 58.8694 29.7455C58.2888 28.5858 57.9479 27.3213 57.8668 26.0273L57.6727 22.925L57.4786 26.0273C57.3975 27.3213 57.0566 28.5858 56.476 29.7455C55.814 31.0674 55.4648 32.5232 55.4548 34.0007ZM55.4548 34.0007C55.4547 33.9788 55.4545 33.957 55.4545 33.935V34.0665C55.4545 34.0445 55.4547 34.0226 55.4548 34.0007Z" fill="#292929"/>
</g>
<defs>
<clipPath id="clip0_1693_5221">
<rect width="61" height="68" fill="white"/>
</clipPath>
</defs>
</svg>
