<svg width="24" height="24" viewBox="0 0 24 24" fill="none" xmlns="http://www.w3.org/2000/svg">
<g id="Frame">
<path id="Vector" d="M2.00781 4C2.00781 3.44771 2.45553 3 3.00781 3H21.0078C21.5601 3 22.0078 3.44771 22.0078 4V9.5C20.6271 9.5 19.5078 10.6193 19.5078 12C19.5078 13.3807 20.6271 14.5 22.0078 14.5V20C22.0078 20.5523 21.5601 21 21.0078 21H3.00781C2.45553 21 2.00781 20.5523 2.00781 20V4ZM8.09317 19C8.29908 18.4174 8.8547 18 9.50781 18C10.1609 18 10.7165 18.4174 10.9224 19H20.0078V16.0322C18.5261 15.2959 17.5078 13.7668 17.5078 12C17.5078 10.2331 18.5261 8.70411 20.0078 7.96776V5H10.9224C10.7165 5.58259 10.1609 6 9.50781 6C8.8547 6 8.29908 5.58259 8.09317 5H4.00781V19H8.09317ZM9.50781 11C8.67939 11 8.00781 10.3284 8.00781 9.5C8.00781 8.67157 8.67939 8 9.50781 8C10.3362 8 11.0078 8.67157 11.0078 9.5C11.0078 10.3284 10.3362 11 9.50781 11ZM9.50781 16C8.67939 16 8.00781 15.3284 8.00781 14.5C8.00781 13.6716 8.67939 13 9.50781 13C10.3362 13 11.0078 13.6716 11.0078 14.5C11.0078 15.3284 10.3362 16 9.50781 16Z" fill="#1AAA59"/>
</g>
</svg>
