<svg width="70" height="71" viewBox="0 0 70 71" fill="none" xmlns="http://www.w3.org/2000/svg">
<g clip-path="url(#clip0_349_2429)">
<path d="M67.3177 14.3588C64.6317 10.6629 59.9279 7.32699 54.0729 4.96585C48.2494 2.61757 41.4878 1.31888 35.0335 1.30972C28.5786 1.29359 21.8087 2.57888 15.9768 4.90884C10.1116 7.25234 5.39668 10.5738 2.70086 14.261C0.111679 17.8022 -0.634532 21.6193 0.542753 25.2995C1.3066 27.6867 3.53443 29.2932 6.08779 29.2969L14.8311 29.3051C14.8341 29.3051 14.837 29.3051 14.8398 29.3051C16.5833 29.3049 18.2213 28.5418 19.3345 27.2103C20.4359 25.893 20.892 24.1714 20.5863 22.4868C20.5772 22.4373 20.5664 22.3882 20.554 22.3394L20.0939 20.5508C22.6416 19.3353 28.4138 16.9867 35.0065 17.024C41.5945 17.0578 47.3628 19.405 49.9134 20.6211L49.446 22.3995C49.4327 22.45 49.4213 22.5006 49.412 22.5516C49.1016 24.2353 49.5529 25.9581 50.6503 27.2785C51.7617 28.6156 53.4008 29.3837 55.1488 29.3863L63.8921 29.3945C63.8951 29.3945 63.8979 29.3945 63.9008 29.3945C66.4494 29.3943 68.6779 27.7954 69.4474 25.4131C70.6359 21.7339 69.8995 17.9115 67.3177 14.3588Z" fill="white" fill-opacity="0.5"/>
<path d="M54.769 38.3202L48.2489 31.474C47.8546 31.06 47.308 30.8258 46.7364 30.8258H42.5227V27.9789C42.5227 26.8254 41.5875 25.8901 40.4339 25.8901C39.2803 25.8901 38.3451 26.8253 38.3451 27.9789V30.8258H31.6566V27.9789C31.6566 26.8254 30.7214 25.8901 29.5678 25.8901C28.4141 25.8901 27.479 26.8253 27.479 27.9789V30.8258H23.2654C22.6938 30.8258 22.1471 31.0602 21.7529 31.474L15.2328 38.3202C10.1206 43.688 7.30518 50.7266 7.30518 58.1392V66.7324C7.30518 67.886 8.24033 68.8212 9.39396 68.8212H60.6077C61.7613 68.8212 62.6965 67.886 62.6965 66.7324V58.1392C62.6966 50.7266 59.8812 43.6882 54.769 38.3202ZM35.0008 61.186C28.9729 61.186 24.0689 56.2819 24.0689 50.254C24.0689 44.2262 28.973 39.3221 35.0008 39.3221C41.0286 39.3221 45.9327 44.2262 45.9327 50.254C45.9327 56.2819 41.0286 61.186 35.0008 61.186Z" fill="white"/>
<path d="M35.0009 43.4998C31.2764 43.4998 28.2466 46.5297 28.2466 50.2541C28.2466 53.9786 31.2765 57.0085 35.0009 57.0085C38.7253 57.0085 41.7552 53.9786 41.7552 50.2541C41.7552 46.5299 38.7253 43.4998 35.0009 43.4998Z" fill="white" fill-opacity="0.5"/>
</g>
<defs>
<clipPath id="clip0_349_2429">
<rect width="70" height="70" fill="white" transform="translate(0 0.0654297)"/>
</clipPath>
</defs>
</svg>
