<svg width="44" height="43" viewBox="0 0 44 43" fill="none" xmlns="http://www.w3.org/2000/svg">
<path d="M31.0979 21.8616L32.4469 13.6478C32.8361 11.1439 32.4469 9.43745 31.1053 7.89861C29.6375 6.19114 26.9777 5.4668 23.5808 5.4668H13.7157C13.3795 5.4668 13.0539 5.5877 12.7972 5.80935C12.5406 6.03227 12.3711 6.33885 12.3189 6.67475L8.20722 33.1108C8.18903 33.2333 8.19711 33.3584 8.23094 33.4776C8.26477 33.5968 8.32356 33.7075 8.40342 33.8022C8.48288 33.8957 8.58168 33.9709 8.693 34.0225C8.80432 34.0742 8.92552 34.101 9.04823 34.1013H15.9301C15.9301 34.1013 31.5656 22.1109 31.0979 21.8616Z" fill="#253B80"/>
<path d="M32.9821 13.9512C32.9821 14.1389 32.9163 14.3266 32.8749 14.5217C31.5228 21.1056 26.8999 23.3804 20.9991 23.3804H17.9903C17.6444 23.3779 17.3083 23.4952 17.039 23.7124C16.7739 23.9276 16.5999 24.2267 16.548 24.5534L15.007 33.8118L14.5701 36.4388C14.5516 36.5436 14.5576 36.6512 14.5875 36.7533C14.6175 36.8555 14.6707 36.9492 14.7429 37.0274C14.8162 37.1083 14.9059 37.1727 15.006 37.2162C15.1077 37.2605 15.2174 37.2832 15.3284 37.283H20.6607C20.9662 37.283 21.2621 37.1801 21.4943 36.9924C21.7276 36.8047 21.8814 36.5448 21.9291 36.2585L21.9875 36.0008L22.9844 29.9557L23.0512 29.6206C23.1022 29.3313 23.2567 29.0704 23.486 28.8867C23.7193 28.699 24.0152 28.5961 24.3207 28.5961H25.1447C30.3116 28.5961 34.3502 26.6023 35.5369 20.8478C36.0311 18.4394 35.7755 16.4296 34.4658 15.0223C34.0411 14.5768 33.5377 14.2136 32.981 13.9512H32.9821Z" fill="#179BD7"/>
<path d="M31.2174 13.3542C31.0138 13.2959 30.8087 13.2432 30.6022 13.1962L29.949 13.0711C29.0984 12.9473 28.2398 12.887 27.3803 12.8908H19.6087C19.3137 12.8897 19.028 12.9936 18.8027 13.1841C18.5775 13.3746 18.4275 13.639 18.3796 13.9301L16.7283 24.2566L16.6816 24.5556C16.7322 24.2253 16.901 23.9245 17.1568 23.7093C17.4134 23.4919 17.7401 23.3742 18.0773 23.3753H20.9895C26.7016 23.3753 31.1781 21.0866 32.4858 14.4636C32.5261 14.2663 32.5579 14.0775 32.5897 13.8888C32.244 13.7095 31.8839 13.5594 31.5133 13.4401L31.2174 13.3542Z" fill="#222D65"/>
</svg>
