<svg width="43" height="43" viewBox="0 0 43 43" fill="none" xmlns="http://www.w3.org/2000/svg">
<g clip-path="url(#clip0_1637_4772)">
<mask id="mask0_1637_4772" style="mask-type:luminance" maskUnits="userSpaceOnUse" x="0" y="0" width="43" height="43">
<path d="M0.418945 0.166016H42.8404V42.5875H0.418945V0.166016Z" fill="white"/>
</mask>
<g mask="url(#mask0_1637_4772)">
<path d="M18.1298 9.71093C18.8242 8.97679 19.6611 8.39213 20.5893 7.99276C21.5175 7.59339 22.5175 7.38772 23.528 7.38835C24.8733 7.39618 26.1922 7.76177 27.3496 8.44761C28.507 9.13345 29.461 10.1149 30.1139 11.2911C31.2824 10.7719 32.5471 10.5045 33.8258 10.5063C36.2257 10.5876 38.5001 11.5981 40.1691 13.3245C41.838 15.0509 42.771 17.3583 42.771 19.7595C42.771 22.1608 41.838 24.4681 40.1691 26.1945C38.5001 27.921 36.2257 28.9314 33.8258 29.0127C33.2087 29.0025 32.5942 28.9315 31.991 28.8006C31.1579 30.2963 29.7832 31.4157 28.1497 31.9286C26.5163 32.4415 24.7484 32.3089 23.2098 31.558C22.6108 32.9679 21.6028 34.1657 20.3159 34.9966C19.029 35.8276 17.5225 36.2534 15.9911 36.2192C14.4596 36.1849 12.9736 35.6921 11.7252 34.8044C10.4768 33.9168 9.52331 32.6751 8.988 31.2398C8.50652 31.3385 8.01549 31.3883 7.52446 31.3883C5.95003 31.3722 4.42443 30.8397 3.18188 29.8727C1.93934 28.9056 1.04856 27.5575 0.646322 26.0352C0.244079 24.5129 0.35261 22.9007 0.955251 21.4461C1.55789 19.9915 2.62133 18.7749 3.98227 17.9831C3.19754 16.1339 3.11342 14.0622 3.74567 12.1555C4.37791 10.2488 5.68319 8.63778 7.4173 7.62383C9.15141 6.60988 11.1955 6.26248 13.1673 6.64663C15.139 7.03077 16.9032 8.12014 18.1298 9.71093Z" fill="#179FDA"/>
<path fill-rule="evenodd" clip-rule="evenodd" d="M25.7761 16.9551L25.5428 16.8914H25.1822C24.9887 16.8794 24.7948 16.907 24.6125 16.9727C24.4301 17.0383 24.2631 17.1406 24.1217 17.2732C23.8444 17.584 23.6703 17.973 23.6232 18.3868V18.5565H23.0929C23.0741 18.5575 23.056 18.5641 23.0409 18.5754C23.0258 18.5867 23.0144 18.6023 23.0081 18.6201L22.9233 19.1186C22.9233 19.1716 22.9233 19.2034 23.0081 19.2034H23.549L22.9975 22.2896C22.9625 22.4942 22.9127 22.6968 22.849 22.8941C22.8098 23.0184 22.7527 23.1363 22.6793 23.244C22.6264 23.3265 22.5483 23.3897 22.4566 23.4243C22.3582 23.4398 22.258 23.4398 22.1597 23.4243C22.0929 23.435 22.0249 23.435 21.9582 23.4243H21.8309C21.8175 23.4131 21.8006 23.407 21.7832 23.407C21.7657 23.407 21.7488 23.4131 21.7355 23.4243L21.5446 23.9228C21.5333 23.9362 21.5272 23.9531 21.5272 23.9705C21.5272 23.988 21.5333 24.0049 21.5446 24.0182L21.7673 24.0819C21.8839 24.0978 22.0006 24.0978 22.1172 24.0819C22.3294 24.0744 22.5415 24.0352 22.743 23.9652C22.9169 23.8941 23.0717 23.7849 23.199 23.647C23.3369 23.4837 23.445 23.2971 23.5172 23.0956C23.6126 22.8304 23.6868 22.5568 23.7399 22.279L24.2914 19.0973H25.108C25.129 19.1006 25.1504 19.0959 25.1681 19.0841C25.1857 19.0723 25.1984 19.0543 25.2034 19.0337L25.2883 18.5459C25.2883 18.4928 25.2883 18.461 25.214 18.461H24.408C24.4292 18.2733 24.4716 18.0877 24.5353 17.9095C24.5687 17.8083 24.6271 17.7172 24.705 17.6444C24.7619 17.5823 24.8355 17.5381 24.9171 17.5171C25.0083 17.5011 25.1016 17.5011 25.1928 17.5171H25.6382L25.8715 17.1353C25.8802 17.1229 25.8849 17.1081 25.8849 17.0929C25.8849 17.0778 25.8802 17.063 25.8715 17.0505L25.7761 16.9551ZM14.7677 22.2896C14.7648 22.3065 14.7573 22.3224 14.7461 22.3354C14.7349 22.3485 14.7204 22.3583 14.7041 22.3638H14.036C14.0182 22.3612 14.0019 22.3523 13.9902 22.3386C13.9785 22.325 13.9721 22.3075 13.9723 22.2896V16.9869C13.9723 16.9869 13.9723 16.9126 14.036 16.9126H14.6935C14.7115 16.9124 14.7289 16.9188 14.7426 16.9305C14.7562 16.9422 14.7652 16.9585 14.7677 16.9763V22.2896ZM6.58038 21.9184V22.0032C6.65462 22.0626 6.73734 22.1124 6.82431 22.1517C7.21459 22.3638 7.65259 22.4698 8.09695 22.4592C8.96659 22.4592 9.49686 21.9926 9.49686 21.2396C9.49686 20.5397 8.89236 20.2957 8.30906 20.1261H8.23482L8.1818 20.107C7.77879 19.967 7.43942 19.8482 7.43942 19.5746C7.45536 19.4508 7.51811 19.3379 7.61477 19.259C7.71143 19.1801 7.83464 19.1412 7.95908 19.1504C8.32921 19.1663 8.69085 19.2638 9.01962 19.4367C9.03532 19.4472 9.05377 19.4528 9.07265 19.4528C9.09152 19.4528 9.10998 19.4472 9.12567 19.4367L9.30596 18.9383C9.32088 18.9225 9.3292 18.9016 9.3292 18.8799C9.3292 18.8582 9.32088 18.8374 9.30596 18.8216C8.92751 18.5954 8.49543 18.4745 8.05453 18.4716H8.04393C7.72386 18.4355 7.4024 18.5263 7.14858 18.7246C6.89476 18.9229 6.72883 19.2129 6.68644 19.5322C6.69111 19.5674 6.69111 19.603 6.68644 19.6382C6.68644 20.3594 7.31216 20.6033 7.88485 20.7624L7.9909 20.826L8.01105 20.8324C8.41617 20.9565 8.76403 21.0657 8.76403 21.3563C8.75581 21.4951 8.6934 21.6251 8.59026 21.7183C8.48711 21.8116 8.35147 21.8605 8.21255 21.8547H8.13831C7.7393 21.8589 7.34805 21.7444 7.01414 21.526L6.88794 21.3775C6.87768 21.367 6.86455 21.3598 6.85021 21.3568C6.83587 21.3538 6.82095 21.3551 6.80734 21.3605C6.79776 21.3643 6.78908 21.3701 6.78189 21.3775L6.58038 21.9184ZM19.3599 21.9184C19.3494 21.93 19.3436 21.9451 19.3436 21.9608C19.3436 21.9764 19.3494 21.9915 19.3599 22.0032C19.4362 22.0605 19.5189 22.1093 19.6038 22.1517C19.9994 22.3564 20.4416 22.455 20.887 22.438C21.7567 22.438 22.2869 21.9714 22.2869 21.2184C22.2869 20.5185 21.6718 20.2745 21.0991 20.1048H21.0249L20.9825 20.09C20.5657 19.9479 20.2189 19.8302 20.2189 19.5534C20.2323 19.4221 20.2963 19.3011 20.3972 19.216C20.4981 19.131 20.6281 19.0884 20.7598 19.0973C21.1299 19.1048 21.4926 19.1992 21.8203 19.3731C21.8307 19.3836 21.844 19.3909 21.8586 19.3939C21.8731 19.3969 21.8882 19.3956 21.902 19.39C21.9112 19.3861 21.9194 19.3803 21.9264 19.3731L22.1066 18.8746C22.115 18.8601 22.1194 18.8437 22.1194 18.8269C22.1194 18.8101 22.115 18.7937 22.1066 18.7792C21.7276 18.5544 21.2959 18.4336 20.8552 18.4292H20.7704C20.4515 18.3932 20.1313 18.4844 19.8792 18.6829C19.627 18.8814 19.4633 19.1713 19.4235 19.4897C19.4182 19.5249 19.4182 19.5606 19.4235 19.5958C19.4235 20.3276 20.0386 20.5609 20.6113 20.72H20.7067L20.7386 20.7306C21.1394 20.8525 21.4915 20.9607 21.4915 21.2502C21.4888 21.3194 21.4723 21.3874 21.443 21.4501C21.4137 21.5129 21.3721 21.5691 21.3207 21.6155C21.2693 21.662 21.2092 21.6977 21.1438 21.7205C21.0785 21.7434 21.0092 21.753 20.9401 21.7487H20.887C20.508 21.732 20.141 21.6109 19.8265 21.3987L19.6886 21.2927C19.6816 21.2858 19.6733 21.2804 19.6642 21.2767C19.6551 21.2731 19.6454 21.2713 19.6356 21.2714C19.6258 21.2713 19.6161 21.2731 19.607 21.2767C19.5979 21.2804 19.5896 21.2858 19.5826 21.2927L19.3599 21.9184ZM28.0881 20.4548C28.1071 20.8026 28.0261 21.1485 27.8548 21.4517C27.7774 21.5647 27.6726 21.6561 27.5501 21.7174C27.4276 21.7786 27.2916 21.8076 27.1548 21.8017C27.016 21.8116 26.877 21.7844 26.7521 21.7229C26.6273 21.6614 26.521 21.5678 26.4442 21.4517C26.276 21.1476 26.1987 20.8016 26.2215 20.4548C26.1986 20.108 26.2759 19.762 26.4442 19.4579C26.521 19.3418 26.6273 19.2482 26.7521 19.1867C26.877 19.1252 27.016 19.098 27.1548 19.1079C27.2916 19.102 27.4276 19.1311 27.5501 19.1923C27.6726 19.2535 27.7774 19.3449 27.8548 19.4579C28.0266 19.7612 28.1072 20.107 28.0881 20.4548ZM28.8198 19.67C28.7539 19.4359 28.6382 19.2189 28.4805 19.0337C28.3315 18.852 28.1428 18.7069 27.929 18.6095C27.6807 18.5045 27.4138 18.4504 27.1442 18.4504C26.8746 18.4504 26.6077 18.5045 26.3594 18.6095C26.1441 18.7095 25.9525 18.8541 25.7973 19.0337C25.6467 19.222 25.5349 19.4382 25.4685 19.67C25.3307 20.1806 25.3307 20.7185 25.4685 21.229C25.5289 21.4609 25.6402 21.6764 25.7943 21.8598C25.9484 22.0433 26.1414 22.1901 26.3594 22.2896C26.8633 22.4903 27.425 22.4903 27.929 22.2896C28.1428 22.1921 28.3315 22.047 28.4805 21.8653C28.6332 21.6787 28.7456 21.4623 28.8092 21.229C28.9577 20.72 28.9577 20.1791 28.8092 19.67H28.8198ZM34.7907 21.6744C34.7782 21.6658 34.7634 21.6611 34.7482 21.6611C34.7331 21.6611 34.7183 21.6658 34.7058 21.6744C34.5923 21.7169 34.4746 21.7487 34.3558 21.7699H33.9528C33.7992 21.7825 33.6447 21.7615 33.5 21.7084C33.3554 21.6553 33.224 21.5713 33.115 21.4623C32.8898 21.181 32.7799 20.8247 32.8075 20.4654C32.7853 20.1249 32.8828 19.7872 33.0832 19.5109C33.1786 19.3904 33.3017 19.2946 33.442 19.2319C33.5823 19.1691 33.7358 19.1411 33.8892 19.1504C34.1522 19.1472 34.4131 19.1864 34.6634 19.267C34.6742 19.2748 34.6872 19.279 34.7005 19.279C34.7138 19.279 34.7268 19.2748 34.7376 19.267L34.762 19.2034C34.8151 19.0613 34.8628 18.9351 34.9179 18.7686C34.9266 18.7561 34.9312 18.7413 34.9312 18.7262C34.9312 18.711 34.9266 18.6962 34.9179 18.6837C34.737 18.6077 34.5486 18.5508 34.3558 18.514C34.1724 18.498 33.9878 18.498 33.8044 18.514C33.5286 18.5045 33.2529 18.5554 32.9984 18.6625C32.7729 18.7656 32.5708 18.9135 32.4045 19.0973C32.2454 19.2798 32.1255 19.4929 32.0545 19.7231C31.9781 19.9776 31.9389 20.2427 31.9378 20.5079C31.9166 21.0374 32.0944 21.5558 32.4363 21.9608C32.6211 22.1499 32.845 22.2962 33.0923 22.3897C33.3396 22.4831 33.6044 22.5213 33.868 22.5017C34.2286 22.5038 34.5881 22.4433 34.9285 22.3214C34.9372 22.3089 34.9419 22.2941 34.9419 22.279C34.9419 22.2638 34.9372 22.249 34.9285 22.2365L34.7907 21.6744ZM36.0739 20.0518C36.0919 19.844 36.1619 19.6435 36.2754 19.4685C36.3503 19.3531 36.4547 19.2598 36.5778 19.1983C36.7008 19.1368 36.8381 19.1092 36.9754 19.1186C37.1131 19.1059 37.2515 19.132 37.3752 19.1938C37.4989 19.2557 37.6028 19.3508 37.6753 19.4685C37.7793 19.6456 37.8376 19.8461 37.845 20.0518H36.0739ZM38.598 19.5534C38.5369 19.3407 38.4281 19.1449 38.2798 18.9807C38.1512 18.8292 37.9922 18.7063 37.8132 18.6201C37.5881 18.5266 37.3464 18.4797 37.1026 18.4822C36.8252 18.4713 36.5491 18.5258 36.2966 18.6413C36.0764 18.7382 35.8807 18.8831 35.7239 19.0655C35.5692 19.2551 35.4571 19.4757 35.3952 19.7125C35.3188 19.967 35.2796 20.2321 35.2785 20.4972C35.2812 20.7664 35.3204 21.034 35.3952 21.2927C35.4634 21.5368 35.5897 21.7608 35.7633 21.9455C35.9369 22.1302 36.1526 22.27 36.3921 22.3532C36.6763 22.4603 36.9796 22.5123 37.2829 22.5017C37.7116 22.5251 38.139 22.4374 38.5238 22.2471V22.1305L38.3647 21.6851C38.3597 21.6672 38.3482 21.6519 38.3325 21.6421C38.3168 21.6323 38.298 21.6287 38.2798 21.632C37.9698 21.7696 37.6325 21.8349 37.2935 21.8229C37.0343 21.8498 36.7743 21.7804 36.563 21.6278C36.3518 21.4752 36.2041 21.2502 36.1482 20.9957C36.1374 20.8935 36.1374 20.7904 36.1482 20.6881H38.598C38.616 20.6883 38.6334 20.682 38.6471 20.6703C38.6607 20.6586 38.6697 20.6423 38.6722 20.6245C38.7182 20.2696 38.6929 19.909 38.598 19.564V19.5534ZM16.3267 20.0518C16.3469 19.8461 16.4116 19.6467 16.5176 19.4685C16.5944 19.3524 16.7006 19.2588 16.8255 19.1973C16.9504 19.1358 17.0893 19.1086 17.2282 19.1186C17.3657 19.1071 17.5037 19.1337 17.6272 19.1955C17.7506 19.2572 17.8547 19.3516 17.9281 19.4685C18.0321 19.6456 18.0904 19.8461 18.0978 20.0518H16.3267ZM18.8084 19.5534C18.7432 19.3425 18.6349 19.1474 18.4902 18.9807C18.3572 18.8338 18.1992 18.7117 18.0236 18.6201C17.7998 18.5199 17.5582 18.4658 17.313 18.461C17.0356 18.4501 16.7595 18.5046 16.507 18.6201C16.2822 18.7155 16.086 18.864 15.9343 19.0549C15.7784 19.2416 15.6628 19.4579 15.5949 19.6912C15.5226 19.9465 15.4869 20.2107 15.4889 20.476C15.4847 20.7454 15.5239 21.0148 15.6056 21.2714C15.6727 21.5144 15.7974 21.7377 15.9691 21.9223C16.1408 22.1069 16.3544 22.2474 16.5919 22.332C16.8803 22.438 17.1858 22.4889 17.4933 22.4805C17.9207 22.5017 18.346 22.4168 18.7341 22.2365V22.1093L18.5432 21.6426C18.5383 21.636 18.5319 21.6307 18.5245 21.627C18.5172 21.6233 18.5091 21.6214 18.5008 21.6214C18.4926 21.6214 18.4845 21.6233 18.4771 21.627C18.4697 21.6307 18.4633 21.636 18.4584 21.6426C18.1413 21.7699 17.8019 21.8325 17.4615 21.8229C17.3288 21.8422 17.1936 21.8346 17.0639 21.8004C16.9343 21.7662 16.8129 21.7063 16.7069 21.6241C16.601 21.5419 16.5127 21.4392 16.4474 21.3221C16.382 21.205 16.341 21.076 16.3267 20.9427C16.3108 20.8479 16.3108 20.7511 16.3267 20.6563H18.8084C18.8253 20.6563 18.8414 20.6496 18.8534 20.6377C18.8653 20.6258 18.872 20.6096 18.872 20.5927C18.9216 20.2379 18.8963 19.8766 18.7978 19.5322L18.8084 19.5534ZM11.024 21.6638C10.9669 21.6226 10.9168 21.5725 10.8756 21.5154C10.8261 21.4166 10.8006 21.3076 10.8013 21.1972C10.7898 21.1017 10.8044 21.0049 10.8436 20.9171C10.8828 20.8293 10.9452 20.7538 11.024 20.6988C11.234 20.5609 11.4843 20.4972 11.7346 20.5185C11.9573 20.5026 12.18 20.5026 12.4027 20.5185V21.6957C12.1823 21.7395 11.959 21.7679 11.7346 21.7805C11.4855 21.8219 11.2297 21.773 11.0134 21.6426L11.024 21.6638ZM11.9997 19.9033H11.6179C11.4136 19.9047 11.2103 19.9333 11.0134 19.9882C10.8354 20.0376 10.6669 20.1165 10.515 20.2215C10.356 20.3336 10.2273 20.4833 10.1403 20.6572C10.0533 20.8312 10.0108 21.024 10.0165 21.2184C10.0132 21.4121 10.053 21.6041 10.1332 21.7805C10.2074 21.9311 10.3167 22.0626 10.4513 22.1623C10.5871 22.2843 10.7462 22.3776 10.918 22.438C11.1343 22.4805 11.3549 22.5017 11.5755 22.5017C11.8243 22.5017 12.0727 22.4804 12.3179 22.438L12.9436 22.3214H13.1133C13.1311 22.3151 13.1466 22.3037 13.158 22.2886C13.1693 22.2735 13.1759 22.2554 13.1769 22.2365V19.8715C13.1869 19.6774 13.1573 19.4832 13.0899 19.3009C13.0224 19.1185 12.9185 18.9519 12.7845 18.811C12.4582 18.5664 12.0571 18.4427 11.6498 18.461C11.4292 18.461 11.2086 18.4822 10.9922 18.5246C10.7223 18.5665 10.463 18.6602 10.2286 18.8004C10.2174 18.8138 10.2113 18.8307 10.2113 18.8481C10.2113 18.8656 10.2174 18.8825 10.2286 18.8958L10.3983 19.3625C10.4108 19.3711 10.4256 19.3758 10.4407 19.3758C10.4559 19.3758 10.4707 19.3711 10.4832 19.3625C10.8147 19.205 11.1767 19.1217 11.5437 19.1186C11.7578 19.0968 11.9725 19.1533 12.1482 19.2776C12.2227 19.3529 12.2765 19.4462 12.3044 19.5484C12.3322 19.6506 12.3332 19.7582 12.3073 19.8609V19.967L11.9043 19.914L11.9997 19.9033ZM31.8636 18.6625C31.8748 18.6491 31.881 18.6323 31.881 18.6148C31.881 18.5973 31.8748 18.5804 31.8636 18.5671C31.7285 18.5304 31.5898 18.509 31.45 18.5034C31.2331 18.4749 31.0126 18.508 30.8137 18.5989C30.6521 18.6703 30.5075 18.7751 30.3894 18.9064V18.6095C30.3894 18.6095 30.3894 18.5459 30.3258 18.5353H29.6789C29.6611 18.5378 29.6448 18.5468 29.6331 18.5604C29.6214 18.5741 29.6151 18.5915 29.6152 18.6095V22.2896C29.6175 22.3085 29.626 22.3261 29.6395 22.3395C29.653 22.353 29.6706 22.3615 29.6895 22.3638H30.3364C30.3553 22.3615 30.3729 22.353 30.3864 22.3395C30.3999 22.3261 30.4084 22.3085 30.4106 22.2896V20.4442C30.403 20.2296 30.428 20.015 30.4849 19.8079C30.528 19.6735 30.6005 19.5503 30.697 19.4473C30.7818 19.3625 30.8879 19.2988 31.0045 19.267C31.117 19.2511 31.2315 19.2511 31.3439 19.267C31.4319 19.2564 31.521 19.2564 31.6091 19.267C31.6294 19.2667 31.6492 19.2605 31.6661 19.2492C31.683 19.2379 31.6964 19.222 31.7045 19.2034L31.8954 18.7049L31.8636 18.6625ZM11.5882 26.7735C11.532 26.73 11.4858 26.6751 11.4525 26.6123C11.6214 26.5962 11.7833 26.5367 11.9223 26.4394C12.0529 26.3452 12.1556 26.2173 12.2193 26.0693C12.2913 25.9057 12.3271 25.7284 12.3243 25.5496C12.3243 25.3386 12.284 25.1519 12.2023 24.9907C12.1253 24.8331 12.0026 24.7023 11.8502 24.6153C11.682 24.5212 11.4914 24.4743 11.2987 24.4796C11.0866 24.4796 10.9021 24.5252 10.7472 24.6153C10.5952 24.7024 10.4729 24.8332 10.3962 24.9907C10.3126 25.1653 10.2712 25.3572 10.2753 25.5507C10.2753 25.749 10.3103 25.9251 10.3813 26.081C10.4495 26.2311 10.5573 26.3598 10.6931 26.4532C10.831 26.5455 10.9965 26.5996 11.1874 26.6155C11.2306 26.7192 11.2941 26.8133 11.374 26.8923C11.4605 26.9694 11.5647 27.0241 11.6773 27.0514C11.8046 27.0874 11.969 27.1055 12.1705 27.1055V26.8955C12.0188 26.8955 11.8969 26.8849 11.8046 26.8637C11.7266 26.8503 11.6527 26.8194 11.5882 26.7735ZM10.7313 26.169C10.5998 26.0142 10.5351 25.8084 10.5351 25.5507C10.5351 25.293 10.5988 25.0862 10.7313 24.9324C10.8618 24.7786 11.0516 24.7023 11.2998 24.7023C11.5479 24.7023 11.7367 24.7786 11.865 24.9324C11.9955 25.0862 12.0612 25.293 12.0612 25.5507C12.0612 25.8084 11.9955 26.0142 11.865 26.1679C11.7367 26.3217 11.5469 26.3991 11.2998 26.3991C11.0516 26.3991 10.8618 26.3228 10.7313 26.169ZM10.0632 25.1933C10.0672 25.3243 10.0321 25.4535 9.96244 25.5645C9.89621 25.6634 9.80313 25.7414 9.69412 25.7893C9.58256 25.8399 9.46133 25.8656 9.33884 25.8646H8.89978V26.572H8.64313V24.5273H9.33248C9.54671 24.5273 9.72169 24.5814 9.8585 24.6895C9.99531 24.7967 10.0632 24.9674 10.0632 25.1933ZM8.8966 24.7341V25.6568H9.31551C9.44047 25.6613 9.56276 25.6198 9.65912 25.5401C9.75351 25.4595 9.80017 25.345 9.80017 25.1954C9.80017 25.0342 9.75351 24.9165 9.65912 24.8433C9.55858 24.7676 9.43492 24.729 9.30915 24.7341H8.8966ZM8.13619 24.8932L8.28467 24.7277C8.19601 24.6456 8.09129 24.5828 7.97711 24.5432C7.85416 24.4982 7.72413 24.4755 7.5932 24.4764C7.40045 24.4707 7.20978 24.5176 7.04172 24.6121C6.89114 24.6994 6.77059 24.8303 6.69598 24.9876C6.6156 25.1631 6.57573 25.3545 6.57932 25.5475C6.57932 25.7596 6.61856 25.9452 6.69598 26.1075C6.77022 26.2644 6.89006 26.396 7.0396 26.485C7.20661 26.5793 7.39618 26.6263 7.5879 26.6208C7.73637 26.6208 7.87212 26.5964 7.99726 26.5466C8.1182 26.4982 8.22819 26.4261 8.32073 26.3344L8.16483 26.1648C8.01286 26.3132 7.8088 26.3962 7.59638 26.396C7.35033 26.396 7.16368 26.3185 7.03642 26.1626C6.90915 26.0067 6.84552 25.8021 6.84552 25.5475C6.84552 25.293 6.90915 25.0862 7.03642 24.9303C7.16368 24.7744 7.35246 24.697 7.60168 24.697C7.79775 24.6943 7.98797 24.7637 8.13619 24.8921V24.8932Z" fill="white"/>
</g>
</g>
<defs>
<clipPath id="clip0_1637_4772">
<rect width="42.4215" height="42.4215" fill="white" transform="translate(0.419434 0.164062)"/>
</clipPath>
</defs>
</svg>
