<svg width="43" height="44" viewBox="0 0 43 44" fill="none" xmlns="http://www.w3.org/2000/svg">
<g clip-path="url(#clip0_1637_4816)">
<mask id="mask0_1637_4816" style="mask-type:luminance" maskUnits="userSpaceOnUse" x="0" y="0" width="43" height="44">
<path d="M0.0654297 0.78125H42.4869V43.2027H0.0654297V0.78125Z" fill="white"/>
</mask>
<g mask="url(#mask0_1637_4816)">
<path d="M32.1465 14.7396V9.69143C32.812 9.37895 33.3753 8.8844 33.7713 8.26503C34.1674 7.64566 34.3799 6.9268 34.3843 6.19166V6.0856C34.3843 5.05517 33.9757 4.06679 33.248 3.33717C32.5204 2.60755 31.5331 2.19624 30.5027 2.19343H30.386C29.8754 2.19343 29.3698 2.29418 28.8982 2.48991C28.4266 2.68564 27.9982 2.9725 27.6376 3.33406C27.277 3.69562 26.9913 4.12478 26.7969 4.59694C26.6025 5.06909 26.5031 5.57498 26.5045 6.0856V6.19166C26.5 6.92333 26.7041 7.64113 27.0929 8.26097C27.4817 8.8808 28.0391 9.377 28.6998 9.69143V14.7396C26.7806 15.0365 24.9736 15.8339 23.4607 17.0516L9.61013 6.26589C9.70214 5.91934 9.75549 5.56366 9.76921 5.20536C9.77971 4.33525 9.53144 3.48163 9.05589 2.75289C8.58034 2.02415 7.89898 1.45315 7.0983 1.11239C6.29763 0.771622 5.41375 0.676457 4.55888 0.838977C3.70402 1.0015 2.91673 1.41437 2.29695 2.02518C1.67718 2.63599 1.25289 3.41719 1.07794 4.2696C0.902987 5.122 0.985269 6.00717 1.31434 6.81273C1.64341 7.61828 2.20443 8.30789 2.92616 8.794C3.6479 9.2801 4.49781 9.54079 5.36798 9.54295C6.11365 9.53594 6.84465 9.33492 7.48905 8.95966L21.117 19.565C19.8913 21.4197 19.253 23.6007 19.2851 25.8235C19.3173 28.0463 20.0185 30.2079 21.2972 32.0263L17.1399 36.173C16.7978 36.0601 16.4397 36.0028 16.0794 36.0033C15.3658 36.0034 14.6682 36.2151 14.075 36.6118C13.4818 37.0085 13.0197 37.5723 12.7471 38.2317C12.4744 38.8912 12.4037 39.6168 12.5437 40.3165C12.6837 41.0163 13.0281 41.6588 13.5335 42.1626C14.0388 42.6665 14.6823 43.0091 15.3825 43.147C16.0826 43.2849 16.808 43.212 17.4667 42.9375C18.1253 42.6629 18.6878 42.1991 19.0827 41.6047C19.4776 41.0104 19.6873 40.3122 19.6852 39.5986C19.6784 39.2389 19.6212 38.8819 19.5155 38.538L23.6198 34.4338C25.2983 35.7124 27.3073 36.4844 29.4101 36.6588C31.5129 36.8331 33.6217 36.4025 35.4878 35.4177C37.3539 34.433 38.8995 32.9351 39.9423 31.1008C40.9851 29.2665 41.4816 27.1722 41.3732 25.065C41.242 22.5282 40.2416 20.1139 38.5401 18.2278C36.8386 16.3417 34.5398 15.0987 32.0299 14.7078M30.4391 31.3476C29.6939 31.3462 28.9563 31.198 28.2684 30.9116C27.5805 30.6251 26.9557 30.206 26.4298 29.6781C25.3676 28.612 24.7725 27.1675 24.7753 25.6626C24.7781 24.1576 25.3786 22.7155 26.4448 21.6533C27.5109 20.5911 28.9553 19.996 30.4603 19.9988C31.9652 20.0016 33.4074 20.6021 34.4696 21.6683C35.5317 22.7344 36.1269 24.1789 36.1241 25.6838C36.1213 27.1887 35.5207 28.6309 34.4546 29.6931C33.3884 30.7553 31.944 31.3504 30.4391 31.3476Z" fill="#FF7A59"/>
</g>
</g>
<defs>
<clipPath id="clip0_1637_4816">
<rect width="42.4215" height="42.4215" fill="white" transform="translate(0.0654297 0.78125)"/>
</clipPath>
</defs>
</svg>
