<svg width="44" height="44" viewBox="0 0 44 44" fill="none" xmlns="http://www.w3.org/2000/svg">
<g clip-path="url(#clip0_1637_4789)">
<path d="M37.8927 0.78125H6.07661C3.14802 0.78125 0.773926 3.15534 0.773926 6.08393V37.9C0.773926 40.8286 3.14802 43.2027 6.07661 43.2027H37.8927C40.8213 43.2027 43.1954 40.8286 43.1954 37.9V6.08393C43.1954 3.15534 40.8213 0.78125 37.8927 0.78125Z" fill="white"/>
<path d="M35.584 21.4812C35.6561 20.2987 35.9721 19.7621 36.5851 19.7621C37.1981 19.7621 37.4866 20.3252 37.4866 21.4802L35.584 21.4812ZM40.0096 22.179C40.0518 21.0844 39.7352 20.0059 39.1081 19.1077C38.8064 18.7321 38.4189 18.4344 37.9782 18.2397C37.5375 18.045 37.0564 17.959 36.5756 17.9889C34.3315 17.9889 32.9697 19.6359 32.9697 22.2777C32.9252 22.8741 33.0013 23.4734 33.1935 24.0397C33.3858 24.606 33.6902 25.1278 34.0886 25.5738C34.8686 26.2529 35.8864 26.5943 36.9181 26.523C37.9071 26.5582 38.8866 26.3197 39.7487 25.8337L39.4517 24.0413C38.7588 24.4102 37.9829 24.5953 37.1981 24.579C36.7984 24.6145 36.3998 24.4995 36.0803 24.2566C35.9267 24.1059 35.8045 23.9262 35.7208 23.728C35.6371 23.5298 35.5934 23.3169 35.5924 23.1017H40.0096V22.179ZM29.4466 23.9714C29.3693 24.1484 29.2438 24.3001 29.0844 24.4092C28.925 24.5183 28.7382 24.5805 28.5452 24.5886C28.2983 24.5907 28.0544 24.5355 27.8325 24.4274V20.5045C27.9541 20.353 28.1059 20.2286 28.2783 20.1392C28.4507 20.0497 28.6398 19.9971 28.8336 19.9848C29.5007 19.9848 29.8337 20.7017 29.8337 22.108C29.8725 22.7465 29.7484 23.3844 29.4731 23.9618L29.4456 23.9703L29.4466 23.9714ZM31.6451 18.902C31.4169 18.6067 31.1206 18.3709 30.7816 18.2149C30.4425 18.0588 30.0707 17.9871 29.698 18.0058C29.3035 18.0135 28.9153 18.1055 28.5593 18.2756C28.2034 18.4458 27.8879 18.6901 27.6342 18.9921L27.4899 18.167H25.1737V29.4151L27.8145 28.9856V26.2971C28.2016 26.4223 28.6067 26.4859 29.0129 26.4859C29.4483 26.5056 29.8831 26.4347 30.2897 26.2775C30.6963 26.1203 31.0658 25.8803 31.3747 25.5728C32.1721 24.5575 32.5556 23.2779 32.448 21.9913C32.5292 20.8898 32.2472 19.792 31.6451 18.8659V18.902ZM21.4778 18.1585H24.1376V26.3798H21.4862V18.1405L21.4778 18.1585ZM22.8034 17.3441C23.0797 17.3455 23.3503 17.2654 23.5812 17.1137C23.8121 16.962 23.9931 16.7455 24.1015 16.4914C24.2084 16.2374 24.2368 15.9573 24.1831 15.687C24.1294 15.4167 23.9961 15.1687 23.8003 14.9748C23.6044 14.7803 23.3553 14.648 23.0844 14.5947C22.8135 14.5414 22.5329 14.5694 22.2778 14.6751C22.0228 14.7809 21.8047 14.9597 21.651 15.1891C21.4973 15.4185 21.4149 15.6882 21.4141 15.9643C21.4141 16.3302 21.5615 16.6812 21.8214 16.94C22.0823 17.1988 22.4344 17.343 22.8034 17.343V17.3441ZM20.3324 18.0514C19.9868 18.0347 19.6452 18.1315 19.3599 18.3272C19.075 18.5223 18.8625 18.806 18.7554 19.1342L18.6026 18.1585H16.3045V26.3798H18.9452V21.005C19.1238 20.8072 19.3468 20.6545 19.5959 20.5595C19.8449 20.4646 20.113 20.4301 20.378 20.4589C20.5339 20.4408 20.6919 20.4408 20.8467 20.4589V18.0939C20.6855 18.0514 20.518 18.0302 20.3515 18.0323L20.3334 18.0504L20.3324 18.0514ZM15.2853 20.093L15.6013 18.1501H13.8705V15.7851L11.6084 16.1531L11.2839 18.1501L10.4811 18.2752L10.1841 20.0665H11.3104V23.8812C11.2623 24.2709 11.3057 24.6665 11.4372 25.0365C11.5686 25.4065 11.7845 25.7408 12.0676 26.0129C12.6402 26.3985 13.3268 26.578 14.0148 26.5219C14.4846 26.5325 14.9533 26.4689 15.403 26.3342V24.2747C15.1521 24.3397 14.8951 24.3788 14.6362 24.3913C14.1145 24.3913 13.8886 24.123 13.8886 23.4962V20.0824L15.2853 20.093ZM7.72365 21.2383C6.9484 20.9435 6.52525 20.7293 6.52525 20.3878C6.52525 20.0484 6.77659 19.9222 7.20929 19.9222C7.96228 19.9593 8.69829 20.1619 9.36324 20.514L9.68777 18.5616C8.86386 18.1793 7.96477 17.9865 7.05658 17.9973C6.27742 17.9608 5.50962 18.195 4.88354 18.6602C4.60871 18.8939 4.39051 19.187 4.24538 19.5173C4.10025 19.8476 4.03198 20.2065 4.04571 20.567C4.04571 21.9998 4.94717 22.6181 6.36192 23.1378C7.26338 23.4602 7.59745 23.702 7.59745 24.0329C7.59745 24.3648 7.3005 24.579 6.75963 24.579C5.88124 24.5189 5.02764 24.2619 4.26206 23.8271L3.95557 25.8241C4.87187 26.2865 5.88574 26.5251 6.91234 26.523C7.71997 26.5676 8.51929 26.3406 9.18295 25.8782C9.48255 25.6341 9.72032 25.3228 9.87696 24.9695C10.0336 24.6163 10.1047 24.231 10.0844 23.8451C10.0844 22.3678 9.18295 21.757 7.72365 21.2383Z" fill="black"/>
</g>
<defs>
<clipPath id="clip0_1637_4789">
<rect width="42.4215" height="42.4215" fill="white" transform="translate(0.773926 0.78125)"/>
</clipPath>
</defs>
</svg>
