<svg width="43" height="43" viewBox="0 0 43 43" fill="none" xmlns="http://www.w3.org/2000/svg">
<g clip-path="url(#clip0_1637_4832)">
<mask id="mask0_1637_4832" style="mask-type:luminance" maskUnits="userSpaceOnUse" x="0" y="0" width="43" height="43">
<path d="M0.419434 0.396484H42.8409V42.818H0.419434V0.396484Z" fill="white"/>
</mask>
<g mask="url(#mask0_1637_4832)">
<mask id="mask1_1637_4832" style="mask-type:luminance" maskUnits="userSpaceOnUse" x="0" y="0" width="43" height="43">
<path d="M0.419434 0.396484H42.8409V42.818H0.419434V0.396484Z" fill="white"/>
</mask>
<g mask="url(#mask1_1637_4832)">
<path d="M37.7503 0.396484H5.51001C4.15991 0.396484 2.8651 0.932812 1.91043 1.88748C0.955761 2.84215 0.419434 4.13696 0.419434 5.48706L0.419434 37.7274C0.419434 38.3959 0.551105 39.0578 0.806931 39.6755C1.06276 40.2931 1.43773 40.8543 1.91043 41.327C2.38313 41.7997 2.94431 42.1746 3.56193 42.4305C4.17955 42.6863 4.84151 42.818 5.51001 42.818H37.7503C39.1004 42.818 40.3952 42.2816 41.3499 41.327C42.3046 40.3723 42.8409 39.0775 42.8409 37.7274V5.48706C42.8409 4.13696 42.3046 2.84215 41.3499 1.88748C40.3952 0.932812 39.1004 0.396484 37.7503 0.396484Z" fill="#FF4F00"/>
<path d="M6.81235 34.9068L6.80599 34.8866L10.6324 31.3858V29.6995H4.49508V31.3858H8.16029L8.16666 31.4017L4.37842 34.9068V36.593H10.6929V34.9068H6.81235ZM14.4609 29.5373C13.7525 29.5373 13.1756 29.6433 12.7291 29.8576C12.3142 30.0441 11.9648 30.3507 11.7258 30.7378C11.4969 31.1275 11.3531 31.5612 11.3037 32.0105L13.166 32.2713C13.2328 31.8747 13.3675 31.5937 13.569 31.4282C13.8002 31.2554 14.0823 31.1673 14.3708 31.1811C14.7483 31.1811 15.022 31.2819 15.1927 31.4834C15.3613 31.6849 15.4472 31.9659 15.4472 32.3339V32.5185H13.6571C12.745 32.5185 12.0906 32.72 11.6929 33.124C11.2952 33.5281 11.0959 34.0615 11.0969 34.7254C11.0969 35.4042 11.2952 35.909 11.6929 36.2399C12.0906 36.5718 12.5902 36.7362 13.1925 36.7341C13.9392 36.7341 14.514 36.4774 14.9159 35.9631C15.1534 35.6477 15.3231 35.2866 15.4144 34.9025H15.4812L15.7378 36.5888H17.4241V32.3159C17.4241 31.4335 17.1908 30.7495 16.7273 30.2648C16.2607 29.7791 15.5077 29.5373 14.4609 29.5373ZM15.0506 34.8028C14.7823 35.0266 14.4323 35.138 13.9954 35.138C13.6348 35.138 13.3856 35.0743 13.2456 34.9492C13.1769 34.8897 13.1223 34.8158 13.0857 34.7328C13.049 34.6497 13.0312 34.5595 13.0335 34.4688C13.0296 34.3833 13.0433 34.2979 13.0736 34.2179C13.1038 34.1378 13.1501 34.0648 13.2095 34.0032C13.2735 33.9433 13.349 33.8969 13.4313 33.8668C13.5137 33.8367 13.6013 33.8236 13.6889 33.8282H15.4494V33.9449C15.4531 34.109 15.4191 34.2719 15.35 34.4208C15.2808 34.5697 15.1784 34.6998 15.0506 34.8028ZM27.6275 29.6985H25.6337V36.5941H27.6275V29.6985ZM39.3963 29.6985C38.8331 29.6985 38.3888 29.8968 38.0642 30.2934C37.8309 30.5798 37.6538 31.0008 37.534 31.5597H37.4746L37.2137 29.6974H35.5126V36.593H37.5064V33.0572C37.5064 32.6118 37.6103 32.2692 37.8193 32.0317C38.0282 31.7941 38.4132 31.6743 38.9753 31.6743H39.7314V29.6995L39.3963 29.6985ZM33.5336 29.9233C33.067 29.6476 32.4805 29.5097 31.7731 29.5097C30.6575 29.5097 29.7846 29.8279 29.1536 30.461C28.5226 31.0973 28.2076 31.9723 28.2076 33.088C28.1915 33.7628 28.3388 34.4316 28.6371 35.0372C28.9108 35.576 29.335 36.0235 29.8599 36.3247C30.3881 36.6301 31.0159 36.7829 31.7435 36.7839C32.3734 36.7839 32.8994 36.6864 33.3215 36.4923C33.7192 36.3184 34.0639 36.0469 34.3259 35.7001C34.5751 35.3607 34.7607 34.9789 34.872 34.5727L33.154 34.0912C33.0821 34.3553 32.9433 34.5964 32.751 34.7912C32.5558 34.9842 32.2313 35.0818 31.7753 35.0818C31.2333 35.0818 30.8293 34.9259 30.5631 34.6151C30.3701 34.3924 30.2492 34.0711 30.1951 33.6564H34.8975C34.9176 33.4623 34.9272 33.299 34.9272 33.1686V32.739C34.9382 32.162 34.8185 31.5898 34.5772 31.0655C34.352 30.5882 33.9879 30.1901 33.5326 29.9233H33.5336ZM31.7148 31.1525C32.5229 31.1525 32.9811 31.5502 33.0893 32.3456H30.2311C30.2767 32.0804 30.387 31.8302 30.5514 31.617C30.8134 31.3063 31.2005 31.1514 31.7148 31.1525ZM26.6529 26.9209C26.5028 26.9156 26.3532 26.9405 26.213 26.994C26.0727 27.0476 25.9446 27.1288 25.8363 27.2327C25.73 27.338 25.6468 27.4642 25.5919 27.6033C25.5369 27.7424 25.5114 27.8914 25.517 28.0409C25.5119 28.1913 25.5377 28.3412 25.5929 28.4812C25.6481 28.6212 25.7315 28.7484 25.8379 28.8548C25.9443 28.9612 26.0715 29.0446 26.2115 29.0998C26.3515 29.155 26.5014 29.1808 26.6518 29.1756C26.8018 29.1818 26.9515 29.1565 27.0912 29.1014C27.2309 29.0464 27.3575 28.9628 27.4631 28.856C27.5686 28.7491 27.6506 28.6215 27.704 28.4811C27.7573 28.3407 27.7808 28.1908 27.7728 28.0409C27.7794 27.8921 27.755 27.7436 27.7011 27.6048C27.6473 27.466 27.5651 27.34 27.4599 27.2346C27.3546 27.1293 27.2286 27.047 27.0899 26.993C26.9511 26.939 26.8016 26.9145 26.6529 26.9209ZM22.5348 29.5097C21.8561 29.5097 21.3109 29.7229 20.8984 30.1492C20.593 30.4653 20.3681 30.9372 20.2271 31.564H20.1634L19.9026 29.7017H18.2004V38.5762H20.1942V34.9206H20.2663C20.3268 35.1645 20.4127 35.401 20.5209 35.6279C20.6895 35.997 20.9663 36.3067 21.3141 36.5156C21.6747 36.7118 22.0809 36.8094 22.4913 36.7988C23.326 36.7988 23.9612 36.4743 24.3982 35.8231C24.833 35.174 25.0525 34.2673 25.0525 33.1039C25.0525 31.9797 24.8404 31.0995 24.4194 30.4631C23.9973 29.8268 23.3695 29.5097 22.5348 29.5097ZM22.7363 34.507C22.5051 34.8431 22.1413 35.0118 21.6461 35.0118C21.442 35.0211 21.2386 34.9818 21.0527 34.8969C20.8668 34.8121 20.7038 34.6842 20.5771 34.5239C20.3193 34.1994 20.191 33.7561 20.191 33.193V33.0614C20.191 32.4888 20.3204 32.0518 20.5771 31.7474C20.8348 31.4441 21.1911 31.2935 21.6461 31.2967C22.1498 31.2967 22.5157 31.4569 22.7437 31.7771C22.9728 32.0964 23.0863 32.5428 23.0863 33.1155C23.0884 33.7073 22.9718 34.1708 22.7395 34.5048H22.7374L22.7363 34.507Z" fill="#FFFDF9"/>
</g>
</g>
</g>
<defs>
<clipPath id="clip0_1637_4832">
<rect width="42.4215" height="42.4215" fill="white" transform="translate(0.419434 0.396484)"/>
</clipPath>
</defs>
</svg>
