<svg width="43" height="43" viewBox="0 0 43 43" fill="none" xmlns="http://www.w3.org/2000/svg">
<g clip-path="url(#clip0_1637_4753)">
<mask id="mask0_1637_4753" style="mask-type:luminance" maskUnits="userSpaceOnUse" x="0" y="0" width="43" height="43">
<path d="M0.0649414 0.166016H42.4864V42.5875H0.0649414V0.166016Z" fill="white"/>
</mask>
<g mask="url(#mask0_1637_4753)">
<path d="M8.97344 26.9773C8.97134 27.8578 8.70833 28.718 8.21761 29.4491C7.7269 30.1802 7.03051 30.7494 6.21642 31.0849C5.40233 31.4205 4.50706 31.5072 3.64372 31.3341C2.78038 31.161 1.9877 30.736 1.36582 30.1126C0.743943 29.4892 0.320769 28.6956 0.149758 27.8318C-0.0212525 26.9681 0.0675737 26.073 0.405015 25.2597C0.742457 24.4464 1.31337 23.7514 2.04564 23.2624C2.77791 22.7734 3.63867 22.5125 4.51919 22.5125H8.97344V26.9773ZM11.2218 26.9773C11.1923 26.3734 11.2858 25.7698 11.4967 25.2031C11.7075 24.6364 12.0312 24.1184 12.4482 23.6805C12.8652 23.2427 13.3668 22.8941 13.9226 22.6559C14.4783 22.4177 15.0767 22.2949 15.6813 22.2949C16.286 22.2949 16.8843 22.4177 17.4401 22.6559C17.9959 22.8941 18.4975 23.2427 18.9145 23.6805C19.3315 24.1184 19.6552 24.6364 19.866 25.2031C20.0768 25.7698 20.1704 26.3734 20.1409 26.9773V38.1342C20.085 39.2793 19.5908 40.3591 18.7606 41.1498C17.9304 41.9405 16.8278 42.3815 15.6813 42.3815C14.5348 42.3815 13.4323 41.9405 12.6021 41.1498C11.7719 40.3591 11.2776 39.2793 11.2218 38.1342V26.9773Z" fill="#E01E5A"/>
<path d="M15.6761 9.07452C14.7956 9.07242 13.9355 8.8094 13.2044 8.31869C12.4733 7.82798 11.904 7.13159 11.5685 6.31749C11.233 5.5034 11.1463 4.60814 11.3194 3.7448C11.4924 2.88145 11.9175 2.08877 12.5409 1.4669C13.1642 0.845018 13.9579 0.421843 14.8217 0.250832C15.6854 0.0798217 16.5805 0.168648 17.3938 0.506089C18.207 0.843531 18.9021 1.41445 19.3911 2.14671C19.88 2.87898 20.141 3.73974 20.141 4.62026V9.07452H15.6761ZM15.6761 11.3229C16.2801 11.2934 16.8837 11.3869 17.4504 11.5977C18.0171 11.8085 18.5351 12.1323 18.9729 12.5493C19.4108 12.9663 19.7594 13.4679 19.9976 14.0236C20.2357 14.5794 20.3585 15.1778 20.3585 15.7824C20.3585 16.3871 20.2357 16.9854 19.9976 17.5412C19.7594 18.0969 19.4108 18.5985 18.9729 19.0155C18.5351 19.4326 18.0171 19.7563 17.4504 19.9671C16.8837 20.1779 16.2801 20.2714 15.6761 20.242H4.51929C3.37416 20.1861 2.2944 19.6919 1.5037 18.8617C0.713006 18.0315 0.271973 16.9289 0.271973 15.7824C0.271973 14.6359 0.713006 13.5334 1.5037 12.7032C2.2944 11.8729 3.37416 11.3787 4.51929 11.3229H15.6761Z" fill="#36C5F0"/>
<path d="M33.5781 15.7772C33.5802 14.8967 33.8432 14.0366 34.3339 13.3055C34.8247 12.5744 35.521 12.0051 36.3351 11.6696C37.1492 11.3341 38.0445 11.2474 38.9078 11.4205C39.7712 11.5935 40.5639 12.0186 41.1857 12.6419C41.8076 13.2653 42.2308 14.059 42.4018 14.9227C42.5728 15.7865 42.484 16.6815 42.1465 17.4948C41.8091 18.3081 41.2382 19.0032 40.5059 19.4921C39.7736 19.9811 38.9129 20.2421 38.0324 20.2421H33.5781V15.7772ZM31.3298 15.7772C31.3621 16.3829 31.2708 16.9888 31.0613 17.558C30.8518 18.1272 30.5286 18.6478 30.1113 19.088C29.694 19.5282 29.1914 19.8788 28.6342 20.1183C28.0769 20.3579 27.4768 20.4815 26.8702 20.4815C26.2637 20.4815 25.6635 20.3579 25.1063 20.1183C24.549 19.8788 24.0465 19.5282 23.6292 19.088C23.2119 18.6478 22.8886 18.1272 22.6791 17.558C22.4696 16.9888 22.3783 16.3829 22.4107 15.7772V4.62037C22.4665 3.47524 22.9607 2.39547 23.791 1.60478C24.6212 0.81408 25.7237 0.373047 26.8702 0.373047C28.0167 0.373047 29.1193 0.81408 29.9495 1.60478C30.7797 2.39547 31.2739 3.47524 31.3298 4.62037V15.7772Z" fill="#2EB67D"/>
<path d="M26.8753 33.6786C27.7558 33.6807 28.6159 33.9437 29.347 34.4344C30.0781 34.9252 30.6474 35.6215 30.9829 36.4356C31.3184 37.2497 31.4051 38.145 31.232 39.0083C31.059 39.8717 30.6339 40.6644 30.0106 41.2862C29.3872 41.9081 28.5935 42.3313 27.7298 42.5023C26.866 42.6733 25.9709 42.5845 25.1577 42.247C24.3444 41.9096 23.6493 41.3387 23.1604 40.6064C22.6714 39.8742 22.4104 39.0134 22.4104 38.1329V33.6786H26.8753ZM26.8753 31.4303C26.2713 31.4597 25.6677 31.3662 25.101 31.1554C24.5343 30.9446 24.0163 30.6209 23.5785 30.2039C23.1406 29.7868 22.792 29.2852 22.5539 28.7295C22.3157 28.1737 22.1929 27.5754 22.1929 26.9707C22.1929 26.3661 22.3157 25.7677 22.5539 25.212C22.792 24.6562 23.1406 24.1546 23.5785 23.7376C24.0163 23.3206 24.5343 22.9969 25.101 22.786C25.6677 22.5752 26.2713 22.4817 26.8753 22.5112H38.0321C39.1773 22.567 40.257 23.0613 41.0477 23.8915C41.8384 24.7217 42.2794 25.8242 42.2794 26.9707C42.2794 28.1172 41.8384 29.2198 41.0477 30.05C40.257 30.8802 39.1773 31.3744 38.0321 31.4303H26.8753Z" fill="#ECB22E"/>
</g>
</g>
<defs>
<clipPath id="clip0_1637_4753">
<rect width="42.4215" height="42.4215" fill="white" transform="translate(0.0654297 0.164062)"/>
</clipPath>
</defs>
</svg>
